# Blender 4.4.3
# www.blender.org
o bottom_box_collision_geom_17
v 0.062935 0.136282 0.008241
v 0.054647 0.141188 0.008241
v 0.062935 0.142983 0.008241
v 0.062935 0.136332 0.019597
v 0.054647 0.145484 0.008241
v 0.062935 0.136345 0.022385
v 0.062935 0.136347 0.022763
v 0.054647 0.141306 0.022763
v 0.062013 0.143671 0.008241
v 0.062935 0.142993 0.010097
v 0.057805 0.145134 0.008241
v 0.054647 0.145484 0.022753
v 0.062935 0.137302 0.025640
v 0.054647 0.142226 0.025931
v 0.061085 0.144100 0.008241
v 0.062013 0.143689 0.013265
v 0.062935 0.143007 0.013265
v 0.060429 0.144399 0.008241
v 0.057805 0.145134 0.022763
v 0.054647 0.144902 0.025921
v 0.057805 0.144644 0.025931
v 0.062935 0.138647 0.027213
v 0.054647 0.143550 0.027644
v 0.062013 0.143689 0.022763
v 0.062935 0.143007 0.022763
v 0.060429 0.144399 0.022763
v 0.059940 0.144189 0.025931
v 0.054647 0.144139 0.027638
v 0.057805 0.144056 0.027587
v 0.059429 0.143973 0.027528
v 0.062935 0.139893 0.027592
v 0.059366 0.141072 0.027518
v 0.060971 0.140663 0.027583
v 0.062827 0.141290 0.027602
v 0.061523 0.143263 0.025931
v 0.062935 0.142676 0.024096
v 0.062935 0.141381 0.027317
v 0.062935 0.142215 0.025931
v 0.062935 0.141123 0.027600
vn -0.0000 -0.0000 -1.0000
vn 1.0000 -0.0000 -0.0000
vn 1.0000 -0.0028 -0.0000
vn 0.9999 -0.0114 -0.0000
vn -0.5094 -0.8605 0.0038
vn -0.5095 -0.8605 0.0039
vn -0.5124 -0.8587 0.0061
vn -0.5134 -0.8581 0.0070
vn -1.0000 -0.0000 -0.0000
vn 0.5980 0.8015 -0.0043
vn 0.1100 0.9939 -0.0000
vn -0.4838 -0.8306 0.2757
vn -0.4982 -0.8327 0.2418
vn 0.4197 0.9076 -0.0032
vn 0.5945 0.8041 -0.0029
vn 0.5972 0.8021 -0.0037
vn 0.2697 0.9629 -0.0000
vn 0.0795 0.9804 0.1801
vn 0.1083 0.9824 0.1520
vn -0.3839 -0.7017 0.6002
vn -0.4094 -0.7220 0.5577
vn 0.4146 0.9100 -0.0021
vn 0.4090 0.9125 -0.0000
vn 0.5945 0.8041 -0.0000
vn 0.2060 0.9670 0.1496
vn 0.2682 0.9576 0.1049
vn 0.0306 0.9134 0.4059
vn 0.0605 0.9316 0.3584
vn 0.0761 0.9445 0.3194
vn 0.2044 0.9592 0.1952
vn -0.1154 -0.2897 0.9501
vn -0.1608 -0.3529 0.9217
vn -0.0997 -0.2387 0.9660
vn -0.0903 -0.2183 0.9717
vn 0.0033 -0.0065 1.0000
vn 0.0078 0.0097 0.9999
vn 0.4059 0.9056 0.1227
vn 0.4957 0.8473 0.1906
vn 0.5828 0.7886 0.1962
vn 0.5829 0.7885 0.1961
vn 0.4865 0.8315 0.2682
vn 0.0172 0.0367 0.9992
vn 0.0401 0.0783 0.9961
vn 0.5517 0.7110 0.4360
vn 0.5534 0.7139 0.4290
vn 0.5487 0.7391 0.3908
vn 0.0079 -0.0062 0.9999
vn -0.1020 -0.2482 0.9633
vn 0.7569 0.4825 0.4407
vn 0.5843 0.7871 0.1979
s 0
f 1//1 2//1 5//1
f 1//1 5//1 11//1
f 1//1 11//1 18//1
f 1//1 18//1 15//1
f 1//1 15//1 9//1
f 1//1 9//1 3//1
f 1//2 3//2 10//2
f 1//2 10//2 17//2
f 1//2 17//2 25//2
f 1//2 25//2 36//2
f 1//2 36//2 38//2
f 1//2 38//2 37//2
f 1//2 37//2 39//2
f 1//2 39//2 31//2
f 1//2 31//2 22//2
f 1//2 22//2 13//2
f 1//2 13//2 7//2
f 1//3 7//3 6//3
f 1//4 6//4 4//4
f 1//5 4//5 2//5
f 2//6 4//6 6//6
f 2//7 6//7 7//7
f 2//8 7//8 8//8
f 2//9 8//9 14//9
f 2//9 14//9 23//9
f 2//9 23//9 28//9
f 2//9 28//9 20//9
f 2//9 20//9 12//9
f 2//9 12//9 5//9
f 3//10 9//10 10//10
f 5//11 12//11 19//11
f 5//11 19//11 11//11
f 7//12 13//12 14//12
f 7//13 14//13 8//13
f 9//14 15//14 16//14
f 9//15 16//15 17//15
f 9//16 17//16 10//16
f 11//17 19//17 26//17
f 11//17 26//17 18//17
f 12//18 20//18 21//18
f 12//19 21//19 19//19
f 13//20 22//20 23//20
f 13//21 23//21 14//21
f 15//22 18//22 16//22
f 16//23 18//23 26//23
f 16//23 26//23 24//23
f 16//24 24//24 25//24
f 16//24 25//24 17//24
f 19//25 21//25 27//25
f 19//26 27//26 26//26
f 20//27 28//27 29//27
f 20//28 29//28 30//28
f 20//29 30//29 21//29
f 21//30 30//30 27//30
f 22//31 31//31 32//31
f 22//32 32//32 23//32
f 23//33 32//33 33//33
f 23//34 33//34 31//34
f 23//35 31//35 34//35
f 23//36 34//36 28//36
f 24//37 26//37 27//37
f 24//38 27//38 35//38
f 24//39 35//39 36//39
f 24//40 36//40 25//40
f 27//41 30//41 35//41
f 28//42 34//42 29//42
f 29//43 34//43 30//43
f 30//44 34//44 37//44
f 30//45 37//45 38//45
f 30//46 38//46 35//46
f 31//47 39//47 34//47
f 31//48 33//48 32//48
f 34//49 39//49 37//49
f 35//50 38//50 36//50
