# Blender 4.4.3
# www.blender.org
o bottom_box_collision_geom_12
v 0.051461 0.145541 0.006928
v 0.051461 0.145541 0.003762
v 0.051438 0.145541 0.006942
v 0.054645 0.145483 0.008241
v 0.054645 0.145483 0.006919
v 0.054622 0.145482 0.003762
v 0.054645 0.145481 0.003754
v 0.054622 0.144718 0.000830
v 0.051461 0.144747 0.000821
v -0.053042 0.145541 0.003762
v 0.002776 0.145541 0.007971
v 0.054645 0.141188 0.008241
v 0.057795 0.145134 0.008241
v -0.053042 0.145541 0.007971
v -0.055334 0.145429 0.007971
v 0.057795 0.145134 0.003762
v 0.057795 0.144544 0.000984
v 0.054645 0.144713 0.000826
v 0.054622 0.142516 -0.000598
v 0.051461 0.142516 -0.000607
v 0.002776 0.143357 -0.000069
v -0.053042 0.144747 0.000821
v -0.055334 0.144692 0.000846
v -0.055334 0.145429 0.003762
v 0.062924 0.136281 0.008241
v -0.055334 0.141045 0.007971
v 0.060423 0.144399 0.008241
v 0.060423 0.144399 0.003762
v 0.060075 0.144251 0.001479
v 0.061060 0.142698 0.000636
v 0.057795 0.142517 -0.000440
v 0.054645 0.142508 -0.000599
v -0.053042 0.142516 -0.000607
v 0.060967 0.139640 -0.000621
v -0.055334 0.142516 -0.000583
v 0.062924 0.134737 0.004860
v 0.062924 0.142983 0.008241
v -0.055334 0.133915 0.003970
v 0.002776 0.133915 0.003970
v 0.061083 0.144099 0.008241
v 0.062009 0.143678 0.003762
v 0.062924 0.142542 0.002197
v 0.062924 0.142051 0.001111
v 0.062924 0.141090 0.000573
v -0.053042 0.139641 -0.000614
v -0.055334 0.139641 -0.000613
v 0.062924 0.139755 0.000038
v 0.062924 0.137854 -0.000599
v 0.062924 0.134976 -0.000586
v 0.062924 0.134737 -0.000583
v 0.062924 0.142992 0.003762
v 0.062009 0.143670 0.008241
v -0.055334 0.133915 -0.000550
v 0.002776 0.133915 -0.000550
vn -0.0000 1.0000 -0.0000
vn 0.0111 0.9998 0.0173
vn 0.0182 0.9998 -0.0000
vn 0.0187 0.9998 -0.0005
vn 0.0187 0.9966 -0.0802
vn 0.0176 0.9674 -0.2525
vn 0.0095 0.9654 -0.2607
vn -0.0000 0.9654 -0.2607
vn 0.0009 0.9991 0.0424
vn -0.0000 -0.0000 1.0000
vn 0.1103 0.9939 -0.0000
vn -0.0000 0.9776 0.2103
vn -0.0025 0.0504 0.9987
vn -0.0025 -0.0000 1.0000
vn 0.1096 0.9940 -0.0007
vn 0.0486 0.9988 -0.0007
vn 0.1078 0.9725 -0.2064
vn 0.0652 0.9654 -0.2523
vn 0.0729 0.7753 -0.6274
vn 0.0080 0.6266 -0.7793
vn 0.0072 0.5438 -0.8392
vn 0.0025 0.5391 -0.8422
vn -0.0000 0.5391 -0.8422
vn -0.0000 0.5393 -0.8421
vn -0.0259 0.9651 -0.2606
vn -0.0476 0.9685 -0.2445
vn -0.0491 0.9988 -0.0000
vn -0.0024 -0.0041 1.0000
vn 0.2694 0.9630 -0.0000
vn -1.0000 -0.0000 -0.0000
vn 0.2680 0.9579 -0.1028
vn 0.1686 0.9642 -0.2046
vn 0.2436 0.5776 -0.7791
vn 0.2313 0.5591 -0.7962
vn 0.0716 0.5732 -0.8163
vn 0.0415 0.5431 -0.8387
vn 0.0483 0.2470 -0.9678
vn 0.0030 0.1174 -0.9931
vn -0.0000 0.5387 -0.8425
vn 0.0028 0.0139 -0.9999
vn -0.0000 0.0048 -1.0000
vn -0.0089 0.5391 -0.8422
vn -0.0222 0.5487 -0.8357
vn 1.0000 -0.0000 -0.0000
vn -0.0217 -0.4893 0.8719
vn -0.0000 -0.8747 0.4846
vn 0.0063 -0.9096 0.4154
vn 0.4131 0.9107 -0.0000
vn 0.4135 0.9105 -0.0001
vn 0.4105 0.9038 -0.1210
vn 0.5441 0.7975 -0.2608
vn 0.5452 0.7637 -0.3457
vn 0.3889 0.6178 -0.6834
vn 0.2741 0.3585 -0.8924
vn 0.3652 0.4548 -0.8123
vn 0.2789 0.3578 -0.8912
vn 0.0497 0.1173 -0.9919
vn -0.0008 0.0024 -1.0000
vn -0.0106 0.0103 -0.9999
vn -0.0001 0.0024 -1.0000
vn 0.2793 0.3573 -0.8912
vn 0.2881 0.3042 -0.9080
vn 0.0074 -0.0045 -1.0000
vn -0.0001 -0.0077 -1.0000
vn 0.0137 -0.9999 -0.0000
vn 0.6008 0.7994 0.0016
vn -0.0000 -1.0000 -0.0000
vn 0.4203 0.9074 0.0016
vn 0.6002 0.7999 0.0014
vn 0.5849 0.7796 -0.2239
vn -0.0008 -0.0109 -0.9999
vn -0.0002 -0.0109 -0.9999
vn -0.0002 -0.0111 -0.9999
vn -0.0000 -0.0401 -0.9992
s 0
f 1//1 2//1 10//1
f 1//1 10//1 14//1
f 1//1 14//1 11//1
f 1//1 11//1 3//1
f 1//2 3//2 4//2
f 1//3 4//3 5//3
f 1//3 5//3 2//3
f 2//4 5//4 6//4
f 2//5 6//5 7//5
f 2//6 7//6 8//6
f 2//7 8//7 9//7
f 2//8 9//8 22//8
f 2//8 22//8 10//8
f 3//9 11//9 4//9
f 4//10 12//10 25//10
f 4//10 25//10 37//10
f 4//10 37//10 52//10
f 4//10 52//10 40//10
f 4//10 40//10 27//10
f 4//10 27//10 13//10
f 4//11 13//11 16//11
f 4//11 16//11 5//11
f 4//12 11//12 14//12
f 4//13 14//13 15//13
f 4//14 15//14 26//14
f 4//14 26//14 12//14
f 5//15 16//15 7//15
f 5//16 7//16 6//16
f 7//17 16//17 17//17
f 7//18 17//18 8//18
f 8//19 17//19 18//19
f 8//20 18//20 9//20
f 9//21 18//21 19//21
f 9//22 19//22 20//22
f 9//23 20//23 21//23
f 9//24 21//24 22//24
f 10//25 22//25 23//25
f 10//26 23//26 24//26
f 10//27 24//27 15//27
f 10//27 15//27 14//27
f 12//28 26//28 25//28
f 13//29 27//29 28//29
f 13//29 28//29 16//29
f 15//30 24//30 23//30
f 15//30 23//30 35//30
f 15//30 35//30 46//30
f 15//30 46//30 53//30
f 15//30 53//30 38//30
f 15//30 38//30 26//30
f 16//31 28//31 29//31
f 16//32 29//32 17//32
f 17//33 29//33 30//33
f 17//34 30//34 31//34
f 17//35 31//35 18//35
f 18//36 31//36 19//36
f 19//37 31//37 32//37
f 19//38 32//38 20//38
f 20//39 33//39 21//39
f 20//40 32//40 34//40
f 20//41 34//41 33//41
f 21//23 33//23 22//23
f 22//42 33//42 35//42
f 22//43 35//43 23//43
f 25//44 36//44 50//44
f 25//44 50//44 49//44
f 25//44 49//44 48//44
f 25//44 48//44 47//44
f 25//44 47//44 44//44
f 25//44 44//44 43//44
f 25//44 43//44 42//44
f 25//44 42//44 51//44
f 25//44 51//44 37//44
f 25//45 26//45 38//45
f 25//46 38//46 39//46
f 25//47 39//47 36//47
f 27//48 40//48 28//48
f 28//49 40//49 41//49
f 28//50 41//50 29//50
f 29//51 41//51 42//51
f 29//52 42//52 43//52
f 29//53 43//53 30//53
f 30//54 34//54 31//54
f 30//55 43//55 44//55
f 30//56 44//56 34//56
f 31//57 34//57 32//57
f 33//58 45//58 46//58
f 33//59 46//59 35//59
f 33//60 34//60 45//60
f 34//61 44//61 47//61
f 34//62 47//62 48//62
f 34//63 48//63 49//63
f 34//64 49//64 45//64
f 36//65 39//65 54//65
f 36//65 54//65 50//65
f 37//66 51//66 52//66
f 38//67 53//67 54//67
f 38//67 54//67 39//67
f 40//68 52//68 41//68
f 41//69 52//69 51//69
f 41//70 51//70 42//70
f 45//71 53//71 46//71
f 45//72 49//72 50//72
f 45//73 50//73 53//73
f 50//74 54//74 53//74
