# Blender 4.4.3
# www.blender.org
o bottom_box_collision_geom_0
v 0.002770 -0.145541 0.003762
v 0.002770 -0.145541 0.004290
v 0.002770 -0.144742 0.000819
v 0.051468 -0.145541 0.003762
v 0.051468 -0.145541 0.004290
v 0.002770 -0.137835 0.004290
v 0.002770 -0.143902 0.000281
v 0.051468 -0.144742 0.000819
v 0.054631 -0.144715 0.000829
v 0.054631 -0.145474 0.003762
v 0.054631 -0.145474 0.004290
v 0.002770 -0.122353 0.004274
v 0.061863 -0.007184 0.004290
v 0.002770 -0.142507 -0.000609
v 0.051468 -0.142507 -0.000609
v 0.054631 -0.142507 -0.000599
v 0.057800 -0.144539 0.000983
v 0.057800 -0.142507 -0.000440
v 0.057800 -0.145121 0.003762
v 0.055165 -0.145419 0.004290
v 0.002770 -0.007184 0.003972
v 0.068440 -0.007184 0.004290
v 0.002770 -0.124073 -0.001023
v 0.032471 -0.124073 -0.001023
v 0.035634 -0.124006 -0.001013
v 0.060970 -0.139636 -0.000621
v 0.060076 -0.144241 0.001478
v 0.061066 -0.142697 0.000636
v 0.057800 -0.145121 0.004290
v 0.060423 -0.144390 0.003762
v 0.002770 -0.007184 -0.000551
v 0.068446 -0.007184 0.003762
v 0.068440 -0.130995 0.004290
v 0.002770 -0.122353 -0.001032
v 0.035634 -0.122353 -0.001035
v 0.038546 -0.122191 -0.001022
v 0.064133 -0.136751 -0.000585
v 0.064383 -0.139839 0.000525
v 0.041786 -0.119319 -0.001022
v 0.043754 -0.118249 -0.001012
v 0.043856 -0.116597 -0.001023
v 0.063490 -0.141857 0.001253
v 0.062011 -0.143672 0.003762
v 0.060423 -0.144390 0.004290
v 0.061748 -0.143794 0.004290
v 0.043207 -0.007184 -0.001021
v 0.043226 -0.007198 -0.001023
v 0.068446 -0.130995 0.003762
v 0.068433 -0.007184 0.003734
v 0.068324 -0.133880 0.004290
v 0.043850 -0.007184 -0.001023
v 0.043856 -0.007198 -0.001023
v 0.067090 -0.130995 0.000800
v 0.067026 -0.133880 0.000793
v 0.066749 -0.136751 0.000822
v 0.064133 -0.007184 -0.000562
v 0.067090 -0.007184 0.000800
v 0.066261 -0.139013 0.001299
v 0.065534 -0.140855 0.003762
v 0.063946 -0.142237 0.003762
v 0.062011 -0.143672 0.004290
v 0.068331 -0.133880 0.003762
v 0.067784 -0.136751 0.004290
v 0.067778 -0.136751 0.003762
v 0.066531 -0.139419 0.003762
v 0.065701 -0.140625 0.004290
v 0.065528 -0.140855 0.004290
v 0.063946 -0.142237 0.004290
v 0.066531 -0.139419 0.004290
vn -1.0000 -0.0000 -0.0000
vn -0.0000 -0.9651 -0.2621
vn -0.0000 -0.9650 -0.2621
vn -0.0000 -1.0000 -0.0000
vn -0.0000 -0.0000 1.0000
vn -0.0000 -0.5394 -0.8420
vn 0.0091 -0.9650 -0.2621
vn 0.0207 -0.9679 -0.2503
vn 0.0214 -0.9998 -0.0000
vn -0.0022 0.0010 1.0000
vn -0.0000 -0.5378 -0.8431
vn -0.0000 -0.5384 -0.8427
vn 0.0026 -0.5384 -0.8427
vn 0.0073 -0.5431 -0.8397
vn 0.0658 -0.9661 -0.2498
vn 0.0421 -0.5426 -0.8389
vn 0.0716 -0.5723 -0.8169
vn 0.1104 -0.9938 -0.0097
vn 0.1010 -0.9949 -0.0000
vn 0.1081 -0.9730 -0.2039
vn -0.0054 0.0026 1.0000
vn -0.0000 1.0000 -0.0000
vn -0.0000 -0.0225 -0.9997
vn 0.0031 -0.0193 -0.9998
vn 0.0035 -0.0188 -0.9998
vn 0.0046 -0.0177 -0.9998
vn 0.0498 -0.1174 -0.9918
vn 0.1702 -0.9644 -0.2022
vn 0.2301 -0.5584 -0.7971
vn 0.2448 -0.5806 -0.7765
vn 0.2733 -0.3579 -0.8929
vn 0.1123 -0.9937 -0.0000
vn 0.2672 -0.9581 -0.1031
vn 0.2686 -0.9633 -0.0000
vn 0.9999 -0.0000 0.0122
vn -0.0001 -0.0049 -1.0000
vn -0.0000 -0.0070 -1.0000
vn 0.0034 -0.0132 -0.9999
vn 0.0052 -0.0132 -0.9999
vn 0.0063 -0.0149 -0.9999
vn 0.2868 -0.3033 -0.9087
vn 0.2779 -0.3572 -0.8917
vn 0.0096 -0.0107 -0.9999
vn 0.0104 -0.0099 -0.9999
vn 0.0131 -0.0078 -0.9999
vn 0.0162 -0.0054 -0.9999
vn 0.3885 -0.6207 -0.6811
vn 0.5414 -0.7998 -0.2595
vn 0.4089 -0.9045 -0.1212
vn 0.3645 -0.4547 -0.8127
vn 0.4119 -0.9112 -0.0047
vn 0.4104 -0.9119 -0.0000
vn -0.0114 0.1729 -0.9849
vn -0.0117 0.0042 -0.9999
vn 0.9095 -0.0000 -0.4157
vn 0.9991 -0.0401 0.0122
vn -0.0001 0.0001 -1.0000
vn 0.0040 -0.0036 -1.0000
vn 0.0048 -0.0052 -1.0000
vn -0.0000 0.0001 -1.0000
vn 0.0002 0.0001 -1.0000
vn 0.0015 -0.0000 -1.0000
vn 0.4360 -0.0074 -0.8999
vn 0.4729 -0.0545 -0.8794
vn 0.4563 -0.2679 -0.8485
vn 0.0216 -0.0000 -0.9998
vn 0.0227 0.0002 -0.9997
vn 0.4184 0.0002 -0.9083
vn 0.4242 -0.0000 -0.9056
vn 0.4683 -0.2780 -0.8387
vn 0.5069 -0.4823 -0.7145
vn 0.0091 -0.0075 -0.9999
vn 0.6870 -0.6644 -0.2943
vn 0.6392 -0.7347 -0.2273
vn 0.5807 -0.7827 -0.2239
vn 0.5959 -0.8031 -0.0000
vn 0.4197 -0.9076 -0.0000
vn -0.0040 0.1831 -0.9831
vn 0.9149 -0.0367 -0.4021
vn 0.9090 -0.0192 -0.4163
vn 0.9092 -0.0000 -0.4164
vn 0.9827 -0.1848 0.0120
vn 0.0227 0.0108 -0.9997
vn 0.9116 -0.0918 -0.4007
vn 0.9287 -0.1788 -0.3249
vn 0.9105 -0.2638 -0.3185
vn 0.8079 -0.5608 -0.1811
vn 0.8932 -0.4175 -0.1668
vn 0.7985 -0.6019 0.0097
vn 0.6579 -0.7531 0.0080
vn 0.6564 -0.7544 -0.0000
vn 0.8215 -0.5701 -0.0114
vn 0.9819 -0.1891 -0.0120
vn 0.9059 -0.4234 -0.0110
vn 0.9051 -0.4252 -0.0000
vn 0.8239 -0.5668 -0.0000
s 0
f 1//1 2//1 6//1
f 1//1 6//1 12//1
f 1//1 12//1 21//1
f 1//1 21//1 31//1
f 1//1 31//1 34//1
f 1//1 34//1 23//1
f 1//1 23//1 14//1
f 1//1 14//1 7//1
f 1//1 7//1 3//1
f 1//2 3//2 8//2
f 1//3 8//3 4//3
f 1//4 4//4 5//4
f 1//4 5//4 2//4
f 2//5 5//5 11//5
f 2//5 11//5 20//5
f 2//5 20//5 29//5
f 2//5 29//5 44//5
f 2//5 44//5 45//5
f 2//5 45//5 61//5
f 2//5 61//5 68//5
f 2//5 68//5 67//5
f 2//5 67//5 66//5
f 2//5 66//5 69//5
f 2//5 69//5 63//5
f 2//5 63//5 50//5
f 2//5 50//5 33//5
f 2//5 33//5 22//5
f 2//5 22//5 13//5
f 2//5 13//5 6//5
f 3//6 7//6 8//6
f 4//7 8//7 9//7
f 4//8 9//8 10//8
f 4//9 10//9 11//9
f 4//9 11//9 5//9
f 6//10 13//10 12//10
f 7//11 14//11 15//11
f 7//12 15//12 8//12
f 8//13 15//13 16//13
f 8//14 16//14 9//14
f 9//15 17//15 10//15
f 9//16 16//16 18//16
f 9//17 18//17 17//17
f 10//18 19//18 20//18
f 10//19 20//19 11//19
f 10//20 17//20 19//20
f 12//21 13//21 21//21
f 13//22 22//22 32//22
f 13//22 32//22 49//22
f 13//22 49//22 57//22
f 13//22 57//22 56//22
f 13//22 56//22 51//22
f 13//22 51//22 46//22
f 13//22 46//22 31//22
f 13//22 31//22 21//22
f 14//23 23//23 24//23
f 14//23 24//23 15//23
f 15//24 24//24 16//24
f 16//25 24//25 25//25
f 16//26 25//26 26//26
f 16//27 26//27 18//27
f 17//28 27//28 19//28
f 17//29 18//29 28//29
f 17//30 28//30 27//30
f 18//31 26//31 28//31
f 19//32 29//32 20//32
f 19//33 27//33 30//33
f 19//34 30//34 44//34
f 19//34 44//34 29//34
f 22//35 33//35 48//35
f 22//35 48//35 32//35
f 23//36 34//36 35//36
f 23//37 35//37 24//37
f 24//38 35//38 25//38
f 25//39 35//39 36//39
f 25//40 36//40 26//40
f 26//41 37//41 38//41
f 26//42 38//42 28//42
f 26//43 36//43 39//43
f 26//44 39//44 40//44
f 26//45 40//45 41//45
f 26//46 41//46 37//46
f 27//47 28//47 42//47
f 27//48 42//48 43//48
f 27//49 43//49 30//49
f 28//50 38//50 42//50
f 30//51 43//51 45//51
f 30//52 45//52 44//52
f 31//53 46//53 47//53
f 31//54 47//54 34//54
f 32//55 48//55 49//55
f 33//56 50//56 62//56
f 33//56 62//56 48//56
f 34//57 47//57 35//57
f 35//58 41//58 39//58
f 35//59 39//59 36//59
f 35//60 47//60 51//60
f 35//61 51//61 52//61
f 35//62 52//62 41//62
f 37//63 53//63 54//63
f 37//64 54//64 55//64
f 37//65 55//65 38//65
f 37//66 41//66 52//66
f 37//67 52//67 56//67
f 37//68 56//68 57//68
f 37//69 57//69 53//69
f 38//70 55//70 58//70
f 38//71 58//71 42//71
f 39//72 41//72 40//72
f 42//73 58//73 59//73
f 42//74 59//74 60//74
f 42//75 60//75 43//75
f 43//76 60//76 68//76
f 43//76 68//76 61//76
f 43//77 61//77 45//77
f 46//78 51//78 47//78
f 48//79 62//79 54//79
f 48//80 54//80 53//80
f 48//81 53//81 49//81
f 49//81 53//81 57//81
f 50//82 63//82 62//82
f 51//83 56//83 52//83
f 54//84 62//84 55//84
f 55//85 62//85 64//85
f 55//86 64//86 58//86
f 58//87 65//87 59//87
f 58//88 64//88 65//88
f 59//89 66//89 67//89
f 59//90 67//90 68//90
f 59//91 68//91 60//91
f 59//92 65//92 66//92
f 62//93 63//93 64//93
f 63//94 65//94 64//94
f 63//95 69//95 65//95
f 65//96 69//96 66//96
