# Blender 4.4.3
# www.blender.org
o bottom_box_collision_geom_16
v -0.053011 -0.143578 0.027643
v -0.062745 -0.139824 0.027636
v -0.053044 -0.143578 0.027643
v -0.053011 -0.144144 0.027643
v -0.053011 -0.143565 0.027627
v -0.064824 -0.137085 0.027587
v -0.063936 -0.137625 0.027601
v -0.053044 -0.144144 0.027643
v -0.065489 -0.137085 0.027578
v -0.064434 -0.139639 0.027603
v -0.062543 -0.141431 0.027601
v -0.056212 -0.144121 0.027634
v -0.053011 -0.144927 0.025947
v -0.063650 -0.137085 0.026720
v -0.053011 -0.142310 0.025929
v -0.053044 -0.144935 0.025929
v -0.066283 -0.137085 0.026920
v -0.064176 -0.141124 0.027544
v -0.058220 -0.144051 0.027589
v -0.056212 -0.144838 0.025929
v -0.053011 -0.144935 0.025929
v -0.063185 -0.137085 0.026071
v -0.053011 -0.142301 0.025898
v -0.053044 -0.145541 0.022762
v -0.053011 -0.145535 0.022796
v -0.066938 -0.137085 0.026235
v -0.066598 -0.137385 0.026556
v -0.060333 -0.143421 0.026960
v -0.067463 -0.137085 0.025287
v -0.067314 -0.138232 0.024445
v -0.064480 -0.141410 0.025929
v -0.061142 -0.144055 0.024849
v -0.059318 -0.144329 0.025916
v -0.056212 -0.145390 0.022762
v -0.053011 -0.141421 0.022762
v -0.053011 -0.139190 0.004702
v -0.062470 -0.137085 0.022762
v -0.053011 -0.145541 0.022762
v -0.055273 -0.145435 0.004702
v -0.053044 -0.145541 0.004702
v -0.067720 -0.137085 0.022762
v -0.067322 -0.138248 0.022762
v -0.066343 -0.139687 0.022762
v -0.064761 -0.141673 0.022762
v -0.062817 -0.143113 0.022762
v -0.061233 -0.144103 0.022762
v -0.059378 -0.144744 0.022762
v -0.058441 -0.144935 0.004702
v -0.056212 -0.145390 0.004702
v -0.053011 -0.145541 0.004702
v -0.060946 -0.137085 0.004702
v -0.067720 -0.137085 0.004702
v -0.067473 -0.137807 0.004702
v -0.067322 -0.138248 0.004702
v -0.067033 -0.138674 0.004702
v -0.066343 -0.139687 0.004702
v -0.065229 -0.141086 0.004702
v -0.064761 -0.141673 0.004702
v -0.062817 -0.143113 0.004702
v -0.061702 -0.143810 0.004702
v -0.061233 -0.144103 0.004702
v -0.060684 -0.144293 0.004702
v -0.059378 -0.144744 0.004702
vn -0.0000 0.0018 1.0000
vn -0.0000 -0.0000 1.0000
vn 1.0000 -0.0000 -0.0000
vn 1.0000 0.0012 -0.0000
vn 1.0000 0.0008 -0.0000
vn 1.0000 0.0001 -0.0000
vn 0.3851 0.7058 0.5946
vn 0.0909 0.1738 0.9806
vn 0.0071 0.0202 0.9998
vn -0.0007 -0.0000 1.0000
vn -0.0078 0.0121 0.9999
vn -0.0135 0.0078 0.9999
vn -0.0198 0.0015 0.9998
vn -0.0227 -0.0252 0.9994
vn -0.0157 -0.0243 0.9996
vn -0.0029 -0.0049 1.0000
vn -0.0000 -0.9079 0.4191
vn 0.4020 0.7363 0.5442
vn -0.0000 1.0000 -0.0000
vn -0.0000 1.0000 0.0001
vn -0.0078 -0.9079 0.4192
vn -0.0009 -0.9079 0.4193
vn -0.6243 -0.2092 0.7526
vn -0.1998 -0.0731 0.9771
vn -0.0431 -0.0467 0.9980
vn -0.0507 -0.0879 0.9948
vn -0.0238 -0.0436 0.9988
vn -0.0406 -0.9211 0.3873
vn -0.0284 -0.9214 0.3875
vn -0.0000 -0.9086 0.4178
vn 0.4373 0.8430 0.3133
vn 0.4453 0.8604 0.2480
vn -0.0303 -0.9818 0.1876
vn -0.0182 -0.9821 0.1877
vn -0.0000 -0.9822 0.1878
vn -0.7205 -0.0783 0.6890
vn -0.6400 -0.2199 0.7362
vn -0.3819 -0.7692 0.5123
vn -0.7906 -0.3866 0.4749
vn -0.8003 -0.4033 0.4437
vn -0.8037 -0.4167 0.4247
vn -0.7777 -0.5774 0.2484
vn -0.5522 -0.7969 0.2448
vn -0.4229 -0.8105 0.4052
vn -0.3684 -0.8422 0.3938
vn -0.3457 -0.8625 0.3696
vn -0.1573 -0.9525 0.2609
vn -0.1601 -0.9724 0.1695
vn -0.0468 -0.9841 0.1716
vn 0.4459 0.8618 0.2418
vn 0.4200 0.9007 0.1112
vn 0.3536 0.9323 0.0765
vn -0.0000 -0.9854 0.1702
vn -0.0475 -0.9989 -0.0000
vn -0.0000 -1.0000 -0.0000
vn -0.9748 -0.1999 0.0990
vn -0.9463 -0.3233 0.0079
vn -0.8268 -0.5624 0.0095
vn -0.7791 -0.6208 0.0876
vn -0.7682 -0.6288 0.1204
vn -0.5928 -0.7966 0.1188
vn -0.5912 -0.7984 0.1141
vn -0.5299 -0.8470 0.0429
vn -0.3263 -0.9446 0.0363
vn -0.2220 -0.9661 0.1316
vn -0.1981 -0.9713 0.1318
vn -0.1998 -0.9798 -0.0000
vn -0.0476 -0.9989 -0.0000
vn -0.0000 -0.0000 -1.0000
vn 0.2564 0.9663 0.0216
vn -0.9466 -0.3225 -0.0000
vn -0.9463 -0.3234 -0.0000
vn -0.9458 -0.3247 -0.0000
vn -0.8274 -0.5617 -0.0000
vn -0.8268 -0.5624 -0.0000
vn -0.8266 -0.5627 -0.0000
vn -0.7821 -0.6231 -0.0000
vn -0.7821 -0.6232 -0.0000
vn -0.7819 -0.6234 -0.0000
vn -0.5951 -0.8036 -0.0000
vn -0.5307 -0.8476 -0.0000
vn -0.5303 -0.8478 -0.0000
vn -0.5295 -0.8483 -0.0000
vn -0.3266 -0.9452 -0.0000
vn -0.3265 -0.9452 -0.0000
vn -0.1999 -0.9798 -0.0000
s 0
f 1//1 2//1 3//1
f 1//2 3//2 8//2
f 1//2 8//2 4//2
f 1//3 4//3 13//3
f 1//4 13//4 21//4
f 1//3 21//3 25//3
f 1//5 25//5 38//5
f 1//3 38//3 50//3
f 1//3 50//3 36//3
f 1//3 36//3 35//3
f 1//3 35//3 23//3
f 1//6 23//6 15//6
f 1//3 15//3 5//3
f 1//7 5//7 6//7
f 1//8 6//8 7//8
f 1//9 7//9 2//9
f 2//10 8//10 3//10
f 2//11 7//11 6//11
f 2//12 6//12 9//12
f 2//13 9//13 10//13
f 2//14 10//14 11//14
f 2//15 11//15 12//15
f 2//16 12//16 8//16
f 4//17 8//17 13//17
f 5//18 14//18 6//18
f 5//18 15//18 14//18
f 6//19 14//19 22//19
f 6//19 22//19 37//19
f 6//19 37//19 51//19
f 6//19 51//19 52//19
f 6//19 52//19 41//19
f 6//19 41//19 29//19
f 6//19 29//19 26//19
f 6//20 26//20 17//20
f 6//19 17//19 9//19
f 8//21 12//21 16//21
f 8//22 16//22 13//22
f 9//23 17//23 18//23
f 9//24 18//24 10//24
f 10//25 18//25 11//25
f 11//26 18//26 19//26
f 11//27 19//27 12//27
f 12//28 19//28 20//28
f 12//29 20//29 16//29
f 13//30 16//30 21//30
f 14//31 15//31 22//31
f 15//32 23//32 22//32
f 16//33 20//33 24//33
f 16//34 24//34 25//34
f 16//35 25//35 21//35
f 17//36 26//36 27//36
f 17//37 27//37 18//37
f 18//38 28//38 19//38
f 18//39 27//39 26//39
f 18//40 26//40 29//40
f 18//41 29//41 30//41
f 18//42 30//42 31//42
f 18//43 31//43 32//43
f 18//44 32//44 28//44
f 19//45 28//45 32//45
f 19//46 32//46 33//46
f 19//47 33//47 20//47
f 20//48 33//48 34//48
f 20//49 34//49 24//49
f 22//50 23//50 35//50
f 22//51 35//51 36//51
f 22//52 36//52 37//52
f 24//53 38//53 25//53
f 24//54 34//54 39//54
f 24//54 39//54 40//54
f 24//55 40//55 50//55
f 24//55 50//55 38//55
f 29//56 41//56 30//56
f 30//57 41//57 42//57
f 30//58 42//58 43//58
f 30//59 43//59 44//59
f 30//60 44//60 31//60
f 31//61 44//61 32//61
f 32//62 44//62 45//62
f 32//63 45//63 46//63
f 32//64 46//64 47//64
f 32//65 47//65 33//65
f 33//66 47//66 34//66
f 34//67 47//67 48//67
f 34//67 48//67 49//67
f 34//68 49//68 39//68
f 36//69 50//69 40//69
f 36//69 40//69 39//69
f 36//69 39//69 49//69
f 36//69 49//69 48//69
f 36//69 48//69 63//69
f 36//69 63//69 62//69
f 36//69 62//69 61//69
f 36//69 61//69 60//69
f 36//69 60//69 59//69
f 36//69 59//69 58//69
f 36//69 58//69 57//69
f 36//69 57//69 56//69
f 36//69 56//69 55//69
f 36//69 55//69 54//69
f 36//69 54//69 53//69
f 36//69 53//69 52//69
f 36//69 52//69 51//69
f 36//70 51//70 37//70
f 41//71 52//71 53//71
f 41//72 53//72 42//72
f 42//73 53//73 54//73
f 42//74 54//74 55//74
f 42//75 55//75 43//75
f 43//76 55//76 56//76
f 43//77 56//77 57//77
f 43//78 57//78 44//78
f 44//79 57//79 58//79
f 44//80 58//80 59//80
f 44//80 59//80 45//80
f 45//81 59//81 60//81
f 45//82 60//82 46//82
f 46//83 60//83 61//83
f 46//84 61//84 62//84
f 46//85 62//85 47//85
f 47//85 62//85 63//85
f 47//86 63//86 48//86
