# Blender 4.4.3
# www.blender.org
o bottom_box_collision_geom_18
v 0.066729 -0.007174 0.024778
v 0.068085 -0.007174 0.022764
v 0.065144 -0.007174 0.024778
v 0.066727 -0.035893 0.024776
v 0.068083 -0.035893 0.022764
v 0.068434 -0.007174 0.019598
v 0.068095 -0.035893 0.022662
v 0.068433 -0.035893 0.019598
v 0.064247 -0.007174 0.022784
v 0.064268 -0.035893 0.022829
v 0.065144 -0.035893 0.024776
v 0.068433 -0.007174 0.018683
v 0.068433 -0.035893 0.018683
v 0.064239 -0.007174 0.022764
v 0.064239 -0.035893 0.022764
v 0.067145 -0.007174 0.018683
v 0.063911 -0.035893 0.018683
v 0.063911 -0.007174 0.019598
v 0.063911 -0.035893 0.019598
v 0.063911 -0.007179 0.018683
vn -0.0000 1.0000 -0.0000
vn -0.0000 -0.0001 1.0000
vn 0.8293 -0.0001 0.5588
vn 0.8294 -0.0001 0.5586
vn 0.9938 -0.0001 0.1115
vn 0.9939 -0.0001 0.1099
vn 0.9940 -0.0000 0.1095
vn -0.9120 -0.0000 0.4103
vn -0.9119 -0.0000 0.4104
vn -0.0000 -1.0000 -0.0000
vn 1.0000 -0.0000 -0.0000
vn 1.0000 -0.0000 -0.0010
vn -0.9196 -0.0000 0.3928
vn -0.9121 -0.0000 0.4099
vn -0.0000 -0.0000 -1.0000
vn -0.9947 -0.0000 0.1029
vn -0.0017 1.0000 -0.0062
vn -1.0000 -0.0000 -0.0000
s 0
f 1//1 2//1 6//1
f 1//1 6//1 12//1
f 1//1 12//1 16//1
f 1//1 16//1 18//1
f 1//1 18//1 14//1
f 1//1 14//1 9//1
f 1//1 9//1 3//1
f 1//2 3//2 11//2
f 1//2 11//2 4//2
f 1//3 4//3 5//3
f 1//4 5//4 2//4
f 2//5 5//5 7//5
f 2//6 7//6 8//6
f 2//7 8//7 6//7
f 3//8 9//8 10//8
f 3//9 10//9 11//9
f 4//10 11//10 10//10
f 4//10 10//10 15//10
f 4//10 15//10 19//10
f 4//10 19//10 17//10
f 4//10 17//10 13//10
f 4//10 13//10 8//10
f 4//10 8//10 7//10
f 4//10 7//10 5//10
f 6//11 8//11 13//11
f 6//12 13//12 12//12
f 9//13 14//13 15//13
f 9//14 15//14 10//14
f 12//15 13//15 17//15
f 12//15 17//15 20//15
f 12//15 20//15 16//15
f 14//16 18//16 19//16
f 14//16 19//16 15//16
f 16//17 20//17 18//17
f 17//18 19//18 18//18
f 17//18 18//18 20//18
