# Blender 4.4.3
# www.blender.org
o bottom_box_collision_geom_9
v 0.068316 -0.133961 0.004291
v 0.067784 -0.136761 0.004291
v 0.061564 -0.133961 0.004291
v 0.068310 -0.133961 0.019683
v 0.067784 -0.136761 0.019596
v 0.066535 -0.139428 0.004291
v 0.054637 -0.137820 0.004291
v 0.054631 -0.137822 0.004293
v 0.063717 -0.133961 0.022762
v 0.068301 -0.133961 0.022762
v 0.067783 -0.136761 0.022762
v 0.066535 -0.139428 0.022762
v 0.065543 -0.140866 0.013263
v 0.065701 -0.140626 0.004291
v 0.054631 -0.145450 0.004291
v 0.054631 -0.141307 0.022762
v 0.064481 -0.133961 0.025935
v 0.068281 -0.133961 0.022849
v 0.067011 -0.136761 0.025931
v 0.066225 -0.138990 0.025931
v 0.065543 -0.140866 0.022762
v 0.063959 -0.142250 0.013263
v 0.065532 -0.140866 0.004291
v 0.054631 -0.145485 0.004291
v 0.054631 -0.142229 0.025931
v 0.065436 -0.133961 0.027602
v 0.067365 -0.133961 0.025931
v 0.065850 -0.138435 0.027595
v 0.065044 -0.140428 0.025931
v 0.063461 -0.141823 0.025931
v 0.063959 -0.142250 0.022762
v 0.062013 -0.143690 0.013263
v 0.062013 -0.143675 0.004291
v 0.063949 -0.142236 0.004291
v 0.055167 -0.145426 0.004291
v 0.054631 -0.145485 0.022758
v 0.054631 -0.143552 0.027643
v 0.065478 -0.133961 0.027645
v 0.067336 -0.133961 0.025976
v 0.065981 -0.136761 0.027641
v 0.062827 -0.141290 0.027602
v 0.061523 -0.143264 0.025931
v 0.059430 -0.143973 0.027526
v 0.062013 -0.143690 0.022762
v 0.060430 -0.144398 0.004291
v 0.061748 -0.143798 0.004291
v 0.057805 -0.145134 0.004291
v 0.057805 -0.145134 0.022762
v 0.054637 -0.145484 0.022762
v 0.054637 -0.144901 0.025931
v 0.054631 -0.144902 0.025924
v 0.054631 -0.144139 0.027638
v 0.054637 -0.144138 0.027643
v 0.066080 -0.133961 0.027645
v 0.057805 -0.144056 0.027588
v 0.059941 -0.144190 0.025931
v 0.057805 -0.144644 0.025931
v 0.060430 -0.144398 0.022762
vn -0.0000 -0.0000 -1.0000
vn -0.0000 1.0000 -0.0000
vn 0.9828 -0.1848 0.0003
vn 0.9824 -0.1866 -0.0000
vn 0.9057 -0.4240 -0.0000
vn -0.4229 0.7592 -0.4947
vn -0.4858 0.8722 0.0566
vn 0.9833 -0.1820 0.0030
vn 0.9828 -0.1848 0.0004
vn 0.9059 -0.4236 0.0004
vn 0.8206 -0.5716 -0.0009
vn 0.8231 -0.5680 -0.0000
vn -0.3229 0.0003 -0.9464
vn -0.6221 0.7694 0.1452
vn -1.0000 -0.0000 -0.0000
vn -0.6217 0.7689 0.1496
vn 0.9588 -0.1775 0.2217
vn 0.9562 -0.1774 0.2329
vn 0.9191 -0.3242 0.2238
vn 0.8962 -0.4191 0.1458
vn 0.8128 -0.5609 0.1572
vn 0.6582 -0.7529 -0.0008
vn 0.8183 -0.5748 -0.0010
vn 0.6582 -0.7529 -0.0000
vn -0.6276 0.7475 0.2175
vn -0.6034 0.7186 0.3458
vn 0.9516 -0.1202 0.2829
vn 0.8633 -0.1090 0.4928
vn 0.8973 -0.3165 0.3078
vn 0.7567 -0.6208 0.2048
vn 0.7213 -0.5918 0.3599
vn 0.6471 -0.7348 0.2033
vn 0.6448 -0.7375 0.2009
vn 0.5946 -0.8040 -0.0000
vn 0.5946 -0.8040 -0.0013
vn 0.5968 -0.8024 -0.0020
vn 0.6542 -0.7563 -0.0020
vn 0.1089 -0.9941 -0.0000
vn -0.5735 0.6482 0.5010
vn -0.5545 0.6270 0.5472
vn 0.8482 -0.0932 0.5214
vn 0.8347 -0.0803 0.5448
vn 0.0303 -0.0297 0.9991
vn 0.6055 -0.6397 0.4733
vn 0.5936 -0.6740 0.4398
vn 0.5847 -0.7867 0.1981
vn 0.5518 -0.7110 0.4358
vn 0.5490 -0.7386 0.3913
vn 0.5831 -0.7883 0.1963
vn 0.4144 -0.9101 -0.0013
vn 0.4206 -0.9072 -0.0015
vn 0.4084 -0.9128 -0.0000
vn 0.1101 -0.9939 -0.0000
vn 0.1099 -0.9939 -0.0000
vn 0.1094 -0.9905 0.0837
vn 0.0429 -0.9826 0.1808
vn -0.0190 -0.9833 0.1812
vn -0.5625 -0.0064 0.8268
vn -0.0002 -0.0000 1.0000
vn -0.0000 -0.0002 1.0000
vn 0.7985 -0.0293 0.6012
vn 0.0013 -0.0017 1.0000
vn 0.0106 -0.0159 0.9998
vn 0.0183 -0.0382 0.9991
vn 0.0419 -0.0811 0.9958
vn 0.4960 -0.8471 0.1908
vn 0.4867 -0.8313 0.2685
vn 0.0608 -0.9315 0.3587
vn 0.0763 -0.9445 0.3195
vn 0.2042 -0.9592 0.1955
vn 0.4054 -0.9059 0.1222
vn 0.2699 -0.9629 -0.0000
vn 0.2684 -0.9576 0.1045
vn 0.2059 -0.9671 0.1494
vn 0.1085 -0.9824 0.1518
vn 0.0792 -0.9804 0.1805
vn 0.0308 -0.9131 0.4067
vn -0.1242 -0.9064 0.4038
vn -0.2529 -0.8840 0.3931
s 0
f 1//1 2//1 6//1
f 1//1 6//1 14//1
f 1//1 14//1 23//1
f 1//1 23//1 34//1
f 1//1 34//1 33//1
f 1//1 33//1 46//1
f 1//1 46//1 45//1
f 1//1 45//1 47//1
f 1//1 47//1 35//1
f 1//1 35//1 24//1
f 1//1 24//1 15//1
f 1//1 15//1 7//1
f 1//1 7//1 3//1
f 1//2 3//2 9//2
f 1//2 9//2 17//2
f 1//2 17//2 26//2
f 1//2 26//2 38//2
f 1//2 38//2 54//2
f 1//2 54//2 39//2
f 1//2 39//2 27//2
f 1//2 27//2 18//2
f 1//2 18//2 10//2
f 1//2 10//2 4//2
f 1//3 4//3 5//3
f 1//4 5//4 2//4
f 2//5 5//5 12//5
f 2//5 12//5 6//5
f 3//6 7//6 8//6
f 3//7 8//7 9//7
f 4//8 10//8 11//8
f 4//9 11//9 5//9
f 5//10 11//10 12//10
f 6//11 13//11 14//11
f 6//12 12//12 21//12
f 6//12 21//12 13//12
f 7//13 15//13 8//13
f 8//14 16//14 9//14
f 8//15 15//15 24//15
f 8//15 24//15 36//15
f 8//15 36//15 51//15
f 8//15 51//15 52//15
f 8//15 52//15 37//15
f 8//15 37//15 25//15
f 8//15 25//15 16//15
f 9//16 16//16 17//16
f 10//17 18//17 11//17
f 11//18 18//18 19//18
f 11//19 19//19 20//19
f 11//20 20//20 12//20
f 12//21 20//21 21//21
f 13//22 22//22 23//22
f 13//23 23//23 14//23
f 13//24 21//24 31//24
f 13//24 31//24 22//24
f 16//25 25//25 17//25
f 17//26 25//26 26//26
f 18//27 27//27 19//27
f 19//28 27//28 28//28
f 19//29 28//29 20//29
f 20//30 29//30 21//30
f 20//31 28//31 29//31
f 21//32 29//32 30//32
f 21//33 30//33 31//33
f 22//34 31//34 44//34
f 22//34 44//34 32//34
f 22//35 32//35 33//35
f 22//36 33//36 34//36
f 22//37 34//37 23//37
f 24//38 35//38 36//38
f 25//39 37//39 26//39
f 26//40 37//40 38//40
f 27//41 39//41 28//41
f 28//42 39//42 40//42
f 28//43 40//43 41//43
f 28//44 41//44 29//44
f 29//45 41//45 30//45
f 30//46 42//46 31//46
f 30//47 41//47 43//47
f 30//48 43//48 42//48
f 31//49 42//49 44//49
f 32//50 45//50 46//50
f 32//51 46//51 33//51
f 32//52 44//52 58//52
f 32//52 58//52 45//52
f 35//53 47//53 48//53
f 35//54 48//54 36//54
f 36//55 48//55 49//55
f 36//56 49//56 50//56
f 36//57 50//57 51//57
f 37//58 52//58 53//58
f 37//59 53//59 38//59
f 38//60 53//60 54//60
f 39//61 54//61 40//61
f 40//62 54//62 53//62
f 40//63 53//63 41//63
f 41//64 53//64 55//64
f 41//65 55//65 43//65
f 42//66 56//66 44//66
f 42//67 43//67 56//67
f 43//68 55//68 50//68
f 43//69 50//69 57//69
f 43//70 57//70 56//70
f 44//71 56//71 58//71
f 45//72 58//72 48//72
f 45//72 48//72 47//72
f 48//73 58//73 56//73
f 48//74 56//74 57//74
f 48//75 57//75 49//75
f 49//76 57//76 50//76
f 50//77 55//77 53//77
f 50//78 53//78 52//78
f 50//79 52//79 51//79
