# Blender 4.4.3
# www.blender.org
o bottom_box_collision_geom_5
v -0.066764 0.130989 0.027613
v -0.065173 0.133912 0.026830
v -0.066728 0.133912 0.027582
v -0.066749 0.133912 0.027586
v -0.067424 0.130989 0.027613
v -0.066764 0.000023 0.027613
v -0.063914 0.133912 0.025247
v -0.065181 0.000023 0.026502
v -0.067387 0.133912 0.027586
v -0.067388 0.133873 0.027586
v -0.068069 0.130989 0.025931
v -0.067424 0.000023 0.027613
v -0.063906 0.133912 0.025211
v -0.064591 0.000023 0.025698
v -0.064020 0.000023 0.024919
v -0.067953 0.133912 0.025963
v -0.067965 0.133873 0.025931
v -0.068584 0.130989 0.022763
v -0.068323 0.000023 0.024373
v -0.068069 0.000023 0.025931
v -0.061780 0.133899 0.004675
v -0.061801 0.133912 0.004684
v -0.061832 0.000036 0.004675
v -0.061836 0.000023 0.004677
v -0.067960 0.133912 0.025927
v -0.068448 0.133873 0.022763
v -0.068546 0.131828 0.004675
v -0.068584 0.130989 0.004675
v -0.068584 0.000023 0.022763
v -0.061803 0.133912 0.004675
v -0.064411 0.000023 0.004675
v -0.068438 0.133912 0.022797
v -0.068442 0.133912 0.022763
v -0.068448 0.133873 0.004675
v -0.068584 0.000023 0.004675
v -0.068442 0.133912 0.004675
vn 0.4353 0.0043 0.9003
vn 0.2129 0.0079 0.9771
vn -0.0000 0.0092 1.0000
vn -0.0000 -0.0000 1.0000
vn 0.4417 -0.0000 0.8971
vn -0.0000 1.0000 0.0005
vn -0.0000 1.0000 -0.0000
vn -0.0000 1.0000 0.0006
vn -0.0000 1.0000 -0.0001
vn -0.0000 1.0000 0.0004
vn -0.0000 1.0000 -0.0007
vn 0.5747 -0.0020 0.8184
vn 0.7828 -0.0016 0.6223
vn -0.9059 0.0152 0.4232
vn -0.9336 0.0152 0.3580
vn -0.9337 -0.0000 0.3580
vn -0.0000 -1.0000 -0.0000
vn 0.8060 -0.0021 0.5919
vn 0.8066 -0.0021 0.5911
vn 0.9762 -0.0013 0.2170
vn -0.9438 0.0341 0.3288
vn -0.9340 0.0159 0.3568
vn -0.9474 0.0344 0.3181
vn -0.9864 0.0358 0.1603
vn -0.9870 -0.0000 0.1604
vn -0.9870 -0.0000 0.1608
vn 0.5398 0.8400 0.0554
vn 0.9942 -0.0011 0.1075
vn 0.9947 -0.0004 0.1030
vn 0.9427 -0.3178 0.1017
vn -0.9706 0.1375 0.1976
vn -0.9875 0.0465 0.1508
vn -0.9798 0.1328 0.1497
vn -0.9989 0.0471 -0.0000
vn -0.9989 0.0460 -0.0000
vn -1.0000 -0.0000 -0.0000
vn -0.9871 -0.0000 0.1601
vn 0.4994 0.8630 -0.0762
vn -0.0000 -0.0000 -1.0000
vn 0.0009 -0.1694 -0.9856
vn -0.9792 0.1376 0.1494
vn -0.9792 0.1664 0.1161
vn -0.9860 0.1669 -0.0000
vn -0.9859 0.1675 -0.0000
vn -0.9989 0.0475 -0.0000
s 0
f 1//1 2//1 3//1
f 1//2 3//2 4//2
f 1//3 4//3 9//3
f 1//3 9//3 5//3
f 1//4 5//4 12//4
f 1//4 12//4 6//4
f 1//5 6//5 2//5
f 2//6 7//6 13//6
f 2//7 13//7 22//7
f 2//8 22//8 30//8
f 2//7 30//7 36//7
f 2//7 36//7 33//7
f 2//9 33//9 32//9
f 2//7 32//7 25//7
f 2//10 25//10 16//10
f 2//7 16//7 9//7
f 2//7 9//7 4//7
f 2//11 4//11 3//11
f 2//12 6//12 8//12
f 2//13 8//13 7//13
f 5//14 9//14 10//14
f 5//15 10//15 11//15
f 5//16 11//16 20//16
f 5//16 20//16 12//16
f 6//17 12//17 20//17
f 6//17 20//17 19//17
f 6//17 19//17 29//17
f 6//17 29//17 35//17
f 6//17 35//17 31//17
f 6//17 31//17 24//17
f 6//17 24//17 15//17
f 6//17 15//17 14//17
f 6//17 14//17 8//17
f 7//18 8//18 14//18
f 7//19 14//19 15//19
f 7//20 15//20 13//20
f 9//21 16//21 11//21
f 9//22 11//22 10//22
f 11//23 16//23 17//23
f 11//24 17//24 18//24
f 11//25 18//25 19//25
f 11//26 19//26 20//26
f 13//27 21//27 22//27
f 13//28 15//28 23//28
f 13//29 23//29 21//29
f 15//30 24//30 23//30
f 16//31 25//31 17//31
f 17//32 26//32 18//32
f 17//33 25//33 26//33
f 18//34 26//34 27//34
f 18//35 27//35 28//35
f 18//36 28//36 35//36
f 18//36 35//36 29//36
f 18//37 29//37 19//37
f 21//38 30//38 22//38
f 21//39 23//39 31//39
f 21//39 31//39 35//39
f 21//39 35//39 28//39
f 21//39 28//39 27//39
f 21//39 27//39 34//39
f 21//39 34//39 36//39
f 21//39 36//39 30//39
f 23//40 24//40 31//40
f 25//41 32//41 26//41
f 26//42 32//42 33//42
f 26//43 33//43 36//43
f 26//44 36//44 34//44
f 26//45 34//45 27//45
