# Blender 4.4.3
# www.blender.org
o bottom_box_collision_geom_10
v 0.002762 -0.145541 0.004291
v -0.053005 -0.145541 0.004702
v 0.002762 -0.137842 0.004291
v 0.051459 -0.145541 0.004291
v -0.053005 -0.139191 0.004702
v -0.053005 -0.145541 0.022762
v -0.053005 -0.141421 0.022762
v 0.054631 -0.141309 0.022762
v 0.054631 -0.137823 0.004293
v 0.053208 -0.137839 0.004291
v 0.054631 -0.145484 0.004291
v 0.051459 -0.145541 0.022762
v -0.053005 -0.144935 0.025929
v -0.053005 -0.142301 0.025897
v 0.054631 -0.142228 0.025931
v -0.053005 -0.142310 0.025929
v 0.054631 -0.145449 0.004291
v 0.054631 -0.145484 0.022758
v 0.054631 -0.144901 0.025924
v 0.051459 -0.144935 0.025931
v 0.002762 -0.144935 0.025929
v 0.002762 -0.144935 0.025931
v -0.053005 -0.144927 0.025947
v 0.054631 -0.143552 0.027643
v -0.053005 -0.143565 0.027627
v 0.054631 -0.144138 0.027639
v 0.051459 -0.144144 0.027645
v 0.002762 -0.144144 0.027645
v -0.053005 -0.144144 0.027643
v -0.053005 -0.143578 0.027643
v 0.002762 -0.143577 0.027645
v 0.051459 -0.143577 0.027645
vn -0.0074 -0.0000 -1.0000
vn -0.0000 -0.0000 -1.0000
vn -0.0000 -1.0000 -0.0000
vn -1.0000 -0.0000 -0.0000
vn -1.0000 0.0005 -0.0000
vn -1.0000 -0.0004 -0.0000
vn -1.0000 0.0002 -0.0000
vn -0.0231 0.9922 0.1225
vn -0.0010 0.9823 0.1872
vn -0.0004 0.9827 0.1854
vn -0.0000 0.1433 -0.9897
vn 0.0181 -0.9998 -0.0000
vn -0.0000 -0.9822 0.1880
vn -0.0010 0.9628 0.2702
vn 1.0000 -0.0000 -0.0000
vn -0.0009 0.9621 0.2726
vn -0.0007 0.9604 0.2787
vn 0.0016 0.0003 -1.0000
vn 0.0181 -0.9833 0.1809
vn 0.0107 -0.9821 0.1881
vn -0.0000 -0.9822 0.1881
vn -0.0000 -0.9539 0.3002
vn -0.0000 -0.9481 0.3179
vn -0.0000 -0.9109 0.4126
vn -0.0006 0.8043 0.5942
vn -0.0002 0.7912 0.6116
vn 0.0105 -0.9135 0.4066
vn 0.0024 -0.9080 0.4189
vn -0.0000 -0.9080 0.4189
vn -0.0000 -0.9078 0.4193
vn -0.0002 0.7800 0.6258
vn -0.0000 0.1790 0.9839
vn -0.0000 0.0913 0.9958
vn 0.0007 -0.0000 1.0000
vn 0.0022 -0.0078 1.0000
vn -0.0000 -0.0000 1.0000
s 0
f 1//1 2//1 5//1
f 1//1 5//1 3//1
f 1//2 3//2 10//2
f 1//2 10//2 17//2
f 1//2 17//2 11//2
f 1//2 11//2 4//2
f 1//3 4//3 12//3
f 1//3 12//3 6//3
f 1//3 6//3 2//3
f 2//4 6//4 13//4
f 2//5 13//5 23//5
f 2//4 23//4 29//4
f 2//4 29//4 30//4
f 2//6 30//6 25//6
f 2//4 25//4 16//4
f 2//7 16//7 14//7
f 2//4 14//4 7//4
f 2//4 7//4 5//4
f 3//8 5//8 7//8
f 3//9 7//9 8//9
f 3//10 8//10 9//10
f 3//11 9//11 10//11
f 4//12 11//12 18//12
f 4//12 18//12 12//12
f 6//13 12//13 21//13
f 6//13 21//13 13//13
f 7//14 14//14 8//14
f 8//15 15//15 24//15
f 8//15 24//15 26//15
f 8//15 26//15 19//15
f 8//15 19//15 18//15
f 8//15 18//15 11//15
f 8//15 11//15 17//15
f 8//15 17//15 9//15
f 8//16 14//16 16//16
f 8//17 16//17 15//17
f 9//18 17//18 10//18
f 12//19 18//19 19//19
f 12//20 19//20 20//20
f 12//21 20//21 21//21
f 13//22 21//22 20//22
f 13//23 20//23 22//23
f 13//24 22//24 23//24
f 15//25 16//25 25//25
f 15//26 25//26 24//26
f 19//27 26//27 20//27
f 20//28 26//28 27//28
f 20//29 27//29 28//29
f 20//29 28//29 22//29
f 22//29 28//29 23//29
f 23//30 28//30 29//30
f 24//31 25//31 30//31
f 24//32 30//32 31//32
f 24//33 31//33 32//33
f 24//34 32//34 27//34
f 24//35 27//35 26//35
f 27//36 32//36 31//36
f 27//36 31//36 28//36
f 28//36 31//36 30//36
f 28//36 30//36 29//36
