# Blender 4.4.3
# www.blender.org
o bottom_box_collision_geom_14
v -0.055346 0.145431 0.007963
v -0.055346 0.145431 0.003762
v -0.055629 0.145418 0.007963
v -0.055346 0.142617 0.007963
v -0.055346 0.144694 0.000844
v -0.056211 0.144674 0.000854
v -0.056211 0.145390 0.003762
v -0.056211 0.145390 0.007963
v -0.055351 0.141043 0.007963
v -0.055346 0.141043 0.007956
v -0.055346 0.142518 -0.000583
v -0.056211 0.142518 -0.000574
v -0.059378 0.142518 -0.000102
v -0.059378 0.144350 0.001309
v -0.059378 0.144744 0.003762
v -0.059378 0.144744 0.007963
v -0.055346 0.133912 0.003972
v -0.063326 0.133912 0.007963
v -0.055346 0.139639 -0.000613
v -0.059378 0.139639 -0.000616
v -0.062544 0.139639 -0.000472
v -0.062336 0.142468 0.000994
v -0.061144 0.144055 0.001879
v -0.061235 0.144103 0.003762
v -0.059984 0.144535 0.007963
v -0.055346 0.133912 -0.000551
v -0.068442 0.133912 0.007963
v -0.062544 0.133912 -0.000609
v -0.062544 0.136760 -0.000608
v -0.065710 0.133912 -0.000426
v -0.065710 0.136760 0.000171
v -0.065648 0.139371 0.001142
v -0.064549 0.141475 0.001433
v -0.062817 0.143112 0.003762
v -0.061235 0.144103 0.007963
v -0.067832 0.136760 0.007963
v -0.068442 0.133912 0.003762
v -0.067868 0.133912 0.000996
v -0.067563 0.136760 0.001575
v -0.067313 0.138232 0.002121
v -0.064760 0.141673 0.003762
v -0.063452 0.142643 0.007963
v -0.062817 0.143112 0.007963
v -0.067832 0.136760 0.003762
v -0.067323 0.138248 0.007963
v -0.066344 0.139686 0.003762
v -0.067323 0.138248 0.003762
v -0.065827 0.140335 0.007963
v -0.064760 0.141673 0.007963
v -0.066344 0.139686 0.007963
vn -0.0437 0.9990 -0.0000
vn -0.0000 -0.0000 1.0000
vn -0.0001 -0.0000 1.0000
vn 1.0000 -0.0000 -0.0000
vn -0.0254 0.9693 -0.2446
vn -0.0455 0.9700 -0.2388
vn -0.0469 0.9989 -0.0002
vn -0.0484 0.9988 -0.0000
vn 0.7942 -0.0026 0.6077
vn -0.0089 0.5485 -0.8361
vn -0.0219 0.5520 -0.8336
vn -0.1233 0.5479 -0.8274
vn -0.1736 0.6008 -0.7803
vn -0.1324 0.9624 -0.2370
vn -0.1975 0.9679 -0.1553
vn -0.1999 0.9798 -0.0000
vn 0.7520 -0.3216 0.5754
vn 0.4001 -0.4474 0.7999
vn 0.0006 0.0105 -0.9999
vn -0.0107 0.0263 -0.9996
vn -0.0452 0.0643 -0.9969
vn -0.1416 0.2780 -0.9501
vn -0.3160 0.4547 -0.8327
vn -0.2906 0.5837 -0.7582
vn -0.3312 0.6371 -0.6960
vn -0.2114 0.9651 -0.1548
vn -0.3257 0.9446 -0.0401
vn -0.3260 0.9454 -0.0001
vn -0.3253 0.9456 -0.0000
vn -0.0000 -1.0000 -0.0000
vn 0.0080 -0.0108 -0.9999
vn 0.0006 -0.0015 -1.0000
vn -0.0027 0.0003 -1.0000
vn -0.0453 0.0472 -0.9979
vn -0.0995 0.0470 -0.9939
vn -0.3596 0.1914 -0.9133
vn -0.4588 0.3194 -0.8291
vn -0.4557 0.3512 -0.8179
vn -0.3638 0.4495 -0.8159
vn -0.4204 0.6620 -0.6205
vn -0.5890 0.7986 -0.1235
vn -0.5304 0.8464 -0.0474
vn -0.3263 0.9453 -0.0000
vn -0.5310 0.8474 -0.0000
vn -0.9778 0.2095 -0.0000
vn -0.0577 0.0003 -0.9983
vn -0.5422 0.1724 -0.8224
vn -0.5891 0.2210 -0.7772
vn -0.5768 0.2969 -0.7610
vn -0.6434 0.3599 -0.6756
vn -0.6576 0.4291 -0.6192
vn -0.7680 0.6284 -0.1233
vn -0.5906 0.7977 -0.1216
vn -0.5950 0.8037 -0.0001
vn -0.5944 0.8041 -0.0000
vn -0.9461 0.3238 -0.0000
vn -0.9708 0.2080 -0.1195
vn -0.9688 0.1446 -0.2012
vn -0.9705 0.2092 -0.1195
vn -0.7789 0.6206 -0.0902
vn -0.9461 0.3237 -0.0090
vn -0.8266 0.5627 -0.0106
vn -0.7821 0.6232 -0.0000
vn -0.5953 0.8035 -0.0000
vn -0.8267 0.5627 -0.0000
s 0
f 1//1 2//1 3//1
f 1//2 3//2 8//2
f 1//2 8//2 16//2
f 1//2 16//2 25//2
f 1//2 25//2 35//2
f 1//2 35//2 43//2
f 1//2 43//2 42//2
f 1//2 42//2 49//2
f 1//2 49//2 48//2
f 1//2 48//2 50//2
f 1//2 50//2 45//2
f 1//2 45//2 36//2
f 1//2 36//2 27//2
f 1//2 27//2 18//2
f 1//2 18//2 9//2
f 1//3 9//3 4//3
f 1//4 4//4 10//4
f 1//4 10//4 17//4
f 1//4 17//4 26//4
f 1//4 26//4 19//4
f 1//4 19//4 11//4
f 1//4 11//4 5//4
f 1//4 5//4 2//4
f 2//5 5//5 6//5
f 2//6 6//6 7//6
f 2//7 7//7 3//7
f 3//8 7//8 8//8
f 4//9 9//9 10//9
f 5//10 11//10 12//10
f 5//11 12//11 6//11
f 6//12 12//12 13//12
f 6//13 13//13 14//13
f 6//14 14//14 7//14
f 7//15 14//15 15//15
f 7//16 15//16 16//16
f 7//16 16//16 8//16
f 9//17 17//17 10//17
f 9//18 18//18 17//18
f 11//19 19//19 20//19
f 11//20 20//20 12//20
f 12//21 20//21 21//21
f 12//22 21//22 13//22
f 13//23 21//23 22//23
f 13//24 22//24 14//24
f 14//25 22//25 23//25
f 14//26 23//26 15//26
f 15//27 23//27 24//27
f 15//28 24//28 25//28
f 15//29 25//29 16//29
f 17//30 18//30 27//30
f 17//30 27//30 37//30
f 17//30 37//30 38//30
f 17//30 38//30 30//30
f 17//30 30//30 28//30
f 17//30 28//30 26//30
f 19//31 26//31 28//31
f 19//32 28//32 20//32
f 20//33 28//33 29//33
f 20//34 29//34 21//34
f 21//35 29//35 30//35
f 21//36 30//36 31//36
f 21//37 31//37 32//37
f 21//38 32//38 33//38
f 21//39 33//39 22//39
f 22//40 33//40 23//40
f 23//41 33//41 34//41
f 23//42 34//42 24//42
f 24//43 35//43 25//43
f 24//44 34//44 43//44
f 24//44 43//44 35//44
f 27//45 36//45 44//45
f 27//45 44//45 37//45
f 28//46 30//46 29//46
f 30//47 38//47 31//47
f 31//48 38//48 39//48
f 31//49 39//49 32//49
f 32//50 39//50 40//50
f 32//51 40//51 33//51
f 33//52 40//52 41//52
f 33//53 41//53 34//53
f 34//54 41//54 42//54
f 34//55 42//55 43//55
f 36//56 45//56 47//56
f 36//56 47//56 44//56
f 37//57 44//57 39//57
f 37//58 39//58 38//58
f 39//59 44//59 40//59
f 40//60 46//60 41//60
f 40//61 44//61 47//61
f 40//62 47//62 46//62
f 41//63 46//63 48//63
f 41//63 48//63 49//63
f 41//64 49//64 42//64
f 45//65 50//65 46//65
f 45//65 46//65 47//65
f 46//63 50//63 48//63
