# Blender 4.4.3
# www.blender.org
o bottom_box_collision_geom_2
v 0.066083 0.133875 0.027645
v 0.065488 0.133875 0.027645
v 0.066117 0.130994 0.027645
v 0.067465 0.130994 0.025931
v 0.067375 0.133875 0.025931
v 0.065981 0.136755 0.027640
v 0.065155 0.136755 0.027640
v 0.065511 0.090697 0.027645
v 0.067473 0.128122 0.025931
v 0.066117 0.090697 0.027645
v 0.068425 0.130994 0.022763
v 0.068316 0.133875 0.022763
v 0.067011 0.136755 0.025931
v 0.065850 0.138428 0.027596
v 0.062935 0.141118 0.027601
v 0.065516 0.087816 0.027640
v 0.068433 0.128122 0.022763
v 0.067473 0.090697 0.025931
v 0.066108 0.087816 0.027640
v 0.068433 0.130994 0.019597
v 0.068326 0.133875 0.019597
v 0.067783 0.136755 0.022763
v 0.066225 0.138982 0.025931
v 0.065046 0.140427 0.025931
v 0.062935 0.141381 0.027316
v 0.062935 0.139891 0.027593
v 0.065077 0.050164 0.024853
v 0.065588 0.086262 0.027596
v 0.068446 0.130994 0.003764
v 0.068433 0.090697 0.022763
v 0.068443 0.050164 0.019838
v 0.067443 0.087816 0.025931
v 0.068205 0.050164 0.022785
v 0.065973 0.086262 0.027596
v 0.066865 0.050164 0.024845
v 0.067785 0.136755 0.019597
v 0.068331 0.133875 0.003764
v 0.066537 0.139418 0.022763
v 0.065543 0.140863 0.022763
v 0.063462 0.141818 0.025931
v 0.062935 0.142208 0.025931
v 0.062935 0.050164 0.004626
v 0.063912 0.050164 0.019597
v 0.064172 0.050164 0.022763
v 0.066688 0.050164 0.024853
v 0.067090 0.130994 0.000800
v 0.067029 0.133875 0.000794
v 0.068446 0.050164 0.003764
v 0.067785 0.136755 0.006929
v 0.066752 0.136755 0.000822
v 0.067784 0.136755 0.003764
v 0.066537 0.139418 0.003764
v 0.065543 0.140863 0.013263
v 0.063960 0.142245 0.022763
v 0.062935 0.143008 0.022763
v 0.062935 0.142672 0.024096
v 0.062935 0.050164 -0.000555
v 0.064139 0.136755 -0.000585
v 0.067090 0.050164 0.000800
v 0.064384 0.139836 0.000526
v 0.066265 0.139009 0.001300
v 0.065535 0.140863 0.003764
v 0.063960 0.142245 0.013263
v 0.062935 0.143008 0.013263
v 0.063990 0.050164 -0.000560
v 0.062935 0.137846 -0.000599
v 0.062935 0.139755 0.000039
v 0.064139 0.050164 -0.000560
v 0.062935 0.141091 0.000573
v 0.063491 0.141854 0.001253
v 0.063951 0.142236 0.003764
v 0.062935 0.142990 0.003764
v 0.062935 0.142045 0.001112
v 0.062935 0.142536 0.002199
vn -0.0000 -0.0000 1.0000
vn 0.0002 -0.0000 1.0000
vn 0.7861 0.0094 0.6180
vn 0.7982 0.0248 0.6019
vn 0.7981 0.0294 0.6018
vn -0.0000 0.0019 1.0000
vn -0.0167 -0.0000 0.9999
vn 0.7862 0.0022 0.6180
vn 0.7844 -0.0000 0.6203
vn 0.9570 0.0027 0.2900
vn 0.9566 0.0297 0.2899
vn 0.9580 0.0362 0.2845
vn 0.9517 0.1203 0.2826
vn 0.8633 0.1091 0.4928
vn 0.8339 0.0798 0.5460
vn 0.0283 0.0287 0.9992
vn -0.0000 0.0089 1.0000
vn -0.0175 -0.0000 0.9998
vn -0.0000 -0.0019 1.0000
vn -0.0568 -0.0020 0.9984
vn 0.9570 -0.0000 0.2900
vn 0.7843 -0.0038 0.6203
vn 1.0000 0.0028 0.0026
vn 0.9993 0.0372 0.0026
vn 0.9993 0.0378 0.0031
vn 0.9833 0.1819 0.0030
vn 0.9563 0.1769 0.2330
vn 0.9190 0.3244 0.2239
vn 0.8972 0.3167 0.3079
vn 0.7228 0.5901 0.3596
vn 0.6025 0.6397 0.4773
vn 0.5616 0.6073 0.5620
vn -1.0000 -0.0000 -0.0000
vn -0.1528 -0.0067 0.9882
vn -0.6157 -0.0510 0.7863
vn -0.0000 -0.0284 0.9996
vn -0.7738 -0.0378 0.6323
vn 1.0000 0.0009 0.0008
vn 1.0000 -0.0000 0.0031
vn 1.0000 0.0001 0.0007
vn 0.7878 -0.0081 0.6159
vn 0.9392 -0.0097 0.3431
vn 0.9570 -0.0052 0.2900
vn 0.3930 -0.0602 0.9176
vn 0.7875 -0.0299 0.6156
vn 0.9993 0.0372 0.0008
vn 0.9828 0.1846 0.0005
vn 0.9992 0.0400 0.0003
vn 0.9828 0.1846 0.0003
vn 0.9057 0.4240 0.0005
vn 0.8960 0.4195 0.1458
vn 0.8139 0.5594 0.1570
vn 0.7583 0.6191 0.2044
vn 0.6462 0.7358 0.2028
vn 0.5931 0.6754 0.4383
vn 0.5371 0.7243 0.4324
vn -0.9977 -0.0167 0.0651
vn -0.9965 -0.0181 0.0818
vn -0.9171 -0.0340 0.3972
vn -0.0000 -1.0000 -0.0000
vn -0.0000 -1.0000 0.0001
vn -0.0000 -0.0758 0.9971
vn 0.9092 0.0184 -0.4160
vn 0.9152 0.0367 -0.4012
vn 1.0000 -0.0000 0.0002
vn 0.9093 -0.0000 -0.4161
vn 0.9968 -0.0056 0.0803
vn 0.8378 -0.0286 0.5453
vn 0.0468 -0.0748 0.9961
vn 0.9825 0.1862 -0.0000
vn 0.9054 0.4245 -0.0000
vn 0.9120 0.0916 -0.3998
vn 0.9288 0.1764 -0.3258
vn 0.9824 0.1865 -0.0003
vn 0.8241 0.5664 -0.0000
vn 0.6573 0.7536 -0.0000
vn 0.6439 0.7383 0.2006
vn 0.5857 0.7860 0.1979
vn 0.5840 0.7871 0.1986
vn 0.5838 0.7872 0.1988
vn 0.4368 0.0075 -0.8995
vn 0.4249 -0.0000 -0.9053
vn 0.4735 0.0540 -0.8792
vn 0.9056 0.4242 -0.0003
vn 0.4566 0.2696 -0.8479
vn 0.4678 0.2791 -0.8386
vn 0.9100 0.2644 -0.3192
vn 0.8927 0.4181 -0.1680
vn 0.8081 0.5602 -0.1822
vn 0.8218 0.5697 -0.0007
vn 0.6573 0.7536 -0.0006
vn 0.5975 0.8018 -0.0000
vn -0.0052 -0.0005 -1.0000
vn 0.2860 0.3041 -0.9087
vn 0.2878 0.3047 -0.9079
vn 0.4186 -0.0003 -0.9082
vn 0.0112 -0.0003 -0.9999
vn 0.2794 0.3561 -0.8917
vn 0.3675 0.4549 -0.8112
vn 0.5062 0.4817 -0.7154
vn 0.6863 0.6642 -0.2965
vn 0.6375 0.7358 -0.2286
vn 0.6548 0.7558 -0.0013
vn 0.5975 0.8018 -0.0013
vn 0.5962 0.8029 -0.0015
vn -0.0000 -0.0004 -1.0000
vn 0.3629 0.4584 -0.8113
vn 0.3849 0.8411 -0.3799
vn 0.5750 0.7857 -0.2282
vn 0.5809 0.7822 -0.2253
s 0
f 1//1 2//1 8//1
f 1//1 8//1 10//1
f 1//2 10//2 3//2
f 1//3 3//3 4//3
f 1//4 4//4 5//4
f 1//5 5//5 6//5
f 1//6 6//6 7//6
f 1//6 7//6 2//6
f 2//7 7//7 8//7
f 3//8 9//8 4//8
f 3//9 10//9 18//9
f 3//9 18//9 9//9
f 4//10 9//10 17//10
f 4//10 17//10 11//10
f 4//11 11//11 5//11
f 5//12 11//12 12//12
f 5//13 12//13 13//13
f 5//14 13//14 14//14
f 5//15 14//15 6//15
f 6//16 14//16 15//16
f 6//17 15//17 7//17
f 7//18 15//18 8//18
f 8//19 16//19 19//19
f 8//19 19//19 10//19
f 8//20 15//20 16//20
f 9//21 18//21 30//21
f 9//21 30//21 17//21
f 10//22 19//22 18//22
f 11//23 17//23 20//23
f 11//24 20//24 21//24
f 11//25 21//25 12//25
f 12//26 21//26 22//26
f 12//27 22//27 13//27
f 13//28 22//28 23//28
f 13//29 23//29 14//29
f 14//30 23//30 24//30
f 14//31 24//31 25//31
f 14//32 25//32 15//32
f 15//33 25//33 41//33
f 15//33 41//33 56//33
f 15//33 56//33 55//33
f 15//33 55//33 64//33
f 15//33 64//33 72//33
f 15//33 72//33 74//33
f 15//33 74//33 73//33
f 15//33 73//33 69//33
f 15//33 69//33 67//33
f 15//33 67//33 66//33
f 15//33 66//33 57//33
f 15//33 57//33 42//33
f 15//33 42//33 26//33
f 15//34 26//34 16//34
f 16//35 27//35 28//35
f 16//36 28//36 34//36
f 16//36 34//36 19//36
f 16//37 26//37 27//37
f 17//38 29//38 20//38
f 17//39 30//39 31//39
f 17//40 31//40 29//40
f 18//41 19//41 32//41
f 18//42 32//42 33//42
f 18//43 33//43 30//43
f 19//44 34//44 35//44
f 19//45 35//45 32//45
f 20//46 29//46 21//46
f 21//47 36//47 22//47
f 21//48 29//48 37//48
f 21//49 37//49 36//49
f 22//50 36//50 38//50
f 22//51 38//51 23//51
f 23//52 38//52 39//52
f 23//53 39//53 24//53
f 24//54 39//54 40//54
f 24//55 40//55 25//55
f 25//56 40//56 41//56
f 26//57 42//57 43//57
f 26//58 43//58 44//58
f 26//59 44//59 27//59
f 27//60 44//60 43//60
f 27//60 43//60 42//60
f 27//60 42//60 57//60
f 27//60 57//60 65//60
f 27//60 65//60 68//60
f 27//60 68//60 59//60
f 27//60 59//60 48//60
f 27//60 48//60 31//60
f 27//60 31//60 33//60
f 27//60 33//60 35//60
f 27//61 35//61 45//61
f 27//62 45//62 34//62
f 27//62 34//62 28//62
f 29//63 46//63 47//63
f 29//64 47//64 37//64
f 29//65 31//65 48//65
f 29//66 48//66 59//66
f 29//66 59//66 46//66
f 30//67 33//67 31//67
f 32//68 35//68 33//68
f 34//69 45//69 35//69
f 36//70 37//70 49//70
f 36//71 49//71 52//71
f 36//71 52//71 38//71
f 37//72 47//72 50//72
f 37//73 50//73 51//73
f 37//74 51//74 49//74
f 38//75 52//75 53//75
f 38//75 53//75 39//75
f 39//76 53//76 63//76
f 39//76 63//76 54//76
f 39//77 54//77 40//77
f 40//78 54//78 55//78
f 40//79 55//79 56//79
f 40//80 56//80 41//80
f 46//81 58//81 47//81
f 46//82 59//82 58//82
f 47//83 58//83 50//83
f 49//84 51//84 52//84
f 50//85 58//85 60//85
f 50//86 60//86 61//86
f 50//87 61//87 51//87
f 51//88 61//88 52//88
f 52//89 61//89 62//89
f 52//90 62//90 53//90
f 53//91 62//91 63//91
f 54//92 63//92 64//92
f 54//92 64//92 55//92
f 57//93 66//93 65//93
f 58//94 66//94 67//94
f 58//95 67//95 60//95
f 58//96 59//96 68//96
f 58//97 68//97 66//97
f 60//98 67//98 69//98
f 60//99 69//99 70//99
f 60//100 70//100 61//100
f 61//101 70//101 62//101
f 62//102 70//102 71//102
f 62//103 71//103 63//103
f 63//104 71//104 64//104
f 64//105 71//105 72//105
f 65//106 66//106 68//106
f 69//107 73//107 70//107
f 70//108 73//108 74//108
f 70//109 74//109 72//109
f 70//110 72//110 71//110
