# Blender 4.4.3
# www.blender.org
o bottom_box_collision_geom_6
v -0.068585 0.000023 0.003762
v -0.067935 0.000023 0.000923
v -0.068585 0.000023 0.004675
v -0.068585 0.130989 0.003762
v -0.065707 0.000023 -0.000502
v -0.067935 0.130989 0.000923
v -0.064408 0.000023 0.004675
v -0.068585 0.130989 0.004675
v -0.068445 0.133873 0.003762
v -0.067865 0.133912 0.000997
v -0.067865 0.133873 0.000990
v -0.064150 0.000023 -0.000556
v -0.065707 0.130989 -0.000502
v -0.065707 0.133873 -0.000433
v 0.002770 0.000023 0.003972
v -0.061831 0.000036 0.004675
v -0.068445 0.133873 0.004675
v -0.068438 0.133912 0.003762
v -0.065707 0.133912 -0.000426
v -0.062543 0.000023 -0.000611
v -0.062543 0.130989 -0.000611
v -0.062543 0.133912 -0.000609
v 0.002770 0.000023 -0.000552
v 0.002770 0.122353 0.004274
v -0.061775 0.133899 0.004675
v -0.068438 0.133912 0.004675
v -0.045221 0.000023 -0.000998
v -0.045221 0.110846 -0.000998
v 0.002770 0.133912 -0.000552
v 0.002770 0.124083 -0.001023
v -0.030875 0.124083 -0.001023
v -0.034039 0.124069 -0.001023
v -0.036001 0.123978 -0.001011
v -0.040374 0.121317 -0.001022
v -0.042155 0.121094 -0.001011
v -0.042274 0.119482 -0.001022
v -0.043538 0.113716 -0.001030
v -0.041645 0.000023 -0.001023
v 0.002770 0.122353 -0.001031
v 0.002770 0.133912 0.003972
v -0.061796 0.133912 0.004675
v -0.043538 0.000023 -0.001033
v -0.043538 0.110846 -0.001033
v 0.002770 0.123008 -0.001028
v -0.034039 0.122353 -0.001036
v -0.040562 0.119653 -0.001030
vn -0.0000 -1.0000 -0.0000
vn -1.0000 -0.0000 -0.0000
vn -0.9748 -0.0000 -0.2231
vn -0.5388 -0.0000 -0.8424
vn -0.0000 -0.0000 1.0000
vn -0.0001 -0.0000 1.0000
vn -0.9988 0.0484 -0.0000
vn -0.9778 0.0474 -0.2043
vn -0.9759 0.0365 -0.2151
vn -0.9744 0.0288 -0.2230
vn -0.0348 -0.0000 -0.9994
vn -0.5502 0.0326 -0.8344
vn -0.5387 0.0201 -0.8422
vn 0.0046 -0.8995 0.4369
vn -0.9846 0.1747 -0.0000
vn -0.9846 0.1751 -0.0000
vn -0.9647 0.1715 -0.1997
vn -0.0000 1.0000 -0.0000
vn -0.5452 0.1411 -0.8263
vn -0.5447 0.1409 -0.8267
vn -0.0346 -0.0000 -0.9994
vn -0.0344 -0.0000 -0.9994
vn -0.0559 0.0238 -0.9982
vn -0.0346 0.0008 -0.9994
vn -0.0569 0.1680 -0.9841
vn 1.0000 -0.0000 -0.0000
vn 0.0109 -0.0025 0.9999
vn 0.0062 -0.0000 1.0000
vn -0.0223 -0.0000 -0.9998
vn -0.0214 0.0008 -0.9998
vn 0.0009 0.0479 -0.9989
vn -0.0000 0.0421 -0.9991
vn -0.0002 0.0415 -0.9991
vn -0.0070 0.0218 -0.9997
vn -0.0084 0.0180 -0.9998
vn -0.0088 0.0174 -0.9998
vn -0.0144 0.0083 -0.9999
vn -0.0169 0.0050 -0.9998
vn -0.0208 0.0013 -0.9998
vn 0.0106 -0.0039 -0.9999
vn 0.0109 0.0261 0.9996
vn 0.0087 0.0139 0.9999
vn -0.0206 -0.0000 -0.9998
vn -0.0206 0.0012 -0.9998
vn 0.0001 0.0052 -1.0000
vn -0.0000 0.0078 -1.0000
vn -0.0035 0.0078 -1.0000
vn -0.0067 0.0152 -0.9999
vn -0.0030 0.0047 -1.0000
vn -0.0047 0.0049 -1.0000
vn -0.0076 0.0078 -0.9999
vn -0.0045 0.0022 -1.0000
vn -0.0023 0.0012 -1.0000
vn 0.0053 -0.0020 -1.0000
vn 0.0001 -0.0000 -1.0000
vn 0.0001 0.0043 -1.0000
vn -0.0004 -0.0000 -1.0000
vn -0.0014 0.0008 -1.0000
s 0
f 1//1 2//1 5//1
f 1//1 5//1 12//1
f 1//1 12//1 20//1
f 1//1 20//1 27//1
f 1//1 27//1 42//1
f 1//1 42//1 38//1
f 1//1 38//1 23//1
f 1//1 23//1 15//1
f 1//1 15//1 7//1
f 1//1 7//1 3//1
f 1//2 3//2 8//2
f 1//2 8//2 4//2
f 1//3 4//3 6//3
f 1//3 6//3 2//3
f 2//4 6//4 13//4
f 2//4 13//4 5//4
f 3//5 7//5 16//5
f 3//5 16//5 25//5
f 3//5 25//5 41//5
f 3//5 41//5 26//5
f 3//6 26//6 17//6
f 3//5 17//5 8//5
f 4//7 8//7 17//7
f 4//7 17//7 9//7
f 4//8 9//8 10//8
f 4//9 10//9 11//9
f 4//10 11//10 6//10
f 5//11 13//11 12//11
f 6//12 11//12 14//12
f 6//13 14//13 13//13
f 7//14 15//14 16//14
f 9//15 17//15 26//15
f 9//16 26//16 18//16
f 9//17 18//17 10//17
f 10//18 18//18 26//18
f 10//18 26//18 41//18
f 10//18 41//18 40//18
f 10//18 40//18 29//18
f 10//18 29//18 22//18
f 10//18 22//18 19//18
f 10//19 19//19 14//19
f 10//20 14//20 11//20
f 12//21 13//21 21//21
f 12//22 21//22 20//22
f 13//23 14//23 22//23
f 13//24 22//24 21//24
f 14//25 19//25 22//25
f 15//26 23//26 39//26
f 15//26 39//26 44//26
f 15//26 44//26 30//26
f 15//26 30//26 29//26
f 15//26 29//26 40//26
f 15//26 40//26 24//26
f 15//27 24//27 16//27
f 16//28 24//28 25//28
f 20//29 21//29 28//29
f 20//29 28//29 27//29
f 21//30 22//30 28//30
f 22//31 29//31 30//31
f 22//32 30//32 31//32
f 22//33 31//33 32//33
f 22//34 32//34 33//34
f 22//35 33//35 34//35
f 22//36 34//36 35//36
f 22//37 35//37 36//37
f 22//38 36//38 37//38
f 22//39 37//39 28//39
f 23//40 38//40 39//40
f 24//41 40//41 41//41
f 24//42 41//42 25//42
f 27//43 28//43 43//43
f 27//43 43//43 42//43
f 28//44 37//44 43//44
f 30//45 44//45 45//45
f 30//46 45//46 31//46
f 31//46 45//46 32//46
f 32//47 45//47 34//47
f 32//48 34//48 33//48
f 34//49 45//49 46//49
f 34//50 46//50 36//50
f 34//51 36//51 35//51
f 36//52 46//52 37//52
f 37//53 46//53 43//53
f 38//54 42//54 39//54
f 39//55 42//55 45//55
f 39//56 45//56 44//56
f 42//57 43//57 45//57
f 43//58 46//58 45//58
