# Blender 4.4.3
# www.blender.org
o fixed_holes_collision_geom_121
v 0.054353 -0.063339 0.016538
v 0.054379 -0.063575 0.016538
v 0.054353 -0.062624 0.022830
v 0.054353 -0.038337 0.016538
v 0.056314 -0.063575 0.022830
v 0.065243 -0.063575 0.016538
v 0.054353 -0.062473 0.023177
v 0.056460 -0.063575 0.023176
v 0.054353 -0.038831 0.022830
v 0.054361 -0.038315 0.016538
v 0.065880 -0.063554 0.016538
v 0.065880 -0.063575 0.016547
v 0.054353 -0.062126 0.023262
v 0.056820 -0.063575 0.023261
v 0.054353 -0.038916 0.023076
v 0.056456 -0.038315 0.023176
v 0.056307 -0.038315 0.022830
v 0.065880 -0.038315 0.016538
v 0.065880 -0.063575 0.022307
v 0.057343 -0.063575 0.023262
v 0.054353 -0.039754 0.023262
v 0.054353 -0.038950 0.023175
v 0.056820 -0.038315 0.023261
v 0.065880 -0.038315 0.022295
v 0.065878 -0.063575 0.022329
v 0.065880 -0.038324 0.022307
v 0.065198 -0.063575 0.023262
v 0.057343 -0.038315 0.023262
v 0.054353 -0.039276 0.023261
v 0.054353 -0.039182 0.023236
v 0.065825 -0.038315 0.022817
v 0.065824 -0.063575 0.022830
v 0.065824 -0.038324 0.022830
v 0.065612 -0.063575 0.023177
v 0.065198 -0.038315 0.023262
v 0.065617 -0.038315 0.023168
v 0.065612 -0.038324 0.023177
vn -0.9940 -0.1085 0.0124
vn -1.0000 -0.0000 -0.0000
vn -0.0000 -0.0000 -1.0000
vn -0.4326 -0.8917 0.1330
vn -0.0000 -1.0000 -0.0000
vn -0.0000 -1.0000 0.0003
vn -0.0000 -1.0000 -0.0001
vn -0.4292 -0.8849 0.1811
vn -0.4326 -0.8266 0.3601
vn -0.9269 0.3742 0.0296
vn -0.9269 0.3742 0.0293
vn -0.9269 0.3742 0.0294
vn 0.0126 -0.3616 -0.9323
vn 0.0125 -0.3616 -0.9323
vn -0.2090 -0.3997 0.8925
vn -0.1380 -0.2358 0.9620
vn -0.2746 0.9097 0.3114
vn -0.2732 0.9086 0.3159
vn -0.2740 0.9084 0.3158
vn -0.2541 0.9610 0.1095
vn -0.2549 0.9637 0.0788
vn -0.0000 1.0000 -0.0000
vn 1.0000 -0.0000 -0.0000
vn 1.0000 0.0003 -0.0000
vn 1.0000 0.0005 -0.0000
vn -0.0011 -0.0022 1.0000
vn -0.0024 -0.0049 1.0000
vn -0.0019 -0.0035 1.0000
vn -0.0000 -0.0000 1.0000
vn -0.0015 0.0035 1.0000
vn -0.0011 0.0022 1.0000
vn -0.2744 0.9080 0.3165
vn -0.1810 0.5983 0.7806
vn 0.9950 -0.0000 0.0999
vn 0.9948 -0.0000 0.1021
vn 0.9947 -0.0000 0.1025
vn -0.0021 0.0051 1.0000
vn -0.0978 0.2511 0.9630
vn -0.0975 0.2504 0.9632
vn -0.0976 0.2504 0.9632
vn -0.0974 0.2498 0.9634
vn -0.0025 0.0064 1.0000
vn 0.9859 0.1312 0.1042
vn 0.9859 0.1312 0.1041
vn 0.9942 -0.0000 0.1072
vn 0.9942 -0.0000 0.1074
vn 0.9939 0.0269 0.1069
vn 0.9939 0.0269 0.1068
vn 0.9939 0.0269 0.1067
vn 0.2004 -0.0000 0.9797
vn 0.7435 0.5034 0.4403
vn 0.8538 -0.0000 0.5206
vn 0.8540 -0.0000 0.5203
vn 0.8539 -0.0000 0.5205
vn 0.8539 -0.0000 0.5204
vn 0.8522 0.0641 0.5192
vn 0.8518 0.0641 0.5200
vn 0.8520 0.0641 0.5196
vn 0.1741 0.5989 0.7817
vn 0.1735 0.5989 0.7818
vn 0.1727 0.5989 0.7820
s 1
f 1//1 2//1 3//1
f 1//2 3//2 7//2
f 1//2 7//2 13//2
f 1//2 13//2 21//2
f 1//2 21//2 29//2
f 1//2 29//2 30//2
f 1//2 30//2 22//2
f 1//2 22//2 15//2
f 1//2 15//2 9//2
f 1//2 9//2 4//2
f 1//3 4//3 10//3
f 1//3 10//3 18//3
f 1//3 18//3 11//3
f 1//3 11//3 6//3
f 1//3 6//3 2//3
f 2//4 5//4 3//4
f 2//5 6//6 12//5
f 2//5 12//5 19//7
f 2//5 19//7 25//7
f 2//5 25//7 32//5
f 2//5 32//5 34//5
f 2//5 34//5 27//5
f 2//5 27//5 20//5
f 2//5 20//5 14//5
f 2//5 14//5 8//5
f 2//5 8//5 5//5
f 3//8 5//8 8//8
f 3//9 8//9 7//9
f 4//10 9//11 10//12
f 6//13 11//13 12//14
f 7//15 8//15 14//15
f 7//16 14//16 13//16
f 9//17 15//18 16//19
f 9//20 16//20 17//20
f 9//21 17//21 10//21
f 10//22 17//22 16//22
f 10//22 16//22 23//22
f 10//22 23//22 28//22
f 10//22 28//22 35//22
f 10//22 35//22 36//22
f 10//22 36//22 31//22
f 10//22 31//22 24//22
f 10//22 24//22 18//22
f 11//23 18//23 24//23
f 11//23 24//23 26//23
f 11//23 26//23 19//24
f 11//23 19//24 12//25
f 13//26 14//27 20//28
f 13//26 20//28 27//29
f 13//26 27//29 35//29
f 13//26 35//29 28//30
f 13//26 28//30 21//31
f 15//18 22//32 16//19
f 16//33 22//33 23//33
f 19//34 26//35 25//36
f 21//31 28//30 29//37
f 22//38 30//39 23//40
f 23//40 30//39 29//41
f 23//42 29//37 28//30
f 24//43 31//43 26//44
f 25//36 26//35 33//45
f 25//36 33//45 32//46
f 26//47 31//48 33//49
f 27//50 34//50 37//50
f 27//50 37//50 35//50
f 31//51 36//51 33//51
f 32//52 33//53 37//54
f 32//52 37//54 34//55
f 33//56 36//57 37//58
f 35//59 37//60 36//61
