# Blender 4.4.3
# www.blender.org
o fixed_holes_collision_geom_41
v 0.047411 -0.133163 0.016989
v 0.040749 -0.133163 0.016984
v 0.047411 -0.133163 0.001976
v 0.050331 -0.132578 0.016791
v 0.050331 -0.118781 0.016788
v 0.040749 -0.133163 0.001976
v 0.040749 -0.118305 0.016389
v 0.050331 -0.132578 0.001976
v 0.050331 -0.118305 0.016745
v 0.040749 -0.116895 0.001976
v 0.040749 -0.118207 0.016372
v 0.050331 -0.116945 0.001976
v 0.050331 -0.116945 0.016198
v 0.040749 -0.117991 0.016336
v 0.040749 -0.116895 0.013858
v 0.047411 -0.116895 0.001976
v 0.047411 -0.116895 0.014266
v 0.040749 -0.117838 0.016023
vn -0.0000 -1.0000 -0.0000
vn 0.1962 -0.9806 -0.0000
vn 0.0675 0.0003 0.9977
vn -0.0007 0.0141 0.9999
vn -0.0396 0.0400 0.9984
vn -1.0000 -0.0000 -0.0000
vn -0.0000 -0.0000 -1.0000
vn 1.0000 -0.0000 -0.0000
vn -0.0371 0.0889 0.9953
vn -0.0367 0.1642 0.9857
vn -0.0367 0.1648 0.9856
vn -0.0274 0.3732 0.9273
vn -0.0367 0.1669 0.9853
vn -0.0000 1.0000 -0.0000
vn 0.0169 0.9999 -0.0000
vn -0.0017 0.9996 0.0281
vn -0.0924 0.9129 0.3976
vn -0.0915 0.8948 0.4370
s 1
f 1//1 2//1 6//1
f 1//1 6//1 3//1
f 1//2 3//2 8//2
f 1//2 8//2 4//2
f 1//3 4//3 5//3
f 1//4 5//4 2//4
f 2//5 5//5 7//5
f 2//6 7//6 11//6
f 2//6 11//6 14//6
f 2//6 14//6 18//6
f 2//6 18//6 15//6
f 2//6 15//6 10//6
f 2//6 10//6 6//6
f 3//7 6//7 10//7
f 3//7 10//7 16//7
f 3//7 16//7 12//7
f 3//7 12//7 8//7
f 4//8 8//8 12//8
f 4//8 12//8 13//8
f 4//8 13//8 9//8
f 4//8 9//8 5//8
f 5//9 9//9 7//9
f 7//10 9//11 11//11
f 9//12 13//12 14//12
f 9//11 14//13 11//11
f 10//14 15//14 17//14
f 10//14 17//14 16//14
f 12//15 16//15 17//15
f 12//15 17//15 13//15
f 13//16 17//16 15//16
f 13//17 15//17 18//17
f 13//18 18//18 14//18
