# Blender 4.4.3
# www.blender.org
o fixed_holes_collision_geom_154
v 0.037497 0.011083 0.019665
v 0.037476 0.011083 0.021230
v 0.042150 0.009922 0.021260
v 0.042150 0.009923 0.019665
v 0.007196 0.011083 0.019665
v 0.037472 0.011083 0.021260
v 0.042150 0.009680 0.022314
v 0.037117 0.011083 0.022873
v 0.042150 0.000402 0.019665
v 0.006708 0.009198 0.019665
v 0.009297 0.011083 0.023713
v 0.042150 0.009562 0.022830
v 0.036394 0.011083 0.023727
v 0.042150 0.000402 0.021260
v 0.032719 0.000188 0.019665
v 0.006319 0.006427 0.019665
v 0.008068 0.000188 0.023644
v 0.009287 0.010711 0.023719
v 0.009528 0.011083 0.023742
v 0.005446 0.000188 0.019665
v 0.007882 0.000188 0.023585
v 0.042150 0.009108 0.023432
v 0.035345 0.011083 0.023838
v 0.042150 0.008885 0.023727
v 0.042150 0.000506 0.021777
v 0.030448 0.000188 0.023741
v 0.031041 0.000188 0.023467
v 0.031986 0.000188 0.022884
v 0.032079 0.000188 0.022740
v 0.032665 0.000188 0.021280
v 0.032672 0.000188 0.021261
v 0.008350 0.000188 0.023686
v 0.010214 0.010711 0.023830
v 0.008597 0.000188 0.023720
v 0.010214 0.011083 0.023824
v 0.042150 0.007855 0.023838
v 0.042150 0.008194 0.023801
v 0.011784 0.011083 0.023838
v 0.042150 0.000721 0.022830
v 0.030028 0.000188 0.023782
v 0.042150 0.000889 0.023126
v 0.042150 0.001234 0.023727
v 0.010214 0.009283 0.023837
v 0.010624 0.011083 0.023832
v 0.009635 0.000188 0.023806
v 0.042150 0.002143 0.023838
v 0.010214 0.007855 0.023838
v 0.029061 0.000188 0.023838
v 0.042150 0.001533 0.023764
v 0.010214 0.000188 0.023838
vn 0.2415 0.9704 0.0010
vn 0.2410 0.9705 0.0033
vn 0.2409 0.9705 0.0028
vn 0.2419 0.9703 0.0007
vn -0.0000 -0.0000 -1.0000
vn -0.0000 1.0000 -0.0000
vn 0.2406 0.9702 0.0288
vn 1.0000 -0.0000 -0.0000
vn 0.9988 0.0498 -0.0006
vn 0.2406 0.9692 0.0530
vn 0.2842 0.9344 0.2148
vn 0.2841 0.9343 0.2153
vn 0.2842 0.9343 0.2152
vn -0.8650 0.2241 0.4490
vn 0.2842 0.9342 0.2155
vn 0.2828 0.9290 0.2389
vn 0.0227 -0.9997 -0.0000
vn 0.0224 -0.9997 0.0070
vn 0.0225 -0.9997 0.0001
vn -0.8608 0.1207 0.4944
vn -0.8607 0.1205 0.4946
vn -0.8607 0.1206 0.4945
vn -0.2625 0.0235 0.9646
vn -0.1251 0.0199 0.9919
vn -0.1221 0.0175 0.9924
vn -0.1199 0.0196 0.9926
vn -0.8447 0.1035 0.5251
vn -0.3002 0.0278 0.9535
vn 0.2916 0.7639 0.5756
vn 0.2914 0.7634 0.5765
vn 0.1012 0.2649 0.9589
vn 0.2914 0.7631 0.5768
vn 0.0597 -0.9784 0.1978
vn 0.0599 -0.9782 0.1986
vn 0.0598 -0.9784 0.1979
vn 0.0337 -0.9968 0.0728
vn 0.0284 -0.9985 0.0460
vn 0.0235 -0.9996 0.0151
vn 0.0226 -0.9997 0.0091
vn 0.0226 -0.9997 0.0088
vn 0.0215 -0.9998 0.0008
vn -0.0000 -1.0000 -0.0000
vn -0.1498 0.0103 0.9887
vn -0.1189 0.0154 0.9928
vn -0.1355 0.0090 0.9907
vn -0.1184 0.0079 0.9929
vn -0.1181 0.0163 0.9929
vn 0.0506 0.1066 0.9930
vn 0.0505 0.1065 0.9930
vn 0.0506 0.1067 0.9930
vn 0.0506 0.1065 0.9930
vn -0.0000 -0.0000 1.0000
vn -0.0033 0.0032 1.0000
vn -0.0002 0.0001 1.0000
vn 0.0600 -0.9782 0.1988
vn 0.0776 -0.8651 0.4956
vn 0.0778 -0.8659 0.4941
vn 0.0777 -0.8652 0.4954
vn 0.0779 -0.8651 0.4956
vn 0.0666 -0.7372 0.6723
vn -0.0095 0.0051 0.9999
vn -0.0070 0.0043 1.0000
vn -0.0086 0.0054 0.9999
vn -0.0200 0.0161 0.9997
vn -0.1007 0.0051 0.9949
vn -0.1007 0.0052 0.9949
vn -0.0825 0.0019 0.9966
vn 0.0487 -0.5193 0.8532
vn 0.0181 -0.1215 0.9924
vn 0.0180 -0.1212 0.9925
vn 0.0180 -0.1213 0.9925
vn -0.0572 0.0004 0.9984
vn -0.0568 0.0005 0.9984
vn -0.0552 0.0002 0.9985
vn -0.0535 -0.0000 0.9986
vn 0.0180 -0.1203 0.9926
s 1
f 1//1 2//2 3//3
f 1//1 3//3 4//4
f 1//5 4//5 9//5
f 1//5 9//5 15//5
f 1//5 15//5 20//5
f 1//5 20//5 16//5
f 1//5 16//5 10//5
f 1//5 10//5 5//5
f 1//6 5//6 11//6
f 1//6 11//6 19//6
f 1//6 19//6 35//6
f 1//6 35//6 44//6
f 1//6 44//6 38//6
f 1//6 38//6 23//6
f 1//6 23//6 13//6
f 1//6 13//6 8//6
f 1//6 8//6 6//6
f 1//6 6//6 2//6
f 2//7 6//7 3//7
f 3//8 7//9 12//8
f 3//8 12//8 22//8
f 3//8 22//8 24//8
f 3//8 24//8 37//8
f 3//8 37//8 36//8
f 3//8 36//8 46//8
f 3//8 46//8 49//8
f 3//8 49//8 42//8
f 3//8 42//8 41//8
f 3//8 41//8 39//8
f 3//8 39//8 25//8
f 3//8 25//8 14//8
f 3//8 14//8 9//8
f 3//8 9//8 4//8
f 3//10 6//10 8//10
f 3//11 8//12 7//13
f 5//14 10//14 11//14
f 7//13 8//12 12//15
f 8//16 13//16 12//16
f 9//17 14//18 15//19
f 10//20 16//21 11//22
f 11//23 17//23 18//23
f 11//24 18//25 19//26
f 11//22 16//21 20//21
f 11//27 20//27 21//27
f 11//28 21//28 17//28
f 12//29 13//30 22//30
f 13//31 23//31 24//31
f 13//30 24//32 22//30
f 14//33 25//34 26//35
f 14//36 26//36 27//36
f 14//37 27//37 28//37
f 14//38 28//38 29//38
f 14//18 29//39 30//40
f 14//18 30//40 31//41
f 14//18 31//41 15//19
f 15//42 31//42 30//42
f 15//42 30//42 29//42
f 15//42 29//42 28//42
f 15//42 28//42 27//42
f 15//42 27//42 26//42
f 15//42 26//42 40//42
f 15//42 40//42 48//42
f 15//42 48//42 50//42
f 15//42 50//42 45//42
f 15//42 45//42 34//42
f 15//42 34//42 32//42
f 15//42 32//42 17//42
f 15//42 17//42 21//42
f 15//42 21//42 20//42
f 17//43 32//43 18//43
f 18//25 33//44 19//26
f 18//45 32//45 34//45
f 18//25 34//46 33//44
f 19//26 33//44 35//47
f 23//48 36//49 37//50
f 23//48 37//50 24//51
f 23//52 38//53 47//54
f 23//52 47//54 50//52
f 23//52 50//52 48//52
f 23//52 48//52 46//52
f 23//52 46//52 36//52
f 25//34 39//55 26//35
f 26//56 39//57 41//58
f 26//56 41//58 42//59
f 26//60 42//60 40//60
f 33//61 43//62 44//63
f 33//64 44//64 35//64
f 33//65 34//66 43//65
f 34//67 45//67 43//67
f 38//53 44//63 43//62
f 38//53 43//62 47//54
f 40//68 42//68 48//68
f 42//69 49//70 48//71
f 43//72 45//73 47//74
f 45//73 50//75 47//74
f 46//76 48//71 49//70
