# Blender 4.4.3
# www.blender.org
o fixed_holes_collision_geom_27
v -0.035063 0.123934 0.005931
v -0.035262 0.124100 0.005937
v -0.034991 0.124100 0.005931
v -0.031116 0.114793 0.005931
v -0.035259 0.124100 0.022307
v -0.031114 0.114793 0.022307
v -0.010755 0.124100 0.005931
v -0.010755 0.114793 0.005931
v -0.035224 0.124100 0.022829
v -0.031088 0.114793 0.022829
v -0.010755 0.124100 0.019406
v -0.010755 0.114793 0.019406
v -0.035010 0.124100 0.023167
v -0.031021 0.114793 0.023041
v -0.030980 0.114793 0.023168
v -0.011829 0.124100 0.022829
v -0.011829 0.114793 0.022829
v -0.034823 0.124100 0.023202
v -0.030635 0.114793 0.023253
v -0.011954 0.124100 0.023174
v -0.011954 0.114793 0.023174
v -0.034300 0.124016 0.023260
v -0.034300 0.124100 0.023260
v -0.030111 0.114793 0.023262
v -0.012308 0.124100 0.023259
v -0.012085 0.114793 0.023206
v -0.033778 0.123540 0.023262
v -0.033778 0.124100 0.023262
v -0.012832 0.114793 0.023262
v -0.012832 0.124100 0.023262
v -0.012504 0.114793 0.023260
v -0.012308 0.114793 0.023259
vn -0.0187 0.0082 -0.9998
vn -0.0187 0.0083 -0.9998
vn -0.0000 -0.0000 -1.0000
vn -0.0399 -0.0172 -0.9991
vn -0.0399 -0.0171 -0.9991
vn -0.0000 1.0000 -0.0015
vn -0.0000 1.0000 -0.0000
vn -0.0000 1.0000 -0.0037
vn -0.0000 1.0000 -0.0052
vn -0.9135 -0.4069 0.0001
vn -0.0000 -1.0000 -0.0000
vn -0.0000 -1.0000 -0.0001
vn -0.0000 -1.0000 0.0001
vn -0.9125 -0.4064 0.0461
vn -0.9120 -0.4053 0.0628
vn 1.0000 -0.0000 -0.0000
vn -0.8777 -0.3900 0.2785
vn -0.8778 -0.3901 0.2780
vn -0.8776 -0.3899 0.2790
vn -0.8770 -0.3896 0.2810
vn -0.7937 -0.3436 0.5020
vn 0.9543 -0.0000 0.2989
vn 0.9542 -0.0000 0.2992
vn -0.2374 -0.1027 0.9660
vn -0.1864 -0.0785 0.9793
vn -0.1864 -0.0784 0.9793
vn 0.9402 -0.0000 0.3406
vn 0.9402 -0.0000 0.3405
vn 0.9404 -0.0000 0.3402
vn -0.1097 -0.0000 0.9940
vn -0.1170 -0.0473 0.9920
vn -0.0162 -0.0072 0.9998
vn -0.0163 -0.0072 0.9998
vn 0.2359 0.0001 0.9718
vn 0.2303 0.0001 0.9731
vn 0.2330 -0.0000 0.9725
vn 0.2373 -0.0000 0.9714
vn -0.0032 -0.0009 1.0000
vn -0.0016 -0.0000 1.0000
vn -0.0005 -0.0000 1.0000
vn -0.0032 -0.0000 1.0000
vn -0.0053 -0.0022 1.0000
vn -0.0000 -0.0000 1.0000
vn 0.0008 -0.0000 1.0000
vn 0.0004 -0.0000 1.0000
vn 0.0081 -0.0000 1.0000
vn 0.0080 -0.0000 1.0000
vn 0.0086 -0.0000 1.0000
vn 0.2294 -0.0000 0.9733
s 1
f 1//1 2//2 3//1
f 1//3 3//3 7//3
f 1//3 7//3 8//3
f 1//3 8//3 4//3
f 1//4 4//4 2//5
f 2//6 5//7 9//7
f 2//6 9//7 13//7
f 2//6 13//7 18//7
f 2//6 18//7 23//7
f 2//6 23//7 28//7
f 2//6 28//7 30//7
f 2//6 30//7 25//7
f 2//6 25//7 20//7
f 2//6 20//7 16//7
f 2//6 16//7 11//7
f 2//6 11//7 7//8
f 2//6 7//8 3//9
f 2//10 4//10 6//10
f 2//10 6//10 5//10
f 4//11 8//11 12//11
f 4//11 12//11 17//11
f 4//11 17//11 21//11
f 4//11 21//11 26//11
f 4//11 26//11 32//12
f 4//11 32//12 31//12
f 4//11 31//12 29//13
f 4//11 29//13 24//11
f 4//11 24//11 19//11
f 4//11 19//11 15//11
f 4//11 15//11 14//11
f 4//11 14//11 10//11
f 4//11 10//11 6//11
f 5//14 6//14 10//14
f 5//15 10//15 9//15
f 7//16 11//16 12//16
f 7//16 12//16 8//16
f 9//17 10//18 14//19
f 9//17 14//19 15//20
f 9//21 15//21 13//21
f 11//22 16//22 17//23
f 11//22 17//23 12//22
f 13//24 15//24 19//24
f 13//25 19//25 18//26
f 16//27 20//28 21//28
f 16//27 21//28 17//29
f 18//30 22//30 23//30
f 18//31 19//31 22//31
f 19//32 24//32 22//33
f 20//34 25//35 26//36
f 20//34 26//36 21//37
f 22//38 27//39 28//40
f 22//38 28//40 23//41
f 22//38 24//42 27//39
f 24//43 29//44 30//45
f 24//43 30//45 28//40
f 24//43 28//40 27//39
f 25//46 30//45 31//47
f 25//46 31//47 32//48
f 25//35 32//49 26//36
f 29//44 31//47 30//45
