# Blender 4.4.3
# www.blender.org
o fixed_holes_collision_geom_30
v -0.057172 0.079501 0.001976
v -0.057172 0.084054 0.001976
v -0.055059 0.079501 0.001976
v -0.057172 0.079501 0.007502
v -0.057172 0.084054 0.005034
v -0.055248 0.084054 0.001976
v -0.055059 0.084043 0.001976
v -0.055059 0.079501 0.007502
v -0.057172 0.082981 0.007502
v -0.055059 0.084054 0.004876
v -0.055059 0.084054 0.003883
v -0.055059 0.079786 0.007502
vn -0.0000 -0.0000 -1.0000
vn -0.0000 -1.0000 -0.0000
vn -1.0000 -0.0000 -0.0000
vn -0.0000 1.0000 -0.0000
vn 1.0000 -0.0000 -0.0000
vn -0.0000 -0.0000 1.0000
vn 0.0298 0.9167 0.3986
vn 0.0514 0.9987 -0.0050
vn 0.6211 0.4107 0.6675
s 1
f 1//1 2//1 6//1
f 1//1 6//1 7//1
f 1//1 7//1 3//1
f 1//2 3//2 8//2
f 1//2 8//2 4//2
f 1//3 4//3 9//3
f 1//3 9//3 5//3
f 1//3 5//3 2//3
f 2//4 5//4 10//4
f 2//4 10//4 11//4
f 2//4 11//4 6//4
f 3//5 7//5 11//5
f 3//5 11//5 10//5
f 3//5 10//5 12//5
f 3//5 12//5 8//5
f 4//6 8//6 12//6
f 4//6 12//6 9//6
f 5//7 9//7 10//7
f 6//8 11//8 7//8
f 9//9 12//9 10//9
