# Blender 4.4.3
# www.blender.org
o fixed_holes_collision_geom_21
v 0.003246 -0.071186 0.017734
v 0.014898 -0.079240 0.017734
v 0.003246 -0.071186 0.018119
v 0.003246 -0.019063 0.017734
v 0.031987 -0.079240 0.017734
v 0.014898 -0.079240 0.020490
v 0.003246 -0.071057 0.018633
v 0.003246 -0.019063 0.019622
v 0.008773 -0.019063 0.017734
v 0.031032 -0.079240 0.020490
v 0.032026 -0.063174 0.017734
v 0.032026 -0.062661 0.020490
v 0.012060 -0.075670 0.020490
v 0.003246 -0.070875 0.018894
v 0.003246 -0.070934 0.018816
v 0.005139 -0.019063 0.020490
v 0.003246 -0.020718 0.019717
v 0.004922 -0.020718 0.020490
v 0.005043 -0.019758 0.020490
v 0.005108 -0.019287 0.020490
v 0.031990 -0.019068 0.017734
v 0.008773 -0.019063 0.020490
v 0.032030 -0.038352 0.017734
v 0.032026 -0.038806 0.020490
v 0.011411 -0.074533 0.020490
v 0.009256 -0.070397 0.020490
v 0.008906 -0.069719 0.020490
v 0.008773 -0.069383 0.020490
v 0.008642 -0.069042 0.020490
v 0.008373 -0.068287 0.020490
v 0.007374 -0.065424 0.020490
v 0.006232 -0.062137 0.020490
v 0.006103 -0.061648 0.020490
v 0.003246 -0.070638 0.018913
v 0.003246 -0.021189 0.019743
v 0.004866 -0.021189 0.020490
v 0.031035 -0.019068 0.020490
v 0.006046 -0.061394 0.020490
v 0.004697 -0.054490 0.020490
v 0.004568 -0.053552 0.020490
v 0.003246 -0.053694 0.019812
v 0.003246 -0.021666 0.019765
v 0.004819 -0.021666 0.020490
v 0.004534 -0.053228 0.020490
v 0.004196 -0.049729 0.020490
v 0.003246 -0.046088 0.020178
v 0.003246 -0.029285 0.020088
v 0.004108 -0.029285 0.020490
v 0.003861 -0.045947 0.020490
v 0.003246 -0.045947 0.020184
v 0.003246 -0.029438 0.020093
v 0.004075 -0.029756 0.020490
v 0.003849 -0.045769 0.020490
v 0.003246 -0.045611 0.020195
v 0.003246 -0.029756 0.020103
v 0.003246 -0.036902 0.020267
v 0.003733 -0.036902 0.020490
v 0.003832 -0.045470 0.020490
v 0.003246 -0.045470 0.020200
v 0.003246 -0.037379 0.020276
v 0.003713 -0.037379 0.020490
v 0.003826 -0.045310 0.020490
v 0.003246 -0.045134 0.020203
v 0.003246 -0.037857 0.020279
v 0.003708 -0.037857 0.020490
v 0.003821 -0.044992 0.020490
v 0.003246 -0.038328 0.020274
v 0.003246 -0.044662 0.020209
v 0.003246 -0.044992 0.020206
vn -0.5686 -0.8226 -0.0000
vn -1.0000 -0.0000 -0.0000
vn -0.0000 -0.0000 -1.0000
vn -0.0000 -1.0000 -0.0000
vn -0.5843 -0.7870 0.1981
vn -0.0000 1.0000 -0.0000
vn 0.0001 1.0000 -0.0000
vn 1.0000 -0.0024 0.0004
vn 1.0000 -0.0003 0.0001
vn 1.0000 -0.0004 0.0012
vn 0.9433 -0.0566 0.3271
vn -0.0000 -0.0000 1.0000
vn -0.2956 -0.2351 0.9259
vn -0.5491 -0.6694 0.5003
vn -0.5491 -0.6695 0.5003
vn -0.5572 -0.6878 0.4652
vn -0.5571 -0.6878 0.4652
vn -0.4166 0.0560 0.9074
vn -0.4184 0.0517 0.9068
vn -0.4177 0.0521 0.9071
vn -0.4159 0.0564 0.9077
vn -0.4162 0.0575 0.9075
vn -0.4162 0.0576 0.9074
vn 0.0002 1.0000 0.0001
vn 1.0000 0.0004 0.0004
vn 1.0000 0.0014 0.0006
vn -0.2513 -0.1433 0.9572
vn -0.2451 -0.1269 0.9612
vn -0.2451 -0.1277 0.9611
vn -0.2452 -0.1264 0.9612
vn -0.2525 -0.0948 0.9629
vn -0.2512 -0.0991 0.9629
vn -0.2511 -0.0979 0.9630
vn -0.2502 -0.0960 0.9634
vn -0.2539 -0.0896 0.9631
vn -0.2548 -0.0888 0.9629
vn -0.2552 -0.0886 0.9628
vn -0.2890 -0.0755 0.9543
vn -0.2875 -0.0761 0.9547
vn -0.2889 -0.0756 0.9544
vn -0.2895 -0.0753 0.9542
vn -0.4179 0.0501 0.9071
vn -0.4177 0.0427 0.9076
vn 0.9439 0.0474 0.3269
vn 1.0000 0.0021 0.0016
vn -0.3079 -0.0686 0.9489
vn -0.3230 -0.0631 0.9443
vn -0.3927 -0.0543 0.9180
vn -0.4519 -0.0473 0.8908
vn -0.4519 -0.0474 0.8908
vn -0.4545 -0.0441 0.8897
vn -0.4213 0.0400 0.9060
vn -0.4176 0.0414 0.9077
vn -0.4515 -0.0466 0.8910
vn -0.4537 -0.0434 0.8901
vn -0.4559 -0.0428 0.8890
vn -0.4218 0.0305 0.9062
vn -0.4197 0.0378 0.9069
vn -0.4448 -0.0394 0.8948
vn -0.4459 -0.0300 0.8946
vn -0.4456 -0.0334 0.8946
vn -0.4463 -0.0307 0.8943
vn -0.4232 0.0301 0.9055
vn -0.4191 0.0284 0.9075
vn -0.4449 -0.0260 0.8952
vn -0.4453 -0.0273 0.8950
vn -0.4249 0.0217 0.9050
vn -0.4207 0.0205 0.9070
vn -0.4158 0.0185 0.9093
vn -0.4481 -0.0199 0.8938
vn -0.4407 -0.0197 0.8974
vn -0.4112 0.0114 0.9115
vn -0.4117 0.0100 0.9113
vn -0.4454 -0.0101 0.8952
vn -0.4456 -0.0109 0.8952
vn -0.4130 -0.0023 0.9107
vn -0.4143 0.0032 0.9101
vn -0.4266 -0.0076 0.9044
vn -0.4451 -0.0092 0.8954
vn -0.4450 -0.0092 0.8955
vn -0.4450 -0.0094 0.8955
vn -0.4454 -0.0101 0.8953
vn -0.4164 -0.0066 0.9092
s 1
f 1//1 2//1 6//1
f 1//1 6//1 3//1
f 1//2 3//2 7//2
f 1//2 7//2 15//2
f 1//2 15//2 14//2
f 1//2 14//2 34//2
f 1//2 34//2 41//2
f 1//2 41//2 46//2
f 1//2 46//2 50//2
f 1//2 50//2 54//2
f 1//2 54//2 59//2
f 1//2 59//2 63//2
f 1//2 63//2 69//2
f 1//2 69//2 68//2
f 1//2 68//2 67//2
f 1//2 67//2 64//2
f 1//2 64//2 60//2
f 1//2 60//2 56//2
f 1//2 56//2 55//2
f 1//2 55//2 51//2
f 1//2 51//2 47//2
f 1//2 47//2 42//2
f 1//2 42//2 35//2
f 1//2 35//2 17//2
f 1//2 17//2 8//2
f 1//2 8//2 4//2
f 1//3 4//3 9//3
f 1//3 9//3 21//3
f 1//3 21//3 23//3
f 1//3 23//3 11//3
f 1//3 11//3 5//3
f 1//3 5//3 2//3
f 2//4 5//4 10//4
f 2//4 10//4 6//4
f 3//5 6//5 7//5
f 4//6 8//6 16//6
f 4//6 16//6 22//7
f 4//6 22//7 9//7
f 5//8 11//9 12//10
f 5//11 12//11 10//11
f 6//12 10//12 12//12
f 6//12 12//12 24//12
f 6//12 24//12 37//12
f 6//12 37//12 22//12
f 6//12 22//12 16//12
f 6//12 16//12 20//12
f 6//12 20//12 19//12
f 6//12 19//12 18//12
f 6//12 18//12 36//12
f 6//12 36//12 43//12
f 6//12 43//12 48//12
f 6//12 48//12 52//12
f 6//12 52//12 57//12
f 6//12 57//12 61//12
f 6//12 61//12 65//12
f 6//12 65//12 66//12
f 6//12 66//12 62//12
f 6//12 62//12 58//12
f 6//12 58//12 53//12
f 6//12 53//12 49//12
f 6//12 49//12 45//12
f 6//12 45//12 44//12
f 6//12 44//12 40//12
f 6//12 40//12 39//12
f 6//12 39//12 38//12
f 6//12 38//12 33//12
f 6//12 33//12 32//12
f 6//12 32//12 31//12
f 6//12 31//12 30//12
f 6//12 30//12 29//12
f 6//12 29//12 28//12
f 6//12 28//12 27//12
f 6//12 27//12 26//12
f 6//12 26//12 25//12
f 6//12 25//12 13//12
f 6//13 13//13 14//13
f 6//14 14//14 15//15
f 6//16 15//16 7//17
f 8//18 17//19 18//20
f 8//18 18//20 19//21
f 8//18 19//21 20//22
f 8//18 20//22 16//23
f 9//7 22//7 21//24
f 11//9 23//25 12//10
f 12//10 23//25 24//26
f 13//27 25//27 14//27
f 14//28 25//29 26//28
f 14//28 26//28 27//30
f 14//31 27//32 28//33
f 14//31 28//33 29//34
f 14//31 29//34 30//35
f 14//31 30//35 31//36
f 14//31 31//36 32//37
f 14//38 32//39 33//40
f 14//38 33//40 34//41
f 17//19 35//42 18//20
f 18//20 35//42 36//43
f 21//24 22//7 37//24
f 21//44 37//44 24//44
f 21//45 24//26 23//25
f 33//46 38//46 34//46
f 34//47 38//47 39//47
f 34//48 39//48 40//48
f 34//49 40//50 41//51
f 35//42 42//52 36//43
f 36//43 42//52 43//53
f 40//50 44//54 41//51
f 41//51 44//54 45//55
f 41//51 45//55 46//56
f 42//52 47//57 48//58
f 42//52 48//58 43//53
f 45//59 49//60 46//61
f 46//61 49//60 50//62
f 47//57 51//63 52//64
f 47//57 52//64 48//58
f 49//60 53//65 54//66
f 49//60 54//66 50//62
f 51//63 55//67 52//64
f 52//64 55//67 56//68
f 52//64 56//68 57//69
f 53//65 58//70 59//71
f 53//65 59//71 54//66
f 56//68 60//72 57//69
f 57//69 60//72 61//73
f 58//70 62//74 59//71
f 59//71 62//74 63//75
f 60//72 64//76 65//77
f 60//72 65//77 61//73
f 62//78 66//78 64//78
f 62//74 64//79 67//80
f 62//74 67//80 68//81
f 62//74 68//81 69//82
f 62//74 69//82 63//75
f 64//76 66//83 65//77
