# Blender 4.4.3
# www.blender.org
o fixed_holes_collision_geom_59
v 0.036842 -0.130800 0.016695
v 0.036631 -0.130800 0.022307
v 0.037004 -0.133063 0.022801
v 0.037004 -0.133043 0.022307
v 0.037004 -0.132951 0.016699
v 0.036925 -0.132666 0.016695
v 0.013197 -0.130800 0.016695
v 0.036621 -0.130800 0.022434
v 0.037004 -0.133217 0.023136
v 0.037004 -0.141084 0.016695
v 0.013197 -0.130800 0.022307
v 0.003250 -0.134631 0.016695
v 0.036585 -0.130800 0.022829
v 0.037004 -0.133540 0.023220
v 0.036525 -0.130800 0.022914
v 0.036336 -0.130800 0.023176
v 0.037004 -0.143080 0.016695
v 0.013209 -0.130800 0.022567
v 0.003250 -0.134631 0.022307
v 0.003250 -0.143084 0.016695
v 0.037004 -0.134016 0.023261
v 0.035867 -0.130800 0.023261
v 0.037004 -0.143080 0.022307
v 0.009208 -0.143084 0.016695
v 0.013237 -0.130800 0.022829
v 0.003250 -0.134647 0.022830
v 0.003250 -0.143084 0.022307
v 0.037004 -0.142582 0.023261
v 0.014803 -0.130800 0.023261
v 0.037004 -0.143076 0.022395
v 0.009208 -0.143084 0.022307
v 0.013253 -0.130800 0.022934
v 0.003250 -0.134660 0.022954
v 0.003250 -0.143048 0.022830
v 0.037004 -0.142916 0.023176
v 0.009208 -0.142583 0.023261
v 0.009208 -0.142916 0.023176
v 0.014277 -0.130800 0.023261
v 0.013880 -0.131161 0.023261
v 0.037004 -0.143047 0.022829
v 0.009208 -0.143048 0.022830
v 0.013081 -0.130913 0.023102
v 0.013398 -0.130800 0.023102
v 0.003250 -0.134695 0.023130
v 0.003250 -0.142957 0.023073
v 0.003250 -0.142583 0.023261
v 0.003250 -0.142916 0.023176
v 0.013736 -0.130800 0.023201
v 0.003250 -0.134958 0.023212
v 0.003405 -0.134968 0.023227
v 0.003250 -0.135111 0.023238
v 0.003930 -0.134968 0.023254
v 0.003250 -0.135444 0.023261
v 0.013484 -0.130800 0.023153
v 0.003250 -0.134759 0.023152
vn 0.9847 0.1705 0.0372
vn 0.9969 0.0784 0.0025
vn 0.9968 0.0803 0.0033
vn 0.9971 0.0766 0.0016
vn 0.9972 0.0748 0.0012
vn 0.0675 0.0030 -0.9977
vn 0.0653 0.0042 -0.9979
vn 0.0618 0.0016 -0.9981
vn -0.0000 -0.0000 -1.0000
vn -0.0000 1.0000 -0.0000
vn -0.0000 1.0000 -0.0001
vn -0.0000 1.0000 0.0001
vn 0.9810 0.1785 0.0764
vn 0.9797 0.1806 0.0865
vn 0.9808 0.1789 0.0780
vn 0.9795 0.1811 0.0881
vn 1.0000 -0.0000 -0.0000
vn 0.0587 0.0006 -0.9983
vn -0.3594 0.9332 -0.0000
vn 0.9793 0.1815 0.0900
vn 0.7993 0.2100 0.5631
vn 0.8006 0.2102 0.5612
vn 0.7998 0.2099 0.5624
vn 0.7936 0.2097 0.5712
vn 0.6962 0.1808 0.6947
vn -0.3593 0.9331 0.0182
vn -1.0000 -0.0000 -0.0000
vn 0.2760 0.0828 0.9576
vn 0.1788 0.0632 0.9818
vn 0.0001 -1.0000 -0.0000
vn -0.3594 0.9327 0.0316
vn -0.3594 0.9327 0.0302
vn -0.3593 0.9326 0.0346
vn -0.3592 0.9326 0.0361
vn -0.0000 -1.0000 -0.0000
vn -0.0000 -0.0000 1.0000
vn -0.0007 0.0016 1.0000
vn -0.0009 0.0020 1.0000
vn -0.0007 0.0017 1.0000
vn 0.0001 -0.9985 0.0555
vn 0.0001 -0.9979 0.0648
vn 0.0001 -0.9982 0.0602
vn -0.3588 0.9317 0.0559
vn -0.3583 0.9293 0.0900
vn -0.3583 0.9292 0.0900
vn -0.0000 -0.9978 0.0664
vn -0.0000 -0.9978 0.0665
vn -0.0000 -0.2472 0.9690
vn -0.0000 -0.2468 0.9691
vn -0.0000 -0.2471 0.9690
vn -0.0000 -0.2477 0.9688
vn -0.0012 0.0029 1.0000
vn 0.0001 -0.9978 0.0664
vn -0.3227 0.9046 0.2786
vn -0.3227 0.9046 0.2787
vn -0.3533 0.9166 0.1872
vn -0.3532 0.9166 0.1872
vn -0.3466 0.9032 0.2532
vn -0.3467 0.9032 0.2532
vn -0.0000 -0.9356 0.3530
vn 0.0001 -0.9325 0.3611
vn -0.0000 -0.9312 0.3644
vn -0.0000 -0.9333 0.3592
vn 0.0001 -0.9353 0.3539
vn 0.0001 -0.9353 0.3538
vn -0.0000 -0.9312 0.3645
vn -0.1057 0.2689 0.9574
vn -0.0867 0.2183 0.9720
vn -0.0868 0.2182 0.9720
vn -0.0869 0.2182 0.9720
vn -0.0490 0.1203 0.9915
vn -0.0521 0.1279 0.9904
vn -0.0495 0.1216 0.9913
vn -0.0483 0.1183 0.9918
vn -0.0169 0.0402 0.9990
vn -0.2926 0.8184 0.4946
vn -0.2861 0.7484 0.5984
vn -0.1226 0.3130 0.9418
vn -0.1227 0.3130 0.9418
vn -0.1677 0.4353 0.8845
vn -0.1676 0.4353 0.8845
vn -0.1123 0.2853 0.9518
vn -0.1122 0.2853 0.9518
vn -0.0910 0.1690 0.9814
vn -0.0910 0.1691 0.9814
vn -0.0385 0.0710 0.9967
s 1
f 1//1 2//1 3//1
f 1//2 3//3 4//4
f 1//2 4//4 5//5
f 1//6 5//7 6//8
f 1//9 6//9 10//9
f 1//9 10//9 17//9
f 1//9 17//9 24//9
f 1//9 24//9 20//9
f 1//9 20//9 12//9
f 1//9 12//9 7//9
f 1//10 7//10 11//10
f 1//10 11//10 18//10
f 1//10 18//10 25//11
f 1//10 25//11 32//10
f 1//10 32//10 43//12
f 1//10 43//12 54//10
f 1//10 54//10 48//11
f 1//10 48//11 38//10
f 1//10 38//10 29//10
f 1//10 29//10 22//10
f 1//10 22//10 16//10
f 1//10 16//10 15//10
f 1//10 15//10 13//10
f 1//10 13//10 8//10
f 1//10 8//10 2//10
f 2//13 8//14 3//15
f 3//15 8//14 9//16
f 3//17 9//17 14//17
f 3//17 14//17 21//17
f 3//17 21//17 28//17
f 3//17 28//17 35//17
f 3//17 35//17 40//17
f 3//17 40//17 30//17
f 3//17 30//17 23//17
f 3//17 23//17 17//17
f 3//17 17//17 10//17
f 3//17 10//17 5//17
f 3//17 5//17 4//17
f 5//7 10//18 6//8
f 7//19 12//19 19//19
f 7//19 19//19 11//19
f 8//14 13//20 9//16
f 9//21 13//22 15//23
f 9//21 15//23 16//24
f 9//25 16//25 14//25
f 11//26 19//26 18//26
f 12//27 20//27 27//27
f 12//27 27//27 34//27
f 12//27 34//27 45//27
f 12//27 45//27 47//27
f 12//27 47//27 46//27
f 12//27 46//27 53//27
f 12//27 53//27 51//27
f 12//27 51//27 49//27
f 12//27 49//27 55//27
f 12//27 55//27 44//27
f 12//27 44//27 33//27
f 12//27 33//27 26//27
f 12//27 26//27 19//27
f 14//28 16//28 21//28
f 16//29 22//29 21//29
f 17//30 23//30 31//30
f 17//30 31//30 24//30
f 18//31 19//32 26//33
f 18//31 26//33 25//34
f 20//35 24//30 31//30
f 20//35 31//30 27//35
f 21//36 22//36 29//37
f 21//36 29//37 39//38
f 21//36 39//38 53//39
f 21//36 53//39 46//36
f 21//36 46//36 36//36
f 21//36 36//36 28//36
f 23//40 30//41 31//42
f 25//43 26//43 32//43
f 26//44 33//45 32//44
f 27//46 31//42 41//47
f 27//46 41//47 34//46
f 28//48 36//49 37//50
f 28//48 37//50 35//51
f 29//37 38//52 39//38
f 30//41 40//53 31//42
f 31//42 40//53 41//47
f 32//54 42//55 43//54
f 32//56 33//57 44//57
f 32//58 44//58 42//59
f 34//60 41//60 45//60
f 35//61 37//62 45//63
f 35//61 45//63 41//64
f 35//61 41//64 40//65
f 36//49 46//49 47//49
f 36//49 47//49 37//50
f 37//62 47//66 45//63
f 38//67 48//67 49//67
f 38//68 49//69 50//70
f 38//71 50//72 51//73
f 38//71 51//73 52//74
f 38//75 52//75 53//75
f 38//52 53//39 39//38
f 42//76 54//76 43//76
f 42//77 44//77 54//77
f 44//78 55//79 48//78
f 44//80 48//81 54//81
f 48//82 55//83 49//83
f 49//84 51//85 50//84
f 51//86 53//86 52//86
