# Blender 4.4.3
# www.blender.org
o fixed_holes_collision_geom_43
v -0.065881 -0.088799 0.002932
v -0.065881 -0.088799 0.004887
v -0.065881 0.034733 0.002932
v -0.065827 -0.085827 0.002494
v -0.065813 -0.088799 0.002408
v -0.044485 -0.088813 0.001977
v -0.044485 -0.088813 0.004887
v -0.037476 -0.088813 0.004914
v -0.037550 -0.088799 0.004914
v -0.065881 0.034733 0.004887
v -0.065874 0.047370 0.002932
v -0.065813 0.047370 0.002408
v -0.065847 0.034733 0.002666
v -0.065813 0.034746 0.002408
v -0.065604 -0.088799 0.002062
v -0.065577 -0.088799 0.002055
v -0.065191 -0.088799 0.001977
v -0.037422 -0.088813 0.001976
v 0.003185 -0.088813 0.004914
v -0.037550 0.026068 0.004914
v -0.065874 0.047357 0.004887
v -0.065874 0.047370 0.004501
v -0.065604 0.047370 0.002063
v -0.065604 0.047357 0.002062
v -0.065537 0.012045 0.002047
v -0.065266 -0.085827 0.001991
v -0.037550 -0.088799 0.001976
v -0.065191 0.034746 0.001977
v 0.003246 -0.088813 0.001976
v 0.003246 -0.088799 0.004914
v -0.032637 0.034733 0.004914
v -0.065746 0.047370 0.004887
v -0.065191 0.047370 0.001977
v -0.065191 0.047357 0.001977
v -0.037550 0.034733 0.001976
v 0.003246 0.034733 0.001976
v 0.003246 0.034733 0.004914
v 0.003246 0.047370 0.004887
v -0.064670 0.047370 0.001977
v 0.002874 0.047370 0.001977
v 0.003246 0.047357 0.001977
vn -1.0000 -0.0000 -0.0000
vn -1.0000 0.0003 -0.0000
vn -0.9922 -0.0003 -0.1244
vn -0.9927 0.0002 -0.1209
vn -0.9919 -0.0002 -0.1273
vn -0.9918 -0.0008 -0.1281
vn -0.0007 -1.0000 -0.0000
vn -0.0007 -1.0000 -0.0002
vn -0.0004 -1.0000 -0.0018
vn -0.0003 -1.0000 -0.0000
vn -0.0006 -0.9873 0.1586
vn -0.0010 -0.0028 1.0000
vn -0.0005 -0.0022 1.0000
vn -0.0006 -0.0000 1.0000
vn -0.0010 -0.0000 1.0000
vn -1.0000 0.0006 -0.0000
vn -0.9932 0.0006 -0.1161
vn -0.9921 0.0002 -0.1257
vn -0.9919 -0.0000 -0.1267
vn -0.9878 -0.0000 -0.1555
vn -0.9879 -0.0000 -0.1550
vn -0.9878 -0.0000 -0.1560
vn -0.0006 -1.0000 -0.0032
vn -0.8558 -0.0000 -0.5173
vn -0.8556 -0.0000 -0.5176
vn -0.8554 -0.0000 -0.5179
vn -0.0006 -1.0000 -0.0042
vn -0.0007 -1.0000 -0.0034
vn -0.0001 -0.1354 -0.9908
vn -0.0000 -1.0000 -0.0000
vn -0.0000 -0.0000 1.0000
vn -0.0000 0.0001 1.0000
vn -0.0002 0.0010 1.0000
vn -0.0007 0.0005 1.0000
vn -0.0000 1.0000 -0.0000
vn -0.8523 0.0657 -0.5190
vn -0.8523 0.0657 -0.5189
vn -0.2274 -0.0000 -0.9738
vn -0.2249 -0.0000 -0.9744
vn -0.2228 -0.0000 -0.9749
vn -0.2188 -0.0000 -0.9758
vn -0.2012 -0.0002 -0.9795
vn -0.2012 -0.0000 -0.9796
vn -0.1984 -0.0007 -0.9801
vn -0.1987 -0.0004 -0.9801
vn -0.0000 -0.0000 -1.0000
vn -0.0000 -0.0002 -1.0000
vn -0.1825 -0.0000 -0.9832
vn -0.1843 -0.0000 -0.9829
vn 0.2131 -0.9770 0.0045
vn -0.0002 0.0018 1.0000
vn -0.1034 0.9940 0.0344
vn -0.2029 0.1227 -0.9715
vn -0.2028 0.1227 -0.9715
vn -0.2027 0.1227 -0.9715
vn -0.2012 0.0189 -0.9794
vn -0.2013 -0.0000 -0.9795
vn -0.1992 -0.0000 -0.9800
vn -0.1860 -0.0000 -0.9826
vn 1.0000 -0.0000 -0.0000
vn -0.0000 0.0021 1.0000
vn -0.0005 0.0193 -0.9998
vn -0.0000 0.0001 -1.0000
vn 0.0359 0.9993 -0.0046
s 1
f 1//1 2//1 10//2
f 1//1 10//2 3//2
f 1//3 3//4 4//5
f 1//3 4//5 5//6
f 1//7 5//8 6//9
f 1//7 6//9 7//10
f 1//7 7//10 2//7
f 2//11 7//11 8//11
f 2//12 8//13 9//14
f 2//12 9//14 20//15
f 2//12 20//15 10//15
f 3//2 10//2 22//16
f 3//2 22//16 11//16
f 3//4 11//17 12//18
f 3//4 12//18 13//19
f 3//4 13//19 4//5
f 4//5 13//19 12//18
f 4//20 12//21 14//20
f 4//20 14//20 5//22
f 5//8 15//23 6//9
f 5//24 14//25 15//26
f 6//9 15//23 16//27
f 6//9 16//27 17//28
f 6//29 17//29 18//29
f 6//9 18//30 29//30
f 6//9 29//30 19//30
f 6//9 19//30 8//30
f 6//9 8//30 7//10
f 8//13 19//31 30//31
f 8//13 30//31 37//32
f 8//13 37//32 31//33
f 8//13 31//33 20//15
f 8//13 20//15 9//14
f 10//15 20//15 21//34
f 10//2 21//16 22//16
f 11//35 22//35 32//35
f 11//35 32//35 38//35
f 11//35 38//35 40//35
f 11//35 40//35 39//35
f 11//35 39//35 33//35
f 11//35 33//35 23//35
f 11//35 23//35 12//35
f 12//36 23//36 24//37
f 12//26 24//26 15//26
f 12//26 15//26 14//25
f 15//38 24//39 16//40
f 16//40 24//39 25//41
f 16//42 25//43 26//44
f 16//42 26//44 17//45
f 17//46 27//47 18//46
f 17//48 26//49 28//49
f 17//46 28//46 27//47
f 18//46 27//47 35//46
f 18//46 35//46 36//46
f 18//46 36//46 29//46
f 19//50 29//50 30//50
f 20//15 31//33 21//34
f 21//34 31//33 32//51
f 21//52 32//52 22//52
f 23//53 33//54 24//55
f 24//56 33//56 34//56
f 24//57 34//58 25//43
f 25//43 34//58 26//44
f 26//49 34//59 28//49
f 27//47 28//46 34//46
f 27//47 34//46 35//46
f 29//60 36//60 41//60
f 29//60 41//60 38//60
f 29//60 38//60 37//60
f 29//60 37//60 30//60
f 31//33 37//32 38//61
f 31//33 38//61 32//51
f 33//62 39//62 34//62
f 34//46 39//63 35//46
f 35//46 39//63 40//63
f 35//46 40//63 36//46
f 36//46 40//63 41//63
f 38//64 41//64 40//64
