# Blender 4.4.3
# www.blender.org
o fixed_holes_collision_geom_88
v 0.050337 -0.132819 0.018445
v 0.065879 -0.132819 0.018445
v 0.050337 -0.132819 0.022308
v 0.050387 -0.118781 0.018445
v 0.065879 -0.132819 0.022308
v 0.065881 -0.132585 0.018445
v 0.050383 -0.132819 0.022830
v 0.050387 -0.118781 0.022308
v 0.050391 -0.118483 0.018445
v 0.065821 -0.132819 0.022830
v 0.065881 -0.132585 0.022308
v 0.065881 -0.117658 0.018445
v 0.050446 -0.132819 0.022937
v 0.050649 -0.118303 0.023177
v 0.050443 -0.118781 0.022830
v 0.050447 -0.118303 0.022830
v 0.050396 -0.118303 0.022308
v 0.050396 -0.118303 0.018445
v 0.065718 -0.132819 0.023002
v 0.065824 -0.132585 0.022830
v 0.065881 -0.117658 0.022308
v 0.051923 -0.117658 0.018445
v 0.050591 -0.132819 0.023177
v 0.051059 -0.118303 0.023261
v 0.050699 -0.117993 0.023149
v 0.050625 -0.117935 0.022830
v 0.050602 -0.117914 0.022308
v 0.050524 -0.118061 0.018445
v 0.065612 -0.132819 0.023177
v 0.065824 -0.117658 0.022830
v 0.065687 -0.117658 0.023054
v 0.051257 -0.117732 0.018445
v 0.051901 -0.117658 0.018461
v 0.050804 -0.132819 0.023221
v 0.054202 -0.117658 0.023261
v 0.053864 -0.117658 0.023247
v 0.051059 -0.117958 0.023177
v 0.051059 -0.132819 0.023261
v 0.053247 -0.117658 0.023159
v 0.051059 -0.117805 0.022830
v 0.051059 -0.117759 0.022308
v 0.050602 -0.117914 0.018445
v 0.065408 -0.132819 0.023219
v 0.065612 -0.117658 0.023177
v 0.051059 -0.117759 0.018445
v 0.053069 -0.117658 0.022830
v 0.065198 -0.117658 0.023261
v 0.053678 -0.117658 0.023229
v 0.053360 -0.117658 0.023189
v 0.065198 -0.132819 0.023261
v 0.053080 -0.117658 0.022863
v 0.065346 -0.117658 0.023232
vn -0.0000 -1.0000 -0.0000
vn -0.0000 -1.0000 0.0002
vn -0.0000 -1.0000 -0.0001
vn -1.0000 0.0036 -0.0000
vn -0.9999 0.0151 -0.0039
vn -0.9999 0.0133 -0.0000
vn -0.0000 -0.0000 -1.0000
vn 0.0007 -0.0000 -1.0000
vn 1.0000 -0.0068 -0.0000
vn 1.0000 -0.0012 -0.0000
vn 1.0000 -0.0022 -0.0000
vn -0.9962 0.0035 0.0868
vn -0.9997 0.0229 0.0004
vn 0.9939 -0.0068 0.1098
vn 0.9939 -0.0012 0.1098
vn 0.9939 -0.0022 0.1102
vn 1.0000 -0.0000 -0.0000
vn -0.8600 0.0036 0.5103
vn -0.8575 0.0034 0.5144
vn -0.8592 0.0040 0.5116
vn -0.8646 0.0069 0.5024
vn -0.9943 0.0043 0.1069
vn -0.9942 0.0180 0.1062
vn -0.9942 0.0096 0.1070
vn -0.9941 0.0175 0.1066
vn -0.9950 0.0189 0.0984
vn -0.9997 0.0226 0.0001
vn -0.9997 0.0255 -0.0000
vn 0.8558 -0.0058 0.5174
vn 0.8558 -0.0016 0.5173
vn 0.8551 -0.0049 0.5184
vn 0.9940 -0.0000 0.1097
vn -0.0000 1.0000 -0.0000
vn -0.0000 1.0000 -0.0003
vn -0.0000 1.0000 0.0001
vn -0.0000 1.0000 -0.0001
vn -0.8575 0.0034 0.5145
vn -0.1997 0.1209 0.9724
vn -0.8506 0.1827 0.4931
vn -0.8651 0.0082 0.5015
vn -0.2012 0.0009 0.9796
vn -0.2010 0.0008 0.9796
vn -0.2007 0.0008 0.9797
vn -0.8656 0.4186 0.2747
vn -0.8657 0.4185 0.2747
vn -0.8968 0.4335 0.0887
vn -0.8833 0.4649 0.0608
vn -0.8851 0.4654 0.0001
vn -0.8846 0.4663 0.0001
vn -0.8849 0.4657 -0.0000
vn -0.8853 0.4650 -0.0000
vn 0.8521 -0.0006 0.5234
vn 0.8552 -0.0000 0.5183
vn 0.8517 -0.0000 0.5240
vn -0.1093 0.9810 -0.1602
vn -0.1996 0.0008 0.9799
vn -0.0422 0.2053 0.9778
vn -0.0423 0.2053 0.9778
vn -0.0495 0.2366 0.9703
vn -0.0494 0.2366 0.9703
vn -0.0991 0.2357 0.9668
vn -0.1548 -0.0000 0.9879
vn -0.0000 -0.0000 1.0000
vn -0.1213 0.9079 0.4014
vn -0.1211 0.9077 0.4017
vn -0.1212 0.9079 0.4013
vn -0.1212 0.9082 0.4005
vn -0.2802 0.9311 0.2336
vn -0.2871 0.9542 0.0839
vn -0.3187 0.9463 0.0552
vn -0.8842 0.4671 -0.0000
vn -0.3192 0.9477 -0.0000
vn -0.3191 0.9477 -0.0000
vn 0.8506 -0.0000 0.5258
vn 0.2016 -0.0000 0.9795
vn 0.2014 -0.0000 0.9795
vn 0.2007 -0.0000 0.9797
vn -0.1340 0.9910 -0.0000
vn -0.1146 0.9934 0.0010
vn -0.0537 0.9985 0.0144
vn -0.0553 0.9983 0.0197
vn -0.0571 0.9983 0.0147
vn -0.0774 0.5274 0.8461
vn -0.0773 0.5274 0.8461
vn -0.0921 0.6761 0.7310
vn -0.1186 0.8920 0.4362
vn -0.0591 0.9977 0.0333
vn -0.0799 0.9930 0.0873
vn -0.0556 0.9982 0.0212
vn 0.1995 -0.0000 0.9799
vn 0.1978 -0.0000 0.9802
vn 0.1973 -0.0000 0.9803
s 1
f 1//1 2//1 5//1
f 1//1 5//1 10//1
f 1//1 10//1 19//1
f 1//1 19//1 29//1
f 1//1 29//1 43//2
f 1//1 43//2 50//3
f 1//1 50//3 38//1
f 1//1 38//1 34//1
f 1//1 34//1 23//1
f 1//1 23//1 13//1
f 1//1 13//1 7//1
f 1//1 7//1 3//1
f 1//4 3//4 8//5
f 1//4 8//5 4//6
f 1//7 4//8 9//7
f 1//7 9//7 18//7
f 1//7 18//7 28//7
f 1//7 28//7 42//7
f 1//7 42//7 45//7
f 1//7 45//7 32//7
f 1//7 32//7 22//7
f 1//7 22//7 12//7
f 1//7 12//7 6//7
f 1//7 6//7 2//7
f 2//9 6//10 11//11
f 2//9 11//11 5//9
f 3//12 7//12 8//12
f 4//6 8//5 9//13
f 5//14 11//15 20//16
f 5//14 20//16 10//14
f 6//10 12//17 21//17
f 6//10 21//17 11//11
f 7//18 13//19 14//20
f 7//18 14//20 15//21
f 7//22 15//22 8//22
f 8//23 15//24 16//25
f 8//23 16//25 17//26
f 8//5 17//27 9//13
f 9//13 17//27 18//28
f 10//29 20//30 19//31
f 11//15 21//32 30//32
f 11//15 30//32 20//16
f 12//33 22//34 33//35
f 12//33 33//35 46//33
f 12//33 46//33 51//36
f 12//33 51//36 39//33
f 12//33 39//33 49//33
f 12//33 49//33 48//33
f 12//33 48//33 36//33
f 12//33 36//33 35//35
f 12//33 35//35 47//33
f 12//33 47//33 52//33
f 12//33 52//33 44//33
f 12//33 44//33 31//33
f 12//33 31//33 30//33
f 12//33 30//33 21//33
f 13//19 23//37 14//20
f 14//38 24//38 25//38
f 14//39 25//39 16//39
f 14//20 16//40 15//21
f 14//41 23//42 24//43
f 16//44 25//45 26//44
f 16//46 26//46 17//46
f 17//47 26//47 27//47
f 17//48 27//49 28//50
f 17//48 28//50 18//51
f 19//31 20//30 29//52
f 20//30 30//53 31//54
f 20//30 31//54 29//52
f 22//55 32//55 33//55
f 23//42 34//56 24//43
f 24//57 35//58 36//58
f 24//59 36//60 37//59
f 24//61 37//61 25//61
f 24//62 34//62 38//62
f 24//63 38//63 50//63
f 24//63 50//63 47//63
f 24//63 47//63 35//63
f 25//64 37//65 39//66
f 25//64 39//66 40//67
f 25//68 40//68 26//68
f 26//69 40//69 41//69
f 26//70 41//70 27//70
f 27//49 42//71 28//50
f 27//72 41//73 45//72
f 27//72 45//72 42//73
f 29//52 31//54 44//74
f 29//75 44//76 43//77
f 32//78 45//78 41//78
f 32//79 41//79 33//79
f 33//80 41//81 46//82
f 36//83 48//84 37//83
f 37//85 48//85 49//85
f 37//86 49//86 39//86
f 39//87 51//87 41//87
f 39//88 41//88 40//88
f 41//81 51//89 46//82
f 43//77 44//76 52//90
f 43//77 52//90 50//91
f 47//92 50//91 52//90
