# Blender 4.4.3
# www.blender.org
o fixed_holes_collision_geom_106
v -0.037553 0.025349 0.015174
v -0.037553 0.026273 0.004888
v -0.044495 0.023389 0.015174
v -0.037553 -0.088825 0.015174
v -0.041108 0.024516 0.004887
v -0.044495 0.024031 0.004888
v -0.037553 -0.088813 0.004888
v -0.044495 -0.088825 0.015174
v -0.037553 -0.088825 0.008905
v -0.037865 -0.088825 0.004888
v -0.044495 -0.088825 0.004888
vn -0.2707 0.9588 0.0861
vn -0.0000 -0.0000 1.0000
vn 1.0000 -0.0000 -0.0000
vn -0.0002 0.0011 -1.0000
vn -0.0000 0.0001 -1.0000
vn -0.0004 0.0010 -1.0000
vn -0.3067 0.9499 0.0593
vn -0.0000 -0.0000 -1.0000
vn -1.0000 -0.0000 -0.0000
vn -0.0000 -1.0000 -0.0000
vn 0.0359 -0.9994 -0.0028
s 1
f 1//1 2//1 3//1
f 1//2 3//2 8//2
f 1//2 8//2 4//2
f 1//3 4//3 9//3
f 1//3 9//3 7//3
f 1//3 7//3 2//3
f 2//4 5//5 6//6
f 2//7 6//7 3//7
f 2//4 7//8 5//5
f 3//9 6//9 11//9
f 3//9 11//9 8//9
f 4//10 8//10 11//10
f 4//10 11//10 10//10
f 4//10 10//10 9//10
f 5//5 7//8 10//8
f 5//5 10//8 11//8
f 5//5 11//8 6//6
f 7//11 9//11 10//11
