# Blender 4.4.3
# www.blender.org
o fixed_holes_collision_geom_79
v -0.053697 0.054122 0.002425
v -0.053697 0.054122 0.004881
v -0.053697 0.054511 0.001976
v -0.053694 0.054122 0.001976
v -0.051010 0.052144 0.001977
v -0.051010 0.052144 0.004876
v -0.044600 0.052144 0.004876
v -0.044600 0.059430 0.004876
v -0.044599 0.069248 0.004875
v -0.051184 0.069248 0.004876
v -0.053617 0.067335 0.004876
v -0.053697 0.059450 0.004875
v -0.053697 0.059458 0.001976
v -0.051011 0.054122 0.001976
v -0.044600 0.052144 0.001977
v -0.044599 0.059459 0.004390
v -0.044599 0.059749 0.004875
v -0.044599 0.069248 0.001976
v -0.051184 0.069248 0.001976
v -0.053617 0.067335 0.001976
v -0.053697 0.059458 0.004580
v -0.044599 0.059459 0.001976
vn -1.0000 0.0005 0.0007
vn -1.0000 -0.0000 -0.0000
vn -1.0000 0.0004 -0.0001
vn -1.0000 0.0051 0.0001
vn -1.0000 0.0051 -0.0000
vn -1.0000 -0.0057 -0.0052
vn -1.0000 -0.0070 -0.0059
vn -0.5927 -0.8054 -0.0002
vn -0.5930 -0.8052 -0.0034
vn -0.5929 -0.8052 -0.0027
vn -0.5927 -0.8054 -0.0000
vn -0.0007 -0.0002 1.0000
vn -0.0000 -0.0024 1.0000
vn 0.0002 -0.0017 1.0000
vn 0.0005 0.0001 1.0000
vn 0.0003 0.0002 1.0000
vn -0.0000 0.0003 1.0000
vn -0.0003 0.0004 1.0000
vn -0.1149 0.0011 0.9934
vn -0.0000 -0.0000 -1.0000
vn -0.0000 -0.0002 -1.0000
vn 0.0001 -0.0002 -1.0000
vn -0.0000 -0.0001 -1.0000
vn -0.0000 -1.0000 -0.0000
vn 1.0000 -0.0002 -0.0000
vn 1.0000 -0.0001 -0.0000
vn 0.0002 1.0000 -0.0002
vn 0.3014 -0.0000 0.9535
vn -0.0001 -1.0000 0.0001
vn 0.3009 -0.0000 0.9537
vn 1.0000 -0.0000 -0.0000
vn -0.0000 1.0000 -0.0000
vn -0.6184 0.7859 -0.0000
vn -0.9999 0.0102 -0.0000
s 1
f 1//1 2//2 12//3
f 1//1 12//3 21//4
f 1//1 21//4 13//5
f 1//1 13//5 3//6
f 1//1 3//6 4//7
f 1//8 4//9 5//10
f 1//8 5//10 6//11
f 1//8 6//11 2//11
f 2//12 6//13 7//14
f 2//12 7//14 8//15
f 2//12 8//15 9//16
f 2//12 9//16 10//17
f 2//12 10//17 11//18
f 2//19 11//19 12//19
f 3//20 13//20 20//20
f 3//20 20//20 19//20
f 3//20 19//20 18//20
f 3//20 18//20 22//20
f 3//20 22//20 14//20
f 3//20 14//20 4//21
f 4//21 14//20 15//22
f 4//21 15//22 5//23
f 5//24 15//24 7//24
f 5//24 7//24 6//24
f 7//25 15//25 22//26
f 7//25 22//26 16//26
f 7//25 16//26 17//26
f 7//27 17//28 9//29
f 7//27 9//29 8//30
f 9//31 17//26 16//26
f 9//31 16//26 22//26
f 9//31 22//26 18//31
f 9//32 18//32 19//32
f 9//32 19//32 10//32
f 10//33 19//33 20//33
f 10//33 20//33 11//33
f 11//34 20//34 13//5
f 11//34 13//5 21//4
f 11//34 21//4 12//3
f 14//20 22//20 15//22
