# Blender 4.4.3
# www.blender.org
o fixed_holes_collision_geom_24
v 0.043922 0.115482 0.001976
v 0.043922 0.124773 0.001976
v 0.048092 0.115482 0.001976
v 0.043922 0.115482 0.010491
v 0.043922 0.124773 0.010489
v 0.065195 0.124773 0.001976
v 0.048092 0.115482 0.011339
v 0.065195 0.116654 0.001976
v 0.065611 0.116654 0.002062
v 0.065710 0.116654 0.002225
v 0.065821 0.116654 0.002408
v 0.065848 0.116654 0.002652
v 0.065879 0.116654 0.002931
v 0.054042 0.116654 0.016030
v 0.054042 0.124773 0.016030
v 0.065611 0.124773 0.002062
v 0.057939 0.116654 0.016030
v 0.065879 0.116654 0.016021
v 0.065821 0.124773 0.002408
v 0.065879 0.124773 0.002931
v 0.065843 0.124773 0.016030
v 0.065879 0.116871 0.016030
v 0.065879 0.124773 0.016021
v 0.065879 0.124768 0.016030
vn -0.0000 -0.0000 -1.0000
vn -0.0000 -1.0000 -0.0000
vn -1.0000 -0.0000 -0.0000
vn -0.0000 1.0000 -0.0000
vn -0.0000 1.0000 -0.0002
vn -0.0000 1.0000 -0.0001
vn -0.0000 1.0000 0.0001
vn 0.0649 -0.9466 -0.3159
vn 0.0669 -0.9969 -0.0407
vn 0.0671 -0.9969 -0.0404
vn 0.0661 -0.9978 -0.0057
vn 0.0661 -0.9978 -0.0074
vn 0.0661 -0.9978 -0.0073
vn 0.0665 -0.9978 -0.0073
vn 0.0657 -0.9978 -0.0000
vn -0.0650 -0.9456 0.3187
vn -0.4802 0.0001 0.8772
vn -0.4801 -0.0000 0.8772
vn -0.4802 -0.0000 0.8772
vn 0.2014 -0.0000 -0.9795
vn 0.0001 -0.9702 0.2421
vn 0.0001 -0.9702 0.2425
vn -0.0000 -0.9701 0.2427
vn 0.0003 -0.9703 0.2419
vn 0.8542 -0.0000 -0.5200
vn 0.8544 -0.0000 -0.5196
vn 0.8547 -0.0000 -0.5191
vn 0.8549 -0.0000 -0.5188
vn 0.8551 -0.0000 -0.5185
vn 0.9935 -0.0000 -0.1140
vn 0.9936 0.0001 -0.1128
vn 0.9936 0.0001 -0.1126
vn 0.9942 0.0001 -0.1078
vn 0.9942 -0.0000 -0.1072
vn 1.0000 -0.0012 -0.0000
vn 1.0000 -0.0000 -0.0000
vn 1.0000 -0.0019 -0.0000
vn 1.0000 -0.0018 -0.0000
vn -0.0000 -0.0000 1.0000
vn 0.0001 -0.0000 1.0000
vn 0.0010 -0.0382 0.9993
vn 0.0900 0.9127 0.3986
vn 0.0903 0.9127 0.3986
vn 0.0902 0.9127 0.3986
s 1
f 1//1 2//1 6//1
f 1//1 6//1 8//1
f 1//1 8//1 3//1
f 1//2 3//2 7//2
f 1//2 7//2 4//2
f 1//3 4//3 5//3
f 1//3 5//3 2//3
f 2//4 5//4 15//4
f 2//4 15//4 21//5
f 2//4 21//5 23//6
f 2//4 23//6 20//4
f 2//4 20//4 19//4
f 2//4 19//4 16//4
f 2//4 16//4 6//7
f 3//8 8//8 9//8
f 3//9 9//9 10//9
f 3//9 10//9 11//10
f 3//11 11//12 12//13
f 3//11 12//13 13//14
f 3//11 13//14 18//15
f 3//11 18//15 7//15
f 4//16 7//16 14//16
f 4//17 14//18 15//19
f 4//17 15//19 5//17
f 6//20 16//20 9//20
f 6//20 9//20 8//20
f 7//21 17//22 14//23
f 7//21 18//24 17//22
f 9//25 16//26 10//27
f 10//27 19//28 11//29
f 10//27 16//26 19//28
f 11//30 19//31 12//32
f 12//32 20//33 13//34
f 12//32 19//31 20//33
f 13//35 20//36 23//37
f 13//35 23//37 24//38
f 13//35 24//38 22//36
f 13//35 22//36 18//36
f 14//39 17//39 22//39
f 14//39 22//39 24//39
f 14//39 24//39 21//40
f 14//39 21//40 15//39
f 17//41 18//41 22//41
f 21//42 24//43 23//44
