# Blender 4.4.3
# www.blender.org
o fixed_holes_collision_geom_49
v 0.043922 0.047385 0.001976
v 0.049841 0.047379 0.001976
v 0.048095 0.047371 0.001980
v 0.043922 0.047385 0.013460
v 0.043922 0.115481 0.001976
v 0.065193 0.047379 0.001976
v 0.049840 0.047371 0.001980
v 0.048095 0.047371 0.012016
v 0.048095 0.047379 0.014591
v 0.050132 0.047379 0.016030
v 0.043922 0.108780 0.013460
v 0.043922 0.115481 0.010489
v 0.048095 0.116647 0.001980
v 0.049841 0.116654 0.001976
v 0.065193 0.049955 0.001976
v 0.065611 0.047853 0.002062
v 0.065606 0.047379 0.002062
v 0.049840 0.047371 0.012016
v 0.065819 0.047379 0.002407
v 0.065879 0.047379 0.002930
v 0.065881 0.047379 0.003452
v 0.065881 0.047379 0.016030
v 0.050132 0.065967 0.016030
v 0.050134 0.108753 0.016030
v 0.050156 0.109248 0.016030
v 0.043922 0.109248 0.013446
v 0.043922 0.113195 0.012032
v 0.054044 0.116654 0.016030
v 0.048095 0.116647 0.011333
v 0.049841 0.116654 0.012155
v 0.052836 0.116654 0.001976
v 0.065611 0.049955 0.002062
v 0.065193 0.116654 0.001980
v 0.065608 0.116654 0.002063
v 0.065819 0.116654 0.002412
v 0.065881 0.116654 0.002933
v 0.065881 0.049955 0.002931
v 0.065881 0.047853 0.002931
v 0.065881 0.116383 0.016030
v 0.050241 0.109723 0.016030
v 0.050314 0.110008 0.016030
v 0.043922 0.109723 0.013390
v 0.043922 0.113053 0.012124
v 0.057941 0.116654 0.016030
v 0.043922 0.112584 0.012400
v 0.043922 0.112259 0.012577
v 0.043922 0.112015 0.012686
v 0.043922 0.111785 0.012788
v 0.043922 0.111629 0.012853
v 0.043922 0.111330 0.012965
v 0.043922 0.111140 0.013036
v 0.043922 0.110937 0.013101
v 0.043922 0.110638 0.013195
v 0.051017 0.111656 0.016030
v 0.065881 0.116654 0.016020
v 0.050369 0.110184 0.016030
v 0.050549 0.110699 0.016030
v 0.043922 0.110205 0.013301
v 0.050756 0.111154 0.016030
vn -0.0003 -0.3031 -0.9530
vn -0.0033 -1.0000 -0.0000
vn 0.0002 -1.0000 -0.0000
vn -0.0005 -1.0000 0.0027
vn -0.0025 -1.0000 0.0032
vn -1.0000 -0.0000 -0.0000
vn -0.0000 -0.0000 -1.0000
vn -0.0011 0.0054 -1.0000
vn -0.0010 0.0046 -1.0000
vn 0.0001 -0.0000 -1.0000
vn -0.0000 -0.3790 -0.9254
vn -0.0000 -0.3794 -0.9252
vn -0.0000 -0.3786 -0.9256
vn 0.0006 -1.0000 -0.0007
vn 0.0001 -1.0000 -0.0001
vn -0.0022 -1.0000 0.0023
vn -0.0022 -1.0000 0.0031
vn -0.3823 -0.0000 0.9240
vn -0.3822 -0.0000 0.9241
vn -0.2692 0.9631 -0.0000
vn -0.0016 0.0084 -1.0000
vn 0.2007 -0.0005 -0.9797
vn 0.1994 -0.0000 -0.9799
vn 0.2004 -0.0000 -0.9797
vn 0.2008 -0.0015 -0.9796
vn 0.2024 -0.0019 -0.9793
vn 0.0005 -1.0000 -0.0024
vn 0.0004 -1.0000 -0.0017
vn 0.0005 -1.0000 -0.0001
vn 0.0005 -1.0000 -0.0000
vn 0.0001 -1.0000 0.0014
vn -0.0000 -0.0000 1.0000
vn -0.0001 -0.0000 1.0000
vn 0.0060 -0.0000 1.0000
vn -0.3824 0.0205 0.9238
vn -0.3821 0.0163 0.9240
vn -0.3826 0.0235 0.9236
vn -0.3828 0.0274 0.9234
vn -0.4603 0.4968 0.7358
vn -0.3212 0.8556 0.4058
vn -0.0037 1.0000 -0.0000
vn -0.0072 1.0000 0.0067
vn -0.0037 1.0000 -0.0016
vn 0.0002 1.0000 -0.0000
vn -0.0051 1.0000 0.0055
vn -0.0000 1.0000 -0.0000
vn 0.0003 0.0001 -1.0000
vn 0.1981 -0.0000 -0.9802
vn 0.1996 -0.0000 -0.9799
vn 0.8522 -0.0060 -0.5232
vn 0.8558 -0.0000 -0.5173
vn 0.8559 -0.0009 -0.5172
vn 0.8513 -0.0078 -0.5247
vn 0.8560 -0.0001 -0.5170
vn 0.9930 -0.0001 -0.1183
vn 0.9929 -0.0000 -0.1188
vn 0.9930 -0.0000 -0.1183
vn 0.9934 -0.0031 -0.1150
vn 0.9935 -0.0046 -0.1141
vn 1.0000 -0.0045 -0.0040
vn 1.0000 -0.0036 -0.0034
vn 1.0000 0.0004 0.0005
vn 1.0000 -0.0000 -0.0000
vn -0.3820 0.0691 0.9216
vn -0.3831 0.1020 0.9181
vn -0.3829 0.0982 0.9186
vn -0.3834 0.1053 0.9176
vn -0.3836 0.1090 0.9170
vn -0.4595 0.4826 0.7456
vn -0.4594 0.4826 0.7456
vn -0.4563 0.4508 0.7671
vn -0.4525 0.4270 0.7829
vn -0.4383 0.3636 0.8220
vn -0.4387 0.3654 0.8210
vn -0.4383 0.3637 0.8220
vn -0.4381 0.3633 0.8222
vn -0.4327 0.3451 0.8328
vn -0.4246 0.3196 0.8471
vn -0.4248 0.3199 0.8469
vn -0.4247 0.3196 0.8471
vn -0.4245 0.3194 0.8472
vn -0.4069 0.2740 0.8714
vn -0.4080 0.2767 0.8700
vn -0.4066 0.2734 0.8718
vn -0.3899 0.2359 0.8901
vn 0.8555 -0.0000 -0.5177
vn 0.0012 0.0353 0.9994
vn -0.3835 0.1170 0.9161
vn -0.3836 0.1170 0.9161
vn -0.3838 0.1343 0.9136
vn -0.3862 0.1683 0.9070
vn -0.3862 0.1710 0.9064
vn -0.3861 0.1723 0.9062
vn -0.3889 0.2188 0.8949
vn -0.3874 0.2024 0.8994
vn -0.3861 0.1753 0.9056
s 1
f 1//1 2//1 3//1
f 1//2 3//3 8//4
f 1//2 8//4 4//5
f 1//6 4//6 11//6
f 1//6 11//6 26//6
f 1//6 26//6 42//6
f 1//6 42//6 58//6
f 1//6 58//6 53//6
f 1//6 53//6 52//6
f 1//6 52//6 51//6
f 1//6 51//6 50//6
f 1//6 50//6 49//6
f 1//6 49//6 48//6
f 1//6 48//6 47//6
f 1//6 47//6 46//6
f 1//6 46//6 45//6
f 1//6 45//6 43//6
f 1//6 43//6 27//6
f 1//6 27//6 12//6
f 1//6 12//6 5//6
f 1//7 5//8 14//9
f 1//7 14//9 31//10
f 1//7 31//10 15//7
f 1//7 15//7 6//7
f 1//7 6//7 2//7
f 2//11 6//12 7//11
f 2//11 7//11 3//13
f 3//3 7//14 18//15
f 3//3 18//15 8//4
f 4//5 8//4 9//16
f 4//5 9//16 10//17
f 4//18 10//18 23//18
f 4//18 23//18 11//19
f 5//20 12//20 29//20
f 5//20 29//20 13//20
f 5//8 13//21 14//9
f 6//22 15//23 32//24
f 6//22 32//24 16//25
f 6//22 16//25 17//26
f 6//27 17//28 7//14
f 7//14 17//28 19//29
f 7//14 19//29 20//30
f 7//14 20//30 21//30
f 7//14 21//30 22//31
f 7//14 22//31 18//15
f 8//4 18//15 22//31
f 8//4 22//31 10//17
f 8//4 10//17 9//16
f 10//32 22//32 39//32
f 10//32 39//32 44//32
f 10//32 44//32 28//32
f 10//32 28//32 54//32
f 10//32 54//32 59//32
f 10//32 59//32 57//32
f 10//32 57//32 56//32
f 10//32 56//32 41//32
f 10//32 41//32 40//32
f 10//32 40//32 25//32
f 10//32 25//32 24//33
f 10//32 24//33 23//34
f 11//19 23//18 24//19
f 11//35 24//36 25//37
f 11//35 25//37 26//38
f 12//39 27//39 28//39
f 12//40 28//40 29//40
f 13//41 29//42 30//43
f 13//41 30//43 14//44
f 14//44 30//43 28//45
f 14//44 28//45 44//46
f 14//44 44//46 55//46
f 14//44 55//46 36//46
f 14//44 36//46 35//46
f 14//44 35//46 34//46
f 14//44 34//46 33//46
f 14//44 33//46 31//46
f 15//7 31//10 33//47
f 15//23 33//48 34//49
f 15//23 34//49 32//24
f 16//50 32//51 19//52
f 16//50 19//52 17//53
f 19//52 32//51 35//54
f 19//55 35//56 36//57
f 19//55 36//57 37//57
f 19//55 37//57 38//58
f 19//55 38//58 20//59
f 20//60 38//61 21//62
f 21//62 38//61 37//63
f 21//62 37//63 36//63
f 21//62 36//63 55//63
f 21//62 55//63 39//63
f 21//62 39//63 22//63
f 25//64 40//64 26//64
f 26//65 40//66 41//67
f 26//65 41//67 42//68
f 27//69 43//69 28//70
f 28//45 30//43 29//42
f 28//71 43//71 45//71
f 28//72 45//72 46//72
f 28//73 46//74 47//75
f 28//73 47//75 48//76
f 28//77 48//77 49//77
f 28//78 49//79 50//80
f 28//78 50//80 51//81
f 28//82 51//83 52//82
f 28//82 52//82 53//84
f 28//85 53//85 54//85
f 32//51 34//86 35//54
f 39//87 55//87 44//87
f 41//88 56//89 42//88
f 42//90 56//90 57//90
f 42//91 57//92 58//93
f 53//94 58//94 54//94
f 54//95 58//95 59//95
f 57//92 59//96 58//93
