# Blender 4.4.3
# www.blender.org
o fixed_holes_collision_geom_82
v 0.047844 0.009449 0.016793
v 0.040749 0.009449 0.016793
v 0.047844 0.009449 0.001976
v 0.050309 0.009964 0.016740
v 0.050307 0.009964 0.016768
v 0.050309 0.023554 0.016752
v 0.037336 0.009526 0.016699
v 0.040749 0.009449 0.001976
v 0.050309 0.024029 0.016751
v 0.037336 0.024040 0.016446
v 0.050309 0.009964 0.001976
v 0.050309 0.009999 0.016764
v 0.037336 0.009526 0.001976
v 0.050309 0.024467 0.016709
v 0.037336 0.024510 0.016409
v 0.050309 0.025469 0.001976
v 0.037336 0.025377 0.001976
v 0.050309 0.024517 0.016703
v 0.037336 0.024718 0.016359
v 0.050006 0.025473 0.001976
v 0.050309 0.025473 0.002941
v 0.037336 0.025377 0.015719
v 0.040749 0.025469 0.001976
v 0.050309 0.024955 0.016497
v 0.037336 0.024792 0.016324
v 0.047845 0.025473 0.001976
v 0.050309 0.025473 0.015321
v 0.050309 0.025469 0.016190
v 0.040749 0.025469 0.013864
v 0.047845 0.025473 0.014478
v 0.050050 0.025473 0.015957
vn -0.0000 -1.0000 -0.0000
vn 0.2046 -0.9788 0.0063
vn 0.2044 -0.9789 -0.0000
vn 0.2048 -0.9788 0.0098
vn 0.2046 -0.9788 0.0102
vn 0.0094 0.0011 1.0000
vn 0.0106 0.0011 0.9999
vn 0.0066 0.0022 1.0000
vn -0.0000 0.0029 1.0000
vn -0.0226 -0.9997 -0.0000
vn -0.0003 0.0031 1.0000
vn -0.0239 0.0180 0.9996
vn -0.0235 0.0183 0.9996
vn -0.0263 0.0176 0.9995
vn -0.0272 0.0174 0.9995
vn -0.0000 -0.0000 -1.0000
vn 1.0000 -0.0000 -0.0000
vn 0.9983 -0.0309 0.0487
vn 0.9140 0.0006 0.4058
vn 0.9140 0.0008 0.4058
vn 0.9140 0.0003 0.4058
vn -1.0000 -0.0000 -0.0000
vn -0.0227 0.0956 0.9952
vn -0.0234 0.0797 0.9965
vn -0.0226 0.1147 0.9931
vn -0.0222 0.2316 0.9726
vn 0.0158 0.9999 -0.0050
vn -0.0269 0.9996 -0.0000
vn -0.0273 0.9996 -0.0000
vn -0.0174 0.4258 0.9047
vn -0.0176 0.4407 0.8975
vn -0.0000 1.0000 -0.0000
vn -0.0003 1.0000 -0.0000
vn -0.0003 1.0000 -0.0001
vn -0.0004 1.0000 0.0007
vn -0.0303 0.7184 0.6950
vn -0.0083 0.9994 0.0342
vn -0.0080 0.9994 0.0330
vn -0.0071 0.9996 0.0291
vn -0.0006 1.0000 -0.0000
vn -0.0007 1.0000 0.0009
vn -0.0180 0.5128 0.8583
vn 0.0135 0.9999 0.0055
vn -0.0068 0.9996 0.0279
s 1
f 1//1 2//1 8//1
f 1//1 8//1 3//1
f 1//2 3//3 11//3
f 1//2 11//3 4//4
f 1//2 4//4 5//5
f 1//6 5//7 6//8
f 1//6 6//8 2//9
f 2//10 7//10 13//10
f 2//10 13//10 8//10
f 2//9 6//8 9//11
f 2//12 9//13 10//14
f 2//12 10//14 7//15
f 3//16 8//16 13//16
f 3//16 13//16 17//16
f 3//16 17//16 23//16
f 3//16 23//16 26//16
f 3//16 26//16 20//16
f 3//16 20//16 16//16
f 3//16 16//16 11//16
f 4//17 11//17 16//17
f 4//17 16//17 21//17
f 4//17 21//17 27//17
f 4//17 27//17 28//17
f 4//17 28//17 24//17
f 4//17 24//17 18//17
f 4//17 18//17 14//17
f 4//17 14//17 9//17
f 4//17 9//17 6//17
f 4//17 6//17 12//17
f 4//18 12//18 5//18
f 5//19 12//20 6//21
f 7//22 10//22 15//22
f 7//22 15//22 19//22
f 7//22 19//22 25//22
f 7//22 25//22 22//22
f 7//22 22//22 17//22
f 7//22 17//22 13//22
f 9//23 14//23 15//23
f 9//24 15//24 10//24
f 14//25 18//25 15//25
f 15//26 18//26 19//26
f 16//27 20//27 21//27
f 17//28 22//29 29//28
f 17//28 29//28 23//29
f 18//30 24//30 19//30
f 19//31 24//31 25//31
f 20//32 26//33 30//34
f 20//32 30//34 31//35
f 20//32 31//35 27//32
f 20//32 27//32 21//32
f 22//36 25//36 28//36
f 22//37 28//38 29//39
f 23//40 29//41 30//34
f 23//40 30//34 26//33
f 24//42 28//42 25//42
f 27//43 31//43 28//43
f 28//38 31//44 29//39
f 29//41 31//35 30//34
