# Blender 4.4.3
# www.blender.org
o fixed_holes_collision_geom_122
v 0.054353 -0.053235 0.023262
v 0.054353 -0.053235 0.016538
v 0.051059 -0.053235 0.023262
v 0.054353 -0.062127 0.023262
v 0.049991 -0.053235 0.016538
v 0.054353 -0.063340 0.016538
v 0.050928 -0.053235 0.023235
v 0.048449 -0.054511 0.023179
v 0.048449 -0.054986 0.023262
v 0.048449 -0.062127 0.023262
v 0.054353 -0.062472 0.023177
v 0.050385 -0.053235 0.022307
v 0.048449 -0.053860 0.016538
v 0.054353 -0.062624 0.022830
v 0.048449 -0.062624 0.022830
v 0.048449 -0.062668 0.022307
v 0.048449 -0.062668 0.016538
v 0.050649 -0.053235 0.023177
v 0.048449 -0.054271 0.023089
v 0.048449 -0.062472 0.023177
v 0.054353 -0.062580 0.022930
v 0.050424 -0.053235 0.022663
v 0.050443 -0.053235 0.022830
vn -0.0000 1.0000 -0.0000
vn -0.0000 1.0000 -0.0001
vn -0.0000 -0.0000 1.0000
vn 1.0000 -0.0000 -0.0000
vn -0.0000 -0.0000 -1.0000
vn -0.1903 0.3287 0.9251
vn -0.1912 0.3304 0.9243
vn -0.1914 0.3310 0.9240
vn -0.1154 0.1716 0.9784
vn -0.0000 -0.2389 0.9711
vn -0.3759 0.9263 0.0258
vn -0.0000 -0.9936 0.1130
vn -0.0306 -0.9959 0.0848
vn -0.0305 -0.9959 0.0848
vn -0.1131 -0.9936 -0.0000
vn -0.1918 0.3314 0.9238
vn -1.0000 -0.0000 -0.0000
vn -0.1987 0.3433 0.9180
vn -0.1986 0.3433 0.9180
vn -0.0000 -0.9160 0.4013
vn -0.0000 -0.9161 0.4009
vn -0.0000 -0.9166 0.3998
vn -0.4302 0.9015 0.0466
vn -0.4380 0.8976 0.0494
vn -0.4314 0.9009 0.0467
vn -0.4549 0.8888 0.0559
vn -0.4396 0.8968 0.0501
vn -0.0000 -0.9170 0.3989
vn -0.0000 -0.9168 0.3994
vn -0.4208 0.8718 0.2509
s 1
f 1//1 2//1 5//1
f 1//1 5//1 12//1
f 1//1 12//1 22//1
f 1//1 22//1 23//1
f 1//1 23//1 18//1
f 1//1 18//1 7//1
f 1//1 7//1 3//2
f 1//3 3//3 9//3
f 1//3 9//3 10//3
f 1//3 10//3 4//3
f 1//4 4//4 11//4
f 1//4 11//4 21//4
f 1//4 21//4 14//4
f 1//4 14//4 6//4
f 1//4 6//4 2//4
f 2//5 6//5 17//5
f 2//5 17//5 13//5
f 2//5 13//5 5//5
f 3//6 7//7 8//8
f 3//9 8//9 9//9
f 4//10 10//10 20//10
f 4//10 20//10 11//10
f 5//11 13//11 12//11
f 6//12 14//12 15//12
f 6//13 15//14 16//14
f 6//15 16//15 17//15
f 7//7 18//16 8//8
f 8//17 19//17 13//17
f 8//17 13//17 17//17
f 8//17 17//17 16//17
f 8//17 16//17 15//17
f 8//17 15//17 20//17
f 8//17 20//17 10//17
f 8//17 10//17 9//17
f 8//18 18//19 19//18
f 11//20 20//21 21//22
f 12//23 13//24 22//25
f 13//26 19//26 23//26
f 13//24 23//27 22//25
f 14//28 21//22 15//29
f 15//29 21//22 20//21
f 18//30 23//30 19//30
