# Blender 4.4.3
# www.blender.org
o fixed_holes_collision_geom_8
v 0.040749 -0.063191 0.010811
v 0.040749 -0.063191 0.001976
v 0.033745 -0.063191 0.015094
v 0.040749 -0.082920 0.010913
v 0.040749 -0.082920 0.001976
v 0.003246 -0.063191 0.001976
v 0.033679 -0.079245 0.015101
v 0.033862 -0.082920 0.015101
v 0.003246 -0.063191 0.015094
v 0.003253 -0.082920 0.001976
v 0.003246 -0.082598 0.001976
v 0.014318 -0.079245 0.015101
v 0.015947 -0.082920 0.015101
v 0.014076 -0.079256 0.015101
v 0.003246 -0.071594 0.015094
v 0.003246 -0.082920 0.002715
v 0.015642 -0.082900 0.015101
v 0.003246 -0.082920 0.015077
v 0.014083 -0.079563 0.015101
v 0.003539 -0.072005 0.015094
vn -0.0000 1.0000 -0.0000
vn 0.5217 0.0044 0.8531
vn 0.5200 0.0036 0.8542
vn 0.5213 0.0041 0.8534
vn 1.0000 -0.0000 -0.0000
vn -0.0000 -0.0000 -1.0000
vn 0.0043 0.0004 1.0000
vn 0.0001 -0.0000 1.0000
vn 0.0053 0.0002 1.0000
vn 0.5196 0.0034 0.8544
vn -0.0002 0.0003 1.0000
vn -0.0000 0.0002 1.0000
vn -0.0000 -1.0000 -0.0000
vn -1.0000 -0.0000 -0.0000
vn -0.0003 0.0001 1.0000
vn -0.0002 -0.0000 1.0000
vn -0.0014 -0.0009 1.0000
vn -0.0000 -0.0000 1.0000
vn -0.9997 -0.0226 -0.0099
vn -0.0018 -0.0288 0.9996
vn -0.0019 -0.0015 1.0000
vn -0.0018 -0.0013 1.0000
s 1
f 1//1 2//1 6//1
f 1//1 6//1 9//1
f 1//1 9//1 3//1
f 1//2 3//3 4//4
f 1//5 4//5 5//5
f 1//5 5//5 2//5
f 2//6 5//6 10//6
f 2//6 10//6 11//6
f 2//6 11//6 6//6
f 3//7 7//8 8//9
f 3//3 8//10 4//4
f 3//7 9//11 12//12
f 3//7 12//12 7//8
f 4//13 8//13 13//13
f 4//13 13//13 18//13
f 4//13 18//13 16//13
f 4//13 16//13 10//13
f 4//13 10//13 5//13
f 6//14 11//14 16//14
f 6//14 16//14 18//14
f 6//14 18//14 15//14
f 6//14 15//14 9//14
f 7//8 12//12 14//15
f 7//8 14//15 19//16
f 7//8 19//16 17//17
f 7//8 17//17 13//18
f 7//8 13//18 8//9
f 9//11 14//15 12//12
f 9//11 15//17 14//15
f 10//19 16//19 11//19
f 13//20 17//20 18//20
f 14//15 15//17 19//16
f 15//17 18//21 20//22
f 15//17 20//22 17//17
f 15//17 17//17 19//16
f 17//17 20//22 18//21
