# Blender 4.4.3
# www.blender.org
o fixed_holes_collision_geom_46
v -0.065877 -0.128825 0.015102
v -0.065877 -0.128825 0.022307
v -0.065877 -0.122117 0.015102
v -0.016591 -0.128825 0.015102
v -0.065824 -0.128825 0.022830
v -0.065877 -0.122117 0.022307
v -0.021840 -0.122117 0.015102
v -0.016678 -0.128466 0.015102
v -0.017373 -0.128825 0.022830
v -0.065611 -0.128825 0.023177
v -0.065824 -0.122117 0.022830
v -0.022477 -0.122117 0.022830
v -0.021401 -0.122285 0.015102
v -0.017547 -0.128825 0.023153
v -0.022472 -0.122255 0.023136
v -0.065240 -0.128825 0.023253
v -0.065611 -0.122117 0.023177
v -0.022737 -0.122117 0.023181
v -0.017580 -0.128825 0.023160
v -0.022762 -0.122117 0.023188
v -0.065196 -0.128825 0.023262
v -0.065196 -0.122117 0.023262
v -0.018067 -0.128777 0.023238
v -0.018067 -0.128825 0.023240
v -0.022781 -0.122589 0.023253
v -0.023307 -0.122117 0.023262
v -0.018593 -0.128825 0.023262
v -0.018593 -0.128300 0.023247
v -0.018593 -0.128777 0.023262
vn -1.0000 -0.0000 -0.0000
vn -0.0000 -0.0000 -1.0000
vn -0.0000 -1.0000 -0.0003
vn -0.0000 -1.0000 -0.0000
vn -0.0000 -1.0000 -0.0007
vn -0.0000 -1.0000 0.0018
vn -0.0000 -1.0000 -0.0001
vn -0.0000 -1.0000 0.0002
vn -0.9949 -0.0000 0.1006
vn -0.0000 1.0000 -0.0005
vn -0.0000 1.0000 -0.0000
vn -0.0000 1.0000 0.0012
vn -0.0000 1.0000 -0.0009
vn 0.9673 0.2340 0.0978
vn -0.8528 -0.0000 0.5223
vn -0.8528 -0.0000 0.5222
vn 0.3572 0.9336 0.0294
vn 0.7914 0.6034 0.0981
vn 0.7908 0.6043 0.0969
vn 0.7914 0.6031 0.0994
vn 0.7919 0.6026 0.0991
vn 0.7701 0.5860 0.2521
vn 0.7344 0.5517 0.3953
vn -0.2000 -0.0000 0.9798
vn -0.1995 -0.0000 0.9799
vn 0.4775 0.8038 0.3549
vn 0.2647 0.2009 0.9432
vn 0.1844 0.1396 0.9729
vn 0.1850 0.1387 0.9729
vn 0.1848 0.1391 0.9729
vn 0.2773 0.2311 0.9326
vn 0.2776 0.2309 0.9325
vn 0.2779 0.2308 0.9325
vn -0.1985 -0.0000 0.9801
vn -0.1991 -0.0000 0.9800
vn 0.1616 0.0493 0.9856
vn 0.1679 0.1255 0.9778
vn 0.1679 0.1256 0.9778
vn 0.1325 0.1278 0.9829
vn 0.1326 0.1278 0.9829
vn -0.0000 -0.0000 1.0000
vn 0.0687 0.0498 0.9964
vn 0.0486 0.0345 0.9982
vn 0.0463 0.0324 0.9984
vn 0.0452 0.0318 0.9985
vn 0.0425 -0.0000 0.9991
vn 0.0508 0.0364 0.9980
vn 0.0461 0.0327 0.9984
s 1
f 1//1 2//1 6//1
f 1//1 6//1 3//1
f 1//2 3//2 7//2
f 1//2 7//2 13//2
f 1//2 13//2 8//2
f 1//2 8//2 4//2
f 1//3 4//4 9//4
f 1//3 9//4 14//5
f 1//3 14//5 19//6
f 1//3 19//6 24//7
f 1//3 24//7 27//8
f 1//3 27//8 21//4
f 1//3 21//4 16//4
f 1//3 16//4 10//4
f 1//3 10//4 5//4
f 1//3 5//4 2//4
f 2//9 5//9 11//9
f 2//9 11//9 6//9
f 3//10 6//11 11//11
f 3//10 11//11 17//11
f 3//10 17//11 22//11
f 3//10 22//11 26//11
f 3//10 26//11 20//12
f 3//10 20//12 18//13
f 3//10 18//13 12//11
f 3//10 12//11 7//11
f 4//14 8//14 9//14
f 5//15 10//16 17//15
f 5//15 17//15 11//15
f 7//17 12//17 13//17
f 8//18 13//19 12//20
f 8//18 12//20 9//21
f 9//22 12//22 15//22
f 9//23 15//23 14//23
f 10//24 16//25 17//24
f 12//26 18//26 15//26
f 14//27 15//27 20//27
f 14//28 20//29 19//30
f 15//31 18//32 20//33
f 16//25 21//34 22//35
f 16//25 22//35 17//24
f 19//36 23//36 24//36
f 19//37 20//38 25//38
f 19//37 25//38 23//37
f 20//39 26//40 25//40
f 21//41 27//41 29//41
f 21//41 29//41 26//41
f 21//41 26//41 22//41
f 23//42 25//42 24//42
f 24//43 28//44 29//45
f 24//46 29//46 27//46
f 24//43 25//47 26//48
f 24//43 26//48 28//44
f 26//48 29//45 28//44
