# Blender 4.4.3
# www.blender.org
o fixed_holes_collision_geom_4
v 0.035544 -0.019061 0.013264
v 0.035544 -0.038198 0.013286
v 0.035544 -0.019061 0.001976
v 0.031987 -0.019061 0.017734
v 0.035544 -0.038198 0.001976
v 0.032003 -0.038199 0.017734
v 0.033517 -0.038199 0.015319
v 0.003252 -0.019061 0.001976
v 0.003246 -0.019061 0.017734
v 0.003252 -0.038198 0.001976
v 0.003246 -0.038199 0.017734
v 0.003246 -0.038199 0.015319
v 0.003246 -0.019061 0.015319
vn 1.0000 -0.0000 -0.0000
vn -0.0000 1.0000 -0.0000
vn 0.7825 0.0007 0.6226
vn 0.7825 0.0007 0.6227
vn 0.7823 0.0006 0.6229
vn 0.0021 -1.0000 0.0011
vn 0.0016 -1.0000 0.0010
vn 0.0019 -1.0000 -0.0001
vn 0.0005 -1.0000 -0.0002
vn -0.0000 -0.0000 -1.0000
vn -0.0000 -0.0000 1.0000
vn -0.0000 -1.0000 -0.0000
vn -0.0000 -1.0000 -0.0001
vn -1.0000 -0.0000 -0.0004
vn -1.0000 -0.0000 -0.0002
vn -1.0000 -0.0000 -0.0000
s 1
f 1//1 2//1 5//1
f 1//1 5//1 3//1
f 1//2 3//2 8//2
f 1//2 8//2 13//2
f 1//2 13//2 9//2
f 1//2 9//2 4//2
f 1//3 4//4 2//5
f 2//5 4//4 6//5
f 2//6 6//7 7//8
f 2//6 7//8 5//9
f 3//10 5//10 10//10
f 3//10 10//10 8//10
f 4//11 9//11 11//11
f 4//11 11//11 6//11
f 5//9 7//8 12//12
f 5//9 12//12 10//13
f 6//7 11//12 12//12
f 6//7 12//12 7//8
f 8//14 10//14 12//15
f 8//14 12//15 13//15
f 9//16 13//15 12//15
f 9//16 12//15 11//16
