# Blender 4.4.3
# www.blender.org
o fixed_holes_collision_geom_39
v -0.065881 0.047371 0.007502
v -0.065881 0.047371 0.022307
v -0.065881 0.051394 0.007502
v -0.044599 0.047371 0.007502
v -0.065823 0.047371 0.022830
v -0.065881 0.051394 0.022307
v -0.051885 0.051394 0.007502
v -0.044599 0.049358 0.007502
v -0.044599 0.047371 0.023262
v -0.065612 0.047371 0.023177
v -0.065823 0.051394 0.022830
v -0.051885 0.051394 0.022299
v -0.044599 0.049358 0.022307
v -0.065198 0.047371 0.023262
v -0.044599 0.048797 0.023262
v -0.065612 0.051394 0.023177
v -0.051939 0.051394 0.022830
v -0.044599 0.049311 0.022830
v -0.065198 0.051394 0.023262
v -0.044599 0.049149 0.023177
v -0.052630 0.051394 0.023229
v -0.053154 0.051394 0.023259
v -0.052632 0.051178 0.023260
v -0.053677 0.051394 0.023262
v -0.052191 0.051394 0.023165
vn -1.0000 -0.0000 -0.0000
vn -0.0000 -0.0000 -1.0000
vn -0.0000 -1.0000 -0.0000
vn -0.9938 -0.0000 0.1108
vn -0.9939 -0.0000 0.1107
vn -0.0000 1.0000 -0.0000
vn 1.0000 -0.0000 -0.0000
vn -0.8551 -0.0000 0.5185
vn -0.8549 -0.0000 0.5187
vn -0.8549 -0.0000 0.5188
vn -0.8552 -0.0000 0.5183
vn 0.2692 0.9631 -0.0000
vn -0.0000 -0.0000 1.0000
vn -0.2004 -0.0000 0.9797
vn 0.2690 0.9627 0.0274
vn 0.2721 0.9584 0.0866
vn 0.0717 0.2337 0.9697
vn 0.0549 0.1819 0.9818
vn 0.0058 0.0204 0.9998
vn 0.0061 0.0227 0.9997
vn 0.0057 0.0204 0.9998
vn 0.0056 0.0202 0.9998
vn 0.2674 0.9423 0.2015
vn 0.2584 0.8763 0.4066
vn 0.2585 0.8763 0.4066
vn 0.1305 0.4465 0.8852
s 1
f 1//1 2//1 6//1
f 1//1 6//1 3//1
f 1//2 3//2 7//2
f 1//2 7//2 8//2
f 1//2 8//2 4//2
f 1//3 4//3 9//3
f 1//3 9//3 14//3
f 1//3 14//3 10//3
f 1//3 10//3 5//3
f 1//3 5//3 2//3
f 2//4 5//5 11//4
f 2//4 11//4 6//4
f 3//6 6//6 11//6
f 3//6 11//6 16//6
f 3//6 16//6 19//6
f 3//6 19//6 24//6
f 3//6 24//6 22//6
f 3//6 22//6 21//6
f 3//6 21//6 25//6
f 3//6 25//6 17//6
f 3//6 17//6 12//6
f 3//6 12//6 7//6
f 4//7 8//7 13//7
f 4//7 13//7 18//7
f 4//7 18//7 20//7
f 4//7 20//7 15//7
f 4//7 15//7 9//7
f 5//8 10//9 16//10
f 5//8 16//10 11//11
f 7//12 12//12 13//12
f 7//12 13//12 8//12
f 9//13 15//13 24//13
f 9//13 24//13 19//13
f 9//13 19//13 14//13
f 10//14 14//14 19//14
f 10//14 19//14 16//14
f 12//15 17//15 13//15
f 13//16 17//16 18//16
f 15//17 20//17 21//17
f 15//18 21//18 22//18
f 15//19 22//20 23//21
f 15//19 23//21 24//22
f 17//23 25//23 18//23
f 18//24 25//24 20//25
f 20//26 25//26 21//26
f 22//20 24//22 23//21
