# Blender 4.4.3
# www.blender.org
o fixed_holes_collision_geom_153
v 0.066457 -0.036687 0.021259
v 0.066457 -0.036687 0.018412
v 0.066286 -0.036687 0.022831
v 0.066457 -0.052129 0.021259
v 0.066457 -0.036691 0.018123
v 0.066428 -0.036687 0.018123
v 0.066050 -0.036687 0.023675
v 0.066286 -0.052129 0.022831
v 0.066457 -0.052129 0.018123
v 0.054376 -0.036687 0.018123
v 0.065198 -0.036687 0.023786
v 0.066050 -0.052129 0.023675
v 0.049408 -0.052129 0.018123
v 0.050114 -0.038474 0.018123
v 0.050168 -0.038474 0.021259
v 0.050204 -0.038504 0.022421
v 0.055837 -0.036687 0.022831
v 0.063626 -0.036687 0.023838
v 0.065198 -0.052129 0.023786
v 0.049735 -0.052129 0.021259
v 0.049452 -0.040705 0.018123
v 0.049704 -0.039276 0.018123
v 0.049937 -0.039276 0.021259
v 0.050114 -0.039249 0.022900
v 0.050231 -0.039706 0.023654
v 0.050695 -0.038754 0.023468
v 0.056305 -0.036687 0.023724
v 0.056195 -0.036687 0.023534
v 0.057343 -0.036687 0.023838
v 0.063626 -0.052129 0.023838
v 0.049937 -0.052129 0.022831
v 0.049979 -0.040705 0.022831
v 0.050211 -0.040705 0.023672
v 0.051061 -0.040705 0.023784
v 0.051155 -0.039249 0.023687
v 0.051741 -0.038556 0.023622
v 0.057092 -0.036687 0.023815
v 0.052631 -0.040705 0.023838
v 0.052631 -0.052129 0.023838
v 0.050204 -0.052129 0.023672
v 0.051061 -0.052129 0.023784
vn -0.0000 1.0000 -0.0000
vn 0.9942 -0.0000 0.1079
vn 1.0000 -0.0000 -0.0000
vn 1.0000 -0.0027 -0.0000
vn 0.1506 0.9885 -0.0157
vn 0.9629 -0.0000 0.2699
vn 0.9628 -0.0000 0.2703
vn 0.9627 -0.0000 0.2705
vn -0.0000 -1.0000 -0.0000
vn -0.0000 -0.0000 -1.0000
vn 0.1288 -0.0000 0.9917
vn -0.3867 0.9222 0.0067
vn -0.3683 0.9290 0.0352
vn -0.3119 0.9452 0.0968
vn 0.0329 -0.0000 0.9995
vn -0.9946 0.0038 0.1038
vn -0.9939 0.0053 0.1099
vn -0.9944 0.0043 0.1054
vn -0.8903 0.4552 0.0157
vn -0.9215 0.3865 0.0379
vn -0.9711 0.2273 0.0722
vn -0.9776 0.1839 0.1024
vn -0.9776 0.1838 0.1024
vn -0.8881 0.3193 0.3305
vn -0.7568 0.4598 0.4645
vn -0.3365 0.8679 0.3654
vn -0.3165 0.9306 0.1838
vn -0.3136 0.9360 0.1600
vn -0.0000 -0.0000 1.0000
vn -0.9918 0.0036 0.1274
vn -0.9938 0.0059 0.1113
vn -0.9822 0.1732 0.0730
vn -0.9900 0.0868 0.1109
vn -0.9888 0.1057 0.1049
vn -0.9764 0.0814 0.2001
vn -0.1293 0.0209 0.9914
vn -0.0704 0.0705 0.9950
vn -0.1358 0.2050 0.9693
vn -0.1359 0.2050 0.9693
vn -0.1915 0.2773 0.9415
vn -0.9637 0.0240 0.2659
vn -0.2166 0.4826 0.8487
vn -0.1129 0.2231 0.9682
vn -0.1130 0.2231 0.9682
vn -0.0853 0.1485 0.9852
vn -0.0854 0.1485 0.9852
vn -0.0530 0.0694 0.9962
vn -0.0344 0.0404 0.9986
vn -0.9531 0.0006 0.3025
vn -0.9641 0.0035 0.2657
vn -0.1293 0.0001 0.9916
vn -0.1286 0.0001 0.9917
vn -0.1287 0.0001 0.9917
vn -0.1283 -0.0000 0.9917
vn -0.0345 -0.0000 0.9994
vn -0.0955 0.1721 0.9804
s 1
f 1//1 2//1 6//1
f 1//1 6//1 10//1
f 1//1 10//1 17//1
f 1//1 17//1 28//1
f 1//1 28//1 27//1
f 1//1 27//1 37//1
f 1//1 37//1 29//1
f 1//1 29//1 18//1
f 1//1 18//1 11//1
f 1//1 11//1 7//1
f 1//1 7//1 3//1
f 1//2 3//2 8//2
f 1//2 8//2 4//2
f 1//3 4//3 9//3
f 1//3 9//3 5//3
f 1//3 5//3 2//4
f 2//5 5//5 6//5
f 3//6 7//6 12//7
f 3//6 12//7 8//8
f 4//9 8//9 12//9
f 4//9 12//9 19//9
f 4//9 19//9 30//9
f 4//9 30//9 39//9
f 4//9 39//9 41//9
f 4//9 41//9 40//9
f 4//9 40//9 31//9
f 4//9 31//9 20//9
f 4//9 20//9 13//9
f 4//9 13//9 9//9
f 5//10 9//10 13//10
f 5//10 13//10 21//10
f 5//10 21//10 22//10
f 5//10 22//10 14//10
f 5//10 14//10 10//10
f 5//10 10//10 6//10
f 7//11 11//11 19//11
f 7//11 19//11 12//11
f 10//12 14//12 15//12
f 10//13 15//13 16//13
f 10//14 16//14 17//14
f 11//15 18//15 30//15
f 11//15 30//15 19//15
f 13//16 20//17 21//18
f 14//19 22//19 15//19
f 15//20 22//20 16//20
f 16//21 22//21 23//21
f 16//22 23//22 24//23
f 16//24 24//24 25//24
f 16//25 25//25 26//25
f 16//26 26//26 27//26
f 16//27 27//27 28//27
f 16//28 28//28 17//28
f 18//29 29//29 38//29
f 18//29 38//29 39//29
f 18//29 39//29 30//29
f 20//30 31//30 32//30
f 20//17 32//31 21//18
f 21//32 23//32 22//32
f 21//33 32//33 24//33
f 21//34 24//34 23//34
f 24//35 32//35 25//35
f 25//36 33//36 34//36
f 25//37 34//37 35//37
f 25//38 35//38 36//39
f 25//40 36//40 26//40
f 25//41 32//41 33//41
f 26//42 36//42 27//42
f 27//43 36//44 37//44
f 29//45 37//45 35//46
f 29//47 35//47 34//47
f 29//48 34//48 38//48
f 31//49 40//49 33//49
f 31//50 33//50 32//50
f 33//51 40//52 34//53
f 34//53 40//52 41//54
f 34//55 41//55 39//55
f 34//55 39//55 38//55
f 35//56 37//56 36//56
