# Blender 4.4.3
# www.blender.org
o fixed_holes_collision_geom_78
v -0.010893 0.047370 0.019556
v -0.010745 0.047369 0.019397
v -0.010968 0.047370 0.019397
v -0.011828 0.047370 0.022828
v -0.010745 0.033082 0.019397
v -0.011828 0.047369 0.022831
v -0.034395 0.047370 0.019397
v -0.011950 0.047370 0.023173
v -0.010895 0.033075 0.019557
v -0.011404 0.033075 0.019397
v -0.011828 0.033075 0.022831
v -0.034395 0.042412 0.019397
v -0.034395 0.047370 0.020915
v -0.012307 0.047370 0.023259
v -0.011952 0.047369 0.023174
v -0.011952 0.033075 0.023174
v -0.031953 0.033075 0.019397
v -0.034395 0.041627 0.019679
v -0.034391 0.041623 0.019397
v -0.034395 0.047369 0.023262
v -0.034300 0.047370 0.023262
v -0.012830 0.047370 0.023262
v -0.012307 0.033075 0.023259
v -0.032157 0.033075 0.019689
v -0.032157 0.033081 0.019397
v -0.034395 0.041627 0.022297
v -0.034395 0.043084 0.023262
v -0.012830 0.033075 0.023262
v -0.032157 0.033075 0.022308
v -0.034395 0.041652 0.022831
v -0.034395 0.042602 0.023250
v -0.034300 0.042607 0.023262
v -0.031156 0.033075 0.023262
v -0.032131 0.033075 0.022831
v -0.034395 0.041774 0.023132
v -0.034395 0.042132 0.023203
v -0.032025 0.033075 0.023166
v -0.031682 0.033075 0.023250
vn -0.0009 1.0000 0.0004
vn 0.0064 1.0000 -0.0031
vn 0.0055 1.0000 -0.0026
vn -0.0000 1.0000 -0.0000
vn 0.0141 0.9999 0.0040
vn -0.0000 -0.0000 -1.0000
vn 0.8261 0.5002 0.2597
vn 0.8251 0.5003 0.2624
vn 0.8255 0.5005 0.2609
vn 0.9537 -0.0000 0.3007
vn 0.9536 -0.0000 0.3010
vn 0.7922 0.5392 0.2859
vn 0.7936 0.5390 0.2824
vn 0.7928 0.5391 0.2843
vn 0.0105 -0.9994 -0.0332
vn 0.0661 -0.9976 0.0189
vn 0.9412 -0.0000 0.3379
vn 0.9402 -0.0001 0.3407
vn 0.9408 -0.0000 0.3390
vn -1.0000 -0.0000 -0.0000
vn -1.0000 0.0090 -0.0000
vn 0.1958 0.5500 0.8119
vn 0.1952 0.5500 0.8120
vn 0.1965 0.5500 0.8117
vn 0.5486 -0.0012 0.8361
vn 0.5486 -0.0032 0.8361
vn 0.5486 -0.0000 0.8361
vn 0.9398 -0.0001 0.3418
vn -0.0000 -1.0000 -0.0000
vn -0.0000 -1.0000 -0.0001
vn -0.9999 -0.0058 -0.0161
vn -0.0152 0.9999 0.0007
vn 0.0058 -0.0000 1.0000
vn 0.0003 -0.0000 1.0000
vn 0.0004 -0.0000 1.0000
vn 0.2318 -0.0000 0.9728
vn 0.2317 -0.0000 0.9728
vn -0.0269 -0.9995 -0.0188
vn -0.9674 -0.2533 -0.0008
vn -0.9674 -0.2530 -0.0120
vn -0.9674 -0.2531 -0.0103
vn -0.9674 -0.2533 -0.0003
vn -0.9674 -0.2533 0.0071
vn -0.9674 -0.2532 0.0059
vn -0.0000 -0.0000 1.0000
vn -0.9673 -0.2532 0.0117
vn -0.1212 -0.0243 0.9923
vn -0.1221 -0.0334 0.9920
vn -0.1217 -0.0253 0.9922
vn -0.9658 -0.2550 0.0471
vn -0.9618 -0.2539 0.1026
vn -0.3390 -0.0927 0.9362
vn -0.3391 -0.0927 0.9362
vn -0.2386 -0.0680 0.9687
vn -0.1206 -0.0343 0.9921
vn -0.0224 -0.0074 0.9997
vn -0.9227 -0.2503 0.2933
vn -0.5927 -0.1585 0.7897
s 1
f 1//1 2//2 3//3
f 1//1 3//3 7//4
f 1//1 7//4 13//4
f 1//1 13//4 21//4
f 1//1 21//4 22//4
f 1//1 22//4 14//4
f 1//1 14//4 8//4
f 1//1 8//4 4//4
f 1//5 4//5 2//5
f 2//6 5//6 10//6
f 2//6 10//6 17//6
f 2//6 17//6 25//6
f 2//6 25//6 19//6
f 2//6 19//6 12//6
f 2//6 12//6 7//6
f 2//6 7//6 3//6
f 2//7 4//8 6//9
f 2//10 6//11 11//10
f 2//10 11//10 5//10
f 4//12 8//13 6//14
f 5//15 9//15 10//15
f 5//16 11//16 9//16
f 6//17 8//18 11//19
f 7//20 12//20 18//20
f 7//20 18//20 26//20
f 7//20 26//20 30//20
f 7//20 30//20 35//20
f 7//20 35//20 36//20
f 7//20 36//20 31//20
f 7//20 31//20 27//20
f 7//20 27//20 20//20
f 7//20 20//20 13//21
f 8//22 14//23 15//24
f 8//25 15//26 16//27
f 8//18 16//28 11//19
f 9//29 11//30 16//29
f 9//29 16//29 23//29
f 9//29 23//29 28//29
f 9//29 28//29 33//29
f 9//29 33//29 38//29
f 9//29 38//29 37//29
f 9//29 37//29 34//29
f 9//29 34//29 29//29
f 9//29 29//29 24//29
f 9//29 24//29 17//29
f 9//29 17//29 10//29
f 12//31 19//31 18//31
f 13//32 20//32 21//32
f 14//33 22//34 28//35
f 14//33 28//35 23//33
f 14//36 23//37 16//37
f 14//36 16//37 15//36
f 17//38 24//38 25//38
f 18//39 19//40 25//41
f 18//39 25//41 24//42
f 18//39 24//42 29//43
f 18//39 29//43 26//44
f 20//45 27//45 32//45
f 20//45 32//45 33//45
f 20//45 33//45 28//35
f 20//45 28//35 22//34
f 20//45 22//34 21//45
f 26//44 29//43 30//46
f 27//47 31//48 32//49
f 29//50 34//50 30//50
f 30//51 34//51 35//51
f 31//52 36//52 37//53
f 31//54 37//54 38//54
f 31//48 38//55 32//49
f 32//56 38//56 33//56
f 34//57 37//57 35//57
f 35//58 37//58 36//58
