# Blender 4.4.3
# www.blender.org
o fixed_holes_collision_geom_14
v 0.054016 0.135214 0.017269
v 0.055512 0.135214 0.022307
v 0.065601 0.135214 0.017269
v 0.054043 0.124775 0.016032
v 0.054041 0.115554 0.016032
v 0.055783 0.135214 0.022817
v 0.056314 0.115449 0.022830
v 0.056460 0.115449 0.023175
v 0.065601 0.135214 0.022307
v 0.065637 0.134966 0.022307
v 0.065801 0.133832 0.017269
v 0.065880 0.124769 0.016032
v 0.065844 0.124775 0.016032
v 0.065880 0.115554 0.016032
v 0.055633 0.115449 0.019240
v 0.056066 0.135214 0.023047
v 0.056821 0.115449 0.023260
v 0.056321 0.135214 0.023186
v 0.065582 0.135214 0.022830
v 0.065841 0.133538 0.022307
v 0.065841 0.133538 0.017269
v 0.065857 0.133358 0.017269
v 0.065879 0.133060 0.017269
v 0.065880 0.132880 0.017269
v 0.065881 0.132584 0.017269
v 0.065881 0.124775 0.017269
v 0.065881 0.115449 0.019240
v 0.057345 0.115449 0.023261
v 0.057343 0.124775 0.023262
v 0.056821 0.124775 0.023261
v 0.056821 0.135214 0.023261
v 0.065511 0.135214 0.023145
v 0.065617 0.134966 0.022830
v 0.065788 0.133538 0.022830
v 0.065879 0.133060 0.022307
v 0.065674 0.134488 0.022830
v 0.065881 0.132584 0.022307
v 0.065881 0.115449 0.022305
v 0.065196 0.115449 0.023261
v 0.065196 0.124775 0.023262
v 0.057343 0.135214 0.023262
v 0.065196 0.135214 0.023229
v 0.065527 0.134966 0.023157
v 0.065821 0.133060 0.022830
v 0.065881 0.115925 0.022307
v 0.065821 0.115449 0.022829
v 0.065612 0.115449 0.023175
v 0.065612 0.115925 0.023176
v 0.065442 0.124775 0.023212
v 0.065196 0.133538 0.023262
v 0.064673 0.135214 0.023262
v 0.065196 0.134966 0.023242
v 0.065551 0.134488 0.023173
v 0.065598 0.133538 0.023176
v 0.065611 0.133060 0.023176
v 0.065612 0.132584 0.023176
v 0.065737 0.124775 0.022973
v 0.065821 0.115925 0.022830
v 0.065196 0.134012 0.023261
v 0.065196 0.134488 0.023258
v 0.065572 0.134012 0.023176
vn -0.0000 1.0000 -0.0000
vn -0.0000 0.1177 -0.9931
vn -0.9997 0.0002 -0.0236
vn -0.9584 -0.0191 0.2846
vn -0.9481 -0.0301 0.3165
vn -0.9206 -0.0270 0.3896
vn -0.8836 -0.0218 0.4677
vn 0.9896 0.1436 -0.0001
vn 0.9896 0.1436 -0.0000
vn 0.9897 0.1430 0.0001
vn 0.9899 0.1418 0.0001
vn 0.7050 0.1020 -0.7019
vn 0.0191 0.1181 -0.9928
vn -0.0000 -0.0000 -1.0000
vn -0.0000 -0.9995 -0.0327
vn -0.0000 -0.9995 -0.0323
vn -0.1054 -0.9942 0.0199
vn -0.6294 -0.0075 0.7771
vn -0.0000 -1.0000 -0.0000
vn -0.0000 -1.0000 0.0001
vn -0.2272 -0.0021 0.9739
vn -0.4794 -0.0024 0.8776
vn -0.4807 -0.0038 0.8769
vn -0.4807 -0.0039 0.8769
vn 0.9890 0.1436 0.0351
vn 0.9891 0.1430 0.0358
vn 0.9891 0.1431 0.0358
vn 0.9893 0.1416 0.0362
vn 0.9903 0.1386 0.0001
vn 0.9906 0.1366 -0.0000
vn 0.7219 0.0998 -0.6847
vn 0.8689 0.0728 -0.4896
vn 0.8689 0.0729 -0.4896
vn 0.8940 0.0662 -0.4431
vn 0.9991 0.0065 -0.0423
vn 0.9997 0.0038 -0.0255
vn 0.9997 0.0039 -0.0255
vn 1.0000 -0.0000 -0.0010
vn 1.0000 0.0001 -0.0002
vn 1.0000 -0.0000 -0.0005
vn 1.0000 -0.0001 -0.0004
vn 1.0000 -0.0000 -0.0002
vn -0.0017 -0.0001 1.0000
vn -0.0003 -0.0001 1.0000
vn -0.0011 -0.0001 1.0000
vn -0.0023 -0.0001 1.0000
vn -0.1484 -0.0001 0.9889
vn -0.1476 -0.0001 0.9891
vn -0.1475 -0.0001 0.9891
vn -0.1470 -0.0000 0.9891
vn 0.9664 0.1317 0.2209
vn 0.9664 0.1317 0.2208
vn 0.9892 0.1346 0.0587
vn 0.9892 0.1345 0.0587
vn 0.9919 0.0773 0.1011
vn 0.9919 0.0763 0.1018
vn 0.9919 0.0769 0.1012
vn 0.9966 0.0819 -0.0000
vn 0.9972 0.0754 0.0001
vn 0.9971 0.0759 0.0002
vn 0.9965 0.0837 -0.0000
vn 0.9879 0.1199 0.0983
vn 0.9879 0.1200 0.0978
vn 0.9878 0.1190 0.1006
vn 0.9878 0.1184 0.1007
vn 0.9972 0.0742 -0.0000
vn 1.0000 0.0066 -0.0000
vn 1.0000 0.0058 -0.0000
vn 1.0000 0.0044 0.0002
vn 1.0000 0.0044 0.0001
vn 1.0000 -0.0000 -0.0000
vn -0.0000 -0.0001 1.0000
vn 0.0032 0.0010 1.0000
vn 0.0029 0.0009 1.0000
vn -0.0024 -0.0000 1.0000
vn -0.0026 -0.0000 1.0000
vn 0.2580 0.0666 0.9638
vn 0.2581 0.0666 0.9638
vn 0.9199 0.0802 0.3840
vn 0.9653 0.1164 0.2337
vn 0.9650 0.1156 0.2354
vn 0.9655 0.1169 0.2325
vn 0.9656 0.1173 0.2319
vn 0.9917 0.0699 0.1077
vn 0.8961 0.0632 0.4394
vn 0.8961 0.0631 0.4394
vn 0.9941 0.0048 0.1081
vn 0.9941 0.0022 0.1084
vn 0.9940 0.0019 0.1093
vn 0.9937 -0.0002 0.1124
vn 0.9937 -0.0002 0.1123
vn 0.9937 -0.0003 0.1124
vn 0.9937 -0.0004 0.1123
vn 0.1997 -0.0007 0.9799
vn 0.2008 -0.0016 0.9796
vn 0.2026 0.0001 0.9793
vn 0.1997 -0.0001 0.9799
vn 0.2006 -0.0000 0.9797
vn 0.2018 0.0005 0.9794
vn 0.0621 0.0513 0.9968
vn 0.2463 0.0498 0.9679
vn 0.2451 0.0453 0.9684
vn 0.2446 0.0466 0.9685
vn 0.2464 0.0427 0.9682
vn 0.8889 0.0594 0.4543
vn 0.8889 0.0595 0.4543
vn 0.8653 0.0442 0.4994
vn 0.8652 0.0443 0.4994
vn 0.8532 0.0229 0.5211
vn 0.8573 -0.0000 0.5148
vn 0.8534 0.0021 0.5212
vn 0.8528 0.0008 0.5222
vn 0.8532 0.0001 0.5215
vn 0.8573 -0.0003 0.5148
vn 0.8552 -0.0015 0.5183
vn 0.8549 -0.0012 0.5188
vn 0.8532 -0.0002 0.5216
vn 0.2037 0.0005 0.9790
vn 0.2031 0.0011 0.9792
vn 0.2039 0.0015 0.9790
vn 0.0048 0.0016 1.0000
vn 0.0218 0.0089 0.9997
vn 0.0219 0.0088 0.9997
vn 0.0526 0.0311 0.9981
vn 0.2305 0.0303 0.9726
vn 0.2282 0.0215 0.9734
vn 0.2270 0.0251 0.9736
vn 0.2306 0.0173 0.9729
vn 0.5957 0.0322 0.8026
vn 0.2204 0.0101 0.9754
vn 0.2167 0.0078 0.9762
vn 0.2131 0.0058 0.9770
vn 0.2243 0.0121 0.9744
vn 0.2224 0.0125 0.9749
s 1
f 1//1 2//1 6//1
f 1//1 6//1 16//1
f 1//1 16//1 18//1
f 1//1 18//1 31//1
f 1//1 31//1 41//1
f 1//1 41//1 51//1
f 1//1 51//1 42//1
f 1//1 42//1 32//1
f 1//1 32//1 19//1
f 1//1 19//1 9//1
f 1//1 9//1 3//1
f 1//2 3//2 13//2
f 1//2 13//2 4//2
f 1//3 4//3 5//3
f 1//4 5//4 2//4
f 2//5 5//5 7//5
f 2//6 7//6 8//6
f 2//7 8//7 6//7
f 3//8 9//9 10//10
f 3//8 10//10 11//11
f 3//12 11//12 12//12
f 3//13 12//13 13//13
f 4//14 13//14 12//14
f 4//14 12//14 14//14
f 4//14 14//14 5//14
f 5//15 14//15 27//16
f 5//15 27//16 15//16
f 5//17 15//17 7//17
f 6//18 8//18 16//18
f 7//19 15//19 27//19
f 7//19 27//19 38//19
f 7//19 38//19 46//19
f 7//19 46//19 47//19
f 7//19 47//19 39//19
f 7//19 39//19 28//19
f 7//19 28//19 17//19
f 7//19 17//19 8//20
f 8//21 17//21 18//21
f 8//22 18//23 16//24
f 9//25 19//26 10//27
f 10//27 19//26 20//28
f 10//10 20//29 11//11
f 11//11 20//29 21//30
f 11//31 21//31 12//31
f 12//32 21//33 22//33
f 12//34 22//34 23//34
f 12//35 23//35 24//35
f 12//36 24//37 25//37
f 12//38 25//39 26//40
f 12//38 26//40 14//41
f 14//41 26//40 27//42
f 17//43 28//44 29//45
f 17//43 29//45 30//46
f 17//47 30//48 18//49
f 18//49 30//48 31//50
f 19//51 32//52 33//52
f 19//53 33//53 20//54
f 20//55 34//56 35//57
f 20//58 35//59 22//60
f 20//58 22//60 21//61
f 20//62 33//63 36//64
f 20//62 36//64 34//65
f 22//60 35//59 23//66
f 23//67 35//68 24//69
f 24//69 37//70 25//39
f 24//69 35//68 37//70
f 25//39 37//70 45//71
f 25//39 45//71 38//71
f 25//39 38//71 27//42
f 25//39 27//42 26//40
f 28//44 39//72 40//72
f 28//44 40//72 29//45
f 29//45 40//72 50//73
f 29//45 50//73 51//74
f 29//45 51//74 41//75
f 29//45 41//75 31//76
f 29//45 31//76 30//46
f 32//77 42//77 43//78
f 32//79 43//79 34//79
f 32//80 34//81 36//82
f 32//80 36//82 33//83
f 34//56 44//84 35//57
f 34//85 43//85 44//86
f 35//87 44//88 37//89
f 37//89 44//88 58//90
f 37//89 58//90 45//91
f 38//92 45//91 58//90
f 38//92 58//90 46//93
f 39//94 47//95 48//96
f 39//94 48//96 40//97
f 40//97 49//98 50//99
f 40//97 48//96 49//98
f 42//100 51//100 52//100
f 42//101 52//102 43//103
f 43//103 52//102 53//104
f 43//105 53//105 44//106
f 44//107 53//108 54//107
f 44//109 54//109 55//109
f 44//110 55//111 56//112
f 44//110 56//112 57//113
f 44//110 57//113 58//114
f 46//115 58//114 47//116
f 47//116 58//114 48//117
f 48//117 58//114 57//113
f 48//117 57//113 56//112
f 48//96 56//118 49//98
f 49//98 56//118 50//99
f 50//99 56//118 55//119
f 50//99 55//119 59//120
f 50//73 59//121 51//74
f 51//122 59//123 60//123
f 51//124 60//124 52//124
f 52//125 60//126 53//127
f 53//127 60//126 61//128
f 53//129 61//129 54//129
f 54//130 59//131 55//132
f 54//130 61//133 60//134
f 54//130 60//134 59//131
