# Blender 4.4.3
# www.blender.org
o fixed_holes_collision_geom_92
v 0.065195 0.025473 0.023262
v 0.065611 0.025469 0.023176
v 0.065613 0.025473 0.023173
v 0.054202 0.025473 0.023262
v 0.065195 0.000950 0.023262
v 0.065823 0.025469 0.022829
v 0.065611 0.000950 0.023176
v 0.065823 0.025473 0.022824
v 0.053679 0.025473 0.023214
v 0.051061 0.024516 0.023214
v 0.051061 0.024039 0.023262
v 0.057345 0.000950 0.023262
v 0.065881 0.025469 0.022305
v 0.065823 0.000950 0.022829
v 0.065881 0.025473 0.022302
v 0.053382 0.025473 0.023128
v 0.050750 0.024776 0.023116
v 0.050689 0.024516 0.023154
v 0.050651 0.024039 0.023176
v 0.050312 0.008809 0.023262
v 0.056821 0.000950 0.023260
v 0.050312 0.001668 0.023262
v 0.065881 0.000950 0.022305
v 0.065881 0.025473 0.003452
v 0.050343 0.025473 0.016218
v 0.050312 0.025469 0.016191
v 0.050712 0.024792 0.022829
v 0.050533 0.024516 0.022829
v 0.050445 0.024039 0.022829
v 0.050387 0.024039 0.022305
v 0.050312 0.009088 0.023222
v 0.050312 0.001192 0.023179
v 0.050312 0.001089 0.023141
v 0.050312 0.000952 0.023092
v 0.050537 0.000950 0.023089
v 0.065881 0.000950 0.002933
v 0.065881 0.025469 0.002933
v 0.065879 0.025473 0.002928
v 0.050312 0.025473 0.015321
v 0.050312 0.024956 0.016497
v 0.050490 0.024516 0.022305
v 0.050312 0.024516 0.016703
v 0.050312 0.009244 0.023185
v 0.050312 0.000950 0.022887
v 0.065823 0.000950 0.002409
v 0.065823 0.025469 0.002409
v 0.065820 0.025473 0.002406
v 0.050312 0.025473 0.002941
v 0.050312 0.000950 0.001976
v 0.065611 0.000950 0.002064
v 0.065611 0.025469 0.002064
v 0.065607 0.025473 0.002062
v 0.050532 0.025473 0.001976
v 0.050312 0.025469 0.001976
v 0.065195 0.000950 0.001976
v 0.065191 0.025473 0.001976
v 0.065195 0.025469 0.001976
vn 0.1657 0.6130 0.7725
vn 0.1669 0.6130 0.7723
vn 0.1662 0.6130 0.7724
vn -0.0000 1.0000 -0.0000
vn -0.0000 -0.0000 1.0000
vn 0.2011 -0.0000 0.9796
vn 0.8482 0.1540 0.5068
vn 0.8439 0.1543 0.5138
vn 0.8459 0.1541 0.5106
vn 0.8541 -0.0000 0.5200
vn 0.8542 -0.0000 0.5200
vn 0.7791 0.4142 0.4706
vn 0.7784 0.4142 0.4717
vn 0.7775 0.4142 0.4731
vn -0.0886 0.2424 0.9661
vn -0.0915 0.2500 0.9639
vn -0.0895 0.2455 0.9653
vn -0.0456 0.0997 0.9940
vn -0.0000 -1.0000 -0.0000
vn 0.9893 0.0966 0.1098
vn 0.9896 0.0933 0.1096
vn 0.9895 0.0939 0.1095
vn 0.9892 0.0971 0.1102
vn 0.9939 -0.0000 0.1101
vn -0.1930 0.7153 0.6717
vn -0.0925 0.2527 0.9631
vn -0.1577 0.1777 0.9714
vn -0.1596 0.0986 0.9822
vn -0.1595 0.0986 0.9823
vn -0.2040 0.0100 0.9789
vn -0.2036 0.0631 0.9770
vn -0.2036 0.0630 0.9770
vn -0.0040 -0.0394 0.9992
vn 1.0000 0.0011 -0.0000
vn 1.0000 -0.0000 -0.0000
vn 1.0000 0.0009 -0.0000
vn 1.0000 -0.0020 -0.0000
vn 1.0000 0.0018 -0.0000
vn -0.2508 0.9617 0.1103
vn -0.2519 0.9614 0.1107
vn -0.2541 0.9607 0.1118
vn -0.2555 0.9602 0.1124
vn -0.5109 0.8516 0.1177
vn -0.5109 0.8516 0.1176
vn -0.8315 0.5371 0.1416
vn -0.8315 0.5372 0.1416
vn -0.8699 0.2650 0.4160
vn -0.8898 0.1646 0.4256
vn -0.8570 0.0926 0.5069
vn -0.8571 0.0925 0.5068
vn -0.8606 0.0220 0.5089
vn -0.9939 0.0118 0.1099
vn -0.9981 0.0088 0.0615
vn -1.0000 -0.0000 -0.0000
vn -1.0000 0.0001 -0.0000
vn -0.0189 -0.1724 0.9849
vn -0.0188 -0.1724 0.9849
vn -0.0244 -0.3425 0.9392
vn -0.0245 -0.3415 0.9395
vn -0.0244 -0.3427 0.9391
vn -0.0245 -0.3429 0.9391
vn -0.0078 -0.9577 0.2876
vn 0.9503 0.3114 -0.0029
vn 0.9503 0.3114 -0.0002
vn 0.9502 0.3115 0.0031
vn -0.1626 0.9867 0.0055
vn -0.9999 0.0085 0.0143
vn -0.9999 0.0070 0.0139
vn -0.9998 0.0076 0.0209
vn -0.9761 0.2087 0.0608
vn -0.9391 0.3345 0.0792
vn -0.9391 0.3345 0.0793
vn -0.8353 0.5396 0.1052
vn -0.9746 0.2083 0.0824
vn -0.9746 0.2084 0.0824
vn -0.9775 0.1809 0.1083
vn -0.9999 0.0061 0.0138
vn -0.9998 0.0058 0.0174
vn -0.9996 0.0067 0.0280
vn -0.0109 -0.9999 0.0120
vn 0.9939 -0.0000 -0.1101
vn 0.9674 0.2303 -0.1051
vn 0.9672 0.2302 -0.1073
vn 0.9677 0.2302 -0.1026
vn 0.8795 0.4654 -0.0998
vn 0.8793 0.4654 -0.1015
vn 0.8794 0.4654 -0.1005
vn 0.8528 -0.0000 -0.5223
vn 0.8491 0.0835 -0.5215
vn 0.8502 0.0834 -0.5198
vn 0.8497 0.0835 -0.5206
vn 0.7380 0.4951 -0.4586
vn 0.7361 0.4950 -0.4617
vn 0.7371 0.4952 -0.4599
vn -0.0222 0.9997 -0.0051
vn -0.0000 -0.0000 -1.0000
vn 0.2058 -0.0000 -0.9786
vn 0.2044 -0.0000 -0.9789
vn 0.2054 -0.0000 -0.9787
vn 0.4148 -0.0000 -0.9099
vn 0.4148 -0.0022 -0.9099
vn 0.4149 -0.0050 -0.9099
vn 0.2033 -0.0000 -0.9791
vn 0.1973 0.1907 -0.9616
vn 0.1978 0.1907 -0.9615
vn 0.1984 0.1907 -0.9614
s 1
f 1//1 2//2 3//3
f 1//4 3//4 8//4
f 1//4 8//4 15//4
f 1//4 15//4 24//4
f 1//4 24//4 38//4
f 1//4 38//4 47//4
f 1//4 47//4 52//4
f 1//4 52//4 56//4
f 1//4 56//4 53//4
f 1//4 53//4 48//4
f 1//4 48//4 39//4
f 1//4 39//4 25//4
f 1//4 25//4 16//4
f 1//4 16//4 9//4
f 1//4 9//4 4//4
f 1//5 4//5 11//5
f 1//5 11//5 20//5
f 1//5 20//5 22//5
f 1//5 22//5 12//5
f 1//5 12//5 5//5
f 1//6 5//6 7//6
f 1//6 7//6 2//6
f 2//7 6//8 3//9
f 2//10 7//10 14//11
f 2//10 14//11 6//10
f 3//12 6//13 8//14
f 4//15 9//16 10//17
f 4//18 10//18 11//18
f 5//19 12//19 21//19
f 5//19 21//19 35//19
f 5//19 35//19 44//19
f 5//19 44//19 49//19
f 5//19 49//19 55//19
f 5//19 55//19 50//19
f 5//19 50//19 45//19
f 5//19 45//19 36//19
f 5//19 36//19 23//19
f 5//19 23//19 14//19
f 5//19 14//19 7//19
f 6//20 13//21 15//22
f 6//20 15//22 8//23
f 6//24 14//24 23//24
f 6//24 23//24 13//24
f 9//25 16//25 17//25
f 9//16 17//26 10//17
f 10//27 17//27 18//27
f 10//28 18//29 11//29
f 11//30 19//30 20//30
f 11//31 18//31 19//32
f 12//33 22//33 21//33
f 13//34 23//35 36//35
f 13//34 36//35 37//36
f 13//34 37//36 24//37
f 13//34 24//37 15//38
f 16//39 25//40 26//41
f 16//39 26//41 17//42
f 17//43 26//44 27//43
f 17//45 27//46 28//45
f 17//47 28//47 18//47
f 18//48 28//48 29//48
f 18//49 29//49 19//50
f 19//51 29//51 20//51
f 20//52 29//52 30//52
f 20//53 30//53 31//53
f 20//54 31//55 43//54
f 20//54 43//54 42//55
f 20//54 42//55 40//54
f 20//54 40//54 26//54
f 20//54 26//54 39//54
f 20//54 39//54 48//54
f 20//54 48//54 54//54
f 20//54 54//54 49//54
f 20//54 49//54 44//54
f 20//54 44//54 34//54
f 20//54 34//54 33//54
f 20//54 33//54 32//54
f 20//54 32//54 22//54
f 21//56 22//57 32//57
f 21//58 32//59 33//60
f 21//58 33//60 34//61
f 21//62 34//62 35//62
f 24//63 37//64 38//65
f 25//66 39//66 26//66
f 26//67 40//68 30//69
f 26//70 30//70 41//70
f 26//71 41//72 28//72
f 26//73 28//73 27//73
f 28//74 41//75 30//74
f 28//76 30//76 29//76
f 30//69 40//68 42//77
f 30//69 42//77 43//78
f 30//69 43//78 31//79
f 34//80 44//80 35//80
f 36//81 45//81 46//81
f 36//81 46//81 37//81
f 37//82 46//83 38//84
f 38//85 46//86 47//87
f 45//88 50//88 51//88
f 45//88 51//88 46//88
f 46//89 51//90 47//91
f 47//92 51//93 52//94
f 48//95 53//95 54//95
f 49//96 54//96 53//96
f 49//96 53//96 56//96
f 49//96 56//96 57//96
f 49//96 57//96 55//96
f 50//97 55//98 52//99
f 50//100 52//101 51//102
f 52//99 55//98 57//103
f 52//104 57//105 56//106
