# Blender 4.4.3
# www.blender.org
o fixed_holes_collision_geom_45
v -0.018725 -0.088827 0.015102
v -0.019450 -0.088827 0.022820
v -0.018785 -0.089263 0.015102
v -0.065881 -0.088827 0.015102
v -0.019662 -0.088827 0.023161
v -0.019847 -0.090220 0.023155
v -0.019888 -0.090604 0.023122
v -0.019921 -0.090923 0.023047
v -0.019837 -0.094020 0.015102
v -0.024384 -0.111412 0.022829
v -0.065881 -0.111412 0.015102
v -0.065881 -0.088827 0.016693
v -0.019722 -0.088827 0.023175
v -0.020174 -0.089742 0.023258
v -0.019810 -0.089742 0.023174
v -0.024518 -0.111412 0.023175
v -0.024449 -0.111412 0.023009
v -0.020363 -0.096396 0.015102
v -0.024365 -0.111412 0.022580
v -0.023493 -0.110207 0.015102
v -0.065881 -0.111412 0.022307
v -0.023923 -0.111412 0.015102
v -0.065881 -0.108496 0.022307
v -0.065877 -0.088827 0.022307
v -0.020174 -0.088827 0.023261
v -0.020174 -0.089267 0.023261
v -0.020174 -0.090220 0.023239
v -0.024883 -0.111412 0.023259
v -0.024703 -0.111412 0.023219
v -0.024347 -0.111412 0.022307
v -0.065821 -0.111412 0.022829
v -0.065821 -0.108496 0.022829
v -0.065817 -0.088827 0.022829
v -0.065188 -0.088827 0.023261
v -0.024883 -0.110684 0.023261
v -0.024883 -0.111159 0.023260
v -0.025155 -0.111412 0.023260
v -0.065604 -0.111412 0.023176
v -0.065692 -0.108496 0.023036
v -0.065604 -0.088827 0.023175
v -0.065193 -0.108496 0.023261
v -0.025404 -0.111412 0.023261
v -0.065193 -0.111412 0.023261
v -0.065604 -0.108496 0.023176
vn 0.9864 -0.1360 0.0927
vn -0.0000 -0.0000 -1.0000
vn 0.0001 -0.0000 -1.0000
vn -0.0000 1.0000 -0.0000
vn 0.8438 -0.1143 0.5243
vn 0.8708 -0.1344 0.4729
vn 0.9276 -0.1723 0.3316
vn 0.9275 -0.1724 0.3316
vn 0.9275 -0.1725 0.3316
vn 0.9734 -0.2083 0.0956
vn 0.9733 -0.2088 0.0956
vn 0.9734 -0.2111 0.0894
vn 0.9725 -0.2147 0.0902
vn 0.9726 -0.2154 0.0876
vn -1.0000 -0.0000 -0.0000
vn -1.0000 0.0001 0.0005
vn -1.0000 0.0001 0.0003
vn 0.2227 -0.0219 0.9746
vn 0.2210 -0.0208 0.9750
vn 0.2250 -0.0234 0.9741
vn 0.2282 -0.0344 0.9730
vn 0.5214 -0.0730 0.8502
vn 0.2648 -0.0575 0.9626
vn 0.6029 -0.1322 0.7868
vn 0.8749 -0.1936 0.4439
vn 0.8749 -0.1935 0.4439
vn 0.9038 -0.2004 0.3782
vn 0.9216 -0.2043 0.3299
vn 0.9724 -0.2190 0.0801
vn -0.0000 -1.0000 -0.0000
vn -0.0000 -1.0000 -0.0004
vn -0.0000 -1.0000 0.0002
vn 0.9642 -0.2554 0.0712
vn 0.9642 -0.2554 0.0713
vn 0.9723 -0.2203 0.0778
vn -1.0000 0.0002 0.0008
vn 0.1927 -0.0050 0.9812
vn 0.1874 -0.0000 0.9823
vn 0.1887 -0.0015 0.9820
vn 0.1935 -0.0068 0.9811
vn 0.2259 -0.0390 0.9734
vn 0.0311 -0.0067 0.9995
vn 0.0301 -0.0065 0.9995
vn 0.0299 -0.0065 0.9995
vn 0.1817 -0.0394 0.9826
vn 0.1817 -0.0395 0.9826
vn 0.2429 -0.0527 0.9686
vn 0.2341 -0.0508 0.9709
vn 0.2390 -0.0518 0.9696
vn 0.2311 -0.0502 0.9716
vn 0.9543 -0.2918 0.0644
vn 0.9543 -0.2918 0.0645
vn 0.9543 -0.2917 0.0644
vn 0.9406 -0.3350 0.0554
vn -0.9935 -0.0000 0.1138
vn -0.9935 -0.0000 0.1141
vn -0.9935 0.0001 0.1141
vn -0.9935 0.0002 0.1141
vn -0.0000 -0.0000 1.0000
vn 0.0012 -0.0011 1.0000
vn 0.0012 -0.0006 1.0000
vn 0.0054 -0.0011 1.0000
vn 0.0071 -0.0035 1.0000
vn 0.0290 -0.0062 0.9996
vn 0.2164 -0.0472 0.9752
vn 0.0059 -0.0061 1.0000
vn 0.0046 -0.0050 1.0000
vn -0.8485 -0.0001 0.5292
vn -0.8461 -0.0001 0.5331
vn -0.8506 0.0001 0.5259
vn -0.8478 0.0001 0.5303
vn -0.8522 0.0002 0.5232
vn -0.2032 -0.0000 0.9791
vn -0.2034 -0.0000 0.9791
vn -0.2035 -0.0000 0.9791
vn -0.2037 -0.0000 0.9790
vn -0.2036 -0.0000 0.9791
vn -0.8457 -0.0000 0.5336
s 1
f 1//1 2//1 3//1
f 1//2 3//3 9//2
f 1//2 9//2 18//2
f 1//2 18//2 20//2
f 1//2 20//2 22//2
f 1//2 22//2 11//2
f 1//2 11//2 4//2
f 1//4 4//4 12//4
f 1//4 12//4 24//4
f 1//4 24//4 33//4
f 1//4 33//4 40//4
f 1//4 40//4 34//4
f 1//4 34//4 25//4
f 1//4 25//4 13//4
f 1//4 13//4 5//4
f 1//4 5//4 2//4
f 2//5 5//5 6//5
f 2//6 6//6 7//6
f 2//7 7//8 8//9
f 2//10 8//11 3//12
f 3//12 8//11 10//13
f 3//12 10//13 9//14
f 4//15 11//15 21//15
f 4//15 21//15 23//16
f 4//15 23//16 12//17
f 5//18 13//19 14//20
f 5//18 14//20 15//21
f 5//22 15//22 6//22
f 6//23 15//23 16//23
f 6//24 16//24 7//24
f 7//25 16//26 8//25
f 8//27 16//27 17//27
f 8//28 17//28 10//28
f 9//14 10//13 18//29
f 10//30 17//30 16//31
f 10//30 16//31 29//30
f 10//30 29//30 28//30
f 10//30 28//30 37//30
f 10//30 37//30 42//30
f 10//30 42//30 43//32
f 10//30 43//32 38//30
f 10//30 38//30 31//30
f 10//30 31//30 21//30
f 10//30 21//30 11//30
f 10//30 11//30 22//30
f 10//30 22//30 30//30
f 10//30 30//30 19//30
f 10//33 19//34 20//34
f 10//13 20//35 18//29
f 12//17 23//16 24//36
f 13//37 25//38 26//39
f 13//37 26//39 14//40
f 14//20 27//41 15//21
f 14//42 26//43 28//44
f 14//45 28//46 27//45
f 15//47 27//48 16//49
f 16//49 27//48 29//50
f 19//51 30//52 20//53
f 20//54 30//54 22//54
f 21//55 31//56 32//57
f 21//55 32//57 23//57
f 23//57 32//57 33//58
f 23//57 33//58 24//58
f 25//59 34//59 41//59
f 25//59 41//59 43//59
f 25//59 43//59 42//60
f 25//59 42//60 35//61
f 25//59 35//61 26//62
f 26//62 35//61 36//63
f 26//43 36//64 28//44
f 27//65 28//65 29//65
f 28//66 36//63 37//67
f 31//68 38//69 39//68
f 31//68 39//68 32//70
f 32//70 39//68 40//71
f 32//70 40//71 33//72
f 34//73 40//74 41//75
f 35//61 42//60 36//63
f 36//63 42//60 37//67
f 38//76 43//77 41//75
f 38//76 41//75 44//76
f 38//69 44//78 39//68
f 39//68 44//78 40//71
f 40//74 44//76 41//75
