# Blender 4.4.3
# www.blender.org
o fixed_holes_collision_geom_11
v -0.023920 -0.111412 0.015102
v -0.024359 -0.111412 0.022581
v -0.021924 -0.121331 0.015102
v -0.065881 -0.111412 0.015102
v -0.024380 -0.111412 0.022830
v -0.022480 -0.122117 0.022830
v -0.021846 -0.121770 0.015102
v -0.065881 -0.122117 0.015102
v -0.065881 -0.111412 0.022307
v -0.024445 -0.111412 0.023010
v -0.022734 -0.122117 0.023181
v -0.021837 -0.122117 0.015102
v -0.024515 -0.111412 0.023175
v -0.065881 -0.122117 0.022307
v -0.065820 -0.111412 0.022830
v -0.022764 -0.122117 0.023188
v -0.024701 -0.111412 0.023220
v -0.065820 -0.122117 0.022830
v -0.065721 -0.111412 0.022996
v -0.023307 -0.121635 0.023260
v -0.023307 -0.122112 0.023262
v -0.023307 -0.122117 0.023262
v -0.024877 -0.111412 0.023260
v -0.065610 -0.122117 0.023177
v -0.065610 -0.111412 0.023177
v -0.025403 -0.111412 0.023262
v -0.065195 -0.122117 0.023262
v -0.065195 -0.111412 0.023262
vn 0.9787 0.1970 0.0575
vn -0.0000 -0.0000 -1.0000
vn -0.0002 -0.0000 -1.0000
vn -0.0000 1.0000 -0.0000
vn -0.0000 1.0000 -0.0001
vn 0.9806 0.1771 0.0846
vn 0.9807 0.1750 0.0876
vn 0.9807 0.1755 0.0861
vn 0.9809 0.1734 0.0882
vn 0.9810 0.1728 0.0882
vn -1.0000 -0.0000 -0.0000
vn 0.9282 0.1648 0.3337
vn -0.0000 -1.0000 -0.0000
vn -0.0000 -1.0000 0.0001
vn -0.0000 -1.0000 -0.0001
vn 0.9963 0.0251 0.0828
vn 0.9109 0.1609 0.3799
vn 0.8021 0.1338 0.5820
vn -0.9934 -0.0000 0.1144
vn 0.2314 0.0390 0.9721
vn 0.2309 0.0390 0.9722
vn 0.2297 0.0386 0.9725
vn 0.2296 0.0387 0.9725
vn -0.8576 -0.0000 0.5144
vn -0.8570 0.0001 0.5154
vn -0.8521 -0.0001 0.5234
vn 0.1336 0.0020 0.9910
vn 0.1342 0.0049 0.9909
vn 0.1326 0.0025 0.9912
vn 0.1335 -0.0000 0.9910
vn 0.2244 0.0377 0.9738
vn 0.1496 0.0228 0.9885
vn 0.1496 0.0229 0.9885
vn -0.8518 -0.0000 0.5239
vn -0.8506 -0.0000 0.5258
vn 0.0334 0.0051 0.9994
vn 0.0015 0.0003 1.0000
vn 0.0030 0.0006 1.0000
vn 0.0004 0.0001 1.0000
vn -0.0000 -0.0000 1.0000
vn -0.2004 -0.0000 0.9797
s 1
f 1//1 2//1 3//1
f 1//2 3//3 7//2
f 1//2 7//2 12//2
f 1//2 12//2 8//2
f 1//2 8//2 4//2
f 1//4 4//4 9//4
f 1//4 9//4 15//4
f 1//4 15//4 19//4
f 1//4 19//4 25//4
f 1//4 25//4 28//5
f 1//4 28//5 26//4
f 1//4 26//4 23//4
f 1//4 23//4 17//4
f 1//4 17//4 13//4
f 1//4 13//4 10//4
f 1//4 10//4 5//4
f 1//4 5//4 2//4
f 2//6 5//7 3//8
f 3//8 6//9 7//10
f 3//8 5//7 6//9
f 4//11 8//11 14//11
f 4//11 14//11 9//11
f 5//12 10//12 6//12
f 6//13 11//14 16//13
f 6//13 16//13 22//15
f 6//13 22//15 27//13
f 6//13 27//13 24//13
f 6//13 24//13 18//13
f 6//13 18//13 14//13
f 6//13 14//13 8//13
f 6//13 8//13 12//13
f 6//16 12//16 7//16
f 6//17 10//17 13//17
f 6//18 13//18 11//18
f 9//19 14//19 18//19
f 9//19 18//19 15//19
f 11//20 13//21 16//22
f 13//21 17//23 16//22
f 15//24 18//25 19//26
f 16//27 20//28 21//29
f 16//27 21//29 22//30
f 16//22 17//23 23//31
f 16//32 23//33 20//33
f 18//25 24//34 19//26
f 19//26 24//34 25//35
f 20//36 23//36 21//36
f 21//37 23//38 26//39
f 21//37 26//39 28//40
f 21//37 28//40 27//40
f 21//37 27//40 22//40
f 24//41 27//41 28//41
f 24//41 28//41 25//41
