# Blender 4.4.3
# www.blender.org
o fixed_holes_collision_geom_85
v 0.040750 -0.053550 0.011508
v 0.048449 -0.053550 0.011508
v 0.040750 -0.053550 0.016396
v 0.040750 -0.038791 0.011508
v 0.048449 -0.053550 0.011611
v 0.048449 -0.038367 0.011508
v 0.048441 -0.053550 0.016396
v 0.040750 -0.039753 0.016389
v 0.040750 -0.038801 0.015499
v 0.048449 -0.053081 0.016389
v 0.048441 -0.038801 0.015499
v 0.048449 -0.038858 0.016014
v 0.048449 -0.039753 0.016389
v 0.040750 -0.039278 0.016387
v 0.040750 -0.038859 0.016023
v 0.048441 -0.038859 0.016023
v 0.048449 -0.038976 0.016330
v 0.048449 -0.039278 0.016387
v 0.040750 -0.038977 0.016336
v 0.040750 -0.038939 0.016238
v 0.048441 -0.038977 0.016336
vn -0.0000 -1.0000 -0.0000
vn -1.0000 -0.0000 -0.0000
vn -0.0000 -0.0000 -1.0000
vn 1.0000 -0.0000 -0.0000
vn 1.0000 -0.0006 -0.0000
vn -0.0000 0.0005 1.0000
vn -0.0000 0.0008 1.0000
vn -0.0000 0.0015 1.0000
vn -0.0550 0.9985 0.0027
vn 0.9998 -0.0191 0.0019
vn -0.0000 0.9941 0.1082
vn -0.0001 0.9941 0.1084
vn -0.0000 0.9941 0.1084
vn 0.0467 0.9931 0.1079
vn 0.6220 -0.0000 0.7830
vn -0.0000 0.0025 1.0000
vn -0.0000 0.9940 0.1096
vn -0.0001 0.9940 0.1098
vn -0.0000 0.9863 0.1648
vn 0.1884 0.9209 0.3412
vn 0.1884 0.9209 0.3411
vn -0.0000 0.1697 0.9855
vn -0.0000 0.9367 0.3501
vn 0.0001 0.9364 0.3508
vn -0.0000 0.9366 0.3505
vn -0.0000 0.9350 0.3548
vn 0.0433 0.9350 0.3519
vn 0.4762 0.1634 0.8640
vn 0.4762 0.1632 0.8641
vn 0.4762 0.1631 0.8641
vn -0.0000 0.9346 0.3556
s 1
f 1//1 2//1 5//1
f 1//1 5//1 7//1
f 1//1 7//1 3//1
f 1//2 3//2 8//2
f 1//2 8//2 14//2
f 1//2 14//2 19//2
f 1//2 19//2 20//2
f 1//2 20//2 15//2
f 1//2 15//2 9//2
f 1//2 9//2 4//2
f 1//3 4//3 6//3
f 1//3 6//3 2//3
f 2//4 6//4 12//4
f 2//4 12//4 17//4
f 2//4 17//4 18//4
f 2//4 18//4 13//4
f 2//4 13//4 10//4
f 2//4 10//4 5//5
f 3//6 7//6 13//7
f 3//6 13//7 8//8
f 4//9 9//9 6//9
f 5//10 10//10 7//10
f 6//11 9//12 11//13
f 6//14 11//14 12//14
f 7//15 10//15 13//15
f 8//8 13//7 18//16
f 8//8 18//16 14//16
f 9//12 15//17 12//18
f 9//12 12//18 11//13
f 12//19 15//19 16//19
f 12//20 16//20 17//21
f 14//22 18//22 21//22
f 14//22 21//22 19//22
f 15//23 20//24 16//25
f 16//25 20//24 21//26
f 16//27 21//27 17//27
f 17//28 21//29 18//30
f 19//31 21//26 20//24
