# Blender 4.4.3
# www.blender.org
o fixed_holes_collision_geom_109
v -0.016598 -0.128825 0.015102
v -0.017373 -0.128825 0.022830
v -0.016160 -0.128944 0.015102
v -0.065881 -0.128825 0.015102
v -0.017251 -0.128987 0.023120
v -0.009336 -0.133538 0.022830
v -0.009352 -0.132755 0.015102
v -0.017549 -0.128825 0.023153
v -0.065881 -0.132587 0.015102
v -0.065881 -0.128825 0.022307
v -0.009336 -0.133672 0.023167
v -0.009336 -0.133065 0.015102
v -0.017583 -0.128825 0.023159
v -0.065881 -0.132587 0.022307
v -0.065876 -0.133062 0.015102
v -0.065814 -0.128825 0.022830
v -0.009336 -0.134015 0.023250
v -0.018075 -0.128825 0.023240
v -0.009336 -0.143084 0.015102
v -0.065876 -0.133062 0.022307
v -0.065814 -0.133062 0.022830
v -0.065848 -0.133424 0.015102
v -0.065605 -0.128825 0.023176
v -0.009690 -0.134015 0.023262
v -0.009336 -0.134492 0.023262
v -0.018595 -0.128825 0.023262
v -0.009336 -0.143084 0.022307
v -0.054718 -0.143084 0.015102
v -0.065837 -0.133538 0.022307
v -0.065787 -0.133538 0.022830
v -0.065549 -0.134492 0.023172
v -0.065571 -0.134014 0.023176
v -0.065605 -0.133062 0.023176
v -0.065837 -0.133538 0.015102
v -0.065195 -0.128825 0.023262
v -0.009336 -0.142582 0.023262
v -0.009336 -0.143048 0.022830
v -0.054718 -0.143084 0.022307
v -0.055243 -0.143057 0.015102
v -0.065704 -0.134492 0.022307
v -0.065549 -0.135444 0.022830
v -0.065671 -0.134492 0.022830
v -0.065472 -0.135724 0.023108
v -0.065494 -0.135444 0.023133
v -0.065521 -0.134968 0.023157
v -0.065195 -0.134968 0.023242
v -0.065195 -0.134492 0.023258
v -0.065195 -0.134014 0.023261
v -0.065195 -0.133538 0.023262
v -0.065704 -0.134492 0.015102
v -0.013354 -0.142917 0.023176
v -0.009336 -0.142916 0.023176
v -0.054718 -0.142582 0.023262
v -0.054718 -0.143048 0.022830
v -0.055243 -0.143029 0.022830
v -0.055243 -0.143057 0.022307
v -0.055642 -0.143015 0.015102
v -0.065566 -0.135444 0.022307
v -0.065482 -0.135767 0.022830
v -0.065017 -0.136838 0.022830
v -0.064425 -0.138081 0.023108
v -0.064985 -0.136756 0.023139
v -0.065050 -0.136393 0.023170
v -0.065195 -0.135444 0.023218
v -0.064669 -0.136393 0.023253
v -0.064669 -0.135919 0.023262
v -0.065566 -0.135444 0.015102
v -0.054718 -0.142917 0.023176
v -0.057861 -0.142107 0.023262
v -0.055243 -0.142582 0.023260
v -0.055243 -0.142909 0.023174
v -0.055769 -0.142889 0.023163
v -0.056295 -0.142864 0.023142
v -0.056809 -0.142835 0.023110
v -0.057081 -0.142819 0.023093
v -0.055769 -0.142981 0.022830
v -0.055769 -0.143001 0.022307
v -0.055769 -0.143001 0.015102
v -0.065494 -0.135785 0.022307
v -0.065405 -0.136022 0.022307
v -0.065034 -0.136854 0.022307
v -0.064591 -0.137820 0.022307
v -0.064436 -0.138105 0.022830
v -0.064475 -0.137820 0.023146
v -0.064254 -0.138344 0.022830
v -0.063993 -0.138665 0.022830
v -0.062853 -0.139981 0.023108
v -0.063944 -0.138611 0.023140
v -0.064132 -0.138264 0.023163
v -0.064143 -0.137820 0.023232
v -0.064143 -0.137344 0.023261
v -0.063097 -0.138775 0.023262
v -0.065494 -0.135785 0.015102
v -0.058912 -0.141631 0.023262
v -0.059433 -0.141631 0.023255
v -0.058386 -0.142107 0.023242
v -0.055769 -0.142582 0.023248
v -0.056295 -0.142582 0.023227
v -0.057861 -0.142488 0.023176
v -0.057130 -0.142828 0.022830
v -0.056295 -0.142924 0.022830
v -0.058386 -0.142421 0.023157
v -0.058719 -0.142370 0.023121
v -0.057861 -0.142675 0.022830
v -0.057391 -0.142779 0.022830
v -0.057180 -0.142832 0.022307
v -0.057180 -0.142832 0.015102
v -0.065405 -0.136022 0.015102
v -0.065283 -0.136304 0.015102
v -0.065034 -0.136854 0.015102
v -0.064481 -0.138045 0.015102
v -0.064442 -0.138118 0.022307
v -0.064591 -0.137820 0.015102
v -0.064270 -0.138353 0.022307
v -0.064005 -0.138680 0.022307
v -0.063545 -0.139227 0.022307
v -0.062871 -0.140000 0.022830
v -0.062322 -0.140447 0.023099
v -0.062527 -0.140165 0.023139
v -0.062576 -0.139727 0.023230
v -0.062947 -0.139727 0.023146
v -0.063629 -0.138774 0.023188
v -0.063623 -0.138296 0.023255
v -0.062576 -0.139251 0.023262
v -0.059953 -0.141154 0.023262
v -0.061005 -0.140678 0.023261
v -0.060479 -0.141154 0.023250
v -0.059992 -0.141664 0.023189
v -0.059433 -0.141979 0.023170
v -0.057440 -0.142800 0.022307
v -0.059842 -0.141918 0.023141
v -0.060197 -0.141852 0.022830
v -0.059930 -0.141954 0.022830
v -0.058775 -0.142393 0.022830
v -0.058386 -0.142528 0.022830
v -0.057861 -0.142719 0.022307
v -0.057440 -0.142800 0.015102
v -0.064442 -0.138118 0.015102
v -0.064403 -0.138174 0.015102
v -0.064270 -0.138353 0.015102
v -0.064005 -0.138680 0.015102
v -0.062881 -0.140010 0.022307
v -0.063545 -0.139227 0.015102
v -0.062609 -0.140249 0.022307
v -0.062599 -0.140237 0.022830
v -0.062051 -0.140526 0.023140
v -0.062333 -0.140457 0.022830
v -0.060866 -0.141475 0.022830
v -0.060811 -0.141440 0.023134
v -0.061382 -0.140994 0.023148
v -0.062051 -0.140202 0.023223
v -0.061525 -0.140202 0.023262
v -0.060993 -0.141154 0.023185
v -0.060479 -0.141531 0.023167
v -0.060219 -0.141866 0.022307
v -0.060479 -0.141697 0.022830
v -0.060479 -0.141724 0.022307
v -0.059953 -0.141967 0.022307
v -0.058386 -0.142557 0.022307
v -0.057861 -0.142719 0.015102
v -0.062881 -0.140010 0.015102
v -0.062410 -0.140411 0.015102
v -0.062345 -0.140463 0.022307
v -0.062609 -0.140249 0.015102
v -0.062051 -0.140672 0.022307
v -0.060878 -0.141488 0.022307
v -0.060219 -0.141866 0.015102
v -0.060479 -0.141724 0.015102
v -0.059953 -0.141967 0.015102
v -0.058386 -0.142557 0.015102
v -0.062345 -0.140463 0.015102
v -0.062051 -0.140672 0.015102
v -0.060878 -0.141488 0.015102
vn 0.2617 0.9648 0.0262
vn -0.0000 -0.0000 -1.0000
vn -0.0000 1.0000 -0.0000
vn -0.0000 1.0000 -0.0001
vn 0.4833 0.8356 0.2611
vn 0.4829 0.8356 0.2619
vn 0.4884 0.8329 0.2604
vn 0.5040 0.8594 0.0860
vn 0.4875 0.8708 0.0631
vn 0.4814 0.8355 0.2651
vn -1.0000 -0.0000 -0.0000
vn -0.9999 -0.0113 -0.0000
vn -1.0000 -0.0008 -0.0000
vn 0.4804 0.8147 0.3247
vn 0.4750 0.8058 0.3536
vn 1.0000 -0.0000 -0.0000
vn 0.9986 0.0534 0.0033
vn 0.1791 0.3054 0.9352
vn 0.1796 0.3051 0.9352
vn 0.1786 0.3057 0.9352
vn -0.9999 -0.0116 -0.0000
vn -0.9999 -0.0118 -0.0000
vn -0.9921 -0.0000 0.1257
vn -0.9921 -0.0001 0.1257
vn 0.1558 0.2668 0.9511
vn 0.1383 0.2349 0.9621
vn 0.1383 0.2350 0.9621
vn -0.9932 -0.0117 0.1154
vn -0.9933 -0.0117 0.1154
vn -0.9971 -0.0762 -0.0000
vn -0.9969 -0.0790 0.0001
vn -0.9969 -0.0781 -0.0000
vn -0.8544 -0.0000 0.5196
vn 0.0315 0.0235 0.9992
vn 0.0428 0.0741 0.9963
vn 0.0315 0.0542 0.9980
vn 0.0316 0.0542 0.9980
vn -0.0000 -1.0000 -0.0000
vn -0.9967 -0.0813 0.0003
vn -0.9923 -0.0808 0.0942
vn -0.9917 -0.0575 0.1154
vn -0.9917 -0.0575 0.1153
vn -0.8805 -0.0511 0.4714
vn -0.8805 -0.0512 0.4714
vn -0.8804 -0.0512 0.4714
vn -0.8712 -0.0453 0.4888
vn -0.8712 -0.0452 0.4888
vn -0.8541 -0.0299 0.5193
vn -0.9953 -0.0969 -0.0000
vn -0.2044 -0.0000 0.9789
vn -0.2048 -0.0013 0.9788
vn -0.2047 -0.0005 0.9788
vn -0.2043 -0.0000 0.9789
vn -0.0000 -0.0000 1.0000
vn -0.0048 -0.0010 1.0000
vn -0.0043 -0.0013 1.0000
vn -0.0018 -0.0010 1.0000
vn -0.0018 -0.0029 1.0000
vn -0.0017 -0.0028 1.0000
vn -0.0000 -0.9978 0.0664
vn -0.0000 -0.9978 0.0663
vn -0.0000 -0.9978 0.0666
vn -0.0000 -0.9978 0.0665
vn -0.0503 -0.9987 -0.0000
vn -0.0502 -0.9987 -0.0000
vn -0.9904 -0.1382 -0.0000
vn -0.9904 -0.1381 -0.0000
vn -0.9897 -0.1434 -0.0000
vn -0.9895 -0.1379 0.0421
vn -0.9891 -0.1432 0.0338
vn -0.9894 -0.1399 0.0398
vn -0.9885 -0.1251 0.0855
vn -0.9885 -0.1264 0.0831
vn -0.9883 -0.1220 0.0919
vn -0.9883 -0.1206 0.0939
vn -0.9778 -0.1192 0.1723
vn -0.9520 -0.1006 0.2892
vn -0.9520 -0.1007 0.2892
vn -0.9079 -0.0743 0.4124
vn -0.9080 -0.0743 0.4124
vn -0.8941 -0.0646 0.4432
vn -0.8940 -0.0648 0.4433
vn -0.8941 -0.0647 0.4433
vn -0.2508 -0.0423 0.9671
vn -0.2478 -0.0466 0.9677
vn -0.2498 -0.0442 0.9673
vn -0.2321 -0.0262 0.9723
vn -0.2345 -0.0295 0.9717
vn -0.2334 -0.0233 0.9721
vn -0.2345 -0.0206 0.9719
vn -0.2194 -0.0079 0.9756
vn -0.2194 -0.0080 0.9756
vn -0.2194 -0.0077 0.9756
vn -0.2061 -0.0017 0.9785
vn -0.0000 -0.2476 0.9689
vn -0.0000 -0.2478 0.9688
vn 0.0001 -0.2482 0.9687
vn -0.0022 -0.2461 0.9692
vn -0.0046 -0.2456 0.9694
vn 0.0001 -0.9348 0.3552
vn 0.0002 -0.9337 0.3580
vn 0.0004 -0.9339 0.3574
vn -0.0000 -0.9350 0.3546
vn -0.0000 -0.9351 0.3545
vn -0.0371 -0.9971 0.0662
vn -0.0503 -0.9973 0.0532
vn -0.1045 -0.9945 -0.0000
vn -0.1046 -0.9945 -0.0000
vn -0.1064 -0.9943 -0.0000
vn -0.9891 -0.1438 0.0314
vn -0.9896 -0.1439 -0.0000
vn -0.9896 -0.1438 -0.0000
vn -0.9791 -0.2010 0.0310
vn -0.9790 -0.2019 0.0289
vn -0.9790 -0.2020 0.0282
vn -0.9772 -0.2006 0.0701
vn -0.9771 -0.2007 0.0702
vn -0.9811 -0.1255 0.1470
vn -0.9812 -0.1255 0.1469
vn -0.9060 -0.4021 0.1318
vn -0.6801 -0.3020 0.6681
vn -0.3700 -0.1484 0.9171
vn -0.3096 -0.1078 0.9448
vn -0.3096 -0.1077 0.9448
vn -0.9128 -0.3965 0.0981
vn -0.9128 -0.3964 0.0981
vn -0.2715 -0.0896 0.9583
vn -0.2720 -0.0658 0.9601
vn -0.2508 -0.0502 0.9667
vn -0.1585 -0.0512 0.9860
vn -0.1011 -0.0301 0.9944
vn -0.0595 -0.0186 0.9981
vn -0.0573 -0.0168 0.9982
vn -0.0524 -0.0182 0.9985
vn -0.0316 -0.0083 0.9995
vn -0.0077 -0.0017 1.0000
vn -0.0046 -0.0302 0.9995
vn -0.0063 -0.2482 0.9687
vn -0.0166 -0.9349 0.3546
vn -0.0350 -0.9434 0.3298
vn -0.0362 -0.9430 0.3307
vn -0.0398 -0.9425 0.3319
vn -0.0415 -0.9431 0.3298
vn -0.0580 -0.9501 0.3065
vn -0.0716 -0.9611 0.2667
vn -0.0715 -0.9610 0.2670
vn -0.0713 -0.9611 0.2667
vn -0.0714 -0.9613 0.2660
vn -0.0886 -0.9824 0.1643
vn -0.0897 -0.9946 0.0530
vn -0.1055 -0.9937 0.0369
vn -0.1069 -0.9936 0.0365
vn -0.1071 -0.9936 0.0366
vn -0.1082 -0.9941 -0.0000
vn -0.1093 -0.9940 -0.0000
vn -0.9786 -0.2058 -0.0000
vn -0.9786 -0.2059 -0.0000
vn -0.9782 -0.2059 0.0278
vn -0.9357 -0.3513 0.0319
vn -0.9158 -0.3975 0.0574
vn -0.9082 -0.4161 0.0444
vn -0.9104 -0.4112 0.0465
vn -0.9081 -0.4165 0.0422
vn -0.9080 -0.4167 0.0429
vn -0.9066 -0.4158 0.0719
vn -0.9128 -0.4063 0.0418
vn -0.4623 -0.2146 0.8604
vn -0.4623 -0.2145 0.8604
vn -0.4622 -0.2147 0.8604
vn -0.7914 -0.6056 0.0835
vn -0.7718 -0.6256 0.1143
vn -0.7718 -0.6255 0.1143
vn -0.7627 -0.6312 0.1405
vn -0.7628 -0.6312 0.1405
vn -0.5370 -0.4444 0.7170
vn -0.3229 -0.2380 0.9160
vn -0.2990 -0.1941 0.9343
vn -0.2990 -0.1942 0.9343
vn -0.3051 -0.1388 0.9421
vn -0.3052 -0.1388 0.9421
vn -0.2476 -0.1160 0.9619
vn -0.2475 -0.1160 0.9619
vn -0.2133 -0.0896 0.9729
vn -0.2115 -0.0926 0.9730
vn -0.2152 -0.0857 0.9728
vn -0.2118 -0.0813 0.9739
vn -0.1264 -0.0616 0.9901
vn -0.0489 -0.0186 0.9986
vn -0.0032 -0.0017 1.0000
vn -0.0084 -0.2532 0.9674
vn -0.0124 -0.0274 0.9995
vn -0.0124 -0.0272 0.9996
vn -0.0127 -0.0274 0.9995
vn -0.0378 -0.1111 0.9931
vn -0.0377 -0.1111 0.9931
vn -0.0373 -0.1919 0.9807
vn -0.0212 -0.1216 0.9924
vn -0.0211 -0.1216 0.9924
vn -0.0206 -0.2532 0.9672
vn -0.0288 -0.2657 0.9636
vn -0.0299 -0.2651 0.9638
vn -0.0386 -0.2653 0.9634
vn -0.0393 -0.2657 0.9632
vn -0.0477 -0.2789 0.9591
vn -0.0537 -0.3094 0.9494
vn -0.0799 -0.4146 0.9065
vn -0.0792 -0.4206 0.9038
vn -0.0814 -0.4187 0.9045
vn -0.0824 -0.4216 0.9030
vn -0.1143 -0.9920 0.0539
vn -0.1079 -0.9915 0.0723
vn -0.0863 -0.4300 0.8987
vn -0.1842 -0.7143 0.6752
vn -0.2533 -0.9386 0.2344
vn -0.2162 -0.9706 0.1060
vn -0.1841 -0.9807 0.0663
vn -0.1813 -0.9815 0.0616
vn -0.1822 -0.9815 0.0586
vn -0.1081 -0.9934 0.0370
vn -0.1171 -0.9929 0.0189
vn -0.1144 -0.9930 0.0307
vn -0.1148 -0.9930 0.0288
vn -0.1186 -0.9928 0.0192
vn -0.1190 -0.9929 -0.0000
vn -0.1226 -0.9925 -0.0000
vn -0.1186 -0.9929 -0.0000
vn -0.9361 -0.3517 -0.0000
vn -0.9362 -0.3516 -0.0000
vn -0.9361 -0.3516 -0.0000
vn -0.9170 -0.3988 0.0002
vn -0.9188 -0.3948 -0.0000
vn -0.9153 -0.4028 0.0005
vn -0.9135 -0.4068 0.0006
vn -0.9102 -0.4143 -0.0000
vn -0.9109 -0.4126 -0.0000
vn -0.9108 -0.4128 -0.0000
vn -0.9092 -0.4164 -0.0000
vn -0.8959 -0.4443 0.0001
vn -0.8947 -0.4467 0.0002
vn -0.8933 -0.4495 0.0003
vn -0.8932 -0.4491 0.0202
vn -0.8933 -0.4491 0.0202
vn -0.8972 -0.4417 -0.0000
vn -0.8084 -0.5882 0.0228
vn -0.8084 -0.5882 0.0227
vn -0.7935 -0.6075 0.0366
vn -0.2463 -0.1526 0.9571
vn -0.7764 -0.6292 0.0363
vn -0.7754 -0.6305 0.0354
vn -0.7755 -0.6303 0.0354
vn -0.7754 -0.6305 0.0349
vn -0.7650 -0.6431 0.0351
vn -0.7653 -0.6427 0.0352
vn -0.7635 -0.6451 0.0305
vn -0.7641 -0.6441 0.0349
vn -0.7621 -0.6411 0.0909
vn -0.6558 -0.7493 0.0921
vn -0.6557 -0.7494 0.0917
vn -0.6556 -0.7495 0.0918
vn -0.2643 -0.3184 0.9104
vn -0.2161 -0.2246 0.9502
vn -0.2154 -0.2252 0.9502
vn -0.2161 -0.2247 0.9502
vn -0.2169 -0.2235 0.9503
vn -0.2782 -0.2433 0.9292
vn -0.2783 -0.2432 0.9292
vn -0.2622 -0.2290 0.9374
vn -0.2490 -0.2001 0.9476
vn -0.2023 -0.1530 0.9673
vn -0.1659 -0.1338 0.9770
vn -0.1638 -0.1325 0.9776
vn -0.1626 -0.1336 0.9776
vn -0.1006 -0.0616 0.9930
vn -0.0392 -0.0280 0.9988
vn -0.0392 -0.0281 0.9988
vn -0.0860 -0.0795 0.9931
vn -0.0597 -0.0652 0.9961
vn -0.0593 -0.0657 0.9961
vn -0.0594 -0.0653 0.9961
vn -0.0130 -0.0277 0.9995
vn -0.0136 -0.0284 0.9995
vn -0.0291 -0.0538 0.9981
vn -0.1022 -0.2149 0.9713
vn -0.1029 -0.2159 0.9710
vn -0.1029 -0.2157 0.9710
vn -0.0977 -0.2380 0.9663
vn -0.1006 -0.2425 0.9649
vn -0.1014 -0.2405 0.9653
vn -0.0952 -0.2366 0.9669
vn -0.0674 -0.2588 0.9636
vn -0.0451 -0.2295 0.9723
vn -0.0400 -0.2071 0.9775
vn -0.0973 -0.2581 0.9612
vn -0.0973 -0.2580 0.9612
vn -0.1854 -0.9810 0.0565
vn -0.1224 -0.9923 0.0197
vn -0.1100 -0.2876 0.9514
vn -0.1100 -0.2877 0.9514
vn -0.1649 -0.4484 0.8785
vn -0.3609 -0.9063 0.2202
vn -0.3537 -0.9222 0.1561
vn -0.3516 -0.9252 0.1426
vn -0.3237 -0.9360 0.1379
vn -0.2623 -0.9416 0.2111
vn -0.2675 -0.9601 0.0820
vn -0.2167 -0.9727 0.0830
vn -0.1886 -0.9804 0.0571
vn -0.1224 -0.9925 -0.0000
vn -0.8822 -0.4708 -0.0000
vn -0.8086 -0.5883 0.0003
vn -0.8067 -0.5910 0.0002
vn -0.8039 -0.5947 -0.0000
vn -0.8280 -0.5607 -0.0000
vn -0.8024 -0.5968 -0.0000
vn -0.7758 -0.6310 -0.0000
vn -0.7757 -0.6311 -0.0000
vn -0.7657 -0.6432 -0.0000
vn -0.7660 -0.6429 -0.0000
vn -0.7625 -0.6470 -0.0000
vn -0.7623 -0.6467 0.0282
vn -0.7624 -0.6471 -0.0000
vn -0.6603 -0.7505 0.0286
vn -0.6604 -0.7504 0.0279
vn -0.6587 -0.7518 0.0297
vn -0.6580 -0.7524 0.0300
vn -0.6557 -0.7494 0.0913
vn -0.2256 -0.2930 0.9291
vn -0.6353 -0.7703 0.0545
vn -0.6353 -0.7704 0.0545
vn -0.5697 -0.8201 0.0536
vn -0.5423 -0.8178 0.1927
vn -0.2501 -0.3482 0.9034
vn -0.2301 -0.3124 0.9217
vn -0.2301 -0.3123 0.9217
vn -0.1902 -0.2461 0.9504
vn -0.1890 -0.2466 0.9505
vn -0.1888 -0.2470 0.9504
vn -0.1894 -0.2235 0.9561
vn -0.0852 -0.1088 0.9904
vn -0.0890 -0.1178 0.9890
vn -0.0873 -0.1137 0.9897
vn -0.0600 -0.0674 0.9959
vn -0.0595 -0.0663 0.9960
vn -0.1608 -0.1341 0.9778
vn -0.2184 -0.1986 0.9554
vn -0.0031 -0.0051 1.0000
vn -0.0911 -0.1222 0.9883
vn -0.1257 -0.1796 0.9757
vn -0.1256 -0.1797 0.9757
vn -0.1246 -0.2155 0.9685
vn -0.1033 -0.2160 0.9709
vn -0.1042 -0.2432 0.9644
vn -0.1115 -0.2473 0.9625
vn -0.1890 -0.9820 -0.0000
vn -0.1891 -0.9820 -0.0000
vn -0.1922 -0.3763 0.9063
vn -0.1921 -0.3763 0.9063
vn -0.4231 -0.8542 0.3021
vn -0.3578 -0.9329 0.0401
vn -0.3557 -0.9340 0.0344
vn -0.3575 -0.9331 0.0385
vn -0.4706 -0.8569 0.2103
vn -0.4800 -0.8762 0.0436
vn -0.4806 -0.8758 0.0442
vn -0.4804 -0.8759 0.0435
vn -0.4795 -0.8764 0.0437
vn -0.3543 -0.9344 0.0362
vn -0.3528 -0.9352 0.0314
vn -0.3526 -0.9353 0.0309
vn -0.3263 -0.9438 0.0528
vn -0.2938 -0.9544 0.0533
vn -0.2941 -0.9558 -0.0000
vn -0.6606 -0.7507 -0.0000
vn -0.6301 -0.7765 -0.0000
vn -0.6296 -0.7769 0.0001
vn -0.6254 -0.7803 -0.0000
vn -0.6354 -0.7716 0.0284
vn -0.6287 -0.7773 0.0236
vn -0.6302 -0.7761 0.0234
vn -0.6359 -0.7712 0.0302
vn -0.6305 -0.7762 -0.0000
vn -0.1974 -0.2652 0.9438
vn -0.1865 -0.2462 0.9511
vn -0.5692 -0.8217 0.0280
vn -0.5759 -0.8172 0.0227
vn -0.5707 -0.8207 0.0297
vn -0.5702 -0.8209 0.0318
vn -0.5781 -0.8157 0.0231
vn -0.5092 -0.8601 0.0312
vn -0.4966 -0.8669 0.0439
vn -0.4966 -0.8669 0.0438
vn -0.4883 -0.8524 0.1868
vn -0.2098 -0.2977 0.9313
vn -0.1682 -0.2740 0.9469
vn -0.4802 -0.8771 -0.0000
vn -0.4800 -0.8773 -0.0000
vn -0.4804 -0.8771 -0.0000
vn -0.3537 -0.9354 -0.0000
vn -0.3538 -0.9353 -0.0000
vn -0.3528 -0.9357 -0.0000
vn -0.5094 -0.8605 -0.0000
vn -0.5093 -0.8606 -0.0000
vn -0.3525 -0.9358 -0.0000
vn -0.6242 -0.7813 -0.0000
vn -0.5783 -0.8158 -0.0000
vn -0.5790 -0.8153 -0.0000
vn -0.5715 -0.8206 -0.0000
vn -0.5711 -0.8209 -0.0000
s 1
f 1//1 2//1 3//1
f 1//2 3//2 7//2
f 1//2 7//2 12//2
f 1//2 12//2 19//2
f 1//2 19//2 28//2
f 1//2 28//2 39//2
f 1//2 39//2 57//2
f 1//2 57//2 78//2
f 1//2 78//2 107//2
f 1//2 107//2 137//2
f 1//2 137//2 160//2
f 1//2 160//2 170//2
f 1//2 170//2 169//2
f 1//2 169//2 167//2
f 1//2 167//2 168//2
f 1//2 168//2 173//2
f 1//2 173//2 172//2
f 1//2 172//2 171//2
f 1//2 171//2 162//2
f 1//2 162//2 164//2
f 1//2 164//2 161//2
f 1//2 161//2 143//2
f 1//2 143//2 141//2
f 1//2 141//2 140//2
f 1//2 140//2 139//2
f 1//2 139//2 138//2
f 1//2 138//2 111//2
f 1//2 111//2 113//2
f 1//2 113//2 110//2
f 1//2 110//2 109//2
f 1//2 109//2 108//2
f 1//2 108//2 93//2
f 1//2 93//2 67//2
f 1//2 67//2 50//2
f 1//2 50//2 34//2
f 1//2 34//2 22//2
f 1//2 22//2 15//2
f 1//2 15//2 9//2
f 1//2 9//2 4//2
f 1//3 4//3 10//3
f 1//3 10//3 16//3
f 1//3 16//3 23//3
f 1//3 23//3 35//4
f 1//3 35//4 26//3
f 1//3 26//3 18//3
f 1//3 18//3 13//3
f 1//3 13//3 8//3
f 1//3 8//3 2//3
f 2//5 5//6 6//7
f 2//8 6//8 7//8
f 2//9 7//9 3//9
f 2//5 8//10 5//6
f 4//11 9//12 14//13
f 4//11 14//13 10//11
f 5//14 11//14 6//14
f 5//15 8//15 11//15
f 6//16 11//16 17//16
f 6//16 17//16 25//16
f 6//16 25//16 36//16
f 6//16 36//16 52//16
f 6//16 52//16 37//16
f 6//16 37//16 27//16
f 6//16 27//16 19//16
f 6//16 19//16 12//16
f 6//17 12//17 7//17
f 8//18 13//19 11//20
f 9//12 15//21 20//22
f 9//12 20//22 14//13
f 10//23 14//23 21//24
f 10//23 21//24 16//23
f 11//25 13//25 18//25
f 11//26 18//27 17//26
f 14//28 20//28 21//29
f 15//30 22//31 20//32
f 16//33 21//33 33//33
f 16//33 33//33 23//33
f 17//34 24//34 25//34
f 17//35 18//35 26//35
f 17//36 26//37 24//36
f 19//38 27//38 38//38
f 19//38 38//38 28//38
f 20//32 22//31 29//39
f 20//40 29//40 30//40
f 20//41 30//41 21//42
f 21//43 30//44 31//45
f 21//46 31//47 32//47
f 21//48 32//48 33//48
f 22//49 34//49 29//49
f 23//50 33//51 49//52
f 23//50 49//52 35//53
f 24//54 26//54 35//54
f 24//54 35//54 49//55
f 24//54 49//55 66//56
f 24//54 66//56 92//57
f 24//54 92//57 124//54
f 24//54 124//54 152//58
f 24//54 152//58 125//59
f 24//54 125//59 94//54
f 24//54 94//54 69//54
f 24//54 69//54 53//54
f 24//54 53//54 36//54
f 24//54 36//54 25//54
f 27//60 37//61 54//62
f 27//60 54//62 38//63
f 28//64 38//65 56//64
f 28//64 56//64 39//65
f 29//66 34//66 50//67
f 29//66 50//67 40//68
f 29//69 40//70 41//71
f 29//72 41//73 42//74
f 29//72 42//74 30//75
f 30//76 42//76 43//76
f 30//77 43//78 44//78
f 30//79 44//80 45//80
f 30//81 45//82 31//83
f 31//84 45//85 46//86
f 31//87 46//88 47//89
f 31//87 47//89 32//90
f 32//91 47//92 48//91
f 32//91 48//91 33//93
f 33//51 48//94 49//52
f 36//95 51//96 52//97
f 36//95 53//98 68//99
f 36//95 68//99 51//96
f 37//100 52//101 51//102
f 37//100 51//102 68//103
f 37//100 68//103 54//104
f 38//105 54//105 55//105
f 38//106 55//106 56//106
f 39//107 56//108 57//109
f 40//70 58//110 41//71
f 40//68 50//67 67//111
f 40//68 67//111 58//112
f 41//113 58//114 59//115
f 41//116 59//117 43//116
f 41//118 43//118 42//119
f 43//120 60//120 61//120
f 43//121 61//121 62//121
f 43//122 62//122 63//122
f 43//123 63//124 44//123
f 43//125 59//126 60//126
f 44//127 63//127 64//127
f 44//128 64//128 45//128
f 45//85 64//129 46//86
f 46//130 64//130 65//130
f 46//131 65//131 47//131
f 47//132 65//133 66//134
f 47//135 66//135 48//135
f 48//136 66//56 49//55
f 53//137 69//137 70//137
f 53//98 70//138 68//99
f 54//139 68//139 71//139
f 54//140 71//141 55//142
f 55//142 71//141 72//143
f 55//144 72//144 73//144
f 55//145 73//146 74//147
f 55//145 74//147 75//148
f 55//149 75//149 76//149
f 55//150 76//150 56//150
f 56//151 76//152 77//153
f 56//108 77//154 57//109
f 57//109 77//154 78//155
f 58//156 67//157 93//157
f 58//156 93//157 79//156
f 58//114 79//158 59//115
f 59//159 79//159 80//159
f 59//160 80//160 60//160
f 60//161 81//162 82//163
f 60//161 82//163 83//164
f 60//165 83//165 61//165
f 60//161 80//166 81//162
f 61//167 84//168 62//169
f 61//170 83//170 85//170
f 61//171 85//172 86//172
f 61//173 86//173 87//174
f 61//175 87//175 88//175
f 61//176 88//176 89//176
f 61//177 89//178 84//177
f 62//179 84//179 63//180
f 63//181 84//182 90//181
f 63//183 90//184 65//185
f 63//183 65//185 64//186
f 65//187 90//187 91//187
f 65//133 91//188 66//134
f 66//56 91//189 92//57
f 68//99 70//138 71//190
f 69//191 94//192 95//193
f 69//194 95//195 96//194
f 69//196 96//196 97//196
f 69//197 97//198 70//198
f 70//199 97//199 71//199
f 71//200 97//201 72//202
f 72//202 97//201 98//203
f 72//204 98//204 99//204
f 72//205 99//205 73//205
f 73//206 99//207 74//208
f 74//208 99//207 75//209
f 75//210 100//210 101//210
f 75//211 101//211 76//211
f 75//212 99//212 102//212
f 75//213 102//213 103//213
f 75//214 103//214 104//214
f 75//215 104//215 105//215
f 75//216 105//217 100//218
f 76//152 101//219 77//153
f 77//220 101//221 100//222
f 77//220 100//222 106//223
f 77//224 106//225 107//226
f 77//224 107//226 78//224
f 79//227 93//228 108//229
f 79//227 108//229 80//227
f 80//230 108//231 109//232
f 80//230 109//232 81//233
f 81//234 109//235 110//236
f 81//234 110//236 113//237
f 81//234 113//237 82//237
f 82//238 111//239 112//240
f 82//241 112//242 83//242
f 82//238 113//243 111//239
f 83//244 112//245 114//245
f 83//246 114//246 85//246
f 84//247 89//247 90//247
f 85//248 114//249 86//250
f 86//250 114//249 115//251
f 86//252 115//253 116//254
f 86//252 116//254 117//255
f 86//256 117//256 87//256
f 87//257 117//258 118//259
f 87//260 118//260 119//260
f 87//261 119//262 120//263
f 87//261 120//263 121//264
f 87//265 121//266 88//265
f 88//267 121//267 122//267
f 88//268 122//268 89//268
f 89//269 122//269 90//269
f 90//270 122//271 123//272
f 90//273 123//273 91//273
f 91//274 123//274 92//275
f 92//276 123//276 120//276
f 92//277 120//278 124//279
f 94//192 125//280 95//193
f 95//193 125//280 126//281
f 95//282 126//282 127//282
f 95//283 127//284 128//285
f 95//286 128//287 129//288
f 95//286 129//288 96//289
f 96//290 102//290 99//290
f 96//291 99//291 98//291
f 96//292 98//292 97//292
f 96//293 129//294 102//293
f 100//218 105//217 130//295
f 100//296 130//296 106//296
f 102//297 129//298 131//298
f 102//299 131//299 103//299
f 103//300 131//300 132//300
f 103//301 132//301 133//301
f 103//302 133//302 134//302
f 103//303 134//303 135//303
f 103//304 135//304 104//304
f 104//305 135//305 136//305
f 104//306 136//306 105//306
f 105//217 136//307 130//295
f 106//225 130//308 137//308
f 106//225 137//308 107//226
f 111//309 138//309 112//309
f 112//310 139//311 114//312
f 112//313 138//313 139//313
f 114//312 139//311 140//314
f 114//315 140//316 141//315
f 114//315 141//315 115//315
f 115//317 141//318 143//317
f 115//317 143//317 116//319
f 116//254 142//320 117//255
f 116//319 143//317 161//321
f 116//319 161//321 142//321
f 117//322 142//323 144//324
f 117//322 144//324 145//325
f 117//258 145//326 118//259
f 118//327 146//327 119//327
f 118//328 145//328 147//329
f 118//330 147//330 148//330
f 118//331 148//331 149//331
f 118//332 149//332 150//332
f 118//333 150//334 146//333
f 119//335 146//336 151//337
f 119//338 151//338 120//338
f 120//339 151//340 126//341
f 120//278 126//342 152//343
f 120//278 152//343 124//279
f 120//344 123//272 122//271
f 120//345 122//345 121//345
f 125//59 152//58 126//346
f 126//341 151//340 127//347
f 127//348 151//349 153//348
f 127//350 153//350 154//350
f 127//284 154//351 128//285
f 128//287 131//352 129//288
f 128//353 154//353 131//353
f 130//354 136//355 160//355
f 130//354 160//355 137//354
f 131//356 154//356 149//357
f 131//358 149//358 132//358
f 132//359 155//360 133//361
f 132//362 149//362 156//362
f 132//363 156//364 157//365
f 132//363 157//365 155//366
f 133//361 155//360 134//367
f 134//367 155//360 158//368
f 134//367 158//368 159//369
f 134//370 159//370 135//370
f 135//371 159//371 136//371
f 136//372 159//372 170//372
f 136//372 170//372 160//372
f 142//373 161//373 164//373
f 142//373 164//373 144//373
f 144//374 162//375 163//376
f 144//377 163//378 147//379
f 144//377 147//379 145//380
f 144//374 164//381 162//375
f 146//382 150//382 153//382
f 146//336 153//383 151//337
f 147//384 165//385 166//386
f 147//384 166//386 148//387
f 147//384 163//388 165//385
f 148//389 166//389 157//389
f 148//390 157//390 156//391
f 148//392 156//392 149//392
f 149//393 153//393 150//393
f 149//394 154//394 153//394
f 155//395 157//396 168//396
f 155//395 168//396 167//397
f 155//398 167//398 169//399
f 155//398 169//399 158//400
f 157//401 166//402 173//402
f 157//401 173//402 168//402
f 158//400 169//399 170//400
f 158//400 170//400 159//403
f 162//375 171//404 163//376
f 163//405 171//405 172//406
f 163//405 172//406 165//407
f 165//407 172//406 173//408
f 165//407 173//408 166//408
