# Blender 4.4.3
# www.blender.org
o fixed_holes_collision_geom_117
v -0.052630 0.024990 0.023261
v -0.053003 0.025452 0.023252
v -0.053003 0.024990 0.023261
v -0.049488 0.023547 0.023261
v -0.046101 0.022602 0.023261
v -0.046869 0.023075 0.023256
v -0.053003 0.025937 0.023181
v -0.046347 0.023075 0.023240
v -0.046101 0.023075 0.023227
v -0.053003 -0.088803 0.023261
v -0.048982 0.023086 0.023261
v -0.046101 -0.088813 0.023261
v -0.053003 0.026218 0.022830
v -0.046101 0.023368 0.023142
v -0.053003 -0.088813 0.017513
v -0.052671 -0.088813 0.023261
v -0.048982 -0.088813 0.023261
v -0.046101 -0.088813 0.015175
v -0.053003 0.026241 0.022637
v -0.046101 0.023424 0.022829
v -0.053003 -0.088813 0.015174
v -0.048982 -0.088813 0.015174
v -0.046101 0.023447 0.015175
v -0.053003 0.026251 0.022092
v -0.046101 0.023447 0.022305
v -0.053003 0.026251 0.015174
v -0.048982 0.024066 0.015174
vn 0.0046 0.0209 0.9998
vn 0.0088 0.0289 0.9995
vn -0.0000 0.0204 0.9998
vn 0.0002 0.0004 1.0000
vn -0.0000 -0.0000 1.0000
vn 0.0004 0.0007 1.0000
vn 0.0005 0.0005 1.0000
vn 0.0079 0.0214 0.9997
vn 0.0101 0.0283 0.9995
vn -1.0000 -0.0000 -0.0000
vn 0.0316 0.0836 0.9960
vn 0.0516 0.1399 0.9888
vn 0.0510 0.1380 0.9891
vn 0.0510 0.1386 0.9890
vn 0.0531 0.1440 0.9882
vn 1.0000 -0.0000 -0.0000
vn 0.0514 0.0702 0.9962
vn 0.0513 0.0703 0.9962
vn 0.0317 0.0601 0.9977
vn 0.1081 0.2761 0.9550
vn 0.2820 0.7487 0.6000
vn -0.0339 -0.9994 0.0020
vn -0.0000 -1.0000 -0.0000
vn 0.3701 0.9144 0.1641
vn 0.3731 0.9216 0.1073
vn 0.0004 -0.0000 -1.0000
vn 0.0002 -0.0000 -1.0000
vn 0.0008 0.0011 -1.0000
vn 0.3765 0.9255 0.0400
vn 0.3759 0.9265 0.0193
vn -0.0000 -0.0000 -1.0000
vn 0.0006 0.0011 -1.0000
vn 0.3764 0.9264 -0.0000
s 1
f 1//1 2//2 3//3
f 1//4 3//5 10//5
f 1//4 10//5 16//5
f 1//4 16//5 17//5
f 1//4 17//5 11//5
f 1//4 11//5 4//6
f 1//4 4//6 5//7
f 1//1 5//8 6//9
f 1//1 6//9 2//2
f 2//10 7//10 13//10
f 2//10 13//10 19//10
f 2//10 19//10 24//10
f 2//10 24//10 26//10
f 2//10 26//10 21//10
f 2//10 21//10 15//10
f 2//10 15//10 10//10
f 2//10 10//10 3//10
f 2//11 6//11 8//11
f 2//12 8//13 9//14
f 2//12 9//14 7//15
f 4//6 11//5 5//7
f 5//7 11//5 17//5
f 5//7 17//5 12//5
f 5//16 12//16 18//16
f 5//16 18//16 23//16
f 5//16 23//16 25//16
f 5//16 25//16 20//16
f 5//16 20//16 14//16
f 5//16 14//16 9//16
f 5//17 9//18 8//17
f 5//19 8//19 6//19
f 7//20 9//20 14//20
f 7//21 14//21 13//21
f 10//22 15//22 16//22
s 0
f 12//23 17//23 16//23
s 1
f 12//23 16//23 15//23
f 12//23 15//23 21//23
f 12//23 21//23 22//23
f 12//23 22//23 18//23
f 13//24 14//24 20//24
f 13//25 20//25 19//25
f 18//26 22//27 27//26
f 18//26 27//26 23//28
f 19//29 20//29 25//29
f 19//30 25//30 24//30
f 21//31 26//32 27//26
f 21//31 27//26 22//27
f 23//28 27//26 26//32
f 23//33 26//33 24//33
f 23//33 24//33 25//33
