# Blender 4.4.3
# www.blender.org
o fixed_holes_collision_geom_73
v -0.051211 0.070659 0.007502
v -0.051211 0.076876 0.007502
v -0.044599 0.072333 0.007502
v -0.051211 0.070659 0.022103
v -0.044599 0.075328 0.007502
v -0.051211 0.076876 0.022307
v -0.044599 0.072333 0.022307
v -0.051211 0.070659 0.022307
v -0.044599 0.075328 0.022307
v -0.051211 0.076853 0.022826
v -0.044599 0.075314 0.022830
v -0.044599 0.072345 0.022830
v -0.051211 0.070676 0.022627
v -0.051211 0.076739 0.023150
v -0.044599 0.075258 0.023139
v -0.044599 0.072349 0.022920
v -0.051211 0.070687 0.022830
v -0.051211 0.076435 0.023218
v -0.044599 0.074980 0.023223
v -0.044599 0.075073 0.023195
v -0.044599 0.072360 0.023096
v -0.051211 0.070748 0.023026
v -0.050534 0.075934 0.023259
v -0.051211 0.075934 0.023262
v -0.051058 0.075934 0.023262
v -0.044599 0.074505 0.023262
v -0.051211 0.070817 0.023153
v -0.044599 0.072601 0.023182
v -0.051211 0.071509 0.023262
v -0.044599 0.073078 0.023262
v -0.051211 0.071037 0.023214
v -0.051211 0.071173 0.023238
v -0.050534 0.071649 0.023260
vn -0.0000 -0.0000 -1.0000
vn 0.2455 -0.9694 -0.0000
vn 0.2453 -0.9694 0.0022
vn -1.0000 -0.0068 -0.0000
vn -1.0000 -0.0000 -0.0000
vn -1.0000 0.0003 -0.0000
vn -1.0000 -0.0002 -0.0000
vn 0.2280 0.9737 -0.0000
vn 0.2277 0.9737 -0.0000
vn 1.0000 -0.0000 -0.0000
vn 1.0000 -0.0003 -0.0000
vn 1.0000 -0.0006 -0.0000
vn 1.0000 0.0008 -0.0000
vn 0.2453 -0.9694 0.0031
vn 0.2264 0.9731 0.0435
vn 0.2278 0.9733 0.0273
vn 0.2452 -0.9692 0.0227
vn 0.2429 -0.9687 0.0518
vn 0.2428 -0.9687 0.0526
vn 0.2428 -0.9687 0.0521
vn 0.2073 0.9235 0.3229
vn 0.2233 0.9598 0.1702
vn 0.2427 -0.9685 0.0555
vn 0.2427 -0.9685 0.0552
vn 0.0460 0.2134 0.9759
vn 0.0461 0.2134 0.9759
vn 0.0655 0.2865 0.9558
vn 0.0654 0.2855 0.9561
vn 0.0652 0.2863 0.9559
vn 0.0676 0.2939 0.9535
vn 0.2427 -0.9685 0.0563
vn 0.2237 -0.9308 0.2890
vn 0.0244 0.1153 0.9930
vn 0.0012 0.0891 0.9960
vn -0.0000 0.0888 0.9961
vn 0.0009 0.0891 0.9960
vn 0.0059 0.0906 0.9959
vn 0.0189 0.0810 0.9965
vn 0.2049 -0.8615 0.4646
vn 0.2048 -0.8615 0.4646
vn 0.0851 -0.3312 0.9397
vn 0.0851 -0.3311 0.9397
vn 0.0852 -0.3311 0.9397
vn 0.0059 0.0270 0.9996
vn 0.0060 0.0270 0.9996
vn -0.0000 -0.0000 1.0000
vn 0.0683 -0.2689 0.9607
vn 0.0684 -0.2689 0.9607
vn 0.0443 -0.1666 0.9850
vn 0.0443 -0.1668 0.9850
vn 0.0444 -0.1676 0.9849
vn 0.0439 -0.1652 0.9853
vn 0.0173 -0.0730 0.9972
vn 0.0174 -0.0731 0.9972
vn 0.0177 -0.0747 0.9971
vn 0.0173 -0.0729 0.9972
s 1
f 1//1 2//1 5//1
f 1//1 5//1 3//1
f 1//2 3//2 7//2
f 1//2 7//3 4//3
s 0
f 1//4 4//4 8//4
s 1
f 1//5 8//6 13//7
f 1//5 13//7 17//5
f 1//5 17//5 22//5
f 1//5 22//5 27//5
f 1//5 27//5 31//5
f 1//5 31//5 32//5
f 1//5 32//5 29//5
f 1//5 29//5 24//5
f 1//5 24//5 18//5
f 1//5 18//5 14//5
f 1//5 14//5 10//5
f 1//5 10//5 6//5
f 1//5 6//5 2//5
f 2//8 6//9 9//8
f 2//8 9//8 5//9
f 3//10 5//10 9//10
f 3//10 9//10 11//10
f 3//10 11//10 15//10
f 3//10 15//10 20//10
f 3//10 20//10 19//10
f 3//10 19//10 26//10
f 3//10 26//10 30//10
f 3//10 30//10 28//10
f 3//10 28//10 21//11
f 3//10 21//11 16//12
f 3//10 16//12 12//13
f 3//10 12//13 7//10
f 4//3 7//3 8//14
f 6//15 10//15 11//15
f 6//16 11//16 9//16
f 7//17 12//17 8//17
f 8//18 12//19 13//20
f 10//21 14//21 15//21
f 10//22 15//22 11//22
f 12//19 16//23 13//20
f 13//20 16//23 17//24
f 14//25 18//25 19//26
f 14//27 19//28 20//29
f 14//27 20//29 15//30
f 16//23 21//31 17//24
f 17//32 21//32 22//32
f 18//33 23//33 19//33
f 18//34 24//35 25//36
f 18//34 25//36 23//37
f 19//38 23//38 26//38
f 21//39 27//40 22//40
f 21//41 28//42 27//43
f 23//44 25//45 26//45
f 24//46 29//46 30//46
f 24//46 30//46 26//46
f 24//46 26//46 25//46
f 27//47 28//47 31//48
f 28//49 32//50 31//51
f 28//49 30//52 32//50
f 29//53 32//54 33//55
f 29//53 33//55 30//56
f 30//56 33//55 32//54
