# Blender 4.4.3
# www.blender.org
o fixed_holes_collision_geom_123
v 0.038692 0.108304 0.014715
v 0.038692 0.082643 0.014715
v 0.043922 0.108777 0.013459
v 0.038692 0.108777 0.014714
v 0.038692 0.082643 0.001977
v 0.041214 0.082514 0.013730
v 0.043922 0.082514 0.013459
v 0.043922 0.108955 0.013455
v 0.043922 0.109255 0.013445
v 0.038692 0.109226 0.014698
v 0.041214 0.082514 0.001976
v 0.038692 0.115432 0.001977
v 0.043922 0.082514 0.001976
v 0.038692 0.109255 0.014696
v 0.043922 0.109732 0.013391
v 0.041214 0.115432 0.001976
v 0.038692 0.115432 0.011426
v 0.043922 0.115432 0.001976
v 0.038692 0.109732 0.014632
v 0.043922 0.109908 0.013358
v 0.038692 0.113264 0.013068
v 0.043922 0.115432 0.010491
v 0.043922 0.110205 0.013302
v 0.038692 0.110217 0.014534
v 0.038692 0.113227 0.013093
v 0.038692 0.113073 0.013202
v 0.043922 0.113202 0.012034
v 0.043922 0.110643 0.013194
v 0.038692 0.110669 0.014408
v 0.038692 0.112754 0.013414
v 0.038692 0.112615 0.013503
v 0.038692 0.112396 0.013639
v 0.043922 0.113054 0.012124
v 0.043922 0.110740 0.013165
v 0.043922 0.110940 0.013101
v 0.043922 0.111143 0.013036
v 0.038692 0.111166 0.014232
v 0.038692 0.112293 0.013699
v 0.043922 0.112586 0.012400
v 0.043922 0.112963 0.012178
v 0.043922 0.111337 0.012965
v 0.043922 0.111636 0.012853
v 0.038692 0.111346 0.014160
v 0.043922 0.112374 0.012515
v 0.038692 0.112148 0.013776
v 0.043922 0.112258 0.012577
v 0.043922 0.111787 0.012788
v 0.043922 0.112109 0.012645
v 0.038692 0.111668 0.014015
v 0.038692 0.111829 0.013936
vn 0.2336 0.0001 0.9723
vn 0.2335 -0.0000 0.9724
vn 0.2334 0.0017 0.9724
vn 0.2333 0.0024 0.9724
vn -1.0000 -0.0000 -0.0000
vn -1.0000 0.0002 -0.0000
vn -0.0508 -0.9987 -0.0000
vn -0.0512 -0.9987 -0.0000
vn -0.0513 -0.9987 -0.0000
vn 0.0173 -0.9848 0.1731
vn 1.0000 -0.0000 -0.0000
vn 1.0000 0.0001 -0.0000
vn 0.2332 0.0202 0.9722
vn 0.2335 0.0216 0.9721
vn 0.2330 0.0264 0.9721
vn 0.2328 0.0326 0.9720
vn 0.2328 0.0327 0.9720
vn -0.0005 -0.0000 -1.0000
vn -0.0002 -0.0000 -1.0000
vn -0.0000 -1.0000 -0.0000
vn 0.2319 0.0830 0.9692
vn 0.2312 0.1110 0.9666
vn -0.0000 -0.0000 -1.0000
vn -0.0000 1.0000 -0.0000
vn -0.0000 0.9998 -0.0183
vn 0.2293 0.1287 0.9648
vn 0.2275 0.1755 0.9578
vn 0.2274 0.1763 0.9577
vn 0.1412 0.5977 0.7892
vn 0.2274 0.1773 0.9575
vn 0.2251 0.1934 0.9549
vn 0.1625 0.5674 0.8072
vn 0.1627 0.5672 0.8073
vn 0.1635 0.5659 0.8081
vn 0.1658 0.5633 0.8095
vn 0.1674 0.5610 0.8107
vn 0.2232 0.2341 0.9462
vn 0.2193 0.2621 0.9398
vn 0.1700 0.5454 0.8208
vn 0.1736 0.5300 0.8300
vn 0.1766 0.5199 0.8358
vn 0.1758 0.5222 0.8345
vn 0.1780 0.5163 0.8377
vn 0.1781 0.5147 0.8387
vn 0.2177 0.2884 0.9324
vn 0.2174 0.2943 0.9306
vn 0.2188 0.2967 0.9296
vn 0.2171 0.2967 0.9300
vn 0.2170 0.2969 0.9299
vn 0.2120 0.3263 0.9212
vn 0.1822 0.5000 0.8466
vn 0.1834 0.4935 0.8502
vn 0.1833 0.4949 0.8494
vn 0.1832 0.4995 0.8467
vn 0.1818 0.5025 0.8453
vn 0.2112 0.3375 0.9173
vn 0.2109 0.3382 0.9171
vn 0.2110 0.3383 0.9171
vn 0.2106 0.3426 0.9156
vn 0.2077 0.3587 0.9100
vn 0.1890 0.4637 0.8656
vn 0.1887 0.4656 0.8647
vn 0.1886 0.4663 0.8643
vn 0.1897 0.4562 0.8694
vn 0.1893 0.4594 0.8678
vn 0.2037 0.3852 0.9001
vn 0.2008 0.4003 0.8941
vn 0.2013 0.3983 0.8949
vn 0.1999 0.4044 0.8925
vn 0.1997 0.4048 0.8923
vn 0.1919 0.4392 0.8777
vn 0.1921 0.4382 0.8781
vn 0.1926 0.4360 0.8791
vn 0.1927 0.4353 0.8794
vn 0.1996 0.4051 0.8922
s 1
f 1//1 2//2 7//2
f 1//1 7//2 3//3
f 1//1 3//3 4//4
f 1//5 4//5 10//5
f 1//5 10//5 14//5
f 1//5 14//5 19//5
f 1//5 19//5 24//5
f 1//5 24//5 29//5
f 1//5 29//5 37//5
f 1//5 37//5 43//5
f 1//5 43//5 49//5
f 1//5 49//5 50//5
f 1//5 50//5 45//5
f 1//5 45//5 38//5
f 1//5 38//5 32//5
f 1//5 32//5 31//5
f 1//5 31//5 30//5
f 1//5 30//5 26//5
f 1//5 26//5 25//6
f 1//5 25//6 21//5
f 1//5 21//5 17//5
f 1//5 17//5 12//5
f 1//5 12//5 5//5
f 1//5 5//5 2//5
f 2//7 5//8 11//9
f 2//7 11//9 6//8
f 2//10 6//10 7//10
f 3//11 7//11 13//11
f 3//11 13//11 18//11
f 3//11 18//11 22//11
f 3//11 22//11 27//11
f 3//11 27//11 33//11
f 3//11 33//11 40//11
f 3//11 40//11 39//11
f 3//11 39//11 44//11
f 3//11 44//11 46//11
f 3//11 46//11 48//12
f 3//11 48//12 47//11
f 3//11 47//11 42//11
f 3//11 42//11 41//11
f 3//11 41//11 36//11
f 3//11 36//11 35//11
f 3//11 35//11 34//11
f 3//11 34//11 28//11
f 3//11 28//11 23//11
f 3//11 23//11 20//11
f 3//11 20//11 15//11
f 3//11 15//11 9//11
f 3//11 9//11 8//11
f 3//13 8//14 4//15
f 4//15 8//14 9//16
f 4//15 9//16 10//17
f 5//18 12//18 16//19
f 5//18 16//19 11//19
f 6//20 11//20 13//20
f 6//20 13//20 7//20
f 9//21 14//21 10//21
f 9//22 15//22 14//22
f 11//19 16//19 18//23
f 11//19 18//23 13//23
f 12//24 17//24 22//24
f 12//24 22//24 18//24
f 12//24 18//24 16//25
f 14//26 15//26 19//26
f 15//27 20//28 19//28
f 17//29 21//29 22//29
f 19//28 20//28 23//30
f 19//31 23//31 24//31
f 21//32 25//33 22//34
f 22//34 25//33 26//35
f 22//34 26//35 27//36
f 23//37 28//37 24//37
f 24//38 28//38 29//38
f 26//39 30//39 27//39
f 27//40 30//40 31//40
f 27//41 31//42 32//43
f 27//41 32//43 33//44
f 28//45 34//46 29//47
f 29//47 34//46 35//48
f 29//47 35//48 36//49
f 29//50 36//50 37//50
f 32//51 38//52 39//53
f 32//51 39//53 40//54
f 32//51 40//54 33//55
f 36//56 41//57 37//58
f 37//58 41//57 42//59
f 37//60 42//60 43//60
f 38//61 44//62 39//63
f 38//61 45//64 46//65
f 38//61 46//65 44//62
f 42//66 47//66 43//66
f 43//67 47//68 48//69
f 43//67 48//69 49//70
f 45//71 50//72 46//73
f 46//73 50//72 49//74
f 46//75 49//70 48//69
