# Blender 4.4.3
# www.blender.org
o fixed_holes_collision_geom_33
v -0.052554 0.097628 0.005931
v -0.052554 0.104342 0.005931
v -0.044548 0.099914 0.005931
v -0.052554 0.097629 0.022307
v -0.052554 0.105208 0.005943
v -0.052539 0.105196 0.005931
v -0.044548 0.102922 0.005931
v -0.044548 0.099919 0.022307
v -0.044548 0.099933 0.022829
v -0.052554 0.097634 0.022432
v -0.052554 0.105207 0.022307
v -0.044548 0.102918 0.022307
v -0.044548 0.099960 0.023113
v -0.052554 0.097657 0.022829
v -0.052554 0.105177 0.022829
v -0.044548 0.102905 0.022829
v -0.044548 0.102910 0.022603
v -0.052554 0.097670 0.022880
v -0.044548 0.100214 0.023195
v -0.052554 0.097861 0.023179
v -0.052554 0.104952 0.023182
v -0.044548 0.102861 0.023128
v -0.044548 0.100420 0.023225
v -0.052554 0.098309 0.023255
v -0.052554 0.097907 0.023193
v -0.052554 0.104497 0.023256
v -0.044548 0.102593 0.023213
v -0.044548 0.102709 0.023177
v -0.044548 0.100689 0.023262
v -0.052554 0.098378 0.023262
v -0.051582 0.104021 0.023260
v -0.044548 0.102117 0.023262
v -0.052554 0.104021 0.023262
v -0.052106 0.104021 0.023262
vn -0.0000 -0.0000 -1.0000
vn 0.2746 -0.9616 0.0001
vn 0.2747 -0.9615 0.0001
vn 0.2749 -0.9615 0.0002
vn -1.0000 -0.0000 -0.0000
vn -1.0000 -0.0009 -0.0000
vn -1.0000 0.0006 -0.0000
vn -1.0000 0.0001 -0.0000
vn -0.5985 0.0110 -0.8010
vn -0.5985 0.0113 -0.8010
vn -0.5985 0.0111 -0.8010
vn 1.0000 -0.0000 -0.0000
vn 1.0000 -0.0001 -0.0000
vn 1.0000 0.0001 -0.0000
vn 0.2750 -0.9614 0.0003
vn 0.2749 -0.9612 0.0245
vn 0.2739 -0.9609 0.0397
vn 0.2348 0.8252 -0.5138
vn 0.2349 0.8252 -0.5138
vn 0.2745 0.9616 0.0001
vn 0.2748 0.9615 0.0002
vn 0.2746 0.9616 0.0001
vn 0.2749 0.9615 0.0003
vn 0.2721 -0.9578 0.0926
vn 0.2729 -0.9604 0.0557
vn 0.2726 0.9605 0.0560
vn 0.2747 0.9612 0.0250
vn 0.2747 0.9612 0.0256
vn 0.2748 0.9612 0.0242
vn 0.2613 -0.9370 0.2318
vn 0.2614 -0.9370 0.2318
vn 0.0891 -0.3100 0.9466
vn 0.0892 -0.3099 0.9466
vn 0.2196 -0.8212 0.5266
vn 0.2195 -0.8212 0.5266
vn 0.2187 0.8237 0.5231
vn 0.2188 0.8237 0.5231
vn 0.2703 0.9526 0.1398
vn 0.0402 -0.1386 0.9895
vn 0.0401 -0.1379 0.9896
vn 0.0401 -0.1378 0.9896
vn 0.0440 -0.1538 0.9871
vn 0.0811 -0.2829 0.9557
vn 0.0810 -0.2829 0.9557
vn 0.0808 -0.2829 0.9557
vn 0.0439 0.1617 0.9859
vn 0.0439 0.1616 0.9859
vn 0.0846 0.2999 0.9502
vn 0.0828 0.2929 0.9526
vn 0.0860 0.3037 0.9489
vn 0.0865 0.3067 0.9479
vn 0.0399 -0.1372 0.9897
vn 0.0286 -0.0994 0.9946
vn 0.0287 -0.0994 0.9946
vn 0.0030 0.0118 0.9999
vn 0.0034 0.0140 0.9999
vn 0.0027 0.0104 0.9999
vn 0.0299 0.1029 0.9942
vn -0.0000 0.0010 1.0000
vn -0.0009 0.0032 1.0000
vn -0.0000 -0.0000 1.0000
s 1
f 1//1 2//1 6//1
f 1//1 6//1 7//1
f 1//1 7//1 3//1
f 1//2 3//3 4//4
f 1//5 4//6 10//7
f 1//5 10//7 14//8
f 1//5 14//8 18//5
f 1//5 18//5 20//5
f 1//5 20//5 25//5
f 1//5 25//5 24//5
f 1//5 24//5 30//5
f 1//5 30//5 33//5
f 1//5 33//5 26//5
f 1//5 26//5 21//5
f 1//5 21//5 15//5
f 1//5 15//5 11//5
f 1//5 11//5 5//5
f 1//5 5//5 2//5
f 2//9 5//10 6//11
f 3//12 7//12 12//12
f 3//12 12//12 17//12
f 3//12 17//12 16//13
f 3//12 16//13 22//12
f 3//12 22//12 28//14
f 3//12 28//14 27//14
f 3//12 27//14 32//12
f 3//12 32//12 29//12
f 3//12 29//12 23//12
f 3//12 23//12 19//12
f 3//12 19//12 13//12
f 3//12 13//12 9//13
f 3//12 9//13 8//14
f 3//3 8//15 4//4
f 4//16 8//16 9//16
f 4//17 9//17 10//17
f 5//18 7//18 6//19
f 5//20 11//21 7//22
f 7//22 11//21 12//23
f 9//24 13//24 14//24
f 9//25 14//25 10//25
f 11//26 15//26 16//26
f 11//27 16//28 17//27
f 11//27 17//27 12//29
f 13//30 18//31 14//30
f 13//32 19//33 20//32
f 13//34 20//34 18//35
f 15//36 21//37 22//36
f 15//38 22//38 16//38
f 19//39 23//40 24//41
f 19//42 24//42 25//42
f 19//43 25//44 20//45
f 21//46 26//47 27//46
f 21//48 27//49 28//50
f 21//48 28//50 22//51
f 23//40 29//52 24//41
f 24//53 29//54 30//53
f 26//55 31//56 32//57
f 26//58 32//58 27//58
f 26//55 33//59 34//60
f 26//55 34//60 31//56
f 29//61 32//57 34//60
f 29//61 34//60 33//59
f 29//61 33//59 30//61
f 31//56 34//60 32//57
