# Blender 4.4.3
# www.blender.org
o fixed_holes_collision_geom_32
v 0.036639 0.010047 0.022307
v 0.036639 0.010047 0.019177
v 0.036625 0.010047 0.022551
v 0.040749 0.009399 0.022307
v 0.040749 0.009399 0.019177
v 0.007716 0.010047 0.019177
v 0.036601 0.010047 0.022850
v 0.040749 0.009365 0.022667
v 0.040749 0.000926 0.019177
v 0.007702 0.009970 0.019177
v 0.009339 0.010047 0.023170
v 0.036343 0.010047 0.023177
v 0.040749 0.009348 0.022830
v 0.040749 0.000926 0.022307
v 0.031369 0.000215 0.019280
v 0.031406 0.000225 0.019177
v 0.006133 0.000239 0.019177
v 0.008889 0.006805 0.023109
v 0.008872 0.006426 0.023129
v 0.008849 0.005950 0.023149
v 0.008828 0.005474 0.023165
v 0.008811 0.004999 0.023174
v 0.009547 0.010047 0.023221
v 0.035869 0.010047 0.023262
v 0.040749 0.009171 0.023177
v 0.040749 0.009227 0.023069
v 0.040749 0.000937 0.022830
v 0.030684 0.000215 0.022830
v 0.031254 0.000215 0.019177
v 0.006133 0.000221 0.019177
v 0.008295 0.000215 0.023169
v 0.008295 0.000239 0.023169
v 0.008317 0.000715 0.023156
v 0.008337 0.001191 0.023140
v 0.008357 0.001666 0.023119
v 0.008373 0.001990 0.023102
v 0.009166 0.005474 0.023249
v 0.009689 0.010047 0.023255
v 0.040749 0.008807 0.023262
v 0.010214 0.010047 0.023262
v 0.040749 0.000950 0.023095
v 0.030495 0.000215 0.023177
v 0.006439 0.000215 0.019177
v 0.006402 0.000215 0.019329
v 0.008625 0.000215 0.023249
v 0.008642 0.000239 0.023253
v 0.008642 0.000715 0.023241
v 0.009166 0.004999 0.023259
v 0.009689 0.009759 0.023260
v 0.010007 0.010047 0.023261
v 0.040749 0.001666 0.023262
v 0.009689 0.009282 0.023261
v 0.009689 0.008807 0.023262
v 0.040749 0.001025 0.023121
v 0.030109 0.000215 0.023262
v 0.030477 0.000215 0.023181
v 0.008642 0.000215 0.023254
v 0.009166 0.004523 0.023261
v 0.040749 0.001340 0.023206
v 0.009166 0.004047 0.023262
v 0.040749 0.001191 0.023180
v 0.009166 0.000215 0.023262
v 0.009139 0.000215 0.023261
vn -0.0000 1.0000 -0.0000
vn -0.0000 1.0000 0.0001
vn 0.1559 0.9878 -0.0002
vn 0.1565 0.9876 0.0088
vn 0.1560 0.9877 0.0097
vn 0.1558 0.9878 -0.0000
vn -0.0000 -0.0000 -1.0000
vn 0.1560 0.9877 0.0123
vn 0.9999 0.0115 -0.0001
vn 1.0000 -0.0000 -0.0000
vn 1.0000 -0.0002 -0.0000
vn 0.1659 0.9816 0.0947
vn 0.1676 0.9812 0.0959
vn 0.1660 0.9815 0.0953
vn -0.9142 0.1616 0.3716
vn -0.9158 0.1505 0.3724
vn -0.9149 0.1564 0.3721
vn 0.1655 0.9775 0.1304
vn 0.1660 0.9813 0.0975
vn 0.0755 -0.9971 -0.0000
vn 0.0746 -0.9951 -0.0652
vn 0.0661 -0.9959 -0.0618
vn 0.0631 -0.9958 -0.0664
vn -0.9161 0.1477 0.3727
vn -0.5989 0.0682 0.7979
vn -0.5636 0.0633 0.8236
vn -0.4398 0.0481 0.8968
vn -0.2613 0.0280 0.9649
vn -0.2697 0.0282 0.9625
vn -0.2642 0.0281 0.9641
vn -0.2402 0.0258 0.9704
vn -0.2394 0.0262 0.9706
vn -0.2401 0.0257 0.9704
vn -0.8941 0.1162 0.4325
vn 0.1318 0.6624 0.7375
vn 0.1743 0.8759 0.4499
vn 0.1742 0.8753 0.4511
vn 0.1743 0.8758 0.4501
vn 0.1745 0.8772 0.4473
vn 0.0712 -0.9973 0.0152
vn 0.0715 -0.9972 0.0219
vn 0.0714 -0.9972 0.0202
vn 0.0711 -0.9974 0.0137
vn -0.0000 -1.0000 -0.0000
vn 0.0626 -0.9956 -0.0696
vn -0.8793 0.0053 0.4763
vn -0.8793 -0.0000 0.4762
vn -0.8793 0.0053 0.4762
vn -0.8793 0.0075 0.4763
vn -0.8784 0.0506 0.4753
vn -0.8782 0.0500 0.4757
vn -0.8783 0.0506 0.4753
vn -0.8782 0.0542 0.4752
vn -0.8793 0.0678 0.4714
vn -0.8784 0.0582 0.4744
vn -0.8787 0.0591 0.4737
vn -0.8795 0.0698 0.4707
vn -0.8822 0.0938 0.4615
vn -0.6890 0.0727 0.7211
vn -0.6890 0.0726 0.7211
vn -0.6468 0.0684 0.7596
vn -0.6090 0.0641 0.7906
vn -0.5830 0.0610 0.8102
vn -0.4979 0.0518 0.8657
vn -0.4979 0.0517 0.8657
vn -0.4688 0.0489 0.8819
vn -0.4688 0.0488 0.8819
vn -0.3937 0.0407 0.9183
vn -0.3937 0.0408 0.9183
vn -0.2719 0.0285 0.9619
vn -0.2349 0.0246 0.9717
vn -0.2374 0.0220 0.9712
vn -0.2296 0.0250 0.9730
vn 0.0576 0.2265 0.9723
vn -0.0000 -0.0000 1.0000
vn -0.0039 0.0031 1.0000
vn -0.0028 0.0005 1.0000
vn 0.0716 -0.9966 0.0409
vn 0.0719 -0.9961 0.0509
vn 0.0718 -0.9963 0.0481
vn 0.0715 -0.9967 0.0390
vn -0.0222 -0.9997 -0.0055
vn -0.0350 -0.9992 0.0173
vn -0.2375 0.0153 0.9713
vn -0.2334 0.0190 0.9722
vn -0.2346 0.0225 0.9718
vn -0.2369 0.0246 0.9712
vn -0.1794 0.0187 0.9836
vn -0.1800 0.0190 0.9835
vn -0.1784 0.0190 0.9838
vn -0.1824 0.0190 0.9830
vn -0.0176 0.0154 0.9997
vn -0.1398 0.0151 0.9901
vn -0.0068 0.0039 1.0000
vn -0.0037 0.0020 1.0000
vn 0.0376 -0.3309 0.9429
vn 0.0376 -0.3310 0.9429
vn 0.0376 -0.3308 0.9429
vn 0.0703 -0.9443 0.3216
vn 0.0708 -0.9525 0.2961
vn 0.0709 -0.9525 0.2961
vn -0.2291 0.0198 0.9732
vn -0.1637 0.0187 0.9863
vn -0.1638 0.0179 0.9863
vn -0.1638 0.0172 0.9863
vn -0.0670 0.0068 0.9977
vn -0.0671 0.0067 0.9977
vn -0.0634 0.0067 0.9980
vn -0.0700 0.0067 0.9975
vn -0.0075 0.0041 1.0000
vn -0.0382 0.0041 0.9993
vn -0.0382 0.0042 0.9993
vn 0.0232 -0.1700 0.9852
vn 0.0233 -0.1722 0.9848
vn 0.0232 -0.1723 0.9848
vn -0.0077 0.0010 1.0000
vn -0.0077 0.0009 1.0000
vn 0.0377 -0.3306 0.9430
vn 0.0234 -0.1725 0.9847
vn -0.0200 0.0005 0.9998
vn -0.0153 -0.0001 0.9999
vn -0.0172 0.0004 0.9999
vn -0.0221 0.0010 0.9998
vn -0.0147 -0.0000 0.9999
s 1
f 1//1 2//1 6//1
f 1//1 6//1 11//1
f 1//1 11//1 23//1
f 1//1 23//1 38//1
f 1//1 38//1 50//1
f 1//1 50//1 40//2
f 1//1 40//2 24//1
f 1//1 24//1 12//1
f 1//1 12//1 7//1
f 1//1 7//1 3//1
f 1//3 3//4 4//5
f 1//3 4//5 5//6
f 1//3 5//6 2//6
f 2//7 5//7 9//7
f 2//7 9//7 16//7
f 2//7 16//7 29//7
f 2//7 29//7 43//7
f 2//7 43//7 30//7
f 2//7 30//7 17//7
f 2//7 17//7 10//7
f 2//7 10//7 6//7
f 3//4 7//8 4//5
f 4//9 8//9 13//9
f 4//10 13//10 26//11
f 4//10 26//11 25//10
f 4//10 25//10 39//10
f 4//10 39//10 51//10
f 4//10 51//10 59//10
f 4//10 59//10 61//10
f 4//10 61//10 54//10
f 4//10 54//10 41//10
f 4//10 41//10 27//10
f 4//10 27//10 14//10
f 4//10 14//10 9//10
f 4//10 9//10 5//10
f 4//12 7//13 8//14
f 6//15 10//16 11//17
f 7//18 12//18 13//18
f 7//13 13//19 8//14
f 9//20 14//20 15//20
f 9//21 15//22 16//23
f 10//16 17//24 11//17
f 11//25 18//25 19//25
f 11//26 19//26 20//26
f 11//27 20//27 21//27
f 11//28 21//29 22//30
f 11//31 22//32 23//33
f 11//34 17//34 18//34
f 12//35 24//35 25//35
f 12//36 25//37 26//38
f 12//36 26//38 13//39
f 14//40 27//41 28//42
f 14//40 28//42 15//43
f 15//44 28//44 42//44
f 15//44 42//44 56//44
f 15//44 56//44 55//44
f 15//44 55//44 62//44
f 15//44 62//44 63//44
f 15//44 63//44 57//44
f 15//44 57//44 45//44
f 15//44 45//44 31//44
f 15//44 31//44 44//44
f 15//44 44//44 43//44
f 15//44 43//44 29//44
f 15//22 29//45 16//23
f 17//46 30//47 31//48
f 17//46 31//48 32//49
f 17//50 32//51 33//52
f 17//50 33//52 34//53
f 17//54 34//55 35//56
f 17//54 35//56 36//57
f 17//58 36//58 18//58
f 18//59 36//60 35//60
f 18//61 35//61 19//61
f 19//62 35//62 20//62
f 20//63 35//63 34//63
f 20//64 34//64 33//65
f 20//66 33//67 21//67
f 21//68 33//69 32//68
f 21//29 32//70 22//30
f 22//32 37//71 23//33
f 22//32 32//72 37//71
f 23//33 37//71 38//73
f 24//74 39//74 25//74
f 24//75 40//76 53//77
f 24//75 53//77 60//75
f 24//75 60//75 62//75
f 24//75 62//75 55//75
f 24//75 55//75 51//75
f 24//75 51//75 39//75
f 27//78 41//79 42//80
f 27//78 42//80 28//81
f 30//82 43//82 44//82
f 30//83 44//83 31//83
f 31//84 45//85 32//72
f 32//72 45//85 46//86
f 32//72 46//86 47//87
f 32//72 47//87 37//71
f 37//88 48//89 38//90
f 37//71 47//87 46//86
f 37//88 46//91 48//89
f 38//92 49//92 50//92
f 38//93 48//93 49//93
f 40//76 50//94 52//95
f 40//76 52//95 53//77
f 41//96 54//97 55//98
f 41//99 55//99 56//99
f 41//100 56//101 42//100
f 45//85 57//102 46//86
f 46//103 57//104 48//105
f 48//106 58//107 49//108
f 48//106 57//109 58//107
f 49//110 52//95 50//94
f 49//111 58//112 52//111
f 51//113 55//114 59//115
f 52//95 58//116 53//77
f 53//77 58//116 60//117
f 54//97 61//118 55//98
f 55//114 61//119 59//115
f 57//120 63//121 60//122
f 57//120 60//122 58//123
f 60//122 63//121 62//124
