# Blender 4.4.3
# www.blender.org
o fixed_holes_collision_geom_15
v 0.046667 0.124774 0.001977
v 0.046667 0.124774 0.010785
v 0.046667 0.135215 0.001977
v 0.051330 0.124774 0.001977
v 0.046667 0.124787 0.010879
v 0.054792 0.124774 0.017267
v 0.046667 0.135215 0.011566
v 0.051330 0.135215 0.001977
v 0.065196 0.124774 0.001980
v 0.054017 0.135215 0.017267
v 0.065881 0.124774 0.017267
v 0.064671 0.135215 0.001980
v 0.065196 0.134012 0.001980
v 0.065367 0.124774 0.002014
v 0.065599 0.135215 0.017267
v 0.065881 0.124774 0.002933
v 0.065881 0.132585 0.017267
v 0.064922 0.135215 0.001988
v 0.065196 0.134488 0.001983
v 0.065597 0.133537 0.002063
v 0.065611 0.133061 0.002063
v 0.065611 0.124774 0.002063
v 0.065614 0.135121 0.017267
v 0.065599 0.135215 0.002933
v 0.065881 0.132585 0.002933
v 0.065821 0.124774 0.002409
v 0.065879 0.133061 0.017267
v 0.065196 0.135215 0.002010
v 0.065196 0.134966 0.001997
v 0.065552 0.134488 0.002068
v 0.065573 0.134012 0.002063
v 0.065821 0.133061 0.002409
v 0.065699 0.124774 0.002206
v 0.065662 0.134785 0.017267
v 0.065592 0.135215 0.002658
v 0.065704 0.134488 0.002933
v 0.065879 0.133061 0.002933
v 0.065857 0.133357 0.017267
v 0.065353 0.135215 0.002052
v 0.065526 0.134966 0.002082
v 0.065788 0.133537 0.002409
v 0.065841 0.133537 0.017267
v 0.065841 0.133537 0.002933
v 0.065580 0.135215 0.002409
v 0.065615 0.134966 0.002409
v 0.065511 0.135215 0.002094
v 0.065552 0.135215 0.002250
v 0.065674 0.134488 0.002409
vn -1.0000 -0.0000 -0.0000
vn -1.0000 -0.0008 -0.0000
vn -0.0000 -0.0000 -1.0000
vn 0.0001 -0.0000 -1.0000
vn -0.0000 -0.9999 0.0168
vn -0.0000 -1.0000 -0.0000
vn -0.0000 -1.0000 -0.0001
vn -0.0000 -1.0000 0.0001
vn -0.1111 -0.9840 0.1393
vn -0.0000 1.0000 -0.0000
vn -0.0000 1.0000 -0.0001
vn -0.0000 1.0000 0.0005
vn -0.0000 1.0000 -0.0008
vn -0.0000 1.0000 -0.0013
vn -0.0000 1.0000 0.0031
vn -0.0000 1.0000 0.0082
vn 0.0002 -0.0000 -1.0000
vn -0.6173 -0.0517 0.7850
vn -0.6125 -0.0458 0.7891
vn -0.6175 -0.0511 0.7849
vn -0.6122 -0.0454 0.7894
vn -0.0000 -0.0000 1.0000
vn 0.0002 0.0001 -1.0000
vn 0.1972 -0.0000 -0.9804
vn 0.1984 -0.0001 -0.9801
vn 0.1988 -0.0000 -0.9800
vn 1.0000 -0.0000 -0.0000
vn 1.0000 0.0005 -0.0000
vn 1.0000 0.0042 -0.0000
vn 0.0359 0.0197 -0.9992
vn 0.0359 0.0198 -0.9992
vn 0.0215 0.0095 -0.9997
vn 0.0216 0.0094 -0.9997
vn 0.0216 0.0093 -0.9997
vn 0.2149 0.0082 -0.9766
vn 0.2184 0.0110 -0.9758
vn 0.2173 0.0097 -0.9761
vn 0.2114 0.0058 -0.9774
vn 0.1992 -0.0000 -0.9800
vn 0.1995 -0.0000 -0.9799
vn 0.9874 0.1584 -0.0000
vn 0.9885 0.1513 -0.0001
vn 0.9886 0.1509 -0.0000
vn 0.9935 -0.0000 -0.1139
vn 0.9935 0.0005 -0.1140
vn 0.9938 0.0035 -0.1114
vn 1.0000 0.0041 -0.0000
vn 1.0000 0.0040 -0.0000
vn 0.0814 0.0536 -0.9952
vn 0.0583 0.0282 -0.9979
vn 0.2281 0.0224 -0.9734
vn 0.2294 0.0276 -0.9729
vn 0.2274 0.0231 -0.9735
vn 0.2294 0.0191 -0.9731
vn 0.2201 0.0112 -0.9754
vn 0.7618 0.0390 -0.6466
vn 0.7618 0.0391 -0.6466
vn 0.8649 0.0434 -0.5001
vn 0.8538 0.0239 -0.5201
vn 0.8537 0.0239 -0.5201
vn 0.8493 -0.0000 -0.5280
vn 0.8539 0.0002 -0.5204
vn 0.8564 0.0001 -0.5163
vn 0.8548 0.0002 -0.5189
vn 0.9897 0.1433 -0.0001
vn 0.9893 0.1435 -0.0271
vn 0.9893 0.1432 -0.0284
vn 0.9939 0.0040 -0.1106
vn 0.8573 -0.0000 -0.5148
vn 0.9971 0.0756 -0.0000
vn 0.9970 0.0770 -0.0000
vn 0.9970 0.0771 -0.0002
vn 0.2503 0.0520 -0.9668
vn 0.2503 0.0522 -0.9668
vn 0.2521 0.0514 -0.9663
vn 0.2521 0.0490 -0.9665
vn 0.2507 0.0441 -0.9671
vn 0.8905 0.0613 -0.4509
vn 0.8906 0.0611 -0.4507
vn 0.8902 0.0599 -0.4516
vn 0.8938 0.0633 -0.4440
vn 0.9916 0.0668 -0.1104
vn 0.9916 0.0668 -0.1103
vn 0.9899 0.1419 -0.0000
vn 0.9898 0.1423 -0.0000
vn 0.9893 0.1427 -0.0294
vn 0.9890 0.1410 -0.0441
vn 0.9891 0.1403 -0.0435
vn 0.9890 0.1411 -0.0441
vn 0.9889 0.1416 -0.0449
vn 0.9919 0.0783 -0.0998
vn 0.9966 0.0818 -0.0000
vn 0.9965 0.0836 -0.0000
vn 0.2644 0.0621 -0.9624
vn 0.9098 0.0744 -0.4083
vn 0.9098 0.0743 -0.4083
vn 0.9604 0.1115 -0.2552
vn 0.9701 0.1169 -0.2127
vn 0.9706 0.1176 -0.2102
vn 0.9711 0.1182 -0.2073
vn 0.9879 0.1190 -0.0993
vn 0.9879 0.1199 -0.0981
vn 0.9880 0.1204 -0.0970
vn 0.9880 0.1210 -0.0959
vn 0.9749 0.1395 -0.1734
vn 0.9716 0.1190 -0.2046
s 1
f 1//1 2//2 5//1
f 1//1 5//1 7//1
f 1//1 7//1 3//1
f 1//3 3//3 8//4
f 1//3 8//4 4//4
f 1//5 4//5 9//5
f 1//6 9//7 14//7
f 1//6 14//7 22//8
f 1//6 22//8 33//6
f 1//6 33//6 26//6
f 1//6 26//6 16//6
f 1//6 16//6 11//6
f 1//6 11//6 6//6
f 1//6 6//6 2//6
f 2//9 6//9 5//9
f 3//10 7//10 10//10
f 3//10 10//10 15//10
f 3//10 15//10 24//10
f 3//10 24//10 35//10
f 3//10 35//10 44//10
f 3//10 44//10 47//10
f 3//10 47//10 46//11
f 3//10 46//11 39//12
f 3//10 39//12 28//13
f 3//10 28//13 18//14
f 3//10 18//14 12//15
f 3//10 12//15 8//16
f 4//4 8//4 13//17
f 4//4 13//17 9//17
f 5//18 6//19 7//20
f 6//19 10//21 7//20
f 6//22 11//22 17//22
f 6//22 17//22 27//22
f 6//22 27//22 38//22
f 6//22 38//22 42//22
f 6//22 42//22 34//22
f 6//22 34//22 23//22
f 6//22 23//22 15//22
f 6//22 15//22 10//22
f 8//4 12//23 13//17
f 9//24 13//25 14//26
f 11//27 16//27 25//28
f 11//27 25//28 17//29
f 12//30 18//31 19//31
f 12//32 19//33 13//34
f 13//35 19//36 20//37
f 13//35 20//37 21//38
f 13//25 21//39 14//26
f 14//26 21//39 22//40
f 15//41 23//42 24//43
f 16//44 26//44 32//45
f 16//44 32//45 25//46
f 17//29 25//28 37//47
f 17//29 37//47 27//48
f 18//49 28//49 29//49
f 18//50 29//50 19//50
f 19//51 29//52 30//53
f 19//51 30//53 31//54
f 19//36 31//55 20//37
f 20//56 31//57 30//57
f 20//58 30//58 32//58
f 20//59 32//59 21//60
f 21//61 33//61 22//61
f 21//62 32//63 33//64
f 23//42 34//65 24//43
f 24//43 34//65 36//65
f 24//66 36//67 35//67
f 25//46 32//45 37//68
f 26//69 33//64 32//63
f 27//70 37//71 38//72
f 28//73 39//74 29//75
f 29//75 39//74 40//76
f 29//75 40//76 30//77
f 30//78 41//79 32//80
f 30//78 40//81 41//79
f 32//82 41//82 37//83
f 34//65 42//84 43//85
f 34//65 43//85 36//65
f 35//67 36//67 43//86
f 35//87 43//88 45//89
f 35//87 45//89 44//90
f 37//91 41//91 43//91
f 37//71 43//92 38//72
f 38//72 43//92 42//93
f 39//94 46//94 40//94
f 40//95 46//95 41//96
f 41//97 46//97 47//97
f 41//98 47//99 48//100
f 41//101 48//102 43//103
f 43//103 48//102 45//104
f 44//105 45//105 47//105
f 45//106 48//100 47//99
