# Blender 4.4.3
# www.blender.org
o fixed_holes_collision_geom_95
v -0.033993 0.067055 0.005931
v -0.032124 0.062448 0.005931
v -0.033993 0.067057 0.022307
v -0.033993 0.080031 0.005931
v -0.010755 0.062448 0.005931
v -0.032122 0.062448 0.022307
v -0.033993 0.067088 0.022716
v -0.033993 0.080031 0.022514
v -0.031178 0.088989 0.005931
v -0.010755 0.062448 0.019404
v -0.010755 0.088989 0.005931
v -0.032098 0.062448 0.022829
v -0.033993 0.067099 0.022829
v -0.033993 0.080023 0.022621
v -0.031175 0.088989 0.022307
v -0.031178 0.088989 0.022003
v -0.011831 0.062448 0.022829
v -0.010755 0.088989 0.019404
v -0.032010 0.062448 0.023153
v -0.033993 0.067408 0.023167
v -0.033993 0.080005 0.022780
v -0.031139 0.088989 0.022829
v -0.033993 0.079989 0.022901
v -0.011955 0.062448 0.023174
v -0.011831 0.088989 0.022829
v -0.031682 0.062448 0.023239
v -0.033993 0.067844 0.023232
v -0.030997 0.088989 0.023174
v -0.033993 0.079976 0.022936
v -0.033993 0.079706 0.023170
v -0.012309 0.062448 0.023259
v -0.011955 0.088989 0.023174
v -0.031156 0.062448 0.023262
v -0.031682 0.062607 0.023248
v -0.033993 0.068317 0.023259
v -0.030631 0.088989 0.023259
v -0.033993 0.079603 0.023194
v -0.033993 0.079067 0.023260
v -0.012834 0.062448 0.023262
v -0.012309 0.088989 0.023259
v -0.031682 0.063558 0.023262
v -0.031682 0.063082 0.023260
v -0.033776 0.067841 0.023260
v -0.033993 0.068795 0.023262
v -0.030110 0.088989 0.023262
v -0.033776 0.079262 0.023262
v -0.033993 0.078592 0.023262
v -0.012834 0.088989 0.023262
vn -0.9265 -0.3763 0.0002
vn -0.9266 -0.3760 0.0001
vn -0.9265 -0.3762 0.0001
vn -1.0000 -0.0000 -0.0000
vn -1.0000 0.0001 -0.0000
vn -1.0000 -0.0003 -0.0000
vn -1.0000 -0.0001 -0.0000
vn -0.0000 -0.0000 -1.0000
vn -0.0000 -1.0000 -0.0000
vn -0.9261 -0.3761 0.0285
vn -0.9258 -0.3765 0.0328
vn -0.9260 -0.3764 0.0294
vn -0.9540 0.2998 -0.0000
vn -0.9539 0.3002 0.0051
vn -0.9539 0.3000 -0.0000
vn 1.0000 -0.0000 -0.0000
vn -0.9253 -0.3770 0.0403
vn -0.9254 -0.3771 0.0393
vn -0.9535 0.3005 0.0219
vn -0.9538 0.3002 0.0074
vn -0.0000 1.0000 -0.0000
vn 0.9540 -0.0000 0.2997
vn -0.8977 -0.3657 0.2457
vn -0.8786 -0.3523 0.3225
vn -0.9531 0.3007 0.0344
vn -0.9530 0.3009 0.0350
vn -0.9527 0.3019 0.0347
vn -0.9528 0.3010 0.0392
vn -0.9510 0.3021 0.0664
vn 0.9419 -0.0000 0.3360
vn 0.9418 -0.0000 0.3360
vn -0.2493 -0.1057 0.9626
vn -0.2493 -0.1056 0.9626
vn -0.3376 -0.1375 0.9312
vn -0.3376 -0.1376 0.9312
vn -0.9471 0.3013 0.1101
vn -0.8979 0.2883 0.3326
vn -0.8867 0.2860 0.3632
vn 0.2326 -0.0000 0.9726
vn -0.0451 -0.0636 0.9970
vn -0.0450 -0.0636 0.9970
vn -0.1507 -0.0632 0.9866
vn -0.1507 -0.0631 0.9866
vn -0.1507 -0.0633 0.9866
vn -0.1359 -0.0567 0.9891
vn -0.5686 0.1832 0.8019
vn -0.5687 0.1831 0.8019
vn -0.3533 0.1148 0.9284
vn -0.2249 0.0763 0.9714
vn 0.0067 -0.0000 1.0000
vn 0.0001 -0.0000 1.0000
vn -0.0012 -0.0005 1.0000
vn 0.0005 -0.0001 1.0000
vn -0.0024 0.0011 1.0000
vn -0.0072 0.0021 1.0000
vn -0.0060 -0.0025 1.0000
vn -0.0018 -0.0011 1.0000
vn -0.0081 -0.0036 1.0000
vn -0.0332 -0.0249 0.9991
vn -0.0565 -0.0249 0.9981
vn -0.1064 -0.0449 0.9933
vn -0.0234 -0.0071 0.9997
vn -0.0101 0.0036 0.9999
vn -0.0113 0.0039 0.9999
vn -0.0084 -0.0037 1.0000
s 1
f 1//1 2//2 3//3
f 1//4 3//5 7//6
f 1//4 7//6 13//4
f 1//4 13//4 20//4
f 1//4 20//4 27//4
f 1//4 27//4 35//4
f 1//4 35//4 44//4
f 1//4 44//4 47//4
f 1//4 47//4 38//4
f 1//4 38//4 37//4
f 1//4 37//4 30//4
f 1//4 30//4 29//7
f 1//4 29//7 23//7
f 1//4 23//7 21//4
f 1//4 21//4 14//4
f 1//4 14//4 8//4
f 1//4 8//4 4//4
f 1//8 4//8 9//8
f 1//8 9//8 11//8
f 1//8 11//8 5//8
f 1//8 5//8 2//8
f 2//9 5//9 10//9
f 2//9 10//9 17//9
f 2//9 17//9 24//9
f 2//9 24//9 31//9
f 2//9 31//9 39//9
f 2//9 39//9 33//9
f 2//9 33//9 26//9
f 2//9 26//9 19//9
f 2//9 19//9 12//9
f 2//9 12//9 6//9
f 2//2 6//3 3//3
f 3//10 6//11 7//12
f 4//13 8//14 16//15
f 4//13 16//15 9//13
f 5//16 11//16 18//16
f 5//16 18//16 10//16
f 6//11 12//17 13//18
f 6//11 13//18 7//12
f 8//19 14//19 15//19
f 8//14 15//20 16//15
f 9//21 16//21 15//21
f 9//21 15//21 22//21
f 9//21 22//21 28//21
f 9//21 28//21 36//21
f 9//21 36//21 45//21
f 9//21 45//21 48//21
f 9//21 48//21 40//21
f 9//21 40//21 32//21
f 9//21 32//21 25//21
f 9//21 25//21 18//21
f 9//21 18//21 11//21
f 10//22 18//22 25//22
f 10//22 25//22 17//22
f 12//23 19//23 13//23
f 13//24 19//24 20//24
f 14//25 21//26 15//27
f 15//27 21//26 23//28
f 15//29 23//29 22//29
f 17//30 25//30 32//31
f 17//30 32//31 24//31
f 19//32 26//33 27//33
f 19//34 27//34 20//35
f 22//36 23//36 29//36
f 22//37 29//37 30//37
f 22//38 30//38 28//38
f 24//39 32//39 40//39
f 24//39 40//39 31//39
f 26//40 33//41 34//40
f 26//42 34//43 27//44
f 27//45 34//45 35//45
f 28//46 30//46 37//47
f 28//48 37//48 38//48
f 28//49 38//49 36//49
f 31//50 40//50 48//51
f 31//50 48//51 39//51
f 33//52 39//51 48//51
f 33//52 48//51 45//53
f 33//52 45//53 46//54
f 33//52 46//54 47//55
f 33//52 47//55 44//56
f 33//52 44//56 41//57
f 33//52 41//57 42//58
f 33//59 42//59 34//59
f 34//60 42//60 43//60
f 34//61 43//61 35//61
f 35//62 43//62 44//62
f 36//63 38//64 46//54
f 36//63 46//54 45//53
f 38//64 47//55 46//54
f 41//57 44//56 42//58
f 42//58 44//56 43//65
