# Blender 4.4.3
# www.blender.org
o fixed_holes_collision_geom_101
v 0.003246 -0.143084 0.002932
v 0.003246 -0.143084 0.015101
v 0.003246 -0.143042 0.002408
v 0.040749 -0.143084 0.002932
v 0.012489 -0.143084 0.015102
v 0.003246 -0.134350 0.015101
v 0.040749 -0.143042 0.002408
v 0.003246 -0.142912 0.002061
v 0.012489 -0.142959 0.002182
v 0.040749 -0.143084 0.015102
v 0.012489 -0.130687 0.015102
v 0.003264 -0.134102 0.015101
v 0.003250 -0.082926 0.015077
v 0.003246 -0.116912 0.015079
v 0.040749 -0.142912 0.002061
v 0.003246 -0.142813 0.002036
v 0.040749 -0.117760 0.015102
v 0.021855 -0.116912 0.015102
v 0.015959 -0.082921 0.015101
v 0.015625 -0.082921 0.015100
v 0.015074 -0.082921 0.015077
v 0.003250 -0.082926 0.002715
v 0.003246 -0.116912 0.001976
v 0.040749 -0.142576 0.001976
v 0.003246 -0.142576 0.001976
v 0.040749 -0.116912 0.013859
v 0.040745 -0.082932 0.010912
v 0.040745 -0.083733 0.011625
v 0.040745 -0.084039 0.011882
v 0.040745 -0.084322 0.012098
v 0.040745 -0.084440 0.012185
v 0.040745 -0.084793 0.012428
v 0.040745 -0.084928 0.012516
v 0.040745 -0.085099 0.012619
v 0.040745 -0.085459 0.012826
v 0.040745 -0.085924 0.013059
v 0.040745 -0.086336 0.013246
v 0.040745 -0.086395 0.013268
v 0.040745 -0.086766 0.013408
v 0.040745 -0.086896 0.013453
v 0.040745 -0.087202 0.013550
v 0.040745 -0.087337 0.013590
v 0.040745 -0.087832 0.013712
v 0.040745 -0.088326 0.013809
v 0.040745 -0.088656 0.013840
v 0.040745 -0.088797 0.013853
v 0.038069 -0.088797 0.015101
v 0.038065 -0.088768 0.015101
v 0.037988 -0.088321 0.015101
v 0.037852 -0.087884 0.015101
v 0.037757 -0.087637 0.015101
v 0.037643 -0.087367 0.015101
v 0.037383 -0.086854 0.015101
v 0.037246 -0.086619 0.015101
v 0.037125 -0.086419 0.015101
v 0.036806 -0.085924 0.015101
v 0.036406 -0.085412 0.015101
v 0.036205 -0.085165 0.015101
v 0.036021 -0.084963 0.015101
v 0.035647 -0.084558 0.015101
v 0.035139 -0.084069 0.015101
v 0.033862 -0.082926 0.015101
v 0.038076 -0.116912 0.015102
v 0.030484 -0.082921 0.015101
v 0.015074 -0.082921 0.001976
v 0.003250 -0.082938 0.001976
v 0.003257 -0.082926 0.001976
v 0.040749 -0.116912 0.001976
v 0.040745 -0.082932 0.001976
v 0.038961 -0.082926 0.011443
v 0.030484 -0.082921 0.001976
v 0.038961 -0.082926 0.001976
vn -1.0000 -0.0000 -0.0000
vn -1.0000 0.0001 -0.0000
vn -0.0000 -0.9969 -0.0783
vn -0.0000 -1.0000 -0.0000
vn -0.0001 -0.0000 1.0000
vn -0.0035 0.0002 1.0000
vn -0.0000 -0.9389 -0.3443
vn -0.0002 -0.9368 -0.3499
vn -0.0000 -0.9371 -0.3490
vn -0.0000 -0.9389 -0.3442
vn 1.0000 -0.0000 -0.0000
vn 1.0000 0.0001 -0.0000
vn 1.0000 0.0001 0.0007
vn -0.0000 -0.0000 1.0000
vn 0.0005 0.0001 1.0000
vn -0.0006 0.0002 1.0000
vn -0.0046 0.0004 1.0000
vn -0.9961 0.0001 0.0886
vn 0.0001 -0.9368 -0.3498
vn 0.0009 -0.9322 -0.3620
vn -0.0000 -0.9318 -0.3629
vn -0.0000 -0.2479 -0.9688
vn -0.0000 -0.2463 -0.9692
vn -0.0000 -0.2472 -0.9690
vn -0.0008 0.9735 0.2286
vn -0.0005 1.0000 0.0079
vn -0.0004 1.0000 0.0086
vn -0.0001 1.0000 -0.0013
vn -0.0002 1.0000 -0.0000
vn -0.0005 1.0000 -0.0000
vn -0.0000 -0.2438 -0.9698
vn -0.0000 -0.2436 -0.9699
vn 1.0000 0.0001 0.0001
vn 1.0000 0.0001 0.0002
vn 1.0000 0.0001 0.0003
vn 1.0000 0.0001 0.0004
vn 1.0000 0.0001 0.0005
vn 1.0000 0.0001 0.0006
vn 1.0000 0.0002 0.0019
vn 1.0000 0.0002 0.0023
vn 1.0000 0.0002 0.0030
vn 0.4222 0.0391 0.9057
vn 0.4221 0.0478 0.9053
vn 0.4222 0.0517 0.9050
vn 0.0048 0.0002 1.0000
vn 0.0014 0.0002 1.0000
vn 0.0002 0.0001 1.0000
vn 0.0001 0.0001 1.0000
vn 0.0001 -0.0000 1.0000
vn -0.0000 1.0000 -0.0000
vn 0.0015 1.0000 0.0013
vn 0.0003 1.0000 -0.0000
vn -0.8487 0.5289 -0.0084
vn -0.0000 -0.0000 -1.0000
vn 0.0043 1.0000 0.0056
vn 0.0036 1.0000 -0.0000
vn 0.0008 1.0000 -0.0000
vn 0.0012 1.0000 0.0003
vn 0.0047 1.0000 0.0067
vn 0.4142 0.6052 0.6798
vn 0.4195 0.5835 0.6954
vn 0.4252 0.5494 0.7193
vn 0.4260 0.5408 0.7253
vn 0.4252 0.5490 0.7196
vn 0.4263 0.5389 0.7265
vn 0.4281 0.5116 0.7450
vn 0.4276 0.4903 0.7594
vn 0.4278 0.4902 0.7594
vn 0.4278 0.4903 0.7594
vn 0.4277 0.4735 0.7700
vn 0.4273 0.4778 0.7676
vn 0.4283 0.4696 0.7720
vn 0.4285 0.4657 0.7743
vn 0.4294 0.4509 0.7825
vn 0.4294 0.4491 0.7835
vn 0.4293 0.4469 0.7848
vn 0.4293 0.4449 0.7859
vn 0.4313 0.4051 0.8061
vn 0.4311 0.4031 0.8073
vn 0.4308 0.3977 0.8101
vn 0.4308 0.3958 0.8110
vn 0.4309 0.3950 0.8114
vn 0.4317 0.3716 0.8219
vn 0.4317 0.3715 0.8219
vn 0.4302 0.3323 0.8394
vn 0.4302 0.3318 0.8395
vn 0.4305 0.3293 0.8404
vn 0.4304 0.3513 0.8315
vn 0.4298 0.3356 0.8383
vn 0.4308 0.3185 0.8443
vn 0.4297 0.2960 0.8531
vn 0.4298 0.2960 0.8531
vn 0.4280 0.2749 0.8610
vn 0.4279 0.2765 0.8605
vn 0.4281 0.2729 0.8615
vn 0.4281 0.2714 0.8620
vn 0.4269 0.2558 0.8674
vn 0.4271 0.2585 0.8664
vn 0.4268 0.2501 0.8690
vn 0.4266 0.2497 0.8693
vn 0.4265 0.2460 0.8704
vn 0.4259 0.2170 0.8783
vn 0.4258 0.2165 0.8785
vn 0.4258 0.2166 0.8785
vn 0.4243 0.1767 0.8881
vn 0.4241 0.1675 0.8900
vn 0.4236 0.1668 0.8904
vn 0.4242 0.1783 0.8878
vn 0.4230 0.1632 0.8913
vn 0.4211 0.1311 0.8975
vn 0.4230 0.0875 0.9019
vn 0.4227 0.0825 0.9025
vn 0.4240 0.0869 0.9015
vn 0.4220 0.0760 0.9034
vn 0.4216 0.0726 0.9039
vn 0.4220 0.0523 0.9051
s 1
f 1//1 2//1 6//1
f 1//1 6//1 14//2
f 1//1 14//2 23//2
f 1//1 23//2 25//1
f 1//1 25//1 16//1
f 1//1 16//1 8//1
f 1//1 8//1 3//1
f 1//3 3//3 7//3
f 1//3 7//3 4//3
f 1//4 4//4 10//4
f 1//4 10//4 5//4
f 1//4 5//4 2//4
f 2//5 5//5 11//5
f 2//5 11//5 6//6
f 3//7 8//8 9//9
f 3//7 9//9 7//10
f 4//11 7//11 15//11
f 4//11 15//11 24//11
f 4//11 24//11 68//12
f 4//11 68//12 26//12
f 4//11 26//12 17//13
f 4//11 17//13 10//11
f 5//5 10//14 17//15
f 5//5 17//15 63//14
f 5//5 63//14 18//14
f 5//5 18//14 11//5
f 6//6 11//5 12//16
f 6//6 12//16 13//17
f 6//18 13//18 14//18
f 7//10 9//9 15//19
f 8//20 15//21 9//21
f 8//22 16//23 15//24
f 11//5 18//14 19//5
f 11//5 19//5 12//16
f 12//16 19//5 13//17
f 13//25 19//25 20//25
f 13//26 20//27 21//28
f 13//26 21//28 65//29
f 13//26 65//29 22//30
f 13//2 22//2 23//2
f 13//2 23//2 14//2
f 15//24 16//23 24//31
f 16//23 25//32 24//31
f 17//13 26//12 27//12
f 17//13 27//12 28//33
f 17//13 28//33 29//33
f 17//13 29//33 30//34
f 17//13 30//34 31//34
f 17//13 31//34 32//34
f 17//13 32//34 33//34
f 17//13 33//34 34//34
f 17//13 34//34 35//34
f 17//13 35//34 36//35
f 17//13 36//35 37//35
f 17//13 37//35 38//36
f 17//13 38//36 39//36
f 17//13 39//36 40//36
f 17//13 40//36 41//36
f 17//13 41//36 42//37
f 17//13 42//37 43//38
f 17//13 43//38 44//39
f 17//13 44//39 45//40
f 17//13 45//40 46//41
f 17//42 46//43 47//44
f 17//15 47//45 48//46
f 17//15 48//46 49//47
f 17//15 49//47 50//48
f 17//15 50//48 51//48
f 17//15 51//48 52//49
f 17//15 52//49 53//49
f 17//15 53//49 54//49
f 17//15 54//49 55//49
f 17//15 55//49 56//49
f 17//15 56//49 57//49
f 17//15 57//49 58//49
f 17//15 58//49 59//14
f 17//15 59//14 60//14
f 17//15 60//14 61//14
f 17//15 61//14 62//14
f 17//15 62//14 63//14
f 18//14 63//14 64//14
f 18//14 64//14 19//5
f 19//50 64//51 71//52
f 19//50 71//52 65//29
f 19//50 65//29 21//28
f 19//50 21//28 20//27
f 22//2 66//2 23//2
f 22//30 65//29 67//30
f 22//53 67//53 66//53
f 23//54 66//54 67//54
f 23//54 67//54 65//54
f 23//54 65//54 71//54
f 23//54 71//54 72//54
f 23//54 72//54 69//54
f 23//54 69//54 68//54
f 23//54 68//54 24//54
f 23//54 24//54 25//54
f 26//12 68//12 69//12
f 26//12 69//12 27//12
f 27//55 69//56 72//57
f 27//55 72//57 70//58
f 27//55 70//58 62//59
f 27//60 62//60 28//60
f 28//61 62//61 29//61
f 29//62 62//63 30//64
f 30//64 62//63 31//65
f 31//66 62//66 32//66
f 32//67 62//68 33//69
f 33//70 62//71 61//72
f 33//70 61//72 34//73
f 34//74 61//75 35//76
f 35//76 61//75 60//77
f 35//78 60//79 36//80
f 36//80 60//79 59//81
f 36//80 59//81 58//82
f 36//83 58//84 37//84
f 37//85 56//86 38//87
f 37//88 58//88 57//88
f 37//85 57//89 56//86
f 38//90 56//90 39//90
f 39//91 56//91 40//92
f 40//93 56//94 55//95
f 40//93 55//95 41//96
f 41//97 55//98 54//99
f 41//97 54//99 42//100
f 42//100 54//99 53//101
f 42//102 53//103 43//104
f 43//105 51//106 44//107
f 43//104 53//103 52//103
f 43//105 52//108 51//106
f 44//107 51//106 50//109
f 44//110 50//110 49//110
f 44//111 49//112 45//113
f 45//113 49//112 46//114
f 46//114 49//112 48//115
f 46//43 48//116 47//44
f 62//59 70//58 64//51
f 62//14 64//14 63//14
f 64//51 70//58 72//57
f 64//51 72//57 71//52
