# Blender 4.4.3
# www.blender.org
o fixed_holes_collision_geom_50
v 0.035548 -0.038199 0.013286
v 0.035548 -0.038199 0.001976
v 0.040748 -0.038199 0.010791
v 0.044291 -0.038001 0.010516
v 0.044294 -0.019516 0.010513
v 0.035548 -0.019061 0.013265
v 0.040748 -0.038199 0.001976
v 0.035548 -0.019061 0.001976
v 0.044294 -0.038001 0.009863
v 0.044294 -0.037847 0.010513
v 0.044294 -0.019516 0.001976
v 0.040748 -0.019061 0.010786
v 0.044294 -0.038001 0.001976
v 0.040748 -0.019061 0.001976
vn -0.0000 -1.0000 -0.0000
vn 0.0661 -0.9883 0.1376
vn 0.3005 0.0010 0.9538
vn 0.3020 0.0001 0.9533
vn 0.3017 0.0005 0.9534
vn 0.3002 0.0011 0.9539
vn -1.0000 -0.0000 -0.0000
vn -0.0000 -0.0000 -1.0000
vn 0.0557 -0.9984 -0.0000
vn 0.0561 -0.9984 0.0001
vn 0.0558 -0.9984 0.0003
vn 0.9997 -0.0223 0.0052
vn 0.7918 -0.0003 0.6108
vn 0.7918 -0.0002 0.6108
vn 0.7918 -0.0000 0.6108
vn 1.0000 -0.0000 -0.0000
vn 0.1272 0.9919 -0.0000
vn 0.1275 0.9918 -0.0000
vn 0.1444 0.9420 0.3029
vn -0.0000 1.0000 -0.0000
s 1
f 1//1 2//1 7//1
f 1//1 7//1 3//1
f 1//2 3//2 4//2
f 1//3 4//4 5//5
f 1//3 5//5 6//6
f 1//7 6//7 8//7
f 1//7 8//7 2//7
f 2//8 8//8 14//8
f 2//8 14//8 11//8
f 2//8 11//8 13//8
f 2//8 13//8 7//8
f 3//9 7//9 13//9
f 3//9 13//9 9//10
f 3//9 9//10 4//11
f 4//12 9//12 10//12
f 4//13 10//14 5//15
f 5//16 10//16 9//16
f 5//16 9//16 13//16
f 5//16 13//16 11//16
f 5//17 11//18 14//18
f 5//17 14//18 12//17
f 5//19 12//19 6//19
f 6//20 12//20 14//20
f 6//20 14//20 8//20
