# Blender 4.4.3
# www.blender.org
o fixed_holes_collision_geom_60
v 0.038692 0.115435 0.001976
v 0.043922 0.115435 0.001976
v 0.038692 0.115435 0.011427
v 0.035541 0.115457 0.001977
v 0.038692 0.124774 0.001976
v 0.043922 0.124774 0.001976
v 0.043922 0.115435 0.010492
v 0.035541 0.115457 0.013271
v 0.035541 0.124774 0.001977
v 0.043922 0.124774 0.010489
v 0.035541 0.124774 0.013271
vn -0.0036 -1.0000 -0.0000
vn -0.0000 -1.0000 -0.0000
vn -0.0004 -1.0000 -0.0000
vn -0.0071 -1.0000 -0.0000
vn -0.0002 -0.0000 -1.0000
vn -0.0004 -0.0000 -1.0000
vn -0.0000 -0.0000 -1.0000
vn 1.0000 -0.0000 -0.0000
vn 0.0031 -0.9998 0.0171
vn -1.0000 -0.0000 -0.0000
vn -0.0000 1.0000 -0.0000
vn 0.3148 0.0001 0.9492
vn 0.3149 0.0002 0.9491
vn 0.3148 0.0001 0.9491
vn 0.3147 -0.0000 0.9492
s 1
f 1//1 2//2 7//2
f 1//1 7//2 3//3
f 1//1 3//3 8//4
f 1//1 8//4 4//4
f 1//5 4//6 9//6
f 1//5 9//6 5//5
f 1//5 5//5 6//7
f 1//5 6//7 2//7
f 2//8 6//8 10//8
f 2//8 10//8 7//8
f 3//9 7//9 8//9
f 4//10 8//10 11//10
f 4//10 11//10 9//10
f 5//11 9//11 11//11
f 5//11 11//11 10//11
f 5//11 10//11 6//11
f 7//12 10//13 11//14
f 7//12 11//14 8//15
