# Blender 4.4.3
# www.blender.org
o fixed_holes_collision_geom_48
v 0.065196 0.047369 0.023262
v 0.054203 0.047369 0.023262
v 0.065196 0.025476 0.023262
v 0.065611 0.047365 0.023176
v 0.065613 0.047369 0.023174
v 0.053678 0.047369 0.023214
v 0.054203 0.025476 0.023262
v 0.065613 0.025476 0.023173
v 0.065611 0.025950 0.023176
v 0.065821 0.025950 0.022830
v 0.065821 0.047365 0.022830
v 0.065823 0.047369 0.022827
v 0.053384 0.047369 0.023128
v 0.053382 0.025476 0.023128
v 0.053678 0.025476 0.023214
v 0.065823 0.025476 0.022824
v 0.065879 0.025950 0.022305
v 0.065879 0.047365 0.022305
v 0.065879 0.047369 0.022303
v 0.047918 0.047369 0.014503
v 0.047846 0.047365 0.014469
v 0.047846 0.025478 0.014478
v 0.052156 0.025476 0.018640
v 0.065879 0.025476 0.022302
v 0.065881 0.025478 0.018245
v 0.065881 0.047365 0.018245
v 0.065881 0.047369 0.018114
v 0.047846 0.047369 0.012707
v 0.047846 0.025478 0.001976
v 0.053636 0.025476 0.018245
v 0.065879 0.025476 0.018245
v 0.065881 0.025478 0.003452
v 0.065881 0.047369 0.003453
v 0.047846 0.047369 0.002365
v 0.065191 0.025478 0.001976
v 0.047846 0.047365 0.001976
v 0.065606 0.025478 0.002062
v 0.065819 0.025478 0.002406
v 0.065879 0.025478 0.002928
v 0.065881 0.025952 0.002933
v 0.065879 0.047369 0.002931
v 0.065881 0.047365 0.002933
v 0.047914 0.047369 0.001976
v 0.065196 0.025952 0.001976
v 0.065610 0.025952 0.002066
v 0.065607 0.047369 0.002062
v 0.065821 0.047369 0.002408
v 0.065821 0.025952 0.002409
v 0.065194 0.047369 0.001976
v 0.065196 0.047365 0.001976
vn -0.0000 -0.0000 1.0000
vn 0.2018 -0.0000 0.9794
vn 0.2014 -0.0052 0.9795
vn 0.2046 -0.0069 0.9788
vn 0.1908 0.3655 0.9110
vn 0.1905 0.3655 0.9111
vn 0.1900 0.3656 0.9112
vn -0.0000 1.0000 -0.0000
vn -0.0000 1.0000 -0.0001
vn -0.0910 -0.0000 0.9959
vn -0.0911 -0.0000 0.9958
vn -0.0000 -1.0000 -0.0000
vn -0.0004 -1.0000 0.0001
vn -0.0000 -1.0000 -0.0001
vn 0.0005 -1.0000 -0.0001
vn 0.2102 -0.0076 0.9776
vn 0.7621 -0.0023 0.6474
vn 0.7622 -0.0000 0.6474
vn 0.7622 -0.0010 0.6474
vn 0.8548 -0.0000 0.5190
vn 0.8547 -0.0007 0.5191
vn 0.8557 -0.0018 0.5175
vn 0.8552 -0.0000 0.5184
vn 0.8462 0.1507 0.5111
vn 0.8459 0.1507 0.5116
vn 0.8455 0.1507 0.5123
vn -0.2774 -0.0000 0.9607
vn -0.2783 -0.0000 0.9605
vn -0.2772 -0.0000 0.9608
vn -0.2768 -0.0000 0.9609
vn 0.8548 -0.0026 0.5190
vn 0.8561 -0.0037 0.5169
vn 0.9622 -0.0000 0.2725
vn 0.9215 -0.0000 0.3883
vn 0.9216 0.0030 0.3882
vn 0.9216 0.0015 0.3883
vn 0.9942 -0.0000 0.1077
vn 0.9942 -0.0004 0.1079
vn 0.9942 -0.0004 0.1077
vn 0.9928 0.0528 0.1075
vn 0.9928 0.0528 0.1076
vn 0.9928 0.0528 0.1078
vn -0.0828 0.9952 0.0525
vn -0.8424 0.0002 0.5388
vn -0.8425 0.0002 0.5388
vn -0.8423 0.0001 0.5390
vn -0.0005 -1.0000 -0.0000
vn 0.9942 -0.0008 0.1075
vn 1.0000 -0.0000 0.0006
vn 1.0000 -0.0000 0.0003
vn 1.0000 0.0017 0.0004
vn 1.0000 0.0035 0.0003
vn 0.9999 0.0123 0.0003
vn 1.0000 0.0058 0.0002
vn -0.0601 0.9982 0.0025
vn -1.0000 0.0005 -0.0000
vn -1.0000 0.0026 -0.0000
vn -1.0000 0.0003 -0.0000
vn -1.0000 0.0006 -0.0000
vn -1.0000 -0.0000 -0.0000
vn -0.0001 -1.0000 -0.0001
vn 0.7802 -0.6255 -0.0000
vn 0.7668 -0.6419 -0.0000
vn 1.0000 -0.0028 -0.0029
vn 1.0000 -0.0013 -0.0012
vn 1.0000 -0.0000 -0.0000
vn -0.0000 -0.0000 -1.0000
vn 0.0001 -1.0000 -0.0001
vn 0.0008 -1.0000 -0.0001
vn 0.0012 -1.0000 -0.0001
vn 0.0428 -0.9991 -0.0002
vn 1.0000 -0.0038 -0.0034
vn 0.9224 0.3862 -0.0032
vn 0.9224 0.3862 -0.0021
vn 0.9224 0.3862 -0.0004
vn -0.0620 0.9980 -0.0110
vn 0.2017 -0.0022 -0.9795
vn 0.2025 -0.0008 -0.9793
vn 0.2022 -0.0007 -0.9793
vn 0.8494 -0.0018 -0.5277
vn 0.8497 -0.0009 -0.5272
vn 0.8500 -0.0001 -0.5268
vn 0.2037 -0.0000 -0.9790
vn 0.7679 -0.0001 -0.6406
vn 0.8507 -0.0000 -0.5257
vn 0.8507 -0.0000 -0.5256
vn 0.9222 -0.0000 -0.3867
vn 0.9222 -0.0001 -0.3867
vn 0.9935 -0.0028 -0.1140
vn 0.9935 -0.0008 -0.1141
vn 0.9935 -0.0006 -0.1139
vn 0.9935 -0.0029 -0.1140
vn 0.9935 -0.0000 -0.1136
vn 0.9352 0.3393 -0.1016
vn 0.9350 0.3393 -0.1032
vn 0.9349 0.3393 -0.1043
vn 0.2033 -0.0000 -0.9791
vn 0.2010 0.0853 -0.9759
vn 0.2014 0.0852 -0.9758
vn 0.2019 0.0852 -0.9757
s 1
f 1//1 2//1 7//1
f 1//1 7//1 3//1
f 1//2 3//3 9//4
f 1//2 9//4 4//2
f 1//5 4//6 5//7
f 1//8 5//8 12//8
f 1//8 12//8 19//8
f 1//8 19//8 27//8
f 1//8 27//8 33//8
f 1//8 33//8 41//8
f 1//8 41//8 47//8
f 1//8 47//8 46//8
f 1//8 46//8 49//8
f 1//8 49//8 43//8
f 1//8 43//8 34//8
f 1//8 34//8 28//8
f 1//8 28//8 20//8
f 1//8 20//8 13//8
f 1//8 13//8 6//8
f 1//8 6//8 2//9
f 2//10 6//10 15//11
f 2//10 15//11 7//10
f 3//12 7//12 15//12
f 3//12 15//12 14//13
f 3//12 14//13 23//12
f 3//12 23//12 30//14
f 3//12 30//14 31//15
f 3//12 31//15 24//12
f 3//12 24//12 16//12
f 3//12 16//12 8//12
f 3//3 8//16 9//4
f 4//17 9//18 5//19
f 5//20 9//21 10//22
f 5//20 10//22 11//23
f 5//24 11//25 12//26
f 6//27 13//28 14//29
f 6//27 14//29 15//30
f 8//31 16//32 10//22
f 8//31 10//22 9//21
f 10//33 16//33 12//33
f 10//34 12//35 11//36
f 12//37 16//38 17//39
f 12//37 17//39 18//37
f 12//40 18//41 19//42
f 13//43 20//43 21//43
f 13//44 21//45 22//46
f 13//44 22//46 14//46
f 14//13 22//47 23//12
f 16//38 24//48 17//39
f 17//49 24//49 25//50
f 17//49 25//50 26//51
f 17//49 26//51 18//52
f 18//52 26//51 19//53
f 19//53 26//51 27//54
f 20//55 28//55 21//55
f 21//56 28//57 34//58
f 21//56 34//58 36//59
f 21//56 36//59 29//60
f 21//56 29//60 22//60
f 22//47 29//61 23//12
f 23//12 29//61 30//14
f 24//62 31//62 32//62
f 24//63 32//63 25//63
f 25//50 32//64 40//65
f 25//50 40//65 42//66
f 25//50 42//66 33//66
f 25//50 33//66 27//54
f 25//50 27//54 26//51
f 29//61 35//14 31//15
f 29//61 31//15 30//14
f 29//67 36//67 43//67
f 29//67 43//67 49//67
f 29//67 49//67 50//67
f 29//67 50//67 44//67
f 29//67 44//67 35//67
f 31//15 35//14 37//68
f 31//15 37//68 38//69
f 31//15 38//69 39//70
f 31//71 39//71 32//71
f 32//64 39//72 40//65
f 33//73 42//74 41//75
f 34//76 43//76 36//76
f 35//77 44//78 37//79
f 37//80 45//81 38//82
f 37//79 44//78 46//83
f 37//84 46//84 45//84
f 38//82 45//81 46//85
f 38//82 46//85 47//86
f 38//87 47//87 48//88
f 38//89 48//90 40//91
f 38//89 40//91 39//92
f 40//91 48//90 47//93
f 40//91 47//93 42//93
f 41//94 42//95 47//96
f 44//78 50//97 46//83
f 46//98 50//99 49//100
