# Blender 4.4.3
# www.blender.org
o fixed_holes_collision_geom_29
v -0.057172 0.084055 0.001976
v -0.057172 0.084055 0.005034
v -0.057172 0.088989 0.001976
v -0.055059 0.081177 0.001976
v -0.055059 0.081177 0.004879
v -0.051184 0.081177 0.004875
v -0.051184 0.084054 0.004875
v -0.051185 0.088989 0.004875
v -0.057172 0.084208 0.005033
v -0.057172 0.088989 0.004880
v -0.051185 0.088989 0.001976
v -0.051184 0.081177 0.001976
v -0.051184 0.084054 0.001976
vn -1.0000 -0.0000 -0.0000
vn -0.0000 -0.0000 -1.0000
vn -0.8061 -0.5917 -0.0000
vn 0.0009 -0.0532 0.9986
vn 0.0265 -0.0000 0.9996
vn 0.0153 0.0132 0.9998
vn 0.0156 0.0134 0.9998
vn 0.0155 0.0133 0.9998
vn -0.0000 1.0000 -0.0000
vn -0.0000 -1.0000 -0.0000
vn 1.0000 -0.0000 -0.0000
vn 1.0000 0.0001 -0.0000
vn 1.0000 0.0002 -0.0000
vn 0.0008 0.0320 0.9995
s 1
f 1//1 2//1 9//1
f 1//1 9//1 10//1
f 1//1 10//1 3//1
f 1//2 3//2 11//2
f 1//2 11//2 13//2
f 1//2 13//2 12//2
f 1//2 12//2 4//2
f 1//3 4//3 5//3
f 1//3 5//3 2//3
f 2//4 5//4 6//4
f 2//5 6//5 7//5
f 2//5 7//5 8//5
f 2//6 8//7 9//8
f 3//9 10//9 8//9
f 3//9 8//9 11//9
f 4//10 12//10 6//10
f 4//10 6//10 5//10
f 6//11 12//11 13//12
f 6//11 13//12 7//12
f 7//12 13//12 11//13
f 7//12 11//13 8//13
f 8//14 10//14 9//14
