# Blender 4.4.3
# www.blender.org
o fixed_holes_collision_geom_53
v 0.007080 0.132282 0.018950
v 0.010279 0.132282 0.023182
v 0.031482 0.132282 0.018950
v 0.008374 0.124768 0.018612
v 0.008115 0.124760 0.018612
v 0.008113 0.047371 0.018612
v 0.010380 0.047371 0.023176
v 0.010738 0.132282 0.023261
v 0.010742 0.047371 0.023261
v 0.031600 0.124768 0.018612
v 0.030684 0.132282 0.022830
v 0.031619 0.113747 0.023170
v 0.031619 0.047371 0.018612
v 0.011262 0.124768 0.023262
v 0.011262 0.132282 0.023262
v 0.011266 0.047371 0.023262
v 0.031619 0.115401 0.018612
v 0.031619 0.114013 0.022901
v 0.031619 0.114055 0.022830
v 0.030495 0.132282 0.023176
v 0.031619 0.113057 0.023260
v 0.031619 0.113547 0.023202
v 0.031619 0.047371 0.023262
v 0.030109 0.132282 0.023262
v 0.030250 0.132282 0.023230
v 0.031619 0.112583 0.023262
vn -0.0000 1.0000 -0.0000
vn -0.0000 1.0000 -0.0001
vn -0.0000 1.0000 -0.0005
vn -0.0007 0.0446 -0.9990
vn -0.0000 0.0449 -0.9990
vn -0.0008 0.0441 -0.9990
vn -0.0015 0.0447 -0.9990
vn -0.3092 -0.0000 -0.9510
vn -0.8956 -0.0127 0.4448
vn -0.7978 -0.0010 0.6030
vn -0.2262 -0.0003 0.9741
vn -0.1682 -0.0000 0.9858
vn 0.9781 0.0530 0.2011
vn 0.9994 0.0143 0.0304
vn -0.0000 -0.0000 -1.0000
vn -0.0000 -1.0000 -0.0000
vn -0.0022 -0.0000 1.0000
vn -0.0002 -0.0000 1.0000
vn -0.0003 -0.0000 1.0000
vn 1.0000 0.0026 0.0020
vn 1.0000 0.0004 0.0004
vn 1.0000 0.0031 0.0018
vn 1.0000 0.0003 -0.0001
vn 1.0000 0.0002 0.0001
vn 0.8758 0.0533 0.4796
vn 0.8899 0.0534 0.4530
vn 0.8899 0.0533 0.4530
vn 0.9370 0.0535 0.3452
vn 0.9370 0.0536 0.3452
vn 1.0000 -0.0000 -0.0000
vn -0.0000 -0.0000 1.0000
vn 0.2159 0.0169 0.9763
vn 0.2144 0.0167 0.9766
vn 0.2134 0.0166 0.9768
vn 0.0625 0.0048 0.9980
s 1
f 1//1 2//1 8//1
f 1//1 8//1 15//1
f 1//1 15//1 24//2
f 1//1 24//2 25//3
f 1//1 25//3 20//1
f 1//1 20//1 11//1
f 1//1 11//1 3//1
f 1//4 3//5 10//5
f 1//4 10//5 4//6
f 1//4 4//6 5//7
f 1//8 5//8 6//8
f 1//9 6//9 7//9
f 1//10 7//10 2//10
f 2//11 7//11 9//11
f 2//12 9//12 8//12
f 3//13 11//13 12//13
f 3//14 12//14 10//14
f 4//15 10//15 17//15
f 4//15 17//15 13//15
f 4//15 13//15 6//15
f 4//15 6//15 5//15
f 6//16 13//16 23//16
f 6//16 23//16 16//16
f 6//16 16//16 9//16
f 6//16 9//16 7//16
f 8//17 14//18 15//19
f 8//17 9//17 16//17
f 8//17 16//17 14//18
f 10//20 12//21 18//22
f 10//20 18//22 19//23
f 10//20 19//23 17//24
f 11//25 20//25 21//25
f 11//26 21//27 22//26
f 11//28 22//29 12//29
f 12//21 22//30 21//30
f 12//21 21//30 26//30
f 12//21 26//30 23//30
f 12//21 23//30 13//30
f 12//21 13//30 17//24
f 12//21 17//24 19//23
f 12//21 19//23 18//22
f 14//18 16//17 23//31
f 14//18 23//31 26//31
f 14//18 26//31 24//31
f 14//18 24//31 15//19
f 20//32 25//33 21//33
f 21//33 25//33 24//34
f 21//35 24//35 26//35
