# Blender 4.4.3
# www.blender.org
o fixed_holes_collision_geom_99
v 0.036667 -0.124698 0.016885
v 0.036633 -0.124698 0.022308
v 0.036672 -0.124951 0.016879
v 0.035355 -0.124698 0.016879
v 0.036587 -0.124698 0.022830
v 0.036633 -0.130798 0.022308
v 0.036672 -0.130794 0.016879
v 0.019373 -0.124698 0.016879
v 0.036481 -0.124698 0.022980
v 0.036527 -0.130798 0.022915
v 0.036587 -0.130798 0.022830
v 0.036662 -0.130798 0.016890
v 0.036575 -0.130798 0.016879
v 0.013193 -0.130798 0.016879
v 0.019373 -0.124698 0.022308
v 0.036339 -0.124698 0.023177
v 0.036339 -0.130798 0.023177
v 0.013193 -0.130798 0.022055
v 0.019380 -0.124698 0.022695
v 0.013195 -0.130798 0.022308
v 0.035871 -0.124698 0.023262
v 0.035871 -0.130798 0.023262
v 0.019383 -0.124698 0.022747
v 0.013207 -0.130798 0.022568
v 0.020461 -0.124698 0.023262
v 0.014797 -0.130798 0.023262
v 0.019404 -0.124698 0.023043
v 0.013233 -0.130798 0.022830
v 0.020162 -0.124698 0.023256
v 0.019638 -0.125445 0.023262
v 0.014273 -0.130798 0.023261
v 0.019431 -0.124698 0.023093
v 0.013248 -0.130798 0.022935
v 0.019378 -0.124733 0.023080
v 0.019889 -0.124698 0.023225
v 0.013733 -0.130798 0.023202
v 0.019663 -0.124698 0.023180
v 0.013398 -0.130798 0.023103
v 0.013479 -0.130798 0.023155
vn 0.9998 0.0181 0.0064
vn 0.0048 0.0245 -0.9997
vn -0.0000 1.0000 -0.0000
vn -0.0000 1.0000 -0.0050
vn -0.0000 1.0000 0.0001
vn 0.9962 -0.0000 0.0875
vn 1.0000 -0.0000 0.0072
vn -0.0000 -0.0000 -1.0000
vn 0.8153 -0.0000 0.5791
vn 0.8115 -0.0000 0.5844
vn 0.8124 0.0005 0.5831
vn 0.8160 -0.0000 0.5780
vn 0.4167 -0.9090 0.0023
vn -0.0000 -1.0000 -0.0000
vn -0.0000 -1.0000 -0.0004
vn -0.0000 -1.0000 -0.0013
vn -0.0000 -1.0000 0.0005
vn -0.0000 -1.0000 0.0004
vn -0.0000 -1.0000 0.0001
vn 0.0407 -0.9420 -0.3331
vn 0.0408 -0.9420 -0.3331
vn -0.7025 0.7117 -0.0000
vn -0.7025 0.7116 -0.0001
vn -0.7036 0.7106 0.0014
vn 0.8108 -0.0000 0.5853
vn 0.8111 -0.0000 0.5849
vn -0.7026 0.7115 0.0110
vn -0.7025 0.7115 0.0128
vn 0.1791 -0.0000 0.9838
vn 0.1790 -0.0000 0.9838
vn -0.7029 0.7106 0.0304
vn -0.7029 0.7107 0.0310
vn -0.7029 0.7106 0.0310
vn -0.0000 -0.0000 1.0000
vn -0.0007 0.0006 1.0000
vn -0.0004 0.0004 1.0000
vn -0.7026 0.7099 0.0490
vn -0.7026 0.7084 0.0675
vn -0.0188 0.0208 0.9996
vn -0.0240 0.0240 0.9994
vn -0.0212 0.0223 0.9995
vn -0.0012 0.0012 1.0000
vn -0.7007 0.7051 0.1088
vn -0.6927 0.6957 0.1904
vn -0.6928 0.6955 0.1904
vn -0.6928 0.6956 0.1904
vn -0.5766 0.7507 0.3225
vn -0.1096 0.1070 0.9882
vn -0.1149 0.1123 0.9870
vn -0.1127 0.1100 0.9875
vn -0.1074 0.1046 0.9887
vn -0.0254 0.0254 0.9994
vn -0.4975 0.4934 0.7135
vn -0.4773 0.4733 0.7404
vn -0.4774 0.4732 0.7404
vn -0.3324 0.3333 0.8823
vn -0.3324 0.3334 0.8823
vn -0.6016 0.5951 0.5328
vn -0.1898 0.1885 0.9635
vn -0.1898 0.1886 0.9635
vn -0.1799 0.1780 0.9674
s 1
f 1//1 2//1 3//1
f 1//2 3//2 4//2
f 1//3 4//4 8//3
f 1//3 8//3 15//3
f 1//3 15//3 19//3
f 1//3 19//3 23//3
f 1//3 23//3 27//3
f 1//3 27//3 32//3
f 1//3 32//3 37//3
f 1//3 37//3 35//3
f 1//3 35//3 29//5
f 1//3 29//5 25//3
f 1//3 25//3 21//3
f 1//3 21//3 16//3
f 1//3 16//3 9//3
f 1//3 9//3 5//3
f 1//3 5//3 2//3
f 2//6 5//6 11//6
f 2//6 11//6 6//6
f 2//7 6//7 7//7
f 2//7 7//7 3//7
f 3//8 7//8 13//8
f 3//8 13//8 14//8
f 3//8 14//8 8//8
f 3//8 8//8 4//8
f 5//9 9//10 10//11
f 5//9 10//11 11//12
f 6//13 12//13 7//13
f 6//14 11//14 10//14
f 6//14 10//14 17//14
f 6//14 17//14 22//14
f 6//14 22//14 26//15
f 6//14 26//15 31//16
f 6//14 31//16 36//17
f 6//14 36//17 39//18
f 6//14 39//18 38//14
f 6//14 38//14 33//14
f 6//14 33//14 28//19
f 6//14 28//19 24//14
f 6//14 24//14 20//14
f 6//14 20//14 18//14
f 6//14 18//14 14//14
f 6//14 14//14 13//14
f 6//14 13//14 12//14
f 7//20 12//21 13//21
f 8//22 14//22 18//23
f 8//22 18//23 15//24
f 9//10 16//25 17//26
f 9//10 17//26 10//11
f 15//24 18//23 20//27
f 15//24 20//27 19//28
f 16//29 21//29 22//30
f 16//29 22//30 17//29
f 19//31 20//32 23//31
f 20//32 24//33 23//31
f 21//34 25//34 30//35
f 21//34 30//35 26//36
f 21//34 26//36 22//34
f 23//37 24//37 27//37
f 24//38 28//38 27//38
f 25//39 29//40 30//41
f 26//36 30//35 31//42
f 27//43 28//43 33//43
f 27//44 33//45 34//46
f 27//47 34//47 32//47
f 29//48 35//49 36//50
f 29//48 36//50 31//51
f 29//40 31//52 30//41
f 32//53 34//53 38//53
f 32//54 38//54 39//55
f 32//56 39//57 37//56
f 33//58 38//58 34//58
f 35//59 37//60 39//59
f 35//61 39//61 36//61
