# Blender 4.4.3
# www.blender.org
o fixed_holes_collision_geom_18
v 0.001509 0.143083 0.022307
v 0.001509 0.143048 0.022830
v 0.001509 0.143083 0.019645
v -0.010753 0.143083 0.022307
v -0.010753 0.143081 0.022325
v 0.001509 0.142918 0.023177
v -0.010753 0.143048 0.022830
v 0.001509 0.134821 0.019645
v -0.010753 0.143083 0.019645
v 0.001509 0.142583 0.023262
v -0.010753 0.142918 0.023177
v 0.001509 0.134335 0.019797
v 0.001496 0.134252 0.019645
v -0.010753 0.132282 0.019645
v 0.001509 0.135443 0.023262
v -0.010753 0.142583 0.023262
v 0.001509 0.134907 0.022830
v -0.010753 0.132853 0.022966
v -0.010154 0.132282 0.019645
v -0.010753 0.132282 0.020087
v 0.001509 0.135080 0.023177
v -0.010734 0.133539 0.023262
v -0.010753 0.133522 0.023261
v -0.010744 0.133058 0.023182
v -0.010753 0.133539 0.023262
v -0.010753 0.133045 0.023179
vn 1.0000 -0.0000 -0.0000
vn -0.0000 1.0000 -0.0000
vn -0.0000 0.9982 0.0607
vn -0.0000 0.9982 0.0600
vn -0.0000 0.9979 0.0646
vn -0.0000 0.9979 0.0644
vn -0.0000 0.9352 0.3540
vn -0.0000 0.9353 0.3539
vn -0.0000 -0.0000 -1.0000
vn -0.0001 -0.0000 -1.0000
vn -1.0000 -0.0000 -0.0000
vn -0.9999 -0.0121 -0.0000
vn -0.0000 0.2453 0.9694
vn 0.9970 -0.0231 -0.0739
vn 0.9970 -0.0230 -0.0739
vn -0.0000 -0.0000 1.0000
vn 0.9714 -0.2333 0.0440
vn 0.9714 -0.2332 0.0440
vn 0.1635 -0.9668 0.1965
vn 0.1640 -0.9664 0.1980
vn 0.1638 -0.9665 0.1978
vn 0.1635 -0.9669 0.1959
vn -0.0000 -1.0000 -0.0000
vn 0.0083 -0.0534 0.9985
vn 0.0042 -0.0487 0.9988
vn 0.0035 -0.0477 0.9989
vn 0.0262 -0.1676 0.9855
vn 0.0379 -0.2273 0.9731
vn 0.1528 -0.8838 0.4422
vn 0.1420 -0.9709 0.1927
vn 0.1228 -0.7395 0.6618
vn 0.1229 -0.7395 0.6618
vn 0.0417 -0.2509 0.9671
vn 0.0422 -0.2508 0.9671
vn 0.0427 -0.2507 0.9671
vn -0.0000 -0.0440 0.9990
vn -0.0667 -0.1693 0.9833
vn -0.0667 -0.1718 0.9829
vn -0.0667 -0.1706 0.9831
s 1
f 1//1 2//1 6//1
f 1//1 6//1 10//1
f 1//1 10//1 15//1
f 1//1 15//1 21//1
f 1//1 21//1 17//1
f 1//1 17//1 12//1
f 1//1 12//1 8//1
f 1//1 8//1 3//1
f 1//2 3//2 9//2
f 1//2 9//2 4//2
f 1//3 4//4 5//5
f 1//3 5//5 2//6
f 2//6 5//5 7//5
f 2//7 7//8 11//8
f 2//7 11//8 6//8
f 3//9 8//10 13//9
f 3//9 13//9 19//9
f 3//9 19//9 14//9
f 3//9 14//9 9//9
f 4//11 9//11 14//11
f 4//11 14//11 20//11
f 4//11 20//11 18//11
f 4//11 18//11 26//11
f 4//11 26//11 23//11
f 4//11 23//11 25//11
f 4//11 25//11 16//11
f 4//11 16//11 11//11
f 4//11 11//11 7//11
f 4//11 7//11 5//12
f 6//13 11//13 16//13
f 6//13 16//13 10//13
f 8//14 12//15 13//15
f 10//16 16//16 25//16
f 10//16 25//16 22//16
f 10//16 22//16 15//16
f 12//17 17//18 13//18
f 13//19 17//20 18//21
f 13//19 18//21 19//22
f 14//23 19//23 20//23
f 15//24 22//25 23//26
f 15//27 23//27 24//27
f 15//28 24//28 21//28
f 17//29 21//29 18//29
f 18//30 20//30 19//30
f 18//31 21//31 26//32
f 21//33 24//34 26//35
f 22//25 25//36 23//26
f 23//37 26//38 24//39
