# Blender 4.4.3
# www.blender.org
o fixed_holes_collision_geom_107
v 0.054501 -0.019513 0.001976
v 0.054501 -0.000514 0.001976
v 0.065196 -0.019513 0.001976
v 0.054501 -0.019513 0.016724
v 0.054501 -0.000505 0.002676
v 0.054726 -0.000505 0.001976
v 0.065196 -0.000505 0.001976
v 0.065613 -0.019513 0.002062
v 0.054501 -0.000513 0.016724
v 0.056315 -0.019513 0.022830
v 0.054501 -0.000505 0.016565
v 0.065613 -0.000505 0.002062
v 0.065823 -0.019513 0.002409
v 0.054507 -0.000505 0.016736
v 0.056315 -0.000505 0.022830
v 0.056388 -0.019513 0.023008
v 0.065823 -0.000505 0.002409
v 0.065881 -0.019513 0.002933
v 0.056379 -0.000505 0.022984
v 0.056460 -0.019513 0.023174
v 0.056460 -0.000505 0.023174
v 0.065881 -0.000505 0.002933
v 0.065881 -0.019513 0.017847
v 0.056820 -0.019513 0.023260
v 0.056820 -0.000505 0.023260
v 0.065881 -0.000505 0.018115
v 0.065881 -0.019508 0.018115
v 0.065880 -0.019513 0.022305
v 0.057345 -0.019513 0.023262
v 0.057345 -0.000505 0.023262
v 0.065880 -0.000505 0.022305
v 0.065852 -0.019513 0.022562
v 0.065198 -0.019513 0.023262
v 0.065198 -0.000505 0.023262
v 0.065823 -0.000505 0.022830
v 0.065823 -0.019513 0.022830
v 0.065612 -0.019513 0.023176
v 0.065612 -0.000505 0.023176
vn -0.0000 -0.0000 -1.0000
vn -0.0000 -1.0000 -0.0000
vn -1.0000 -0.0000 -0.0000
vn -0.0415 0.9990 -0.0134
vn 0.2009 -0.0000 -0.9796
vn -0.9586 -0.0000 0.2847
vn -0.0000 1.0000 -0.0000
vn 0.8555 -0.0000 -0.5177
vn 0.8556 -0.0000 -0.5176
vn -0.7690 0.6385 0.0313
vn -0.7690 0.6386 0.0307
vn -0.7690 0.6386 0.0301
vn -0.8963 0.3534 0.2679
vn -0.8969 0.3534 0.2659
vn -0.8966 0.3534 0.2669
vn -0.9236 -0.0000 0.3835
vn -0.9230 -0.0000 0.3848
vn -0.9231 -0.0000 0.3845
vn 0.9939 -0.0000 -0.1101
vn -0.9216 0.0001 0.3881
vn -0.9194 -0.0000 0.3933
vn -0.9199 -0.0000 0.3920
vn 1.0000 -0.0000 -0.0000
vn 1.0000 -0.0000 0.0001
vn 1.0000 -0.0004 -0.0000
vn -0.2303 -0.0000 0.9731
vn 0.9998 -0.0183 0.0003
vn -0.0040 -0.0000 1.0000
vn -0.0001 -0.0000 1.0000
vn -0.0042 -0.0000 1.0000
vn 1.0000 -0.0000 0.0003
vn 0.9941 -0.0000 0.1080
vn 0.9941 -0.0000 0.1085
vn 0.9939 -0.0000 0.1106
vn -0.0000 -0.0000 1.0000
vn 0.9938 -0.0000 0.1112
vn 0.2019 -0.0000 0.9794
vn 0.8541 -0.0000 0.5200
s 1
f 1//1 2//1 6//1
f 1//1 6//1 7//1
f 1//1 7//1 3//1
f 1//2 3//2 8//2
f 1//2 8//2 13//2
f 1//2 13//2 18//2
f 1//2 18//2 23//2
f 1//2 23//2 28//2
f 1//2 28//2 32//2
f 1//2 32//2 36//2
f 1//2 36//2 37//2
f 1//2 37//2 33//2
f 1//2 33//2 29//2
f 1//2 29//2 24//2
f 1//2 24//2 20//2
f 1//2 20//2 16//2
f 1//2 16//2 10//2
f 1//2 10//2 4//2
f 1//3 4//3 9//3
f 1//3 9//3 11//3
f 1//3 11//3 5//3
f 1//3 5//3 2//3
f 2//4 5//4 6//4
f 3//5 7//5 12//5
f 3//5 12//5 8//5
f 4//6 10//6 15//6
f 4//6 15//6 9//6
f 5//7 11//7 14//7
f 5//7 14//7 15//7
f 5//7 15//7 19//7
f 5//7 19//7 21//7
f 5//7 21//7 25//7
f 5//7 25//7 30//7
f 5//7 30//7 34//7
f 5//7 34//7 38//7
f 5//7 38//7 35//7
f 5//7 35//7 31//7
f 5//7 31//7 26//7
f 5//7 26//7 22//7
f 5//7 22//7 17//7
f 5//7 17//7 12//7
f 5//7 12//7 7//7
f 5//7 7//7 6//7
f 8//8 12//8 17//9
f 8//8 17//9 13//9
f 9//10 14//11 11//12
f 9//13 15//14 14//15
f 10//16 16//17 15//18
f 13//19 17//19 22//19
f 13//19 22//19 18//19
f 15//18 16//17 19//20
f 16//17 20//21 21//22
f 16//17 21//22 19//20
f 18//23 22//23 26//24
f 18//23 26//24 27//24
f 18//23 27//24 23//25
f 20//26 24//26 25//26
f 20//26 25//26 21//26
f 23//27 27//27 28//27
f 24//28 29//29 30//30
f 24//28 30//30 25//28
f 26//24 31//31 28//31
f 26//24 28//31 27//24
f 28//32 31//33 32//34
f 29//29 33//35 34//35
f 29//29 34//35 30//30
f 31//33 35//34 32//34
f 32//34 35//34 36//36
f 33//37 37//37 38//37
f 33//37 38//37 34//37
f 35//38 38//38 37//38
f 35//38 37//38 36//38
