# Blender 4.4.3
# www.blender.org
o fixed_holes_collision_geom_127
v 0.040749 0.047369 0.011730
v 0.040749 0.047369 0.003717
v 0.040584 0.047369 0.013902
v 0.040749 0.047367 0.013854
v 0.040749 0.047367 0.001976
v 0.040579 0.047369 0.001976
v 0.034640 0.047369 0.019067
v 0.040749 0.025379 0.013898
v 0.034589 0.047367 0.019177
v 0.040749 0.025379 0.001976
v 0.003404 0.047369 0.001976
v 0.034467 0.047369 0.019177
v 0.034607 0.025381 0.019177
v 0.034607 0.025379 0.019177
v 0.003246 0.025379 0.001976
v 0.003246 0.047367 0.001976
v 0.003246 0.047369 0.006638
v 0.009097 0.047369 0.019177
v 0.008936 0.025379 0.019177
v 0.003246 0.025379 0.017597
v 0.003407 0.047369 0.017594
v 0.003246 0.047367 0.017594
v 0.008936 0.047367 0.019177
v 0.003246 0.030234 0.017597
v 0.003246 0.046890 0.017596
vn -0.0000 1.0000 -0.0000
vn 0.0099 1.0000 -0.0009
vn -0.0009 1.0000 0.0001
vn 0.0133 0.9999 0.0010
vn 1.0000 -0.0008 -0.0000
vn 1.0000 -0.0000 -0.0000
vn 1.0000 -0.0011 -0.0000
vn 1.0000 -0.0055 -0.0000
vn 0.0126 0.9999 -0.0012
vn 0.0193 0.9996 0.0222
vn 0.0285 0.9990 0.0330
vn 0.0196 0.9994 0.0284
vn 0.0266 0.9991 0.0318
vn 0.6538 0.0015 0.7567
vn 0.6522 0.0008 0.7580
vn 0.6533 0.0005 0.7571
vn -0.0000 -0.0000 -1.0000
vn 0.0176 0.9995 0.0278
vn 0.6513 0.0003 0.7588
vn 0.6509 -0.0000 0.7592
vn -0.0000 -1.0000 -0.0000
vn -0.0000 -0.0000 1.0000
vn -0.1187 -0.0000 0.9929
vn -0.1188 -0.0000 0.9929
vn -0.0136 0.9999 -0.0005
vn -1.0000 -0.0000 -0.0000
vn -0.0133 0.9999 0.0002
vn -0.0132 0.9988 0.0474
vn -0.0132 0.9988 0.0475
vn -0.0132 0.9988 0.0469
vn -0.2675 -0.0000 0.9636
vn -0.2677 0.0019 0.9635
vn -0.2680 0.0036 0.9634
vn -0.2678 0.0007 0.9635
s 1
f 1//1 2//2 6//3
f 1//1 6//3 11//1
f 1//1 11//1 17//1
f 1//1 17//1 21//1
f 1//1 21//1 18//1
f 1//1 18//1 12//1
f 1//1 12//1 7//1
f 1//1 7//1 3//1
f 1//4 3//4 4//4
f 1//5 4//6 8//6
f 1//5 8//6 10//6
f 1//5 10//6 5//7
f 1//5 5//7 2//8
f 2//2 5//9 6//3
f 3//10 7//10 4//10
f 4//11 7//12 9//13
f 4//14 9//15 8//16
f 5//17 10//17 15//17
f 5//17 15//17 16//17
f 5//17 16//17 11//17
f 5//17 11//17 6//17
f 7//12 12//18 9//13
f 8//16 9//15 13//19
f 8//16 13//19 14//20
f 8//21 14//21 19//21
f 8//21 19//21 20//21
f 8//21 20//21 15//21
f 8//21 15//21 10//21
f 9//22 12//22 18//22
f 9//22 18//22 23//22
f 9//22 23//22 19//22
f 9//22 19//22 14//22
f 9//23 14//24 13//24
f 11//25 16//25 17//25
f 15//26 20//26 24//26
f 15//26 24//26 25//26
f 15//26 25//26 22//26
f 15//26 22//26 17//26
f 15//26 17//26 16//26
f 17//27 22//27 21//27
f 18//28 21//29 22//29
f 18//28 22//29 23//30
f 19//31 23//32 24//31
f 19//31 24//31 20//31
f 22//33 25//34 23//32
f 23//32 25//34 24//31
