# Blender 4.4.3
# www.blender.org
o fixed_holes_collision_geom_9
v -0.006687 -0.071817 0.015174
v 0.003246 -0.071327 0.015174
v -0.006687 -0.071677 0.018119
v -0.006687 0.047371 0.015174
v 0.003246 -0.071175 0.018118
v 0.003246 0.047359 0.015174
v 0.003246 -0.071048 0.018632
v -0.006687 -0.071584 0.018473
v -0.006687 0.047371 0.017238
v 0.002960 0.047371 0.015174
v 0.003246 0.047359 0.017597
v -0.006687 -0.071537 0.018608
v 0.003246 -0.070930 0.018814
v -0.006545 0.047371 0.017674
v -0.006687 0.047359 0.017727
v 0.002879 0.047371 0.017597
v -0.006687 -0.036875 0.021884
v -0.006687 -0.037365 0.021904
v 0.003246 -0.029735 0.020103
v 0.003246 -0.070873 0.018894
v -0.006687 -0.071281 0.018798
v -0.006687 -0.037563 0.021910
v 0.003246 -0.036887 0.020266
v 0.003246 -0.070627 0.018912
v -0.006687 -0.045940 0.021782
v -0.006687 -0.053535 0.021002
v -0.006687 -0.070966 0.018897
v -0.006687 -0.071165 0.018868
v 0.003246 -0.037365 0.020276
v -0.006687 -0.037844 0.021916
v 0.003246 -0.053687 0.019812
v -0.006687 -0.045462 0.021813
v 0.003246 -0.037844 0.020279
v -0.006687 -0.045089 0.021820
v 0.003246 -0.045124 0.020203
v 0.003246 -0.043700 0.020219
v 0.003246 -0.046069 0.020178
v 0.003246 -0.045602 0.020195
v 0.003246 -0.045450 0.020198
vn 0.0492 -0.9977 0.0475
vn 0.0494 -0.9976 0.0481
vn 0.0502 -0.9975 0.0507
vn -1.0000 -0.0000 -0.0000
vn -0.0000 -0.0000 -1.0000
vn 0.0504 -0.9974 0.0515
vn 1.0000 -0.0000 -0.0000
vn 0.0489 -0.9684 0.2445
vn 0.0489 -0.9690 0.2420
vn 0.0484 -0.9667 0.2512
vn 0.0482 -0.9659 0.2544
vn -0.0000 1.0000 -0.0000
vn 0.0406 0.9992 -0.0000
vn 0.0336 0.9994 0.0008
vn 0.0389 0.9992 0.0002
vn 0.0458 -0.9444 0.3256
vn 0.0403 -0.8424 0.5374
vn -0.0733 0.9970 0.0237
vn 0.0317 0.9995 0.0011
vn 0.0121 0.3806 0.9247
vn 0.0130 0.0493 0.9987
vn 0.0886 0.0402 0.9953
vn 0.0886 0.0403 0.9953
vn 0.1544 0.0321 0.9875
vn 0.1548 0.0315 0.9874
vn 0.1599 0.0254 0.9868
vn 0.0368 -0.8045 0.5928
vn 0.0167 -0.5953 0.8033
vn 0.0018 0.9756 0.2195
vn 0.1614 0.0274 0.9865
vn 0.1618 0.0221 0.9866
vn 0.1008 -0.0747 0.9921
vn 0.1009 -0.0748 0.9921
vn 0.0330 -0.1020 0.9942
vn 0.0014 -0.1199 0.9928
vn 0.0016 -0.1386 0.9904
vn 0.0130 -0.5179 0.8554
vn 0.1618 0.0214 0.9866
vn 0.1619 0.0207 0.9866
vn 0.1553 -0.0524 0.9865
vn 0.1231 -0.0656 0.9902
vn 0.1627 0.0043 0.9867
vn 0.1625 -0.0022 0.9867
vn 0.1638 -0.0090 0.9864
vn 0.1606 -0.0130 0.9869
vn 0.1606 -0.0139 0.9869
vn 0.1623 -0.0106 0.9867
vn 0.1624 -0.0104 0.9867
vn 0.1594 -0.0474 0.9861
vn 0.1600 -0.0349 0.9865
vn 0.1599 -0.0381 0.9864
vn 0.1603 -0.0335 0.9865
vn 0.1605 -0.0233 0.9868
vn 0.1605 -0.0254 0.9867
vn 0.1604 -0.0231 0.9868
s 1
f 1//1 2//2 3//3
f 1//4 3//4 8//4
f 1//4 8//4 12//4
f 1//4 12//4 21//4
f 1//4 21//4 28//4
f 1//4 28//4 27//4
f 1//4 27//4 26//4
f 1//4 26//4 25//4
f 1//4 25//4 32//4
f 1//4 32//4 34//4
f 1//4 34//4 30//4
f 1//4 30//4 22//4
f 1//4 22//4 18//4
f 1//4 18//4 17//4
f 1//4 17//4 15//4
f 1//4 15//4 9//4
f 1//4 9//4 4//4
f 1//5 4//5 10//5
f 1//5 10//5 6//5
f 1//5 6//5 2//5
f 2//2 5//6 3//3
f 2//7 6//7 11//7
f 2//7 11//7 19//7
f 2//7 19//7 23//7
f 2//7 23//7 29//7
f 2//7 29//7 33//7
f 2//7 33//7 36//7
f 2//7 36//7 35//7
f 2//7 35//7 39//7
f 2//7 39//7 38//7
f 2//7 38//7 37//7
f 2//7 37//7 31//7
f 2//7 31//7 24//7
f 2//7 24//7 20//7
f 2//7 20//7 13//7
f 2//7 13//7 7//7
f 2//7 7//7 5//7
f 3//8 5//9 7//10
f 3//8 7//10 8//11
f 4//12 9//12 14//12
f 4//12 14//12 16//12
f 4//12 16//12 10//12
f 6//13 10//14 11//15
f 7//16 12//16 8//16
f 7//17 13//17 12//17
f 9//18 15//18 14//18
f 10//14 16//19 11//15
f 11//20 16//20 15//20
f 11//21 15//21 17//21
f 11//22 17//23 18//23
f 11//24 18//25 19//26
f 12//27 13//27 20//27
f 12//28 20//28 21//28
f 14//29 15//29 16//29
f 18//25 22//30 19//26
f 19//26 22//30 23//31
f 20//32 24//32 25//33
f 20//34 25//34 26//34
f 20//35 26//35 27//35
f 20//36 27//36 28//36
f 20//37 28//37 21//37
f 22//30 29//38 23//31
f 22//30 30//39 29//38
f 24//40 31//40 32//40
f 24//41 32//41 25//41
f 29//42 30//43 33//44
f 30//45 34//46 35//46
f 30//43 35//47 36//48
f 30//43 36//48 33//44
f 31//49 37//50 32//51
f 32//51 37//50 38//52
f 32//53 38//54 39//55
f 32//53 39//55 34//46
f 34//46 39//55 35//46
