# Blender 4.4.3
# www.blender.org
o fixed_holes_collision_geom_77
v -0.051184 0.078339 0.001976
v -0.044599 0.078339 0.001976
v -0.051184 0.078339 0.004875
v -0.051184 0.088989 0.001976
v -0.044599 0.078339 0.004875
v -0.044599 0.088989 0.001976
v -0.051184 0.088989 0.004875
v -0.044599 0.088989 0.004875
vn -0.0000 -1.0000 -0.0000
vn -1.0000 -0.0000 -0.0000
vn -0.0000 -0.0000 -1.0000
vn 1.0000 -0.0000 -0.0000
vn -0.0000 -0.0000 1.0000
vn -0.0000 1.0000 -0.0000
s 1
f 1//1 2//1 5//1
f 1//1 5//1 3//1
f 1//2 3//2 7//2
f 1//2 7//2 4//2
f 1//3 4//3 6//3
f 1//3 6//3 2//3
f 2//4 6//4 8//4
f 2//4 8//4 5//4
f 3//5 5//5 8//5
f 3//5 8//5 7//5
f 4//6 7//6 8//6
f 4//6 8//6 6//6
