# Blender 4.4.3
# www.blender.org
o fixed_holes_collision_geom_71
v -0.033993 0.070527 0.005931
v -0.044598 0.073164 0.005931
v -0.033993 0.077016 0.005931
v -0.033993 0.070528 0.022307
v -0.044598 0.073167 0.022307
v -0.044598 0.074665 0.005931
v -0.033993 0.077016 0.022514
v -0.033993 0.070544 0.022716
v -0.044598 0.073180 0.023097
v -0.044598 0.073173 0.022829
v -0.044598 0.073169 0.022482
v -0.044598 0.074664 0.022307
v -0.044598 0.074657 0.022829
v -0.033993 0.077013 0.022621
v -0.033993 0.070549 0.022829
v -0.033993 0.070703 0.023167
v -0.044598 0.073301 0.023181
v -0.044598 0.074639 0.023036
v -0.033993 0.076995 0.022901
v -0.033993 0.077004 0.022780
v -0.033993 0.070921 0.023232
v -0.044598 0.073539 0.023262
v -0.044598 0.074629 0.023140
v -0.033993 0.076989 0.022936
v -0.033993 0.071158 0.023259
v -0.034301 0.071158 0.023255
v -0.034301 0.071397 0.023262
v -0.044598 0.074252 0.023262
v -0.044598 0.074537 0.023195
v -0.033993 0.076853 0.023170
v -0.033993 0.071397 0.023262
v -0.033993 0.076297 0.023262
v -0.033993 0.076534 0.023260
v -0.044598 0.074490 0.023223
v -0.033993 0.076802 0.023194
vn -0.0000 -0.0000 -1.0000
vn 1.0000 -0.0000 -0.0000
vn 1.0000 -0.0002 -0.0000
vn 1.0000 0.0001 -0.0000
vn 1.0000 -0.0004 -0.0000
vn -0.2413 -0.9704 0.0001
vn -0.2414 -0.9704 0.0001
vn -0.2415 -0.9704 0.0002
vn -1.0000 -0.0000 -0.0000
vn -1.0000 0.0035 -0.0000
vn -1.0000 0.0006 -0.0000
vn -1.0000 -0.0017 -0.0000
vn -1.0000 -0.0001 -0.0000
vn -1.0000 0.0001 -0.0000
vn -1.0000 0.0003 -0.0000
vn -1.0000 -0.0002 -0.0000
vn -0.2164 0.9763 -0.0000
vn -0.2165 0.9763 -0.0000
vn -0.2398 -0.9701 0.0374
vn -0.2393 -0.9699 0.0450
vn -0.2395 -0.9699 0.0452
vn -0.2407 -0.9702 0.0264
vn -0.2408 -0.9702 0.0264
vn -0.2415 -0.9703 0.0109
vn -0.2414 -0.9704 0.0104
vn -0.2415 -0.9703 0.0113
vn -0.2415 -0.9703 0.0126
vn -0.2165 0.9763 0.0001
vn -0.2168 0.9761 0.0145
vn -0.2165 0.9759 0.0265
vn -0.2164 0.9759 0.0265
vn -0.2395 -0.9699 0.0442
vn -0.2103 -0.8889 0.4071
vn -0.2102 -0.8889 0.4070
vn -0.2102 -0.8889 0.4071
vn -0.1363 -0.5636 0.8147
vn -0.1414 -0.5655 0.8125
vn -0.1367 -0.5635 0.8147
vn -0.2149 0.9726 0.0885
vn -0.2152 0.9727 0.0870
vn -0.2151 0.9724 0.0902
vn -0.2153 0.9745 0.0635
vn -0.2157 0.9747 0.0589
vn -0.2154 0.9747 0.0603
vn -0.2152 0.9747 0.0612
vn -0.0668 -0.2837 0.9566
vn -0.0670 -0.2835 0.9566
vn -0.0671 -0.2834 0.9566
vn -0.0777 -0.3220 0.9436
vn -0.0779 -0.3219 0.9436
vn -0.0778 -0.3220 0.9436
vn -0.2156 0.9727 0.0863
vn -0.2103 0.9600 0.1849
vn -0.2101 0.9600 0.1849
vn -0.2108 0.9599 0.1850
vn -0.0108 -0.1133 0.9935
vn -0.0108 -0.1135 0.9935
vn -0.0108 -0.1134 0.9935
vn -0.0313 -0.1385 0.9899
vn -0.0312 -0.1386 0.9899
vn -0.0314 -0.1385 0.9899
vn -0.0119 -0.0546 0.9984
vn -0.0113 -0.0547 0.9984
vn -0.0116 -0.0546 0.9984
vn -0.0014 -0.0047 1.0000
vn -0.0006 -0.0131 0.9999
vn 0.0022 -0.0113 0.9999
vn -0.0000 -0.0035 1.0000
vn -0.0001 0.0028 1.0000
vn -0.0006 0.0024 1.0000
vn -0.1106 0.5139 0.8507
vn -0.1078 0.5081 0.8545
vn -0.1088 0.5075 0.8548
vn -0.1801 0.8517 0.4922
vn -0.1803 0.8516 0.4922
vn -0.1802 0.8517 0.4922
vn -0.0015 0.0081 1.0000
vn -0.0346 0.1616 0.9862
vn -0.1079 0.5062 0.8557
vn -0.0873 0.4164 0.9050
vn -0.0881 0.4161 0.9050
vn -0.0878 0.4162 0.9050
vn -0.0496 0.2396 0.9696
s 1
f 1//1 2//1 6//1
f 1//1 6//1 3//1
f 1//2 3//2 7//3
f 1//2 7//3 14//2
f 1//2 14//2 20//2
f 1//2 20//2 19//3
f 1//2 19//3 24//2
f 1//2 24//2 30//4
f 1//2 30//4 35//2
f 1//2 35//2 33//2
f 1//2 33//2 32//2
f 1//2 32//2 31//2
f 1//2 31//2 25//2
f 1//2 25//2 21//2
f 1//2 21//2 16//2
f 1//2 16//2 15//2
f 1//2 15//2 8//2
f 1//2 8//2 4//5
f 1//6 4//7 2//7
f 2//7 4//7 5//8
f 2//9 5//10 11//11
f 2//9 11//11 10//12
f 2//9 10//12 9//9
f 2//9 9//9 17//9
f 2//9 17//9 22//9
f 2//9 22//9 28//9
f 2//9 28//9 34//9
f 2//9 34//9 29//13
f 2//9 29//13 23//14
f 2//9 23//14 18//15
f 2//9 18//15 13//14
f 2//9 13//14 12//16
f 2//9 12//16 6//9
f 3//17 6//18 7//18
f 4//19 8//20 9//21
f 4//22 9//23 10//22
f 4//24 10//25 11//26
f 4//24 11//26 5//27
f 6//18 12//28 7//18
f 7//29 12//29 13//29
f 7//30 13//31 14//30
f 8//20 15//32 9//21
f 9//33 15//34 16//35
f 9//36 16//37 17//38
f 13//39 18//40 19//41
f 13//42 19//43 20//44
f 13//42 20//44 14//45
f 16//46 21//47 22//48
f 16//49 22//50 17//51
f 18//40 23//52 19//41
f 19//53 23//54 24//55
f 21//56 25//57 26//58
f 21//59 26//60 22//61
f 22//62 26//63 25//64
f 22//65 25//66 27//67
f 22//65 27//67 31//68
f 22//65 31//68 32//69
f 22//65 32//69 28//70
f 23//71 29//72 30//73
f 23//74 30//75 24//76
f 25//66 31//68 27//67
f 28//70 32//69 33//77
f 28//78 33//78 34//78
f 29//72 34//79 30//73
f 30//80 34//81 35//82
f 33//83 35//83 34//83
