# Blender 4.4.3
# www.blender.org
o fixed_holes_collision_geom_108
v -0.058392 0.111377 0.023262
v -0.057868 0.111158 0.023235
v -0.057864 0.111377 0.023208
v -0.065196 0.111377 0.023262
v -0.052631 0.104496 0.023262
v -0.052554 0.104496 0.023256
v -0.057571 0.111377 0.023126
v -0.052554 0.104952 0.023182
v -0.065612 0.111377 0.023177
v -0.065196 0.088989 0.023262
v -0.052554 0.104021 0.023262
v -0.057518 0.111377 0.022829
v -0.052554 0.105176 0.022829
v -0.065823 0.111377 0.022829
v -0.065733 0.088989 0.022977
v -0.065612 0.088989 0.023177
v -0.058915 0.088989 0.023262
v -0.052554 0.098380 0.023262
v -0.057498 0.111377 0.022307
v -0.052554 0.105207 0.022307
v -0.065856 0.111377 0.022543
v -0.065823 0.092380 0.022829
v -0.065821 0.088989 0.022829
v -0.058695 0.088989 0.023235
v -0.052554 0.098309 0.023255
v -0.057494 0.111377 0.005931
v -0.052554 0.105207 0.005943
v -0.065881 0.111377 0.022307
v -0.065881 0.092380 0.022307
v -0.065880 0.088989 0.022307
v -0.058376 0.088989 0.023174
v -0.052554 0.097908 0.023193
v -0.065881 0.111377 0.005931
v -0.052731 0.105333 0.005931
v -0.052554 0.104341 0.005931
v -0.065881 0.092380 0.005931
v -0.065880 0.088989 0.005931
v -0.058273 0.088989 0.023143
v -0.052554 0.097862 0.023179
v -0.058172 0.088989 0.023105
v -0.052554 0.097630 0.005931
v -0.058099 0.088989 0.005931
v -0.052554 0.097672 0.022880
v -0.058130 0.089024 0.023093
v -0.058133 0.088989 0.023062
v -0.052554 0.097630 0.022307
v -0.058104 0.088989 0.022307
v -0.052554 0.097659 0.022829
v -0.058119 0.088989 0.022829
v -0.052554 0.097636 0.022432
vn 0.1015 0.1199 0.9876
vn -0.0000 1.0000 -0.0000
vn -0.0000 1.0000 0.0008
vn -0.0000 -0.0000 1.0000
vn 0.0675 0.0565 0.9961
vn 0.0673 0.0567 0.9961
vn 0.0672 0.0569 0.9961
vn 0.0794 0.0666 0.9946
vn 0.1442 0.1182 0.9825
vn 0.1963 0.1584 0.9677
vn 0.1964 0.1583 0.9677
vn 0.1964 0.1584 0.9677
vn 0.2613 0.2123 0.9416
vn 0.2614 0.2122 0.9416
vn -0.1999 -0.0000 0.9798
vn 0.0672 0.0107 0.9977
vn 0.0672 0.0108 0.9977
vn 1.0000 -0.0000 -0.0000
vn 0.7325 0.5751 0.3643
vn 0.7735 0.6191 0.1359
vn -0.8554 -0.0000 0.5180
vn -0.8567 -0.0000 0.5159
vn -0.8554 0.0014 0.5180
vn -0.8553 -0.0000 0.5182
vn -0.0000 -1.0000 -0.0000
vn -0.0000 -1.0000 -0.0001
vn -0.0000 -1.0000 -0.0008
vn 0.7802 0.6246 0.0350
vn 0.7802 0.6244 0.0366
vn 0.7802 0.6247 0.0327
vn 0.7801 0.6248 0.0313
vn -0.9936 -0.0000 0.1130
vn -0.9939 -0.0000 0.1105
vn -0.9937 -0.0002 0.1119
vn -0.8593 -0.0002 0.5115
vn -0.8604 -0.0003 0.5096
vn 0.1216 -0.0824 0.9891
vn 0.1418 -0.0956 0.9853
vn 0.1418 -0.0955 0.9853
vn 0.1417 -0.0956 0.9853
vn 0.7804 0.6252 0.0002
vn 0.7805 0.6251 0.0001
vn 0.7806 0.6250 -0.0000
vn 0.7807 0.6249 -0.0000
vn -0.9939 -0.0000 0.1098
vn -0.9938 -0.0001 0.1108
vn -0.9938 -0.0003 0.1116
vn 0.1863 -0.1249 0.9745
vn 0.2277 -0.1505 0.9620
vn 0.1533 0.1208 -0.9808
vn -0.0000 -0.0000 -1.0000
vn 0.0770 0.0136 -0.9969
vn 0.0770 0.0137 -0.9969
vn -1.0000 -0.0000 -0.0000
vn -1.0000 -0.0002 -0.0000
vn -1.0000 -0.0003 -0.0000
vn 0.2824 -0.1862 0.9411
vn 0.3487 -0.2287 0.9089
vn 0.3987 -0.2598 0.8795
vn 0.3988 -0.2596 0.8795
vn 0.3986 -0.2601 0.8795
vn 0.4998 -0.3233 0.8036
vn 0.4997 -0.3234 0.8036
vn 0.7519 -0.4787 0.4533
vn 0.7521 -0.4784 0.4533
vn 0.7520 -0.4786 0.4533
vn 0.7991 -0.5068 0.3235
vn 0.7991 -0.5067 0.3235
vn 0.6221 -0.5528 0.5544
vn 0.6222 -0.5526 0.5545
vn 0.8416 -0.5400 -0.0000
vn 0.8415 -0.5403 0.0002
vn 0.8416 -0.5402 0.0001
vn 0.8414 -0.5404 0.0002
vn 0.8345 -0.5334 0.1381
vn 0.8346 -0.5333 0.1381
vn 0.8404 -0.5394 0.0517
vn 0.8412 -0.5402 0.0256
vn 0.8412 -0.5400 0.0290
vn 0.8412 -0.5400 0.0284
vn 0.8412 -0.5402 0.0252
vn 0.8412 -0.5400 0.0298
s 1
f 1//1 2//1 3//1
f 1//2 3//3 7//2
f 1//2 7//2 12//2
f 1//2 12//2 19//2
f 1//2 19//2 26//2
f 1//2 26//2 33//2
f 1//2 33//2 28//2
f 1//2 28//2 21//2
f 1//2 21//2 14//2
f 1//2 14//2 9//2
f 1//2 9//2 4//2
f 1//4 4//4 10//4
f 1//4 10//4 17//4
f 1//4 17//4 18//4
f 1//4 18//4 11//4
f 1//4 11//4 5//4
f 1//5 5//6 6//7
f 1//8 6//8 2//8
f 2//9 6//9 3//9
f 3//10 6//11 8//12
f 3//13 8//14 7//13
f 4//15 9//15 16//15
f 4//15 16//15 10//15
f 5//16 11//16 6//17
f 6//18 11//18 18//18
f 6//18 18//18 25//18
f 6//18 25//18 32//18
f 6//18 32//18 39//18
f 6//18 39//18 43//18
f 6//18 43//18 48//18
f 6//18 48//18 50//18
f 6//18 50//18 46//18
f 6//18 46//18 41//18
f 6//18 41//18 35//18
f 6//18 35//18 27//18
f 6//18 27//18 20//18
f 6//18 20//18 13//18
f 6//18 13//18 8//18
f 7//19 8//19 13//19
f 7//20 13//20 12//20
f 9//21 14//22 15//23
f 9//21 15//23 16//24
f 10//25 16//26 15//25
f 10//25 15//25 23//25
f 10//25 23//25 30//25
f 10//25 30//25 37//25
f 10//25 37//25 42//25
f 10//25 42//25 47//25
f 10//25 47//25 49//25
f 10//25 49//25 45//25
f 10//25 45//25 40//26
f 10//25 40//26 38//27
f 10//25 38//27 31//26
f 10//25 31//26 24//25
f 10//25 24//25 17//25
f 12//28 13//29 20//30
f 12//28 20//30 19//31
f 14//32 21//33 22//34
f 14//22 22//35 15//23
f 15//23 22//35 23//36
f 17//37 24//37 18//37
f 18//38 24//39 25//40
f 19//41 20//42 26//43
f 20//42 27//44 26//43
f 21//33 28//45 29//46
f 21//33 29//46 22//34
f 22//34 29//46 30//47
f 22//34 30//47 23//47
f 24//48 31//48 25//48
f 25//49 31//49 32//49
f 26//50 27//50 34//50
f 26//51 34//51 35//51
f 26//51 35//51 41//51
f 26//51 41//51 42//51
f 26//51 42//51 37//51
f 26//51 37//51 36//51
f 26//51 36//51 33//51
f 27//52 35//52 34//53
f 28//54 33//54 36//55
f 28//54 36//55 29//55
f 29//55 36//55 37//56
f 29//55 37//56 30//56
f 31//57 38//57 32//57
f 32//58 38//58 40//58
f 32//59 40//60 39//61
f 39//62 40//63 44//63
f 39//64 44//65 45//66
f 39//67 45//68 43//67
f 40//69 45//70 44//70
f 41//71 46//72 42//73
f 42//73 46//72 47//74
f 43//75 45//76 48//75
f 45//77 49//77 48//77
f 46//78 50//79 49//80
f 46//78 49//80 47//81
f 48//82 49//80 50//79
