# Blender 4.4.3
# www.blender.org
o fixed_holes_collision_geom_65
v 0.048449 -0.063089 0.001976
v 0.065196 -0.063089 0.001976
v 0.048449 -0.063089 0.011508
v 0.048449 -0.038464 0.001976
v 0.065612 -0.063089 0.002062
v 0.065196 -0.038464 0.001976
v 0.054321 -0.063089 0.016538
v 0.048449 -0.062668 0.016538
v 0.048449 -0.038464 0.011535
v 0.065823 -0.063089 0.002408
v 0.065612 -0.038464 0.002062
v 0.065674 -0.038464 0.002163
v 0.065879 -0.063089 0.016538
v 0.048449 -0.053857 0.016538
v 0.048577 -0.038464 0.011673
v 0.048449 -0.038801 0.015490
v 0.065879 -0.063089 0.002932
v 0.065823 -0.038464 0.002408
v 0.065840 -0.038464 0.002562
v 0.065879 -0.038464 0.016538
v 0.049995 -0.039754 0.016538
v 0.048449 -0.039276 0.016386
v 0.054279 -0.038464 0.016532
v 0.048449 -0.038859 0.016013
v 0.065879 -0.038464 0.002932
v 0.054926 -0.038464 0.016538
v 0.050050 -0.039276 0.016538
v 0.050467 -0.038920 0.016538
v 0.048449 -0.038975 0.016330
v 0.054271 -0.038484 0.016538
v 0.051059 -0.038801 0.016538
vn -0.0000 -1.0000 -0.0000
vn -0.0000 -1.0000 0.0001
vn -1.0000 -0.0000 -0.0000
vn -0.0000 -0.0000 -1.0000
vn 0.2020 -0.0000 -0.9794
vn 0.2022 -0.0000 -0.9793
vn -0.0714 -0.9940 0.0833
vn -0.0000 1.0000 -0.0000
vn 0.8501 -0.0000 -0.5267
vn 0.8484 -0.0000 -0.5293
vn 0.8503 -0.0000 -0.5264
vn 0.8552 0.0001 -0.5183
vn -0.0000 -0.0000 1.0000
vn -0.0913 0.9922 0.0848
vn 0.8553 -0.0000 -0.5181
vn 0.9940 -0.0000 -0.1094
vn 0.9939 -0.0000 -0.1103
vn 0.9943 -0.0000 -0.1067
vn 0.9944 -0.0000 -0.1061
vn 1.0000 -0.0000 -0.0000
vn -0.0941 0.0103 0.9955
vn -0.0940 0.0106 0.9955
vn -0.0727 0.9937 0.0853
vn -0.0769 0.9910 0.1096
vn 0.9944 -0.0000 -0.1056
vn -0.0940 0.0108 0.9955
vn -0.0935 0.1096 0.9896
vn -0.1058 0.1847 0.9771
vn -0.0086 0.2872 0.9578
vn -0.0085 0.2872 0.9578
vn -0.0938 0.9351 0.3417
vn -0.0937 0.9007 0.4243
vn -0.0293 0.2936 0.9555
vn -0.0292 0.2936 0.9555
vn -0.1020 0.5112 0.8534
s 1
f 1//1 2//2 5//1
f 1//1 5//1 10//1
f 1//1 10//1 17//1
f 1//1 17//1 13//1
f 1//1 13//1 7//1
f 1//1 7//1 3//1
f 1//3 3//3 8//3
f 1//3 8//3 14//3
f 1//3 14//3 22//3
f 1//3 22//3 29//3
f 1//3 29//3 24//3
f 1//3 24//3 16//3
f 1//3 16//3 9//3
f 1//3 9//3 4//3
f 1//4 4//4 6//4
f 1//4 6//4 2//4
f 2//5 6//5 11//5
f 2//5 11//5 5//6
f 3//7 7//7 8//7
f 4//8 9//8 15//8
f 4//8 15//8 23//8
f 4//8 23//8 26//8
f 4//8 26//8 20//8
f 4//8 20//8 25//8
f 4//8 25//8 19//8
f 4//8 19//8 18//8
f 4//8 18//8 12//8
f 4//8 12//8 11//8
f 4//8 11//8 6//8
f 5//9 11//10 12//11
f 5//9 12//11 10//12
f 7//13 13//13 20//13
f 7//13 20//13 26//13
f 7//13 26//13 30//13
f 7//13 30//13 31//13
f 7//13 31//13 28//13
f 7//13 28//13 27//13
f 7//13 27//13 21//13
f 7//13 21//13 14//13
f 7//13 14//13 8//13
f 9//14 16//14 15//14
f 10//12 12//11 18//15
f 10//16 18//17 19//18
f 10//16 19//18 17//19
f 13//20 17//20 25//20
f 13//20 25//20 20//20
f 14//21 21//22 22//22
f 15//23 16//23 23//23
f 16//24 24//24 23//24
f 17//19 19//18 25//25
f 21//22 27//26 22//22
f 22//27 27//27 28//27
f 22//28 28//28 29//28
f 23//29 30//30 26//30
f 23//31 24//31 29//31
f 23//32 29//32 31//32
f 23//33 31//34 30//34
f 28//35 31//35 29//35
