# Blender 4.4.3
# www.blender.org
o fixed_holes_collision_geom_17
v 0.040401 0.135216 0.011593
v 0.046667 0.135216 0.011566
v 0.040401 0.135216 0.001976
v 0.040401 0.124774 0.010867
v 0.046667 0.124786 0.010880
v 0.046667 0.135216 0.001976
v 0.040401 0.124774 0.001976
v 0.046654 0.124774 0.010878
v 0.046667 0.124774 0.010785
v 0.046667 0.124774 0.001976
vn -0.0000 1.0000 -0.0000
vn -1.0000 -0.0000 -0.0000
vn -0.0012 -0.0686 0.9976
vn -0.0019 -0.0694 0.9976
vn 0.0034 -0.0662 0.9978
vn 0.0043 -0.0656 0.9978
vn 1.0000 -0.0000 -0.0000
vn -0.0000 -0.0000 -1.0000
vn -0.0000 -1.0000 -0.0000
vn -0.0000 -1.0000 0.0001
vn -0.0016 -0.2204 0.9754
vn -0.0021 -0.2204 0.9754
vn -0.0026 -0.2204 0.9754
vn 0.6585 -0.7464 0.0964
s 1
f 1//1 2//1 6//1
f 1//1 6//1 3//1
f 1//2 3//2 7//2
f 1//2 7//2 4//2
f 1//3 4//4 5//5
f 1//3 5//5 2//6
f 2//7 5//7 9//7
f 2//7 9//7 10//7
f 2//7 10//7 6//7
f 3//8 6//8 10//8
f 3//8 10//8 7//8
f 4//9 7//9 10//9
f 4//9 10//9 9//10
f 4//9 9//10 8//10
f 4//11 8//12 5//13
f 5//14 8//14 9//14
