# Blender 4.4.3
# www.blender.org
o fixed_holes_collision_geom_124
v 0.037443 0.000215 0.001976
v 0.040749 0.000215 0.001976
v 0.037336 0.000215 0.002745
v 0.037336 0.000220 0.001976
v 0.040749 0.009523 0.001976
v 0.040749 0.000215 0.010791
v 0.037336 0.000215 0.011386
v 0.037336 0.009523 0.001976
v 0.040749 0.009523 0.016685
v 0.040749 0.000924 0.019177
v 0.037495 0.000215 0.011989
v 0.037336 0.000225 0.012070
v 0.037336 0.009523 0.016698
v 0.037336 0.009417 0.019165
v 0.040749 0.009399 0.019177
v 0.037443 0.000924 0.019177
v 0.037336 0.000924 0.019165
v 0.037336 0.008588 0.019177
v 0.037436 0.009400 0.019177
v 0.037336 0.007762 0.019177
vn -0.0000 -1.0000 -0.0000
vn -0.0508 -0.9987 -0.0071
vn -0.0000 -0.0000 -1.0000
vn 1.0000 -0.0000 -0.0000
vn -1.0000 -0.0000 -0.0000
vn -1.0000 0.0003 -0.0000
vn -0.0000 1.0000 -0.0000
vn 0.0310 -0.9960 0.0843
vn -0.0500 -0.9987 0.0132
vn 0.0007 0.9991 0.0430
vn 0.0002 0.9991 0.0429
vn 0.0053 0.9988 0.0492
vn 0.0052 0.9987 0.0498
vn -0.0000 -0.0000 1.0000
vn -0.0000 -0.9952 0.0982
vn -0.0101 -0.9951 0.0987
vn -0.0016 -0.9952 0.0983
vn -0.0076 -0.9951 0.0983
vn -0.0108 -0.9951 0.0981
vn -0.1145 0.0141 0.9933
vn 0.0002 0.5633 0.8263
vn -0.1092 -0.0017 0.9940
s 1
f 1//1 2//1 6//1
f 1//1 6//1 11//1
f 1//1 11//1 7//1
f 1//1 7//1 3//1
f 1//2 3//2 4//2
f 1//3 4//3 8//3
f 1//3 8//3 5//3
f 1//3 5//3 2//3
f 2//4 5//4 9//4
f 2//4 9//4 15//4
f 2//4 15//4 10//4
f 2//4 10//4 6//4
f 3//5 7//6 12//5
f 3//5 12//5 17//5
f 3//5 17//5 20//5
f 3//5 20//5 18//5
f 3//5 18//5 14//5
f 3//5 14//5 13//5
f 3//5 13//5 8//5
f 3//5 8//5 4//5
f 5//7 8//7 13//7
f 5//7 13//7 9//7
f 6//8 10//8 11//8
f 7//9 11//9 12//9
f 9//10 13//11 14//12
f 9//10 14//12 15//13
f 10//14 15//14 19//14
f 10//14 19//14 18//14
f 10//14 18//14 20//14
f 10//14 20//14 16//14
f 10//15 16//16 11//17
f 11//17 16//16 12//18
f 12//18 16//16 17//19
f 14//20 18//20 19//20
f 14//21 19//21 15//21
f 16//22 20//22 17//22
