# Blender 4.4.3
# www.blender.org
o fixed_holes_collision_geom_3
v -0.065881 0.112129 0.002932
v -0.065881 0.112129 0.005931
v -0.065881 0.132578 0.002932
v -0.065821 0.112129 0.002408
v -0.065821 0.088989 0.002409
v -0.065876 0.088989 0.002932
v -0.065876 0.088989 0.005931
v -0.065881 0.132578 0.005931
v -0.065871 0.133055 0.002932
v -0.065817 0.133055 0.002408
v -0.065821 0.132578 0.002408
v -0.065617 0.112129 0.002072
v -0.065606 0.088989 0.002062
v -0.010759 0.088989 0.005931
v -0.065871 0.133055 0.005931
v -0.065844 0.133531 0.002932
v -0.065784 0.133531 0.002408
v -0.065525 0.134960 0.002081
v -0.065573 0.134008 0.002062
v -0.065595 0.133531 0.002062
v -0.065606 0.133055 0.002062
v -0.065207 0.112129 0.001980
v -0.065195 0.088989 0.001977
v -0.010759 0.088989 0.001977
v -0.010753 0.112129 0.005931
v -0.065844 0.133531 0.005931
v -0.065562 0.135437 0.002932
v -0.065541 0.135437 0.002408
v -0.065606 0.134960 0.002408
v -0.065665 0.134489 0.002408
v -0.065471 0.135718 0.002129
v -0.065493 0.135437 0.002106
v -0.065195 0.135437 0.002021
v -0.065195 0.134960 0.001996
v -0.065541 0.134489 0.002067
v -0.065195 0.134489 0.001982
v -0.065195 0.134008 0.001977
v -0.010753 0.112129 0.001977
v -0.010753 0.143084 0.005931
v -0.065562 0.135437 0.005931
v -0.065493 0.135781 0.002932
v -0.065481 0.135755 0.002408
v -0.065023 0.136835 0.002408
v -0.064418 0.138079 0.002130
v -0.064986 0.136750 0.002100
v -0.065050 0.136385 0.002069
v -0.064673 0.136385 0.001984
v -0.064673 0.135914 0.001977
v -0.010753 0.142581 0.001977
v -0.010753 0.143084 0.002932
v -0.054716 0.143084 0.005931
v -0.065493 0.135781 0.005931
v -0.065401 0.136014 0.002932
v -0.065245 0.136385 0.002932
v -0.064926 0.137089 0.002932
v -0.064597 0.137815 0.002932
v -0.064441 0.138101 0.002408
v -0.064257 0.138339 0.002408
v -0.063992 0.138662 0.002408
v -0.062854 0.139981 0.002132
v -0.063949 0.138609 0.002099
v -0.064132 0.138255 0.002074
v -0.064473 0.137815 0.002093
v -0.064149 0.137815 0.002008
v -0.064149 0.137343 0.001977
v -0.054716 0.142581 0.001977
v -0.010753 0.142908 0.002062
v -0.010753 0.143041 0.002408
v -0.054716 0.143084 0.002932
v -0.055245 0.143052 0.005931
v -0.065401 0.136014 0.005931
v -0.065287 0.136290 0.005931
v -0.065007 0.136919 0.005931
v -0.064844 0.137275 0.005931
v -0.064597 0.137815 0.005931
v -0.064441 0.138117 0.002932
v -0.064268 0.138350 0.002932
v -0.064009 0.138672 0.002932
v -0.063345 0.139462 0.002932
v -0.062869 0.139991 0.002408
v -0.062600 0.140234 0.002408
v -0.062314 0.140435 0.002140
v -0.062530 0.140160 0.002100
v -0.062951 0.139721 0.002093
v -0.063625 0.138768 0.002050
v -0.063625 0.138296 0.001984
v -0.063091 0.138773 0.001977
v -0.057862 0.142103 0.001977
v -0.055245 0.142581 0.001980
v -0.054716 0.142908 0.002062
v -0.054716 0.143041 0.002408
v -0.055245 0.143025 0.002408
v -0.055245 0.143052 0.002932
v -0.055623 0.143014 0.005931
v -0.064441 0.138117 0.005931
v -0.064268 0.138350 0.005931
v -0.064009 0.138672 0.005931
v -0.063491 0.139292 0.005931
v -0.062881 0.140007 0.002932
v -0.062611 0.140240 0.002932
v -0.062352 0.140462 0.002932
v -0.062336 0.140451 0.002408
v -0.062050 0.140525 0.002100
v -0.060869 0.141473 0.002408
v -0.060814 0.141437 0.002103
v -0.061386 0.140992 0.002090
v -0.062579 0.139721 0.002009
v -0.060998 0.141150 0.002054
v -0.062050 0.140198 0.002015
v -0.062579 0.139244 0.001977
v -0.058386 0.142103 0.001997
v -0.055769 0.142581 0.001990
v -0.061003 0.140674 0.001977
v -0.059433 0.141622 0.001983
v -0.055245 0.142903 0.002064
v -0.055769 0.142888 0.002075
v -0.056286 0.142861 0.002097
v -0.056815 0.142834 0.002128
v -0.055769 0.142978 0.002408
v -0.055769 0.142999 0.002932
v -0.055769 0.142999 0.005931
v -0.062881 0.140007 0.005931
v -0.062611 0.140240 0.005931
v -0.062352 0.140462 0.005931
v -0.060879 0.141484 0.002932
v -0.060479 0.141723 0.002932
v -0.060199 0.141850 0.002408
v -0.059842 0.141918 0.002099
v -0.060479 0.141532 0.002073
v -0.060479 0.141150 0.001988
v -0.058386 0.142421 0.002082
v -0.057862 0.142485 0.002062
v -0.056286 0.142581 0.002013
v -0.059433 0.141976 0.002068
v -0.059994 0.141664 0.002049
v -0.057080 0.142813 0.002146
v -0.057134 0.142824 0.002408
v -0.056815 0.142877 0.002932
v -0.056815 0.142877 0.005931
v -0.060879 0.141484 0.005931
v -0.060479 0.141723 0.005931
v -0.060209 0.141861 0.002932
v -0.059956 0.141961 0.002932
v -0.058802 0.142400 0.002932
v -0.058779 0.142389 0.002408
v -0.058721 0.142364 0.002116
v -0.057862 0.142671 0.002408
v -0.057393 0.142777 0.002408
v -0.057441 0.142797 0.002932
v -0.057441 0.142797 0.005931
v -0.060209 0.141861 0.005931
v -0.059816 0.142019 0.005931
v -0.058245 0.142601 0.005931
v -0.058386 0.142549 0.002932
v -0.058386 0.142527 0.002408
v -0.057862 0.142718 0.002932
v -0.057862 0.142718 0.005931
vn -1.0000 -0.0001 -0.0000
vn -1.0000 -0.0000 -0.0000
vn -0.9941 -0.0001 -0.1081
vn -0.9938 0.0082 -0.1113
vn -0.9939 0.0015 -0.1102
vn -0.9936 -0.0000 -0.1127
vn -0.9939 -0.0001 -0.1099
vn -0.9947 -0.0002 -0.1026
vn -1.0000 -0.0003 -0.0000
vn -0.0000 -0.0000 1.0000
vn 0.0001 -0.0000 1.0000
vn -0.9997 0.0226 -0.0000
vn -0.9998 0.0223 -0.0000
vn -0.9998 0.0222 -0.0000
vn -0.9945 0.0225 -0.1026
vn -0.9936 0.0111 -0.1128
vn -0.8543 -0.0000 -0.5198
vn -0.8544 0.0042 -0.5195
vn -0.8504 -0.0000 -0.5261
vn -0.8533 -0.0001 -0.5215
vn -0.0000 -1.0000 -0.0000
vn -0.8490 -0.0002 -0.5284
vn -0.9984 0.0568 -0.0000
vn -0.9984 0.0564 -0.0000
vn -0.9932 0.0562 -0.1024
vn -0.9914 0.0674 -0.1125
vn -0.9914 0.0674 -0.1124
vn -0.8948 0.0609 -0.4424
vn -0.8816 0.0543 -0.4688
vn -0.8816 0.0542 -0.4688
vn -0.8657 0.0393 -0.4990
vn -0.8657 0.0394 -0.4990
vn -0.8550 0.0168 -0.5184
vn -0.8544 0.0193 -0.5192
vn -0.8513 0.0034 -0.5246
vn -0.6357 -0.0000 -0.7720
vn -0.2029 -0.0000 -0.9792
vn -0.2016 -0.0000 -0.9795
vn -0.2086 0.0028 -0.9780
vn 1.0000 -0.0003 -0.0000
vn 1.0000 -0.0001 -0.0000
vn -0.9893 0.1456 -0.0000
vn -0.9885 0.1456 -0.0407
vn -0.9876 0.1343 -0.0814
vn -0.9876 0.1342 -0.0814
vn -0.9863 0.1234 -0.1094
vn -0.9863 0.1242 -0.1082
vn -0.9864 0.1232 -0.1089
vn -0.9862 0.1222 -0.1119
vn -0.9815 0.1216 -0.1481
vn -0.9823 0.1231 -0.1415
vn -0.9824 0.1235 -0.1404
vn -0.9498 0.0980 -0.2971
vn -0.9498 0.0982 -0.2971
vn -0.9498 0.0981 -0.2971
vn -0.9244 0.0821 -0.3725
vn -0.2729 0.0682 -0.9596
vn -0.2458 0.0474 -0.9682
vn -0.2480 0.0502 -0.9675
vn -0.2457 0.0407 -0.9685
vn -0.2480 0.0379 -0.9680
vn -0.5341 0.0440 -0.8443
vn -0.5341 0.0439 -0.8443
vn -0.2381 0.0253 -0.9709
vn -0.2388 0.0289 -0.9706
vn -0.2399 0.0284 -0.9704
vn -0.2198 0.0103 -0.9755
vn -0.2173 0.0087 -0.9761
vn -0.2175 0.0088 -0.9760
vn -0.2072 0.0031 -0.9783
vn -0.1416 -0.0000 -0.9899
vn -0.0000 -0.0000 -1.0000
vn 1.0000 -0.0000 -0.0000
vn -0.9799 0.1995 -0.0000
vn -0.9794 0.1995 -0.0303
vn -0.9794 0.1995 -0.0302
vn -0.9822 0.1837 -0.0405
vn -0.9810 0.1836 -0.0622
vn -0.9845 0.1338 -0.1131
vn -0.9845 0.1337 -0.1131
vn -0.9825 0.1237 -0.1392
vn -0.9171 0.3889 -0.0870
vn -0.9014 0.4017 -0.1614
vn -0.7182 0.3202 -0.6177
vn -0.7182 0.3203 -0.6177
vn -0.3538 0.1401 -0.9248
vn -0.2981 0.1028 -0.9490
vn -0.2723 0.0904 -0.9580
vn -0.2181 0.0828 -0.9724
vn -0.2180 0.0936 -0.9715
vn -0.2185 0.0851 -0.9721
vn -0.1619 0.0512 -0.9855
vn -0.1620 0.0512 -0.9855
vn -0.2382 0.0302 -0.9707
vn -0.1072 0.0310 -0.9938
vn -0.1072 0.0309 -0.9938
vn -0.0483 0.0147 -0.9987
vn -0.0465 0.0148 -0.9988
vn -0.0428 0.0145 -0.9990
vn -0.0321 0.0088 -0.9994
vn -0.0000 1.0000 -0.0000
vn -0.9305 0.3663 -0.0000
vn -0.9305 0.3662 -0.0000
vn -0.9298 0.3662 -0.0378
vn -0.9196 0.3894 -0.0508
vn -0.9201 0.3884 -0.0502
vn -0.9197 0.3893 -0.0508
vn -0.9192 0.3903 -0.0529
vn -0.9087 0.4156 -0.0395
vn -0.9107 0.4119 -0.0309
vn -0.9105 0.4123 -0.0316
vn -0.9095 0.4144 -0.0336
vn -0.9075 0.4179 -0.0431
vn -0.9036 0.4161 -0.1016
vn -0.7878 0.6065 -0.1072
vn -0.7878 0.6066 -0.1072
vn -0.7654 0.6281 -0.1405
vn -0.7663 0.6272 -0.1389
vn -0.7653 0.6280 -0.1410
vn -0.7637 0.6288 -0.1462
vn -0.5982 0.4929 -0.6318
vn -0.3187 0.2281 -0.9200
vn -0.3186 0.2281 -0.9200
vn -0.3010 0.1950 -0.9335
vn -0.4651 0.2178 -0.8581
vn -0.2838 0.1299 -0.9500
vn -0.2505 0.1165 -0.9611
vn -0.2505 0.1166 -0.9611
vn -0.2178 0.0958 -0.9713
vn -0.1292 0.0634 -0.9896
vn -0.0408 0.0150 -0.9991
vn -0.0000 0.2490 -0.9685
vn -0.0021 0.2479 -0.9688
vn -0.0029 0.2478 -0.9688
vn -0.0000 0.9967 -0.0806
vn -0.0600 0.9982 -0.0000
vn -0.0601 0.9982 -0.0000
vn -0.9237 0.3831 -0.0003
vn -0.9247 0.3807 -0.0000
vn -0.9221 0.3869 -0.0009
vn -0.9213 0.3888 -0.0008
vn -0.9127 0.4086 -0.0006
vn -0.9135 0.4068 -0.0000
vn -0.9106 0.4133 -0.0027
vn -0.9110 0.4125 -0.0013
vn -0.9095 0.4157 -0.0004
vn -0.9089 0.4170 -0.0006
vn -0.9087 0.4174 -0.0000
vn -0.8878 0.4602 -0.0000
vn -0.8876 0.4605 -0.0000
vn -0.8879 0.4601 -0.0000
vn -0.8877 0.4605 -0.0000
vn -0.8876 0.4604 -0.0141
vn -0.8033 0.5953 -0.0179
vn -0.7920 0.6099 -0.0287
vn -0.7796 0.6253 -0.0333
vn -0.7798 0.6254 -0.0288
vn -0.7778 0.6274 -0.0378
vn -0.7733 0.6330 -0.0369
vn -0.7637 0.6443 -0.0398
vn -0.7648 0.6433 -0.0367
vn -0.7631 0.6453 -0.0356
vn -0.7628 0.6457 -0.0354
vn -0.7622 0.6437 -0.0692
vn -0.7621 0.6437 -0.0692
vn -0.6686 0.7406 -0.0675
vn -0.6686 0.7405 -0.0675
vn -0.6399 0.7603 -0.1120
vn -0.2835 0.3528 -0.8917
vn -0.2171 0.2229 -0.9504
vn -0.2164 0.2223 -0.9507
vn -0.2165 0.2224 -0.9506
vn -0.2744 0.2415 -0.9308
vn -0.2341 0.1868 -0.9541
vn -0.2342 0.1868 -0.9541
vn -0.2479 0.2176 -0.9440
vn -0.2016 0.1538 -0.9673
vn -0.2016 0.1539 -0.9673
vn -0.2017 0.1538 -0.9673
vn -0.2492 0.1539 -0.9562
vn -0.2492 0.1539 -0.9561
vn -0.2491 0.1539 -0.9562
vn -0.1701 0.1370 -0.9759
vn -0.1683 0.1375 -0.9761
vn -0.1651 0.1383 -0.9765
vn -0.1033 0.0637 -0.9926
vn -0.0363 0.0268 -0.9990
vn -0.0045 0.0293 -0.9996
vn -0.0054 0.2502 -0.9682
vn -0.0000 0.9340 -0.3572
vn -0.0050 0.9358 -0.3524
vn -0.0015 0.9355 -0.3533
vn -0.0299 0.9963 -0.0807
vn -0.0599 0.9969 -0.0506
vn -0.0975 0.9952 -0.0000
vn -0.0979 0.9952 -0.0004
vn -0.1058 0.9944 -0.0003
vn -0.8035 0.5953 -0.0000
vn -0.8035 0.5954 -0.0000
vn -0.7801 0.6256 -0.0000
vn -0.7800 0.6257 -0.0000
vn -0.7801 0.6257 -0.0000
vn -0.7667 0.6420 -0.0000
vn -0.7670 0.6416 -0.0000
vn -0.7617 0.6479 -0.0009
vn -0.7619 0.6477 -0.0008
vn -0.7611 0.6487 -0.0002
vn -0.7612 0.6476 -0.0354
vn -0.6697 0.7417 -0.0364
vn -0.6528 0.7573 -0.0212
vn -0.6527 0.7573 -0.0212
vn -0.6515 0.7584 -0.0211
vn -0.6341 0.7724 -0.0353
vn -0.6316 0.7693 -0.0964
vn -0.6533 0.7568 -0.0210
vn -0.2522 0.3306 -0.9094
vn -0.5689 0.8170 -0.0939
vn -0.5475 0.8135 -0.1960
vn -0.5475 0.8136 -0.1960
vn -0.2738 0.3782 -0.8843
vn -0.2573 0.3492 -0.9010
vn -0.2572 0.3492 -0.9010
vn -0.2155 0.2213 -0.9511
vn -0.1870 0.2447 -0.9514
vn -0.1872 0.2451 -0.9512
vn -0.1868 0.2445 -0.9515
vn -0.1859 0.2195 -0.9577
vn -0.2167 0.1960 -0.9564
vn -0.2167 0.1959 -0.9564
vn -0.2166 0.1960 -0.9564
vn -0.1639 0.1372 -0.9769
vn -0.0796 0.0756 -0.9940
vn -0.0595 0.0647 -0.9961
vn -0.0591 0.0647 -0.9961
vn -0.0591 0.0647 -0.9962
vn -0.0363 0.1870 -0.9817
vn -0.0363 0.1871 -0.9817
vn -0.0364 0.1870 -0.9817
vn -0.0205 0.1176 -0.9929
vn -0.0206 0.1176 -0.9929
vn -0.0113 0.0249 -0.9996
vn -0.0368 0.1080 -0.9935
vn -0.0369 0.1080 -0.9935
vn -0.0200 0.2528 -0.9673
vn -0.0239 0.2545 -0.9668
vn -0.0294 0.2585 -0.9656
vn -0.0068 0.2529 -0.9675
vn -0.0109 0.9341 -0.3570
vn -0.0283 0.9422 -0.3337
vn -0.0326 0.9432 -0.3306
vn -0.0343 0.9425 -0.3325
vn -0.0356 0.9421 -0.3335
vn -0.0638 0.9525 -0.2979
vn -0.0611 0.9527 -0.2978
vn -0.0620 0.9534 -0.2952
vn -0.0646 0.9557 -0.2872
vn -0.0895 0.9820 -0.1664
vn -0.0890 0.9821 -0.1659
vn -0.0899 0.9822 -0.1652
vn -0.0906 0.9946 -0.0504
vn -0.1007 0.9941 -0.0402
vn -0.1066 0.9943 -0.0002
vn -0.1091 0.9940 -0.0000
vn -0.7608 0.6490 -0.0000
vn -0.6536 0.7568 -0.0000
vn -0.6532 0.7572 -0.0000
vn -0.6527 0.7576 -0.0000
vn -0.6515 0.7587 -0.0000
vn -0.5701 0.8215 -0.0000
vn -0.5697 0.8213 -0.0293
vn -0.5699 0.8212 -0.0282
vn -0.5706 0.8205 -0.0331
vn -0.5710 0.8202 -0.0343
vn -0.1981 0.2641 -0.9440
vn -0.1981 0.2640 -0.9440
vn -0.5123 0.8583 -0.0279
vn -0.4892 0.8707 -0.0508
vn -0.4809 0.8560 -0.1895
vn -0.4256 0.8542 -0.2987
vn -0.1940 0.3801 -0.9044
vn -0.1678 0.2740 -0.9470
vn -0.2113 0.2991 -0.9305
vn -0.0842 0.1071 -0.9907
vn -0.0876 0.1147 -0.9895
vn -0.0866 0.1121 -0.9899
vn -0.0588 0.0648 -0.9962
vn -0.1230 0.2149 -0.9688
vn -0.1240 0.1763 -0.9765
vn -0.0900 0.1198 -0.9887
vn -0.0677 0.2571 -0.9640
vn -0.0442 0.2267 -0.9730
vn -0.0443 0.2267 -0.9730
vn -0.0409 0.2120 -0.9764
vn -0.0935 0.2306 -0.9686
vn -0.0951 0.2296 -0.9686
vn -0.0955 0.2298 -0.9685
vn -0.0961 0.2565 -0.9618
vn -0.0403 0.2648 -0.9635
vn -0.0412 0.2677 -0.9626
vn -0.0446 0.2736 -0.9608
vn -0.0280 0.2649 -0.9639
vn -0.0269 0.0507 -0.9984
vn -0.0988 0.2106 -0.9726
vn -0.0997 0.2126 -0.9720
vn -0.1017 0.2138 -0.9716
vn -0.0968 0.2304 -0.9683
vn -0.0468 0.2749 -0.9603
vn -0.0561 0.3228 -0.9448
vn -0.0734 0.3921 -0.9170
vn -0.0858 0.4264 -0.9004
vn -0.0857 0.4264 -0.9004
vn -0.0980 0.4703 -0.8770
vn -0.0979 0.4704 -0.8770
vn -0.0980 0.4704 -0.8770
vn -0.0900 0.9822 -0.1647
vn -0.1115 0.9918 -0.0629
vn -0.1120 0.9929 -0.0406
vn -0.1103 0.9931 -0.0388
vn -0.1144 0.9929 -0.0317
vn -0.1155 0.9928 -0.0302
vn -0.1158 0.9933 -0.0000
vn -0.1269 0.9919 -0.0000
vn -0.1155 0.9933 -0.0000
vn -0.5121 0.8589 -0.0000
vn -0.5124 0.8587 -0.0000
vn -0.5125 0.8587 -0.0000
vn -0.4544 0.8908 -0.0000
vn -0.4545 0.8908 -0.0000
vn -0.4542 0.8905 -0.0274
vn -0.4542 0.8905 -0.0273
vn -0.3686 0.9292 -0.0264
vn -0.3555 0.9341 -0.0336
vn -0.3556 0.9340 -0.0336
vn -0.3555 0.9341 -0.0334
vn -0.3514 0.9232 -0.1556
vn -0.3573 0.9106 -0.2078
vn -0.1097 0.2468 -0.9628
vn -0.1061 0.2467 -0.9633
vn -0.1089 0.2479 -0.9627
vn -0.1127 0.2503 -0.9616
vn -0.1717 0.4693 -0.8662
vn -0.1718 0.4693 -0.8662
vn -0.1114 0.2921 -0.9499
vn -0.1035 0.2148 -0.9712
vn -0.1968 0.7579 -0.6220
vn -0.2526 0.9366 -0.2430
vn -0.2529 0.9366 -0.2425
vn -0.2553 0.9376 -0.2360
vn -0.2184 0.9680 -0.1237
vn -0.2183 0.9680 -0.1237
vn -0.1806 0.9806 -0.0766
vn -0.1809 0.9819 -0.0566
vn -0.1837 0.9813 -0.0572
vn -0.1827 0.9815 -0.0579
vn -0.1258 0.9918 -0.0238
vn -0.1257 0.9921 -0.0000
vn -0.3731 0.9278 -0.0002
vn -0.3741 0.9274 -0.0000
vn -0.3698 0.9291 -0.0007
vn -0.3687 0.9296 -0.0009
vn -0.3558 0.9346 -0.0015
vn -0.3466 0.9380 0.0010
vn -0.3385 0.9410 -0.0005
vn -0.3361 0.9418 -0.0009
vn -0.3359 0.9413 -0.0329
vn -0.3298 0.9434 -0.0352
vn -0.3302 0.9433 -0.0333
vn -0.3474 0.9377 0.0016
vn -0.3296 0.9433 -0.0382
vn -0.3260 0.9332 -0.1511
vn -0.2561 0.9379 -0.2339
vn -0.2192 0.9717 -0.0886
vn -0.2624 0.9610 -0.0876
vn -0.1851 0.9811 -0.0569
vn -0.1853 0.9827 -0.0000
vn -0.2910 0.9567 -0.0000
vn -0.3081 0.9514 -0.0024
vn -0.3079 0.9506 -0.0384
s 1
f 1//1 2//1 8//2
f 1//1 8//2 3//2
f 1//3 3//4 11//5
f 1//3 11//5 4//6
f 1//3 4//6 5//7
f 1//3 5//7 6//8
f 1//1 6//9 7//9
f 1//1 7//9 2//1
f 2//10 7//10 14//10
f 2//10 14//10 25//10
f 2//10 25//10 39//10
f 2//10 39//10 51//10
f 2//10 51//10 70//10
f 2//10 70//10 94//10
f 2//10 94//10 121//10
f 2//10 121//10 139//10
f 2//10 139//10 150//10
f 2//10 150//10 157//10
f 2//10 157//10 153//10
f 2//10 153//10 152//10
f 2//10 152//10 151//10
f 2//10 151//10 141//10
f 2//10 141//10 140//10
f 2//10 140//10 124//10
f 2//10 124//10 123//10
f 2//10 123//10 122//10
f 2//10 122//10 98//10
f 2//10 98//10 97//10
f 2//10 97//10 96//10
f 2//10 96//10 95//10
f 2//10 95//10 75//10
f 2//10 75//10 74//10
f 2//10 74//10 73//10
f 2//10 73//10 72//10
f 2//10 72//10 71//10
f 2//10 71//10 52//10
f 2//10 52//10 40//10
f 2//10 40//10 26//10
f 2//10 26//10 15//10
f 2//10 15//10 8//11
f 3//12 8//13 15//14
f 3//12 15//14 9//12
f 3//15 9//15 10//15
f 3//4 10//16 11//5
f 4//17 11//18 12//19
f 4//17 12//19 5//20
f 5//21 13//21 23//21
f 5//21 23//21 24//21
f 5//21 24//21 14//21
f 5//21 14//21 7//21
f 5//21 7//21 6//21
f 5//20 12//19 13//22
f 9//23 15//24 26//23
f 9//23 26//23 16//24
f 9//25 16//25 10//25
f 10//26 16//26 17//27
f 10//28 17//28 18//28
f 10//29 18//30 19//30
f 10//31 19//32 20//31
f 10//33 20//34 21//35
f 10//33 21//35 11//18
f 11//18 21//35 12//19
f 12//36 21//36 13//36
f 13//37 22//38 23//38
f 13//37 21//39 22//38
f 14//40 24//40 38//41
f 14//40 38//41 25//41
f 16//42 26//42 40//42
f 16//42 40//42 27//42
f 16//43 27//43 28//43
f 16//44 28//45 29//45
f 16//46 29//47 30//48
f 16//46 30//48 17//49
f 17//50 30//51 31//52
f 17//53 31//54 32//55
f 17//56 32//56 18//56
f 18//57 32//57 33//57
f 18//58 33//59 34//60
f 18//58 34//60 35//61
f 18//62 35//63 19//63
f 19//64 35//65 36//66
f 19//67 36//68 20//69
f 20//69 36//68 37//70
f 20//69 37//70 21//39
f 21//39 37//70 22//38
f 22//71 37//71 23//71
f 23//72 37//72 48//72
f 23//72 48//72 65//72
f 23//72 65//72 87//72
f 23//72 87//72 110//72
f 23//72 110//72 113//72
f 23//72 113//72 88//72
f 23//72 88//72 66//72
f 23//72 66//72 49//72
f 23//72 49//72 38//72
f 23//72 38//72 24//72
f 25//41 38//41 49//73
f 25//41 49//73 67//73
f 25//41 67//73 68//73
f 25//41 68//73 50//73
f 25//41 50//73 39//73
f 27//74 40//74 52//74
f 27//74 52//74 41//74
f 27//75 41//76 42//76
f 27//77 42//77 28//77
f 28//78 42//78 31//78
f 28//79 31//79 29//80
f 29//81 31//52 30//51
f 31//82 42//82 43//82
f 31//83 43//83 44//83
f 31//84 44//85 45//84
f 31//86 45//86 46//86
f 31//87 46//87 32//87
f 32//88 46//88 33//88
f 33//89 46//90 47//91
f 33//92 47//92 34//93
f 34//94 36//66 35//65
f 34//95 47//95 36//96
f 36//97 47//98 48//99
f 36//100 48//100 37//100
f 39//101 50//101 69//101
f 39//101 69//101 51//101
f 41//102 52//103 71//103
f 41//102 71//103 53//102
f 41//104 53//104 42//104
f 42//105 53//106 54//107
f 42//105 54//107 43//108
f 43//109 54//110 55//111
f 43//109 55//111 56//112
f 43//109 56//112 57//113
f 43//114 57//114 44//114
f 44//115 57//116 58//115
f 44//117 58//118 59//119
f 44//117 59//119 60//120
f 44//121 60//121 61//121
f 44//122 61//123 62//123
f 44//124 62//124 63//124
f 44//125 63//125 45//125
f 45//126 63//126 46//126
f 46//127 63//128 64//127
f 46//90 64//129 47//91
f 47//130 64//130 65//130
f 47//98 65//131 48//99
f 49//132 66//133 90//134
f 49//132 90//134 67//132
f 50//135 68//135 91//135
f 50//135 91//135 69//135
f 51//136 69//137 93//136
f 51//136 93//136 70//137
f 53//138 71//139 72//140
f 53//138 72//140 54//141
f 54//142 72//143 73//144
f 54//142 73//144 55//145
f 55//145 73//144 56//146
f 56//146 73//144 74//147
f 56//146 74//147 75//148
f 56//149 75//150 95//151
f 56//149 95//151 76//152
f 56//153 76//153 57//153
f 57//154 76//154 77//154
f 57//155 77//155 58//155
f 58//156 77//157 78//158
f 58//156 78//158 59//159
f 59//160 78//161 79//162
f 59//160 79//162 80//163
f 59//164 80//165 60//164
f 60//166 80//167 81//166
f 60//168 81//168 82//168
f 60//169 82//169 83//169
f 60//170 83//171 84//172
f 60//173 84//173 61//173
f 61//174 85//175 62//175
f 61//176 84//176 85//176
f 62//177 85//178 64//179
f 62//180 64//181 63//182
f 64//183 85//184 86//185
f 64//186 86//186 65//186
f 65//187 86//187 87//187
f 66//188 88//188 89//188
f 66//133 89//189 90//134
f 67//190 90//191 91//192
f 67//190 91//192 68//190
f 69//193 91//193 92//193
f 69//194 92//194 93//194
f 70//195 93//196 94//197
f 76//198 95//199 96//199
f 76//198 96//199 77//198
f 77//200 96//200 97//201
f 77//200 97//201 78//202
f 78//203 97//204 98//205
f 78//203 98//205 79//206
f 79//206 98//205 99//207
f 79//162 99//208 80//163
f 80//209 99//209 81//209
f 81//210 100//211 101//212
f 81//213 101//213 102//213
f 81//214 102//214 82//214
f 81//210 99//215 100//211
f 82//216 103//216 83//216
f 82//217 102//217 104//217
f 82//218 104//219 105//218
f 82//220 105//220 106//220
f 82//221 106//222 103//221
f 83//171 107//223 84//172
f 83//224 103//225 108//224
f 83//224 108//224 109//226
f 83//227 109//227 107//227
f 84//228 107//229 85//230
f 85//184 107//231 86//185
f 86//232 107//232 87//232
f 87//233 107//234 110//235
f 88//236 111//237 112//238
f 88//239 112//240 89//240
f 88//241 113//241 114//241
f 88//242 114//243 111//242
f 89//244 112//245 115//246
f 89//189 115//247 90//134
f 90//191 115//248 91//192
f 91//249 115//250 92//251
f 92//251 115//250 116//252
f 92//253 116//254 117//255
f 92//253 117//255 118//256
f 92//257 118//258 119//259
f 92//260 119//260 93//260
f 93//261 119//261 120//261
f 93//196 120//262 94//197
f 94//197 120//262 121//263
f 98//205 122//264 99//207
f 99//265 122//265 123//266
f 99//265 123//266 100//267
f 100//267 123//266 124//268
f 100//267 124//268 101//268
f 101//269 124//269 140//269
f 101//269 140//269 125//269
f 101//270 125//271 104//272
f 101//270 104//272 102//273
f 103//274 106//275 108//275
f 104//276 125//276 126//276
f 104//277 126//277 127//277
f 104//278 127//278 105//278
f 105//279 127//279 128//279
f 105//280 128//280 129//280
f 105//281 129//281 108//281
f 105//282 108//282 106//282
f 107//283 109//284 113//285
f 107//234 113//286 110//235
f 108//287 129//287 130//287
f 108//288 130//288 109//288
f 109//284 130//289 113//285
f 111//290 131//290 132//290
f 111//291 132//292 133//292
f 111//293 133//293 112//293
f 111//294 114//295 134//296
f 111//297 134//297 131//297
f 112//298 133//299 116//300
f 112//245 116//301 115//246
f 113//302 130//302 114//302
f 114//303 130//304 135//305
f 114//295 135//306 134//296
f 116//300 133//299 132//307
f 116//308 132//308 117//308
f 117//309 132//309 118//309
f 118//310 132//311 131//311
f 118//312 131//313 136//314
f 118//258 136//315 119//259
f 119//316 136//316 137//316
f 119//317 137//318 120//319
f 120//319 137//318 138//320
f 120//321 138//322 139//323
f 120//321 139//323 121//321
f 125//324 140//324 141//325
f 125//324 141//325 126//326
f 126//327 141//327 151//328
f 126//327 151//328 142//327
f 126//329 142//330 127//329
f 127//331 142//331 143//331
f 127//332 143//333 144//334
f 127//332 144//334 145//334
f 127//335 145//335 146//335
f 127//336 146//336 128//336
f 128//337 134//338 135//339
f 128//337 135//339 129//340
f 128//341 146//341 131//342
f 128//343 131//343 134//343
f 129//344 135//305 130//304
f 131//345 146//345 136//345
f 136//346 146//347 147//348
f 136//349 147//350 148//349
f 136//351 148//351 137//351
f 137//352 148//353 149//354
f 137//355 149//355 138//355
f 138//322 149//356 150//356
f 138//322 150//356 139//323
f 142//357 151//358 152//359
f 142//357 152//359 143//360
f 143//361 152//361 144//361
f 144//362 153//363 154//364
f 144//365 154//366 145//367
f 144//362 152//368 153//363
f 145//367 154//366 155//369
f 145//370 155//370 146//370
f 146//347 155//371 147//348
f 147//372 156//372 148//372
f 147//373 155//373 156//373
f 148//353 156//374 149//354
f 149//375 156//375 157//375
f 149//375 157//375 150//375
f 153//376 157//376 156//376
f 153//377 156//377 154//377
f 154//378 156//378 155//378
