# Blender 4.4.3
# www.blender.org
o fixed_holes_collision_geom_96
v 0.035871 -0.039754 0.023261
v 0.036339 -0.039754 0.023177
v 0.036338 -0.039276 0.023176
v 0.035871 -0.039276 0.023260
v 0.032030 -0.039437 0.023261
v 0.032030 -0.039754 0.023261
v 0.035871 -0.053807 0.023261
v 0.036383 -0.053807 0.023173
v 0.036505 -0.053807 0.023006
v 0.036588 -0.039754 0.022830
v 0.036581 -0.039276 0.022830
v 0.036269 -0.038978 0.023148
v 0.035871 -0.038949 0.023176
v 0.032030 -0.039060 0.023205
v 0.032030 -0.039276 0.023260
v 0.032030 -0.053807 0.023261
v 0.036619 -0.053807 0.022830
v 0.036632 -0.039754 0.022307
v 0.036627 -0.053807 0.022731
v 0.036621 -0.039276 0.022307
v 0.036354 -0.038934 0.022830
v 0.035871 -0.038830 0.022830
v 0.032030 -0.038949 0.023176
v 0.032030 -0.053807 0.017734
v 0.036632 -0.039754 0.017734
v 0.036624 -0.039404 0.017734
v 0.036656 -0.053807 0.022296
v 0.036656 -0.053807 0.021772
v 0.036621 -0.039276 0.017734
v 0.036439 -0.039014 0.017734
v 0.036372 -0.038919 0.022307
v 0.035871 -0.038801 0.022307
v 0.032030 -0.038349 0.017734
v 0.032030 -0.038830 0.022830
v 0.036656 -0.053807 0.017734
v 0.036372 -0.038919 0.017734
v 0.035871 -0.038801 0.017734
vn 0.1750 -0.0015 0.9846
vn 0.1780 0.0009 0.9840
vn 0.1775 0.0019 0.9841
vn 0.1769 0.0023 0.9842
vn -0.0005 0.0018 1.0000
vn -0.0001 0.0030 1.0000
vn -0.0000 0.0025 1.0000
vn -0.0000 0.0011 1.0000
vn -0.0000 -0.0000 1.0000
vn 0.1708 -0.0000 0.9853
vn 0.1756 0.0001 0.9845
vn 0.7463 0.0023 0.6656
vn 0.7463 0.0022 0.6656
vn 0.7463 0.0024 0.6656
vn 0.8095 0.0004 0.5871
vn 0.8083 0.0024 0.5887
vn 0.8118 0.0034 0.5839
vn 0.8114 0.0025 0.5845
vn 0.8162 0.0094 0.5776
vn 0.8174 0.0118 0.5759
vn 0.7943 0.2361 0.5598
vn 0.7942 0.2361 0.5599
vn 0.1754 0.1326 0.9755
vn 0.0851 0.2489 0.9648
vn -0.0000 0.2495 0.9684
vn -0.0000 0.2504 0.9681
vn -0.0000 0.2501 0.9682
vn -0.0000 0.2492 0.9684
vn -0.0000 0.0038 1.0000
vn -1.0000 -0.0000 -0.0000
vn -0.0000 -1.0000 -0.0000
vn 0.8381 0.0018 0.5456
vn 0.9963 0.0038 0.0864
vn 0.9963 0.0114 0.0855
vn 0.9964 0.0142 0.0836
vn 0.9963 0.0022 0.0861
vn 0.9964 0.0022 0.0852
vn 0.8312 0.5524 0.0626
vn 0.8312 0.5525 0.0626
vn 0.7977 0.5302 0.2871
vn 0.7977 0.5303 0.2871
vn 0.9969 0.0235 0.0750
vn 0.2079 0.9598 0.1885
vn 0.0907 0.9410 0.3261
vn -0.0000 0.2508 0.9680
vn -0.0000 0.9449 0.3274
vn -0.0000 0.9449 0.3275
vn 0.9997 0.0234 -0.0000
vn 0.9997 0.0236 -0.0000
vn 0.9997 0.0237 -0.0000
vn 0.9997 0.0241 -0.0000
vn 0.9979 0.0017 0.0655
vn 1.0000 0.0018 0.0003
vn 1.0000 0.0018 0.0008
vn 1.0000 0.0018 0.0006
vn 1.0000 0.0018 -0.0000
vn 0.9997 0.0243 -0.0000
vn 0.8202 0.5720 -0.0000
vn 0.8203 0.5719 -0.0000
vn 0.8201 0.5723 -0.0000
vn 0.8199 0.5725 0.0001
vn 0.8191 0.5719 0.0440
vn 0.2295 0.9727 0.0358
vn 0.2113 0.9759 0.0536
vn 0.0520 0.9971 0.0550
vn -0.0000 0.9956 0.0941
vn -0.0000 -0.0000 -1.0000
vn 0.8197 0.5727 -0.0000
vn 0.2296 0.9733 -0.0000
vn 0.2295 0.9733 -0.0000
vn 0.1170 0.9931 -0.0000
s 1
f 1//1 2//2 3//3
f 1//1 3//3 4//4
f 1//5 4//6 5//7
f 1//5 5//7 6//8
f 1//5 6//8 16//9
f 1//9 16//9 7//9
f 1//1 7//10 8//11
f 1//1 8//11 2//2
f 2//12 8//13 3//14
f 3//15 8//16 9//16
f 3//17 9//18 10//19
f 3//17 10//19 11//20
f 3//21 11//22 12//21
f 3//23 12//23 4//23
f 4//24 12//24 13//24
f 4//25 13//26 14//27
f 4//25 14//27 15//28
f 4//6 15//29 5//7
f 5//30 15//30 14//30
f 5//30 14//30 23//30
f 5//30 23//30 34//30
f 5//30 34//30 33//30
f 5//30 33//30 24//30
f 5//30 24//30 16//30
s 0
f 5//30 16//30 6//30
s 1
f 7//31 16//31 24//31
f 7//31 24//31 35//31
f 7//31 35//31 28//31
f 7//31 28//31 27//31
f 7//31 27//31 19//31
f 7//31 19//31 17//31
f 7//31 17//31 9//31
f 7//31 9//31 8//31
f 9//32 17//32 10//32
f 10//33 18//34 11//35
f 10//33 17//36 19//37
f 10//33 19//37 18//34
f 11//38 20//39 21//39
f 11//40 21//41 12//41
f 11//42 18//42 20//42
f 12//43 21//43 22//43
f 12//44 22//44 13//44
f 13//26 23//45 14//27
f 13//46 22//46 34//47
f 13//46 34//47 23//47
f 18//48 25//49 26//50
f 18//48 26//50 20//51
f 18//52 19//52 27//52
f 18//53 27//54 28//55
f 18//53 28//55 35//56
f 18//53 35//56 25//56
f 20//51 26//50 29//57
f 20//58 29//59 30//60
f 20//58 30//60 31//61
f 20//62 31//62 21//62
f 21//63 31//63 32//63
f 21//64 32//64 22//64
f 22//65 32//65 33//65
f 22//66 33//66 34//66
f 24//67 33//67 37//67
f 24//67 37//67 36//67
f 24//67 36//67 30//67
f 24//67 30//67 29//67
f 24//67 29//67 26//67
f 24//67 26//67 25//67
f 24//67 25//67 35//67
f 30//60 36//68 31//61
f 31//69 36//70 37//69
f 31//69 37//69 32//70
f 32//71 37//71 33//71
