# Blender 4.4.3
# www.blender.org
o fixed_holes_collision_geom_12
v -0.009336 -0.133064 0.015102
v -0.009336 -0.143083 0.015102
v -0.009336 -0.133537 0.022830
v 0.003246 -0.134106 0.015102
v -0.009336 -0.143083 0.022307
v 0.003246 -0.143083 0.015102
v -0.009336 -0.133672 0.023167
v 0.003246 -0.134695 0.023130
v 0.003246 -0.134660 0.022954
v 0.003246 -0.134646 0.022830
v 0.003246 -0.143083 0.022307
v -0.009336 -0.143060 0.022660
v -0.009336 -0.134014 0.023252
v 0.003246 -0.134958 0.023212
v 0.003246 -0.134758 0.023153
v 0.003246 -0.143059 0.022673
v -0.009336 -0.143048 0.022830
v 0.003246 -0.143048 0.022830
v -0.009336 -0.134490 0.023262
v -0.008117 -0.134490 0.023262
v 0.003246 -0.135443 0.023262
v 0.003246 -0.135111 0.023238
v -0.009336 -0.142918 0.023177
v 0.003246 -0.142918 0.023177
v -0.009336 -0.142583 0.023262
v 0.003246 -0.142583 0.023262
v 0.003246 -0.142685 0.023236
vn -1.0000 -0.0000 -0.0000
vn 0.0824 0.9947 0.0609
vn 0.0872 0.9938 0.0686
vn 0.0829 0.9947 0.0615
vn -0.0000 -0.0000 -1.0000
vn -0.0000 -1.0000 -0.0000
vn 0.0763 0.9250 0.3722
vn 0.0852 0.9770 0.1955
vn 0.0873 0.9901 0.1101
vn 0.0876 0.9937 0.0693
vn 1.0000 -0.0000 -0.0000
vn 1.0000 0.0001 -0.0000
vn -0.0000 -0.9980 0.0635
vn -0.0000 -0.9979 0.0643
vn -0.0000 -0.9978 0.0661
vn 0.0211 0.2402 0.9705
vn 0.0255 0.2831 0.9587
vn 0.0300 0.3352 0.9417
vn -0.0002 -0.9977 0.0680
vn -0.0000 -0.9977 0.0684
vn -0.0000 -0.9976 0.0688
vn 0.0020 0.0261 0.9997
vn -0.0000 0.0219 0.9998
vn 0.0008 0.0239 0.9997
vn 0.0023 0.0280 0.9996
vn 0.0073 0.0721 0.9974
vn 0.0158 0.1694 0.9854
vn 0.0159 0.1694 0.9854
vn -0.0000 -0.9360 0.3519
vn -0.0000 -0.9359 0.3522
vn -0.0000 -0.0000 1.0000
vn -0.0000 -0.2453 0.9694
vn -0.0000 -0.2452 0.9695
vn -0.0000 -0.2458 0.9693
vn -0.0000 -0.2456 0.9694
s 1
f 1//1 2//1 5//1
f 1//1 5//1 12//1
f 1//1 12//1 17//1
f 1//1 17//1 23//1
f 1//1 23//1 25//1
f 1//1 25//1 19//1
f 1//1 19//1 13//1
f 1//1 13//1 7//1
f 1//1 7//1 3//1
f 1//2 3//3 4//4
f 1//5 4//5 6//5
f 1//5 6//5 2//5
f 2//6 6//6 11//6
f 2//6 11//6 5//6
f 3//7 7//7 8//7
f 3//8 8//8 9//8
f 3//9 9//9 10//9
f 3//3 10//10 4//4
f 4//11 10//12 9//11
f 4//11 9//11 8//11
f 4//11 8//11 15//11
f 4//11 15//11 14//11
f 4//11 14//11 22//11
f 4//11 22//11 21//11
f 4//11 21//11 26//11
f 4//11 26//11 27//11
f 4//11 27//11 24//11
f 4//11 24//11 18//11
f 4//11 18//11 16//11
f 4//11 16//11 11//11
f 4//11 11//11 6//11
f 5//13 11//14 12//15
f 7//16 13//16 14//16
f 7//17 14//17 15//17
f 7//18 15//18 8//18
f 11//14 16//19 12//15
f 12//15 16//19 18//20
f 12//15 18//20 17//21
f 13//22 19//23 20//24
f 13//22 20//24 21//25
f 13//26 21//26 22//26
f 13//27 22//28 14//27
f 17//29 18//29 24//29
f 17//29 24//29 23//30
f 19//31 25//31 26//31
f 19//31 26//31 21//31
f 19//31 21//31 20//31
f 23//32 24//33 27//34
f 23//32 27//34 25//32
f 25//32 27//34 26//35
