# Blender 4.4.3
# www.blender.org
o fixed_holes_collision_geom_149
v 0.066457 -0.063868 0.021259
v 0.066287 -0.063868 0.022830
v 0.066457 -0.069997 0.021259
v 0.066457 -0.063868 0.003979
v 0.066287 -0.069997 0.022830
v 0.066050 -0.063868 0.023673
v 0.066457 -0.069997 0.003979
v 0.066287 -0.063868 0.002408
v 0.066050 -0.069997 0.023673
v 0.065198 -0.063868 0.023785
v 0.066287 -0.069997 0.002408
v 0.066101 -0.063868 0.001748
v 0.065198 -0.069997 0.023785
v 0.063626 -0.063868 0.023838
v 0.066171 -0.069997 0.001996
v 0.066050 -0.069997 0.001565
v 0.066050 -0.063868 0.001565
v 0.063626 -0.069997 0.023838
v 0.058915 -0.063868 0.023838
v 0.065633 -0.069997 0.001510
v 0.065384 -0.063868 0.001477
v 0.058915 -0.069997 0.023838
v 0.057343 -0.063868 0.023835
v 0.065198 -0.069997 0.001454
v 0.065198 -0.063868 0.001454
v 0.057343 -0.069997 0.023835
v 0.056013 -0.063868 0.023719
v 0.063626 -0.069997 0.001401
v 0.063626 -0.063868 0.001401
v 0.056861 -0.069997 0.023781
v 0.055500 -0.063868 0.022830
v 0.056397 -0.069997 0.023726
v 0.053109 -0.069997 0.001401
v 0.053109 -0.063868 0.001401
v 0.055944 -0.069997 0.022830
v 0.054334 -0.063868 0.019491
v 0.053109 -0.063868 0.016676
v 0.053109 -0.069997 0.015799
v 0.053109 -0.063868 0.015644
vn 0.9942 -0.0000 0.1072
vn 1.0000 -0.0000 -0.0000
vn -0.0000 1.0000 -0.0000
vn -0.0011 1.0000 0.0004
vn -0.0017 1.0000 0.0006
vn -0.0016 1.0000 0.0006
vn 0.9624 -0.0000 0.2715
vn 0.9625 -0.0000 0.2712
vn -0.0000 -1.0000 -0.0000
vn 0.9942 -0.0000 -0.1072
vn 0.1301 -0.0000 0.9915
vn 0.9628 -0.0000 -0.2703
vn 0.9627 -0.0001 -0.2706
vn 0.9623 -0.0000 -0.2721
vn 0.0337 -0.0000 0.9994
vn 0.9624 -0.0001 -0.2716
vn 0.9617 -0.0001 -0.2743
vn 0.9613 -0.0000 -0.2756
vn -0.0000 -0.0000 1.0000
vn -0.0013 -0.0000 1.0000
vn -0.0001 -0.0000 1.0000
vn 0.1307 -0.0000 -0.9914
vn 0.1305 -0.0000 -0.9914
vn 0.1302 -0.0000 -0.9915
vn 0.1308 -0.0000 -0.9914
vn -0.0015 -0.0000 1.0000
vn 0.1297 -0.0000 -0.9915
vn 0.1291 -0.0000 -0.9916
vn -0.0873 -0.0000 0.9962
vn 0.0337 -0.0000 -0.9994
vn -0.1128 -0.0056 0.9936
vn -0.1169 -0.0071 0.9931
vn -0.1169 -0.0066 0.9931
vn -0.8647 -0.0536 0.4994
vn -0.1175 -0.0063 0.9930
vn -0.0000 -0.0000 -1.0000
vn -0.8910 -0.0645 0.4494
vn -0.0024 1.0000 0.0009
vn -0.9308 -0.0518 0.3617
vn -0.9254 -0.0670 0.3731
vn -1.0000 -0.0000 -0.0000
s 1
f 1//1 2//1 5//1
f 1//1 5//1 3//1
f 1//2 3//2 7//2
f 1//2 7//2 4//2
f 1//3 4//3 8//3
f 1//3 8//3 12//3
f 1//3 12//3 17//3
f 1//3 17//3 21//3
f 1//3 21//3 25//3
f 1//3 25//3 29//3
f 1//3 29//3 34//3
f 1//3 34//3 39//4
f 1//3 39//4 36//5
f 1//3 36//5 31//6
f 1//3 31//6 27//3
f 1//3 27//3 23//3
f 1//3 23//3 19//3
f 1//3 19//3 14//3
f 1//3 14//3 10//3
f 1//3 10//3 6//3
f 1//3 6//3 2//3
f 2//7 6//8 9//7
f 2//7 9//7 5//7
f 3//9 5//9 9//9
f 3//9 9//9 13//9
f 3//9 13//9 18//9
f 3//9 18//9 22//9
f 3//9 22//9 26//9
f 3//9 26//9 30//9
f 3//9 30//9 32//9
f 3//9 32//9 35//9
f 3//9 35//9 38//9
f 3//9 38//9 33//9
f 3//9 33//9 28//9
f 3//9 28//9 24//9
f 3//9 24//9 20//9
f 3//9 20//9 16//9
f 3//9 16//9 15//9
f 3//9 15//9 11//9
f 3//9 11//9 7//9
f 4//10 7//10 11//10
f 4//10 11//10 8//10
f 6//11 10//11 13//11
f 6//11 13//11 9//11
f 8//12 11//13 12//14
f 10//15 14//15 18//15
f 10//15 18//15 13//15
f 11//13 15//16 12//14
f 12//14 15//16 16//17
f 12//14 16//17 17//18
f 14//19 19//20 22//21
f 14//19 22//21 18//19
f 16//22 20//23 21//24
f 16//22 21//24 17//25
f 19//20 23//26 26//26
f 19//20 26//26 22//21
f 20//23 24//27 21//24
f 21//24 24//27 25//28
f 23//29 27//29 26//29
f 24//30 28//30 29//30
f 24//30 29//30 25//30
f 26//31 27//32 30//33
f 27//34 31//34 32//34
f 27//32 32//35 30//33
f 28//36 33//36 34//36
f 28//36 34//36 29//36
f 31//37 35//37 32//37
f 31//6 36//5 37//38
f 31//39 37//39 38//39
f 31//40 38//40 35//40
f 33//41 38//41 37//41
f 33//41 37//41 39//41
f 33//41 39//41 34//41
f 36//5 39//4 37//38
