# Blender 4.4.3
# www.blender.org
o fixed_holes_collision_geom_105
v -0.006687 0.047370 0.017238
v -0.006687 0.047370 0.015174
v -0.006890 0.047370 0.017801
v -0.006687 0.047369 0.017726
v -0.006687 0.033075 0.015174
v -0.034395 0.047370 0.015174
v -0.007150 0.047370 0.017990
v -0.007150 0.047369 0.017992
v -0.006687 0.046893 0.017726
v -0.006687 0.033075 0.017727
v -0.032158 0.033075 0.015174
v -0.034395 0.041627 0.015174
v -0.034395 0.047370 0.019396
v -0.007595 0.047370 0.018161
v -0.010747 0.047369 0.019396
v -0.007150 0.038324 0.017993
v -0.006687 0.035943 0.017727
v -0.006687 0.041460 0.017727
v -0.007150 0.033075 0.017993
v -0.032158 0.033075 0.019165
v -0.034395 0.041627 0.019156
v -0.034395 0.042412 0.019396
v -0.010970 0.047370 0.019396
v -0.010633 0.047370 0.019275
v -0.010747 0.033082 0.019396
v -0.007595 0.033075 0.018162
v -0.031954 0.033075 0.019396
v -0.032158 0.033081 0.019396
v -0.034390 0.041623 0.019396
v -0.011403 0.033075 0.019396
v -0.010633 0.033075 0.019275
vn 0.0036 1.0000 0.0013
vn -0.0000 1.0000 -0.0000
vn 0.0067 1.0000 0.0024
vn 0.0082 1.0000 0.0030
vn 1.0000 -0.0000 -0.0000
vn -0.0000 -0.0000 -1.0000
vn 0.0144 0.9997 0.0204
vn 0.3944 0.6124 0.6852
vn 0.3931 0.6124 0.6859
vn 0.3938 0.6124 0.6854
vn 0.4984 0.0007 0.8670
vn 0.4980 0.0003 0.8672
vn 0.4982 0.0005 0.8670
vn -0.0000 -1.0000 -0.0000
vn -1.0000 -0.0000 -0.0000
vn 0.0219 0.9980 0.0587
vn 0.2787 0.6388 0.7171
vn 0.2798 0.6389 0.7166
vn 0.2794 0.6389 0.7168
vn 0.4974 -0.0000 0.8675
vn 0.4976 -0.0000 0.8674
vn 0.4979 0.0001 0.8673
vn 0.3637 0.0001 0.9315
vn 0.3636 0.0001 0.9316
vn 0.3637 -0.0000 0.9315
vn -0.9674 -0.2531 -0.0000
vn -0.0000 -0.0000 1.0000
vn -0.0005 -0.0000 1.0000
vn -0.0003 -0.0000 1.0000
vn 0.0065 0.9998 0.0180
vn 0.0065 0.9998 0.0179
vn 0.0065 0.9998 0.0178
vn 0.0064 0.9998 0.0178
vn 0.3634 -0.0000 0.9316
vn 0.0857 -0.9710 0.2233
vn -0.0270 -0.9994 0.0237
vn -0.9674 -0.2531 0.0062
vn -0.9674 -0.2529 0.0145
vn -0.9674 -0.2530 0.0098
vn -0.9674 -0.2528 0.0174
vn -0.9997 -0.0069 0.0225
vn 0.0106 -0.9977 0.0663
vn 0.0313 -0.9959 0.0855
s 1
f 1//1 2//2 6//2
f 1//1 6//2 13//2
f 1//1 13//2 23//2
f 1//1 23//2 24//2
f 1//1 24//2 14//2
f 1//1 14//2 7//2
f 1//1 7//2 3//3
f 1//1 3//3 4//4
f 1//5 4//5 9//5
f 1//5 9//5 18//5
f 1//5 18//5 17//5
f 1//5 17//5 10//5
f 1//5 10//5 5//5
f 1//5 5//5 2//5
f 2//6 5//6 11//6
f 2//6 11//6 12//6
f 2//6 12//6 6//6
f 3//7 7//7 4//7
f 4//8 7//9 8//10
f 4//11 8//12 9//13
f 5//14 10//14 19//14
f 5//14 19//14 26//14
f 5//14 26//14 31//14
f 5//14 31//14 30//14
f 5//14 30//14 27//14
f 5//14 27//14 20//14
f 5//14 20//14 11//14
f 6//15 12//15 21//15
f 6//15 21//15 22//15
f 6//15 22//15 13//15
f 7//16 14//16 15//16
f 7//17 15//18 8//19
f 8//12 16//20 17//21
f 8//12 17//21 18//22
f 8//12 18//22 9//13
f 8//23 15//24 16//25
f 10//21 17//21 16//20
f 10//21 16//20 19//21
f 11//26 20//26 21//26
f 11//26 21//26 12//26
f 13//27 22//28 29//29
f 13//27 29//29 28//27
f 13//27 28//27 27//27
f 13//27 27//27 30//27
f 13//27 30//27 25//27
f 13//27 25//27 15//27
f 13//27 15//27 23//27
f 14//30 24//31 15//32
f 15//32 24//31 23//33
f 15//24 25//25 19//34
f 15//24 19//34 16//25
f 19//35 25//35 26//35
f 20//36 27//36 28//36
f 20//37 28//38 21//39
f 21//39 28//38 29//40
f 21//41 29//41 22//41
f 25//42 30//42 31//42
f 25//43 31//43 26//43
