# Blender 4.4.3
# www.blender.org
o fixed_holes_collision_geom_118
v 0.034597 0.025462 0.019177
v 0.033700 0.025462 0.022830
v 0.036260 0.024794 0.022830
v 0.036279 0.024799 0.022307
v 0.036282 0.024799 0.021783
v 0.036285 0.024799 0.019689
v 0.036290 0.024794 0.019177
v 0.008933 0.025462 0.019177
v 0.033589 0.025462 0.023162
v 0.036202 0.024776 0.023117
v 0.036486 0.024517 0.022830
v 0.036532 0.024517 0.022307
v 0.036534 0.024517 0.020736
v 0.036534 0.024517 0.019689
v 0.036540 0.024507 0.019177
v 0.007716 0.010047 0.019177
v 0.010245 0.025462 0.022830
v 0.033253 0.025462 0.023246
v 0.035871 0.024517 0.023215
v 0.036288 0.024517 0.023154
v 0.036588 0.024041 0.022830
v 0.036633 0.024041 0.022307
v 0.036636 0.024041 0.020213
v 0.036636 0.024041 0.019689
v 0.036636 0.024030 0.019177
v 0.009338 0.010047 0.023170
v 0.009347 0.010237 0.023168
v 0.009367 0.010713 0.023153
v 0.009390 0.011188 0.023133
v 0.010375 0.025462 0.023176
v 0.036641 0.010047 0.019177
v 0.032728 0.025462 0.023262
v 0.035871 0.024041 0.023262
v 0.036339 0.024041 0.023177
v 0.036599 0.010047 0.022850
v 0.036639 0.010047 0.022307
v 0.036641 0.010047 0.021783
v 0.036625 0.010047 0.022551
v 0.009548 0.010047 0.023221
v 0.010738 0.025462 0.023261
v 0.009690 0.010047 0.023255
v 0.011262 0.025462 0.023262
v 0.036345 0.010047 0.023177
v 0.035871 0.010047 0.023262
v 0.010214 0.014045 0.023261
v 0.010214 0.013570 0.023262
v 0.010007 0.010047 0.023261
v 0.010214 0.010047 0.023262
vn 0.2523 0.9657 0.0621
vn 0.3282 0.9443 0.0235
vn 0.3640 0.9314 -0.0054
vn 0.3632 0.9317 0.0019
vn 0.3646 0.9312 0.0009
vn 0.3671 0.9302 -0.0062
vn 0.3672 0.9301 -0.0070
vn -0.0000 -0.0000 -1.0000
vn -0.0000 1.0000 -0.0000
vn 0.2515 0.9642 0.0838
vn 0.7592 0.6229 0.1889
vn 0.7713 0.6329 0.0668
vn 0.7713 0.6329 0.0667
vn 0.7453 0.6657 0.0360
vn 0.7454 0.6657 0.0360
vn 0.2542 0.9608 0.1106
vn 0.7458 0.6662 0.0040
vn 0.7477 0.6641 0.0020
vn 0.7464 0.6655 0.0027
vn 0.7491 0.6624 0.0005
vn 0.7483 0.6634 0.0007
vn 0.7491 0.6625 -0.0011
vn 0.7531 0.6579 -0.0052
vn 0.7547 0.6560 -0.0053
vn -0.9386 0.0741 0.3369
vn 0.1839 0.6530 0.7346
vn 0.1839 0.6531 0.7346
vn 0.1430 0.1829 0.9727
vn 0.8036 0.3335 0.4930
vn 0.0974 0.2386 0.9662
vn 0.0975 0.2386 0.9662
vn 0.8386 0.1793 0.5145
vn 0.8386 0.1793 0.5144
vn 0.9744 0.2084 0.0842
vn 0.9744 0.2084 0.0843
vn 0.9744 0.2083 0.0844
vn 0.9744 0.2082 0.0843
vn 0.9635 0.2678 0.0017
vn 0.9635 0.2678 0.0016
vn 0.9779 0.2090 0.0020
vn 0.9786 0.2059 0.0011
vn 0.9787 0.2053 0.0013
vn 0.8804 0.4742 -0.0000
vn 0.9791 0.2034 0.0005
vn 0.9800 0.1990 -0.0030
vn 0.9801 0.1982 -0.0041
vn -0.9254 0.0470 0.3760
vn -0.9253 0.0554 0.3751
vn -0.9253 0.0499 0.3759
vn -0.9252 0.0519 0.3760
vn -0.9254 0.0607 0.3741
vn -0.9255 0.0627 0.3735
vn -0.9334 0.0697 0.3519
vn -0.0000 -1.0000 -0.0000
vn 0.0298 0.0660 0.9974
vn 0.0298 0.0659 0.9974
vn 0.0471 0.0977 0.9941
vn 0.1447 0.0968 0.9847
vn 0.1780 0.0675 0.9817
vn 0.8064 0.1144 0.5801
vn 0.8118 0.0014 0.5840
vn 0.9963 0.0009 0.0862
vn 0.9963 0.0009 0.0855
vn 0.9963 0.0009 0.0857
vn 1.0000 0.0005 0.0043
vn 1.0000 0.0004 0.0054
vn 1.0000 0.0004 0.0023
vn 1.0000 0.0005 0.0003
vn 0.9964 0.0009 0.0851
vn 0.9983 0.0005 0.0579
vn 1.0000 0.0003 -0.0000
vn -0.2372 0.0156 0.9713
vn -0.2340 0.0154 0.9721
vn -0.2335 0.0154 0.9722
vn -0.5655 0.0374 0.8239
vn -0.5655 0.0376 0.8239
vn -0.5655 0.0375 0.8239
vn -0.7635 0.0512 0.6437
vn -0.7635 0.0511 0.6437
vn -0.9019 0.0611 0.4276
vn -0.9019 0.0610 0.4276
vn -0.2283 0.0151 0.9735
vn -0.2267 0.0151 0.9738
vn -0.0000 -0.0000 1.0000
vn -0.0011 0.0001 1.0000
vn -0.0032 0.0001 1.0000
vn 0.1770 -0.0000 0.9842
vn 0.1778 0.0001 0.9841
vn 0.1785 0.0001 0.9839
vn 0.1766 -0.0000 0.9843
vn 0.7888 0.0003 0.6146
vn -0.0179 0.0009 0.9998
vn -0.0184 0.0010 0.9998
vn -0.0178 0.0009 0.9998
vn -0.0022 0.0002 1.0000
vn -0.0187 0.0008 0.9998
vn -0.0177 0.0007 0.9998
vn -0.0057 -0.0000 1.0000
s 1
f 1//1 2//1 3//1
f 1//2 3//2 4//2
f 1//3 4//4 5//5
f 1//3 5//5 6//6
f 1//3 6//6 7//7
f 1//8 7//8 15//8
f 1//8 15//8 25//8
f 1//8 25//8 31//8
f 1//8 31//8 16//8
f 1//8 16//8 8//8
f 1//9 8//9 17//9
f 1//9 17//9 30//9
f 1//9 30//9 40//9
f 1//9 40//9 42//9
f 1//9 42//9 32//9
f 1//9 32//9 18//9
f 1//9 18//9 9//9
f 1//9 9//9 2//9
f 2//10 9//10 3//10
f 3//11 10//11 11//11
f 3//12 11//13 12//12
f 3//14 12//15 4//14
f 3//16 9//16 10//16
f 4//17 12//18 5//19
f 5//19 12//18 13//20
f 5//19 13//20 6//21
f 6//21 13//20 7//22
f 7//22 13//20 14//23
f 7//22 14//23 15//24
f 8//25 16//25 17//25
f 9//26 18//26 10//27
f 10//28 19//28 20//28
f 10//29 20//29 11//29
f 10//30 18//31 19//31
f 11//32 20//33 21//33
f 11//34 21//35 22//36
f 11//34 22//36 12//37
f 12//38 15//39 13//38
f 12//40 22//41 15//42
f 13//43 15//43 14//43
f 15//42 22//41 23//44
f 15//42 23//44 24//45
f 15//42 24//45 25//46
f 16//47 26//47 27//47
f 16//48 27//49 28//50
f 16//48 28//50 29//51
f 16//48 29//51 30//52
f 16//53 30//53 17//53
f 16//54 31//54 37//54
f 16//54 37//54 36//54
f 16//54 36//54 38//54
f 16//54 38//54 35//54
f 16//54 35//54 43//54
f 16//54 43//54 44//54
f 16//54 44//54 48//54
f 16//54 48//54 47//54
f 16//54 47//54 41//54
f 16//54 41//54 39//54
f 16//54 39//54 26//54
f 18//55 32//56 33//56
f 18//57 33//57 19//57
f 19//58 33//58 20//58
f 20//59 33//59 34//59
f 20//60 34//60 21//60
f 21//61 34//61 35//61
f 21//62 35//63 22//64
f 22//65 36//66 37//67
f 22//65 37//67 23//68
f 22//64 35//63 38//69
f 22//70 38//70 36//70
f 23//68 37//67 31//71
f 23//68 31//71 24//71
f 24//71 31//71 25//71
f 26//72 39//73 30//74
f 26//75 30//76 27//77
f 27//78 30//79 28//78
f 28//80 30//81 29//80
f 30//74 39//73 41//82
f 30//74 41//82 40//83
f 32//84 42//85 46//86
f 32//84 46//86 48//84
f 32//84 48//84 44//84
f 32//84 44//84 33//84
f 33//87 43//88 34//89
f 33//87 44//90 43//88
f 34//91 43//91 35//91
f 40//92 45//93 46//94
f 40//95 46//86 42//85
f 40//92 41//96 45//93
f 41//96 47//97 46//94
f 41//96 46//94 45//93
f 46//86 47//98 48//84
