# Blender 4.4.3
# www.blender.org
o socket11mm_collision_geom_2
v -0.031596 0.027439 -0.036099
v -0.031596 0.027573 -0.036111
v -0.033184 0.036069 -0.037359
v -0.034741 0.036069 -0.037873
v -0.034741 0.027770 -0.037373
v -0.034741 0.027605 -0.037364
v -0.034741 0.027439 -0.037355
v -0.031596 0.022452 -0.036099
v -0.031596 0.036066 -0.036921
v -0.032916 0.036069 -0.037280
v -0.033139 0.036259 -0.037388
v -0.034741 0.036171 -0.037905
v -0.034741 0.022452 -0.037355
v -0.031596 0.022452 -0.039418
v -0.031596 0.036069 -0.036922
v -0.031596 0.036205 -0.037001
v -0.032916 0.036280 -0.037362
v -0.034741 0.036368 -0.038089
v -0.034741 0.036303 -0.037967
v -0.034741 0.022452 -0.040113
v -0.031664 0.022452 -0.039453
v -0.031690 0.036401 -0.039439
v -0.031596 0.036401 -0.039391
v -0.031596 0.036361 -0.037202
v -0.034741 0.036433 -0.038247
v -0.034237 0.022452 -0.040113
v -0.034741 0.036401 -0.040087
v -0.031920 0.022452 -0.039556
v -0.031920 0.036401 -0.039530
v -0.031711 0.036595 -0.039429
v -0.031596 0.036475 -0.039383
v -0.031596 0.036514 -0.037613
v -0.034741 0.036485 -0.038410
v -0.034576 0.036401 -0.040087
v -0.034244 0.036401 -0.040085
v -0.034050 0.036401 -0.040078
v -0.034202 0.022452 -0.040110
v -0.034741 0.036580 -0.040080
v -0.032574 0.022452 -0.039794
v -0.032625 0.036401 -0.039786
v -0.032666 0.036605 -0.039771
v -0.031920 0.036633 -0.039470
v -0.031596 0.036657 -0.039254
v -0.031596 0.036590 -0.037932
v -0.034741 0.036704 -0.039243
v -0.034741 0.036618 -0.038911
v -0.034576 0.036580 -0.040080
v -0.034244 0.036577 -0.040079
v -0.034058 0.036573 -0.040076
v -0.033247 0.036401 -0.039933
v -0.033247 0.036069 -0.039935
v -0.033242 0.022452 -0.039960
v -0.033912 0.022452 -0.040078
v -0.033971 0.022452 -0.040087
v -0.034741 0.036671 -0.039907
v -0.032916 0.022452 -0.039895
v -0.032916 0.036401 -0.039869
v -0.032916 0.036639 -0.039805
v -0.031920 0.036724 -0.039243
v -0.031596 0.036749 -0.038911
v -0.031596 0.036664 -0.038246
v -0.031596 0.036725 -0.038571
v -0.031596 0.036727 -0.038579
v -0.034741 0.036749 -0.039575
v -0.034576 0.036671 -0.039907
v -0.034244 0.036669 -0.039907
v -0.033933 0.036644 -0.039926
v -0.033247 0.036657 -0.039835
v -0.034741 0.036710 -0.039741
v -0.033580 0.036751 -0.039575
v -0.032916 0.036731 -0.039575
v -0.032252 0.036749 -0.039243
v -0.031596 0.036749 -0.038903
v -0.033247 0.036748 -0.039575
vn -0.2865 0.0866 0.9542
vn -0.3127 0.0806 0.9464
vn -0.3698 0.0559 0.9274
vn -0.3699 0.0552 0.9274
vn -0.3702 0.0503 0.9276
vn -0.3707 -0.0000 0.9288
vn 1.0000 -0.0000 -0.0000
vn 1.0000 0.0001 -0.0000
vn 1.0000 0.0002 -0.0000
vn -0.2612 0.0916 0.9609
vn -0.2798 0.0881 0.9560
vn -0.2747 0.2091 0.9385
vn -0.3064 0.2150 0.9273
vn -0.3085 0.2797 0.9092
vn -1.0000 -0.0002 -0.0000
vn -1.0000 -0.0000 -0.0000
vn -1.0000 0.0003 -0.0000
vn -0.0000 -1.0000 -0.0000
vn -0.2600 0.1346 0.9562
vn -0.2551 0.2321 0.9386
vn -0.1949 0.4950 0.8467
vn -0.1469 0.7125 0.6861
vn -0.1352 0.8845 0.4466
vn -0.1454 0.8718 0.4678
vn -0.3005 0.4071 0.8625
vn 0.4515 0.0017 -0.8923
vn 0.4553 0.0017 -0.8904
vn -0.1223 0.7823 0.6108
vn -0.1016 0.9239 0.3689
vn -0.1054 0.9206 0.3761
vn -0.0000 0.0018 -1.0000
vn 0.3745 0.0016 -0.9272
vn 0.3661 0.0862 -0.9266
vn 0.4533 0.0935 -0.8864
vn 0.3675 0.0017 -0.9300
vn 0.4537 0.0939 -0.8862
vn -0.0939 0.9334 0.3464
vn -0.0853 0.9496 0.3016
vn 0.0071 0.0020 -1.0000
vn 0.0364 0.0020 -0.9993
vn 0.0914 0.0013 -0.9958
vn -0.0000 0.0395 -0.9992
vn 0.3417 0.0017 -0.9398
vn 0.3391 0.1187 -0.9332
vn 0.3415 0.0018 -0.9399
vn 0.3352 0.1353 -0.9324
vn 0.2563 0.6699 -0.6968
vn 0.2438 0.8530 -0.4615
vn 0.6808 0.4225 -0.5984
vn -0.0604 0.9713 0.2301
vn -0.0723 0.9650 0.2522
vn -0.0739 0.9638 0.2560
vn 0.0027 0.0395 -0.9992
vn 0.0071 0.0312 -0.9995
vn 0.0176 0.0312 -0.9994
vn 0.0364 0.0108 -0.9993
vn 0.1778 0.0175 -0.9839
vn 0.1779 0.0070 -0.9840
vn 0.1758 0.0019 -0.9844
vn 0.1740 0.0017 -0.9847
vn 0.1431 0.0014 -0.9897
vn 0.0983 0.0012 -0.9952
vn -0.0000 0.8854 -0.4649
vn 0.2849 0.0016 -0.9586
vn 0.2734 0.1245 -0.9538
vn 0.2755 0.0018 -0.9613
vn 0.1806 0.4546 -0.8722
vn 0.1840 0.8263 -0.5323
vn 0.2046 0.2096 -0.9561
vn 0.1294 0.9205 -0.3687
vn 0.1760 0.9138 -0.3660
vn 0.1873 0.9487 -0.2549
vn -0.0601 0.9715 0.2292
vn -0.0463 0.9814 0.1862
vn -0.0421 0.9852 0.1662
vn -0.0352 0.9904 0.1336
vn 0.0037 0.8854 -0.4648
vn 0.0085 0.8815 -0.4721
vn 0.0279 0.8812 -0.4719
vn 0.0429 0.8874 -0.4589
vn 0.0449 0.8867 -0.4602
vn 0.0978 0.7905 -0.6047
vn 0.1870 0.0637 -0.9803
vn 0.1874 0.0070 -0.9823
vn 0.1923 0.0019 -0.9813
vn 0.1939 0.0018 -0.9810
vn -0.0011 0.9732 -0.2300
vn -0.0000 0.9723 -0.2335
vn 0.0841 0.9250 -0.3705
vn 0.1294 0.9205 -0.3686
vn 0.0741 0.9766 -0.2018
vn 0.0749 0.9862 -0.1479
vn 0.0021 1.0000 -0.0041
vn 0.0007 1.0000 -0.0000
vn -0.0147 0.9975 0.0690
vn -0.0012 1.0000 0.0056
vn -0.0012 0.9733 -0.2295
vn 0.0041 0.9695 -0.2452
vn 0.0081 0.9675 -0.2529
vn 0.0356 0.9435 -0.3295
vn 0.0437 0.8911 -0.4518
vn 0.0478 0.9430 -0.3293
vn 0.0084 0.9995 -0.0295
vn 0.0500 0.9868 -0.1539
s 0
f 1//1 2//1 3//1
f 1//2 3//2 4//2
f 1//3 4//3 5//3
f 1//4 5//4 6//4
f 1//5 6//5 7//5
f 1//6 7//6 13//6
f 1//6 13//6 8//6
f 1//7 8//7 14//7
f 1//7 14//7 23//7
f 1//7 23//7 31//7
f 1//7 31//7 43//7
f 1//7 43//7 60//7
f 1//8 60//8 73//8
f 1//7 73//7 63//7
f 1//8 63//8 62//8
f 1//7 62//7 61//7
f 1//7 61//7 44//7
f 1//7 44//7 32//7
f 1//7 32//7 24//7
f 1//7 24//7 16//7
f 1//7 16//7 15//7
f 1//9 15//9 9//9
f 1//7 9//7 2//7
f 2//10 9//10 10//10
f 2//11 10//11 3//11
f 3//12 10//12 11//12
f 3//13 11//13 4//13
f 4//14 11//14 12//14
f 4//15 12//15 19//15
f 4//16 19//16 18//16
f 4//16 18//16 25//16
f 4//16 25//16 33//16
f 4//16 33//16 46//16
f 4//16 46//16 45//16
f 4//16 45//16 64//16
f 4//16 64//16 69//16
f 4//16 69//16 55//16
f 4//16 55//16 38//16
f 4//16 38//16 27//16
f 4//16 27//16 20//16
f 4//16 20//16 13//16
f 4//16 13//16 7//16
f 4//16 7//16 6//16
f 4//17 6//17 5//17
f 8//18 13//18 20//18
f 8//18 20//18 26//18
f 8//18 26//18 37//18
f 8//18 37//18 54//18
f 8//18 54//18 53//18
f 8//18 53//18 52//18
f 8//18 52//18 56//18
f 8//18 56//18 39//18
f 8//18 39//18 28//18
f 8//18 28//18 21//18
f 8//18 21//18 14//18
f 9//19 15//19 10//19
f 10//20 15//20 11//20
f 11//21 15//21 16//21
f 11//22 16//22 17//22
f 11//23 17//23 18//23
f 11//24 18//24 19//24
f 11//25 19//25 12//25
f 14//26 21//26 22//26
f 14//27 22//27 23//27
f 16//28 24//28 17//28
f 17//29 24//29 25//29
f 17//30 25//30 18//30
f 20//31 27//31 34//31
f 20//31 34//31 26//31
f 21//32 28//32 22//32
f 22//33 29//33 30//33
f 22//34 30//34 23//34
f 22//35 28//35 29//35
f 23//36 30//36 31//36
f 24//37 32//37 25//37
f 25//38 32//38 33//38
f 26//39 34//39 35//39
f 26//40 35//40 36//40
f 26//41 36//41 37//41
f 27//42 38//42 47//42
f 27//42 47//42 34//42
f 28//43 39//43 29//43
f 29//44 40//44 30//44
f 29//45 39//45 40//45
f 30//46 40//46 41//46
f 30//47 41//47 42//47
f 30//48 42//48 43//48
f 30//49 43//49 31//49
f 32//50 44//50 45//50
f 32//51 45//51 46//51
f 32//52 46//52 33//52
f 34//53 47//53 48//53
f 34//54 48//54 35//54
f 35//55 48//55 49//55
f 35//56 49//56 36//56
f 36//57 49//57 50//57
f 36//58 50//58 51//58
f 36//59 51//59 52//59
f 36//60 52//60 53//60
f 36//61 53//61 54//61
f 36//62 54//62 37//62
f 38//63 55//63 65//63
f 38//63 65//63 47//63
f 39//64 56//64 40//64
f 40//65 57//65 41//65
f 40//66 56//66 57//66
f 41//67 49//67 58//67
f 41//68 58//68 42//68
f 41//69 57//69 49//69
f 42//70 58//70 59//70
f 42//71 59//71 43//71
f 43//72 59//72 60//72
f 44//73 61//73 45//73
f 45//74 61//74 62//74
f 45//75 62//75 63//75
f 45//76 63//76 64//76
f 47//77 65//77 66//77
f 47//78 66//78 48//78
f 48//79 66//79 49//79
f 49//80 66//80 67//80
f 49//81 67//81 68//81
f 49//82 68//82 58//82
f 49//83 57//83 50//83
f 50//84 57//84 51//84
f 51//85 57//85 52//85
f 52//86 57//86 56//86
f 55//87 69//87 70//87
f 55//88 70//88 65//88
f 58//89 68//89 71//89
f 58//90 71//90 59//90
f 59//91 71//91 72//91
f 59//92 72//92 60//92
f 60//93 72//93 70//93
f 60//94 70//94 73//94
f 63//95 73//95 64//95
f 64//96 73//96 70//96
f 64//97 70//97 69//97
f 65//98 70//98 66//98
f 66//99 70//99 74//99
f 66//100 74//100 68//100
f 66//101 68//101 67//101
f 68//102 74//102 71//102
f 70//103 72//103 74//103
f 71//104 74//104 72//104
