# Blender 4.4.3
# www.blender.org
o socket9mm_collision_geom_15
v -0.074627 0.023750 -0.034133
v -0.074627 0.023750 -0.037325
v -0.076000 0.023750 -0.034133
v -0.074627 0.010481 -0.034133
v -0.077672 0.023750 -0.037325
v -0.074627 0.010539 -0.037325
v -0.076000 0.011290 -0.034133
v -0.075550 0.010599 -0.034133
v -0.077185 0.010624 -0.037325
v -0.076839 0.010599 -0.037325
v -0.074627 0.010534 -0.037167
v -0.077672 0.011636 -0.037325
v -0.077672 0.011290 -0.037325
v -0.077669 0.010960 -0.037325
v -0.077669 0.010945 -0.037325
v -0.075993 0.011119 -0.034133
v -0.075699 0.010642 -0.034133
v -0.077508 0.010695 -0.037325
v -0.075985 0.010945 -0.034133
v -0.077551 0.010715 -0.037325
v -0.075847 0.010686 -0.034133
vn -0.0000 1.0000 -0.0000
vn -0.0000 -0.0000 1.0000
vn -0.0001 -0.0000 1.0000
vn 0.0001 -0.0000 1.0000
vn 1.0000 -0.0000 -0.0000
vn -0.0000 -0.0000 -1.0000
vn 0.0009 -0.0000 -1.0000
vn -0.8859 -0.0000 0.4640
vn -0.1267 -0.9903 0.0572
vn -0.0712 -0.9974 0.0124
vn -0.0281 -0.9995 -0.0175
vn -0.0270 -0.9991 -0.0327
vn -0.8859 -0.0008 0.4639
vn -0.8859 -0.0080 0.4639
vn -0.8853 -0.0176 0.4646
vn -0.8839 -0.0384 0.4661
vn -0.2746 -0.9513 0.1398
vn -0.2145 -0.9714 0.1023
vn -0.8838 -0.0394 0.4661
vn -0.8061 -0.4118 0.4251
vn -0.2831 -0.9481 0.1447
vn -0.4041 -0.8908 0.2078
vn -0.7990 -0.4276 0.4228
s 0
f 1//1 2//1 5//1
f 1//1 5//1 3//1
f 1//2 3//2 7//2
f 1//3 7//3 16//3
f 1//4 16//4 19//4
f 1//2 19//2 21//2
f 1//2 21//2 17//2
f 1//2 17//2 8//2
f 1//2 8//2 4//2
f 1//5 4//5 11//5
f 1//5 11//5 6//5
f 1//5 6//5 2//5
f 2//6 6//6 10//6
f 2//6 10//6 9//6
f 2//6 9//6 18//6
f 2//6 18//6 20//6
f 2//6 20//6 15//6
f 2//7 15//7 14//7
f 2//6 14//6 13//6
f 2//6 13//6 12//6
f 2//6 12//6 5//6
f 3//8 5//8 12//8
f 3//8 12//8 7//8
f 4//9 8//9 9//9
f 4//10 9//10 10//10
f 4//11 10//11 11//11
f 6//12 11//12 10//12
f 7//13 12//13 13//13
f 7//14 13//14 14//14
f 7//15 14//15 15//15
f 7//16 15//16 16//16
f 8//17 17//17 18//17
f 8//18 18//18 9//18
f 15//19 19//19 16//19
f 15//20 20//20 19//20
f 17//21 21//21 18//21
f 18//22 21//22 20//22
f 19//23 20//23 21//23
