# Blender 4.4.3
# www.blender.org
o socket8mm_collision_geom_4
v -0.095720 0.022840 -0.035429
v -0.092141 0.022840 -0.035429
v -0.094365 0.022840 -0.032770
v -0.095720 0.028103 -0.035429
v -0.092077 0.022840 -0.035302
v -0.092340 0.036401 -0.035429
v -0.092336 0.036401 -0.035423
v -0.091535 0.022840 -0.032770
v -0.094365 0.028103 -0.032770
v -0.094364 0.028435 -0.032770
v -0.095714 0.028435 -0.035429
v -0.092062 0.022840 -0.035271
v -0.092344 0.036410 -0.035429
v -0.092285 0.036620 -0.035202
v -0.092261 0.036401 -0.035257
v -0.091535 0.022840 -0.032935
v -0.091720 0.036070 -0.032770
v -0.093993 0.036070 -0.032770
v -0.095228 0.036070 -0.035429
v -0.091938 0.022840 -0.034948
v -0.092130 0.036401 -0.034927
v -0.092506 0.036662 -0.035429
v -0.092235 0.036652 -0.034927
v -0.091953 0.036627 -0.034263
v -0.091984 0.036594 -0.034483
v -0.091546 0.022840 -0.033267
v -0.091720 0.036070 -0.032935
v -0.091726 0.036236 -0.032770
v -0.093829 0.036337 -0.032770
v -0.094041 0.036278 -0.032993
v -0.095014 0.036258 -0.035063
v -0.095201 0.036143 -0.035429
v -0.091822 0.022840 -0.034631
v -0.091974 0.036401 -0.034509
v -0.092833 0.036745 -0.035429
v -0.092501 0.036744 -0.034927
v -0.092169 0.036718 -0.034263
v -0.091920 0.036652 -0.033931
v -0.091782 0.036401 -0.033599
v -0.091835 0.036401 -0.033931
v -0.091904 0.036401 -0.034263
v -0.091587 0.022840 -0.033595
v -0.091733 0.036070 -0.033267
v -0.091731 0.036401 -0.032935
v -0.091731 0.036401 -0.032770
v -0.095114 0.036308 -0.035429
v -0.093497 0.036475 -0.032770
v -0.095061 0.036292 -0.035259
v -0.091809 0.022840 -0.034595
v -0.091719 0.022840 -0.034289
v -0.091732 0.022840 -0.034336
v -0.093165 0.036734 -0.035429
v -0.092833 0.036749 -0.035259
v -0.092501 0.036751 -0.034595
v -0.092169 0.036751 -0.033599
v -0.092169 0.036744 -0.033931
v -0.091896 0.036658 -0.033599
v -0.091744 0.036401 -0.033267
v -0.091775 0.036070 -0.033599
v -0.091643 0.022840 -0.033907
v -0.091878 0.036658 -0.033267
v -0.091872 0.036658 -0.032935
v -0.091802 0.036530 -0.032770
v -0.094825 0.036414 -0.035429
v -0.093077 0.036588 -0.032770
v -0.092501 0.036725 -0.032770
v -0.092169 0.036751 -0.032770
v -0.093497 0.036684 -0.035429
v -0.092020 0.036704 -0.032770
v -0.091872 0.036658 -0.032770
v -0.092833 0.036654 -0.032770
vn -0.0000 -1.0000 -0.0000
vn -0.0000 -1.0000 -0.0001
vn -0.8910 -0.0000 0.4540
vn 0.0008 -0.0000 -1.0000
vn -0.0000 -0.0000 -1.0000
vn 0.0001 -0.0000 -1.0000
vn 0.8608 0.0126 -0.5087
vn 0.8936 0.0131 -0.4486
vn -0.0000 -0.0000 1.0000
vn -0.0001 -0.0000 1.0000
vn 0.0001 -0.0000 1.0000
vn -0.0103 -0.0000 0.9999
vn -0.8910 0.0011 0.4540
vn -0.8916 0.0143 0.4526
vn 0.8980 0.0132 -0.4397
vn 0.7871 0.3364 -0.5170
vn 0.8223 0.2970 -0.4854
vn 0.8912 0.2009 -0.4068
vn 0.9096 0.0137 -0.4152
vn 0.9999 0.0140 -0.0000
vn -0.8909 0.0434 0.4522
vn -0.9055 0.0577 0.4204
vn 0.9299 0.0140 -0.3676
vn 0.9328 0.0138 -0.3602
vn 0.6832 0.4389 -0.5836
vn 0.3544 0.9187 -0.1741
vn 0.5374 0.8202 -0.1959
vn 0.5385 0.8195 -0.1962
vn 0.9072 0.1944 -0.3732
vn 0.9211 0.1381 -0.3641
vn 0.9993 0.0140 -0.0345
vn 0.9995 0.0319 -0.0000
vn -0.7076 0.4334 0.5581
vn -0.8804 0.2361 0.4112
vn -0.8872 0.2078 0.4119
vn -0.8798 0.3235 0.3483
vn 0.9363 0.0138 -0.3509
vn 0.9391 0.0136 -0.3434
vn 0.9321 0.0957 -0.3494
vn 0.2431 0.9570 -0.1582
vn 0.3202 0.9345 -0.1553
vn 0.3216 0.9387 -0.1242
vn 0.3860 0.9136 -0.1280
vn 0.3869 0.9155 -0.1105
vn 0.9291 0.3494 -0.1213
vn 0.9504 0.2704 -0.1537
vn 0.9534 0.2499 -0.1687
vn 0.9647 0.1727 -0.1989
vn 0.9583 0.0864 -0.2724
vn 0.9923 0.0140 -0.1228
vn 0.9992 0.0141 -0.0382
vn 0.9988 0.0321 -0.0382
vn 0.9995 0.0322 -0.0002
vn 0.9995 0.0323 -0.0000
vn -0.4639 0.8594 0.2149
vn -0.3798 0.9086 0.1737
vn -0.5272 0.8145 0.2422
vn -0.6048 0.7468 0.2767
vn -0.7220 0.6304 0.2851
vn -0.8465 0.4442 0.2935
vn 0.9401 0.0136 -0.3407
vn 0.9618 0.0137 -0.2734
vn 0.9603 0.0135 -0.2785
vn 0.9589 0.0135 -0.2833
vn -0.0327 0.9992 -0.0240
vn 0.0404 0.9989 -0.0240
vn 0.0369 0.9991 -0.0205
vn 0.0613 0.9979 -0.0204
vn 0.0614 0.9979 -0.0205
vn 0.2272 0.9709 -0.0757
vn 0.3425 0.9367 -0.0730
vn 0.3432 0.9384 -0.0404
vn 0.8969 0.4362 -0.0725
vn 0.9242 0.3668 -0.1061
vn 0.9930 0.0319 -0.1140
vn 0.9918 0.0196 -0.1261
vn 0.9870 0.0196 -0.1596
vn 0.9862 0.0140 -0.1650
vn 0.9839 0.0136 -0.1782
vn 0.9810 0.0136 -0.1937
vn 0.9793 0.0138 -0.2019
vn 0.9919 0.0141 -0.1261
vn 0.8853 0.4637 -0.0338
vn 0.8764 0.4813 -0.0162
vn 0.8765 0.4814 -0.0009
vn 0.8769 0.4806 -0.0000
vn -0.3409 0.9283 0.1488
vn -0.2584 0.9601 0.1069
vn -0.0777 0.9967 0.0230
vn -0.0518 0.9986 0.0133
vn -0.1500 0.9878 0.0410
vn -0.0064 1.0000 0.0012
vn -0.0000 1.0000 -0.0000
vn 0.2965 0.9550 -0.0000
vn 0.2984 0.9545 -0.0004
vn 0.3092 0.9510 -0.0057
vn 0.3205 0.9471 -0.0166
vn 0.3204 0.9471 -0.0194
vn 0.8849 0.4635 -0.0458
vn 0.2988 0.9543 -0.0000
vn 0.8760 0.4823 -0.0000
vn -0.2571 0.9605 0.1060
vn -0.2082 0.9757 0.0680
vn -0.1986 0.9783 0.0594
s 0
f 1//1 2//1 5//1
f 1//2 5//2 12//2
f 1//1 12//1 20//1
f 1//1 20//1 33//1
f 1//2 33//2 49//2
f 1//1 49//1 51//1
f 1//1 51//1 50//1
f 1//1 50//1 60//1
f 1//1 60//1 42//1
f 1//1 42//1 26//1
f 1//1 26//1 16//1
f 1//1 16//1 8//1
f 1//1 8//1 3//1
f 1//3 3//3 9//3
f 1//3 9//3 4//3
f 1//4 4//4 11//4
f 1//5 11//5 19//5
f 1//5 19//5 32//5
f 1//5 32//5 46//5
f 1//5 46//5 64//5
f 1//5 64//5 68//5
f 1//5 68//5 52//5
f 1//5 52//5 35//5
f 1//5 35//5 22//5
f 1//5 22//5 13//5
f 1//6 13//6 6//6
f 1//5 6//5 2//5
f 2//7 6//7 7//7
f 2//8 7//8 5//8
f 3//9 8//9 17//9
f 3//10 17//10 28//10
f 3//11 28//11 45//11
f 3//9 45//9 63//9
f 3//9 63//9 70//9
f 3//9 70//9 69//9
f 3//9 69//9 67//9
f 3//9 67//9 66//9
f 3//9 66//9 71//9
f 3//9 71//9 65//9
f 3//9 65//9 47//9
f 3//9 47//9 29//9
f 3//9 29//9 18//9
f 3//9 18//9 10//9
f 3//12 10//12 9//12
f 4//13 9//13 10//13
f 4//14 10//14 11//14
f 5//15 7//15 12//15
f 6//16 13//16 14//16
f 6//17 14//17 7//17
f 7//18 14//18 15//18
f 7//19 15//19 12//19
f 8//20 16//20 27//20
f 8//20 27//20 17//20
f 10//21 18//21 11//21
f 11//22 18//22 19//22
f 12//23 15//23 21//23
f 12//24 21//24 20//24
f 13//25 22//25 14//25
f 14//26 22//26 23//26
f 14//27 23//27 24//27
f 14//28 24//28 25//28
f 14//29 25//29 15//29
f 15//30 25//30 21//30
f 16//31 26//31 27//31
f 17//32 27//32 28//32
f 18//33 29//33 30//33
f 18//34 30//34 31//34
f 18//35 31//35 19//35
f 19//36 31//36 32//36
f 20//37 21//37 34//37
f 20//38 34//38 33//38
f 21//39 25//39 34//39
f 22//40 35//40 36//40
f 22//41 36//41 23//41
f 23//42 36//42 37//42
f 23//43 37//43 24//43
f 24//44 37//44 38//44
f 24//45 38//45 39//45
f 24//46 39//46 40//46
f 24//47 40//47 25//47
f 25//48 40//48 41//48
f 25//49 41//49 34//49
f 26//50 42//50 43//50
f 26//51 43//51 27//51
f 27//52 43//52 58//52
f 27//52 58//52 44//52
f 27//53 44//53 28//53
f 28//54 44//54 45//54
f 29//55 46//55 30//55
f 29//56 47//56 46//56
f 30//57 46//57 48//57
f 30//58 48//58 31//58
f 31//59 48//59 46//59
f 31//60 46//60 32//60
f 33//61 34//61 49//61
f 34//62 41//62 50//62
f 34//63 50//63 51//63
f 34//64 51//64 49//64
f 35//65 52//65 53//65
f 35//66 53//66 36//66
f 36//67 53//67 54//67
f 36//68 54//68 55//68
f 36//69 55//69 56//69
f 36//70 56//70 37//70
f 37//71 56//71 38//71
f 38//72 56//72 57//72
f 38//73 57//73 58//73
f 38//74 58//74 39//74
f 39//75 58//75 43//75
f 39//76 43//76 59//76
f 39//77 59//77 40//77
f 40//78 59//78 42//78
f 40//79 42//79 60//79
f 40//80 60//80 50//80
f 40//81 50//81 41//81
f 42//82 59//82 43//82
f 44//83 58//83 61//83
f 44//84 61//84 62//84
f 44//85 62//85 63//85
f 44//86 63//86 45//86
f 46//87 47//87 64//87
f 47//88 65//88 64//88
f 52//89 66//89 67//89
f 52//90 67//90 53//90
f 52//91 68//91 66//91
f 53//92 67//92 54//92
f 54//93 67//93 55//93
f 55//94 67//94 69//94
f 55//95 69//95 62//95
f 55//96 62//96 61//96
f 55//97 61//97 57//97
f 55//98 57//98 56//98
f 57//99 61//99 58//99
f 62//100 69//100 70//100
f 62//101 70//101 63//101
f 64//102 65//102 71//102
f 64//103 71//103 66//103
f 64//104 66//104 68//104
