# Blender 4.4.3
# www.blender.org
o socket8mm_collision_geom_25
v -0.102461 0.003186 -0.040571
v -0.102297 0.003186 -0.040571
v -0.103125 0.003186 -0.040239
v -0.102793 0.003196 -0.040571
v -0.102297 0.003222 -0.040917
v -0.102297 0.003186 -0.038910
v -0.103789 0.003186 -0.039574
v -0.104121 0.003209 -0.039574
v -0.103135 0.003268 -0.040587
v -0.102793 0.003288 -0.040848
v -0.102297 0.003303 -0.041168
v -0.103789 0.003224 -0.039907
v -0.102297 0.003206 -0.038578
v -0.105117 0.003194 -0.032767
v -0.105281 0.003189 -0.032767
v -0.105448 0.003186 -0.032767
v -0.104453 0.003209 -0.039242
v -0.105117 0.003186 -0.038247
v -0.104438 0.003297 -0.039560
v -0.103390 0.003307 -0.040487
v -0.103030 0.003322 -0.040780
v -0.102400 0.003312 -0.041129
v -0.102297 0.003534 -0.041249
v -0.104094 0.003309 -0.039889
v -0.102297 0.003284 -0.038252
v -0.102858 0.003937 -0.032767
v -0.103125 0.003790 -0.032767
v -0.103347 0.003718 -0.032767
v -0.104360 0.003392 -0.032767
v -0.104652 0.003297 -0.032767
v -0.104785 0.003255 -0.032767
v -0.104949 0.003224 -0.032767
v -0.106776 0.003186 -0.032767
v -0.104785 0.003224 -0.038910
v -0.105448 0.003196 -0.037915
v -0.106113 0.003186 -0.036587
v -0.105781 0.003189 -0.037251
v -0.104767 0.003308 -0.039216
v -0.104645 0.003339 -0.039440
v -0.104318 0.003339 -0.039767
v -0.103965 0.003358 -0.040081
v -0.103232 0.003534 -0.040695
v -0.103066 0.003534 -0.040802
v -0.102793 0.003534 -0.040961
v -0.102452 0.003534 -0.041159
v -0.102793 0.003866 -0.040963
v -0.102297 0.009515 -0.041249
v -0.102297 0.003363 -0.038063
v -0.102750 0.004198 -0.032767
v -0.102801 0.004066 -0.032767
v -0.106941 0.003216 -0.032767
v -0.106776 0.003186 -0.034264
v -0.105465 0.003267 -0.038256
v -0.105365 0.003307 -0.038512
v -0.106113 0.003217 -0.036919
v -0.106445 0.003186 -0.035591
v -0.106445 0.003197 -0.035923
v -0.104959 0.003357 -0.039086
v -0.104658 0.003534 -0.039455
v -0.104500 0.003534 -0.039621
v -0.104334 0.003534 -0.039780
v -0.104136 0.003534 -0.039946
v -0.103970 0.003534 -0.040085
v -0.103440 0.003534 -0.040529
v -0.103440 0.003866 -0.040530
v -0.103232 0.003866 -0.040696
v -0.103066 0.009515 -0.040802
v -0.102793 0.009515 -0.040963
v -0.102297 0.009515 -0.037779
v -0.102297 0.003534 -0.037914
v -0.102627 0.004198 -0.034098
v -0.102746 0.004363 -0.032767
v -0.102297 0.003866 -0.037780
v -0.107109 0.003246 -0.032767
v -0.107109 0.003246 -0.033267
v -0.106776 0.003187 -0.034596
v -0.105727 0.003287 -0.037915
v -0.105658 0.003322 -0.038152
v -0.106411 0.003277 -0.036587
v -0.106340 0.003309 -0.036919
v -0.106116 0.003286 -0.037232
v -0.106776 0.003199 -0.034928
v -0.106776 0.003232 -0.035260
v -0.106696 0.003288 -0.035923
v -0.104963 0.003534 -0.039091
v -0.105573 0.003534 -0.038353
v -0.105407 0.003534 -0.038562
v -0.105408 0.003866 -0.038562
v -0.104966 0.009515 -0.039089
v -0.104661 0.009515 -0.039452
v -0.104658 0.009515 -0.039455
v -0.104502 0.009515 -0.039618
v -0.104500 0.009515 -0.039621
v -0.104337 0.009515 -0.039777
v -0.104334 0.009515 -0.039780
v -0.104140 0.009515 -0.039943
v -0.103606 0.003866 -0.040391
v -0.103440 0.009515 -0.040530
v -0.103232 0.009515 -0.040696
v -0.102743 0.009515 -0.032767
v -0.102743 0.006521 -0.032767
v -0.102744 0.004530 -0.032767
v -0.107295 0.003337 -0.032767
v -0.107109 0.003255 -0.033599
v -0.107295 0.003337 -0.033267
v -0.106008 0.003312 -0.037522
v -0.106292 0.003349 -0.037109
v -0.105680 0.003534 -0.038188
v -0.106650 0.003322 -0.036197
v -0.107039 0.003279 -0.034596
v -0.107014 0.003290 -0.034928
v -0.106977 0.003324 -0.035260
v -0.105574 0.003866 -0.038353
v -0.105408 0.009515 -0.038562
v -0.105271 0.009515 -0.038725
v -0.107316 0.009515 -0.032767
v -0.107316 0.003534 -0.032767
v -0.107288 0.003347 -0.033599
v -0.107316 0.003534 -0.033267
v -0.106546 0.003534 -0.036587
v -0.106403 0.003534 -0.036919
v -0.106300 0.003534 -0.037121
v -0.106038 0.003534 -0.037574
v -0.105840 0.003534 -0.037915
v -0.105576 0.009515 -0.038351
v -0.105841 0.003866 -0.037915
v -0.105683 0.009515 -0.038183
v -0.105680 0.009515 -0.038188
v -0.106952 0.003355 -0.035450
v -0.107280 0.003361 -0.033793
v -0.105574 0.009515 -0.038353
v -0.107316 0.009515 -0.033267
v -0.107303 0.003534 -0.033599
v -0.106609 0.003534 -0.036417
v -0.106547 0.003866 -0.036587
v -0.106404 0.003866 -0.036919
v -0.106300 0.009515 -0.037121
v -0.106038 0.009515 -0.037574
v -0.105843 0.009515 -0.037912
v -0.107084 0.003534 -0.034928
v -0.107012 0.003534 -0.035260
v -0.106956 0.003534 -0.035462
v -0.106669 0.003534 -0.036251
v -0.107282 0.003534 -0.033807
v -0.107303 0.009515 -0.033599
v -0.107282 0.009515 -0.033804
v -0.106609 0.003866 -0.036417
v -0.106672 0.009515 -0.036246
v -0.106548 0.009515 -0.036585
v -0.106547 0.009515 -0.036587
v -0.106404 0.009515 -0.036919
v -0.107084 0.009515 -0.034928
v -0.107014 0.009515 -0.035254
v -0.107012 0.009515 -0.035260
v -0.106957 0.009515 -0.035459
v -0.106956 0.009515 -0.035462
v -0.107282 0.009515 -0.033807
vn -0.0000 -1.0000 -0.0000
vn -0.0316 -0.9975 -0.0632
vn -0.0315 -0.9923 -0.1197
vn -0.0000 -0.9945 -0.1050
vn 1.0000 -0.0002 -0.0000
vn 1.0000 -0.0000 -0.0000
vn 1.0000 -0.0001 -0.0000
vn -0.0706 -0.9950 -0.0706
vn -0.0706 -0.9950 -0.0707
vn -0.1312 -0.9780 -0.1620
vn -0.1806 -0.9338 -0.3088
vn -0.1712 -0.9354 -0.3094
vn -0.1613 -0.9396 -0.3018
vn -0.1619 -0.9657 -0.2031
vn -0.1875 -0.9520 -0.2420
vn 0.1260 -0.9903 0.0591
vn 0.0302 -0.9994 0.0152
vn 0.0185 -0.9998 0.0095
vn -0.2684 -0.9251 -0.2685
vn -0.2670 -0.9139 -0.3058
vn -0.2922 -0.8675 -0.4026
vn -0.2381 -0.8935 -0.3807
vn -0.2643 -0.9121 -0.3134
vn -0.2230 -0.8944 -0.3877
vn -0.2461 -0.8742 -0.4185
vn -0.3606 -0.3098 -0.8798
vn -0.2715 -0.9094 -0.3152
vn -0.2714 -0.9085 -0.3177
vn 0.7576 -0.6345 0.1530
vn 0.4773 -0.8650 0.1550
vn 0.3050 -0.9423 0.1382
vn 0.3038 -0.9427 0.1380
vn 0.3037 -0.9427 0.1380
vn 0.2999 -0.9441 0.1365
vn 0.1848 -0.9789 0.0875
vn 0.1776 -0.9805 0.0842
vn -0.0000 -0.0000 1.0000
vn -0.0001 -0.0000 1.0000
vn -0.3062 -0.9138 -0.2670
vn -0.1631 -0.9778 -0.1319
vn -0.2034 -0.9656 -0.1620
vn -0.0469 -0.9985 -0.0281
vn -0.0856 -0.9949 -0.0539
vn -0.3111 -0.9114 -0.2694
vn -0.3656 -0.8731 -0.3226
vn -0.4014 -0.8232 -0.4016
vn -0.3194 -0.8748 -0.3642
vn -0.3296 -0.8614 -0.3864
vn -0.4468 -0.7100 -0.5443
vn -0.5123 -0.5534 -0.6567
vn -0.5319 -0.1744 -0.8287
vn -0.4972 -0.1708 -0.8506
vn -0.4948 -0.1742 -0.8514
vn -0.4933 -0.1784 -0.8514
vn -0.4729 -0.2404 -0.8477
vn -0.5861 -0.2490 -0.7711
vn -0.5013 -0.0028 -0.8653
vn -0.4999 -0.0000 -0.8661
vn 0.9411 -0.3122 0.1297
vn 0.9251 -0.3547 0.1355
vn 0.9056 -0.4003 0.1402
vn -0.1779 -0.9841 -0.0000
vn -0.2394 -0.9530 -0.1856
vn -0.3148 -0.9109 -0.2669
vn -0.3163 -0.9097 -0.2692
vn -0.1889 -0.9763 -0.1054
vn -0.2986 -0.9373 -0.1794
vn -0.1771 -0.9798 -0.0932
vn -0.1001 -0.9944 -0.0334
vn -0.2175 -0.9717 -0.0925
vn -0.3952 -0.8549 -0.3362
vn -0.7466 -0.1014 -0.6576
vn -0.7191 -0.1018 -0.6874
vn -0.7011 -0.1284 -0.7014
vn -0.5426 -0.7121 -0.4455
vn -0.6870 -0.1016 -0.7195
vn -0.6583 -0.1009 -0.7460
vn -0.6431 -0.0367 -0.7649
vn -0.6427 -0.0360 -0.7653
vn -0.6418 -0.0360 -0.7660
vn -0.6179 -0.1309 -0.7753
vn -0.6233 -0.0028 -0.7820
vn -0.6224 -0.0020 -0.7827
vn -0.5401 -0.0021 -0.8416
vn -0.5046 -0.0043 -0.8633
vn -0.5371 -0.0000 -0.8435
vn -0.5086 -0.0000 -0.8610
vn -0.5024 -0.0044 -0.8646
vn -0.0000 1.0000 -0.0002
vn -0.0000 1.0000 0.0002
vn -0.0000 1.0000 -0.0000
vn -0.0000 1.0000 0.0013
vn -0.0000 1.0000 0.0021
vn -0.0000 1.0000 -0.0011
vn -0.0000 1.0000 -0.0007
vn -0.0000 1.0000 -0.0003
vn -0.0000 1.0000 0.0004
vn -0.0000 1.0000 -0.0005
vn 0.9915 -0.0854 0.0983
vn 0.9954 -0.0268 0.0919
vn 0.9950 -0.0374 0.0924
vn 0.9954 -0.0288 0.0919
vn -0.1783 -0.9840 -0.0000
vn -0.1782 -0.9840 -0.0000
vn -0.1886 -0.9820 -0.0036
vn -0.0149 -0.9999 -0.0037
vn -0.3199 -0.9283 -0.1894
vn -0.3802 -0.8939 -0.2377
vn -0.4029 -0.8666 -0.2944
vn -0.6518 -0.5618 -0.5095
vn -0.3298 -0.9352 -0.1291
vn -0.3672 -0.9151 -0.1664
vn -0.3652 -0.9100 -0.1965
vn -0.3449 -0.9175 -0.1983
vn -0.1039 -0.9940 -0.0334
vn -0.1113 -0.9932 -0.0352
vn -0.2930 -0.9513 -0.0958
vn -0.3386 -0.9333 -0.1196
vn -0.3382 -0.9322 -0.1292
vn -0.7655 -0.0374 -0.6423
vn -0.7713 -0.2463 -0.5868
vn -0.7753 -0.1314 -0.6178
vn -0.7661 -0.0372 -0.6417
vn -0.7661 -0.0004 -0.6428
vn -0.7660 -0.0000 -0.6429
vn -0.7659 -0.0000 -0.6430
vn -0.7478 -0.0000 -0.6639
vn -0.7231 -0.0000 -0.6908
vn -0.7229 -0.0000 -0.6910
vn -0.7114 -0.0000 -0.7028
vn -0.6914 -0.0000 -0.7225
vn -0.6906 -0.0000 -0.7232
vn -0.6446 -0.0000 -0.7645
vn -0.6445 -0.0000 -0.7646
vn -0.6435 -0.0000 -0.7654
vn -0.6433 -0.0001 -0.7656
vn -0.6431 -0.0005 -0.7658
vn -0.6431 -0.0003 -0.7658
vn -0.6422 -0.0029 -0.7665
vn -0.6431 -0.0000 -0.7657
vn -0.6430 -0.0000 -0.7659
vn -0.6224 -0.0000 -0.7827
vn 0.9961 -0.0000 0.0887
vn 0.9956 -0.0214 0.0912
vn 0.9958 -0.0116 0.0903
vn 0.9961 -0.0002 0.0888
vn -0.4385 -0.8987 -0.0000
vn -0.4385 -0.8988 -0.0000
vn -0.2778 -0.9603 -0.0269
vn -0.4383 -0.8985 -0.0252
vn -0.2973 -0.9542 -0.0338
vn -0.3893 -0.8935 -0.2236
vn -0.4188 -0.8742 -0.2459
vn -0.5859 -0.7372 -0.3364
vn -0.8439 -0.1713 -0.5084
vn -0.8274 -0.1739 -0.5339
vn -0.4586 -0.8698 -0.1818
vn -0.5456 -0.7807 -0.3047
vn -0.4096 -0.8827 -0.2303
vn -0.4734 -0.8608 -0.1869
vn -0.7540 -0.5776 -0.3127
vn -0.3443 -0.9377 -0.0463
vn -0.3577 -0.9320 -0.0583
vn -0.3568 -0.9295 -0.0936
vn -0.3953 -0.9101 -0.1245
vn -0.4414 -0.8864 -0.1393
vn -0.5617 -0.8041 -0.1948
vn -0.7666 -0.0023 -0.6421
vn -0.8402 -0.0012 -0.5422
vn -0.7829 -0.0011 -0.6221
vn -0.7820 -0.0023 -0.6232
vn -0.7829 -0.0000 -0.6221
vn -0.7664 -0.0000 -0.6424
vn -0.7661 -0.0000 -0.6427
vn -0.9946 -0.1040 -0.0000
vn -0.9946 -0.1042 -0.0000
vn -0.4541 -0.8902 -0.0360
vn -0.4537 -0.8896 -0.0528
vn -0.9943 -0.1041 -0.0237
vn -0.9059 -0.2205 -0.3615
vn -0.9094 -0.1406 -0.3915
vn -0.8892 -0.0661 -0.4526
vn -0.8639 -0.0681 -0.4991
vn -0.8618 -0.0768 -0.5013
vn -0.8589 -0.0937 -0.5036
vn -0.8413 -0.0001 -0.5405
vn -0.8626 -0.0026 -0.5058
vn -0.8613 -0.0000 -0.5081
vn -0.8610 -0.0000 -0.5086
vn -0.8422 -0.0000 -0.5391
vn -0.5951 -0.7767 -0.2065
vn -0.9090 -0.2129 -0.3582
vn -0.5023 -0.8621 -0.0669
vn -0.5738 -0.8147 -0.0836
vn -0.7888 -0.5967 -0.1476
vn -0.9190 -0.3506 -0.1806
vn -0.7845 -0.0000 -0.6201
vn -1.0000 -0.0000 -0.0000
vn -0.9963 -0.0759 -0.0398
vn -0.9958 -0.0759 -0.0509
vn -0.9992 -0.0000 -0.0399
vn -0.9333 -0.0900 -0.3476
vn -0.9371 -0.0055 -0.3490
vn -0.9185 -0.0055 -0.3954
vn -0.8912 -0.0039 -0.4536
vn -0.9180 -0.0041 -0.3965
vn -0.8886 -0.0000 -0.4588
vn -0.8659 -0.0000 -0.5002
vn -0.8655 -0.0000 -0.5009
vn -0.8644 -0.0026 -0.5028
vn -0.9684 -0.1605 -0.1910
vn -0.9719 -0.1037 -0.2114
vn -0.9630 -0.0423 -0.2662
vn -0.9387 -0.0469 -0.3415
vn -0.9387 -0.0473 -0.3416
vn -0.9948 -0.0222 -0.0989
vn -0.9844 -0.0281 -0.1735
vn -0.9952 -0.0000 -0.0982
vn -0.9951 -0.0000 -0.0989
vn -0.9397 -0.0015 -0.3420
vn -0.9397 -0.0014 -0.3419
vn -0.9397 -0.0012 -0.3419
vn -0.9397 -0.0000 -0.3419
vn -0.9397 -0.0000 -0.3421
vn -0.9281 -0.0000 -0.3724
vn -0.9180 -0.0000 -0.3965
vn -0.9773 -0.0000 -0.2119
vn -0.9772 -0.0000 -0.2125
vn -0.9848 -0.0000 -0.1735
vn -0.9692 -0.0000 -0.2461
vn -0.9639 -0.0000 -0.2662
vn -0.9638 -0.0000 -0.2665
vn -0.9589 -0.0000 -0.2838
vn -0.9400 -0.0000 -0.3412
vn -0.9399 -0.0000 -0.3415
vn -0.9892 -0.0000 -0.1464
s 0
f 1//1 2//1 6//1
f 1//1 6//1 16//1
f 1//1 16//1 33//1
f 1//1 33//1 52//1
f 1//1 52//1 56//1
f 1//1 56//1 36//1
f 1//1 36//1 18//1
f 1//1 18//1 7//1
f 1//1 7//1 3//1
f 1//2 3//2 4//2
f 1//3 4//3 5//3
f 1//4 5//4 2//4
f 2//5 5//5 11//5
f 2//6 11//6 23//6
f 2//6 23//6 47//6
f 2//6 47//6 69//6
f 2//6 69//6 73//6
f 2//6 73//6 70//6
f 2//6 70//6 48//6
f 2//7 48//7 25//7
f 2//6 25//6 13//6
f 2//6 13//6 6//6
f 3//8 7//8 17//8
f 3//9 17//9 8//9
f 3//10 8//10 4//10
f 4//11 9//11 10//11
f 4//12 10//12 11//12
f 4//13 11//13 5//13
f 4//14 8//14 12//14
f 4//15 12//15 9//15
f 6//16 13//16 14//16
f 6//17 14//17 15//17
f 6//18 15//18 16//18
f 7//8 18//8 17//8
f 8//19 17//19 19//19
f 8//20 19//20 12//20
f 9//21 20//21 21//21
f 9//22 21//22 10//22
f 9//23 12//23 20//23
f 10//24 22//24 11//24
f 10//25 21//25 22//25
f 11//26 22//26 23//26
f 12//27 19//27 24//27
f 12//28 24//28 20//28
f 13//29 25//29 26//29
f 13//30 26//30 27//30
f 13//31 27//31 28//31
f 13//32 28//32 29//32
f 13//33 29//33 30//33
f 13//34 30//34 31//34
f 13//35 31//35 32//35
f 13//36 32//36 14//36
f 14//37 32//37 31//37
f 14//37 31//37 30//37
f 14//37 30//37 29//37
f 14//37 29//37 28//37
f 14//38 28//38 27//38
f 14//37 27//37 26//37
f 14//37 26//37 50//37
f 14//37 50//37 49//37
f 14//37 49//37 72//37
f 14//37 72//37 102//37
f 14//37 102//37 101//37
f 14//37 101//37 100//37
f 14//37 100//37 116//37
f 14//37 116//37 117//37
f 14//37 117//37 103//37
f 14//37 103//37 74//37
f 14//37 74//37 51//37
f 14//37 51//37 33//37
f 14//37 33//37 16//37
f 14//38 16//38 15//38
f 17//39 34//39 19//39
f 17//40 18//40 35//40
f 17//41 35//41 34//41
f 18//42 36//42 37//42
f 18//43 37//43 35//43
f 19//44 34//44 38//44
f 19//45 38//45 39//45
f 19//46 39//46 40//46
f 19//47 40//47 24//47
f 20//48 24//48 40//48
f 20//49 40//49 41//49
f 20//50 41//50 21//50
f 21//51 42//51 43//51
f 21//52 43//52 44//52
f 21//53 44//53 45//53
f 21//54 45//54 23//54
f 21//55 23//55 22//55
f 21//56 41//56 42//56
f 23//57 45//57 46//57
f 23//58 46//58 68//58
f 23//58 68//58 47//58
f 25//59 48//59 49//59
f 25//60 49//60 50//60
f 25//61 50//61 26//61
f 33//62 51//62 52//62
f 34//63 35//63 53//63
f 34//64 53//64 54//64
f 34//65 54//65 38//65
f 35//66 37//66 55//66
f 35//67 55//67 53//67
f 36//68 55//68 37//68
f 36//69 56//69 57//69
f 36//70 57//70 55//70
f 38//71 54//71 39//71
f 39//72 58//72 59//72
f 39//73 59//73 60//73
f 39//74 60//74 40//74
f 39//75 54//75 58//75
f 40//76 60//76 61//76
f 40//77 61//77 41//77
f 41//78 61//78 62//78
f 41//79 62//79 63//79
f 41//80 63//80 64//80
f 41//81 64//81 42//81
f 42//82 64//82 65//82
f 42//83 65//83 66//83
f 42//84 66//84 43//84
f 43//85 46//85 44//85
f 43//86 66//86 99//86
f 43//86 99//86 67//86
f 43//87 67//87 68//87
f 43//87 68//87 46//87
f 44//88 46//88 45//88
f 47//89 68//89 67//89
f 47//90 67//90 99//90
f 47//91 99//91 98//91
f 47//91 98//91 96//91
f 47//91 96//91 95//91
f 47//92 95//92 94//92
f 47//91 94//91 93//91
f 47//93 93//93 92//93
f 47//91 92//91 91//91
f 47//94 91//94 90//94
f 47//91 90//91 89//91
f 47//91 89//91 115//91
f 47//91 115//91 114//91
f 47//91 114//91 131//91
f 47//95 131//95 125//95
f 47//91 125//91 128//91
f 47//96 128//96 127//96
f 47//91 127//91 139//91
f 47//91 139//91 138//91
f 47//91 138//91 137//91
f 47//91 137//91 151//91
f 47//91 151//91 150//91
f 47//97 150//97 149//97
f 47//91 149//91 148//91
f 47//91 148//91 156//91
f 47//98 156//98 155//98
f 47//91 155//91 154//91
f 47//89 154//89 153//89
f 47//91 153//91 152//91
f 47//91 152//91 157//91
f 47//98 157//98 146//98
f 47//91 146//91 145//91
f 47//91 145//91 132//91
f 47//91 132//91 116//91
f 47//91 116//91 100//91
f 47//91 100//91 69//91
f 48//99 70//99 49//99
f 49//100 71//100 72//100
f 49//101 70//101 73//101
f 49//102 73//102 71//102
f 51//103 74//103 75//103
f 51//104 75//104 52//104
f 52//105 75//105 76//105
f 52//106 76//106 56//106
f 53//107 55//107 77//107
f 53//108 77//108 78//108
f 53//109 78//109 54//109
f 54//110 78//110 58//110
f 55//111 57//111 79//111
f 55//112 79//112 80//112
f 55//113 80//113 81//113
f 55//114 81//114 77//114
f 56//115 76//115 57//115
f 57//116 76//116 82//116
f 57//117 82//117 83//117
f 57//118 83//118 84//118
f 57//119 84//119 79//119
f 58//120 85//120 59//120
f 58//121 78//121 86//121
f 58//122 86//122 87//122
f 58//123 87//123 85//123
f 59//124 85//124 88//124
f 59//125 88//125 89//125
f 59//126 89//126 90//126
f 59//127 90//127 91//127
f 59//128 91//128 92//128
f 59//129 92//129 60//129
f 60//130 92//130 93//130
f 60//131 93//131 94//131
f 60//132 94//132 61//132
f 61//133 94//133 95//133
f 61//134 95//134 96//134
f 61//135 96//135 62//135
f 62//136 96//136 97//136
f 62//137 97//137 65//137
f 62//138 65//138 63//138
f 63//139 65//139 64//139
f 65//140 97//140 96//140
f 65//141 96//141 98//141
f 65//142 98//142 99//142
f 65//142 99//142 66//142
f 69//143 100//143 101//143
f 69//143 101//143 73//143
f 71//144 73//144 72//144
f 72//145 73//145 102//145
f 73//146 101//146 102//146
f 74//147 103//147 105//147
f 74//148 105//148 75//148
f 75//149 104//149 76//149
f 75//150 105//150 104//150
f 76//151 104//151 82//151
f 77//152 81//152 106//152
f 77//153 106//153 78//153
f 78//154 106//154 107//154
f 78//155 107//155 108//155
f 78//156 108//156 86//156
f 79//157 84//157 80//157
f 80//158 107//158 106//158
f 80//159 106//159 81//159
f 80//160 84//160 109//160
f 80//161 109//161 107//161
f 82//162 104//162 110//162
f 82//163 110//163 111//163
f 82//164 111//164 83//164
f 83//165 111//165 84//165
f 84//166 111//166 112//166
f 84//167 112//167 109//167
f 85//168 87//168 88//168
f 86//169 108//169 113//169
f 86//170 113//170 88//170
f 86//171 88//171 87//171
f 88//172 113//172 131//172
f 88//172 131//172 114//172
f 88//173 114//173 115//173
f 88//174 115//174 89//174
f 103//175 117//175 119//175
f 103//176 119//176 105//176
f 104//177 105//177 118//177
f 104//178 118//178 110//178
f 105//179 119//179 118//179
f 107//180 109//180 120//180
f 107//181 120//181 121//181
f 107//182 121//182 122//182
f 107//183 122//183 123//183
f 107//184 123//184 124//184
f 107//185 124//185 108//185
f 108//186 125//186 113//186
f 108//187 124//187 126//187
f 108//188 126//188 127//188
f 108//189 127//189 128//189
f 108//190 128//190 125//190
f 109//191 112//191 129//191
f 109//192 129//192 120//192
f 110//193 118//193 111//193
f 111//194 118//194 130//194
f 111//195 130//195 112//195
f 112//196 130//196 129//196
f 113//197 125//197 131//197
f 116//198 132//198 119//198
f 116//198 119//198 117//198
f 118//199 119//199 133//199
f 118//200 133//200 130//200
f 119//201 132//201 145//201
f 119//201 145//201 133//201
f 120//202 129//202 134//202
f 120//203 134//203 135//203
f 120//204 135//204 121//204
f 121//205 136//205 122//205
f 121//206 135//206 136//206
f 122//207 136//207 151//207
f 122//207 151//207 137//207
f 122//208 137//208 138//208
f 122//208 138//208 123//208
f 123//209 138//209 139//209
f 123//209 139//209 126//209
f 123//210 126//210 124//210
f 126//188 139//188 127//188
f 129//211 130//211 140//211
f 129//212 140//212 141//212
f 129//213 141//213 142//213
f 129//214 142//214 143//214
f 129//215 143//215 134//215
f 130//216 133//216 144//216
f 130//217 144//217 140//217
f 133//218 145//218 146//218
f 133//219 146//219 144//219
f 134//220 143//220 135//220
f 135//221 143//221 142//221
f 135//222 142//222 147//222
f 135//223 147//223 148//223
f 135//224 148//224 149//224
f 135//225 149//225 150//225
f 135//226 150//226 151//226
f 135//226 151//226 136//226
f 140//227 152//227 153//227
f 140//228 153//228 141//228
f 140//229 144//229 157//229
f 140//229 157//229 152//229
f 141//230 153//230 154//230
f 141//231 154//231 155//231
f 141//232 155//232 142//232
f 142//233 155//233 156//233
f 142//234 156//234 148//234
f 142//235 148//235 147//235
f 144//236 146//236 157//236
