# Blender 4.4.3
# www.blender.org
o socket9mm_collision_geom_18
v -0.079703 0.023750 -0.039376
v -0.079703 0.023750 -0.040828
v -0.083068 0.023750 -0.039376
v -0.079703 0.010470 -0.039376
v -0.080057 0.023750 -0.040828
v -0.079703 0.020832 -0.044185
v -0.083068 0.023750 -0.040015
v -0.083068 0.010544 -0.039376
v -0.082813 0.010536 -0.039376
v -0.079703 0.004718 -0.039428
v -0.080392 0.023750 -0.040818
v -0.080392 0.020832 -0.044185
v -0.079703 0.020626 -0.044206
v -0.082885 0.023750 -0.040117
v -0.083068 0.020888 -0.043585
v -0.083068 0.004118 -0.039726
v -0.080392 0.004374 -0.039489
v -0.080046 0.004374 -0.039462
v -0.079703 0.004372 -0.039438
v -0.080400 0.023750 -0.040818
v -0.080738 0.020822 -0.044178
v -0.080392 0.020626 -0.044206
v -0.079703 0.003682 -0.044206
v -0.082843 0.023750 -0.040140
v -0.082665 0.020812 -0.043827
v -0.083068 0.020808 -0.043622
v -0.082472 0.023750 -0.040308
v -0.083068 0.004028 -0.039732
v -0.082813 0.004028 -0.039719
v -0.081429 0.004108 -0.039623
v -0.080392 0.004102 -0.039578
v -0.080046 0.004102 -0.039567
v -0.079703 0.004102 -0.039560
v -0.080759 0.023750 -0.040774
v -0.080738 0.020626 -0.044192
v -0.080940 0.020806 -0.044168
v -0.080392 0.003682 -0.044206
v -0.079703 0.003476 -0.044185
v -0.082121 0.020626 -0.043965
v -0.082467 0.020626 -0.043890
v -0.082678 0.020626 -0.043832
v -0.083068 0.020626 -0.043686
v -0.082134 0.023750 -0.040432
v -0.081783 0.023750 -0.040559
v -0.081775 0.023750 -0.040562
v -0.082467 0.020844 -0.043854
v -0.083068 0.003814 -0.039836
v -0.083068 0.003744 -0.039877
v -0.079703 0.003950 -0.039842
v -0.081437 0.023750 -0.040653
v -0.082121 0.020880 -0.043891
v -0.080955 0.020626 -0.044171
v -0.080738 0.003682 -0.044192
v -0.080392 0.003476 -0.044185
v -0.080738 0.003486 -0.044178
v -0.079703 0.003382 -0.043991
v -0.081775 0.020280 -0.044026
v -0.082121 0.003682 -0.043965
v -0.082467 0.003682 -0.043890
v -0.083068 0.020280 -0.043689
v -0.083068 0.020524 -0.043687
v -0.082678 0.003682 -0.043832
v -0.081458 0.023750 -0.040648
v -0.083068 0.003622 -0.040111
v -0.083068 0.003582 -0.040204
v -0.079703 0.003874 -0.040077
v -0.081429 0.020280 -0.044087
v -0.080955 0.003682 -0.044171
v -0.080940 0.003500 -0.044168
v -0.080392 0.003382 -0.043990
v -0.080738 0.003392 -0.043990
v -0.081775 0.003416 -0.043918
v -0.082121 0.003428 -0.043891
v -0.079703 0.003318 -0.043645
v -0.081429 0.003318 -0.043645
v -0.081775 0.004028 -0.044026
v -0.082665 0.003496 -0.043827
v -0.083068 0.004028 -0.043689
v -0.083068 0.003682 -0.043685
v -0.083068 0.003926 -0.043688
v -0.083068 0.003480 -0.040566
v -0.079703 0.003394 -0.041570
v -0.079703 0.003478 -0.041306
v -0.079703 0.003818 -0.040250
v -0.081429 0.004028 -0.044087
v -0.082467 0.003464 -0.043854
v -0.081775 0.003320 -0.043645
v -0.082121 0.003332 -0.043645
v -0.082467 0.003368 -0.043645
v -0.083068 0.003426 -0.043584
v -0.079703 0.003318 -0.042261
v -0.082813 0.003318 -0.043299
v -0.083068 0.003412 -0.040819
v -0.083068 0.003396 -0.040878
v -0.079703 0.003328 -0.041915
v -0.083068 0.003328 -0.043299
v -0.082467 0.003320 -0.041570
v -0.082813 0.003318 -0.041570
v -0.083068 0.003318 -0.042953
v -0.083068 0.003334 -0.041224
v -0.083068 0.003318 -0.041570
vn -0.0000 1.0000 -0.0000
vn -0.0000 1.0000 -0.0002
vn -0.0000 1.0000 -0.0001
vn -0.0000 1.0000 0.0004
vn -0.0000 -0.0000 1.0000
vn 1.0000 -0.0000 -0.0000
vn -0.0000 0.7547 -0.6561
vn -0.0000 0.7547 -0.6560
vn -1.0000 -0.0000 -0.0000
vn -1.0000 0.0001 -0.0000
vn -0.0002 -0.0091 1.0000
vn -0.0185 0.7555 -0.6549
vn -0.0000 0.1028 -0.9947
vn -0.3274 0.7372 -0.5910
vn -0.0832 -0.0543 0.9950
vn -0.0763 -0.0513 0.9958
vn -0.0688 -0.0477 0.9965
vn -0.0365 -0.0300 0.9989
vn -0.0003 -0.0092 1.0000
vn -0.0352 0.7552 -0.6546
vn -0.0372 0.7546 -0.6551
vn -0.0234 0.1027 -0.9944
vn -0.0000 -0.0000 -1.0000
vn -0.3273 0.7371 -0.5912
vn -0.4236 0.3753 -0.8244
vn -0.2745 0.7484 -0.6038
vn -0.2277 0.7535 -0.6167
vn -0.0829 -0.0575 0.9949
vn -0.0760 -0.1087 0.9912
vn -0.0686 -0.1668 0.9836
vn -0.0469 -0.3411 0.9388
vn -0.0426 -0.3711 0.9276
vn -0.0423 -0.3726 0.9270
vn -0.0301 -0.3984 0.9167
vn -0.0201 -0.4090 0.9123
vn -0.0797 0.7554 -0.6504
vn -0.0395 0.0745 -0.9964
vn -0.0525 0.0744 -0.9958
vn -0.0901 0.7547 -0.6498
vn -0.0396 -0.0000 -0.9992
vn -0.0000 -0.1028 -0.9947
vn -0.1911 0.1597 -0.9685
vn -0.2099 0.1073 -0.9718
vn -0.2673 0.0429 -0.9627
vn -0.3484 0.0479 -0.9361
vn -0.4351 0.3019 -0.8483
vn -0.2270 0.7536 -0.6169
vn -0.2222 0.7541 -0.6180
vn -0.2128 0.7542 -0.6212
vn -0.2065 0.7547 -0.6228
vn -0.1810 0.3463 -0.9205
vn -0.0449 -0.4384 0.8977
vn -0.0423 -0.3750 0.9261
vn -0.0383 -0.4446 0.8949
vn -0.0285 -0.5065 0.8618
vn -0.0283 -0.5075 0.8612
vn -0.0182 -0.5626 0.8266
vn 0.0489 -0.8797 0.4729
vn -0.1049 0.7540 -0.6484
vn -0.1148 0.7553 -0.6453
vn -0.0976 0.0236 -0.9949
vn -0.0977 -0.0000 -0.9952
vn -0.1473 0.5983 -0.7876
vn -0.1740 0.0296 -0.9843
vn -0.0233 -0.1027 -0.9944
vn -0.0395 -0.0745 -0.9964
vn -0.0000 -0.8994 -0.4372
vn -0.1741 0.0009 -0.9847
vn -0.1750 -0.0000 -0.9846
vn -0.2111 -0.0000 -0.9775
vn -0.2675 -0.0000 -0.9636
vn -0.3485 0.0072 -0.9373
vn -0.3488 0.0087 -0.9372
vn -0.3428 -0.0000 -0.9394
vn -0.1715 0.7562 -0.6315
vn -0.1699 0.7561 -0.6320
vn -0.1476 0.7554 -0.6384
vn 0.0494 -0.8853 0.4624
vn 0.0578 -0.9166 0.3956
vn 0.0708 -0.9489 0.3075
vn -0.1738 0.0002 -0.9848
vn -0.1736 -0.0000 -0.9848
vn -0.0518 -0.0745 -0.9959
vn -0.0976 -0.0233 -0.9950
vn -0.0006 -0.9002 -0.4354
vn -0.0260 -0.8999 -0.4353
vn -0.0350 -0.8932 -0.4484
vn -0.0521 -0.8925 -0.4480
vn -0.0685 -0.8606 -0.5046
vn -0.0832 -0.8192 -0.5675
vn -0.0000 -0.9834 -0.1816
vn -0.0003 -0.9832 -0.1828
vn -0.1738 -0.0000 -0.9848
vn -0.1741 -0.0009 -0.9847
vn -0.1740 -0.0292 -0.9843
vn -0.1913 -0.1591 -0.9685
vn -0.2099 -0.1073 -0.9718
vn -0.2673 -0.0429 -0.9627
vn -0.3504 -0.0480 -0.9354
vn -0.3508 -0.0109 -0.9364
vn -0.3496 -0.0087 -0.9369
vn 0.0561 -0.9611 0.2703
vn 0.0696 -0.9507 0.3021
vn 0.0708 -0.9494 0.3058
vn 0.0708 -0.9493 0.3063
vn -0.1738 -0.0002 -0.9848
vn -0.1474 -0.6022 -0.7846
vn -0.1812 -0.3484 -0.9196
vn -0.0057 -0.9801 -0.1985
vn -0.0277 -0.9588 -0.2829
vn -0.0331 -0.9540 -0.2980
vn -0.0460 -0.9368 -0.3468
vn -0.0600 -0.9301 -0.3624
vn -0.0965 -0.9274 -0.3614
vn -0.1279 -0.9073 -0.4005
vn -0.1397 -0.8887 -0.4368
vn -0.0000 -1.0000 -0.0000
vn -0.0058 -0.9997 -0.0231
vn -0.2059 -0.7946 -0.5712
vn -0.4444 -0.3293 -0.8331
vn 0.0528 -0.9643 0.2597
vn 0.0526 -0.9645 0.2589
vn 0.0380 -0.9815 0.1876
vn -0.0345 -0.9934 -0.1090
vn -0.0389 -0.9923 -0.1178
vn -0.0993 -0.9541 -0.2827
vn -0.1230 -0.9387 -0.3221
vn 0.0065 -0.9996 0.0289
vn 0.0058 -0.9996 0.0260
vn -0.0391 -0.9988 -0.0289
vn 0.0345 -0.9837 0.1765
vn 0.0101 -0.9983 0.0580
vn 0.0058 -0.9987 0.0504
vn -0.0000 -0.9989 0.0462
s 0
f 1//1 2//1 5//1
f 1//1 5//1 11//1
f 1//2 11//2 20//2
f 1//1 20//1 34//1
f 1//1 34//1 50//1
f 1//3 50//3 63//3
f 1//1 63//1 45//1
f 1//4 45//4 44//4
f 1//1 44//1 43//1
f 1//1 43//1 27//1
f 1//1 27//1 24//1
f 1//1 24//1 14//1
f 1//1 14//1 7//1
f 1//1 7//1 3//1
f 1//5 3//5 8//5
f 1//5 8//5 9//5
f 1//5 9//5 4//5
f 1//6 4//6 10//6
f 1//6 10//6 19//6
f 1//6 19//6 33//6
f 1//6 33//6 49//6
f 1//6 49//6 66//6
f 1//6 66//6 84//6
f 1//6 84//6 83//6
f 1//6 83//6 82//6
f 1//6 82//6 95//6
f 1//6 95//6 91//6
f 1//6 91//6 74//6
f 1//6 74//6 56//6
f 1//6 56//6 38//6
f 1//6 38//6 23//6
f 1//6 23//6 13//6
f 1//6 13//6 6//6
f 1//6 6//6 2//6
f 2//7 6//7 12//7
f 2//8 12//8 5//8
f 3//9 7//9 15//9
f 3//10 15//10 26//10
f 3//9 26//9 42//9
f 3//9 42//9 61//9
f 3//9 61//9 60//9
f 3//9 60//9 78//9
f 3//9 78//9 80//9
f 3//9 80//9 79//9
f 3//9 79//9 90//9
f 3//9 90//9 96//9
f 3//9 96//9 99//9
f 3//9 99//9 101//9
f 3//9 101//9 100//9
f 3//9 100//9 94//9
f 3//9 94//9 93//9
f 3//9 93//9 81//9
f 3//9 81//9 65//9
f 3//9 65//9 64//9
f 3//9 64//9 48//9
f 3//9 48//9 47//9
f 3//9 47//9 28//9
f 3//9 28//9 16//9
f 3//9 16//9 8//9
f 4//11 9//11 10//11
f 5//12 12//12 11//12
f 6//13 13//13 22//13
f 6//13 22//13 12//13
f 7//14 14//14 15//14
f 8//15 16//15 17//15
f 8//16 17//16 18//16
f 8//17 18//17 19//17
f 8//18 19//18 10//18
f 8//19 10//19 9//19
f 11//20 12//20 21//20
f 11//21 21//21 20//21
f 12//22 22//22 21//22
f 13//23 23//23 37//23
f 13//23 37//23 22//23
f 14//24 24//24 15//24
f 15//25 25//25 26//25
f 15//26 24//26 27//26
f 15//27 27//27 25//27
f 16//28 28//28 17//28
f 17//29 28//29 18//29
f 18//30 28//30 19//30
f 19//31 28//31 29//31
f 19//32 29//32 30//32
f 19//33 30//33 31//33
f 19//34 31//34 32//34
f 19//35 32//35 33//35
f 20//36 21//36 34//36
f 21//37 22//37 35//37
f 21//38 35//38 36//38
f 21//39 36//39 34//39
f 22//40 37//40 53//40
f 22//40 53//40 35//40
f 23//41 38//41 54//41
f 23//41 54//41 37//41
f 25//42 36//42 39//42
f 25//43 39//43 40//43
f 25//44 40//44 41//44
f 25//45 41//45 42//45
f 25//46 42//46 26//46
f 25//47 27//47 43//47
f 25//48 43//48 44//48
f 25//49 44//49 45//49
f 25//50 45//50 46//50
f 25//51 46//51 36//51
f 28//52 47//52 29//52
f 29//53 31//53 30//53
f 29//54 47//54 31//54
f 31//55 47//55 48//55
f 31//56 48//56 32//56
f 32//57 48//57 33//57
f 33//58 48//58 49//58
f 34//59 36//59 51//59
f 34//60 51//60 50//60
f 35//61 52//61 36//61
f 35//62 53//62 68//62
f 35//62 68//62 52//62
f 36//63 46//63 51//63
f 36//64 52//64 39//64
f 37//65 54//65 55//65
f 37//66 55//66 53//66
f 38//67 56//67 54//67
f 39//68 52//68 57//68
f 39//69 57//69 76//69
f 39//69 76//69 58//69
f 39//70 58//70 59//70
f 39//70 59//70 40//70
f 40//71 59//71 62//71
f 40//71 62//71 41//71
f 41//72 60//72 61//72
f 41//73 61//73 42//73
f 41//74 62//74 78//74
f 41//74 78//74 60//74
f 45//75 63//75 46//75
f 46//76 63//76 50//76
f 46//77 50//77 51//77
f 48//78 64//78 49//78
f 49//79 64//79 65//79
f 49//80 65//80 66//80
f 52//81 67//81 57//81
f 52//82 68//82 85//82
f 52//82 85//82 67//82
f 53//83 55//83 69//83
f 53//84 69//84 68//84
f 54//85 56//85 70//85
f 54//86 70//86 71//86
f 54//87 71//87 55//87
f 55//88 71//88 72//88
f 55//89 72//89 73//89
f 55//90 73//90 69//90
f 56//91 74//91 75//91
f 56//92 75//92 70//92
f 57//93 67//93 85//93
f 57//93 85//93 76//93
f 58//94 76//94 68//94
f 58//95 68//95 69//95
f 58//96 69//96 77//96
f 58//97 77//97 59//97
f 59//98 77//98 62//98
f 62//99 77//99 79//99
f 62//100 79//100 80//100
f 62//101 80//101 78//101
f 65//102 81//102 82//102
f 65//103 82//103 83//103
f 65//104 83//104 84//104
f 65//105 84//105 66//105
f 68//106 76//106 85//106
f 69//107 73//107 86//107
f 69//108 86//108 77//108
f 70//109 75//109 87//109
f 70//110 87//110 71//110
f 71//111 87//111 88//111
f 71//112 88//112 72//112
f 72//113 88//113 73//113
f 73//114 88//114 89//114
f 73//115 89//115 90//115
f 73//116 90//116 86//116
f 74//117 91//117 98//117
f 74//117 98//117 101//117
f 74//117 101//117 99//117
f 74//117 99//117 92//117
f 74//117 92//117 75//117
f 75//118 92//118 87//118
f 77//119 86//119 90//119
f 77//120 90//120 79//120
f 81//121 93//121 82//121
f 82//122 93//122 94//122
f 82//123 94//123 95//123
f 87//124 92//124 88//124
f 88//125 92//125 96//125
f 88//126 96//126 89//126
f 89//127 96//127 90//127
f 91//128 95//128 97//128
f 91//129 97//129 98//129
f 92//130 99//130 96//130
f 94//131 100//131 95//131
f 95//132 100//132 97//132
f 97//133 100//133 98//133
f 98//134 100//134 101//134
