# Blender 4.4.3
# www.blender.org
o socket10mm_collision_geom_11
v -0.057530 0.027438 -0.036508
v -0.057530 0.022759 -0.036508
v -0.055699 0.027438 -0.036921
v -0.056374 0.036236 -0.037085
v -0.056540 0.036244 -0.037079
v -0.056810 0.036246 -0.037077
v -0.057530 0.036070 -0.037128
v -0.057530 0.022759 -0.039340
v -0.055699 0.022759 -0.036921
v -0.055699 0.036241 -0.037402
v -0.055699 0.036253 -0.037405
v -0.055876 0.036290 -0.037364
v -0.056241 0.036305 -0.037248
v -0.056540 0.036335 -0.037251
v -0.056901 0.036323 -0.037218
v -0.057530 0.036364 -0.037281
v -0.057530 0.036360 -0.037274
v -0.057518 0.022759 -0.039345
v -0.057530 0.036070 -0.039239
v -0.055699 0.022759 -0.039577
v -0.055699 0.036319 -0.037484
v -0.055876 0.036415 -0.037583
v -0.056208 0.036451 -0.037583
v -0.057530 0.036533 -0.037601
v -0.057514 0.022759 -0.039346
v -0.057530 0.036401 -0.039236
v -0.057204 0.036070 -0.039319
v -0.057504 0.022759 -0.039349
v -0.055699 0.036401 -0.039478
v -0.055876 0.022759 -0.039577
v -0.055699 0.036372 -0.037578
v -0.055699 0.036471 -0.037757
v -0.055699 0.036523 -0.037905
v -0.057530 0.036534 -0.037605
v -0.057204 0.036401 -0.039311
v -0.057530 0.036641 -0.039157
v -0.056480 0.036594 -0.039428
v -0.056699 0.036401 -0.039407
v -0.056887 0.022759 -0.039476
v -0.057204 0.022759 -0.039418
v -0.055876 0.036401 -0.039478
v -0.055699 0.036616 -0.039443
v -0.056208 0.022759 -0.039572
v -0.055699 0.036549 -0.037993
v -0.055699 0.036618 -0.038247
v -0.055699 0.036705 -0.038579
v -0.057528 0.036607 -0.037890
v -0.057530 0.036607 -0.037890
v -0.057530 0.036645 -0.039155
v -0.057204 0.036659 -0.039190
v -0.056208 0.036612 -0.039440
v -0.056208 0.036401 -0.039471
v -0.056533 0.036401 -0.039437
v -0.056836 0.022759 -0.039485
v -0.055876 0.036616 -0.039443
v -0.055699 0.036659 -0.039350
v -0.056540 0.022759 -0.039537
v -0.055699 0.036749 -0.038911
v -0.057530 0.036744 -0.038579
v -0.057530 0.036698 -0.038253
v -0.057530 0.036697 -0.038247
v -0.057530 0.036735 -0.038916
v -0.056208 0.036703 -0.039243
v -0.055876 0.036707 -0.039243
v -0.055699 0.036707 -0.039243
v -0.055699 0.036727 -0.039088
v -0.056540 0.036751 -0.038911
v -0.057204 0.036751 -0.038911
v -0.057530 0.036744 -0.038585
v -0.057530 0.036737 -0.038911
vn 0.2200 -0.0000 0.9755
vn 0.2199 0.0350 0.9749
vn 0.0390 0.0603 0.9974
vn 0.0073 0.0638 0.9979
vn -0.0872 0.0713 0.9936
vn -1.0000 -0.0000 -0.0000
vn -0.0000 -1.0000 -0.0000
vn 1.0000 -0.0000 -0.0000
vn 1.0000 -0.0001 -0.0000
vn 0.4244 0.0494 0.9041
vn 0.4141 0.2157 0.8843
vn 0.2974 0.6849 0.6652
vn 0.1993 0.8314 0.5188
vn 0.0846 0.8889 0.4502
vn 0.0605 0.8809 0.4695
vn 0.0125 0.8824 0.4703
vn 0.0121 0.8820 0.4712
vn 0.0110 0.8817 0.4717
vn -0.0174 0.8376 0.5460
vn -0.1708 0.4442 0.8795
vn -0.3353 0.0072 -0.9421
vn 0.2952 0.7345 0.6110
vn 0.1905 0.8535 0.4850
vn 0.1895 0.8537 0.4851
vn 0.0976 0.9098 0.4035
vn 0.0873 0.9110 0.4030
vn 0.0525 0.9262 0.3734
vn 0.0119 0.8852 0.4650
vn 0.0119 0.8852 0.4651
vn -0.2790 0.0074 -0.9603
vn -0.2392 0.0079 -0.9709
vn -0.2392 0.0076 -0.9709
vn -0.2609 0.0075 -0.9653
vn -0.0000 0.0073 -1.0000
vn 0.1915 0.8541 0.4836
vn 0.0980 0.9131 0.3958
vn 0.1928 0.8585 0.4751
vn 0.0744 0.9411 0.3300
vn 0.0551 0.9518 0.3019
vn 0.0547 0.9488 0.3111
vn -0.2239 0.0238 -0.9743
vn -0.2249 0.3030 -0.9261
vn -0.2173 0.2422 -0.9456
vn -0.1874 0.0240 -0.9820
vn -0.1769 0.0074 -0.9842
vn -0.1798 0.0074 -0.9837
vn -0.2266 0.0073 -0.9740
vn -0.0000 0.1600 -0.9871
vn -0.0163 0.0073 -0.9998
vn 0.0519 0.9579 0.2822
vn 0.0472 0.9643 0.2604
vn 0.0453 0.9659 0.2550
vn 0.0411 0.9680 0.2475
vn -0.0376 0.9684 0.2465
vn -0.1864 0.1077 -0.9766
vn -0.1961 0.4952 -0.8463
vn -0.0904 0.8570 -0.5074
vn -0.0794 0.8743 -0.4788
vn -0.0555 0.1463 -0.9877
vn -0.1055 0.0767 -0.9915
vn -0.1758 0.0954 -0.9798
vn -0.1766 0.0074 -0.9842
vn -0.1745 0.0074 -0.9846
vn -0.0206 0.1465 -0.9890
vn -0.0118 0.1600 -0.9870
vn -0.0208 0.0074 -0.9998
vn -0.0000 0.9104 -0.4137
vn -0.1044 0.0073 -0.9945
vn 0.0208 0.9912 0.1308
vn 0.0207 0.9903 0.1374
vn 0.0340 0.9770 0.2104
vn 0.0401 0.9687 0.2449
vn -0.0370 0.9686 0.2457
vn -0.0770 0.9325 -0.3528
vn -0.0591 0.9407 -0.3339
vn -0.0620 0.9074 -0.4156
vn -0.0154 0.9091 -0.4163
vn -0.1058 0.0074 -0.9944
vn -0.1731 0.0073 -0.9849
vn -0.0113 0.9117 -0.4106
vn -0.0019 0.9118 -0.4106
vn -0.0000 0.9130 -0.4080
vn 0.0016 0.9924 -0.1229
vn 0.0016 0.9997 0.0255
vn -0.0000 0.9998 0.0206
vn -0.0211 0.9998 -0.0000
vn -0.0406 0.9653 -0.2580
vn -0.0405 0.9645 -0.2611
vn -0.0122 0.9838 -0.1786
vn -0.0001 0.9913 -0.1315
vn -0.0000 0.9913 -0.1316
vn -0.0000 0.9915 -0.1304
vn -0.0420 0.9989 -0.0210
s 0
f 1//1 2//1 9//1
f 1//1 9//1 3//1
f 1//2 3//2 4//2
f 1//3 4//3 5//3
f 1//4 5//4 6//4
f 1//5 6//5 7//5
f 1//6 7//6 17//6
f 1//6 17//6 16//6
f 1//6 16//6 24//6
f 1//6 24//6 34//6
f 1//6 34//6 48//6
f 1//6 48//6 61//6
f 1//6 61//6 60//6
f 1//6 60//6 59//6
f 1//6 59//6 69//6
f 1//6 69//6 70//6
f 1//6 70//6 62//6
f 1//6 62//6 49//6
f 1//6 49//6 36//6
f 1//6 36//6 26//6
f 1//6 26//6 19//6
f 1//6 19//6 8//6
f 1//6 8//6 2//6
f 2//7 8//7 18//7
f 2//7 18//7 25//7
f 2//7 25//7 28//7
f 2//7 28//7 40//7
f 2//7 40//7 39//7
f 2//7 39//7 54//7
f 2//7 54//7 57//7
f 2//7 57//7 43//7
f 2//7 43//7 30//7
f 2//7 30//7 20//7
f 2//7 20//7 9//7
f 3//8 9//8 20//8
f 3//8 20//8 29//8
f 3//8 29//8 42//8
f 3//8 42//8 56//8
f 3//8 56//8 65//8
f 3//8 65//8 66//8
f 3//8 66//8 58//8
f 3//8 58//8 46//8
f 3//8 46//8 45//8
f 3//8 45//8 44//8
f 3//8 44//8 33//8
f 3//8 33//8 32//8
f 3//8 32//8 31//8
f 3//8 31//8 21//8
f 3//8 21//8 11//8
f 3//9 11//9 10//9
f 3//10 10//10 4//10
f 4//11 10//11 11//11
f 4//12 11//12 12//12
f 4//13 12//13 13//13
f 4//14 13//14 14//14
f 4//15 14//15 5//15
f 5//16 14//16 15//16
f 5//17 15//17 6//17
f 6//18 15//18 16//18
f 6//19 16//19 17//19
f 6//20 17//20 7//20
f 8//21 19//21 18//21
f 11//22 21//22 12//22
f 12//23 21//23 22//23
f 12//24 22//24 13//24
f 13//25 22//25 23//25
f 13//26 23//26 14//26
f 14//27 23//27 24//27
f 14//28 24//28 15//28
f 15//29 24//29 16//29
f 18//30 19//30 25//30
f 19//31 26//31 27//31
f 19//32 27//32 28//32
f 19//33 28//33 25//33
f 20//34 30//34 41//34
f 20//34 41//34 29//34
f 21//35 31//35 22//35
f 22//36 32//36 23//36
f 22//37 31//37 32//37
f 23//38 32//38 33//38
f 23//39 33//39 34//39
f 23//40 34//40 24//40
f 26//41 35//41 27//41
f 26//42 36//42 37//42
f 26//43 37//43 35//43
f 27//44 35//44 38//44
f 27//45 38//45 39//45
f 27//46 39//46 40//46
f 27//47 40//47 28//47
f 29//48 41//48 55//48
f 29//48 55//48 42//48
f 30//49 43//49 41//49
f 33//50 44//50 34//50
f 34//51 44//51 45//51
f 34//52 45//52 46//52
f 34//53 46//53 47//53
f 34//54 47//54 48//54
f 35//55 37//55 38//55
f 36//56 49//56 37//56
f 37//57 49//57 50//57
f 37//58 50//58 51//58
f 37//59 51//59 52//59
f 37//60 52//60 53//60
f 37//61 53//61 38//61
f 38//62 53//62 39//62
f 39//63 53//63 54//63
f 41//64 52//64 51//64
f 41//65 51//65 55//65
f 41//66 43//66 52//66
f 42//67 55//67 56//67
f 43//68 57//68 52//68
f 46//69 58//69 59//69
f 46//70 59//70 60//70
f 46//71 60//71 61//71
f 46//72 61//72 47//72
f 47//73 61//73 48//73
f 49//74 62//74 50//74
f 50//75 62//75 63//75
f 50//76 63//76 51//76
f 51//77 63//77 55//77
f 52//78 57//78 53//78
f 53//79 57//79 54//79
f 55//80 63//80 64//80
f 55//81 64//81 56//81
f 56//82 64//82 65//82
f 58//83 66//83 67//83
f 58//84 67//84 59//84
f 59//85 67//85 68//85
f 59//86 68//86 69//86
f 62//87 70//87 68//87
f 62//88 68//88 63//88
f 63//89 68//89 64//89
f 64//90 68//90 66//90
f 64//91 66//91 65//91
f 66//92 68//92 67//92
f 68//93 70//93 69//93
