# Blender 4.4.3
# www.blender.org
o socket11mm_collision_geom_20
v -0.038444 0.010151 -0.037860
v -0.034740 0.009850 -0.037860
v -0.038444 0.010179 -0.036255
v -0.038444 0.022451 -0.037860
v -0.034740 0.010300 -0.037386
v -0.038444 0.010269 -0.035640
v -0.038444 0.010206 -0.035924
v -0.034740 0.022451 -0.037860
v -0.038444 0.022451 -0.035499
v -0.034740 0.010506 -0.037355
v -0.038444 0.010506 -0.035503
v -0.034740 0.022451 -0.037354
v -0.038444 0.011171 -0.035499
v -0.038444 0.010839 -0.035500
v -0.034740 0.010839 -0.037354
vn -0.0810 -0.9966 0.0176
vn -1.0000 -0.0000 -0.0000
vn -1.0000 -0.0001 -0.0000
vn -0.0000 -0.0000 -1.0000
vn 0.3139 -0.6887 0.6536
vn 0.0191 -0.9762 0.2162
vn -0.0532 -0.9953 0.0815
vn 1.0000 -0.0000 -0.0000
vn -0.0000 1.0000 -0.0000
vn 0.4430 -0.1342 0.8864
vn 0.3817 -0.4605 0.8014
vn 0.4477 -0.0000 0.8942
vn 0.4471 -0.0099 0.8944
vn 0.4477 -0.0019 0.8942
vn 0.4477 -0.0006 0.8942
s 0
f 1//1 2//1 3//1
f 1//2 3//2 7//2
f 1//3 7//3 6//3
f 1//2 6//2 11//2
f 1//2 11//2 14//2
f 1//2 14//2 13//2
f 1//2 13//2 9//2
f 1//2 9//2 4//2
f 1//4 4//4 8//4
f 1//4 8//4 2//4
f 2//5 5//5 6//5
f 2//6 6//6 7//6
f 2//7 7//7 3//7
f 2//8 8//8 12//8
f 2//8 12//8 15//8
f 2//8 15//8 10//8
f 2//8 10//8 5//8
f 4//9 9//9 12//9
f 4//9 12//9 8//9
f 5//10 10//10 11//10
f 5//11 11//11 6//11
f 9//12 13//12 15//12
f 9//12 15//12 12//12
f 10//13 14//13 11//13
f 10//14 15//14 14//14
f 13//15 14//15 15//15
