# Blender 4.4.3
# www.blender.org
o socket11mm_collision_geom_6
v -0.034225 0.022452 -0.025424
v -0.034755 0.022452 -0.025424
v -0.033912 0.022452 -0.025459
v -0.034045 0.036401 -0.025459
v -0.034244 0.036401 -0.025451
v -0.034576 0.036401 -0.025449
v -0.034755 0.022452 -0.028182
v -0.034755 0.036401 -0.025449
v -0.033248 0.022452 -0.025576
v -0.033248 0.036069 -0.025602
v -0.033248 0.036401 -0.025604
v -0.034055 0.036574 -0.025461
v -0.034244 0.036578 -0.025458
v -0.034576 0.036581 -0.025457
v -0.032535 0.022452 -0.028746
v -0.034755 0.027439 -0.028182
v -0.034755 0.036581 -0.025457
v -0.032916 0.022452 -0.025642
v -0.032916 0.036401 -0.025668
v -0.032665 0.036605 -0.025766
v -0.032916 0.036640 -0.025732
v -0.033248 0.036657 -0.025702
v -0.034244 0.036671 -0.025631
v -0.034576 0.036672 -0.025631
v -0.034755 0.036623 -0.025537
v -0.032535 0.027107 -0.028746
v -0.032535 0.022452 -0.026512
v -0.034755 0.027618 -0.028172
v -0.034244 0.036069 -0.027882
v -0.033912 0.035737 -0.028009
v -0.032535 0.027439 -0.028746
v -0.032573 0.022452 -0.025744
v -0.032624 0.036401 -0.025751
v -0.032535 0.036662 -0.025946
v -0.032535 0.036401 -0.025786
v -0.032916 0.036731 -0.025963
v -0.033248 0.036748 -0.025963
v -0.033580 0.036751 -0.025963
v -0.034755 0.036672 -0.025631
v -0.032571 0.022452 -0.025745
v -0.032535 0.022455 -0.025758
v -0.034755 0.027770 -0.028163
v -0.034440 0.036069 -0.027803
v -0.034426 0.036244 -0.027796
v -0.033912 0.036069 -0.027975
v -0.033580 0.036069 -0.027994
v -0.033580 0.035737 -0.028026
v -0.032535 0.027773 -0.028719
v -0.032535 0.036672 -0.025974
v -0.032535 0.036749 -0.026295
v -0.033912 0.036751 -0.025963
v -0.034755 0.036749 -0.025963
v -0.034755 0.036069 -0.027658
v -0.034755 0.036181 -0.027624
v -0.034755 0.036301 -0.027567
v -0.034244 0.036266 -0.027827
v -0.033912 0.036287 -0.027865
v -0.032535 0.036259 -0.027942
v -0.032535 0.036069 -0.028027
v -0.032535 0.036745 -0.026344
v -0.032535 0.036713 -0.026627
v -0.034755 0.036704 -0.026295
v -0.034755 0.036371 -0.027436
v -0.034244 0.036353 -0.027623
v -0.032535 0.036326 -0.027905
v -0.033580 0.036296 -0.027875
v -0.033912 0.036375 -0.027623
v -0.032916 0.036438 -0.027623
v -0.032535 0.036461 -0.027623
v -0.032535 0.036440 -0.027677
v -0.032535 0.036703 -0.026676
v -0.032584 0.036711 -0.026627
v -0.032535 0.036636 -0.026959
v -0.032535 0.036626 -0.026999
v -0.032535 0.036529 -0.027376
v -0.034755 0.036618 -0.026627
v -0.034755 0.036431 -0.027291
v -0.034576 0.036445 -0.027291
v -0.034755 0.036487 -0.027115
vn -0.0000 -1.0000 -0.0000
vn -0.0000 -1.0000 -0.0044
vn -0.0000 -1.0000 0.0001
vn -0.0000 -1.0000 -0.0001
vn 0.1103 0.0011 0.9939
vn 0.0409 0.0020 0.9992
vn 0.0059 0.0019 1.0000
vn -0.0000 0.0018 1.0000
vn -1.0000 -0.0000 -0.0000
vn 0.1741 0.0017 0.9847
vn 0.1786 0.0077 0.9839
vn 0.1786 0.0193 0.9837
vn 0.0409 0.0117 0.9991
vn 0.1763 0.0018 0.9843
vn 0.0164 0.0383 0.9991
vn 0.0059 0.0383 0.9992
vn 0.0042 0.0414 0.9991
vn -0.0000 0.0414 0.9991
vn -0.2463 -0.0000 -0.9692
vn 0.1933 0.0018 0.9811
vn 0.1877 0.0077 0.9822
vn 0.1934 0.0018 0.9811
vn 0.1873 0.0626 0.9803
vn 0.1821 0.4511 0.8737
vn 0.0937 0.8032 0.5882
vn 0.0450 0.8894 0.4550
vn 0.0269 0.8818 0.4708
vn 0.2054 0.2105 0.9558
vn 0.0093 0.8821 0.4709
vn 0.0037 0.8865 0.4626
vn 0.0003 0.8865 0.4626
vn -0.0000 0.8863 0.4632
vn 1.0000 -0.0000 -0.0000
vn 1.0000 0.0006 -0.0000
vn -0.3410 0.0528 -0.9386
vn -0.3097 0.0513 -0.9494
vn -0.2458 0.0452 -0.9683
vn -0.2461 0.0019 -0.9692
vn 0.2847 0.0016 0.9586
vn 0.2761 0.0018 0.9611
vn 0.2739 0.1255 0.9535
vn 0.1812 0.8905 0.4173
vn 0.3544 0.1397 0.9246
vn 0.6854 0.3798 0.6212
vn 0.1488 0.9200 0.3625
vn 0.0799 0.9274 0.3654
vn 0.0477 0.9431 0.3289
vn 0.0368 0.9436 0.3291
vn 0.0082 0.9685 0.2490
vn 0.0041 0.9704 0.2413
vn -0.0000 0.9733 0.2297
vn -0.0000 0.8868 0.4622
vn 0.0792 -0.9969 0.0037
vn -0.3589 0.0536 -0.9318
vn -0.3753 0.0664 -0.9245
vn -0.2631 0.1935 -0.9452
vn -0.2669 0.0977 -0.9588
vn -0.3756 0.0545 -0.9252
vn -0.0565 0.1013 -0.9933
vn -0.0516 0.0965 -0.9940
vn -0.0517 0.0799 -0.9955
vn -0.0607 0.0784 -0.9951
vn 0.3532 -0.0801 0.9321
vn 0.3486 0.0018 0.9373
vn 0.3579 0.0019 0.9338
vn 0.1535 0.9348 0.3202
vn 0.0502 0.9924 0.1121
vn 0.1548 0.9607 0.2304
vn 0.0084 0.9997 0.0224
vn -0.0000 1.0000 -0.0042
vn -0.0016 0.9742 0.2259
vn -0.4162 0.0552 -0.9076
vn -0.4158 0.0690 -0.9068
vn -0.4860 0.2571 -0.8353
vn -0.4850 0.3721 -0.7914
vn -0.1882 0.8539 -0.4851
vn -0.1999 0.3489 -0.9156
vn -0.1289 0.4459 -0.8857
vn -0.0507 0.4491 -0.8920
vn -0.0400 0.4618 -0.8861
vn -0.0290 0.4084 -0.9123
vn -0.0316 0.0965 -0.9948
vn -0.0273 0.0832 -0.9962
vn -0.0128 0.9962 -0.0861
vn -0.0017 0.9999 -0.0110
vn -0.0175 0.9935 -0.1129
vn -0.0237 0.9907 -0.1336
vn -0.1763 0.8683 -0.4636
vn -0.1094 0.9148 -0.3887
vn -0.1022 0.9156 -0.3890
vn -0.0401 0.5889 -0.8072
vn -0.0395 0.4709 -0.8813
vn -0.0633 0.9377 -0.3417
vn -0.0593 0.9379 -0.3418
vn -0.0548 0.9325 -0.3571
vn -0.0545 0.9321 -0.3581
vn -0.0384 0.8942 -0.4460
vn -0.0390 0.4795 -0.8767
vn -0.0279 0.9801 -0.1966
vn -0.0280 0.9861 -0.1636
vn -0.0342 0.9787 -0.2027
vn -0.0390 0.9722 -0.2309
vn -0.0411 0.9705 -0.2376
vn -0.0445 0.9677 -0.2481
vn -0.0468 0.9664 -0.2526
vn -0.1062 0.9187 -0.3804
vn -0.0734 0.9395 -0.3347
vn -0.0636 0.9432 -0.3261
vn -0.0598 0.9459 -0.3189
vn -0.0559 0.9524 -0.2997
vn -0.0532 0.9577 -0.2827
vn -0.0496 0.9624 -0.2671
vn -0.0485 0.9650 -0.2576
vn -0.0743 0.9503 -0.3024
s 0
f 1//1 2//1 7//1
f 1//1 7//1 15//1
f 1//1 15//1 27//1
f 1//1 27//1 40//1
f 1//2 40//2 32//2
f 1//3 32//3 18//3
f 1//4 18//4 9//4
f 1//3 9//3 3//3
f 1//5 3//5 4//5
f 1//6 4//6 5//6
f 1//7 5//7 6//7
f 1//8 6//8 8//8
f 1//8 8//8 2//8
f 2//9 8//9 17//9
f 2//9 17//9 25//9
f 2//9 25//9 39//9
f 2//9 39//9 52//9
f 2//9 52//9 62//9
f 2//9 62//9 76//9
f 2//9 76//9 79//9
f 2//9 79//9 77//9
f 2//9 77//9 63//9
f 2//9 63//9 55//9
f 2//9 55//9 54//9
f 2//9 54//9 53//9
f 2//9 53//9 42//9
f 2//9 42//9 28//9
f 2//9 28//9 16//9
f 2//9 16//9 7//9
f 3//10 9//10 4//10
f 4//11 10//11 11//11
f 4//12 11//12 12//12
f 4//13 12//13 5//13
f 4//14 9//14 10//14
f 5//15 12//15 13//15
f 5//16 13//16 6//16
f 6//17 13//17 14//17
f 6//18 14//18 17//18
f 6//18 17//18 8//18
f 7//19 16//19 26//19
f 7//19 26//19 15//19
f 9//20 18//20 10//20
f 10//21 19//21 11//21
f 10//22 18//22 19//22
f 11//23 19//23 12//23
f 12//24 20//24 21//24
f 12//25 21//25 22//25
f 12//26 22//26 23//26
f 12//27 23//27 13//27
f 12//28 19//28 20//28
f 13//29 23//29 14//29
f 14//30 23//30 24//30
f 14//31 24//31 25//31
f 14//32 25//32 17//32
f 15//33 26//33 31//33
f 15//33 31//33 48//33
f 15//33 48//33 59//33
f 15//33 59//33 58//33
f 15//33 58//33 65//33
f 15//33 65//33 70//33
f 15//33 70//33 69//33
f 15//33 69//33 75//33
f 15//33 75//33 74//33
f 15//33 74//33 73//33
f 15//33 73//33 71//33
f 15//33 71//33 61//33
f 15//33 61//33 60//33
f 15//33 60//33 50//33
f 15//33 50//33 49//33
f 15//33 49//33 34//33
f 15//33 34//33 35//33
f 15//33 35//33 41//33
f 15//34 41//34 27//34
f 16//35 28//35 29//35
f 16//36 29//36 30//36
f 16//37 30//37 31//37
f 16//38 31//38 26//38
f 18//39 32//39 33//39
f 18//40 33//40 19//40
f 19//41 33//41 20//41
f 20//42 34//42 21//42
f 20//43 33//43 35//43
f 20//44 35//44 34//44
f 21//45 34//45 36//45
f 21//46 36//46 22//46
f 22//47 36//47 37//47
f 22//48 37//48 23//48
f 23//49 37//49 38//49
f 23//50 38//50 24//50
f 24//51 38//51 51//51
f 24//51 51//51 39//51
f 24//52 39//52 25//52
f 27//53 41//53 40//53
f 28//54 42//54 29//54
f 29//55 43//55 44//55
f 29//56 44//56 45//56
f 29//57 45//57 30//57
f 29//58 42//58 43//58
f 30//59 45//59 46//59
f 30//60 46//60 47//60
f 30//61 47//61 48//61
f 30//62 48//62 31//62
f 32//63 40//63 41//63
f 32//64 41//64 33//64
f 33//65 41//65 35//65
f 34//66 49//66 36//66
f 36//67 50//67 37//67
f 36//68 49//68 50//68
f 37//69 50//69 38//69
f 38//70 50//70 51//70
f 39//71 51//71 52//71
f 42//72 53//72 43//72
f 43//73 53//73 44//73
f 44//74 53//74 54//74
f 44//75 54//75 55//75
f 44//76 55//76 56//76
f 44//77 56//77 45//77
f 45//78 56//78 57//78
f 45//79 57//79 46//79
f 46//80 57//80 58//80
f 46//81 58//81 59//81
f 46//82 59//82 47//82
f 47//83 59//83 48//83
f 50//84 60//84 52//84
f 50//85 52//85 51//85
f 52//86 60//86 61//86
f 52//87 61//87 62//87
f 55//88 63//88 56//88
f 56//89 63//89 64//89
f 56//90 64//90 57//90
f 57//91 65//91 66//91
f 57//92 66//92 58//92
f 57//93 64//93 67//93
f 57//94 67//94 68//94
f 57//95 68//95 69//95
f 57//96 69//96 70//96
f 57//97 70//97 65//97
f 58//98 66//98 65//98
f 61//99 71//99 72//99
f 61//100 72//100 62//100
f 62//101 72//101 71//101
f 62//102 71//102 73//102
f 62//103 73//103 74//103
f 62//104 74//104 75//104
f 62//105 75//105 76//105
f 63//106 77//106 64//106
f 64//107 77//107 78//107
f 64//108 78//108 67//108
f 67//109 78//109 68//109
f 68//110 78//110 69//110
f 69//111 78//111 79//111
f 69//112 79//112 75//112
f 75//113 79//113 76//113
f 77//114 79//114 78//114
