# Blender 4.4.3
# www.blender.org
o socket8mm_collision_geom_12
v -0.092611 0.010065 -0.032767
v -0.092611 0.010107 -0.035330
v -0.092551 0.004530 -0.032767
v -0.092611 0.022840 -0.032767
v -0.092611 0.010109 -0.035400
v -0.092549 0.004366 -0.032767
v -0.091534 0.022840 -0.032767
v -0.092611 0.022840 -0.035400
v -0.092320 0.004199 -0.035400
v -0.092339 0.004003 -0.035141
v -0.092507 0.004199 -0.033267
v -0.092533 0.004199 -0.032935
v -0.092544 0.004199 -0.032767
v -0.091534 0.022840 -0.032935
v -0.087999 0.019998 -0.032767
v -0.092127 0.022840 -0.035400
v -0.092315 0.004109 -0.035400
v -0.092294 0.003876 -0.035400
v -0.092348 0.003970 -0.034927
v -0.092363 0.003947 -0.034595
v -0.092494 0.004068 -0.032767
v -0.087999 0.019998 -0.033267
v -0.091546 0.022840 -0.033267
v -0.087978 0.019802 -0.032767
v -0.092077 0.022840 -0.035302
v -0.088335 0.019988 -0.035400
v -0.092420 0.003939 -0.033267
v -0.092377 0.003945 -0.034263
v -0.092229 0.003766 -0.035400
v -0.092282 0.003805 -0.034927
v -0.092431 0.003937 -0.032935
v -0.092436 0.003937 -0.032767
v -0.087978 0.019802 -0.033267
v -0.088005 0.019988 -0.033599
v -0.091587 0.022840 -0.033595
v -0.087978 0.003535 -0.032767
v -0.092062 0.022840 -0.035271
v -0.088316 0.020012 -0.035259
v -0.088014 0.019975 -0.033793
v -0.088209 0.019802 -0.034927
v -0.088327 0.019935 -0.035400
v -0.091938 0.022840 -0.034948
v -0.091821 0.022840 -0.034631
v -0.091808 0.022840 -0.034595
v -0.092132 0.003630 -0.035400
v -0.092169 0.003791 -0.032767
v -0.087978 0.003535 -0.033267
v -0.087991 0.019802 -0.033599
v -0.091643 0.022840 -0.033907
v -0.088280 0.020046 -0.034927
v -0.087988 0.003435 -0.032767
v -0.091732 0.022840 -0.034335
v -0.091718 0.022840 -0.034289
v -0.088012 0.019802 -0.033806
v -0.088281 0.019802 -0.035259
v -0.088041 0.019469 -0.033973
v -0.088209 0.003535 -0.034927
v -0.088321 0.019802 -0.035400
v -0.091836 0.003508 -0.035400
v -0.091947 0.003718 -0.032767
v -0.087999 0.003337 -0.033267
v -0.088005 0.003347 -0.033599
v -0.087991 0.003535 -0.033599
v -0.087999 0.003337 -0.032767
v -0.088012 0.003535 -0.033806
v -0.088281 0.003535 -0.035259
v -0.088041 0.003866 -0.033973
v -0.088014 0.003360 -0.033793
v -0.088335 0.003347 -0.035400
v -0.088321 0.003535 -0.035400
v -0.091625 0.003443 -0.035400
v -0.090509 0.003256 -0.032767
v -0.090639 0.003297 -0.032767
v -0.088185 0.003247 -0.033267
v -0.088185 0.003256 -0.033599
v -0.088255 0.003279 -0.034595
v -0.088280 0.003291 -0.034927
v -0.088185 0.003247 -0.032767
v -0.088316 0.003324 -0.035259
v -0.088401 0.003308 -0.035400
v -0.091184 0.003312 -0.035400
v -0.090982 0.003254 -0.035400
v -0.090841 0.003222 -0.035400
v -0.090341 0.003224 -0.032767
v -0.088350 0.003216 -0.032767
v -0.088517 0.003185 -0.034263
v -0.088517 0.003187 -0.034595
v -0.088517 0.003199 -0.034927
v -0.088517 0.003233 -0.035259
v -0.088512 0.003258 -0.035400
v -0.090650 0.003199 -0.035400
v -0.090177 0.003195 -0.032767
v -0.088517 0.003185 -0.032767
v -0.088849 0.003185 -0.035400
v -0.088658 0.003214 -0.035400
v -0.090509 0.003187 -0.035400
v -0.090509 0.003187 -0.035259
v -0.090177 0.003193 -0.032935
v -0.090009 0.003189 -0.032767
v -0.089845 0.003185 -0.032767
v -0.090318 0.003185 -0.035400
v -0.090177 0.003185 -0.034595
vn -0.9999 -0.0108 -0.0002
vn 0.0398 -0.0000 0.9992
vn -0.0005 -0.0000 1.0000
vn -0.0000 -0.0000 1.0000
vn -0.0001 -0.0000 1.0000
vn 0.0001 -0.0000 1.0000
vn -1.0000 -0.0000 -0.0000
vn -1.0000 -0.0061 -0.0000
vn -0.9999 -0.0109 -0.0003
vn -0.9999 -0.0111 -0.0008
vn -0.0000 1.0000 -0.0000
vn -0.9928 -0.0488 -0.1097
vn -0.9953 -0.0479 -0.0844
vn -0.9961 -0.0449 -0.0762
vn -0.9969 -0.0413 -0.0674
vn -0.9987 -0.0297 -0.0415
vn -0.0000 -0.0000 -1.0000
vn -0.0001 -0.0000 -1.0000
vn -0.0004 -0.0000 -1.0000
vn 0.0095 -0.0000 -1.0000
vn 0.6264 0.7795 -0.0000
vn -0.9926 -0.0498 -0.1105
vn -0.9878 -0.0904 -0.1265
vn -0.9779 -0.1955 -0.0735
vn -0.9820 -0.1754 -0.0706
vn -0.9892 -0.1257 -0.0757
vn -0.9755 -0.2099 -0.0659
vn -0.9655 -0.2533 -0.0605
vn -0.9634 -0.2614 -0.0594
vn -0.9335 -0.3559 -0.0433
vn 0.6251 0.7803 -0.0214
vn 0.9944 0.1057 -0.0000
vn 0.5755 0.7653 -0.2882
vn -0.9107 -0.4109 -0.0418
vn -0.9129 -0.4060 -0.0422
vn -0.8579 -0.5108 -0.0555
vn -0.9051 -0.4233 -0.0411
vn -0.9311 -0.3623 -0.0428
vn -0.9298 -0.3657 -0.0423
vn -0.9171 -0.3973 -0.0324
vn -0.9138 -0.4055 -0.0247
vn 0.9942 0.1057 -0.0221
vn 0.6248 0.7800 -0.0346
vn 0.6209 0.7801 -0.0773
vn 1.0000 -0.0000 -0.0000
vn 0.5773 0.7672 -0.2793
vn 0.9195 0.3491 -0.1807
vn 0.9671 0.1669 -0.1917
vn 0.9681 0.1550 -0.1968
vn 0.5868 0.7773 -0.2268
vn 0.5892 0.7786 -0.2158
vn 0.5895 0.7787 -0.2148
vn 0.5917 0.7792 -0.2068
vn -0.8643 -0.5020 -0.0313
vn -0.8156 -0.5768 -0.0453
vn -0.7817 -0.6234 -0.0173
vn -0.8116 -0.5837 -0.0219
vn -0.4796 -0.8762 0.0471
vn 0.9992 -0.0000 -0.0410
vn 0.9965 0.0726 -0.0409
vn 0.9960 0.0725 -0.0518
vn 0.6206 0.7797 -0.0833
vn 0.6194 0.7791 -0.0965
vn 0.6150 0.7807 -0.1108
vn 0.9946 -0.1037 -0.0000
vn 0.7880 0.5977 -0.1474
vn 0.5989 0.7810 -0.1769
vn 0.5992 0.7811 -0.1757
vn 0.6072 0.7808 -0.1470
vn 0.9950 0.0208 -0.0979
vn 0.9845 0.0267 -0.1733
vn 0.9716 0.1071 -0.2110
vn 0.9849 0.0007 -0.1734
vn 0.9848 -0.0000 -0.1736
vn 0.9772 -0.0000 -0.2122
vn 0.9624 0.0427 -0.2684
vn -0.3788 -0.9240 0.0514
vn -0.3119 -0.9481 0.0625
vn 0.9945 -0.1047 -0.0002
vn 0.9943 -0.1046 -0.0220
vn 0.9966 -0.0718 -0.0409
vn 0.9952 -0.0000 -0.0979
vn 0.6124 0.7812 -0.1207
vn 0.9944 -0.1057 -0.0000
vn 0.9851 -0.0000 -0.1721
vn 0.9632 -0.0000 -0.2687
vn 0.9849 -0.0007 -0.1734
vn 0.9845 -0.0264 -0.1733
vn 0.9674 -0.1653 -0.1918
vn 0.9702 -0.1197 -0.2107
vn -0.2952 -0.9537 0.0576
vn -0.2960 -0.9534 0.0580
vn -0.3060 -0.9499 0.0629
vn 0.4363 -0.8994 -0.0260
vn 0.4486 -0.8931 -0.0344
vn 0.4365 -0.8997 -0.0000
vn 0.9961 -0.0718 -0.0517
vn 0.4482 -0.8924 -0.0521
vn 0.5050 -0.8604 -0.0685
vn 0.5693 -0.8179 -0.0836
vn 0.9950 -0.0205 -0.0979
vn 0.9606 -0.0739 -0.2679
vn 0.7749 -0.6154 -0.1443
vn 0.9195 -0.3491 -0.1807
vn 0.4918 -0.8464 -0.2043
vn -0.2841 -0.9573 0.0526
vn -0.2741 -0.9604 0.0500
vn -0.2250 -0.9735 0.0412
vn -0.1912 -0.9809 0.0370
vn 0.1839 -0.9830 -0.0000
vn 0.1831 -0.9831 -0.0003
vn 0.1988 -0.9800 -0.0057
vn 0.2833 -0.9586 -0.0278
vn 0.2985 -0.9538 -0.0332
vn 0.3471 -0.9367 -0.0461
vn 0.3628 -0.9299 -0.0601
vn 0.3617 -0.9272 -0.0967
vn 0.4068 -0.9038 -0.1330
vn 0.4061 -0.9022 -0.1452
vn 0.4074 -0.9013 -0.1475
vn -0.1201 -0.9926 0.0201
vn -0.1735 -0.9843 0.0336
vn 0.1809 -0.9835 -0.0000
vn 0.0199 -0.9998 -0.0058
vn -0.0000 -1.0000 -0.0000
vn 0.0897 -0.9954 -0.0346
vn 0.2325 -0.9674 -0.1009
vn 0.1494 -0.9858 -0.0767
vn 0.2856 -0.9454 -0.1570
vn -0.0815 -0.9967 -0.0000
vn -0.0975 -0.9951 0.0160
vn -0.0344 -0.9993 0.0115
vn -0.0629 -0.9980 0.0115
vn -0.0101 -0.9999 -0.0000
vn -0.0296 -0.9995 0.0067
vn -0.0089 -1.0000 0.0016
vn -0.0091 -1.0000 0.0017
vn -0.0235 -0.9997 0.0055
s 0
f 1//1 2//1 3//1
f 1//2 3//2 6//2
f 1//3 6//3 13//3
f 1//4 13//4 21//4
f 1//4 21//4 32//4
f 1//4 32//4 46//4
f 1//4 46//4 60//4
f 1//4 60//4 73//4
f 1//4 73//4 72//4
f 1//4 72//4 84//4
f 1//4 84//4 92//4
f 1//4 92//4 99//4
f 1//4 99//4 100//4
f 1//4 100//4 93//4
f 1//4 93//4 85//4
f 1//4 85//4 78//4
f 1//4 78//4 64//4
f 1//5 64//5 51//5
f 1//6 51//6 36//6
f 1//4 36//4 24//4
f 1//4 24//4 15//4
f 1//4 15//4 7//4
f 1//4 7//4 4//4
f 1//7 4//7 8//7
f 1//7 8//7 5//7
f 1//8 5//8 2//8
f 2//9 5//9 3//9
f 3//10 5//10 6//10
f 4//11 7//11 14//11
f 4//11 14//11 23//11
f 4//11 23//11 35//11
f 4//11 35//11 49//11
f 4//11 49//11 53//11
f 4//11 53//11 52//11
f 4//11 52//11 44//11
f 4//11 44//11 43//11
f 4//11 43//11 42//11
f 4//11 42//11 37//11
f 4//11 37//11 25//11
f 4//11 25//11 16//11
f 4//11 16//11 8//11
f 5//12 9//12 10//12
f 5//13 10//13 11//13
f 5//14 11//14 12//14
f 5//15 12//15 13//15
f 5//16 13//16 6//16
f 5//17 8//17 16//17
f 5//17 16//17 26//17
f 5//17 26//17 41//17
f 5//17 41//17 58//17
f 5//17 58//17 70//17
f 5//17 70//17 69//17
f 5//17 69//17 80//17
f 5//17 80//17 90//17
f 5//17 90//17 95//17
f 5//17 95//17 94//17
f 5//17 94//17 101//17
f 5//17 101//17 96//17
f 5//18 96//18 91//18
f 5//17 91//17 83//17
f 5//17 83//17 82//17
f 5//17 82//17 81//17
f 5//17 81//17 71//17
f 5//17 71//17 59//17
f 5//17 59//17 45//17
f 5//17 45//17 29//17
f 5//17 29//17 18//17
f 5//19 18//19 17//19
f 5//20 17//20 9//20
f 7//21 15//21 22//21
f 7//21 22//21 14//21
f 9//22 17//22 10//22
f 10//23 17//23 18//23
f 10//24 18//24 19//24
f 10//25 19//25 12//25
f 10//26 12//26 11//26
f 12//27 19//27 13//27
f 13//28 19//28 18//28
f 13//29 18//29 20//29
f 13//30 20//30 21//30
f 14//31 22//31 23//31
f 15//32 24//32 33//32
f 15//32 33//32 22//32
f 16//33 25//33 26//33
f 18//34 27//34 28//34
f 18//35 28//35 20//35
f 18//36 29//36 30//36
f 18//37 30//37 27//37
f 20//38 28//38 21//38
f 21//39 28//39 27//39
f 21//40 27//40 31//40
f 21//41 31//41 32//41
f 22//42 33//42 34//42
f 22//43 34//43 23//43
f 23//44 34//44 35//44
f 24//45 36//45 47//45
f 24//45 47//45 33//45
f 25//46 37//46 26//46
f 26//47 38//47 39//47
f 26//48 39//48 40//48
f 26//49 40//49 41//49
f 26//50 37//50 42//50
f 26//51 42//51 43//51
f 26//52 43//52 44//52
f 26//53 44//53 38//53
f 27//54 30//54 31//54
f 29//55 45//55 30//55
f 30//56 45//56 32//56
f 30//57 32//57 31//57
f 32//58 45//58 46//58
f 33//59 47//59 63//59
f 33//59 63//59 48//59
f 33//60 48//60 34//60
f 34//61 48//61 39//61
f 34//62 39//62 35//62
f 35//63 39//63 50//63
f 35//64 50//64 49//64
f 36//65 51//65 47//65
f 38//66 50//66 39//66
f 38//67 44//67 52//67
f 38//68 52//68 53//68
f 38//69 53//69 50//69
f 39//70 48//70 54//70
f 39//71 54//71 40//71
f 40//72 55//72 41//72
f 40//73 54//73 56//73
f 40//74 56//74 67//74
f 40//74 67//74 57//74
f 40//75 57//75 66//75
f 40//75 66//75 55//75
f 41//76 55//76 58//76
f 45//77 59//77 46//77
f 46//78 59//78 60//78
f 47//79 51//79 61//79
f 47//80 61//80 62//80
f 47//81 62//81 63//81
f 48//82 63//82 65//82
f 48//82 65//82 54//82
f 49//83 50//83 53//83
f 51//84 64//84 61//84
f 54//85 65//85 67//85
f 54//85 67//85 56//85
f 55//86 66//86 70//86
f 55//86 70//86 58//86
f 57//87 67//87 65//87
f 57//88 65//88 68//88
f 57//89 68//89 69//89
f 57//90 69//90 66//90
f 59//91 71//91 72//91
f 59//92 72//92 73//92
f 59//93 73//93 60//93
f 61//94 74//94 75//94
f 61//95 75//95 62//95
f 61//96 64//96 78//96
f 61//96 78//96 74//96
f 62//97 68//97 63//97
f 62//98 75//98 76//98
f 62//99 76//99 77//99
f 62//100 77//100 68//100
f 63//101 68//101 65//101
f 66//102 69//102 70//102
f 68//103 77//103 79//103
f 68//104 79//104 69//104
f 69//105 79//105 80//105
f 71//106 81//106 72//106
f 72//107 81//107 82//107
f 72//108 82//108 83//108
f 72//109 83//109 84//109
f 74//110 78//110 85//110
f 74//111 85//111 86//111
f 74//112 86//112 87//112
f 74//113 87//113 75//113
f 75//114 87//114 88//114
f 75//115 88//115 76//115
f 76//116 88//116 77//116
f 77//117 88//117 89//117
f 77//118 89//118 79//118
f 79//119 89//119 90//119
f 79//120 90//120 80//120
f 83//121 91//121 92//121
f 83//122 92//122 84//122
f 85//123 93//123 86//123
f 86//124 94//124 87//124
f 86//125 93//125 100//125
f 86//125 100//125 102//125
f 86//125 102//125 101//125
f 86//125 101//125 94//125
f 87//126 94//126 88//126
f 88//127 95//127 89//127
f 88//128 94//128 95//128
f 89//129 95//129 90//129
f 91//130 96//130 97//130
f 91//131 97//131 92//131
f 92//132 98//132 99//132
f 92//133 97//133 98//133
f 96//134 101//134 97//134
f 97//135 99//135 98//135
f 97//136 101//136 102//136
f 97//137 102//137 100//137
f 97//138 100//138 99//138
