# Blender 4.4.3
# www.blender.org
o socket11mm_collision_geom_30
v -0.038560 0.003185 -0.041234
v -0.039224 0.003189 -0.040903
v -0.038892 0.003217 -0.041234
v -0.038444 0.003273 -0.041558
v -0.038444 0.003185 -0.041234
v -0.040220 0.003185 -0.040238
v -0.039888 0.003196 -0.040571
v -0.040230 0.003268 -0.040587
v -0.039888 0.003288 -0.040848
v -0.039205 0.003287 -0.041238
v -0.038892 0.003309 -0.041461
v -0.038560 0.003277 -0.041532
v -0.038444 0.003534 -0.041709
v -0.038444 0.003185 -0.039575
v -0.040552 0.003185 -0.039907
v -0.041216 0.003209 -0.039575
v -0.040884 0.003224 -0.039907
v -0.040485 0.003307 -0.040487
v -0.040126 0.003322 -0.040780
v -0.039495 0.003311 -0.041129
v -0.039082 0.003350 -0.041414
v -0.038560 0.003534 -0.041667
v -0.038444 0.003643 -0.041710
v -0.038444 0.003198 -0.039242
v -0.042211 0.003195 -0.033350
v -0.042544 0.003185 -0.033350
v -0.041880 0.003185 -0.038579
v -0.041533 0.003297 -0.039560
v -0.041548 0.003209 -0.039242
v -0.041189 0.003308 -0.039889
v -0.041413 0.003339 -0.039767
v -0.041060 0.003358 -0.040081
v -0.040161 0.003534 -0.040801
v -0.040327 0.003534 -0.040695
v -0.039094 0.003534 -0.041421
v -0.038892 0.003534 -0.041523
v -0.039888 0.003534 -0.040961
v -0.039713 0.003534 -0.041063
v -0.039547 0.003534 -0.041159
v -0.038560 0.003866 -0.041668
v -0.038444 0.003866 -0.041711
v -0.038444 0.003248 -0.038911
v -0.041880 0.003258 -0.033350
v -0.043872 0.003185 -0.033350
v -0.042211 0.003185 -0.038246
v -0.041880 0.003224 -0.038911
v -0.041862 0.003308 -0.039215
v -0.041740 0.003339 -0.039440
v -0.042544 0.003196 -0.037915
v -0.041594 0.003534 -0.039621
v -0.041428 0.003534 -0.039780
v -0.041231 0.003534 -0.039946
v -0.041065 0.003534 -0.040085
v -0.040535 0.003534 -0.040529
v -0.040327 0.003866 -0.040696
v -0.040161 0.009509 -0.040801
v -0.039888 0.003866 -0.040963
v -0.040535 0.003866 -0.040530
v -0.039094 0.009509 -0.041421
v -0.038892 0.003866 -0.041525
v -0.038560 0.009509 -0.041668
v -0.038444 0.009509 -0.041711
v -0.038444 0.003329 -0.038593
v -0.040220 0.003786 -0.033350
v -0.040436 0.003716 -0.033350
v -0.040561 0.003676 -0.033350
v -0.041622 0.003339 -0.033350
v -0.044204 0.003248 -0.033350
v -0.043872 0.003185 -0.034264
v -0.043208 0.003185 -0.036587
v -0.042876 0.003189 -0.037251
v -0.042560 0.003268 -0.038256
v -0.042460 0.003307 -0.038511
v -0.042054 0.003358 -0.039087
v -0.041753 0.003534 -0.039455
v -0.043208 0.003217 -0.036920
v -0.041594 0.009509 -0.039621
v -0.041428 0.009509 -0.039780
v -0.041231 0.009509 -0.039946
v -0.040884 0.003866 -0.040238
v -0.041065 0.009509 -0.040085
v -0.040327 0.009509 -0.040696
v -0.039888 0.009509 -0.040963
v -0.040535 0.009509 -0.040530
v -0.038892 0.009509 -0.041525
v -0.038444 0.009509 -0.038188
v -0.038444 0.003344 -0.038539
v -0.039932 0.003935 -0.033350
v -0.044389 0.003339 -0.033350
v -0.044204 0.003255 -0.033599
v -0.043872 0.003187 -0.034595
v -0.043539 0.003185 -0.035591
v -0.043539 0.003197 -0.035924
v -0.042821 0.003288 -0.037915
v -0.042753 0.003322 -0.038152
v -0.042058 0.003534 -0.039092
v -0.041919 0.003534 -0.039258
v -0.042668 0.003534 -0.038353
v -0.042502 0.003534 -0.038561
v -0.041753 0.009509 -0.039455
v -0.043506 0.003277 -0.036587
v -0.043435 0.003308 -0.036920
v -0.043211 0.003286 -0.037233
v -0.040884 0.009509 -0.040238
v -0.038444 0.003866 -0.038188
v -0.039788 0.009509 -0.033350
v -0.038444 0.003368 -0.038451
v -0.039896 0.004002 -0.033350
v -0.038444 0.003375 -0.038432
v -0.044404 0.003487 -0.033350
v -0.044383 0.003346 -0.033599
v -0.044134 0.003279 -0.034595
v -0.043872 0.003198 -0.034928
v -0.043872 0.003232 -0.035260
v -0.043791 0.003288 -0.035924
v -0.043102 0.003311 -0.037523
v -0.042775 0.003534 -0.038187
v -0.043388 0.003349 -0.037109
v -0.042210 0.003866 -0.038911
v -0.042058 0.009509 -0.039092
v -0.042503 0.003866 -0.038561
v -0.041919 0.009509 -0.039258
v -0.042668 0.003866 -0.038353
v -0.043745 0.003322 -0.036198
v -0.038444 0.003622 -0.038268
v -0.039788 0.004530 -0.033350
v -0.039799 0.004198 -0.033350
v -0.044408 0.009509 -0.033350
v -0.038444 0.003523 -0.038308
v -0.044408 0.003534 -0.033350
v -0.044398 0.003534 -0.033599
v -0.044375 0.003360 -0.033794
v -0.044109 0.003290 -0.034928
v -0.044073 0.003323 -0.035260
v -0.042935 0.003534 -0.037915
v -0.042936 0.003866 -0.037915
v -0.042775 0.009509 -0.038187
v -0.043641 0.003534 -0.036587
v -0.043498 0.003534 -0.036920
v -0.043395 0.003534 -0.037122
v -0.043299 0.003534 -0.037288
v -0.043133 0.003534 -0.037574
v -0.042210 0.009509 -0.038911
v -0.042503 0.009509 -0.038561
v -0.042668 0.009509 -0.038353
v -0.044047 0.003355 -0.035450
v -0.044398 0.009509 -0.033598
v -0.044377 0.003534 -0.033808
v -0.044180 0.003534 -0.034928
v -0.042936 0.009509 -0.037915
v -0.043037 0.003866 -0.037740
v -0.043704 0.003534 -0.036418
v -0.043643 0.003866 -0.036587
v -0.043499 0.003866 -0.036920
v -0.043395 0.009509 -0.037122
v -0.043299 0.009509 -0.037288
v -0.044108 0.003534 -0.035260
v -0.044051 0.003534 -0.035464
v -0.043765 0.003534 -0.036252
v -0.044377 0.009509 -0.033808
v -0.044348 0.003866 -0.033974
v -0.044180 0.009509 -0.034928
v -0.043037 0.009509 -0.037740
v -0.043705 0.003866 -0.036418
v -0.043643 0.009509 -0.036587
v -0.043499 0.009509 -0.036920
v -0.044108 0.009509 -0.035260
v -0.044051 0.009509 -0.035464
v -0.044348 0.009509 -0.033974
v -0.043705 0.009509 -0.036418
vn -0.0949 -0.9792 -0.1792
vn -0.0923 -0.9520 -0.2918
vn -0.0000 -0.9650 -0.2624
vn -0.0000 -1.0000 -0.0000
vn -0.0332 -0.9979 -0.0553
vn -0.0557 -0.9945 -0.0890
vn -0.1061 -0.9760 -0.1902
vn -0.1808 -0.9364 -0.3009
vn -0.1905 -0.9275 -0.3218
vn -0.1995 -0.9165 -0.3468
vn -0.1976 -0.9089 -0.3673
vn -0.1677 -0.9140 -0.3694
vn -0.0956 -0.9503 -0.2961
vn -0.2018 -0.4912 -0.8474
vn 1.0000 -0.0000 -0.0000
vn 1.0000 0.0001 -0.0000
vn 1.0000 0.0003 -0.0000
vn 1.0000 -0.0001 -0.0000
vn -0.0726 -0.9947 -0.0727
vn -0.1363 -0.9762 -0.1689
vn -0.1618 -0.9657 -0.2031
vn -0.1869 -0.9522 -0.2414
vn -0.2635 -0.9127 -0.3125
vn -0.2914 -0.8682 -0.4016
vn -0.2367 -0.8944 -0.3796
vn -0.2445 -0.8759 -0.4161
vn -0.2215 -0.8957 -0.3856
vn -0.2294 -0.8831 -0.4093
vn -0.2968 -0.3762 -0.8777
vn -0.2281 -0.4794 -0.8474
vn -0.3022 -0.7842 -0.5420
vn -0.3455 -0.0071 -0.9384
vn -0.3305 -0.2917 -0.8976
vn 0.0588 -0.9976 0.0372
vn 0.0298 -0.9994 0.0196
vn -0.0724 -0.9947 -0.0723
vn -0.2676 -0.9135 -0.3066
vn -0.0727 -0.9947 -0.0726
vn -0.2690 -0.9250 -0.2684
vn -0.2696 -0.9114 -0.3109
vn -0.2695 -0.9096 -0.3162
vn -0.3341 -0.8570 -0.3923
vn -0.4468 -0.7102 -0.5441
vn -0.5129 -0.5521 -0.6574
vn -0.5085 -0.1699 -0.8442
vn -0.3341 -0.7411 -0.5823
vn -0.5864 -0.2470 -0.7714
vn -0.5320 -0.1723 -0.8290
vn -0.4521 -0.0602 -0.8899
vn -0.3925 -0.1334 -0.9100
vn -0.5027 -0.0818 -0.8606
vn -0.5014 -0.0716 -0.8623
vn -0.5009 -0.0689 -0.8628
vn -0.4991 -0.0622 -0.8643
vn -0.3476 -0.0046 -0.9376
vn -0.3960 -0.0045 -0.9182
vn -0.3959 -0.0045 -0.9183
vn -0.3456 -0.0034 -0.9384
vn 0.2356 -0.9607 0.1471
vn 0.1840 -0.9759 0.1172
vn -0.0000 -0.0000 1.0000
vn -0.0002 -0.0000 1.0000
vn -0.3208 -0.8747 -0.3632
vn -0.3057 -0.9139 -0.2670
vn -0.3115 -0.9111 -0.2699
vn -0.3657 -0.8729 -0.3228
vn -0.4004 -0.8249 -0.3991
vn -0.1683 -0.9763 -0.1358
vn -0.2023 -0.9660 -0.1612
vn -0.6870 -0.0998 -0.7198
vn -0.6586 -0.0994 -0.7459
vn -0.7024 -0.1288 -0.7001
vn -0.6447 -0.0406 -0.7634
vn -0.6424 -0.0369 -0.7655
vn -0.6409 -0.0369 -0.7667
vn -0.6198 -0.1216 -0.7752
vn -0.5401 -0.0021 -0.8416
vn -0.5372 -0.0000 -0.8435
vn -0.5371 -0.0000 -0.8435
vn -0.5083 -0.0000 -0.8612
vn -0.5044 -0.0043 -0.8635
vn -0.6245 -0.0030 -0.7811
vn -0.6234 -0.0019 -0.7819
vn -0.4587 -0.0000 -0.8886
vn -0.4586 -0.0000 -0.8886
vn -0.4529 -0.0044 -0.8916
vn -0.5000 -0.0011 -0.8660
vn -0.4997 -0.0000 -0.8662
vn -0.5027 -0.0043 -0.8645
vn -0.5021 -0.0038 -0.8648
vn -0.3960 -0.0000 -0.9183
vn -0.3456 -0.0000 -0.9384
vn 0.4298 -0.8753 0.2218
vn 0.3027 -0.9346 0.1869
vn 0.2983 -0.9363 0.1855
vn 0.2977 -0.9365 0.1853
vn 0.2947 -0.9378 0.1836
vn -0.1850 -0.9827 -0.0000
vn -0.0558 -0.9979 -0.0335
vn -0.0888 -0.9945 -0.0556
vn -0.3131 -0.9123 -0.2639
vn -0.3166 -0.9094 -0.2697
vn -0.2416 -0.9522 -0.1870
vn -0.3952 -0.8548 -0.3364
vn -0.5436 -0.7107 -0.4466
vn -0.7455 -0.1039 -0.6583
vn -0.7190 -0.1043 -0.6871
vn -0.1889 -0.9763 -0.1055
vn -0.3007 -0.9364 -0.1809
vn -0.7229 -0.0000 -0.6909
vn -0.6904 -0.0000 -0.7234
vn -0.6452 -0.0000 -0.7640
vn -0.6429 -0.0000 -0.7660
vn -0.6425 -0.0000 -0.7663
vn -0.6414 -0.0030 -0.7672
vn -0.6234 -0.0000 -0.7819
vn -0.0000 1.0000 0.0001
vn -0.0000 1.0000 -0.0000
vn -0.0000 1.0000 -0.0001
vn 0.4763 -0.8478 0.2333
vn 0.4496 -0.8638 0.2275
vn -0.4435 -0.8959 -0.0266
vn -0.2821 -0.9589 -0.0285
vn -0.1995 -0.9799 -0.0055
vn -0.0224 -0.9997 -0.0056
vn -0.1057 -0.9938 -0.0352
vn -0.2226 -0.9704 -0.0940
vn -0.1786 -0.9793 -0.0949
vn -0.3209 -0.9278 -0.1904
vn -0.3798 -0.8940 -0.2376
vn -0.4016 -0.8681 -0.2917
vn -0.6561 -0.5543 -0.5122
vn -0.7653 -0.0381 -0.6426
vn -0.7649 -0.0387 -0.6429
vn -0.7714 -0.2466 -0.5866
vn -0.7753 -0.1287 -0.6183
vn -0.7664 -0.0381 -0.6412
vn -0.7655 -0.0000 -0.6434
vn -0.3301 -0.9351 -0.1291
vn -0.3669 -0.9154 -0.1656
vn -0.3648 -0.9102 -0.1961
vn -0.3426 -0.9184 -0.1981
vn 0.9636 -0.0000 0.2675
vn 0.4871 -0.8410 0.2356
vn 0.5786 -0.7747 0.2549
vn 0.8399 -0.4548 0.2961
vn -0.9945 -0.1020 -0.0237
vn -0.4513 -0.8917 -0.0338
vn -0.4510 -0.8910 -0.0525
vn -0.3456 -0.9372 -0.0462
vn -0.2921 -0.9559 -0.0321
vn -0.1055 -0.9939 -0.0333
vn -0.1091 -0.9934 -0.0352
vn -0.2955 -0.9504 -0.0974
vn -0.3377 -0.9337 -0.1193
vn -0.3373 -0.9325 -0.1291
vn -0.3867 -0.8947 -0.2233
vn -0.4158 -0.8757 -0.2453
vn -0.8285 -0.1726 -0.5327
vn -0.5857 -0.7371 -0.3372
vn -0.8438 -0.1702 -0.5090
vn -0.7660 -0.0000 -0.6428
vn -0.7658 -0.0000 -0.6430
vn -0.7670 -0.0013 -0.6416
vn -0.7669 -0.0009 -0.6418
vn -0.7818 -0.0014 -0.6235
vn -0.8411 -0.0015 -0.5408
vn -0.4539 -0.8727 -0.1802
vn -0.5433 -0.7827 -0.3037
vn -0.4111 -0.8818 -0.2313
vn -0.4719 -0.8617 -0.1864
vn -0.7525 -0.5799 -0.3122
vn 0.9618 -0.0338 0.2716
vn 0.9574 -0.0902 0.2743
vn 0.8557 -0.4239 0.2968
vn 0.9274 -0.2407 0.2862
vn -0.9957 -0.0864 -0.0326
vn -0.9964 -0.0742 -0.0419
vn -0.9960 -0.0742 -0.0502
vn -0.5783 -0.8113 -0.0853
vn -0.5041 -0.8610 -0.0678
vn -0.3599 -0.9311 -0.0590
vn -0.3589 -0.9285 -0.0951
vn -0.3955 -0.9100 -0.1244
vn -0.4317 -0.8917 -0.1359
vn -0.5578 -0.8070 -0.1940
vn -0.8589 -0.0912 -0.5040
vn -0.8624 -0.0030 -0.5062
vn -0.8608 -0.0000 -0.5089
vn -0.8425 -0.0000 -0.5387
vn -0.9094 -0.1405 -0.3914
vn -0.8886 -0.0638 -0.4542
vn -0.8646 -0.0658 -0.4982
vn -0.8626 -0.0694 -0.5010
vn -0.8624 -0.0704 -0.5013
vn -0.9060 -0.2201 -0.3616
vn -0.7669 -0.0000 -0.6418
vn -0.7818 -0.0000 -0.6235
vn -0.6047 -0.7681 -0.2105
vn -0.9094 -0.2118 -0.3580
vn 0.9551 -0.1087 0.2758
vn -0.9992 -0.0000 -0.0400
vn -0.9991 -0.0001 -0.0420
vn -0.9952 -0.0001 -0.0975
vn -0.9950 -0.0211 -0.0975
vn -0.9845 -0.0271 -0.1735
vn -0.9683 -0.1607 -0.1912
vn -0.9259 -0.3309 -0.1823
vn -0.7787 -0.6105 -0.1449
vn -0.8646 -0.0031 -0.5025
vn -0.8647 -0.0026 -0.5022
vn -0.8653 -0.0003 -0.5013
vn -0.8653 -0.0000 -0.5013
vn -0.9372 -0.0049 -0.3487
vn -0.9185 -0.0048 -0.3953
vn -0.9334 -0.0902 -0.3473
vn -0.8904 -0.0031 -0.4551
vn -0.9180 -0.0032 -0.3967
vn -0.8883 -0.0000 -0.4592
vn -0.8665 -0.0000 -0.4992
vn -0.8654 -0.0000 -0.5011
vn -0.9716 -0.1088 -0.2099
vn -0.9625 -0.0446 -0.2675
vn -0.9386 -0.0493 -0.3413
vn -0.9378 -0.0564 -0.3426
vn -0.9950 -0.0000 -0.0994
vn -0.9849 -0.0000 -0.1730
vn -0.9848 -0.0003 -0.1736
vn -0.9848 -0.0000 -0.1736
vn -0.9774 -0.0000 -0.2112
vn -0.9393 -0.0017 -0.3432
vn -0.9393 -0.0016 -0.3431
vn -0.9393 -0.0000 -0.3431
vn -0.9180 -0.0000 -0.3967
vn -0.9635 -0.0000 -0.2677
vn -0.9399 -0.0000 -0.3415
vn -0.9398 -0.0009 -0.3418
s 0
f 1//1 2//1 3//1
f 1//2 3//2 4//2
f 1//3 4//3 5//3
f 1//4 5//4 14//4
f 1//4 14//4 26//4
f 1//4 26//4 44//4
f 1//4 44//4 69//4
f 1//4 69//4 92//4
f 1//4 92//4 70//4
f 1//4 70//4 45//4
f 1//4 45//4 27//4
f 1//4 27//4 15//4
f 1//4 15//4 6//4
f 1//5 6//5 2//5
f 2//6 6//6 7//6
f 2//7 7//7 3//7
f 3//8 7//8 8//8
f 3//9 8//9 9//9
f 3//10 9//10 10//10
f 3//11 10//11 11//11
f 3//12 11//12 12//12
f 3//13 12//13 4//13
f 4//14 12//14 13//14
f 4//15 13//15 23//15
f 4//15 23//15 41//15
f 4//15 41//15 62//15
f 4//15 62//15 86//15
f 4//15 86//15 105//15
f 4//15 105//15 125//15
f 4//16 125//16 129//16
f 4//15 129//15 109//15
f 4//17 109//17 107//17
f 4//18 107//18 87//18
f 4//17 87//17 63//17
f 4//15 63//15 42//15
f 4//16 42//16 24//16
f 4//15 24//15 14//15
f 4//18 14//18 5//18
f 6//19 15//19 16//19
f 6//20 16//20 7//20
f 7//21 16//21 17//21
f 7//22 17//22 8//22
f 8//23 17//23 18//23
f 8//24 18//24 19//24
f 8//25 19//25 9//25
f 9//26 19//26 20//26
f 9//27 20//27 10//27
f 10//28 20//28 11//28
f 11//29 21//29 13//29
f 11//30 13//30 12//30
f 11//31 20//31 21//31
f 13//32 22//32 23//32
f 13//33 21//33 22//33
f 14//34 24//34 25//34
f 14//35 25//35 26//35
f 15//36 27//36 16//36
f 16//37 28//37 17//37
f 16//38 27//38 45//38
f 16//38 45//38 29//38
f 16//39 29//39 28//39
f 17//40 28//40 30//40
f 17//41 30//41 18//41
f 18//42 30//42 31//42
f 18//43 31//43 32//43
f 18//44 32//44 19//44
f 19//45 33//45 21//45
f 19//46 21//46 20//46
f 19//47 32//47 34//47
f 19//48 34//48 33//48
f 21//49 35//49 36//49
f 21//50 36//50 22//50
f 21//51 33//51 37//51
f 21//52 37//52 38//52
f 21//53 38//53 39//53
f 21//54 39//54 35//54
f 22//55 40//55 23//55
f 22//56 36//56 60//56
f 22//57 60//57 40//57
f 23//58 40//58 41//58
f 24//59 42//59 43//59
f 24//60 43//60 25//60
f 25//61 43//61 67//61
f 25//61 67//61 66//61
f 25//62 66//62 65//62
f 25//61 65//61 64//61
f 25//61 64//61 88//61
f 25//61 88//61 108//61
f 25//61 108//61 127//61
f 25//61 127//61 126//61
f 25//61 126//61 106//61
f 25//61 106//61 128//61
f 25//61 128//61 130//61
f 25//61 130//61 110//61
f 25//61 110//61 89//61
f 25//61 89//61 68//61
f 25//61 68//61 44//61
f 25//61 44//61 26//61
f 28//63 31//63 30//63
f 28//64 29//64 46//64
f 28//65 46//65 47//65
f 28//66 47//66 48//66
f 28//67 48//67 31//67
f 29//68 45//68 49//68
f 29//69 49//69 46//69
f 31//70 50//70 51//70
f 31//71 51//71 32//71
f 31//72 48//72 50//72
f 32//73 51//73 52//73
f 32//74 52//74 53//74
f 32//75 53//75 54//75
f 32//76 54//76 34//76
f 33//77 34//77 55//77
f 33//78 55//78 82//78
f 33//79 82//79 56//79
f 33//80 56//80 83//80
f 33//80 83//80 57//80
f 33//81 57//81 37//81
f 34//82 54//82 58//82
f 34//83 58//83 55//83
f 35//84 59//84 85//84
f 35//85 85//85 60//85
f 35//86 60//86 36//86
f 35//87 39//87 57//87
f 35//88 57//88 83//88
f 35//88 83//88 59//88
f 37//89 57//89 38//89
f 38//90 57//90 39//90
f 40//91 60//91 85//91
f 40//91 85//91 61//91
f 40//92 61//92 62//92
f 40//92 62//92 41//92
f 42//93 63//93 64//93
f 42//94 64//94 65//94
f 42//95 65//95 66//95
f 42//96 66//96 67//96
f 42//97 67//97 43//97
f 44//98 68//98 69//98
f 45//99 70//99 71//99
f 45//100 71//100 49//100
f 46//101 72//101 73//101
f 46//102 73//102 47//102
f 46//103 49//103 72//103
f 47//104 73//104 48//104
f 48//105 73//105 74//105
f 48//106 74//106 75//106
f 48//107 75//107 50//107
f 49//108 71//108 76//108
f 49//109 76//109 72//109
f 50//110 75//110 100//110
f 50//110 100//110 77//110
f 50//111 77//111 78//111
f 50//111 78//111 51//111
f 51//112 78//112 79//112
f 51//112 79//112 52//112
f 52//113 79//113 81//113
f 52//113 81//113 53//113
f 53//114 80//114 58//114
f 53//115 58//115 54//115
f 53//114 81//114 104//114
f 53//114 104//114 80//114
f 55//116 58//116 84//116
f 55//116 84//116 82//116
f 56//117 82//117 84//117
f 56//118 84//118 104//118
f 56//117 104//117 81//117
f 56//117 81//117 79//117
f 56//119 79//119 78//119
f 56//118 78//118 77//118
f 56//118 77//118 100//118
f 56//118 100//118 122//118
f 56//118 122//118 120//118
f 56//118 120//118 143//118
f 56//118 143//118 144//118
f 56//118 144//118 145//118
f 56//118 145//118 137//118
f 56//118 137//118 150//118
f 56//118 150//118 163//118
f 56//118 163//118 156//118
f 56//118 156//118 155//118
f 56//118 155//118 166//118
f 56//118 166//118 165//118
f 56//118 165//118 170//118
f 56//118 170//118 168//118
f 56//118 168//118 167//118
f 56//118 167//118 162//118
f 56//118 162//118 169//118
f 56//118 169//118 160//118
f 56//118 160//118 147//118
f 56//118 147//118 128//118
f 56//118 128//118 106//118
f 56//118 106//118 86//118
f 56//118 86//118 62//118
f 56//118 62//118 61//118
f 56//118 61//118 85//118
f 56//118 85//118 59//118
f 56//118 59//118 83//118
f 58//114 80//114 104//114
f 58//114 104//114 84//114
f 63//120 87//120 88//120
f 63//121 88//121 64//121
f 68//122 89//122 90//122
f 68//123 90//123 91//123
f 68//124 91//124 69//124
f 69//125 91//125 92//125
f 70//126 92//126 93//126
f 70//127 93//127 76//127
f 70//128 76//128 71//128
f 72//129 76//129 94//129
f 72//130 94//130 95//130
f 72//131 95//131 73//131
f 73//132 95//132 74//132
f 74//133 96//133 97//133
f 74//134 97//134 75//134
f 74//135 95//135 98//135
f 74//136 98//136 99//136
f 74//137 99//137 96//137
f 75//138 97//138 122//138
f 75//138 122//138 100//138
f 76//139 93//139 101//139
f 76//140 101//140 102//140
f 76//141 102//141 103//141
f 76//142 103//142 94//142
f 86//143 106//143 126//143
f 86//143 126//143 105//143
f 87//144 107//144 88//144
f 88//145 107//145 109//145
f 88//146 109//146 108//146
f 89//147 110//147 111//147
f 89//148 111//148 90//148
f 90//149 111//149 112//149
f 90//150 112//150 113//150
f 90//151 113//151 91//151
f 91//152 113//152 92//152
f 92//153 113//153 93//153
f 93//154 113//154 114//154
f 93//155 114//155 115//155
f 93//156 115//156 101//156
f 94//157 103//157 116//157
f 94//158 116//158 95//158
f 95//159 117//159 98//159
f 95//160 116//160 118//160
f 95//161 118//161 117//161
f 96//162 119//162 143//162
f 96//162 143//162 120//162
f 96//163 120//163 122//163
f 96//163 122//163 97//163
f 96//164 99//164 121//164
f 96//165 121//165 119//165
f 98//166 123//166 121//166
f 98//166 121//166 99//166
f 98//167 117//167 123//167
f 101//168 115//168 102//168
f 102//169 118//169 116//169
f 102//170 116//170 103//170
f 102//171 115//171 124//171
f 102//172 124//172 118//172
f 105//173 126//173 127//173
f 105//174 127//174 125//174
f 108//175 109//175 127//175
f 109//176 129//176 127//176
f 110//177 130//177 111//177
f 111//178 130//178 131//178
f 111//179 131//179 132//179
f 111//180 132//180 133//180
f 111//181 133//181 112//181
f 112//182 133//182 113//182
f 113//183 133//183 114//183
f 114//184 133//184 115//184
f 115//185 133//185 134//185
f 115//186 134//186 124//186
f 117//187 118//187 135//187
f 117//188 135//188 136//188
f 117//189 136//189 150//189
f 117//189 150//189 137//189
f 117//190 137//190 145//190
f 117//190 145//190 123//190
f 118//191 138//191 139//191
f 118//192 139//192 140//192
f 118//193 140//193 141//193
f 118//194 141//194 142//194
f 118//195 142//195 135//195
f 118//196 124//196 138//196
f 119//197 121//197 144//197
f 119//197 144//197 143//197
f 121//198 123//198 145//198
f 121//198 145//198 144//198
f 124//199 134//199 146//199
f 124//200 146//200 138//200
f 125//201 127//201 129//201
f 128//202 147//202 130//202
f 130//203 147//203 131//203
f 131//204 147//204 148//204
f 131//205 148//205 132//205
f 132//206 148//206 149//206
f 132//207 149//207 146//207
f 132//208 146//208 134//208
f 132//209 134//209 133//209
f 135//210 142//210 136//210
f 136//211 142//211 141//211
f 136//212 141//212 151//212
f 136//213 151//213 163//213
f 136//213 163//213 150//213
f 138//214 152//214 153//214
f 138//215 153//215 139//215
f 138//216 146//216 152//216
f 139//217 154//217 140//217
f 139//218 153//218 154//218
f 140//219 154//219 166//219
f 140//219 166//219 155//219
f 140//220 155//220 156//220
f 140//220 156//220 141//220
f 141//221 156//221 163//221
f 141//221 163//221 151//221
f 146//222 149//222 157//222
f 146//223 157//223 158//223
f 146//224 158//224 159//224
f 146//225 159//225 152//225
f 147//226 160//226 148//226
f 148//227 160//227 169//227
f 148//227 169//227 161//227
f 148//228 161//228 149//228
f 149//229 161//229 169//229
f 149//229 169//229 162//229
f 149//230 162//230 167//230
f 149//230 167//230 157//230
f 152//231 159//231 153//231
f 153//232 159//232 164//232
f 153//233 164//233 170//233
f 153//233 170//233 165//233
f 153//234 165//234 166//234
f 153//234 166//234 154//234
f 157//235 167//235 168//235
f 157//235 168//235 158//235
f 158//236 168//236 170//236
f 158//236 170//236 164//236
f 158//237 164//237 159//237
