# Blender 4.4.3
# www.blender.org
o socket9mm_collision_geom_12
v -0.082070 0.023750 -0.030934
v -0.085160 0.023750 -0.030934
v -0.082063 0.023749 -0.030934
v -0.082068 0.023750 -0.030938
v -0.085160 0.023750 -0.034133
v -0.085160 0.010531 -0.030934
v -0.083746 0.023750 -0.034133
v -0.082063 0.011284 -0.030934
v -0.085160 0.010338 -0.034133
v -0.082898 0.010599 -0.030934
v -0.083746 0.011290 -0.034133
v -0.082067 0.010944 -0.030934
v -0.084196 0.010599 -0.034133
v -0.082229 0.010695 -0.030934
v -0.082553 0.010624 -0.030934
v -0.083753 0.011115 -0.034133
v -0.082068 0.010942 -0.030934
v -0.083761 0.010944 -0.034133
v -0.084045 0.010642 -0.034133
v -0.083899 0.010686 -0.034133
v -0.082190 0.010713 -0.030934
vn -0.0000 -0.0000 1.0000
vn -0.0018 -0.0000 1.0000
vn 0.0005 -0.0000 1.0000
vn 0.1833 0.9752 0.1241
vn -0.0000 1.0000 -0.0000
vn -1.0000 -0.0000 -0.0000
vn 0.3722 0.9074 -0.1953
vn 0.8850 -0.0000 -0.4656
vn -0.0000 -0.0000 -1.0000
vn -0.0001 -0.0000 -1.0000
vn 0.0301 -0.9977 0.0602
vn 0.8850 -0.0087 -0.4656
vn 0.2593 -0.9569 -0.1308
vn 0.2131 -0.9732 -0.0866
vn 0.0719 -0.9969 0.0306
vn 0.8830 -0.0383 -0.4677
vn 0.8176 -0.3795 -0.4329
vn 0.8830 -0.0392 -0.4678
vn 0.2727 -0.9520 -0.1392
vn 0.2829 -0.9481 -0.1450
vn 0.4180 -0.8825 -0.2158
vn 0.7989 -0.4272 -0.4233
vn 0.7987 -0.4278 -0.4232
s 0
f 1//1 2//1 6//1
f 1//1 6//1 10//1
f 1//1 10//1 15//1
f 1//1 15//1 14//1
f 1//1 14//1 21//1
f 1//1 21//1 17//1
f 1//2 17//2 12//2
f 1//3 12//3 8//3
f 1//1 8//1 3//1
f 1//4 3//4 4//4
f 1//5 4//5 7//5
f 1//5 7//5 5//5
f 1//5 5//5 2//5
f 2//6 5//6 9//6
f 2//6 9//6 6//6
f 3//7 7//7 4//7
f 3//8 8//8 11//8
f 3//8 11//8 7//8
f 5//9 7//9 11//9
f 5//10 11//10 16//10
f 5//9 16//9 18//9
f 5//9 18//9 20//9
f 5//9 20//9 19//9
f 5//9 19//9 13//9
f 5//9 13//9 9//9
f 6//11 9//11 10//11
f 8//12 12//12 11//12
f 9//13 13//13 14//13
f 9//14 14//14 15//14
f 9//15 15//15 10//15
f 11//16 12//16 16//16
f 12//17 17//17 18//17
f 12//18 18//18 16//18
f 13//19 19//19 14//19
f 14//20 19//20 20//20
f 14//21 20//21 21//21
f 17//22 21//22 18//22
f 18//23 21//23 20//23
