# Blender 4.4.3
# www.blender.org
o socket8mm_collision_geom_0
v -0.095171 0.022840 -0.027175
v -0.095171 0.022840 -0.030619
v -0.095145 0.022840 -0.027184
v -0.095171 0.036401 -0.027377
v -0.094365 0.022840 -0.032770
v -0.095171 0.028103 -0.030619
v -0.095114 0.022840 -0.027199
v -0.094992 0.036401 -0.027458
v -0.095158 0.036401 -0.027382
v -0.095171 0.036452 -0.027388
v -0.091535 0.022840 -0.032770
v -0.094365 0.028103 -0.032770
v -0.095171 0.028435 -0.030616
v -0.094364 0.028435 -0.032770
v -0.094811 0.022840 -0.027352
v -0.094538 0.036401 -0.027720
v -0.094578 0.036616 -0.027743
v -0.095171 0.036644 -0.027494
v -0.091720 0.036070 -0.032770
v -0.091535 0.022840 -0.032603
v -0.095171 0.036070 -0.030256
v -0.093992 0.036070 -0.032770
v -0.094491 0.022840 -0.027537
v -0.094372 0.036401 -0.027819
v -0.094468 0.022840 -0.027550
v -0.094161 0.036621 -0.028049
v -0.094478 0.036669 -0.027935
v -0.094825 0.036650 -0.027672
v -0.093985 0.036578 -0.028113
v -0.095171 0.036670 -0.027561
v -0.091725 0.036236 -0.032770
v -0.091720 0.036070 -0.032603
v -0.091544 0.022840 -0.032321
v -0.095171 0.036083 -0.030254
v -0.095171 0.036289 -0.030179
v -0.093829 0.036337 -0.032770
v -0.094161 0.036401 -0.027973
v -0.094184 0.022840 -0.027722
v -0.094149 0.022840 -0.027747
v -0.093632 0.036595 -0.028427
v -0.093856 0.036627 -0.028305
v -0.094161 0.036712 -0.028287
v -0.094825 0.036741 -0.027956
v -0.093980 0.036401 -0.028109
v -0.093814 0.036401 -0.028248
v -0.093617 0.036401 -0.028414
v -0.095171 0.036681 -0.027595
v -0.091731 0.036401 -0.032770
v -0.091731 0.036401 -0.032603
v -0.091733 0.036070 -0.032271
v -0.091546 0.022840 -0.032271
v -0.095171 0.036379 -0.029946
v -0.095171 0.036383 -0.029933
v -0.093497 0.036475 -0.032770
v -0.093849 0.022840 -0.027977
v -0.093305 0.036595 -0.028754
v -0.093511 0.036637 -0.028634
v -0.093450 0.036401 -0.028573
v -0.093829 0.036726 -0.028619
v -0.094493 0.036751 -0.028287
v -0.095171 0.036749 -0.027941
v -0.093817 0.022840 -0.028004
v -0.093489 0.022840 -0.028284
v -0.093473 0.022840 -0.028297
v -0.091802 0.036530 -0.032770
v -0.091872 0.036658 -0.032603
v -0.091878 0.036658 -0.032271
v -0.091744 0.036401 -0.032271
v -0.091782 0.036401 -0.031939
v -0.091775 0.036070 -0.031939
v -0.091581 0.022840 -0.031989
v -0.095171 0.036663 -0.028605
v -0.095171 0.036725 -0.028273
v -0.093077 0.036588 -0.032770
v -0.092926 0.036620 -0.029283
v -0.093183 0.036627 -0.028978
v -0.093292 0.036401 -0.028739
v -0.092991 0.036578 -0.029108
v -0.093165 0.036712 -0.029283
v -0.093497 0.036726 -0.028951
v -0.093452 0.022840 -0.028318
v -0.093196 0.022840 -0.028575
v -0.093165 0.036751 -0.029615
v -0.092169 0.036751 -0.032770
v -0.095171 0.036749 -0.027956
v -0.091872 0.036658 -0.032770
v -0.092020 0.036704 -0.032770
v -0.092169 0.036751 -0.031939
v -0.091896 0.036658 -0.031939
v -0.091920 0.036652 -0.031607
v -0.091835 0.036401 -0.031607
v -0.091953 0.036627 -0.031275
v -0.091587 0.022840 -0.031943
v -0.092501 0.036725 -0.032770
v -0.092833 0.036654 -0.032770
v -0.092621 0.036616 -0.029701
v -0.092813 0.036669 -0.029601
v -0.092987 0.036401 -0.029103
v -0.093161 0.022840 -0.028612
v -0.092855 0.022840 -0.028972
v -0.092851 0.036401 -0.029283
v -0.092698 0.036401 -0.029495
v -0.092833 0.036741 -0.029947
v -0.092833 0.036751 -0.030278
v -0.092501 0.036744 -0.030611
v -0.092501 0.036751 -0.030943
v -0.092169 0.036744 -0.031607
v -0.092169 0.036718 -0.031275
v -0.091983 0.036594 -0.031054
v -0.091903 0.036401 -0.031275
v -0.091718 0.022840 -0.031248
v -0.091708 0.022840 -0.031303
v -0.091634 0.022840 -0.031681
v -0.092234 0.036652 -0.030611
v -0.092285 0.036620 -0.030335
v -0.092550 0.036650 -0.029947
v -0.092597 0.036401 -0.029661
v -0.092432 0.036401 -0.029947
v -0.092336 0.036401 -0.030114
v -0.092822 0.022840 -0.029012
v -0.092600 0.022840 -0.029306
v -0.092414 0.022840 -0.029614
v -0.092260 0.036401 -0.030280
v -0.092129 0.036401 -0.030611
v -0.091974 0.036401 -0.031027
v -0.091808 0.022840 -0.030943
v -0.092229 0.022840 -0.029933
v -0.092062 0.022840 -0.030267
v -0.092050 0.022840 -0.030295
v -0.091931 0.022840 -0.030608
v -0.091921 0.022840 -0.030635
vn -0.0000 -1.0000 -0.0000
vn -0.0000 -1.0000 0.0001
vn -0.0000 -1.0000 0.0002
vn -0.0000 -1.0000 -0.0001
vn -0.0000 -1.0000 -0.0002
vn -0.0000 -1.0000 0.0005
vn -0.0000 -1.0000 -0.0008
vn -0.0000 -1.0000 0.0007
vn -0.0000 -1.0000 -0.0007
vn 0.3332 0.0140 0.9428
vn -1.0000 -0.0000 -0.0000
vn -1.0000 0.0001 -0.0000
vn -1.0000 -0.0004 -0.0000
vn -0.9364 -0.0000 -0.3510
vn 0.4350 0.0133 0.9003
vn 0.4163 0.0137 0.9091
vn 0.3591 0.0140 0.9332
vn 0.3525 0.1939 0.9155
vn 0.0114 -0.0000 -0.9999
vn -0.0000 -0.0000 -1.0000
vn -0.0001 -0.0000 -1.0000
vn 0.0001 -0.0000 -1.0000
vn -0.9365 0.0029 -0.3507
vn -0.9364 0.0010 -0.3510
vn 0.4490 0.0130 0.8934
vn 0.4902 0.1849 0.8518
vn 0.4232 0.3122 0.8505
vn 0.4075 0.2045 0.8900
vn 0.4988 0.0135 0.8666
vn 0.3646 0.4490 0.8157
vn 0.9999 0.0140 -0.0000
vn -0.9364 0.0165 -0.3507
vn -0.9045 0.0441 -0.4241
vn 0.5002 0.0134 0.8658
vn 0.5060 0.1868 0.8421
vn 0.5091 0.0134 0.8606
vn 0.5150 0.0134 0.8571
vn 0.2707 0.8821 0.3855
vn 0.2312 0.8999 0.3698
vn 0.2672 0.7953 0.5442
vn 0.5267 0.2135 0.8228
vn 0.3827 0.7522 0.5364
vn 0.1685 0.9192 0.3559
vn 0.9995 0.0321 -0.0000
vn 0.9993 0.0140 0.0341
vn -0.9042 0.0515 -0.4240
vn -0.8945 0.1533 -0.4200
vn -0.7833 0.4784 -0.3969
vn 0.5876 0.0544 0.8073
vn 0.5178 0.0133 0.8554
vn 0.5849 0.0139 0.8110
vn 0.5884 0.0140 0.8085
vn 0.3685 0.8080 0.4598
vn 0.3558 0.8239 0.4410
vn 0.2725 0.8988 0.3434
vn 0.2591 0.9023 0.3447
vn 0.1799 0.9434 0.2786
vn 0.1772 0.9369 0.3013
vn 0.1526 0.9408 0.3026
vn 0.6001 0.0356 0.7991
vn 0.6428 0.0358 0.7652
vn 0.6434 0.0367 0.7646
vn 0.6585 0.1000 0.7459
vn 0.1518 0.9412 0.3020
vn 0.9995 0.0324 -0.0000
vn 0.9995 0.0322 0.0002
vn 0.9987 0.0323 0.0385
vn 0.9987 0.0322 0.0386
vn 0.9992 0.0141 0.0386
vn 0.9993 0.0140 0.0354
vn -0.5882 0.7546 -0.2908
vn -0.5105 0.8212 -0.2550
vn -0.3778 0.9054 -0.1935
vn 0.6005 0.0138 0.7995
vn 0.6087 0.0136 0.7933
vn 0.4038 0.8214 0.4029
vn 0.3216 0.8734 0.3656
vn 0.6873 0.1006 0.7194
vn 0.7020 0.1286 0.7005
vn 0.2736 0.9083 0.3165
vn 0.2688 0.9131 0.3065
vn 0.1245 0.9784 0.1647
vn 0.1012 0.9864 0.1297
vn 0.0258 0.9982 0.0544
vn 0.0311 0.9808 0.1926
vn 0.6378 0.0136 0.7700
vn 0.6432 0.0137 0.7656
vn 0.6438 0.0136 0.7651
vn 0.6484 0.0135 0.7612
vn 0.6668 0.0135 0.7451
vn 0.6907 0.0135 0.7230
vn 0.8771 0.4803 -0.0000
vn 0.8766 0.4813 0.0010
vn 0.8764 0.4812 0.0169
vn 0.8852 0.4640 0.0342
vn 0.9930 0.0320 0.1140
vn 0.9919 0.0202 0.1255
vn 0.9920 0.0141 0.1255
vn 0.9925 0.0140 0.1215
vn -0.3748 0.9071 -0.1916
vn -0.3229 0.9307 -0.1718
vn -0.2572 0.9549 -0.1487
vn 0.4512 0.8162 0.3609
vn 0.3674 0.8722 0.3229
vn 0.7195 0.1028 0.6869
vn 0.7457 0.1024 0.6584
vn 0.4521 0.8155 0.3614
vn 0.3172 0.9080 0.2738
vn 0.3070 0.9129 0.2690
vn 0.2702 0.9241 0.2704
vn 0.6978 0.0134 0.7162
vn 0.7078 0.0132 0.7063
vn 0.7233 0.0135 0.6905
vn 0.0735 0.9946 0.0735
vn -0.0000 1.0000 -0.0000
vn -0.0027 1.0000 -0.0014
vn -0.0020 1.0000 -0.0000
vn 0.0733 0.9946 0.0733
vn 0.8760 0.4824 -0.0000
vn 0.2984 0.9544 -0.0000
vn 0.2982 0.9545 0.0002
vn 0.3099 0.9507 0.0060
vn 0.3207 0.9470 0.0165
vn 0.8848 0.4638 0.0456
vn 0.8970 0.4361 0.0726
vn 0.9242 0.3670 0.1061
vn 0.9871 0.0201 0.1588
vn 0.9289 0.3502 0.1207
vn 0.9501 0.2720 0.1529
vn 0.9862 0.0140 0.1648
vn 0.9914 0.0141 0.1304
vn -0.1286 0.9888 -0.0763
vn -0.2069 0.9706 -0.1229
vn -0.2561 0.9552 -0.1482
vn 0.5232 0.7650 0.3755
vn 0.3863 0.8807 0.2741
vn 0.3492 0.8992 0.2637
vn 0.3483 0.8969 0.2726
vn 0.7652 0.0362 0.6427
vn 0.7282 0.0135 0.6853
vn 0.7617 0.0134 0.6478
vn 0.7657 0.0136 0.6431
vn 0.7993 0.0359 0.5999
vn 0.8087 0.0578 0.5854
vn 0.8235 0.2101 0.5270
vn 0.2794 0.9431 0.1803
vn 0.1651 0.9784 0.1246
vn 0.1294 0.9864 0.1010
vn 0.0656 0.9972 0.0369
vn 0.0410 0.9989 0.0205
vn 0.2971 0.9548 -0.0000
vn -0.0776 0.9958 -0.0481
vn 0.0614 0.9979 0.0205
vn 0.0613 0.9979 0.0204
vn 0.3208 0.9470 0.0194
vn 0.3436 0.9383 0.0404
vn 0.3429 0.9365 0.0729
vn 0.3871 0.9154 0.1102
vn 0.9530 0.2527 0.1669
vn 0.9649 0.1721 0.1984
vn 0.9794 0.0138 0.2014
vn 0.9811 0.0136 0.1933
vn 0.9815 0.0135 0.1911
vn 0.9839 0.0136 0.1780
vn 0.3863 0.9134 0.1281
vn 0.5351 0.8220 0.1947
vn 0.4639 0.8495 0.2513
vn 0.3690 0.9003 0.2310
vn 0.8417 0.1848 0.5074
vn 0.8512 0.1829 0.4919
vn 0.8513 0.1831 0.4917
vn 0.8529 0.2585 0.4535
vn 0.3016 0.9367 0.1777
vn 0.7811 0.0136 0.6243
vn 0.7969 0.0137 0.6040
vn 0.7997 0.0138 0.6002
vn 0.8100 0.0140 0.5863
vn 0.8556 0.0134 0.5175
vn 0.8564 0.0134 0.5162
vn 0.3027 0.9403 0.1554
vn 0.0410 0.9990 0.0205
vn 0.2267 0.9710 0.0756
vn 0.3198 0.9346 0.1558
vn 0.3213 0.9388 0.1241
vn 0.5363 0.8211 0.1955
vn 0.9067 0.1963 0.3733
vn 0.9213 0.1375 0.3638
vn 0.9321 0.0959 0.3492
vn 0.9586 0.0861 0.2716
vn 0.9620 0.0137 0.2726
vn 0.9594 0.0135 0.2817
vn 0.3589 0.9169 0.1743
vn 0.8906 0.2029 0.4070
vn 0.8658 0.0135 0.5003
vn 0.8658 0.0135 0.5002
vn 0.8659 0.0135 0.5001
vn 0.8941 0.0130 0.4476
vn 0.9095 0.0137 0.4156
vn 0.9243 0.0139 0.3814
vn 0.9300 0.0140 0.3673
vn 0.9339 0.0138 0.3572
vn 0.9364 0.0138 0.3508
vn 0.9373 0.0137 0.3483
vn 0.9388 0.0136 0.3442
s 0
f 1//1 2//1 5//1
f 1//1 5//1 11//1
f 1//1 11//1 20//1
f 1//1 20//1 33//1
f 1//1 33//1 51//1
f 1//1 51//1 71//1
f 1//1 71//1 93//1
f 1//1 93//1 113//1
f 1//1 113//1 112//1
f 1//2 112//2 111//2
f 1//1 111//1 126//1
f 1//1 126//1 131//1
f 1//3 131//3 130//3
f 1//1 130//1 129//1
f 1//3 129//3 128//3
f 1//1 128//1 127//1
f 1//1 127//1 122//1
f 1//1 122//1 121//1
f 1//1 121//1 120//1
f 1//4 120//4 100//4
f 1//1 100//1 99//1
f 1//5 99//5 82//5
f 1//1 82//1 81//1
f 1//6 81//6 64//6
f 1//7 64//7 63//7
f 1//1 63//1 62//1
f 1//2 62//2 55//2
f 1//1 55//1 39//1
f 1//1 39//1 38//1
f 1//2 38//2 25//2
f 1//8 25//8 23//8
f 1//1 23//1 15//1
f 1//9 15//9 7//9
f 1//1 7//1 3//1
f 1//10 3//10 4//10
f 1//11 4//11 10//11
f 1//11 10//11 18//11
f 1//11 18//11 30//11
f 1//11 30//11 47//11
f 1//11 47//11 61//11
f 1//11 61//11 85//11
f 1//11 85//11 73//11
f 1//11 73//11 72//11
f 1//11 72//11 53//11
f 1//12 53//12 52//12
f 1//11 52//11 35//11
f 1//11 35//11 34//11
f 1//13 34//13 21//13
f 1//11 21//11 13//11
f 1//11 13//11 6//11
f 1//11 6//11 2//11
f 2//14 6//14 12//14
f 2//14 12//14 5//14
f 3//15 7//15 8//15
f 3//16 8//16 9//16
f 3//17 9//17 4//17
f 4//18 9//18 10//18
f 5//19 12//19 14//19
f 5//20 14//20 22//20
f 5//20 22//20 36//20
f 5//20 36//20 54//20
f 5//20 54//20 74//20
f 5//20 74//20 95//20
f 5//20 95//20 94//20
f 5//20 94//20 84//20
f 5//20 84//20 87//20
f 5//20 87//20 86//20
f 5//20 86//20 65//20
f 5//20 65//20 48//20
f 5//21 48//21 31//21
f 5//22 31//22 19//22
f 5//20 19//20 11//20
f 6//23 13//23 14//23
f 6//24 14//24 12//24
f 7//25 15//25 8//25
f 8//26 16//26 17//26
f 8//27 17//27 10//27
f 8//28 10//28 9//28
f 8//29 15//29 16//29
f 10//30 17//30 18//30
f 11//31 19//31 32//31
f 11//31 32//31 20//31
f 13//32 21//32 14//32
f 14//33 21//33 22//33
f 15//34 23//34 16//34
f 16//35 24//35 17//35
f 16//36 23//36 25//36
f 16//37 25//37 24//37
f 17//38 26//38 27//38
f 17//39 27//39 28//39
f 17//40 28//40 18//40
f 17//41 24//41 29//41
f 17//42 29//42 26//42
f 18//43 28//43 30//43
f 19//44 31//44 32//44
f 20//45 32//45 33//45
f 21//46 34//46 22//46
f 22//47 34//47 35//47
f 22//48 35//48 36//48
f 24//49 37//49 29//49
f 24//50 25//50 38//50
f 24//51 38//51 39//51
f 24//52 39//52 37//52
f 26//53 29//53 40//53
f 26//54 40//54 41//54
f 26//55 41//55 42//55
f 26//56 42//56 27//56
f 27//57 42//57 43//57
f 27//58 43//58 28//58
f 28//59 43//59 30//59
f 29//60 37//60 44//60
f 29//61 44//61 45//61
f 29//62 45//62 46//62
f 29//63 46//63 40//63
f 30//64 43//64 47//64
f 31//65 48//65 49//65
f 31//66 49//66 32//66
f 32//67 49//67 68//67
f 32//68 68//68 50//68
f 32//69 50//69 51//69
f 32//70 51//70 33//70
f 35//71 52//71 36//71
f 36//72 52//72 53//72
f 36//73 53//73 54//73
f 37//74 39//74 44//74
f 39//75 55//75 44//75
f 40//76 56//76 57//76
f 40//77 57//77 41//77
f 40//78 46//78 58//78
f 40//79 58//79 56//79
f 41//80 57//80 42//80
f 42//81 57//81 59//81
f 42//82 59//82 43//82
f 43//83 59//83 60//83
f 43//84 60//84 61//84
f 43//85 61//85 47//85
f 44//86 55//86 62//86
f 44//87 62//87 45//87
f 45//88 62//88 46//88
f 46//89 62//89 63//89
f 46//90 63//90 64//90
f 46//91 64//91 58//91
f 48//92 65//92 49//92
f 49//93 65//93 66//93
f 49//94 66//94 67//94
f 49//95 67//95 68//95
f 50//96 68//96 69//96
f 50//97 69//97 70//97
f 50//98 70//98 71//98
f 50//99 71//99 51//99
f 53//100 72//100 54//100
f 54//101 72//101 73//101
f 54//102 73//102 74//102
f 56//103 75//103 76//103
f 56//104 76//104 57//104
f 56//105 58//105 77//105
f 56//106 77//106 78//106
f 56//107 78//107 75//107
f 57//108 76//108 79//108
f 57//109 79//109 80//109
f 57//110 80//110 59//110
f 58//111 64//111 81//111
f 58//112 81//112 82//112
f 58//113 82//113 77//113
f 59//114 80//114 60//114
f 60//115 83//115 104//115
f 60//115 104//115 106//115
f 60//115 106//115 88//115
f 60//115 88//115 84//115
f 60//116 84//116 85//116
f 60//117 85//117 61//117
f 60//118 80//118 83//118
f 65//119 86//119 66//119
f 66//120 86//120 87//120
f 66//121 87//121 88//121
f 66//122 88//122 67//122
f 67//123 88//123 89//123
f 67//124 89//124 68//124
f 68//125 89//125 90//125
f 68//126 90//126 69//126
f 69//127 91//127 70//127
f 69//128 90//128 92//128
f 69//129 92//129 91//129
f 70//130 91//130 93//130
f 70//131 93//131 71//131
f 73//132 85//132 94//132
f 73//133 94//133 95//133
f 73//134 95//134 74//134
f 75//135 78//135 96//135
f 75//136 96//136 97//136
f 75//137 97//137 79//137
f 75//138 79//138 76//138
f 77//139 98//139 78//139
f 77//140 82//140 99//140
f 77//141 99//141 100//141
f 77//142 100//142 98//142
f 78//143 98//143 101//143
f 78//144 101//144 102//144
f 78//145 102//145 96//145
f 79//146 97//146 103//146
f 79//147 103//147 80//147
f 80//148 103//148 83//148
f 83//149 103//149 105//149
f 83//150 105//150 104//150
f 84//151 88//151 87//151
f 84//152 94//152 85//152
f 88//153 106//153 105//153
f 88//154 105//154 107//154
f 88//155 107//155 89//155
f 89//156 107//156 90//156
f 90//157 107//157 108//157
f 90//158 108//158 92//158
f 91//159 92//159 109//159
f 91//160 109//160 110//160
f 91//161 110//161 111//161
f 91//162 111//162 112//162
f 91//163 112//163 113//163
f 91//164 113//164 93//164
f 92//165 108//165 114//165
f 92//166 114//166 109//166
f 96//167 115//167 116//167
f 96//168 116//168 97//168
f 96//169 102//169 117//169
f 96//170 117//170 118//170
f 96//171 118//171 119//171
f 96//172 119//172 115//172
f 97//173 116//173 103//173
f 98//174 100//174 120//174
f 98//175 120//175 121//175
f 98//176 121//176 101//176
f 101//177 121//177 102//177
f 102//178 121//178 122//178
f 102//179 122//179 117//179
f 103//180 116//180 105//180
f 104//181 105//181 106//181
f 105//182 108//182 107//182
f 105//183 116//183 114//183
f 105//184 114//184 108//184
f 109//185 114//185 115//185
f 109//186 115//186 123//186
f 109//187 123//187 124//187
f 109//188 124//188 125//188
f 109//189 125//189 110//189
f 110//190 125//190 111//190
f 111//191 125//191 126//191
f 114//192 116//192 115//192
f 115//193 119//193 123//193
f 117//194 122//194 118//194
f 118//195 122//195 127//195
f 118//196 127//196 119//196
f 119//197 127//197 128//197
f 119//198 128//198 123//198
f 123//199 128//199 129//199
f 123//200 129//200 124//200
f 124//201 129//201 130//201
f 124//202 130//202 125//202
f 125//203 130//203 131//203
f 125//204 131//204 126//204
