# Blender 4.4.3
# www.blender.org
o socket8mm_collision_geom_3
v -0.103759 0.022840 -0.032603
v -0.103759 0.022840 -0.032769
v -0.103748 0.022840 -0.032271
v -0.103574 0.036070 -0.032603
v -0.103574 0.036070 -0.032769
v -0.100929 0.022840 -0.032769
v -0.103707 0.022840 -0.031943
v -0.103561 0.036070 -0.032271
v -0.103563 0.036401 -0.032603
v -0.103563 0.036401 -0.032769
v -0.099760 0.022840 -0.030261
v -0.100929 0.028103 -0.032769
v -0.103651 0.022840 -0.031631
v -0.103459 0.036401 -0.031607
v -0.103519 0.036070 -0.031939
v -0.103512 0.036401 -0.031939
v -0.103550 0.036401 -0.032271
v -0.103415 0.036658 -0.032271
v -0.103421 0.036658 -0.032603
v -0.103492 0.036530 -0.032769
v -0.103228 0.022840 -0.030261
v -0.099760 0.028103 -0.030261
v -0.100930 0.028435 -0.032769
v -0.103576 0.022840 -0.031249
v -0.103390 0.036401 -0.031275
v -0.103311 0.036594 -0.031055
v -0.103340 0.036627 -0.031275
v -0.103374 0.036652 -0.031607
v -0.103398 0.036658 -0.031939
v -0.103125 0.036751 -0.031939
v -0.103421 0.036658 -0.032769
v -0.103232 0.022840 -0.030267
v -0.103024 0.036401 -0.030261
v -0.099762 0.028361 -0.030261
v -0.099763 0.028435 -0.030261
v -0.101303 0.036070 -0.032769
v -0.103486 0.022840 -0.030943
v -0.103320 0.036401 -0.031028
v -0.103008 0.036620 -0.030335
v -0.103059 0.036652 -0.030611
v -0.103164 0.036401 -0.030611
v -0.103033 0.036401 -0.030280
v -0.103125 0.036718 -0.031275
v -0.103125 0.036744 -0.031607
v -0.102793 0.036751 -0.030943
v -0.103125 0.036751 -0.032769
v -0.103356 0.022840 -0.030590
v -0.102855 0.036663 -0.030261
v -0.100142 0.036070 -0.030261
v -0.101306 0.036075 -0.032769
v -0.101253 0.036278 -0.032544
v -0.100281 0.036258 -0.030474
v -0.103363 0.022840 -0.030608
v -0.102824 0.036676 -0.030261
v -0.102793 0.036744 -0.030611
v -0.102461 0.036749 -0.030261
v -0.102461 0.036749 -0.030279
v -0.102129 0.036725 -0.030261
v -0.102793 0.036725 -0.032769
v -0.100217 0.036275 -0.030261
v -0.101465 0.036337 -0.032769
v -0.100233 0.036292 -0.030279
v -0.100227 0.036293 -0.030261
v -0.101797 0.036663 -0.030261
v -0.100469 0.036387 -0.030261
v -0.102461 0.036654 -0.032769
v -0.101797 0.036475 -0.032769
v -0.102217 0.036588 -0.032769
vn -0.0000 -1.0000 -0.0000
vn -0.0000 -1.0000 0.0001
vn -0.9993 0.0140 0.0342
vn -0.9999 0.0140 -0.0000
vn -0.9999 0.0140 -0.0024
vn 0.0001 -0.0000 -1.0000
vn -0.0000 -0.0000 -1.0000
vn -0.0003 -0.0000 -1.0000
vn -0.9923 0.0140 0.1231
vn -0.9991 0.0141 0.0389
vn -0.9987 0.0319 0.0389
vn -0.9987 0.0318 0.0389
vn -0.9995 0.0319 -0.0000
vn 0.9064 -0.0000 -0.4223
vn -0.9840 0.0136 0.1777
vn -0.9862 0.0140 0.1651
vn -0.9920 0.0141 0.1251
vn -0.9919 0.0199 0.1251
vn -0.9930 0.0317 0.1135
vn -0.8850 0.4644 0.0344
vn -0.8759 0.4823 0.0165
vn -0.8760 0.4823 0.0020
vn -0.8771 0.4802 -0.0000
vn 0.0018 -0.0000 1.0000
vn -0.0036 -0.0000 1.0000
vn -0.0000 -0.0000 1.0000
vn -0.0004 -0.0000 1.0000
vn 0.9064 0.0011 -0.4223
vn -0.9811 0.0136 0.1929
vn -0.9648 0.1729 0.1980
vn -0.9528 0.2539 0.1665
vn -0.9501 0.2717 0.1534
vn -0.9870 0.0198 0.1594
vn -0.9795 0.0138 0.2010
vn -0.9290 0.3495 0.1215
vn -0.9240 0.3676 0.1056
vn -0.8972 0.4357 0.0727
vn -0.8846 0.4642 0.0449
vn -0.3205 0.9471 0.0163
vn -0.3098 0.9508 0.0059
vn -0.2979 0.9546 -0.0000
vn -0.8749 0.4844 -0.0000
vn -0.8974 0.0135 0.4410
vn 0.9067 0.0069 -0.4217
vn 0.9067 0.0143 -0.4215
vn 0.9059 0.0443 -0.4211
vn -0.9591 0.0134 0.2828
vn -0.9620 0.0137 0.2726
vn -0.9585 0.0868 0.2716
vn -0.5376 0.8201 0.1962
vn -0.5350 0.8221 0.1945
vn -0.9320 0.0964 0.3494
vn -0.9211 0.1382 0.3640
vn -0.9065 0.1969 0.3734
vn -0.3864 0.9134 0.1280
vn -0.3872 0.9153 0.1106
vn -0.3427 0.9366 0.0731
vn -0.3433 0.9383 0.0404
vn -0.3205 0.9471 0.0194
vn -0.0000 1.0000 -0.0000
vn -0.0613 0.9979 0.0205
vn -0.0613 0.9979 0.0204
vn -0.9089 0.0137 0.4167
vn -0.9299 0.0139 0.3675
vn -0.9329 0.0138 0.3598
vn -0.4849 0.3127 0.8167
vn -0.8899 0.2039 0.4080
vn 0.9067 0.0450 -0.4195
vn 0.7252 0.4178 -0.5473
vn 0.8812 0.2326 -0.4116
vn 0.8916 0.1867 -0.4125
vn -0.9390 0.0136 0.3437
vn -0.9363 0.0138 0.3510
vn -0.3637 0.9053 0.2194
vn -0.3496 0.9207 0.1734
vn -0.3200 0.9350 0.1527
vn -0.3213 0.9388 0.1241
vn -0.9355 0.0138 0.3529
vn -0.2271 0.9709 0.0757
vn 0.0041 1.0000 -0.0000
vn 0.0064 1.0000 -0.0012
vn -0.0380 0.9991 0.0205
vn 0.0747 0.9970 -0.0194
vn 0.0777 0.9968 -0.0206
vn 0.8982 0.3284 -0.2921
vn 0.7090 0.4320 -0.5574
vn 0.4632 0.8601 -0.2138
vn 0.6082 0.7434 -0.2784
vn 0.7755 0.5610 -0.2897
vn 0.8462 0.4492 -0.2867
vn -0.1953 0.9659 0.1700
vn 0.0737 0.9973 -0.0000
vn 0.1811 0.9823 -0.0479
vn 0.2035 0.9774 -0.0570
vn 0.2082 0.9762 -0.0615
vn 0.3810 0.9084 -0.1723
vn 0.4513 0.8678 -0.2080
vn 0.3571 0.9209 -0.1564
vn 0.2583 0.9606 -0.1027
vn 0.2575 0.9608 -0.1022
s 0
f 1//1 2//1 6//1
f 1//1 6//1 11//1
f 1//1 11//1 21//1
f 1//2 21//2 32//2
f 1//1 32//1 47//1
f 1//1 47//1 53//1
f 1//1 53//1 37//1
f 1//1 37//1 24//1
f 1//1 24//1 13//1
f 1//1 13//1 7//1
f 1//1 7//1 3//1
f 1//3 3//3 4//3
f 1//4 4//4 5//4
f 1//5 5//5 2//5
f 2//6 5//6 10//6
f 2//6 10//6 20//6
f 2//7 20//7 31//7
f 2//7 31//7 46//7
f 2//7 46//7 59//7
f 2//7 59//7 66//7
f 2//7 66//7 68//7
f 2//7 68//7 67//7
f 2//7 67//7 61//7
f 2//7 61//7 50//7
f 2//8 50//8 36//8
f 2//7 36//7 23//7
f 2//7 23//7 12//7
f 2//7 12//7 6//7
f 3//9 7//9 8//9
f 3//10 8//10 4//10
f 4//11 8//11 17//11
f 4//12 17//12 9//12
f 4//13 9//13 10//13
f 4//13 10//13 5//13
f 6//14 12//14 22//14
f 6//14 22//14 11//14
f 7//15 13//15 14//15
f 7//16 14//16 15//16
f 7//17 15//17 8//17
f 8//18 15//18 16//18
f 8//19 16//19 17//19
f 9//20 17//20 18//20
f 9//21 18//21 19//21
f 9//22 19//22 20//22
f 9//23 20//23 10//23
f 11//24 22//24 34//24
f 11//25 34//25 35//25
f 11//26 35//26 49//26
f 11//26 49//26 60//26
f 11//27 60//27 63//27
f 11//26 63//26 65//26
f 11//26 65//26 64//26
f 11//26 64//26 58//26
f 11//26 58//26 56//26
f 11//26 56//26 54//26
f 11//26 54//26 48//26
f 11//26 48//26 33//26
f 11//26 33//26 21//26
f 12//28 23//28 22//28
f 13//29 24//29 14//29
f 14//30 25//30 26//30
f 14//31 26//31 27//31
f 14//32 27//32 16//32
f 14//33 16//33 15//33
f 14//34 24//34 25//34
f 16//35 27//35 28//35
f 16//36 28//36 17//36
f 17//37 28//37 29//37
f 17//38 29//38 18//38
f 18//39 29//39 30//39
f 18//40 30//40 19//40
f 19//41 30//41 46//41
f 19//41 46//41 31//41
f 19//42 31//42 20//42
f 21//43 33//43 32//43
f 22//44 23//44 34//44
f 23//45 35//45 34//45
f 23//46 36//46 35//46
f 24//47 37//47 38//47
f 24//48 38//48 25//48
f 25//49 38//49 26//49
f 26//50 39//50 40//50
f 26//51 40//51 27//51
f 26//52 38//52 41//52
f 26//53 41//53 42//53
f 26//54 42//54 39//54
f 27//55 40//55 43//55
f 27//56 43//56 28//56
f 28//57 43//57 44//57
f 28//58 44//58 29//58
f 29//59 44//59 30//59
f 30//60 45//60 46//60
f 30//61 44//61 55//61
f 30//62 55//62 45//62
f 32//63 33//63 42//63
f 32//64 42//64 41//64
f 32//65 41//65 47//65
f 33//66 48//66 39//66
f 33//67 39//67 42//67
f 35//68 36//68 49//68
f 36//69 50//69 51//69
f 36//70 51//70 52//70
f 36//71 52//71 49//71
f 37//72 53//72 38//72
f 38//73 53//73 41//73
f 39//74 48//74 54//74
f 39//75 54//75 40//75
f 40//76 54//76 55//76
f 40//77 55//77 43//77
f 41//78 53//78 47//78
f 43//79 55//79 44//79
f 45//80 56//80 57//80
f 45//81 57//81 46//81
f 45//82 55//82 56//82
f 46//83 57//83 58//83
f 46//84 58//84 59//84
f 49//85 52//85 60//85
f 50//86 61//86 51//86
f 51//87 61//87 62//87
f 51//88 62//88 52//88
f 52//89 62//89 63//89
f 52//90 63//90 60//90
f 54//91 56//91 55//91
f 56//92 58//92 57//92
f 58//93 64//93 59//93
f 59//94 64//94 65//94
f 59//95 65//95 66//95
f 61//96 67//96 63//96
f 61//97 63//97 62//97
f 63//98 67//98 65//98
f 65//99 67//99 68//99
f 65//100 68//100 66//100
