# Blender 4.4.3
# www.blender.org
o socket9mm_collision_geom_2
v -0.085931 0.023750 -0.031279
v -0.082484 0.023750 -0.031279
v -0.085887 0.023750 -0.031182
v -0.085771 0.037918 -0.031279
v -0.080390 0.023750 -0.030285
v -0.082484 0.028327 -0.031279
v -0.085879 0.023750 -0.031164
v -0.085688 0.037918 -0.031132
v -0.085413 0.038100 -0.030665
v -0.085703 0.038145 -0.031279
v -0.085778 0.023750 -0.030978
v -0.080390 0.023750 -0.027450
v -0.080390 0.028236 -0.030285
v -0.082485 0.028582 -0.031279
v -0.085415 0.037918 -0.030660
v -0.085701 0.023750 -0.030842
v -0.085498 0.023750 -0.030492
v -0.085110 0.038140 -0.030269
v -0.085465 0.038145 -0.030849
v -0.085307 0.037918 -0.030487
v -0.085134 0.037918 -0.030238
v -0.085588 0.038185 -0.031204
v -0.085586 0.038201 -0.031279
v -0.080392 0.023750 -0.027450
v -0.080390 0.037575 -0.027608
v -0.080390 0.028582 -0.030285
v -0.082862 0.037353 -0.031279
v -0.085403 0.023750 -0.030336
v -0.084785 0.038150 -0.029901
v -0.084895 0.038194 -0.030155
v -0.085228 0.038164 -0.030531
v -0.084992 0.037918 -0.030065
v -0.084819 0.037918 -0.029859
v -0.084673 0.037918 -0.029686
v -0.085250 0.023750 -0.030139
v -0.085094 0.023750 -0.029945
v -0.085233 0.038241 -0.030849
v -0.085233 0.038278 -0.031194
v -0.085233 0.038275 -0.031279
v -0.080760 0.023750 -0.027494
v -0.080392 0.037572 -0.027608
v -0.080738 0.037572 -0.027649
v -0.080390 0.037918 -0.027618
v -0.080392 0.037918 -0.027618
v -0.082871 0.037572 -0.031279
v -0.081267 0.037226 -0.030328
v -0.081084 0.037572 -0.030196
v -0.080390 0.037572 -0.029761
v -0.084456 0.038154 -0.029551
v -0.084559 0.038202 -0.029796
v -0.084888 0.038270 -0.030503
v -0.084984 0.023750 -0.029812
v -0.084776 0.023750 -0.029566
v -0.084500 0.037918 -0.029507
v -0.084772 0.023750 -0.029561
v -0.084615 0.023750 -0.029392
v -0.084196 0.038279 -0.029811
v -0.080738 0.038280 -0.028083
v -0.080390 0.038276 -0.028085
v -0.080390 0.038226 -0.028430
v -0.084888 0.038236 -0.031279
v -0.081438 0.023750 -0.027615
v -0.081084 0.037918 -0.027713
v -0.081430 0.037918 -0.027774
v -0.080738 0.037918 -0.027658
v -0.080390 0.037919 -0.027619
v -0.080392 0.038186 -0.027769
v -0.080738 0.038186 -0.027788
v -0.081084 0.038184 -0.027813
v -0.081430 0.038167 -0.027842
v -0.082884 0.037652 -0.031279
v -0.080864 0.037775 -0.030016
v -0.080390 0.037798 -0.029698
v -0.084106 0.038150 -0.029223
v -0.084211 0.038202 -0.029448
v -0.084321 0.037918 -0.029334
v -0.084437 0.023750 -0.029227
v -0.083850 0.038276 -0.029465
v -0.082813 0.038279 -0.028774
v -0.082121 0.038278 -0.028428
v -0.081084 0.038278 -0.028083
v -0.080390 0.038186 -0.027769
v -0.080390 0.038276 -0.028083
v -0.080390 0.038057 -0.029074
v -0.080390 0.038053 -0.029090
v -0.080390 0.038050 -0.029100
v -0.080392 0.037928 -0.029465
v -0.084539 0.038164 -0.031279
v -0.081765 0.023750 -0.027704
v -0.081743 0.037918 -0.027859
v -0.081696 0.038132 -0.027876
v -0.081430 0.038262 -0.028083
v -0.082121 0.038185 -0.028129
v -0.082467 0.038159 -0.028190
v -0.082935 0.037785 -0.031279
v -0.080392 0.037800 -0.029697
v -0.080390 0.037926 -0.029467
v -0.083738 0.038140 -0.028898
v -0.083852 0.038194 -0.029113
v -0.083504 0.038269 -0.029120
v -0.084148 0.037918 -0.029188
v -0.084214 0.023750 -0.029040
v -0.082467 0.038255 -0.028428
v -0.083163 0.037866 -0.031279
v -0.083504 0.037940 -0.031279
v -0.081776 0.023750 -0.027707
v -0.082682 0.038121 -0.028233
v -0.082467 0.037918 -0.028124
v -0.082135 0.023750 -0.027835
v -0.082803 0.038185 -0.028419
v -0.083079 0.037838 -0.031279
v -0.083159 0.038145 -0.028542
v -0.083476 0.038162 -0.028779
v -0.083942 0.037918 -0.029015
v -0.083769 0.037918 -0.028873
v -0.083342 0.038100 -0.028595
v -0.083159 0.038239 -0.028774
v -0.084062 0.023750 -0.028914
v -0.082702 0.037918 -0.028222
v -0.082476 0.023750 -0.027961
v -0.083520 0.037918 -0.028700
v -0.083878 0.023750 -0.028766
v -0.083868 0.023750 -0.028757
v -0.083670 0.023750 -0.028605
v -0.083347 0.037918 -0.028592
v -0.083159 0.037918 -0.028483
v -0.082875 0.037918 -0.028319
v -0.083030 0.023750 -0.028229
v -0.082844 0.023750 -0.028128
v -0.083514 0.023750 -0.028509
v -0.083181 0.023750 -0.028316
vn -0.0000 -1.0000 -0.0000
vn -0.0000 -1.0000 -0.0013
vn -0.0000 -1.0000 -0.0001
vn -0.0000 -1.0000 0.0001
vn -0.0000 -1.0000 -0.0022
vn -0.9123 0.0103 0.4094
vn -0.0000 -0.0000 -1.0000
vn 0.4289 -0.0000 -0.9033
vn -0.9043 0.0103 0.4267
vn -0.8697 0.0609 0.4899
vn -0.8655 0.2599 0.4283
vn -0.8793 0.0105 0.4762
vn -0.8712 0.0108 0.4907
vn 1.0000 -0.0000 -0.0000
vn 1.0000 -0.0007 -0.0000
vn 0.4290 0.0009 -0.9033
vn -0.8654 0.0273 0.5003
vn -0.8690 0.0109 0.4946
vn -0.8658 0.0110 0.5003
vn -0.8657 0.0110 0.5004
vn -0.5529 0.7579 0.3462
vn -0.6384 0.6843 0.3524
vn -0.8478 0.0279 0.5295
vn -0.8182 0.0834 0.5688
vn -0.7914 0.1685 0.5876
vn -0.4627 0.8489 0.2555
vn -0.4230 0.8894 0.1734
vn -0.0000 0.0115 0.9999
vn 0.4290 0.0010 -0.9033
vn 0.4289 0.0184 -0.9032
vn -0.8528 0.0112 0.5221
vn -0.8481 0.0114 0.5297
vn -0.3856 0.8662 0.3178
vn -0.3555 0.9023 0.2437
vn -0.4373 0.8558 0.2763
vn -0.7611 0.1705 0.6258
vn -0.7528 0.1812 0.6329
vn -0.7517 0.1837 0.6334
vn -0.7298 0.2423 0.6393
vn -0.3814 0.8947 0.2324
vn -0.8210 0.0116 0.5707
vn -0.7917 0.0108 0.6108
vn -0.7781 0.0108 0.6281
vn -0.7723 0.0109 0.6351
vn -0.3651 0.9036 0.2239
vn -0.3286 0.9264 0.1839
vn -0.2350 0.9665 0.1034
vn -0.2049 0.9782 -0.0329
vn -0.0161 0.0114 0.9998
vn -0.1185 0.0114 0.9929
vn -0.1204 0.0113 0.9927
vn -0.0000 0.0297 0.9996
vn -0.0388 0.0291 0.9988
vn 0.4312 0.0192 -0.9021
vn 0.5168 0.0481 -0.8547
vn 0.5246 0.0489 -0.8499
vn 0.5301 0.0493 -0.8465
vn -0.3566 0.8761 0.3245
vn -0.3500 0.8854 0.3057
vn -0.7029 0.2718 0.6573
vn -0.2431 0.9482 0.2044
vn -0.2826 0.9379 0.2013
vn -0.3366 0.9141 0.2261
vn -0.7695 0.0110 0.6385
vn -0.7654 0.0110 0.6435
vn -0.7652 0.0110 0.6437
vn -0.7647 0.0111 0.6443
vn -0.6958 0.2578 0.6704
vn -0.7470 0.0111 0.6647
vn -0.7306 0.0111 0.6828
vn -0.7201 0.0114 0.6938
vn -0.1890 0.9764 0.1044
vn 0.0002 1.0000 -0.0011
vn 0.0121 0.9998 -0.0185
vn 0.0218 0.9992 -0.0335
vn -0.0451 0.9984 0.0328
vn 0.0933 0.9855 -0.1419
vn 0.1089 0.9797 -0.1685
vn -0.1712 0.0113 0.9852
vn -0.1741 0.0112 0.9847
vn -0.1759 0.0111 0.9843
vn -0.1142 0.0291 0.9930
vn -0.1185 0.0248 0.9927
vn -0.1583 0.0246 0.9871
vn -0.0000 0.4651 0.8853
vn -0.0204 0.4876 0.8728
vn -0.0491 0.4884 0.8712
vn -0.0668 0.4711 0.8795
vn -0.0961 0.4137 0.9053
vn -0.1054 0.3851 0.9168
vn 0.5176 0.0541 -0.8539
vn 0.5167 0.0808 -0.8524
vn 0.5128 0.1849 -0.8383
vn 0.5230 0.1710 -0.8350
vn 0.5358 0.2290 -0.8127
vn -0.3240 0.8762 0.3566
vn -0.3085 0.8997 0.3087
vn -0.6693 0.2577 0.6969
vn -0.6570 0.2709 0.7035
vn -0.1949 0.9612 0.1951
vn -0.1958 0.9633 0.1839
vn -0.6926 0.0114 0.7212
vn -0.6809 0.0111 0.7323
vn -0.0247 0.9992 0.0329
vn -0.0012 1.0000 0.0017
vn -0.1875 0.9626 0.1957
vn -0.0062 0.9998 0.0164
vn -0.0082 0.9997 0.0247
vn -0.0079 0.9556 0.2945
vn -0.0000 0.9577 0.2876
vn 0.0118 0.9615 0.2746
vn 0.0123 0.9999 -0.0000
vn 0.1610 0.9545 -0.2508
vn 0.1671 0.9500 -0.2636
vn 0.1684 0.9489 -0.2668
vn 0.1900 0.9307 -0.3126
vn 0.1931 0.9272 -0.3209
vn -0.2608 0.0110 0.9653
vn -0.2611 0.0110 0.9652
vn -0.1520 0.2788 0.9482
vn -0.1563 0.2734 0.9491
vn -0.1690 0.2420 0.9555
vn -0.2586 0.1313 0.9570
vn -0.0000 0.4897 0.8719
vn -0.0177 0.9491 0.3144
vn -0.0312 0.9439 0.3287
vn -0.0427 0.9435 0.3286
vn -0.0764 0.9271 0.3670
vn -0.1270 0.9223 0.3651
vn -0.1349 0.9135 0.3838
vn -0.1723 0.8508 0.4965
vn 0.5113 0.1950 -0.8370
vn 0.3677 0.7127 -0.5973
vn 0.3668 0.7178 -0.5918
vn 0.4382 0.7867 -0.4349
vn -0.3179 0.8660 0.3859
vn -0.3058 0.8853 0.3502
vn -0.6393 0.2417 0.7300
vn -0.2010 0.9498 0.2396
vn -0.1866 0.9605 0.2063
vn -0.6339 0.1878 0.7502
vn -0.6454 0.0111 0.7638
vn -0.6428 0.0110 0.7660
vn -0.0492 0.9964 0.0697
vn -0.0969 0.9814 0.1655
vn -0.0650 0.9888 0.1341
vn -0.0646 0.9827 0.1738
vn -0.0448 0.9899 0.1345
vn 0.3713 0.8803 -0.2952
vn 0.2652 0.8618 -0.4324
vn 0.1993 0.9208 -0.3354
vn 0.1988 0.9212 -0.3345
vn -0.2660 0.0110 0.9639
vn -0.3388 0.1466 0.9294
vn -0.3403 0.1402 0.9298
vn -0.3437 0.0111 0.9390
vn -0.3371 0.0109 0.9414
vn -0.2612 0.6658 0.6989
vn -0.1269 0.9235 0.3619
vn -0.1326 0.9204 0.3679
vn -0.1798 0.9134 0.3651
vn -0.2458 0.8558 0.4552
vn 0.2998 0.8190 -0.4892
vn 0.2852 0.8387 -0.4639
vn 0.2842 0.8399 -0.4625
vn -0.2621 0.8721 0.4132
vn -0.2378 0.9048 0.3532
vn -0.6320 0.1795 0.7539
vn -0.6263 0.1706 0.7607
vn -0.5871 0.1687 0.7917
vn -0.3486 0.7544 0.5561
vn -0.1980 0.9396 0.2791
vn -0.2265 0.9124 0.3411
vn -0.1277 0.9690 0.2113
vn -0.6424 0.0110 0.7663
vn -0.6381 0.0109 0.7699
vn -0.1838 0.9275 0.3254
vn -0.4807 0.0969 0.8715
vn -0.3830 0.0897 0.9194
vn -0.2539 0.8514 0.4590
vn -0.3523 0.7177 0.6006
vn -0.3846 0.0109 0.9230
vn -0.3454 0.0110 0.9384
vn -0.2248 0.9043 0.3630
vn -0.2289 0.9000 0.3709
vn -0.6356 0.0109 0.7720
vn -0.5682 0.0834 0.8186
vn -0.6281 0.0107 0.7780
vn -0.6247 0.0107 0.7808
vn -0.6114 0.0107 0.7912
vn -0.5702 0.0116 0.8214
vn -0.5278 0.0263 0.8489
vn -0.5024 0.0259 0.8643
vn -0.4991 0.0302 0.8660
vn -0.4911 0.0557 0.8693
vn -0.4919 0.0109 0.8706
vn -0.4768 0.0106 0.8790
vn -0.4138 0.0102 0.9103
vn -0.5280 0.0113 0.8492
vn -0.5219 0.0112 0.8529
vn -0.5025 0.0110 0.8645
vn -0.5007 0.0110 0.8655
vn -0.4996 0.0110 0.8662
vn -0.4993 0.0110 0.8663
s 0
f 1//1 2//1 5//1
f 1//1 5//1 12//1
f 1//2 12//2 24//2
f 1//1 24//1 40//1
f 1//1 40//1 62//1
f 1//1 62//1 89//1
f 1//3 89//3 106//3
f 1//1 106//1 109//1
f 1//1 109//1 120//1
f 1//1 120//1 129//1
f 1//1 129//1 128//1
f 1//3 128//3 131//3
f 1//1 131//1 130//1
f 1//1 130//1 124//1
f 1//1 124//1 123//1
f 1//1 123//1 122//1
f 1//1 122//1 118//1
f 1//1 118//1 102//1
f 1//1 102//1 77//1
f 1//1 77//1 56//1
f 1//1 56//1 55//1
f 1//3 55//3 53//3
f 1//1 53//1 52//1
f 1//1 52//1 36//1
f 1//1 36//1 35//1
f 1//1 35//1 28//1
f 1//4 28//4 17//4
f 1//1 17//1 16//1
f 1//1 16//1 11//1
f 1//1 11//1 7//1
f 1//5 7//5 3//5
f 1//6 3//6 4//6
f 1//7 4//7 10//7
f 1//7 10//7 23//7
f 1//7 23//7 39//7
f 1//7 39//7 61//7
f 1//7 61//7 88//7
f 1//7 88//7 105//7
f 1//7 105//7 104//7
f 1//7 104//7 111//7
f 1//7 111//7 95//7
f 1//7 95//7 71//7
f 1//7 71//7 45//7
f 1//7 45//7 27//7
f 1//7 27//7 14//7
f 1//7 14//7 6//7
f 1//7 6//7 2//7
f 2//8 6//8 13//8
f 2//8 13//8 5//8
f 3//9 7//9 4//9
f 4//10 8//10 9//10
f 4//11 9//11 10//11
f 4//12 7//12 11//12
f 4//13 11//13 8//13
f 5//14 13//14 26//14
f 5//14 26//14 48//14
f 5//14 48//14 73//14
f 5//14 73//14 97//14
f 5//14 97//14 86//14
f 5//14 86//14 85//14
f 5//14 85//14 84//14
f 5//14 84//14 60//14
f 5//14 60//14 59//14
f 5//15 59//15 83//15
f 5//14 83//14 82//14
f 5//14 82//14 66//14
f 5//14 66//14 43//14
f 5//14 43//14 25//14
f 5//14 25//14 12//14
f 6//16 14//16 13//16
f 8//17 15//17 9//17
f 8//18 11//18 16//18
f 8//19 16//19 17//19
f 8//20 17//20 15//20
f 9//21 18//21 19//21
f 9//22 19//22 10//22
f 9//23 15//23 20//23
f 9//24 20//24 21//24
f 9//25 21//25 18//25
f 10//26 19//26 22//26
f 10//27 22//27 23//27
f 12//28 25//28 24//28
f 13//29 14//29 26//29
f 14//30 27//30 26//30
f 15//31 17//31 28//31
f 15//32 28//32 20//32
f 18//33 29//33 30//33
f 18//34 30//34 31//34
f 18//35 31//35 19//35
f 18//36 21//36 32//36
f 18//37 32//37 33//37
f 18//38 33//38 34//38
f 18//39 34//39 29//39
f 19//40 31//40 22//40
f 20//41 28//41 21//41
f 21//42 28//42 35//42
f 21//43 35//43 36//43
f 21//44 36//44 32//44
f 22//45 31//45 37//45
f 22//46 37//46 23//46
f 23//47 37//47 38//47
f 23//48 38//48 39//48
f 24//49 25//49 41//49
f 24//50 41//50 42//50
f 24//51 42//51 40//51
f 25//52 43//52 44//52
f 25//53 44//53 41//53
f 26//54 27//54 45//54
f 26//55 45//55 46//55
f 26//56 46//56 47//56
f 26//57 47//57 48//57
f 29//58 49//58 50//58
f 29//59 50//59 30//59
f 29//60 34//60 49//60
f 30//61 50//61 51//61
f 30//62 51//62 37//62
f 30//63 37//63 31//63
f 32//64 36//64 52//64
f 32//65 52//65 33//65
f 33//66 52//66 53//66
f 33//67 53//67 34//67
f 34//68 54//68 49//68
f 34//69 53//69 55//69
f 34//70 55//70 56//70
f 34//71 56//71 54//71
f 37//72 51//72 38//72
f 38//73 57//73 58//73
f 38//74 58//74 59//74
f 38//75 59//75 39//75
f 38//76 51//76 57//76
f 39//77 59//77 60//77
f 39//78 60//78 61//78
f 40//79 42//79 63//79
f 40//80 63//80 64//80
f 40//81 64//81 62//81
f 41//82 44//82 65//82
f 41//83 65//83 42//83
f 42//84 65//84 63//84
f 43//85 66//85 44//85
f 44//86 66//86 67//86
f 44//87 67//87 68//87
f 44//88 68//88 69//88
f 44//89 69//89 70//89
f 44//90 70//90 65//90
f 45//91 47//91 46//91
f 45//92 71//92 47//92
f 47//93 71//93 72//93
f 47//94 72//94 48//94
f 48//95 72//95 73//95
f 49//96 74//96 75//96
f 49//97 75//97 50//97
f 49//98 54//98 76//98
f 49//99 76//99 74//99
f 50//100 75//100 57//100
f 50//101 57//101 51//101
f 54//102 56//102 76//102
f 56//103 77//103 76//103
f 57//104 78//104 79//104
f 57//105 79//105 58//105
f 57//106 75//106 78//106
f 58//107 79//107 80//107
f 58//108 80//108 81//108
f 58//109 81//109 67//109
f 58//110 67//110 82//110
f 58//111 82//111 83//111
f 58//112 83//112 59//112
f 60//113 84//113 61//113
f 61//114 84//114 85//114
f 61//115 85//115 86//115
f 61//116 86//116 87//116
f 61//117 87//117 88//117
f 62//118 64//118 90//118
f 62//119 90//119 89//119
f 63//120 65//120 70//120
f 63//121 70//121 91//121
f 63//122 91//122 64//122
f 64//123 91//123 90//123
f 66//124 82//124 67//124
f 67//125 81//125 68//125
f 68//126 81//126 69//126
f 69//127 81//127 92//127
f 69//128 92//128 70//128
f 70//129 92//129 93//129
f 70//130 93//130 94//130
f 70//131 94//131 91//131
f 71//132 95//132 72//132
f 72//133 95//133 73//133
f 73//134 95//134 96//134
f 73//135 96//135 97//135
f 74//136 98//136 99//136
f 74//137 99//137 75//137
f 74//138 76//138 98//138
f 75//139 99//139 100//139
f 75//140 100//140 78//140
f 76//141 101//141 98//141
f 76//142 77//142 101//142
f 77//143 102//143 101//143
f 78//144 100//144 79//144
f 79//145 100//145 103//145
f 79//146 103//146 80//146
f 80//147 103//147 92//147
f 80//148 92//148 81//148
f 86//149 97//149 87//149
f 87//150 97//150 104//150
f 87//151 104//151 105//151
f 87//152 105//152 88//152
f 89//153 90//153 106//153
f 90//154 91//154 107//154
f 90//155 107//155 108//155
f 90//156 108//156 109//156
f 90//157 109//157 106//157
f 91//158 94//158 107//158
f 92//159 103//159 93//159
f 93//160 103//160 94//160
f 94//161 103//161 110//161
f 94//162 110//162 107//162
f 95//163 111//163 96//163
f 96//164 111//164 97//164
f 97//165 111//165 104//165
f 98//166 112//166 113//166
f 98//167 113//167 99//167
f 98//168 101//168 114//168
f 98//169 114//169 115//169
f 98//170 115//170 116//170
f 98//171 116//171 112//171
f 99//172 117//172 100//172
f 99//173 113//173 117//173
f 100//174 117//174 103//174
f 101//175 102//175 114//175
f 102//176 118//176 114//176
f 103//177 117//177 110//177
f 107//178 116//178 119//178
f 107//179 119//179 108//179
f 107//180 110//180 112//180
f 107//181 112//181 116//181
f 108//182 119//182 120//182
f 108//183 120//183 109//183
f 110//184 117//184 113//184
f 110//185 113//185 112//185
f 114//186 118//186 115//186
f 115//187 121//187 116//187
f 115//188 118//188 122//188
f 115//189 122//189 123//189
f 115//190 123//190 124//190
f 115//191 124//191 121//191
f 116//192 121//192 125//192
f 116//193 125//193 126//193
f 116//194 126//194 127//194
f 116//195 127//195 119//195
f 119//196 127//196 128//196
f 119//197 128//197 129//197
f 119//198 129//198 120//198
f 121//199 124//199 125//199
f 124//200 130//200 125//200
f 125//201 130//201 126//201
f 126//202 130//202 131//202
f 126//203 131//203 128//203
f 126//204 128//204 127//204
