# Blender 4.4.3
# www.blender.org
o socket11mm_collision_geom_24
v -0.030228 0.022452 -0.027564
v -0.030228 0.022452 -0.031972
v -0.031156 0.022452 -0.027564
v -0.030228 0.009888 -0.027564
v -0.031156 0.022452 -0.029901
v -0.030228 0.011171 -0.031972
v -0.031156 0.010117 -0.027564
v -0.031156 0.010182 -0.029283
v -0.030228 0.010161 -0.030611
v -0.031156 0.010839 -0.029901
v -0.030228 0.010839 -0.031972
v -0.031156 0.010232 -0.029614
v -0.030228 0.010262 -0.031447
v -0.030228 0.010194 -0.030943
v -0.031156 0.010507 -0.029900
v -0.030228 0.010805 -0.031971
v -0.031156 0.010290 -0.029825
v -0.030228 0.010382 -0.031779
v -0.030228 0.010507 -0.031962
v -0.031156 0.010302 -0.029837
v -0.030228 0.010497 -0.031953
vn -0.0000 1.0000 -0.0000
vn -0.0000 -0.0000 1.0000
vn 1.0000 -0.0000 -0.0000
vn 1.0000 -0.0001 -0.0000
vn -0.9126 -0.0000 -0.4089
vn -1.0000 -0.0000 -0.0000
vn -0.2392 -0.9703 -0.0368
vn -0.1485 -0.9850 -0.0883
vn -0.9125 -0.0005 -0.4090
vn -0.2567 -0.9555 -0.1454
vn -0.2193 -0.9670 -0.1298
vn -0.1625 -0.9818 -0.0981
vn -0.9125 -0.0021 -0.4090
vn -0.9123 -0.0054 -0.4094
vn -0.4408 -0.8657 -0.2372
vn -0.5293 -0.7977 -0.2890
vn -0.9119 -0.0124 -0.4102
vn -0.9048 -0.1247 -0.4071
vn -0.8340 -0.3796 -0.4005
vn -0.7319 -0.5693 -0.3745
vn -0.8382 -0.3692 -0.4015
s 0
f 1//1 2//1 5//1
f 1//1 5//1 3//1
f 1//2 3//2 7//2
f 1//2 7//2 4//2
f 1//3 4//3 9//3
f 1//3 9//3 14//3
f 1//3 14//3 13//3
f 1//3 13//3 18//3
f 1//3 18//3 21//3
f 1//4 21//4 19//4
f 1//3 19//3 16//3
f 1//4 16//4 11//4
f 1//3 11//3 6//3
f 1//3 6//3 2//3
f 2//5 6//5 10//5
f 2//5 10//5 5//5
f 3//6 5//6 10//6
f 3//6 10//6 15//6
f 3//6 15//6 20//6
f 3//6 20//6 17//6
f 3//6 17//6 12//6
f 3//6 12//6 8//6
f 3//6 8//6 7//6
f 4//7 7//7 8//7
f 4//8 8//8 9//8
f 6//9 11//9 10//9
f 8//10 12//10 13//10
f 8//11 13//11 14//11
f 8//12 14//12 9//12
f 10//13 11//13 15//13
f 11//14 16//14 15//14
f 12//15 17//15 13//15
f 13//16 17//16 18//16
f 15//17 16//17 19//17
f 15//18 19//18 20//18
f 17//19 20//19 21//19
f 17//20 21//20 18//20
f 19//21 21//21 20//21
