# Blender 4.4.3
# www.blender.org
o socket11mm_collision_geom_14
v -0.034243 0.019801 -0.023099
v -0.033912 0.019801 -0.023113
v -0.033912 0.019989 -0.023127
v -0.034243 0.019998 -0.023121
v -0.034740 0.019901 -0.023110
v -0.034740 0.019801 -0.023099
v -0.034243 0.010175 -0.023099
v -0.033703 0.019801 -0.023134
v -0.033717 0.019975 -0.023136
v -0.033912 0.010175 -0.023113
v -0.033912 0.022452 -0.025459
v -0.034225 0.022452 -0.025425
v -0.034740 0.019998 -0.023121
v -0.034740 0.010175 -0.023099
v -0.034243 0.009518 -0.023100
v -0.033537 0.019469 -0.023163
v -0.032584 0.019801 -0.023331
v -0.033703 0.009518 -0.023134
v -0.033699 0.009518 -0.023135
v -0.032061 0.019981 -0.023464
v -0.032252 0.020012 -0.023438
v -0.032584 0.020049 -0.023402
v -0.033912 0.009518 -0.023113
v -0.033247 0.022452 -0.025577
v -0.034740 0.022452 -0.025425
v -0.034740 0.009842 -0.023100
v -0.034576 0.009518 -0.023100
v -0.033537 0.009518 -0.023163
v -0.032576 0.009518 -0.023333
v -0.032252 0.019801 -0.023403
v -0.032048 0.019801 -0.023460
v -0.031260 0.019801 -0.023747
v -0.031156 0.019801 -0.023785
v -0.031314 0.020013 -0.023766
v -0.032573 0.022452 -0.025743
v -0.032916 0.022452 -0.025642
v -0.034740 0.022452 -0.028182
v -0.034740 0.009518 -0.023101
v -0.032252 0.009518 -0.023403
v -0.032048 0.009518 -0.023460
v -0.032044 0.009518 -0.023461
v -0.031875 0.009518 -0.023522
v -0.031156 0.020100 -0.023954
v -0.031256 0.009518 -0.023748
v -0.031156 0.009518 -0.023785
v -0.031156 0.022452 -0.026359
v -0.031256 0.022452 -0.026302
v -0.031500 0.022452 -0.026166
v -0.031663 0.022452 -0.026085
v -0.031669 0.022452 -0.026082
v -0.031920 0.022452 -0.025981
v -0.031156 0.022452 -0.029901
v -0.034740 0.010507 -0.028182
v -0.034740 0.009518 -0.027672
v -0.031156 0.009518 -0.027359
v -0.031156 0.010790 -0.029901
v -0.031156 0.010507 -0.029899
v -0.034740 0.010300 -0.028151
v -0.031156 0.010290 -0.029826
v -0.032916 0.009518 -0.027515
v -0.031156 0.010303 -0.029837
v -0.031264 0.009518 -0.027369
v -0.032183 0.009518 -0.027450
vn 0.0400 0.0773 0.9962
vn 0.0228 0.1072 0.9940
vn 0.0003 0.1072 0.9942
vn -0.0000 0.1059 0.9944
vn -0.0000 -0.0000 1.0000
vn 0.0401 -0.0000 0.9992
vn 0.1017 0.0195 0.9946
vn 0.0499 0.0773 0.9958
vn 0.1017 -0.0000 0.9948
vn 0.0814 0.6853 0.7237
vn 0.0799 0.6854 0.7238
vn 0.0329 0.6840 0.7287
vn -0.0000 0.1086 0.9941
vn -0.0000 0.6845 0.7290
vn -1.0000 -0.0000 -0.0000
vn -0.0000 -0.0010 1.0000
vn 0.0401 -0.0010 0.9992
vn 0.1734 0.0019 0.9848
vn 0.1734 0.0252 0.9845
vn 0.1561 -0.0000 0.9877
vn 0.1697 -0.0000 0.9855
vn 0.1914 0.1603 0.9683
vn 0.1819 0.3394 0.9229
vn 0.1507 0.5793 0.8010
vn 0.1246 0.6840 0.7188
vn 0.0985 -0.0010 0.9951
vn -0.0000 1.0000 -0.0006
vn -0.0000 1.0000 -0.0000
vn -0.0000 1.0000 -0.0010
vn -0.0000 1.0000 0.0001
vn 0.1274 0.6846 0.7177
vn -0.0039 -0.0020 1.0000
vn -0.0000 -1.0000 -0.0021
vn -0.0000 -1.0000 -0.0000
vn -0.0000 -1.0000 0.0001
vn -0.0000 -1.0000 0.0008
vn 0.1700 -0.0000 0.9854
vn 0.1740 -0.0000 0.9847
vn 0.1741 -0.0000 0.9847
vn 0.2103 0.1078 0.9717
vn 0.2116 -0.0000 0.9774
vn 0.2677 0.0438 0.9625
vn 0.3418 0.0484 0.9385
vn 0.3418 0.0487 0.9385
vn 0.3607 0.1882 0.9135
vn 0.2471 0.6841 0.6863
vn 0.2086 0.6860 0.6970
vn 0.2060 0.6862 0.6976
vn 0.1528 0.6850 0.7123
vn 0.1408 0.6854 0.7144
vn -0.0040 -0.0021 1.0000
vn 0.2127 -0.0000 0.9771
vn 0.2679 -0.0000 0.9634
vn 0.2680 -0.0000 0.9634
vn 0.3258 -0.0000 0.9454
vn 0.3406 -0.0000 0.9402
vn 0.3422 -0.0000 0.9396
vn 0.3423 -0.0000 0.9396
vn 0.6075 0.3913 0.6913
vn 0.3426 -0.0000 0.9395
vn 0.3429 -0.0000 0.9394
vn 1.0000 -0.0000 -0.0000
vn 0.4032 0.6543 0.6398
vn 0.3723 0.6647 0.6477
vn 0.3618 0.6678 0.6505
vn 0.3294 0.6750 0.6602
vn 0.2850 0.6818 0.6738
vn 0.2729 0.6832 0.6774
vn 0.2493 0.6844 0.6852
vn -0.4324 -0.0000 -0.9017
vn -0.4321 -0.0042 -0.9018
vn -0.4281 -0.1355 -0.8935
vn 0.0259 -0.9539 -0.2991
vn -0.3721 -0.4844 -0.7918
vn -0.2910 -0.6378 -0.7131
vn 0.0277 -0.9540 -0.2986
vn -0.4100 -0.2677 -0.8719
vn 0.0264 -0.9540 -0.2987
vn 0.0263 -0.9540 -0.2988
s 0
f 1//1 2//1 3//1
f 1//2 3//2 4//2
f 1//3 4//3 5//3
f 1//4 5//4 6//4
f 1//5 6//5 14//5
f 1//5 14//5 7//5
f 1//6 7//6 10//6
f 1//6 10//6 2//6
f 2//7 8//7 9//7
f 2//8 9//8 3//8
f 2//9 10//9 18//9
f 2//9 18//9 8//9
f 3//10 9//10 11//10
f 3//11 11//11 12//11
f 3//12 12//12 4//12
f 4//13 13//13 5//13
f 4//14 12//14 25//14
f 4//14 25//14 13//14
f 5//15 13//15 25//15
f 5//15 25//15 37//15
f 5//15 37//15 53//15
f 5//15 53//15 58//15
f 5//15 58//15 54//15
f 5//15 54//15 38//15
f 5//15 38//15 26//15
f 5//15 26//15 14//15
f 5//15 14//15 6//15
f 7//16 14//16 27//16
f 7//16 27//16 15//16
f 7//17 15//17 23//17
f 7//17 23//17 10//17
f 8//18 16//18 17//18
f 8//19 17//19 9//19
f 8//20 18//20 19//20
f 8//21 19//21 16//21
f 9//22 17//22 20//22
f 9//23 20//23 21//23
f 9//24 21//24 22//24
f 9//25 22//25 11//25
f 10//26 23//26 18//26
f 11//27 24//27 36//27
f 11//28 36//28 35//28
f 11//28 35//28 51//28
f 11//28 51//28 50//28
f 11//29 50//29 49//29
f 11//28 49//28 48//28
f 11//28 48//28 47//28
f 11//30 47//30 46//30
f 11//28 46//28 52//28
f 11//28 52//28 37//28
f 11//28 37//28 25//28
f 11//28 25//28 12//28
f 11//31 22//31 24//31
f 14//32 26//32 27//32
f 15//33 27//33 38//33
f 15//34 38//34 54//34
f 15//34 54//34 60//34
f 15//34 60//34 63//34
f 15//34 63//34 62//34
f 15//34 62//34 55//34
f 15//34 55//34 45//34
f 15//34 45//34 44//34
f 15//34 44//34 42//34
f 15//34 42//34 41//34
f 15//35 41//35 40//35
f 15//34 40//34 39//34
f 15//34 39//34 29//34
f 15//34 29//34 28//34
f 15//34 28//34 19//34
f 15//36 19//36 18//36
f 15//34 18//34 23//34
f 16//37 19//37 28//37
f 16//38 28//38 29//38
f 16//39 29//39 17//39
f 17//40 30//40 20//40
f 17//41 29//41 30//41
f 20//42 30//42 31//42
f 20//43 31//43 32//43
f 20//44 32//44 33//44
f 20//45 33//45 34//45
f 20//46 34//46 35//46
f 20//47 35//47 21//47
f 21//48 35//48 36//48
f 21//49 36//49 22//49
f 22//50 36//50 24//50
f 26//51 38//51 27//51
f 29//52 39//52 30//52
f 30//53 39//53 40//53
f 30//54 40//54 31//54
f 31//55 40//55 41//55
f 31//56 41//56 42//56
f 31//57 42//57 32//57
f 32//58 42//58 33//58
f 33//59 43//59 34//59
f 33//60 42//60 44//60
f 33//61 44//61 45//61
f 33//62 45//62 55//62
f 33//62 55//62 59//62
f 33//62 59//62 61//62
f 33//62 61//62 57//62
f 33//62 57//62 56//62
f 33//62 56//62 52//62
f 33//62 52//62 46//62
f 33//62 46//62 43//62
f 34//63 43//63 46//63
f 34//64 46//64 47//64
f 34//65 47//65 48//65
f 34//66 48//66 49//66
f 34//67 49//67 50//67
f 34//68 50//68 51//68
f 34//69 51//69 35//69
f 37//70 52//70 56//70
f 37//70 56//70 53//70
f 53//71 56//71 57//71
f 53//72 57//72 58//72
f 54//73 59//73 60//73
f 54//74 58//74 61//74
f 54//75 61//75 59//75
f 55//76 62//76 59//76
f 57//77 61//77 58//77
f 59//78 62//78 63//78
f 59//79 63//79 60//79
