# Blender 4.4.3
# www.blender.org
o socket10mm_collision_geom_5
v -0.053893 0.022759 -0.029029
v -0.052752 0.022759 -0.029857
v -0.053893 0.022759 -0.026196
v -0.053893 0.027438 -0.029029
v -0.049549 0.022759 -0.029857
v -0.052752 0.027438 -0.029857
v -0.053585 0.022759 -0.026296
v -0.053884 0.036070 -0.026300
v -0.053893 0.036070 -0.026298
v -0.053893 0.036070 -0.028410
v -0.052959 0.036070 -0.029355
v -0.052793 0.036070 -0.029494
v -0.049670 0.022759 -0.029613
v -0.049655 0.036401 -0.029857
v -0.049710 0.036401 -0.029740
v -0.052086 0.036070 -0.029857
v -0.053553 0.022759 -0.026307
v -0.053569 0.036401 -0.026407
v -0.053884 0.036401 -0.026303
v -0.053893 0.036401 -0.026301
v -0.053893 0.036360 -0.028263
v -0.053087 0.036268 -0.029164
v -0.052767 0.036266 -0.029478
v -0.052055 0.036214 -0.029857
v -0.049847 0.022759 -0.029306
v -0.049972 0.036401 -0.029286
v -0.049694 0.036609 -0.029857
v -0.049718 0.036588 -0.029754
v -0.053233 0.022759 -0.026425
v -0.053220 0.036401 -0.026536
v -0.053619 0.036611 -0.026425
v -0.053893 0.036638 -0.026379
v -0.053893 0.036533 -0.027935
v -0.051650 0.036451 -0.029857
v -0.051951 0.036318 -0.029857
v -0.052009 0.036286 -0.029857
v -0.051379 0.036544 -0.029857
v -0.050011 0.022759 -0.029023
v -0.050068 0.036401 -0.029120
v -0.049737 0.036634 -0.029857
v -0.050004 0.036624 -0.029340
v -0.050363 0.036604 -0.028743
v -0.052915 0.022759 -0.026549
v -0.052888 0.036401 -0.026671
v -0.052694 0.036588 -0.026777
v -0.052888 0.036629 -0.026732
v -0.053884 0.036645 -0.026383
v -0.053893 0.036645 -0.026383
v -0.053893 0.036607 -0.027647
v -0.050654 0.036708 -0.029857
v -0.050896 0.036656 -0.029857
v -0.050993 0.036634 -0.029857
v -0.050026 0.022759 -0.028999
v -0.050182 0.036401 -0.028951
v -0.050115 0.022759 -0.028858
v -0.049899 0.036700 -0.029857
v -0.049896 0.036651 -0.029632
v -0.050200 0.036675 -0.029251
v -0.050290 0.036640 -0.028951
v -0.050565 0.036655 -0.028627
v -0.050677 0.036616 -0.028390
v -0.050790 0.036401 -0.028192
v -0.050651 0.036401 -0.028358
v -0.050485 0.036401 -0.028556
v -0.050346 0.036401 -0.028722
v -0.052558 0.022759 -0.026726
v -0.052680 0.036401 -0.026769
v -0.051684 0.036604 -0.027422
v -0.052281 0.036624 -0.027062
v -0.052226 0.036401 -0.027031
v -0.052061 0.036401 -0.027127
v -0.052573 0.036651 -0.026955
v -0.052888 0.036720 -0.026959
v -0.053220 0.036659 -0.026666
v -0.053884 0.036737 -0.026627
v -0.053893 0.036734 -0.026620
v -0.053893 0.036697 -0.027291
v -0.050564 0.036722 -0.029857
v -0.050310 0.022759 -0.028612
v -0.049990 0.036727 -0.029857
v -0.050564 0.036731 -0.028951
v -0.050887 0.036667 -0.028282
v -0.050992 0.036624 -0.028050
v -0.050956 0.036401 -0.028015
v -0.050848 0.022759 -0.027992
v -0.050579 0.022759 -0.028292
v -0.050573 0.022759 -0.028298
v -0.050364 0.022759 -0.028547
v -0.052554 0.022759 -0.026729
v -0.051331 0.036616 -0.027736
v -0.051568 0.036655 -0.027625
v -0.051892 0.036640 -0.027349
v -0.051892 0.036401 -0.027240
v -0.051663 0.036401 -0.027405
v -0.051497 0.036401 -0.027544
v -0.051134 0.036401 -0.027849
v -0.052192 0.036675 -0.027259
v -0.052255 0.022759 -0.026901
v -0.051992 0.022759 -0.027054
v -0.051964 0.022759 -0.027070
v -0.051800 0.022759 -0.027174
v -0.051892 0.036731 -0.027623
v -0.052556 0.036748 -0.027291
v -0.053220 0.036751 -0.026959
v -0.053893 0.036737 -0.026627
v -0.053893 0.036698 -0.027282
v -0.053893 0.036744 -0.026959
v -0.050322 0.036745 -0.029857
v -0.050232 0.036748 -0.029857
v -0.050232 0.036748 -0.029615
v -0.050896 0.036741 -0.028619
v -0.051228 0.036748 -0.028287
v -0.051224 0.036667 -0.027946
v -0.050932 0.022759 -0.027907
v -0.050889 0.022759 -0.027948
v -0.051554 0.022759 -0.027368
v -0.051243 0.022759 -0.027629
v -0.051233 0.022759 -0.027638
v -0.051560 0.036741 -0.027955
v -0.053552 0.036749 -0.026959
v -0.053893 0.036744 -0.026950
vn -0.0000 -1.0000 -0.0000
vn -0.0000 -1.0000 0.0001
vn -0.0000 -1.0000 -0.0001
vn -1.0000 -0.0000 -0.0000
vn -1.0000 0.0001 -0.0000
vn -0.5876 -0.0000 -0.8091
vn -0.0000 -0.0000 -1.0000
vn -0.0001 -0.0000 -1.0000
vn 0.3105 0.0073 0.9505
vn 0.2236 0.0075 0.9746
vn -0.7105 0.0504 -0.7019
vn -0.6420 0.0406 -0.7656
vn -0.5873 0.0313 -0.8087
vn 0.9037 0.0070 0.4282
vn 0.8956 0.0068 0.4447
vn -0.4565 0.0353 -0.8890
vn 0.3138 0.0073 0.9495
vn 0.3136 0.0082 0.9495
vn 0.2246 0.0084 0.9744
vn 0.2235 0.0084 0.9747
vn 0.3145 0.0073 0.9492
vn -0.6875 0.3267 -0.6486
vn -0.6951 0.2126 -0.6868
vn -0.6813 0.2296 -0.6951
vn -0.6357 0.1452 -0.7581
vn -0.4581 0.1321 -0.8791
vn -0.4545 0.0981 -0.8853
vn 0.8660 0.0072 0.4999
vn 0.8658 0.0072 0.5004
vn 0.9486 0.1802 0.2602
vn 0.9014 0.0712 0.4271
vn 0.8636 0.0749 0.4986
vn 0.3451 0.0073 0.9385
vn 0.3430 0.1606 0.9255
vn 0.3099 0.1538 0.9382
vn 0.3475 0.0074 0.9377
vn 0.2157 0.2731 0.9375
vn 0.1868 0.3076 0.9330
vn -0.5143 0.6749 -0.5292
vn -0.3933 0.8138 -0.4278
vn -0.3240 0.7341 -0.5968
vn -0.3530 0.6527 -0.6704
vn -0.4362 0.2734 -0.8573
vn -0.2760 0.8928 -0.3559
vn -0.2912 0.8468 -0.4451
vn 0.8653 0.0072 0.5011
vn 0.8651 0.0072 0.5015
vn 0.8627 0.0786 0.4996
vn 0.4835 0.8342 0.2653
vn 0.5266 0.7983 0.2922
vn 0.7238 0.5203 0.4531
vn 0.8228 0.2269 0.5211
vn 0.3646 0.0073 0.9311
vn 0.3705 0.1414 0.9180
vn 0.3540 0.1863 0.9165
vn 0.3743 0.0075 0.9273
vn 0.3003 0.5909 0.7488
vn 0.1874 0.8484 0.4951
vn 0.1875 0.3259 0.9266
vn 0.0670 0.4631 0.8838
vn -0.1963 0.9497 -0.2441
vn -0.2030 0.9452 -0.2558
vn -0.2130 0.9384 -0.2720
vn -0.2188 0.9345 -0.2808
vn 0.8499 0.0073 0.5269
vn 0.8185 0.1681 0.5493
vn 0.8303 0.0078 0.5573
vn 0.8457 0.0073 0.5336
vn 0.3681 0.9095 0.1934
vn 0.4239 0.8746 0.2353
vn 0.3311 0.9211 0.2050
vn 0.3326 0.9196 0.2091
vn 0.4555 0.8372 0.3027
vn 0.3833 0.8787 0.2846
vn 0.4023 0.8547 0.3282
vn 0.7343 0.2074 0.6464
vn 0.7588 0.1322 0.6378
vn 0.7588 0.1322 0.6377
vn 0.7599 0.1307 0.6368
vn 0.8063 0.1285 0.5773
vn 0.4453 0.0068 0.8954
vn 0.4303 0.0072 0.9027
vn 0.4292 0.0704 0.9004
vn 0.4577 0.5079 0.7297
vn 0.2925 0.7974 0.5278
vn 0.4982 0.0741 0.8639
vn 0.4996 0.0794 0.8626
vn 0.5212 0.2288 0.8222
vn 0.2311 0.8805 0.4139
vn 0.1965 0.9090 0.3677
vn 0.1570 0.9155 0.3704
vn 0.1673 0.8842 0.4360
vn 0.1295 0.9280 0.3494
vn 0.0267 0.9354 0.3525
vn 0.0098 0.9361 0.3516
vn -0.1945 0.9507 -0.2415
vn -0.1484 0.9718 -0.1833
vn 0.8131 0.0079 0.5821
vn 0.7847 0.0071 0.6198
vn 0.2838 0.9427 0.1754
vn 0.2976 0.9364 0.1858
vn 0.3222 0.9258 0.1976
vn 0.3111 0.9283 0.2037
vn 0.3099 0.9249 0.2202
vn 0.2743 0.9355 0.2225
vn 0.3735 0.8716 0.3174
vn 0.3778 0.8657 0.3285
vn 0.7177 0.2271 0.6583
vn 0.7125 0.2166 0.6674
vn 0.7298 0.0070 0.6836
vn 0.7438 0.0067 0.6684
vn 0.7595 0.0071 0.6504
vn 0.7655 0.0072 0.6434
vn 0.7655 0.0072 0.6433
vn 0.7659 0.0072 0.6429
vn 0.7661 0.0072 0.6427
vn 0.7665 0.0072 0.6422
vn 0.4510 0.0069 0.8925
vn 0.4995 0.0072 0.8663
vn 0.3275 0.8552 0.4017
vn 0.2859 0.8781 0.3837
vn 0.3044 0.8357 0.4571
vn 0.5489 0.1715 0.8181
vn 0.5788 0.1293 0.8052
vn 0.6360 0.1313 0.7604
vn 0.6374 0.1334 0.7589
vn 0.6460 0.2085 0.7343
vn 0.2088 0.9200 0.3317
vn 0.2038 0.9218 0.3299
vn 0.4998 0.0072 0.8661
vn 0.5011 0.0072 0.8653
vn 0.5021 0.0072 0.8648
vn 0.5065 0.0072 0.8622
vn 0.5340 0.0073 0.8455
vn 0.5571 0.0078 0.8304
vn 0.2004 0.9240 0.3258
vn 0.1903 0.9345 0.3008
vn 0.1279 0.9698 0.2077
vn 0.0890 0.9814 0.1699
vn 0.0882 0.9723 0.2165
vn 0.1294 0.9307 0.3422
vn -0.0000 0.9400 0.3411
vn -0.0000 0.9991 0.0421
vn -0.1184 0.9826 -0.1429
vn -0.0950 0.9886 -0.1165
vn -0.1134 0.9840 -0.1378
vn 0.0846 0.9964 -0.0000
vn 0.2127 0.9684 0.1303
vn 0.1062 0.9913 0.0777
vn 0.2301 0.9518 0.2027
vn 0.2233 0.9533 0.2033
vn 0.2221 0.9493 0.2225
vn 0.3001 0.9053 0.3007
vn 0.6578 0.2280 0.7178
vn 0.6678 0.2165 0.7121
vn 0.3271 0.8667 0.3767
vn 0.6841 0.0070 0.7294
vn 0.6857 0.0070 0.7278
vn 0.7281 0.0070 0.6854
vn 0.3166 0.8723 0.3726
vn 0.2229 0.9353 0.2747
vn 0.2206 0.9249 0.3096
vn 0.2035 0.9285 0.3107
vn 0.5837 0.0079 0.8119
vn 0.6201 0.0071 0.7845
vn 0.6416 0.0072 0.7670
vn 0.6429 0.0072 0.7659
vn 0.6431 0.0072 0.7657
vn 0.6446 0.0072 0.7645
vn 0.6680 0.0067 0.7441
vn 0.0777 0.9913 0.1063
vn 0.2031 0.9516 0.2305
vn 0.0618 0.9947 0.0824
vn 0.0124 0.9998 0.0165
vn 0.0028 1.0000 0.0021
vn 0.0009 1.0000 -0.0000
vn -0.0041 1.0000 -0.0052
vn -0.0041 0.9994 0.0329
vn -0.0155 0.9997 0.0212
vn -0.0161 0.9999 -0.0000
vn -0.0161 0.9997 -0.0189
vn -0.0304 0.9988 -0.0371
vn 0.0824 0.9947 0.0618
vn 0.2036 0.9532 0.2237
s 0
f 1//1 2//1 5//1
f 1//1 5//1 13//1
f 1//1 13//1 25//1
f 1//1 25//1 38//1
f 1//2 38//2 53//2
f 1//1 53//1 55//1
f 1//1 55//1 79//1
f 1//1 79//1 88//1
f 1//1 88//1 87//1
f 1//1 87//1 86//1
f 1//1 86//1 85//1
f 1//1 85//1 115//1
f 1//1 115//1 114//1
f 1//1 114//1 118//1
f 1//1 118//1 117//1
f 1//1 117//1 116//1
f 1//1 116//1 101//1
f 1//1 101//1 100//1
f 1//1 100//1 99//1
f 1//1 99//1 98//1
f 1//1 98//1 89//1
f 1//3 89//3 66//3
f 1//1 66//1 43//1
f 1//1 43//1 29//1
f 1//1 29//1 17//1
f 1//1 17//1 7//1
f 1//1 7//1 3//1
f 1//4 3//4 9//4
f 1//4 9//4 20//4
f 1//4 20//4 32//4
f 1//4 32//4 48//4
f 1//4 48//4 76//4
f 1//5 76//5 105//5
f 1//4 105//4 121//4
f 1//4 121//4 107//4
f 1//4 107//4 106//4
f 1//4 106//4 77//4
f 1//4 77//4 49//4
f 1//4 49//4 33//4
f 1//4 33//4 21//4
f 1//4 21//4 10//4
f 1//4 10//4 4//4
f 1//6 4//6 6//6
f 1//6 6//6 2//6
f 2//7 6//7 16//7
f 2//7 16//7 24//7
f 2//7 24//7 36//7
f 2//8 36//8 35//8
f 2//7 35//7 34//7
f 2//7 34//7 37//7
f 2//7 37//7 52//7
f 2//7 52//7 51//7
f 2//7 51//7 50//7
f 2//7 50//7 78//7
f 2//7 78//7 108//7
f 2//7 108//7 109//7
f 2//7 109//7 80//7
f 2//7 80//7 56//7
f 2//7 56//7 40//7
f 2//7 40//7 27//7
f 2//7 27//7 14//7
f 2//7 14//7 5//7
f 3//9 7//9 8//9
f 3//10 8//10 9//10
f 4//11 10//11 11//11
f 4//12 11//12 12//12
f 4//13 12//13 6//13
f 5//14 14//14 15//14
f 5//15 15//15 13//15
f 6//16 12//16 16//16
f 7//17 17//17 8//17
f 8//18 18//18 19//18
f 8//19 19//19 20//19
f 8//20 20//20 9//20
f 8//21 17//21 18//21
f 10//22 21//22 22//22
f 10//23 22//23 11//23
f 11//24 22//24 23//24
f 11//25 23//25 12//25
f 12//26 23//26 24//26
f 12//27 24//27 16//27
f 13//28 15//28 26//28
f 13//29 26//29 25//29
f 14//30 27//30 28//30
f 14//31 28//31 15//31
f 15//32 28//32 26//32
f 17//33 29//33 18//33
f 18//34 30//34 31//34
f 18//35 31//35 19//35
f 18//36 29//36 30//36
f 19//37 31//37 20//37
f 20//38 31//38 32//38
f 21//39 23//39 22//39
f 21//40 33//40 23//40
f 23//41 34//41 35//41
f 23//42 35//42 36//42
f 23//43 36//43 24//43
f 23//44 33//44 37//44
f 23//45 37//45 34//45
f 25//46 26//46 39//46
f 25//47 39//47 38//47
f 26//48 28//48 39//48
f 27//49 40//49 41//49
f 27//50 41//50 28//50
f 28//51 41//51 42//51
f 28//52 42//52 39//52
f 29//53 43//53 30//53
f 30//54 44//54 45//54
f 30//55 45//55 31//55
f 30//56 43//56 44//56
f 31//57 45//57 46//57
f 31//58 46//58 47//58
f 31//59 47//59 32//59
f 32//60 47//60 48//60
f 33//61 49//61 50//61
f 33//62 50//62 51//62
f 33//63 51//63 52//63
f 33//64 52//64 37//64
f 38//65 39//65 53//65
f 39//66 42//66 54//66
f 39//67 54//67 55//67
f 39//68 55//68 53//68
f 40//69 56//69 57//69
f 40//70 57//70 41//70
f 41//71 57//71 58//71
f 41//72 58//72 59//72
f 41//73 59//73 42//73
f 42//74 59//74 60//74
f 42//75 60//75 61//75
f 42//76 61//76 62//76
f 42//77 62//77 63//77
f 42//78 63//78 64//78
f 42//79 64//79 65//79
f 42//80 65//80 54//80
f 43//81 66//81 67//81
f 43//82 67//82 44//82
f 44//83 67//83 45//83
f 45//84 68//84 69//84
f 45//85 69//85 46//85
f 45//86 67//86 70//86
f 45//87 70//87 71//87
f 45//88 71//88 68//88
f 46//89 69//89 72//89
f 46//90 72//90 73//90
f 46//91 73//91 74//91
f 46//92 74//92 47//92
f 47//93 74//93 75//93
f 47//94 75//94 48//94
f 48//95 75//95 76//95
f 49//96 77//96 50//96
f 50//97 77//97 78//97
f 54//98 65//98 55//98
f 55//99 65//99 79//99
f 56//100 80//100 81//100
f 56//101 81//101 58//101
f 56//102 58//102 57//102
f 58//103 81//103 59//103
f 59//104 81//104 60//104
f 60//105 81//105 82//105
f 60//106 82//106 61//106
f 61//107 82//107 83//107
f 61//108 83//108 62//108
f 62//109 83//109 84//109
f 62//110 84//110 85//110
f 62//111 85//111 86//111
f 62//112 86//112 87//112
f 62//113 87//113 63//113
f 63//114 87//114 64//114
f 64//115 87//115 88//115
f 64//116 88//116 79//116
f 64//117 79//117 65//117
f 66//118 89//118 67//118
f 67//119 89//119 70//119
f 68//120 90//120 91//120
f 68//121 91//121 92//121
f 68//122 92//122 69//122
f 68//123 71//123 93//123
f 68//124 93//124 94//124
f 68//125 94//125 95//125
f 68//126 95//126 96//126
f 68//127 96//127 90//127
f 69//128 92//128 97//128
f 69//129 97//129 72//129
f 70//130 89//130 98//130
f 70//131 98//131 71//131
f 71//132 98//132 99//132
f 71//133 99//133 100//133
f 71//134 100//134 101//134
f 71//135 101//135 93//135
f 72//136 97//136 73//136
f 73//137 97//137 102//137
f 73//138 102//138 103//138
f 73//139 103//139 104//139
f 73//140 104//140 75//140
f 73//141 75//141 74//141
f 75//142 105//142 76//142
f 75//143 104//143 105//143
f 77//144 106//144 78//144
f 78//145 107//145 108//145
f 78//146 106//146 107//146
f 80//147 109//147 110//147
f 80//148 110//148 81//148
f 81//149 110//149 111//149
f 81//150 111//150 82//150
f 82//151 111//151 112//151
f 82//152 112//152 113//152
f 82//153 113//153 83//153
f 83//154 90//154 96//154
f 83//155 96//155 84//155
f 83//156 113//156 90//156
f 84//157 96//157 114//157
f 84//158 114//158 115//158
f 84//159 115//159 85//159
f 90//160 113//160 91//160
f 91//161 113//161 102//161
f 91//162 102//162 92//162
f 92//163 102//163 97//163
f 93//164 101//164 94//164
f 94//165 101//165 116//165
f 94//166 116//166 95//166
f 95//167 116//167 117//167
f 95//168 117//168 96//168
f 96//169 117//169 118//169
f 96//170 118//170 114//170
f 102//171 119//171 103//171
f 102//172 113//172 119//172
f 103//173 119//173 112//173
f 103//174 112//174 104//174
f 104//175 112//175 110//175
f 104//176 110//176 109//176
f 104//177 109//177 120//177
f 104//178 120//178 105//178
f 105//179 120//179 121//179
f 107//180 121//180 120//180
f 107//181 120//181 109//181
f 107//182 109//182 108//182
f 110//183 112//183 111//183
f 112//184 119//184 113//184
