# Blender 4.4.3
# www.blender.org
o socket8mm_collision_geom_16
v -0.098123 0.022840 -0.037826
v -0.098123 0.022840 -0.038870
v -0.100647 0.022840 -0.037826
v -0.098123 0.010069 -0.037826
v -0.098145 0.022840 -0.038870
v -0.098123 0.019998 -0.042418
v -0.098145 0.019998 -0.042418
v -0.100647 0.022840 -0.038088
v -0.100647 0.010113 -0.037826
v -0.100137 0.010102 -0.037826
v -0.098123 0.004199 -0.037907
v -0.098473 0.022840 -0.038829
v -0.098477 0.019988 -0.042411
v -0.098123 0.019802 -0.042438
v -0.098145 0.019802 -0.042438
v -0.100500 0.022840 -0.038176
v -0.100647 0.020052 -0.041859
v -0.100647 0.004020 -0.038130
v -0.100021 0.004003 -0.038077
v -0.098145 0.004199 -0.037908
v -0.100598 0.010111 -0.037826
v -0.100469 0.010107 -0.037826
v -0.100647 0.003866 -0.038139
v -0.099473 0.003947 -0.038053
v -0.099141 0.003943 -0.038039
v -0.098123 0.003955 -0.037988
v -0.098785 0.022840 -0.038773
v -0.098671 0.019975 -0.042402
v -0.099805 0.020046 -0.042136
v -0.098477 0.019802 -0.042425
v -0.098123 0.003535 -0.042438
v -0.098145 0.003535 -0.042438
v -0.100482 0.022840 -0.038187
v -0.100327 0.019981 -0.042074
v -0.100647 0.019921 -0.041921
v -0.100179 0.022840 -0.038339
v -0.100148 0.022840 -0.038354
v -0.099826 0.022840 -0.038478
v -0.100647 0.003716 -0.038212
v -0.100469 0.003866 -0.038130
v -0.098123 0.003937 -0.037994
v -0.099167 0.022840 -0.038698
v -0.099805 0.019802 -0.042206
v -0.100137 0.020012 -0.042099
v -0.098685 0.019802 -0.042404
v -0.098477 0.003535 -0.042425
v -0.098123 0.003522 -0.042437
v -0.098145 0.003337 -0.042418
v -0.098477 0.003347 -0.042411
v -0.099509 0.022840 -0.038595
v -0.099473 0.022840 -0.038608
v -0.100137 0.019802 -0.042134
v -0.100339 0.019802 -0.042078
v -0.100647 0.019802 -0.041963
v -0.100647 0.003601 -0.038282
v -0.098123 0.003797 -0.038230
v -0.099214 0.022840 -0.038684
v -0.099141 0.019469 -0.042324
v -0.099805 0.003535 -0.042206
v -0.098685 0.003535 -0.042404
v -0.098671 0.003360 -0.042402
v -0.098123 0.003337 -0.042418
v -0.098145 0.003247 -0.042231
v -0.098477 0.003256 -0.042231
v -0.099473 0.003279 -0.042161
v -0.099805 0.003291 -0.042136
v -0.100137 0.003535 -0.042134
v -0.100647 0.019469 -0.041966
v -0.100339 0.003535 -0.042078
v -0.100647 0.003514 -0.038445
v -0.098123 0.003787 -0.038247
v -0.099141 0.003866 -0.042324
v -0.100327 0.003356 -0.042074
v -0.100137 0.003324 -0.042099
v -0.098123 0.003247 -0.042231
v -0.099141 0.003185 -0.041899
v -0.099473 0.003187 -0.041899
v -0.099805 0.003199 -0.041899
v -0.100137 0.003233 -0.041899
v -0.100647 0.003289 -0.041858
v -0.100647 0.003866 -0.041966
v -0.100647 0.003535 -0.041963
v -0.100647 0.003451 -0.038591
v -0.098123 0.003720 -0.038445
v -0.098123 0.003185 -0.041899
v -0.100469 0.003185 -0.041567
v -0.100647 0.003193 -0.041567
v -0.098123 0.003393 -0.039456
v -0.100647 0.003345 -0.038965
v -0.098123 0.003249 -0.039907
v -0.098123 0.003185 -0.040571
v -0.100647 0.003185 -0.041235
v -0.100647 0.003268 -0.039243
v -0.100647 0.003203 -0.039575
v -0.098123 0.003191 -0.040239
v -0.098809 0.003187 -0.040239
v -0.100469 0.003185 -0.039907
v -0.100647 0.003185 -0.039907
v -0.100137 0.003187 -0.039907
vn -0.0000 1.0000 -0.0000
vn -0.0000 1.0000 0.0001
vn -0.0000 1.0000 -0.0001
vn -0.0000 -0.0000 1.0000
vn 1.0000 -0.0000 -0.0000
vn 1.0000 0.0002 -0.0000
vn -0.0000 0.7805 -0.6252
vn -0.0131 0.7804 -0.6251
vn -1.0000 -0.0000 -0.0000
vn -1.0000 -0.0001 -0.0000
vn -0.0002 -0.0138 0.9999
vn -0.0353 0.7800 -0.6247
vn -0.0769 0.7801 -0.6209
vn -0.0000 0.1053 -0.9944
vn -0.0000 0.1054 -0.9944
vn -0.0234 0.1052 -0.9942
vn -0.3354 0.7576 -0.5600
vn -0.0860 -0.0497 0.9951
vn -0.0842 -0.0495 0.9952
vn -0.0825 -0.0488 0.9954
vn -0.0006 -0.0139 0.9999
vn -0.0823 -0.0670 0.9944
vn -0.0811 -0.0778 0.9937
vn -0.0501 -0.2868 0.9567
vn -0.0450 -0.3105 0.9495
vn -0.0435 -0.3153 0.9480
vn -0.0004 -0.0138 0.9999
vn -0.0829 0.7797 -0.6207
vn -0.0967 0.7791 -0.6194
vn -0.1104 0.7807 -0.6151
vn -0.0407 0.0748 -0.9964
vn -0.0514 0.0747 -0.9959
vn -0.0000 -0.0000 -1.0000
vn -0.0408 -0.0000 -0.9992
vn -0.3321 0.7583 -0.5610
vn -0.4554 0.3783 -0.8059
vn -0.2871 0.7692 -0.5709
vn -0.2748 0.7712 -0.5743
vn -0.2266 0.7778 -0.5863
vn -0.2207 0.7782 -0.5880
vn -0.0861 -0.0554 0.9947
vn -0.0454 -0.4399 0.8969
vn -0.0481 -0.3099 0.9495
vn -0.0449 -0.3396 0.9395
vn -0.0428 -0.3425 0.9386
vn -0.0425 -0.3680 0.9288
vn -0.1208 0.7812 -0.6124
vn -0.1915 0.1597 -0.9684
vn -0.1810 0.3502 -0.9190
vn -0.1480 0.5963 -0.7890
vn -0.0992 0.0211 -0.9948
vn -0.1739 0.0270 -0.9844
vn -0.1475 0.7808 -0.6071
vn -0.0992 -0.0000 -0.9951
vn -0.0000 -0.1002 -0.9950
vn -0.0025 -0.1043 -0.9945
vn -0.0233 -0.1042 -0.9943
vn -0.0406 -0.0740 -0.9964
vn -0.2165 0.7786 -0.5890
vn -0.2141 0.7787 -0.5898
vn -0.2062 0.7792 -0.5920
vn -0.2115 0.1038 -0.9719
vn -0.2661 0.0427 -0.9630
vn -0.3497 0.0478 -0.9356
vn -0.4560 0.2984 -0.8384
vn -0.0288 -0.5158 0.8562
vn -0.0381 -0.4469 0.8938
vn 0.0562 -0.8577 0.5110
vn -0.1739 0.7810 -0.5998
vn -0.1740 0.0004 -0.9847
vn -0.1742 -0.0000 -0.9847
vn -0.2126 -0.0000 -0.9771
vn -0.1765 0.7810 -0.5990
vn -0.1737 -0.0000 -0.9848
vn -0.0514 -0.0740 -0.9959
vn -0.0992 -0.0208 -0.9949
vn -0.0000 -0.1045 -0.9945
vn -0.0000 -0.9003 -0.4352
vn -0.0000 -0.9002 -0.4355
vn -0.0261 -0.8999 -0.4353
vn -0.0350 -0.8932 -0.4483
vn -0.0520 -0.8925 -0.4479
vn -0.0692 -0.8587 -0.5077
vn -0.0832 -0.8195 -0.5670
vn -0.2663 -0.0000 -0.9639
vn -0.3501 0.0089 -0.9367
vn -0.3416 -0.0000 -0.9398
vn -0.3416 -0.0000 -0.9399
vn 0.0588 -0.8822 0.4672
vn 0.0577 -0.8710 0.4879
vn -0.1740 -0.0004 -0.9847
vn -0.1739 -0.0267 -0.9844
vn -0.1917 -0.1591 -0.9685
vn -0.2115 -0.1038 -0.9719
vn -0.1449 -0.6139 -0.7760
vn -0.1826 -0.3342 -0.9247
vn -0.0000 -0.9832 -0.1823
vn -0.0000 -0.9832 -0.1824
vn -0.0057 -0.9800 -0.1989
vn -0.0278 -0.9586 -0.2833
vn -0.0332 -0.9538 -0.2985
vn -0.0459 -0.9369 -0.3467
vn -0.0605 -0.9299 -0.3629
vn -0.0967 -0.9272 -0.3619
vn -0.1311 -0.9050 -0.4047
vn -0.1336 -0.9011 -0.4124
vn -0.2661 -0.0427 -0.9630
vn -0.3509 -0.0479 -0.9352
vn -0.3513 -0.0102 -0.9362
vn 0.0676 -0.9144 0.3992
vn 0.0821 -0.9434 0.3212
vn -0.2135 -0.7960 -0.5664
vn -0.4731 -0.3436 -0.8113
vn -0.0058 -0.9997 -0.0232
vn -0.0000 -1.0000 -0.0000
vn -0.0345 -0.9934 -0.1094
vn -0.0999 -0.9576 -0.2702
vn -0.0427 -0.9912 -0.1257
vn -0.1276 -0.9418 -0.3111
vn 0.0835 -0.9482 0.3066
vn 0.0647 -0.9603 0.2715
vn 0.0825 -0.9491 0.3039
vn -0.0430 -0.9988 -0.0231
vn 0.0626 -0.9619 0.2661
vn 0.0433 -0.9802 0.1932
vn 0.0405 -0.9844 0.1712
vn 0.0056 -0.9998 0.0174
vn 0.0040 -0.9999 0.0140
vn -0.0000 -0.9986 0.0521
vn 0.0058 -0.9985 0.0552
vn 0.0128 -0.9977 0.0659
vn 0.0058 -0.9997 0.0236
vn 0.0056 -0.9997 0.0222
s 0
f 1//1 2//1 5//1
f 1//1 5//1 12//1
f 1//1 12//1 27//1
f 1//1 27//1 42//1
f 1//1 42//1 57//1
f 1//1 57//1 51//1
f 1//1 51//1 50//1
f 1//1 50//1 38//1
f 1//1 38//1 37//1
f 1//2 37//2 36//2
f 1//1 36//1 33//1
f 1//3 33//3 16//3
f 1//1 16//1 8//1
f 1//1 8//1 3//1
f 1//4 3//4 9//4
f 1//4 9//4 21//4
f 1//4 21//4 22//4
f 1//4 22//4 10//4
f 1//4 10//4 4//4
f 1//5 4//5 11//5
f 1//5 11//5 26//5
f 1//5 26//5 41//5
f 1//5 41//5 56//5
f 1//5 56//5 71//5
f 1//5 71//5 84//5
f 1//5 84//5 88//5
f 1//5 88//5 90//5
f 1//5 90//5 95//5
f 1//5 95//5 91//5
f 1//5 91//5 85//5
f 1//5 85//5 75//5
f 1//5 75//5 62//5
f 1//5 62//5 47//5
f 1//6 47//6 31//6
f 1//5 31//5 14//5
f 1//5 14//5 6//5
f 1//5 6//5 2//5
f 2//7 6//7 7//7
f 2//8 7//8 5//8
f 3//9 8//9 17//9
f 3//10 17//10 35//10
f 3//9 35//9 54//9
f 3//9 54//9 68//9
f 3//9 68//9 81//9
f 3//9 81//9 82//9
f 3//9 82//9 80//9
f 3//9 80//9 87//9
f 3//9 87//9 92//9
f 3//9 92//9 98//9
f 3//9 98//9 94//9
f 3//9 94//9 93//9
f 3//9 93//9 89//9
f 3//9 89//9 83//9
f 3//9 83//9 70//9
f 3//9 70//9 55//9
f 3//9 55//9 39//9
f 3//9 39//9 23//9
f 3//9 23//9 18//9
f 3//9 18//9 9//9
f 4//11 10//11 11//11
f 5//12 7//12 13//12
f 5//13 13//13 12//13
f 6//14 14//14 15//14
f 6//15 15//15 7//15
f 7//16 15//16 13//16
f 8//17 16//17 17//17
f 9//18 18//18 19//18
f 9//19 19//19 20//19
f 9//20 20//20 11//20
f 9//21 11//21 21//21
f 10//11 22//11 11//11
f 11//22 20//22 19//22
f 11//23 19//23 23//23
f 11//24 23//24 24//24
f 11//25 24//25 25//25
f 11//26 25//26 26//26
f 11//27 22//27 21//27
f 12//28 13//28 28//28
f 12//29 28//29 29//29
f 12//30 29//30 27//30
f 13//31 15//31 30//31
f 13//32 30//32 28//32
f 14//33 31//33 32//33
f 14//33 32//33 15//33
f 15//34 32//34 46//34
f 15//34 46//34 30//34
f 16//35 33//35 17//35
f 17//36 34//36 35//36
f 17//37 33//37 36//37
f 17//38 36//38 37//38
f 17//39 37//39 38//39
f 17//40 38//40 34//40
f 18//41 23//41 19//41
f 23//42 39//42 40//42
f 23//43 40//43 24//43
f 24//44 40//44 25//44
f 25//45 41//45 26//45
f 25//46 40//46 41//46
f 27//47 29//47 42//47
f 28//48 43//48 34//48
f 28//49 34//49 44//49
f 28//50 44//50 29//50
f 28//51 30//51 45//51
f 28//52 45//52 43//52
f 29//53 44//53 42//53
f 30//54 46//54 60//54
f 30//54 60//54 45//54
f 31//55 47//55 32//55
f 32//56 47//56 48//56
f 32//57 48//57 49//57
f 32//58 49//58 46//58
f 34//59 38//59 50//59
f 34//60 50//60 51//60
f 34//61 51//61 44//61
f 34//62 43//62 52//62
f 34//63 52//63 53//63
f 34//64 53//64 54//64
f 34//65 54//65 35//65
f 39//66 55//66 41//66
f 39//67 41//67 40//67
f 41//68 55//68 56//68
f 42//69 44//69 57//69
f 43//70 45//70 58//70
f 43//71 58//71 72//71
f 43//71 72//71 59//71
f 43//72 59//72 67//72
f 43//72 67//72 52//72
f 44//73 51//73 57//73
f 45//74 60//74 72//74
f 45//74 72//74 58//74
f 46//75 49//75 61//75
f 46//76 61//76 60//76
f 47//77 62//77 48//77
f 48//78 62//78 75//78
f 48//79 75//79 63//79
f 48//80 63//80 64//80
f 48//81 64//81 49//81
f 49//82 64//82 65//82
f 49//83 65//83 66//83
f 49//84 66//84 61//84
f 52//85 67//85 69//85
f 52//85 69//85 53//85
f 53//86 68//86 54//86
f 53//87 69//87 81//87
f 53//88 81//88 68//88
f 55//89 70//89 71//89
f 55//90 71//90 56//90
f 59//91 72//91 60//91
f 59//92 60//92 61//92
f 59//93 61//93 73//93
f 59//94 73//94 67//94
f 61//95 66//95 74//95
f 61//96 74//96 73//96
f 63//97 75//97 85//97
f 63//98 85//98 76//98
f 63//99 76//99 77//99
f 63//100 77//100 64//100
f 64//101 77//101 78//101
f 64//102 78//102 65//102
f 65//103 78//103 66//103
f 66//104 78//104 79//104
f 66//105 79//105 80//105
f 66//106 80//106 74//106
f 67//107 73//107 69//107
f 69//108 73//108 82//108
f 69//109 82//109 81//109
f 70//110 83//110 71//110
f 71//111 83//111 84//111
f 73//112 74//112 80//112
f 73//113 80//113 82//113
f 76//114 86//114 77//114
f 76//115 85//115 91//115
f 76//115 91//115 97//115
f 76//115 97//115 98//115
f 76//115 98//115 92//115
f 76//115 92//115 86//115
f 77//116 86//116 78//116
f 78//117 87//117 79//117
f 78//118 86//118 87//118
f 79//119 87//119 80//119
f 83//120 88//120 84//120
f 83//121 89//121 90//121
f 83//122 90//122 88//122
f 86//123 92//123 87//123
f 89//124 93//124 90//124
f 90//125 93//125 94//125
f 90//126 94//126 95//126
f 91//127 95//127 96//127
f 91//128 96//128 97//128
f 94//129 98//129 97//129
f 94//130 97//130 99//130
f 94//131 99//131 95//131
f 95//132 99//132 97//132
f 95//133 97//133 96//133
