# Blender 4.4.3
# www.blender.org
o socket10mm_collision_geom_1
v -0.056208 0.022759 -0.025965
v -0.056540 0.022759 -0.026000
v -0.056201 0.022759 -0.025965
v -0.056201 0.036401 -0.026066
v -0.056208 0.036401 -0.026066
v -0.056888 0.022759 -0.026061
v -0.056536 0.036401 -0.026101
v -0.056201 0.022759 -0.028632
v -0.056201 0.036405 -0.026066
v -0.056201 0.036612 -0.026097
v -0.056482 0.036594 -0.026110
v -0.056939 0.022759 -0.026070
v -0.056701 0.036401 -0.026130
v -0.058660 0.022759 -0.029847
v -0.056201 0.027107 -0.028632
v -0.056201 0.036704 -0.026295
v -0.056208 0.036704 -0.026295
v -0.056208 0.036612 -0.026098
v -0.057204 0.036659 -0.026348
v -0.057536 0.036645 -0.026383
v -0.057801 0.036611 -0.026425
v -0.057536 0.036401 -0.026303
v -0.057204 0.036401 -0.026226
v -0.057204 0.022759 -0.026119
v -0.057204 0.036070 -0.026218
v -0.058660 0.027107 -0.029847
v -0.058660 0.022759 -0.026626
v -0.058660 0.027438 -0.029846
v -0.056201 0.027438 -0.028630
v -0.056201 0.036748 -0.026627
v -0.056872 0.036751 -0.026627
v -0.057204 0.036751 -0.026627
v -0.057536 0.036737 -0.026627
v -0.058200 0.036659 -0.026666
v -0.058532 0.036629 -0.026732
v -0.058660 0.036601 -0.026762
v -0.058200 0.036401 -0.026536
v -0.057851 0.036401 -0.026407
v -0.057536 0.036070 -0.026300
v -0.057298 0.022759 -0.026137
v -0.058509 0.022759 -0.026551
v -0.058660 0.036401 -0.026731
v -0.058660 0.036070 -0.029195
v -0.057204 0.036070 -0.028639
v -0.056943 0.036070 -0.028519
v -0.056201 0.036070 -0.028060
v -0.056201 0.036748 -0.026634
v -0.058532 0.036748 -0.027291
v -0.058200 0.036751 -0.026959
v -0.058532 0.036720 -0.026959
v -0.058660 0.036692 -0.026957
v -0.058532 0.036401 -0.026671
v -0.058326 0.022759 -0.026476
v -0.058187 0.022759 -0.026424
v -0.057900 0.022759 -0.026319
v -0.057866 0.022759 -0.026307
v -0.057519 0.022759 -0.026193
v -0.057503 0.022759 -0.026188
v -0.058505 0.022759 -0.026549
v -0.058660 0.036256 -0.029155
v -0.056976 0.036274 -0.028495
v -0.056201 0.036071 -0.028060
v -0.058660 0.036723 -0.027623
v -0.056201 0.036704 -0.026959
v -0.058660 0.036748 -0.027291
v -0.058660 0.036274 -0.029143
v -0.056201 0.036330 -0.027963
v -0.056372 0.036237 -0.028122
v -0.057204 0.036305 -0.028541
v -0.056201 0.036519 -0.027636
v -0.058660 0.036660 -0.027955
v -0.056201 0.036703 -0.026966
v -0.058660 0.036360 -0.028934
v -0.057204 0.036416 -0.028287
v -0.058660 0.036483 -0.028620
v -0.058660 0.036555 -0.028401
v -0.056201 0.036571 -0.027470
v -0.058660 0.036594 -0.028240
v -0.056201 0.036618 -0.027295
v -0.058660 0.036570 -0.028340
vn -0.0000 -1.0000 -0.0000
vn -0.0000 -1.0000 -0.0013
vn -0.0000 -1.0000 0.0005
vn -0.0000 -1.0000 -0.0001
vn -0.0000 -1.0000 0.0015
vn -0.0000 -1.0000 -0.0002
vn -0.0000 -1.0000 0.0003
vn 0.0556 0.0073 0.9984
vn -0.0000 0.0074 1.0000
vn -0.1047 0.0073 0.9945
vn -0.1061 0.0074 0.9943
vn -0.1734 0.0073 0.9848
vn 1.0000 -0.0000 -0.0000
vn 1.0000 0.0005 -0.0000
vn 1.0000 0.0001 -0.0000
vn -0.0000 0.0916 0.9958
vn -0.0348 0.1489 0.9882
vn -0.0550 0.1494 0.9873
vn -0.1058 0.0783 0.9913
vn -0.1743 0.0074 0.9847
vn -0.1751 0.0971 0.9798
vn -0.1760 0.0074 0.9844
vn 0.4431 -0.0000 -0.8965
vn -0.0000 0.9073 0.4205
vn -0.0235 0.9068 0.4209
vn -0.0552 0.1496 0.9872
vn -0.0788 0.8757 0.4763
vn -0.0891 0.8596 0.5032
vn -0.1970 0.4874 0.8507
vn -0.2206 0.2668 0.9382
vn -0.2183 0.2483 0.9438
vn -0.1867 0.1106 0.9762
vn -0.1774 0.0074 0.9841
vn -0.1805 0.0074 0.9835
vn -0.1878 0.0236 0.9819
vn -1.0000 -0.0000 -0.0000
vn 0.4431 0.0010 -0.8965
vn 0.4433 0.0031 -0.8964
vn 0.0041 0.9914 0.1308
vn -0.0000 0.9903 0.1389
vn -0.0000 0.9904 0.1383
vn -0.0399 0.9661 0.2551
vn -0.0604 0.9404 0.3347
vn -0.0634 0.9051 0.4204
vn -0.0759 0.9333 0.3511
vn -0.1295 0.9281 0.3491
vn -0.1671 0.8847 0.4353
vn -0.1876 0.8480 0.4956
vn -0.3003 0.5907 0.7489
vn -0.3597 0.2002 0.9114
vn -0.3433 0.1617 0.9252
vn -0.3092 0.1548 0.9383
vn -0.3129 0.0087 0.9497
vn -0.2390 0.0089 0.9710
vn -0.2253 0.0235 0.9740
vn -0.1864 0.0073 0.9824
vn -0.2390 0.0076 0.9710
vn -0.4455 0.0069 0.8952
vn 0.3557 0.0703 -0.9320
vn 0.4193 0.0560 -0.9061
vn 0.4428 0.0496 -0.8952
vn 0.5251 0.0561 -0.8492
vn 0.0041 1.0000 -0.0000
vn 0.0040 0.9999 -0.0140
vn 0.0028 0.9999 -0.0111
vn -0.0000 1.0000 -0.0000
vn -0.0409 0.9916 0.1228
vn -0.0883 0.9723 0.2166
vn -0.1294 0.9308 0.3420
vn -0.1569 0.9157 0.3699
vn -0.1991 0.9087 0.3670
vn -0.2801 0.8715 0.4026
vn -0.4256 0.1360 0.8946
vn -0.3686 0.1803 0.9119
vn -0.3747 0.0076 0.9271
vn -0.3482 0.0074 0.9374
vn -0.3479 0.0074 0.9375
vn -0.3439 0.0073 0.9390
vn -0.3416 0.0073 0.9398
vn -0.3143 0.0073 0.9493
vn -0.3117 0.0073 0.9502
vn -0.2619 0.0075 0.9651
vn -0.2441 0.0075 0.9697
vn -0.4204 0.0072 0.9073
vn -0.4296 0.0072 0.9030
vn 0.3495 0.1981 -0.9158
vn 0.3512 0.2447 -0.9038
vn 0.4140 0.1680 -0.8946
vn 0.5175 0.1781 -0.8369
vn 0.5226 0.2260 -0.8221
vn 0.0234 0.9963 -0.0829
vn 0.0437 0.9901 -0.1334
vn -0.0000 1.0000 -0.0082
vn -0.0000 0.9973 -0.0740
vn -0.0898 0.9892 0.1162
vn -0.2144 0.9632 0.1621
vn -0.3795 0.0075 0.9252
vn 0.3083 0.5128 -0.8012
vn 0.5017 0.3926 -0.7708
vn 0.5226 0.2331 -0.8201
vn 0.2228 0.7841 -0.5793
vn 0.2072 0.8756 -0.4363
vn 0.2708 0.8335 -0.4816
vn 0.5615 0.2901 -0.7750
vn 0.0579 0.9808 -0.1863
vn 0.0618 0.9789 -0.1948
vn 0.1322 0.9167 -0.3771
vn 0.1445 0.9067 -0.3963
vn 0.1640 0.9039 -0.3951
vn 0.1093 0.9454 -0.3071
vn 0.1064 0.9488 -0.2974
vn 0.1190 0.9361 -0.3309
vn 0.0733 0.9718 -0.2239
vn 0.0874 0.9645 -0.2492
vn 0.0819 0.9673 -0.2399
vn 0.0806 0.9679 -0.2379
vn 0.1259 0.9231 -0.3634
vn 0.0907 0.9623 -0.2564
s 0
f 1//1 2//1 6//1
f 1//2 6//2 12//2
f 1//1 12//1 24//1
f 1//3 24//3 40//3
f 1//4 40//4 58//4
f 1//5 58//5 57//5
f 1//4 57//4 56//4
f 1//6 56//6 55//6
f 1//1 55//1 54//1
f 1//1 54//1 53//1
f 1//1 53//1 59//1
f 1//7 59//7 41//7
f 1//1 41//1 27//1
f 1//1 27//1 14//1
f 1//1 14//1 8//1
f 1//1 8//1 3//1
f 1//8 3//8 4//8
f 1//9 4//9 5//9
f 1//10 5//10 2//10
f 2//11 5//11 7//11
f 2//12 7//12 6//12
f 3//13 8//13 15//13
f 3//13 15//13 29//13
f 3//13 29//13 46//13
f 3//14 46//14 62//14
f 3//13 62//13 67//13
f 3//13 67//13 70//13
f 3//13 70//13 77//13
f 3//13 77//13 79//13
f 3//13 79//13 72//13
f 3//13 72//13 64//13
f 3//13 64//13 47//13
f 3//13 47//13 30//13
f 3//13 30//13 16//13
f 3//13 16//13 10//13
f 3//13 10//13 9//13
f 3//15 9//15 4//15
f 4//16 9//16 5//16
f 5//17 9//17 10//17
f 5//18 10//18 11//18
f 5//19 11//19 7//19
f 6//20 7//20 12//20
f 7//21 11//21 13//21
f 7//22 13//22 12//22
f 8//23 14//23 26//23
f 8//23 26//23 15//23
f 10//24 16//24 17//24
f 10//25 17//25 18//25
f 10//26 18//26 11//26
f 11//27 18//27 19//27
f 11//28 19//28 20//28
f 11//29 20//29 21//29
f 11//30 21//30 22//30
f 11//31 22//31 23//31
f 11//32 23//32 13//32
f 12//33 13//33 25//33
f 12//34 25//34 24//34
f 13//35 23//35 25//35
f 14//36 27//36 42//36
f 14//36 42//36 36//36
f 14//36 36//36 51//36
f 14//36 51//36 65//36
f 14//36 65//36 63//36
f 14//36 63//36 71//36
f 14//36 71//36 78//36
f 14//36 78//36 80//36
f 14//36 80//36 76//36
f 14//36 76//36 75//36
f 14//36 75//36 73//36
f 14//36 73//36 66//36
f 14//36 66//36 60//36
f 14//36 60//36 43//36
f 14//36 43//36 28//36
f 14//36 28//36 26//36
f 15//37 26//37 28//37
f 15//38 28//38 29//38
f 16//39 30//39 31//39
f 16//40 31//40 32//40
f 16//41 32//41 17//41
f 17//42 32//42 33//42
f 17//43 33//43 19//43
f 17//44 19//44 18//44
f 19//45 33//45 20//45
f 20//46 33//46 34//46
f 20//47 34//47 35//47
f 20//48 35//48 21//48
f 21//49 35//49 36//49
f 21//50 36//50 37//50
f 21//51 37//51 38//51
f 21//52 38//52 22//52
f 22//53 38//53 39//53
f 22//54 39//54 25//54
f 22//55 25//55 23//55
f 24//56 25//56 40//56
f 25//57 39//57 40//57
f 27//58 41//58 42//58
f 28//59 43//59 44//59
f 28//60 44//60 45//60
f 28//61 45//61 29//61
f 29//62 45//62 46//62
f 30//63 47//63 31//63
f 31//64 47//64 48//64
f 31//65 48//65 49//65
f 31//66 49//66 32//66
f 32//67 49//67 33//67
f 33//68 49//68 50//68
f 33//69 50//69 34//69
f 34//70 50//70 35//70
f 35//71 50//71 51//71
f 35//72 51//72 36//72
f 36//73 42//73 52//73
f 36//74 52//74 37//74
f 37//75 52//75 53//75
f 37//76 53//76 54//76
f 37//77 54//77 38//77
f 38//78 54//78 55//78
f 38//79 55//79 56//79
f 38//80 56//80 39//80
f 39//81 56//81 57//81
f 39//82 57//82 58//82
f 39//83 58//83 40//83
f 41//84 59//84 52//84
f 41//85 52//85 42//85
f 43//86 60//86 44//86
f 44//87 60//87 61//87
f 44//88 61//88 45//88
f 45//89 61//89 46//89
f 46//90 61//90 62//90
f 47//91 63//91 48//91
f 47//92 64//92 63//92
f 48//93 65//93 49//93
f 48//94 63//94 65//94
f 49//95 65//95 50//95
f 50//96 65//96 51//96
f 52//97 59//97 53//97
f 60//98 66//98 61//98
f 61//99 67//99 68//99
f 61//100 68//100 62//100
f 61//101 66//101 69//101
f 61//102 69//102 70//102
f 61//103 70//103 67//103
f 62//104 68//104 67//104
f 63//105 64//105 71//105
f 64//106 72//106 71//106
f 66//107 73//107 74//107
f 66//108 74//108 69//108
f 69//109 74//109 70//109
f 70//110 75//110 76//110
f 70//111 76//111 77//111
f 70//112 74//112 75//112
f 71//113 72//113 78//113
f 72//114 79//114 76//114
f 72//115 76//115 80//115
f 72//116 80//116 78//116
f 73//117 75//117 74//117
f 76//118 79//118 77//118
