# Blender 4.4.3
# www.blender.org
o socket8mm_collision_geom_2
v -0.103229 0.022840 -0.030260
v -0.099761 0.022840 -0.030260
v -0.103217 0.022840 -0.030236
v -0.102958 0.036401 -0.030114
v -0.103025 0.036401 -0.030260
v -0.098091 0.022840 -0.029513
v -0.099761 0.028103 -0.030260
v -0.103065 0.022840 -0.029933
v -0.102696 0.036401 -0.029660
v -0.102673 0.036616 -0.029700
v -0.102880 0.022840 -0.029613
v -0.102855 0.036663 -0.030260
v -0.098091 0.022840 -0.026666
v -0.098091 0.028103 -0.029513
v -0.099763 0.028361 -0.030260
v -0.098091 0.028435 -0.029512
v -0.102597 0.036401 -0.029494
v -0.102303 0.036578 -0.029107
v -0.102368 0.036621 -0.029283
v -0.102480 0.036669 -0.029600
v -0.102744 0.036650 -0.029947
v -0.102694 0.022840 -0.029305
v -0.102824 0.036676 -0.030260
v -0.098095 0.022840 -0.026666
v -0.098091 0.036070 -0.026852
v -0.099764 0.028435 -0.030260
v -0.100142 0.036070 -0.030260
v -0.098677 0.036070 -0.029430
v -0.098477 0.036070 -0.029300
v -0.098091 0.036068 -0.029045
v -0.102443 0.036401 -0.029283
v -0.101989 0.036597 -0.028754
v -0.102307 0.036401 -0.029102
v -0.102168 0.036401 -0.028936
v -0.102002 0.036401 -0.028738
v -0.102111 0.036628 -0.028978
v -0.102129 0.036712 -0.029283
v -0.102461 0.036741 -0.029947
v -0.102669 0.022840 -0.029271
v -0.102461 0.036749 -0.030260
v -0.098145 0.022840 -0.026668
v -0.098091 0.036401 -0.026862
v -0.098145 0.036070 -0.026854
v -0.100218 0.036275 -0.030260
v -0.098276 0.036262 -0.029141
v -0.098091 0.036282 -0.028971
v -0.102591 0.022840 -0.029166
v -0.101662 0.036597 -0.028427
v -0.101782 0.036639 -0.028633
v -0.101843 0.036401 -0.028572
v -0.102439 0.022840 -0.028971
v -0.102412 0.022840 -0.028939
v -0.102133 0.022840 -0.028611
v -0.102120 0.022840 -0.028595
v -0.101978 0.022840 -0.028437
v -0.101796 0.036726 -0.028951
v -0.102129 0.036751 -0.029615
v -0.098091 0.036751 -0.027291
v -0.098091 0.036725 -0.027623
v -0.102129 0.036725 -0.030260
v -0.098473 0.022840 -0.026708
v -0.098145 0.036401 -0.026864
v -0.098091 0.036658 -0.026999
v -0.098145 0.036658 -0.027000
v -0.098477 0.036401 -0.026903
v -0.098477 0.036070 -0.026896
v -0.100227 0.036293 -0.030260
v -0.098091 0.036332 -0.028946
v -0.101133 0.036621 -0.028048
v -0.101437 0.036628 -0.028305
v -0.101677 0.036401 -0.028414
v -0.101309 0.036578 -0.028113
v -0.101133 0.036712 -0.028287
v -0.101464 0.036726 -0.028619
v -0.101805 0.022840 -0.028283
v -0.100801 0.036751 -0.028287
v -0.098477 0.036751 -0.027291
v -0.098091 0.036714 -0.027677
v -0.101796 0.036663 -0.030260
v -0.098091 0.036655 -0.027955
v -0.098091 0.036646 -0.027994
v -0.098091 0.036590 -0.028204
v -0.098091 0.036480 -0.028619
v -0.098736 0.022840 -0.026756
v -0.098809 0.036401 -0.026956
v -0.098477 0.036658 -0.027017
v -0.098809 0.036652 -0.027042
v -0.099141 0.036627 -0.027075
v -0.100469 0.036387 -0.030260
v -0.100715 0.036616 -0.027743
v -0.100816 0.036669 -0.027935
v -0.101480 0.036401 -0.028248
v -0.101444 0.022840 -0.027977
v -0.101314 0.036401 -0.028108
v -0.101133 0.036401 -0.027972
v -0.100921 0.036401 -0.027819
v -0.100469 0.036741 -0.027955
v -0.099805 0.036744 -0.027623
v -0.100137 0.036751 -0.027955
v -0.099473 0.036751 -0.027623
v -0.098809 0.036744 -0.027291
v -0.099114 0.022840 -0.026830
v -0.099361 0.036594 -0.027105
v -0.099141 0.036401 -0.027025
v -0.099168 0.022840 -0.026840
v -0.099141 0.036718 -0.027291
v -0.099805 0.036652 -0.027357
v -0.100081 0.036620 -0.027407
v -0.100469 0.036650 -0.027672
v -0.100755 0.036401 -0.027720
v -0.100469 0.036401 -0.027555
v -0.100302 0.036401 -0.027458
v -0.101404 0.022840 -0.027945
v -0.101249 0.022840 -0.027826
v -0.101110 0.022840 -0.027722
v -0.100803 0.022840 -0.027536
v -0.100136 0.036401 -0.027382
v -0.099805 0.036401 -0.027252
v -0.099389 0.036401 -0.027095
v -0.099423 0.022840 -0.026916
v -0.100483 0.022840 -0.027351
v -0.100149 0.022840 -0.027184
v -0.100121 0.022840 -0.027172
v -0.099808 0.022840 -0.027053
v -0.099473 0.022840 -0.026930
vn -0.0000 -1.0000 -0.0000
vn -0.0000 -1.0000 -0.0002
vn -0.0000 -1.0000 0.0001
vn -0.0000 -1.0000 -0.0003
vn -0.8979 0.0132 0.4401
vn -0.9106 0.0137 0.4130
vn -0.0000 -0.0000 -1.0000
vn -0.0001 -0.0000 -1.0000
vn 0.4087 -0.0000 -0.9127
vn -0.8939 0.0130 0.4481
vn -0.8514 0.1832 0.4915
vn -0.8418 0.3816 0.3818
vn -0.8661 0.0135 0.4998
vn -0.8660 0.0135 0.4999
vn -0.8001 0.5175 0.3033
vn 1.0000 -0.0000 -0.0000
vn 0.4085 0.0032 -0.9128
vn 0.4087 0.0020 -0.9127
vn -0.8429 0.1848 0.5054
vn -0.8576 0.0134 0.5142
vn -0.5353 0.7535 0.3817
vn -0.3842 0.8830 0.2695
vn -0.3686 0.9006 0.2303
vn -0.7842 0.5430 0.3003
vn -0.8234 0.2120 0.5264
vn -0.8558 0.0134 0.5172
vn -0.3708 0.9129 0.1706
vn -0.0000 0.0140 0.9999
vn 0.4084 0.0056 -0.9128
vn 0.4083 0.0203 -0.9126
vn 0.4926 0.0472 -0.8690
vn 0.5445 0.0508 -0.8372
vn 0.5505 0.0510 -0.8332
vn -0.8079 0.0536 0.5869
vn -0.8089 0.0140 0.5877
vn -0.4625 0.8065 0.3683
vn -0.7998 0.0348 0.5993
vn -0.7657 0.0352 0.6422
vn -0.7649 0.0368 0.6431
vn -0.7456 0.1017 0.6586
vn -0.4486 0.8185 0.3589
vn -0.3436 0.8998 0.2688
vn -0.3447 0.9025 0.2584
vn -0.2793 0.9431 0.1802
vn -0.3018 0.9367 0.1776
vn -0.3030 0.9403 0.1553
vn -0.8078 0.0140 0.5893
vn -0.1981 0.9798 0.0256
vn -0.0354 0.0140 0.9993
vn -0.0389 0.0308 0.9988
vn -0.0389 0.0141 0.9991
vn 0.4853 0.1780 -0.8560
vn 0.4851 0.2486 -0.8383
vn 0.5411 0.1224 -0.8320
vn 0.5479 0.1126 -0.8289
vn 0.6390 0.2503 -0.7274
vn -0.8007 0.0139 0.5989
vn -0.8002 0.0139 0.5996
vn -0.4010 0.8233 0.4016
vn -0.3644 0.8742 0.3208
vn -0.7187 0.1022 0.6877
vn -0.7007 0.1287 0.7018
vn -0.7898 0.0136 0.6133
vn -0.7661 0.0136 0.6426
vn -0.7653 0.0136 0.6435
vn -0.7624 0.0135 0.6469
vn -0.7618 0.0134 0.6477
vn -0.7565 0.0135 0.6539
vn -0.7460 0.0135 0.6658
vn -0.7225 0.0141 0.6913
vn -0.3126 0.9107 0.2701
vn -0.3026 0.9155 0.2653
vn -0.1642 0.9786 0.1242
vn -0.1298 0.9863 0.1014
vn -0.0547 0.9982 0.0260
vn 0.0017 1.0000 -0.0030
vn 0.0524 0.9956 -0.0776
vn 0.0732 0.9910 -0.1121
vn -0.1225 0.0140 0.9924
vn -0.0171 0.4694 0.8828
vn -0.0344 0.4665 0.8838
vn -0.1158 0.0306 0.9928
vn -0.1262 0.0200 0.9918
vn -0.1262 0.0140 0.9919
vn 0.4837 0.2606 -0.8355
vn 0.3552 0.7177 -0.5990
vn 0.6111 0.3516 -0.7092
vn -0.3577 0.8200 0.4469
vn -0.3208 0.8739 0.3652
vn -0.6867 0.1024 0.7197
vn -0.6583 0.1019 0.7458
vn -0.3690 0.8056 0.4634
vn -0.2703 0.9103 0.3135
vn -0.2652 0.9154 0.3028
vn -0.2664 0.9263 0.2665
vn -0.6903 0.0141 0.7234
vn -0.6632 0.0135 0.7483
vn -0.0735 0.9946 0.0735
vn -0.0000 1.0000 -0.0000
vn -0.0734 0.9946 0.0735
vn -0.0000 0.9532 0.3022
vn 0.1284 0.9720 -0.1967
vn 0.1332 0.9699 -0.2040
vn 0.1514 0.9599 -0.2361
vn 0.1607 0.9540 -0.2532
vn 0.1611 0.9538 -0.2538
vn 0.1737 0.9422 -0.2864
vn -0.1649 0.0140 0.9862
vn -0.1780 0.0136 0.9839
vn -0.0459 0.4662 0.8835
vn -0.0727 0.4389 0.8956
vn -0.1078 0.3666 0.9241
vn -0.0060 0.9509 0.3095
vn -0.0166 0.9472 0.3204
vn -0.1590 0.0199 0.9871
vn -0.1209 0.3515 0.9283
vn -0.1530 0.2735 0.9496
vn 0.3082 0.7934 -0.5248
vn 0.2402 0.8854 -0.3979
vn -0.3824 0.7527 0.5359
vn -0.2699 0.8828 0.3846
vn -0.2586 0.9024 0.3446
vn -0.2691 0.8997 0.3436
vn -0.6438 0.0404 0.7642
vn -0.6476 0.0134 0.7619
vn -0.6442 0.0136 0.7647
vn -0.6414 0.0365 0.7663
vn -0.6007 0.0360 0.7987
vn -0.5858 0.0587 0.8083
vn -0.5266 0.2125 0.8231
vn -0.1803 0.9432 0.2791
vn -0.1246 0.9784 0.1648
vn -0.1010 0.9865 0.1293
vn -0.0205 0.9990 0.0409
vn -0.0368 0.9972 0.0654
vn -0.0205 0.9979 0.0613
vn -0.0205 0.9979 0.0614
vn -0.0194 0.9471 0.3204
vn 0.1924 0.9238 -0.3309
vn -0.1917 0.0135 0.9814
vn -0.1684 0.2526 0.9528
vn -0.1994 0.1730 0.9645
vn -0.2024 0.0137 0.9792
vn -0.1924 0.0135 0.9812
vn -0.0405 0.9384 0.3432
vn -0.0730 0.9367 0.3426
vn -0.1103 0.9156 0.3866
vn -0.1282 0.9136 0.3858
vn -0.1947 0.8226 0.5343
vn -0.1955 0.8211 0.5363
vn -0.2521 0.8482 0.4659
vn -0.2313 0.9001 0.3692
vn -0.5056 0.1855 0.8426
vn -0.4911 0.1837 0.8515
vn -0.4904 0.1848 0.8517
vn -0.4533 0.2579 0.8532
vn -0.1777 0.9368 0.3014
vn -0.6418 0.0136 0.7667
vn -0.6179 0.0136 0.7861
vn -0.6102 0.0136 0.7921
vn -0.6010 0.0138 0.7991
vn -0.5974 0.0138 0.8018
vn -0.5867 0.0140 0.8096
vn -0.5181 0.0133 0.8552
vn -0.5144 0.0134 0.8574
vn -0.1551 0.9404 0.3025
vn -0.0757 0.9710 0.2269
vn -0.1556 0.9345 0.3201
vn -0.1243 0.9387 0.3215
vn -0.3734 0.1953 0.9069
vn -0.3643 0.1386 0.9209
vn -0.3500 0.0976 0.9317
vn -0.2720 0.0878 0.9583
vn -0.2730 0.0136 0.9619
vn -0.2827 0.0134 0.9591
vn -0.1740 0.9169 0.3591
vn -0.4063 0.2017 0.8912
vn -0.5001 0.0135 0.8659
vn -0.4995 0.0135 0.8662
vn -0.4989 0.0135 0.8666
vn -0.4481 0.0130 0.8939
vn -0.4147 0.0137 0.9098
vn -0.3756 0.0139 0.9267
vn -0.3678 0.0140 0.9298
vn -0.3572 0.0138 0.9339
vn -0.3516 0.0138 0.9360
vn -0.3433 0.0136 0.9391
vn -0.2845 0.0134 0.9586
s 0
f 1//1 2//1 6//1
f 1//1 6//1 13//1
f 1//2 13//2 24//2
f 1//1 24//1 41//1
f 1//1 41//1 61//1
f 1//1 61//1 84//1
f 1//1 84//1 102//1
f 1//1 102//1 105//1
f 1//1 105//1 120//1
f 1//1 120//1 125//1
f 1//1 125//1 124//1
f 1//1 124//1 123//1
f 1//3 123//3 122//3
f 1//1 122//1 121//1
f 1//1 121//1 116//1
f 1//1 116//1 115//1
f 1//1 115//1 114//1
f 1//1 114//1 113//1
f 1//1 113//1 93//1
f 1//1 93//1 75//1
f 1//1 75//1 55//1
f 1//1 55//1 54//1
f 1//1 54//1 53//1
f 1//1 53//1 52//1
f 1//4 52//4 51//4
f 1//1 51//1 47//1
f 1//1 47//1 39//1
f 1//1 39//1 22//1
f 1//1 22//1 11//1
f 1//1 11//1 8//1
f 1//1 8//1 3//1
f 1//5 3//5 4//5
f 1//6 4//6 5//6
f 1//7 5//7 12//7
f 1//8 12//8 23//8
f 1//7 23//7 40//7
f 1//7 40//7 60//7
f 1//7 60//7 79//7
f 1//7 79//7 89//7
f 1//7 89//7 67//7
f 1//7 67//7 44//7
f 1//7 44//7 27//7
f 1//7 27//7 26//7
f 1//7 26//7 15//7
f 1//7 15//7 7//7
f 1//7 7//7 2//7
f 2//9 7//9 14//9
f 2//9 14//9 6//9
f 3//10 8//10 4//10
f 4//11 9//11 10//11
f 4//12 10//12 5//12
f 4//13 8//13 11//13
f 4//14 11//14 9//14
f 5//15 10//15 12//15
f 6//16 14//16 16//16
f 6//16 16//16 30//16
f 6//16 30//16 46//16
f 6//16 46//16 68//16
f 6//16 68//16 83//16
f 6//16 83//16 82//16
f 6//16 82//16 81//16
f 6//16 81//16 80//16
f 6//16 80//16 78//16
f 6//16 78//16 59//16
f 6//16 59//16 58//16
f 6//16 58//16 63//16
f 6//16 63//16 42//16
f 6//16 42//16 25//16
f 6//16 25//16 13//16
f 7//17 15//17 16//17
f 7//18 16//18 14//18
f 9//19 17//19 10//19
f 9//20 11//20 17//20
f 10//21 18//21 19//21
f 10//22 19//22 20//22
f 10//23 20//23 21//23
f 10//24 21//24 12//24
f 10//25 17//25 18//25
f 11//26 22//26 17//26
f 12//27 21//27 23//27
f 13//28 25//28 24//28
f 15//29 26//29 16//29
f 16//30 26//30 27//30
f 16//31 27//31 28//31
f 16//32 28//32 29//32
f 16//33 29//33 30//33
f 17//34 31//34 18//34
f 17//35 22//35 31//35
f 18//36 32//36 19//36
f 18//37 31//37 33//37
f 18//38 33//38 34//38
f 18//39 34//39 35//39
f 18//40 35//40 32//40
f 19//41 32//41 36//41
f 19//42 36//42 37//42
f 19//43 37//43 20//43
f 20//44 37//44 38//44
f 20//45 38//45 21//45
f 21//46 38//46 23//46
f 22//47 39//47 31//47
f 23//48 38//48 40//48
f 24//49 25//49 41//49
f 25//50 42//50 62//50
f 25//50 62//50 43//50
f 25//51 43//51 41//51
f 27//52 44//52 28//52
f 28//53 44//53 45//53
f 28//54 45//54 29//54
f 29//55 45//55 30//55
f 30//56 45//56 46//56
f 31//57 39//57 47//57
f 31//58 47//58 33//58
f 32//59 48//59 49//59
f 32//60 49//60 36//60
f 32//61 35//61 50//61
f 32//62 50//62 48//62
f 33//63 47//63 51//63
f 33//64 51//64 34//64
f 34//65 51//65 35//65
f 35//66 51//66 52//66
f 35//67 52//67 53//67
f 35//68 53//68 54//68
f 35//69 54//69 55//69
f 35//70 55//70 50//70
f 36//71 49//71 37//71
f 37//72 49//72 56//72
f 37//73 56//73 38//73
f 38//74 56//74 57//74
f 38//75 57//75 40//75
f 40//76 57//76 58//76
f 40//77 58//77 59//77
f 40//78 59//78 60//78
f 41//79 43//79 61//79
f 42//80 63//80 64//80
f 42//81 64//81 62//81
f 43//82 62//82 65//82
f 43//83 65//83 66//83
f 43//84 66//84 61//84
f 44//85 67//85 45//85
f 45//86 67//86 68//86
f 45//87 68//87 46//87
f 48//88 69//88 70//88
f 48//89 70//89 49//89
f 48//90 50//90 71//90
f 48//91 71//91 72//91
f 48//92 72//92 69//92
f 49//93 70//93 73//93
f 49//94 73//94 74//94
f 49//95 74//95 56//95
f 50//96 55//96 71//96
f 55//97 75//97 71//97
f 56//98 74//98 57//98
f 57//99 76//99 99//99
f 57//99 99//99 100//99
f 57//99 100//99 77//99
f 57//99 77//99 58//99
f 57//100 74//100 76//100
f 58//101 77//101 63//101
f 59//102 78//102 60//102
f 60//103 78//103 80//103
f 60//104 80//104 81//104
f 60//105 81//105 82//105
f 60//106 82//106 83//106
f 60//107 83//107 79//107
f 61//108 66//108 85//108
f 61//109 85//109 84//109
f 62//110 64//110 86//110
f 62//111 86//111 87//111
f 62//112 87//112 65//112
f 63//113 77//113 64//113
f 64//114 77//114 86//114
f 65//115 85//115 66//115
f 65//116 87//116 88//116
f 65//117 88//117 85//117
f 67//118 89//118 68//118
f 68//119 89//119 83//119
f 69//120 72//120 90//120
f 69//121 90//121 91//121
f 69//122 91//122 73//122
f 69//123 73//123 70//123
f 71//124 92//124 72//124
f 71//125 75//125 93//125
f 71//126 93//126 92//126
f 72//127 92//127 94//127
f 72//128 94//128 95//128
f 72//129 95//129 96//129
f 72//130 96//130 90//130
f 73//131 91//131 97//131
f 73//132 97//132 74//132
f 74//133 97//133 76//133
f 76//134 98//134 99//134
f 76//135 97//135 98//135
f 77//136 100//136 98//136
f 77//137 98//137 101//137
f 77//138 101//138 86//138
f 79//139 83//139 89//139
f 84//140 85//140 102//140
f 85//141 88//141 103//141
f 85//142 103//142 104//142
f 85//143 104//143 105//143
f 85//144 105//144 102//144
f 86//145 101//145 87//145
f 87//146 101//146 106//146
f 87//147 106//147 88//147
f 88//148 106//148 107//148
f 88//149 107//149 108//149
f 88//150 108//150 103//150
f 90//151 108//151 109//151
f 90//152 109//152 91//152
f 90//153 96//153 110//153
f 90//154 110//154 111//154
f 90//155 111//155 112//155
f 90//156 112//156 108//156
f 91//157 109//157 97//157
f 92//158 93//158 94//158
f 93//159 113//159 94//159
f 94//160 113//160 114//160
f 94//161 114//161 95//161
f 95//162 114//162 115//162
f 95//163 115//163 96//163
f 96//164 115//164 116//164
f 96//165 116//165 110//165
f 97//166 109//166 98//166
f 98//167 106//167 101//167
f 98//134 100//134 99//134
f 98//168 109//168 107//168
f 98//169 107//169 106//169
f 103//170 108//170 117//170
f 103//171 117//171 118//171
f 103//172 118//172 119//172
f 103//173 119//173 104//173
f 104//174 119//174 105//174
f 105//175 119//175 120//175
f 107//176 109//176 108//176
f 108//177 112//177 117//177
f 110//178 116//178 121//178
f 110//179 121//179 111//179
f 111//180 121//180 112//180
f 112//181 121//181 122//181
f 112//182 122//182 117//182
f 117//183 122//183 123//183
f 117//184 123//184 118//184
f 118//185 123//185 124//185
f 118//186 124//186 119//186
f 119//187 124//187 125//187
f 119//188 125//188 120//188
