# Blender 4.4.3
# www.blender.org
o socket8mm_collision_geom_6
v -0.100304 0.028103 -0.034700
v -0.097636 0.028103 -0.036051
v -0.097636 0.028435 -0.036051
v -0.100304 0.028435 -0.034706
v -0.100304 0.022840 -0.034700
v -0.097636 0.022840 -0.036051
v -0.097636 0.036070 -0.036428
v -0.100304 0.036070 -0.035189
v -0.100304 0.022840 -0.038275
v -0.097636 0.022840 -0.038881
v -0.097636 0.036089 -0.036437
v -0.097870 0.036278 -0.036374
v -0.099941 0.036258 -0.035402
v -0.100304 0.036145 -0.035217
v -0.100179 0.022840 -0.038338
v -0.100304 0.036401 -0.038077
v -0.100301 0.036401 -0.038079
v -0.097636 0.036070 -0.038695
v -0.097813 0.022840 -0.038880
v -0.097813 0.036070 -0.038695
v -0.097636 0.036337 -0.036589
v -0.100137 0.036292 -0.035355
v -0.100304 0.036308 -0.035303
v -0.100149 0.022840 -0.038353
v -0.100304 0.036407 -0.038074
v -0.100080 0.036620 -0.038130
v -0.100134 0.036401 -0.038155
v -0.097636 0.036225 -0.038690
v -0.097863 0.022840 -0.038879
v -0.098145 0.036070 -0.038682
v -0.097813 0.036401 -0.038684
v -0.098145 0.022840 -0.038869
v -0.097636 0.036405 -0.036730
v -0.100304 0.036354 -0.035422
v -0.099826 0.022840 -0.038478
v -0.099805 0.036401 -0.038285
v -0.100304 0.036662 -0.037910
v -0.099805 0.036652 -0.038181
v -0.099360 0.036594 -0.038432
v -0.097636 0.036401 -0.038684
v -0.098477 0.036070 -0.038640
v -0.098477 0.036401 -0.038634
v -0.098145 0.036401 -0.038672
v -0.098473 0.022840 -0.038829
v -0.098145 0.036658 -0.038537
v -0.097813 0.036658 -0.038543
v -0.097636 0.036522 -0.038619
v -0.097636 0.036475 -0.036919
v -0.100304 0.036414 -0.035591
v -0.099807 0.022840 -0.038485
v -0.099387 0.036401 -0.038442
v -0.100304 0.036703 -0.037783
v -0.099805 0.036744 -0.037915
v -0.099141 0.036718 -0.038247
v -0.099141 0.036627 -0.038462
v -0.098809 0.036401 -0.038581
v -0.099141 0.036401 -0.038512
v -0.098809 0.036652 -0.038496
v -0.098477 0.036658 -0.038520
v -0.098785 0.022840 -0.038773
v -0.098477 0.036751 -0.038247
v -0.097636 0.036701 -0.038405
v -0.097636 0.036658 -0.038543
v -0.097636 0.036514 -0.037056
v -0.097636 0.036654 -0.037583
v -0.097636 0.036692 -0.037759
v -0.097636 0.036725 -0.037915
v -0.100304 0.036684 -0.036919
v -0.099509 0.022840 -0.038594
v -0.099167 0.022840 -0.038698
v -0.099473 0.022840 -0.038608
v -0.100304 0.036745 -0.037583
v -0.100137 0.036749 -0.037583
v -0.099473 0.036751 -0.037915
v -0.098809 0.036744 -0.038247
v -0.097636 0.036751 -0.038247
v -0.100304 0.036734 -0.037251
v -0.100304 0.036714 -0.037083
v -0.100304 0.036746 -0.037415
vn 0.4516 0.0011 0.8922
vn 0.4501 0.0154 0.8928
vn -1.0000 0.0001 -0.0000
vn -1.0000 -0.0000 -0.0000
vn -1.0000 0.0008 -0.0000
vn 0.4516 -0.0000 0.8922
vn 1.0000 -0.0000 -0.0000
vn 1.0000 0.0001 -0.0000
vn 0.4497 0.0440 0.8921
vn 0.4203 0.0573 0.9056
vn -0.0000 -1.0000 -0.0000
vn 0.5207 0.3910 0.7590
vn 0.4109 0.2367 0.8804
vn 0.4116 0.2104 0.8868
vn 0.3470 0.3266 0.8792
vn -0.4638 0.0130 -0.8859
vn -0.4498 0.0130 -0.8930
vn -0.0022 0.0140 -0.9999
vn -0.0000 0.0140 -0.9999
vn 0.5459 0.4368 0.7150
vn 0.2782 0.7432 0.6085
vn 0.2181 0.8545 0.4714
vn 0.2436 0.8122 0.5302
vn 0.2868 0.6209 0.7296
vn 0.2942 0.4432 0.8468
vn -0.4408 0.0132 -0.8975
vn -0.5115 0.3330 -0.7922
vn -0.4502 0.2514 -0.8568
vn -0.4079 0.2029 -0.8902
vn -0.4165 0.0137 -0.9090
vn -0.0000 0.0316 -0.9995
vn -0.0330 0.0140 -0.9994
vn -0.0381 0.0321 -0.9988
vn -0.0382 0.0321 -0.9988
vn -0.0004 0.0321 -0.9995
vn -0.0333 0.0140 -0.9993
vn -0.0381 0.0141 -0.9992
vn 0.1954 0.8839 0.4250
vn 0.1576 0.9208 0.3568
vn -0.3672 0.0140 -0.9300
vn -0.3596 0.0138 -0.9330
vn -0.5855 0.4392 -0.6815
vn -0.1740 0.9190 -0.3537
vn -0.1958 0.8207 -0.5368
vn -0.3735 0.1962 -0.9066
vn -0.3638 0.1363 -0.9214
vn -0.0000 0.0326 -0.9995
vn -0.1260 0.0196 -0.9918
vn -0.1138 0.0320 -0.9930
vn -0.1227 0.0140 -0.9924
vn -0.1260 0.0141 -0.9919
vn -0.0338 0.4633 -0.8856
vn -0.0162 0.4809 -0.8766
vn -0.0029 0.4809 -0.8767
vn -0.0000 0.4777 -0.8785
vn 0.1531 0.9250 0.3479
vn 0.1431 0.9328 0.3307
vn -0.3514 0.0138 -0.9361
vn -0.3469 0.0137 -0.9378
vn -0.3498 0.0960 -0.9319
vn -0.1565 0.9404 -0.3019
vn -0.1557 0.9344 -0.3205
vn -0.1245 0.9385 -0.3219
vn -0.1285 0.9131 -0.3870
vn -0.1951 0.8216 -0.5357
vn -0.1673 0.2531 -0.9529
vn -0.2001 0.1690 -0.9651
vn -0.2706 0.0863 -0.9588
vn -0.1582 0.0195 -0.9872
vn -0.1636 0.0140 -0.9864
vn -0.1522 0.2735 -0.9497
vn -0.1212 0.3490 -0.9292
vn -0.1059 0.3664 -0.9244
vn -0.0724 0.4359 -0.8971
vn -0.0459 0.4630 -0.8852
vn -0.1768 0.0136 -0.9842
vn -0.0166 0.9469 -0.3212
vn -0.0057 0.9507 -0.3099
vn -0.0004 0.9542 -0.2992
vn -0.0000 0.9541 -0.2996
vn -0.0000 0.4839 -0.8751
vn 0.1105 0.9575 0.2664
vn 0.1046 0.9611 0.2557
vn 0.0697 0.9750 0.2108
vn 0.0651 0.9766 0.2052
vn 0.0592 0.9783 0.1987
vn -0.3454 0.0136 -0.9384
vn -0.2715 0.0137 -0.9623
vn -0.2826 0.0135 -0.9591
vn -0.3392 0.0136 -0.9406
vn -0.1332 0.9697 -0.2046
vn -0.0243 0.9989 -0.0407
vn -0.0205 0.9991 -0.0369
vn -0.0204 0.9979 -0.0612
vn -0.0205 0.9979 -0.0613
vn -0.0757 0.9709 -0.2270
vn -0.0730 0.9364 -0.3434
vn -0.1106 0.9151 -0.3878
vn -0.1933 0.0136 -0.9810
vn -0.2030 0.0138 -0.9791
vn -0.0404 0.9381 -0.3440
vn -0.0194 0.9468 -0.3212
vn -0.0000 1.0000 -0.0000
vn -0.0000 0.9549 -0.2970
vn 0.0229 0.9967 0.0776
vn 0.0336 0.9921 0.1208
vn 0.0518 0.9825 0.1790
vn -0.0244 0.9997 -0.0081
vn 0.0051 0.9998 0.0214
vn 0.0012 1.0000 0.0064
vn 0.0217 0.9970 0.0744
s 0
f 1//1 2//1 3//1
f 1//2 3//2 4//2
f 1//3 4//3 8//3
f 1//4 8//4 14//4
f 1//4 14//4 23//4
f 1//4 23//4 34//4
f 1//4 34//4 49//4
f 1//4 49//4 68//4
f 1//4 68//4 78//4
f 1//4 78//4 77//4
f 1//4 77//4 79//4
f 1//4 79//4 72//4
f 1//4 72//4 52//4
f 1//4 52//4 37//4
f 1//4 37//4 25//4
f 1//5 25//5 16//5
f 1//4 16//4 9//4
f 1//4 9//4 5//4
f 1//6 5//6 6//6
f 1//6 6//6 2//6
f 2//7 6//7 10//7
f 2//7 10//7 18//7
f 2//7 18//7 28//7
f 2//8 28//8 40//8
f 2//7 40//7 47//7
f 2//7 47//7 63//7
f 2//7 63//7 62//7
f 2//7 62//7 76//7
f 2//7 76//7 67//7
f 2//7 67//7 66//7
f 2//7 66//7 65//7
f 2//7 65//7 64//7
f 2//7 64//7 48//7
f 2//7 48//7 33//7
f 2//7 33//7 21//7
f 2//7 21//7 11//7
f 2//7 11//7 7//7
f 2//7 7//7 3//7
f 3//9 7//9 4//9
f 4//10 7//10 8//10
f 5//11 9//11 15//11
f 5//11 15//11 24//11
f 5//11 24//11 35//11
f 5//11 35//11 50//11
f 5//11 50//11 69//11
f 5//11 69//11 71//11
f 5//11 71//11 70//11
f 5//11 70//11 60//11
f 5//11 60//11 44//11
f 5//11 44//11 32//11
f 5//11 32//11 29//11
f 5//11 29//11 19//11
f 5//11 19//11 10//11
f 5//11 10//11 6//11
f 7//12 11//12 12//12
f 7//13 12//13 13//13
f 7//14 13//14 8//14
f 8//15 13//15 14//15
f 9//16 16//16 17//16
f 9//17 17//17 15//17
f 10//18 19//18 20//18
f 10//19 20//19 18//19
f 11//20 21//20 12//20
f 12//21 22//21 13//21
f 12//22 21//22 23//22
f 12//23 23//23 22//23
f 13//24 22//24 23//24
f 13//25 23//25 14//25
f 15//26 17//26 24//26
f 16//27 25//27 26//27
f 16//28 26//28 17//28
f 17//29 26//29 27//29
f 17//30 27//30 24//30
f 18//31 20//31 28//31
f 19//32 29//32 20//32
f 20//33 30//33 43//33
f 20//34 43//34 31//34
f 20//35 31//35 28//35
f 20//36 29//36 32//36
f 20//37 32//37 30//37
f 21//38 33//38 23//38
f 23//39 33//39 34//39
f 24//40 27//40 36//40
f 24//41 36//41 35//41
f 25//42 37//42 26//42
f 26//43 37//43 38//43
f 26//44 38//44 39//44
f 26//45 39//45 27//45
f 27//46 39//46 36//46
f 28//47 31//47 40//47
f 30//48 41//48 42//48
f 30//49 42//49 43//49
f 30//50 32//50 44//50
f 30//51 44//51 41//51
f 31//52 43//52 45//52
f 31//53 45//53 46//53
f 31//54 46//54 47//54
f 31//55 47//55 40//55
f 33//56 48//56 34//56
f 34//57 48//57 49//57
f 35//58 36//58 51//58
f 35//59 51//59 50//59
f 36//60 39//60 51//60
f 37//61 52//61 53//61
f 37//62 53//62 38//62
f 38//63 53//63 54//63
f 38//64 54//64 55//64
f 38//65 55//65 39//65
f 39//66 55//66 56//66
f 39//67 56//67 57//67
f 39//68 57//68 51//68
f 41//69 56//69 42//69
f 41//70 44//70 56//70
f 42//71 56//71 55//71
f 42//72 55//72 58//72
f 42//73 58//73 43//73
f 43//74 58//74 59//74
f 43//75 59//75 45//75
f 44//76 60//76 56//76
f 45//77 59//77 61//77
f 45//78 61//78 46//78
f 46//79 61//79 62//79
f 46//80 62//80 63//80
f 46//81 63//81 47//81
f 48//82 64//82 49//82
f 49//83 64//83 65//83
f 49//84 65//84 66//84
f 49//85 66//85 67//85
f 49//86 67//86 68//86
f 50//87 51//87 69//87
f 51//88 57//88 70//88
f 51//89 70//89 71//89
f 51//90 71//90 69//90
f 52//91 72//91 53//91
f 53//92 72//92 73//92
f 53//93 73//93 74//93
f 53//94 74//94 61//94
f 53//95 61//95 75//95
f 53//96 75//96 54//96
f 54//97 75//97 58//97
f 54//98 58//98 55//98
f 56//99 60//99 70//99
f 56//100 70//100 57//100
f 58//101 75//101 59//101
f 59//102 75//102 61//102
f 61//103 74//103 76//103
f 61//104 76//104 62//104
f 67//105 76//105 77//105
f 67//106 77//106 78//106
f 67//107 78//107 68//107
f 72//108 79//108 73//108
f 73//109 79//109 76//109
f 73//110 76//110 74//110
f 76//111 79//111 77//111
