# Blender 4.4.3
# www.blender.org
o socket10mm_collision_geom_16
v -0.056202 0.019801 -0.023099
v -0.056202 0.019998 -0.023120
v -0.056208 0.019801 -0.023099
v -0.056202 0.010174 -0.023099
v -0.056208 0.019998 -0.023120
v -0.056202 0.022758 -0.025965
v -0.056540 0.019989 -0.023127
v -0.056540 0.019801 -0.023113
v -0.056208 0.010174 -0.023099
v -0.056202 0.009842 -0.023104
v -0.056202 0.022758 -0.028631
v -0.056240 0.022758 -0.025968
v -0.056735 0.019976 -0.023136
v -0.056540 0.022758 -0.026000
v -0.056749 0.019801 -0.023134
v -0.056540 0.010174 -0.023113
v -0.056540 0.009842 -0.023115
v -0.056208 0.009842 -0.023104
v -0.056202 0.009514 -0.023113
v -0.058972 0.022757 -0.030190
v -0.058956 0.022758 -0.030172
v -0.056202 0.010833 -0.028631
v -0.057868 0.020047 -0.023402
v -0.058200 0.020012 -0.023438
v -0.058391 0.019981 -0.023464
v -0.057868 0.019801 -0.023331
v -0.056572 0.022758 -0.026006
v -0.056915 0.019469 -0.023163
v -0.056749 0.009514 -0.023134
v -0.056540 0.009514 -0.023124
v -0.056208 0.009514 -0.023113
v -0.056202 0.009514 -0.027716
v -0.058972 0.022758 -0.030159
v -0.058972 0.010838 -0.030190
v -0.056202 0.010506 -0.028627
v -0.056939 0.022758 -0.026070
v -0.057204 0.022758 -0.026119
v -0.057298 0.022758 -0.026137
v -0.057504 0.022758 -0.026188
v -0.057519 0.022758 -0.026193
v -0.058972 0.020037 -0.023737
v -0.058972 0.019801 -0.023668
v -0.058404 0.019801 -0.023460
v -0.058200 0.019801 -0.023403
v -0.057526 0.022758 -0.026195
v -0.057866 0.022758 -0.026306
v -0.057868 0.009514 -0.023331
v -0.056915 0.009514 -0.023163
v -0.056212 0.009514 -0.027717
v -0.058972 0.010265 -0.030038
v -0.058972 0.010300 -0.030116
v -0.056202 0.010261 -0.028538
v -0.058972 0.022758 -0.026789
v -0.058972 0.010506 -0.030184
v -0.056202 0.010502 -0.028626
v -0.058191 0.022758 -0.026426
v -0.058326 0.022758 -0.026476
v -0.058505 0.022758 -0.026549
v -0.058870 0.022758 -0.026730
v -0.058972 0.019469 -0.023667
v -0.058864 0.019469 -0.023627
v -0.058860 0.009514 -0.023626
v -0.058404 0.009514 -0.023460
v -0.058200 0.009514 -0.023403
v -0.057204 0.009514 -0.027804
v -0.057868 0.009514 -0.027863
v -0.058864 0.009514 -0.027949
v -0.058972 0.009514 -0.027958
v -0.058972 0.009514 -0.023667
vn -0.0000 0.1050 0.9945
vn -0.0000 0.1052 0.9945
vn -0.0000 -0.0000 1.0000
vn 1.0000 -0.0000 -0.0000
vn 1.0000 -0.0002 -0.0000
vn -0.0000 0.7172 0.6968
vn -0.0236 0.1051 0.9942
vn -0.0395 0.0773 0.9962
vn -0.0397 -0.0000 0.9992
vn -0.0000 -0.0146 0.9999
vn -0.0341 0.7173 0.6959
vn -0.0000 1.0000 -0.0000
vn -0.0000 1.0000 0.0001
vn -0.0000 1.0000 -0.0008
vn -0.0000 1.0000 -0.0010
vn -0.0000 1.0000 -0.0004
vn -0.0000 1.0000 0.0003
vn -0.0000 1.0000 -0.0012
vn -0.0638 0.7182 0.6929
vn -0.0513 0.0772 0.9957
vn -0.0736 0.7181 0.6921
vn -0.0798 0.7177 0.6917
vn -0.0991 0.0239 0.9948
vn -0.0991 -0.0000 0.9951
vn -0.0397 -0.0063 0.9992
vn -0.0313 -0.0146 0.9994
vn -0.0000 -0.0275 0.9996
vn 0.0788 0.9869 -0.1410
vn 0.4905 -0.0000 -0.8714
vn -0.1486 0.5921 0.7920
vn -0.1805 0.3525 0.9182
vn -0.1910 0.1615 0.9682
vn -0.1735 0.0299 0.9844
vn -0.1163 0.7164 0.6880
vn -0.1202 0.7170 0.6867
vn -0.1735 0.0002 0.9848
vn -0.1731 -0.0000 0.9849
vn -0.0795 -0.0063 0.9968
vn -0.0464 -0.0275 0.9985
vn -0.0313 -0.0275 0.9991
vn -0.0000 -1.0000 -0.0000
vn -0.0342 0.9986 -0.0414
vn -1.0000 -0.0000 -0.0000
vn 0.4904 -0.0111 -0.8714
vn -0.1206 0.7171 0.6865
vn -0.1257 0.7175 0.6852
vn -0.1312 0.7177 0.6839
vn -0.1496 0.7176 0.6801
vn -0.1686 0.7186 0.6747
vn -0.1809 0.7185 0.6716
vn -0.2059 0.7180 0.6649
vn -0.3907 0.2598 0.8831
vn -0.3437 0.0460 0.9380
vn -0.2683 0.0413 0.9625
vn -0.2114 0.1048 0.9718
vn -0.2134 0.7178 0.6628
vn -0.2170 0.7180 0.6613
vn -0.2398 0.7162 0.6554
vn -0.2126 -0.0000 0.9771
vn -0.1736 -0.0000 0.9848
vn 0.0514 -0.9306 -0.3623
vn 0.0967 -0.9076 -0.4086
vn 0.3490 -0.6939 -0.6299
vn 0.4899 -0.0164 -0.8716
vn 0.4694 -0.2957 -0.8320
vn 0.4709 -0.2765 -0.8378
vn -0.2408 0.7162 0.6550
vn -0.2418 0.7162 0.6547
vn -0.2642 0.7146 0.6477
vn -0.3141 0.7077 0.6328
vn -0.3586 0.6967 0.6213
vn -0.3441 0.0039 0.9389
vn -0.3427 0.0013 0.9395
vn -0.3419 -0.0000 0.9397
vn -0.3418 -0.0000 0.9398
vn -0.2685 -0.0000 0.9633
vn 0.0299 -0.9401 -0.3396
vn 0.0298 -0.9401 -0.3395
vn 0.0293 -0.9402 -0.3393
vn 0.0282 -0.9403 -0.3392
vn 0.4688 -0.3012 -0.8304
vn -0.3428 -0.0000 0.9394
vn -0.3427 -0.0000 0.9395
s 0
f 1//1 2//1 5//1
f 1//2 5//2 3//2
f 1//3 3//3 9//3
f 1//3 9//3 4//3
f 1//4 4//4 10//4
f 1//4 10//4 19//4
f 1//4 19//4 32//4
f 1//4 32//4 52//4
f 1//4 52//4 55//4
f 1//5 55//5 35//5
f 1//4 35//4 22//4
f 1//4 22//4 11//4
f 1//4 11//4 6//4
f 1//4 6//4 2//4
f 2//6 6//6 5//6
f 3//7 5//7 7//7
f 3//8 7//8 8//8
f 3//9 8//9 16//9
f 3//9 16//9 9//9
f 4//10 9//10 18//10
f 4//10 18//10 10//10
f 5//11 6//11 7//11
f 6//12 11//12 21//12
f 6//12 21//12 33//12
f 6//12 33//12 53//12
f 6//13 53//13 59//13
f 6//12 59//12 58//12
f 6//13 58//13 57//13
f 6//12 57//12 56//12
f 6//12 56//12 46//12
f 6//12 46//12 45//12
f 6//14 45//14 40//14
f 6//15 40//15 39//15
f 6//13 39//13 38//13
f 6//16 38//16 37//16
f 6//17 37//17 36//17
f 6//12 36//12 27//12
f 6//18 27//18 14//18
f 6//12 14//12 12//12
f 6//19 12//19 7//19
f 7//20 13//20 8//20
f 7//21 12//21 14//21
f 7//22 14//22 13//22
f 8//23 13//23 15//23
f 8//24 15//24 29//24
f 8//24 29//24 16//24
f 9//25 16//25 17//25
f 9//26 17//26 18//26
f 10//27 18//27 31//27
f 10//27 31//27 19//27
f 11//28 20//28 21//28
f 11//29 22//29 34//29
f 11//29 34//29 20//29
f 13//30 23//30 24//30
f 13//31 24//31 25//31
f 13//32 25//32 26//32
f 13//33 26//33 15//33
f 13//34 14//34 23//34
f 14//35 27//35 23//35
f 15//36 26//36 28//36
f 15//37 28//37 48//37
f 15//37 48//37 29//37
f 16//38 29//38 17//38
f 17//39 29//39 30//39
f 17//40 30//40 31//40
f 17//40 31//40 18//40
f 19//41 31//41 30//41
f 19//41 30//41 29//41
f 19//41 29//41 48//41
f 19//41 48//41 47//41
f 19//41 47//41 64//41
f 19//41 64//41 63//41
f 19//41 63//41 62//41
f 19//41 62//41 69//41
f 19//41 69//41 68//41
f 19//41 68//41 67//41
f 19//41 67//41 66//41
f 19//41 66//41 65//41
f 19//41 65//41 49//41
f 19//41 49//41 32//41
f 20//42 33//42 21//42
f 20//43 34//43 54//43
f 20//43 54//43 51//43
f 20//43 51//43 50//43
f 20//43 50//43 68//43
f 20//43 68//43 69//43
f 20//43 69//43 60//43
f 20//43 60//43 42//43
f 20//43 42//43 41//43
f 20//43 41//43 53//43
f 20//43 53//43 33//43
f 22//44 35//44 34//44
f 23//45 27//45 36//45
f 23//46 36//46 37//46
f 23//47 37//47 38//47
f 23//48 38//48 24//48
f 24//49 38//49 39//49
f 24//50 39//50 40//50
f 24//51 40//51 25//51
f 25//52 41//52 42//52
f 25//53 42//53 43//53
f 25//54 43//54 44//54
f 25//55 44//55 26//55
f 25//56 40//56 45//56
f 25//57 45//57 46//57
f 25//58 46//58 41//58
f 26//59 44//59 64//59
f 26//59 64//59 47//59
f 26//60 47//60 48//60
f 26//60 48//60 28//60
f 32//61 49//61 50//61
f 32//62 50//62 51//62
f 32//63 51//63 52//63
f 34//64 35//64 54//64
f 35//65 55//65 51//65
f 35//66 51//66 54//66
f 41//67 46//67 56//67
f 41//68 56//68 57//68
f 41//69 57//69 58//69
f 41//70 58//70 59//70
f 41//71 59//71 53//71
f 42//72 60//72 43//72
f 43//73 60//73 61//73
f 43//74 61//74 62//74
f 43//75 62//75 63//75
f 43//76 63//76 64//76
f 43//76 64//76 44//76
f 49//77 65//77 50//77
f 50//78 65//78 66//78
f 50//79 66//79 67//79
f 50//80 67//80 68//80
f 51//81 55//81 52//81
f 60//82 69//82 62//82
f 60//83 62//83 61//83
