# Blender 4.4.3
# www.blender.org
o socket9mm_collision_geom_22
v -0.089428 0.010037 -0.030934
v -0.085453 0.010037 -0.030934
v -0.089248 0.010037 -0.030441
v -0.089428 0.020281 -0.030934
v -0.085017 0.010037 -0.029281
v -0.082553 0.010624 -0.030934
v -0.079862 0.010686 -0.030108
v -0.079862 0.010600 -0.029811
v -0.089185 0.010037 -0.030267
v -0.089209 0.020627 -0.030333
v -0.089272 0.020627 -0.030506
v -0.089424 0.020627 -0.030934
v -0.088702 0.010037 -0.029281
v -0.079862 0.010589 -0.029282
v -0.079864 0.010589 -0.029281
v -0.082230 0.010695 -0.030934
v -0.082190 0.010714 -0.030934
v -0.079862 0.010945 -0.030246
v -0.089144 0.010037 -0.030157
v -0.089144 0.020281 -0.030157
v -0.089143 0.020627 -0.030157
v -0.089251 0.020847 -0.030563
v -0.089358 0.020813 -0.030934
v -0.088887 0.010037 -0.029600
v -0.088702 0.020627 -0.029281
v -0.079862 0.010746 -0.029281
v -0.082067 0.010945 -0.030934
v -0.079862 0.011107 -0.030253
v -0.089088 0.010037 -0.030026
v -0.088996 0.020281 -0.029811
v -0.088994 0.020627 -0.029811
v -0.088879 0.020819 -0.029613
v -0.089301 0.020886 -0.030849
v -0.089323 0.020889 -0.030934
v -0.088929 0.020863 -0.029811
v -0.085753 0.023750 -0.030934
v -0.088996 0.010037 -0.029811
v -0.088887 0.020627 -0.029600
v -0.088664 0.020766 -0.029281
v -0.079862 0.023750 -0.029281
v -0.082064 0.011284 -0.030934
v -0.079862 0.011290 -0.030261
v -0.088618 0.020870 -0.029281
v -0.085498 0.023750 -0.030493
v -0.085701 0.023750 -0.030843
v -0.082070 0.023750 -0.030934
v -0.079862 0.023750 -0.030261
v -0.084495 0.023750 -0.029281
v -0.079862 0.011452 -0.030261
v -0.082064 0.023749 -0.030934
v -0.084609 0.023750 -0.029386
v -0.084615 0.023750 -0.029393
v -0.084776 0.023750 -0.029566
v -0.084983 0.023750 -0.029812
v -0.085094 0.023750 -0.029945
v -0.085250 0.023750 -0.030139
v -0.085403 0.023750 -0.030337
vn -0.0000 -1.0000 -0.0000
vn -0.0000 -1.0000 -0.0017
vn -0.0000 -1.0000 0.0021
vn -0.9396 -0.0000 0.3422
vn 0.0006 -0.0000 -1.0000
vn -0.0000 -0.0000 -1.0000
vn 0.0003 -0.0000 -1.0000
vn 0.1721 -0.8509 -0.4963
vn 0.1508 -0.9494 -0.2755
vn 0.1056 -0.9940 -0.0279
vn -0.9392 -0.0000 0.3433
vn -0.9395 -0.0000 0.3426
vn -0.9400 0.0029 0.3411
vn -0.9419 0.0102 0.3359
vn 0.1064 -0.9941 -0.0202
vn 0.1054 -0.9825 0.1537
vn -0.0000 -0.0000 1.0000
vn 0.1822 -0.8275 -0.5311
vn 0.2701 -0.5653 -0.7794
vn 0.2942 -0.4496 -0.8434
vn 1.0000 -0.0000 -0.0000
vn 1.0000 0.0001 -0.0000
vn -0.9387 -0.0000 0.3448
vn -0.9390 -0.0000 0.3438
vn -0.9374 0.0025 0.3482
vn -0.9220 0.1805 0.3425
vn -0.9259 0.1729 0.3360
vn -0.9279 0.1717 0.3309
vn -0.9159 0.3263 0.2337
vn -0.8662 -0.0000 0.4998
vn 0.5665 -0.0067 0.8240
vn 0.2945 -0.1577 -0.9425
vn 0.2980 -0.0428 -0.9536
vn -0.9188 -0.0000 0.3946
vn -0.9184 0.0025 0.3956
vn -0.9184 -0.0000 0.3956
vn -0.9093 0.1335 0.3942
vn -0.9056 0.2225 0.3610
vn -0.9175 0.0050 0.3977
vn -0.7452 0.6311 0.2153
vn -0.8864 0.4085 0.2178
vn -0.7662 0.5593 0.3164
vn -0.6042 0.7590 0.2427
vn -0.6111 0.7632 0.2100
vn -0.8892 -0.0000 0.4575
vn -0.8023 0.2206 0.5547
vn -0.8642 0.0666 0.4986
vn 0.2926 -0.0024 -0.9562
vn 0.2979 -0.0414 -0.9537
vn -0.9181 -0.0000 0.3962
vn -0.8924 0.0048 0.4512
vn -0.8905 0.0644 0.4503
vn -0.7642 0.3391 0.5487
vn -0.5677 0.7539 0.3305
vn -0.5685 0.7542 0.3285
vn -0.5699 0.7545 0.3256
vn -0.5761 0.7553 0.3126
vn -0.6146 0.7668 0.1853
vn -0.0000 1.0000 0.0044
vn -0.0000 1.0000 -0.0000
vn -0.0000 1.0000 0.0001
vn -0.0000 1.0000 -0.0001
vn -0.0000 1.0000 0.0004
vn 0.2926 -0.0010 -0.9562
vn 0.2925 -0.0000 -0.9563
vn -0.4881 0.6986 0.5232
vn -0.4925 0.7042 0.5113
vn -0.5065 0.7222 0.4710
vn -0.5190 0.7353 0.4359
vn -0.5201 0.7362 0.4329
vn -0.5243 0.7390 0.4231
vn -0.5305 0.7423 0.4094
vn -0.5615 0.7527 0.3436
vn 0.1676 0.8195 -0.5481
s 0
f 1//1 2//1 5//1
f 1//1 5//1 13//1
f 1//1 13//1 24//1
f 1//1 24//1 37//1
f 1//1 37//1 29//1
f 1//1 29//1 19//1
f 1//2 19//2 9//2
f 1//3 9//3 3//3
f 1//4 3//4 4//4
f 1//5 4//5 12//5
f 1//6 12//6 23//6
f 1//6 23//6 34//6
f 1//6 34//6 36//6
f 1//6 36//6 46//6
f 1//7 46//7 50//7
f 1//6 50//6 41//6
f 1//6 41//6 27//6
f 1//6 27//6 17//6
f 1//6 17//6 16//6
f 1//6 16//6 6//6
f 1//6 6//6 2//6
f 2//8 6//8 7//8
f 2//9 7//9 8//9
f 2//10 8//10 5//10
f 3//11 9//11 10//11
f 3//12 10//12 4//12
f 4//13 10//13 11//13
f 4//14 11//14 12//14
f 5//15 8//15 14//15
f 5//16 14//16 15//16
f 5//17 15//17 26//17
f 5//17 26//17 40//17
f 5//17 40//17 48//17
f 5//17 48//17 43//17
f 5//17 43//17 39//17
f 5//17 39//17 25//17
f 5//17 25//17 13//17
f 6//18 16//18 7//18
f 7//19 16//19 17//19
f 7//20 17//20 18//20
f 7//21 18//21 28//21
f 7//21 28//21 42//21
f 7//22 42//22 49//22
f 7//21 49//21 47//21
f 7//21 47//21 40//21
f 7//21 40//21 26//21
f 7//22 26//22 14//22
f 7//21 14//21 8//21
f 9//23 19//23 20//23
f 9//24 20//24 10//24
f 10//25 20//25 21//25
f 10//26 21//26 22//26
f 10//27 22//27 11//27
f 11//28 22//28 12//28
f 12//29 22//29 23//29
f 13//30 25//30 38//30
f 13//30 38//30 24//30
f 14//31 26//31 15//31
f 17//32 27//32 18//32
f 18//33 27//33 28//33
f 19//34 29//34 20//34
f 20//35 30//35 21//35
f 20//36 29//36 30//36
f 21//37 31//37 32//37
f 21//38 32//38 22//38
f 21//39 30//39 31//39
f 22//40 33//40 34//40
f 22//41 34//41 23//41
f 22//42 32//42 35//42
f 22//43 35//43 36//43
f 22//44 36//44 33//44
f 24//45 38//45 30//45
f 24//45 30//45 37//45
f 25//46 39//46 32//46
f 25//47 32//47 38//47
f 27//48 41//48 42//48
f 27//49 42//49 28//49
f 29//50 37//50 30//50
f 30//51 38//51 31//51
f 31//52 38//52 32//52
f 32//53 39//53 43//53
f 32//54 43//54 44//54
f 32//55 44//55 45//55
f 32//56 45//56 36//56
f 32//57 36//57 35//57
f 33//58 36//58 34//58
f 36//59 45//59 44//59
f 36//60 44//60 57//60
f 36//60 57//60 56//60
f 36//61 56//61 55//61
f 36//60 55//60 54//60
f 36//60 54//60 53//60
f 36//62 53//62 52//62
f 36//63 52//63 51//63
f 36//60 51//60 48//60
f 36//60 48//60 40//60
f 36//60 40//60 47//60
f 36//60 47//60 46//60
f 41//64 49//64 42//64
f 41//65 50//65 47//65
f 41//65 47//65 49//65
f 43//66 48//66 51//66
f 43//67 51//67 52//67
f 43//68 52//68 53//68
f 43//69 53//69 54//69
f 43//70 54//70 55//70
f 43//71 55//71 56//71
f 43//72 56//72 57//72
f 43//73 57//73 44//73
f 46//74 47//74 50//74
