# Blender 4.4.3
# www.blender.org
o socket8mm_collision_geom_7
v -0.103125 0.036751 -0.032770
v -0.100305 0.036746 -0.037415
v -0.100801 0.036751 -0.037251
v -0.103125 0.036751 -0.033599
v -0.103421 0.036658 -0.032770
v -0.102793 0.036725 -0.032770
v -0.100305 0.036734 -0.037251
v -0.100305 0.036745 -0.037583
v -0.102129 0.036751 -0.035922
v -0.100469 0.036741 -0.037583
v -0.101465 0.036726 -0.036919
v -0.101797 0.036726 -0.036587
v -0.102793 0.036751 -0.034595
v -0.103125 0.036744 -0.033931
v -0.103398 0.036658 -0.033599
v -0.103415 0.036658 -0.033267
v -0.103421 0.036658 -0.032935
v -0.103492 0.036530 -0.032770
v -0.102461 0.036654 -0.032770
v -0.100305 0.036714 -0.037083
v -0.100305 0.036703 -0.037782
v -0.102461 0.036741 -0.035590
v -0.102793 0.036744 -0.034927
v -0.100305 0.036662 -0.037910
v -0.100469 0.036648 -0.037865
v -0.100816 0.036669 -0.037602
v -0.101133 0.036712 -0.037251
v -0.101782 0.036637 -0.036904
v -0.102129 0.036711 -0.036254
v -0.103125 0.036718 -0.034263
v -0.103374 0.036652 -0.033931
v -0.103550 0.036401 -0.033267
v -0.103563 0.036401 -0.032935
v -0.103563 0.036401 -0.032770
v -0.102217 0.036588 -0.032770
v -0.100305 0.036684 -0.036919
v -0.101797 0.036475 -0.032770
v -0.102481 0.036669 -0.035938
v -0.102743 0.036648 -0.035590
v -0.102825 0.036672 -0.035291
v -0.103059 0.036652 -0.034927
v -0.100305 0.036407 -0.038075
v -0.100715 0.036616 -0.037795
v -0.101133 0.036621 -0.037489
v -0.101438 0.036627 -0.037233
v -0.101662 0.036595 -0.037111
v -0.101989 0.036595 -0.036783
v -0.102111 0.036627 -0.036560
v -0.102367 0.036620 -0.036254
v -0.103340 0.036627 -0.034263
v -0.103512 0.036401 -0.033599
v -0.103561 0.036070 -0.033267
v -0.103574 0.036070 -0.032935
v -0.103574 0.036070 -0.032770
v -0.101465 0.036337 -0.032770
v -0.100305 0.036414 -0.035590
v -0.102673 0.036616 -0.035837
v -0.103008 0.036620 -0.035202
v -0.103310 0.036594 -0.034483
v -0.100305 0.036401 -0.038077
v -0.101309 0.036578 -0.037425
v -0.100755 0.036401 -0.037818
v -0.100921 0.036401 -0.037718
v -0.101677 0.036401 -0.037124
v -0.101843 0.036401 -0.036965
v -0.102002 0.036401 -0.036799
v -0.102303 0.036578 -0.036430
v -0.103459 0.036401 -0.033931
v -0.103518 0.036070 -0.033599
v -0.103707 0.022840 -0.033595
v -0.103713 0.022840 -0.033549
v -0.103748 0.022840 -0.033267
v -0.103749 0.022840 -0.033217
v -0.103759 0.022840 -0.032935
v -0.103759 0.022840 -0.032770
v -0.100305 0.036308 -0.035303
v -0.100305 0.036354 -0.035422
v -0.101306 0.036075 -0.032770
v -0.102596 0.036401 -0.036043
v -0.102696 0.036401 -0.035877
v -0.102957 0.036401 -0.035423
v -0.103033 0.036401 -0.035257
v -0.103164 0.036401 -0.034927
v -0.103320 0.036401 -0.034510
v -0.103390 0.036401 -0.034263
v -0.100305 0.022840 -0.038276
v -0.100482 0.022840 -0.038186
v -0.101133 0.036401 -0.037565
v -0.101314 0.036401 -0.037429
v -0.101480 0.036401 -0.037290
v -0.100803 0.022840 -0.038001
v -0.100826 0.022840 -0.037987
v -0.101110 0.022840 -0.037815
v -0.101477 0.022840 -0.037533
v -0.101805 0.022840 -0.037254
v -0.101820 0.022840 -0.037240
v -0.101842 0.022840 -0.037219
v -0.102097 0.022840 -0.036964
v -0.102168 0.036401 -0.036601
v -0.102132 0.022840 -0.036927
v -0.102439 0.022840 -0.036566
v -0.102307 0.036401 -0.036435
v -0.102442 0.036401 -0.036254
v -0.103575 0.022840 -0.034289
v -0.103586 0.022840 -0.034236
v -0.103660 0.022840 -0.033857
v -0.100929 0.022840 -0.032770
v -0.101303 0.036070 -0.032770
v -0.100305 0.036145 -0.035217
v -0.102694 0.022840 -0.036232
v -0.102880 0.022840 -0.035925
v -0.103064 0.022840 -0.035605
v -0.103231 0.022840 -0.035271
v -0.103243 0.022840 -0.035242
v -0.103363 0.022840 -0.034930
v -0.103485 0.022840 -0.034595
v -0.103500 0.022840 -0.034545
v -0.100305 0.022840 -0.034701
v -0.101144 0.022840 -0.037791
v -0.101444 0.022840 -0.037560
v -0.102471 0.022840 -0.036525
v -0.100929 0.028103 -0.032770
v -0.100305 0.036070 -0.035190
v -0.100929 0.028435 -0.032770
v -0.100305 0.028103 -0.034701
v -0.100305 0.028435 -0.034706
vn 0.0099 0.9999 0.0052
vn -0.0000 1.0000 -0.0000
vn -0.2980 0.9546 -0.0000
vn -0.0000 -0.0000 1.0000
vn -0.0001 -0.0000 1.0000
vn 0.0776 0.9959 0.0462
vn 1.0000 0.0028 -0.0000
vn 1.0000 0.0008 -0.0000
vn 1.0000 -0.0000 -0.0000
vn 1.0000 0.0003 -0.0000
vn 1.0000 -0.0002 -0.0000
vn 1.0000 -0.0001 -0.0000
vn 1.0000 0.0031 -0.0000
vn 1.0000 0.0002 -0.0000
vn 1.0000 -0.0005 -0.0000
vn 0.0056 1.0000 -0.0081
vn 0.1289 0.9889 0.0737
vn -0.0248 0.9983 -0.0534
vn -0.1010 0.9864 -0.1293
vn -0.0734 0.9946 -0.0734
vn -0.0613 0.9979 -0.0204
vn -0.3209 0.9469 -0.0194
vn -0.3209 0.9470 -0.0167
vn -0.3096 0.9508 -0.0057
vn -0.8744 0.4851 -0.0000
vn 0.2071 0.9713 0.1170
vn 0.2105 0.9704 0.1187
vn -0.0243 0.9781 -0.2065
vn -0.1296 0.9864 -0.1012
vn -0.0656 0.9972 -0.0369
vn -0.0409 0.9990 -0.0205
vn -0.1480 0.9420 -0.3013
vn -0.1613 0.9380 -0.3069
vn -0.1772 0.9354 -0.3061
vn -0.1803 0.9431 -0.2793
vn -0.1245 0.9785 -0.1647
vn -0.2689 0.9132 -0.3064
vn -0.2703 0.9241 -0.2703
vn -0.1762 0.9755 -0.1320
vn -0.3102 0.9119 -0.2688
vn -0.2270 0.9710 -0.0757
vn -0.3429 0.9365 -0.0730
vn -0.3435 0.9383 -0.0402
vn -0.8965 0.4372 -0.0720
vn -0.8847 0.4639 -0.0459
vn -0.8851 0.4641 -0.0342
vn -0.8759 0.4822 -0.0161
vn -0.8760 0.4823 -0.0029
vn -0.8775 0.4795 -0.0000
vn 0.2563 0.9562 0.1414
vn 0.2574 0.9558 0.1418
vn 0.3384 0.9259 0.1682
vn -0.2759 0.9441 -0.1805
vn -0.3063 0.9353 -0.1769
vn -0.3073 0.9384 -0.1577
vn -0.3118 0.9369 -0.1578
vn -0.3203 0.9343 -0.1566
vn -0.3218 0.9386 -0.1243
vn -0.2639 0.5232 -0.8104
vn -0.2254 0.9025 -0.3670
vn -0.2998 0.5003 -0.8123
vn -0.2699 0.8826 -0.3849
vn -0.2586 0.9024 -0.3448
vn -0.2725 0.8988 -0.3434
vn -0.2736 0.9083 -0.3164
vn -0.3213 0.8738 -0.3651
vn -0.4029 0.8222 -0.4020
vn -0.3666 0.8727 -0.3223
vn -0.3134 0.9103 -0.2704
vn -0.3447 0.8993 -0.2691
vn -0.3452 0.9009 -0.2631
vn -0.3868 0.9132 -0.1283
vn -0.3876 0.9152 -0.1108
vn -0.9294 0.3484 -0.1218
vn -0.9244 0.3662 -0.1064
vn -0.9929 0.0314 -0.1143
vn -0.9988 0.0316 -0.0387
vn -0.9988 0.0316 -0.0386
vn -0.9995 0.0316 -0.0000
vn -0.9995 0.0317 -0.0000
vn 0.3794 0.9072 0.1820
vn 0.3858 0.9041 0.1836
vn -0.3876 0.8799 -0.2750
vn -0.3676 0.9023 -0.2252
vn -0.4481 0.8604 -0.2427
vn -0.3536 0.9191 -0.1738
vn -0.3282 0.9307 -0.1618
vn -0.5371 0.8205 -0.1957
vn -0.5367 0.8208 -0.1954
vn -0.4080 0.3366 -0.8487
vn -0.3821 0.7529 -0.5358
vn -0.4903 0.1835 -0.8520
vn -0.5067 0.1855 -0.8419
vn -0.5264 0.2108 -0.8237
vn -0.3678 0.8088 -0.4588
vn -0.3557 0.8241 -0.4409
vn -0.6586 0.1009 -0.7457
vn -0.6881 0.1015 -0.7185
vn -0.7020 0.1280 -0.7005
vn -0.4515 0.8161 -0.3607
vn -0.7184 0.1039 -0.6878
vn -0.7459 0.1033 -0.6579
vn -0.4524 0.8154 -0.3613
vn -0.5226 0.7657 -0.3749
vn -0.9530 0.2523 -0.1679
vn -0.9498 0.2729 -0.1529
vn -0.9871 0.0192 -0.1589
vn -0.9918 0.0192 -0.1263
vn -0.9919 0.0141 -0.1263
vn -0.9921 0.0141 -0.1247
vn -0.9924 0.0140 -0.1224
vn -0.9992 0.0141 -0.0387
vn -0.9993 0.0140 -0.0341
vn -0.9993 0.0140 -0.0335
vn -0.9999 0.0140 -0.0020
vn -0.9999 0.0140 -0.0000
vn 0.6312 0.7229 0.2810
vn 0.6004 0.7536 0.2677
vn 0.7973 0.4847 0.3597
vn -0.8232 0.2117 -0.5268
vn -0.8423 0.1852 -0.5062
vn -0.8518 0.1835 -0.4907
vn -0.8534 0.2571 -0.4534
vn -0.8911 0.2013 -0.4066
vn -0.9070 0.1949 -0.3733
vn -0.9207 0.1397 -0.3644
vn -0.9322 0.0959 -0.3491
vn -0.9585 0.0865 -0.2718
vn -0.9648 0.1715 -0.1995
vn -0.4500 0.0131 -0.8930
vn -0.4988 0.0135 -0.8666
vn -0.5858 0.0557 -0.8086
vn -0.6000 0.0343 -0.7993
vn -0.6424 0.0348 -0.7656
vn -0.6431 0.0357 -0.7650
vn -0.4999 0.0134 -0.8660
vn -0.5094 0.0134 -0.8604
vn -0.5155 0.0134 -0.8568
vn -0.5182 0.0133 -0.8551
vn -0.5866 0.0140 -0.8097
vn -0.6434 0.0136 -0.7654
vn -0.6485 0.0134 -0.7611
vn -0.6691 0.0134 -0.7430
vn -0.6915 0.0135 -0.7222
vn -0.6999 0.0133 -0.7141
vn -0.7070 0.0132 -0.7071
vn -0.7222 0.0135 -0.6915
vn -0.7661 0.0354 -0.6418
vn -0.7266 0.0134 -0.6869
vn -0.7620 0.0134 -0.6475
vn -0.7665 0.0137 -0.6421
vn -0.7663 0.0352 -0.6416
vn -0.7991 0.0347 -0.6002
vn -0.8078 0.0550 -0.5868
vn -0.9792 0.0138 -0.2025
vn -0.9804 0.0136 -0.1968
vn -0.9815 0.0135 -0.1910
vn -0.9839 0.0136 -0.1782
vn -0.9864 0.0140 -0.1639
vn -0.0000 -1.0000 0.0002
vn -0.0000 -1.0000 -0.0003
vn -0.0000 -1.0000 -0.0000
vn -0.0000 -1.0000 -0.0001
vn -0.0000 -1.0000 0.0001
vn -0.0000 -1.0000 -0.0031
vn 0.8125 0.4559 0.3632
vn 0.9057 0.1968 0.3754
vn -0.8090 0.0140 -0.5877
vn -0.8554 0.0134 -0.5178
vn -0.8570 0.0134 -0.5151
vn -0.8662 0.0135 -0.4996
vn -0.8665 0.0135 -0.4991
vn -0.8941 0.0130 -0.4477
vn -0.9097 0.0137 -0.4151
vn -0.9237 0.0139 -0.3828
vn -0.9297 0.0140 -0.3680
vn -0.9338 0.0138 -0.3576
vn -0.9364 0.0138 -0.3507
vn -0.9391 0.0136 -0.3435
vn -0.9577 0.0135 -0.2875
vn -0.9595 0.0135 -0.2813
vn -0.9620 0.0137 -0.2728
vn -0.5873 0.0140 -0.8092
vn -0.6003 0.0138 -0.7997
vn -0.6082 0.0136 -0.7936
vn -0.6386 0.0136 -0.7694
vn -0.6427 0.0136 -0.7660
vn -0.7667 0.0137 -0.6419
vn -0.7836 0.0136 -0.6211
vn -0.7965 0.0137 -0.6045
vn -0.7995 0.0138 -0.6005
vn 0.9515 -0.0000 0.3076
vn 0.9155 0.1386 0.3777
vn 0.9235 0.0452 0.3810
vn 0.9515 0.0009 0.3076
vn 0.9515 0.0194 0.3069
vn 0.9517 0.0050 0.3070
s 0
f 1//1 2//1 3//1
f 1//2 3//2 9//2
f 1//2 9//2 13//2
f 1//2 13//2 4//2
f 1//3 4//3 17//3
f 1//3 17//3 5//3
f 1//4 5//4 18//4
f 1//4 18//4 34//4
f 1//4 34//4 54//4
f 1//4 54//4 75//4
f 1//4 75//4 107//4
f 1//4 107//4 122//4
f 1//5 122//5 124//5
f 1//4 124//4 108//4
f 1//5 108//5 78//5
f 1//4 78//4 55//4
f 1//4 55//4 37//4
f 1//4 37//4 35//4
f 1//4 35//4 19//4
f 1//4 19//4 6//4
f 1//6 6//6 2//6
f 2//7 7//7 20//7
f 2//8 20//8 36//8
f 2//9 36//9 56//9
f 2//10 56//10 77//10
f 2//11 77//11 76//11
f 2//9 76//9 109//9
f 2//12 109//12 123//12
f 2//9 123//9 126//9
f 2//9 126//9 125//9
f 2//9 125//9 118//9
f 2//9 118//9 86//9
f 2//9 86//9 60//9
f 2//13 60//13 42//13
f 2//12 42//12 24//12
f 2//14 24//14 21//14
f 2//15 21//15 8//15
f 2//16 8//16 3//16
f 2//17 6//17 7//17
f 3//18 8//18 10//18
f 3//19 10//19 11//19
f 3//20 11//20 12//20
f 3//20 12//20 9//20
f 4//21 13//21 23//21
f 4//21 23//21 14//21
f 4//22 14//22 15//22
f 4//23 15//23 16//23
f 4//24 16//24 17//24
f 5//25 17//25 18//25
f 6//26 19//26 7//26
f 7//27 19//27 20//27
f 8//28 21//28 10//28
f 9//29 12//29 22//29
f 9//30 22//30 23//30
f 9//31 23//31 13//31
f 10//32 21//32 24//32
f 10//33 24//33 25//33
f 10//34 25//34 26//34
f 10//35 26//35 27//35
f 10//36 27//36 11//36
f 11//37 27//37 28//37
f 11//38 28//38 12//38
f 12//39 29//39 22//39
f 12//40 28//40 29//40
f 14//41 23//41 30//41
f 14//42 30//42 31//42
f 14//43 31//43 15//43
f 15//44 31//44 32//44
f 15//45 32//45 16//45
f 16//46 32//46 33//46
f 16//47 33//47 17//47
f 17//48 33//48 18//48
f 18//49 33//49 34//49
f 19//50 35//50 20//50
f 20//51 35//51 37//51
f 20//52 37//52 36//52
f 22//53 29//53 38//53
f 22//54 38//54 39//54
f 22//55 39//55 23//55
f 23//56 39//56 40//56
f 23//57 40//57 41//57
f 23//58 41//58 30//58
f 24//59 42//59 25//59
f 25//60 43//60 26//60
f 25//61 42//61 43//61
f 26//62 43//62 44//62
f 26//63 44//63 27//63
f 27//64 44//64 45//64
f 27//65 45//65 28//65
f 28//66 45//66 46//66
f 28//67 46//67 47//67
f 28//68 47//68 48//68
f 28//69 48//69 29//69
f 29//70 48//70 49//70
f 29//71 49//71 38//71
f 30//72 41//72 50//72
f 30//73 50//73 31//73
f 31//74 50//74 51//74
f 31//75 51//75 32//75
f 32//76 51//76 52//76
f 32//77 52//77 53//77
f 32//78 53//78 33//78
f 33//79 53//79 54//79
f 33//80 54//80 34//80
f 36//81 37//81 55//81
f 36//82 55//82 56//82
f 38//83 49//83 57//83
f 38//84 57//84 39//84
f 39//85 57//85 58//85
f 39//86 58//86 41//86
f 39//87 41//87 40//87
f 41//88 58//88 59//88
f 41//89 59//89 50//89
f 42//90 60//90 43//90
f 43//91 61//91 44//91
f 43//92 60//92 62//92
f 43//93 62//93 63//93
f 43//94 63//94 61//94
f 44//95 61//95 46//95
f 44//96 46//96 45//96
f 46//97 61//97 64//97
f 46//98 64//98 65//98
f 46//99 65//99 47//99
f 47//100 49//100 48//100
f 47//101 65//101 66//101
f 47//102 66//102 67//102
f 47//103 67//103 49//103
f 49//104 67//104 57//104
f 50//105 59//105 68//105
f 50//106 68//106 51//106
f 51//107 68//107 69//107
f 51//108 69//108 52//108
f 52//109 69//109 70//109
f 52//110 70//110 71//110
f 52//111 71//111 72//111
f 52//112 72//112 53//112
f 53//113 72//113 73//113
f 53//114 73//114 74//114
f 53//115 74//115 75//115
f 53//116 75//116 54//116
f 55//117 76//117 77//117
f 55//118 77//118 56//118
f 55//119 78//119 76//119
f 57//120 67//120 79//120
f 57//121 79//121 80//121
f 57//122 80//122 81//122
f 57//123 81//123 58//123
f 58//124 81//124 82//124
f 58//125 82//125 59//125
f 59//126 82//126 83//126
f 59//127 83//127 84//127
f 59//128 84//128 85//128
f 59//129 85//129 68//129
f 60//130 86//130 87//130
f 60//131 87//131 62//131
f 61//132 63//132 88//132
f 61//133 88//133 89//133
f 61//134 89//134 90//134
f 61//135 90//135 64//135
f 62//136 87//136 91//136
f 62//137 91//137 92//137
f 62//138 92//138 63//138
f 63//139 92//139 93//139
f 63//140 93//140 88//140
f 64//141 90//141 94//141
f 64//142 94//142 95//142
f 64//143 95//143 96//143
f 64//144 96//144 65//144
f 65//145 96//145 97//145
f 65//146 97//146 98//146
f 65//147 98//147 66//147
f 66//148 99//148 67//148
f 66//149 98//149 100//149
f 66//150 100//150 101//150
f 66//151 101//151 99//151
f 67//152 99//152 102//152
f 67//153 102//153 103//153
f 67//154 103//154 79//154
f 68//155 85//155 104//155
f 68//156 104//156 105//156
f 68//157 105//157 106//157
f 68//158 106//158 70//158
f 68//159 70//159 69//159
f 70//160 106//160 105//160
f 70//161 105//161 104//161
f 70//162 104//162 117//162
f 70//163 117//163 116//163
f 70//162 116//162 115//162
f 70//162 115//162 114//162
f 70//162 114//162 113//162
f 70//162 113//162 112//162
f 70//162 112//162 111//162
f 70//162 111//162 110//162
f 70//162 110//162 121//162
f 70//162 121//162 101//162
f 70//162 101//162 100//162
f 70//162 100//162 98//162
f 70//162 98//162 97//162
f 70//162 97//162 96//162
f 70//164 96//164 95//164
f 70//162 95//162 94//162
f 70//162 94//162 120//162
f 70//162 120//162 119//162
f 70//162 119//162 93//162
f 70//162 93//162 92//162
f 70//163 92//163 91//163
f 70//162 91//162 87//162
f 70//162 87//162 86//162
f 70//162 86//162 118//162
f 70//162 118//162 107//162
f 70//162 107//162 75//162
f 70//162 75//162 74//162
f 70//162 74//162 73//162
f 70//162 73//162 72//162
f 70//165 72//165 71//165
f 76//166 78//166 108//166
f 76//167 108//167 109//167
f 79//168 103//168 110//168
f 79//169 110//169 111//169
f 79//170 111//170 80//170
f 80//171 111//171 112//171
f 80//172 112//172 81//172
f 81//173 112//173 113//173
f 81//174 113//174 82//174
f 82//175 113//175 114//175
f 82//176 114//176 83//176
f 83//177 114//177 115//177
f 83//178 115//178 84//178
f 84//179 115//179 116//179
f 84//180 116//180 117//180
f 84//181 117//181 104//181
f 84//182 104//182 85//182
f 88//183 93//183 119//183
f 88//184 119//184 89//184
f 89//185 119//185 120//185
f 89//186 120//186 94//186
f 89//187 94//187 90//187
f 99//188 101//188 102//188
f 101//189 121//189 102//189
f 102//190 121//190 110//190
f 102//191 110//191 103//191
f 107//192 118//192 125//192
f 107//192 125//192 122//192
f 108//193 123//193 109//193
f 108//194 124//194 123//194
f 122//195 125//195 124//195
f 123//196 124//196 126//196
f 124//197 125//197 126//197
