# Blender 4.4.3
# www.blender.org
o socket10mm_collision_geom_14
v -0.055212 0.019801 -0.023099
v -0.054880 0.019801 -0.023113
v -0.054880 0.019989 -0.023127
v -0.055212 0.019998 -0.023121
v -0.056202 0.019801 -0.023099
v -0.055212 0.010174 -0.023099
v -0.054672 0.019801 -0.023134
v -0.054686 0.019975 -0.023136
v -0.054880 0.010174 -0.023113
v -0.054671 0.009510 -0.023134
v -0.054880 0.022758 -0.026000
v -0.054912 0.022758 -0.025997
v -0.055212 0.022758 -0.025965
v -0.056202 0.019998 -0.023121
v -0.055244 0.022758 -0.025965
v -0.055544 0.022758 -0.025960
v -0.056202 0.010174 -0.023099
v -0.055544 0.009510 -0.023104
v -0.055212 0.009842 -0.023105
v -0.054880 0.009842 -0.023116
v -0.053552 0.019801 -0.023331
v -0.053029 0.019980 -0.023464
v -0.053220 0.020011 -0.023438
v -0.053552 0.020048 -0.023402
v -0.054880 0.009510 -0.023125
v -0.053552 0.009510 -0.023331
v -0.054584 0.022758 -0.026052
v -0.055876 0.022758 -0.025960
v -0.056202 0.022758 -0.025965
v -0.056202 0.009842 -0.023104
v -0.055876 0.009510 -0.023104
v -0.053220 0.019801 -0.023403
v -0.053017 0.019801 -0.023460
v -0.052316 0.019801 -0.023715
v -0.052316 0.019987 -0.023749
v -0.052316 0.020018 -0.023761
v -0.053554 0.022758 -0.026307
v -0.053901 0.022758 -0.026193
v -0.053906 0.022758 -0.026192
v -0.053917 0.022758 -0.026189
v -0.054216 0.022758 -0.026119
v -0.054532 0.022758 -0.026061
v -0.053220 0.009510 -0.023403
v -0.056202 0.022758 -0.028631
v -0.056202 0.009510 -0.023114
v -0.052556 0.019469 -0.023627
v -0.052316 0.019712 -0.023714
v -0.053017 0.009510 -0.023460
v -0.052316 0.022758 -0.026866
v -0.052554 0.022758 -0.026728
v -0.052915 0.022758 -0.026549
v -0.053227 0.022758 -0.026427
v -0.053238 0.022758 -0.026423
v -0.052316 0.022758 -0.030354
v -0.056202 0.010833 -0.028631
v -0.056202 0.009510 -0.027716
v -0.052556 0.009510 -0.023627
v -0.052316 0.009510 -0.023714
v -0.052316 0.010838 -0.030354
v -0.052316 0.010506 -0.030351
v -0.056202 0.010506 -0.028627
v -0.052316 0.010274 -0.030224
v -0.055876 0.009510 -0.027687
v -0.056202 0.010261 -0.028538
v -0.052316 0.009510 -0.027376
v -0.056202 0.010502 -0.028626
v -0.053553 0.009510 -0.027484
v -0.053884 0.009510 -0.027513
v -0.054216 0.009510 -0.027542
vn 0.0405 0.0752 0.9963
vn 0.0220 0.1074 0.9940
vn -0.0000 0.1075 0.9942
vn -0.0000 -0.0000 1.0000
vn 0.0406 -0.0000 0.9992
vn 0.0984 0.0243 0.9948
vn 0.0529 0.0752 0.9958
vn 0.0983 -0.0000 0.9952
vn 0.0985 -0.0000 0.9951
vn 0.0857 0.7174 0.6913
vn 0.0769 0.7179 0.6918
vn 0.0720 0.7182 0.6921
vn 0.0330 0.7174 0.6959
vn 0.0155 0.7177 0.6962
vn 0.0115 0.7177 0.6963
vn -0.0000 0.7171 0.6970
vn -1.0000 -0.0000 -0.0000
vn -1.0000 0.0009 -0.0000
vn -0.0000 -0.0064 1.0000
vn 0.0214 -0.0171 0.9996
vn 0.0321 -0.0171 0.9993
vn 0.0406 -0.0086 0.9991
vn 0.1736 0.0302 0.9844
vn 0.1737 -0.0000 0.9848
vn 0.1820 0.3361 0.9241
vn 0.1507 0.5789 0.8014
vn 0.1154 0.7163 0.6882
vn 0.1912 0.1633 0.9679
vn 0.0713 -0.0085 0.9974
vn 0.0408 -0.0278 0.9988
vn -0.0000 -1.0000 -0.0000
vn -0.0000 -1.0000 -0.0001
vn -0.0000 1.0000 -0.0032
vn -0.0000 1.0000 0.0010
vn -0.0000 1.0000 -0.0001
vn -0.0000 1.0000 -0.0023
vn -0.0000 1.0000 0.0061
vn -0.0000 1.0000 -0.0000
vn -0.0000 1.0000 0.0014
vn -0.0000 1.0000 0.0001
vn 0.1202 0.7171 0.6865
vn -0.0121 0.7177 0.6962
vn -0.0174 -0.0150 0.9997
vn 0.0320 -0.0278 0.9991
vn 0.0321 -0.0278 0.9991
vn 0.2119 0.1055 0.9716
vn 0.2131 -0.0000 0.9770
vn 0.2655 0.0454 0.9631
vn 0.3425 0.0501 0.9382
vn 0.3643 0.1684 0.9159
vn 0.3488 0.3213 0.8804
vn 0.2350 0.7165 0.6568
vn 0.2162 0.7179 0.6617
vn 0.2084 0.7179 0.6642
vn 0.2065 0.7188 0.6638
vn 0.1790 0.7184 0.6722
vn 0.1575 0.7185 0.6775
vn 0.1526 0.7181 0.6790
vn 0.1260 0.7176 0.6849
vn 0.1233 0.7174 0.6857
vn -0.0304 -0.0278 0.9992
vn 0.2657 -0.0000 0.9641
vn 0.2657 -0.0000 0.9640
vn 0.3421 0.0004 0.9397
vn 0.3429 0.0074 0.9393
vn 0.3419 -0.0000 0.9397
vn 1.0000 -0.0000 -0.0000
vn 1.0000 -0.0001 -0.0000
vn 0.3575 0.7003 0.6179
vn 0.3126 0.7102 0.6307
vn 0.2549 0.7165 0.6493
vn 0.2441 0.7169 0.6530
vn 0.2400 0.7168 0.6547
vn -0.4053 -0.0000 -0.9142
vn 0.3424 -0.0000 0.9395
vn 0.3425 -0.0000 0.9395
vn -0.4052 -0.0078 -0.9142
vn -0.4055 -0.0119 -0.9140
vn 0.0225 -0.9656 -0.2591
vn -0.2786 -0.7092 -0.6476
vn -0.4001 -0.1648 -0.9015
vn -0.3543 -0.4491 -0.8202
vn -0.3846 -0.3165 -0.8671
vn 0.0228 -0.9656 -0.2590
vn 0.0227 -0.9656 -0.2590
vn 0.0226 -0.9656 -0.2590
s 0
f 1//1 2//1 3//1
f 1//2 3//2 4//2
f 1//3 4//3 14//3
f 1//3 14//3 5//3
f 1//4 5//4 17//4
f 1//4 17//4 6//4
f 1//5 6//5 9//5
f 1//5 9//5 2//5
f 2//6 7//6 8//6
f 2//7 8//7 3//7
f 2//8 9//8 10//8
f 2//9 10//9 7//9
f 3//10 8//10 11//10
f 3//11 11//11 12//11
f 3//12 12//12 13//12
f 3//13 13//13 4//13
f 4//14 13//14 15//14
f 4//15 15//15 16//15
f 4//16 16//16 28//16
f 4//16 28//16 14//16
f 5//17 14//17 29//17
f 5//17 29//17 44//17
f 5//17 44//17 55//17
f 5//17 55//17 61//17
f 5//18 61//18 66//18
f 5//17 66//17 64//17
f 5//17 64//17 56//17
f 5//17 56//17 45//17
f 5//17 45//17 30//17
f 5//17 30//17 17//17
f 6//19 17//19 31//19
f 6//19 31//19 18//19
f 6//20 18//20 19//20
f 6//21 19//21 20//21
f 6//22 20//22 9//22
f 7//23 21//23 8//23
f 7//24 10//24 21//24
f 8//25 22//25 23//25
f 8//26 23//26 24//26
f 8//27 24//27 11//27
f 8//28 21//28 22//28
f 9//29 20//29 10//29
f 10//30 20//30 25//30
f 10//31 25//31 18//31
f 10//31 18//31 31//31
f 10//31 31//31 45//31
f 10//31 45//31 56//31
f 10//31 56//31 63//31
f 10//31 63//31 69//31
f 10//31 69//31 68//31
f 10//31 68//31 67//31
f 10//31 67//31 65//31
f 10//31 65//31 58//31
f 10//31 58//31 57//31
f 10//31 57//31 48//31
f 10//32 48//32 43//32
f 10//31 43//31 26//31
f 10//24 26//24 21//24
f 11//33 27//33 42//33
f 11//34 42//34 41//34
f 11//35 41//35 40//35
f 11//36 40//36 39//36
f 11//37 39//37 38//37
f 11//35 38//35 37//35
f 11//38 37//38 53//38
f 11//39 53//39 52//39
f 11//35 52//35 51//35
f 11//38 51//38 50//38
f 11//38 50//38 49//38
f 11//38 49//38 54//38
f 11//38 54//38 44//38
f 11//38 44//38 29//38
f 11//38 29//38 28//38
f 11//40 28//40 16//40
f 11//38 16//38 15//38
f 11//34 15//34 13//34
f 11//38 13//38 12//38
f 11//41 24//41 27//41
f 14//42 28//42 29//42
f 17//43 30//43 31//43
f 18//44 25//44 20//44
f 18//45 20//45 19//45
f 21//46 32//46 22//46
f 21//47 26//47 43//47
f 21//47 43//47 32//47
f 22//48 32//48 33//48
f 22//49 33//49 34//49
f 22//50 34//50 35//50
f 22//51 35//51 36//51
f 22//52 36//52 37//52
f 22//53 37//53 38//53
f 22//54 38//54 23//54
f 23//55 38//55 39//55
f 23//56 39//56 40//56
f 23//57 40//57 41//57
f 23//58 41//58 24//58
f 24//59 41//59 42//59
f 24//60 42//60 27//60
f 30//61 45//61 31//61
f 32//62 43//62 48//62
f 32//63 48//63 33//63
f 33//64 46//64 47//64
f 33//65 47//65 34//65
f 33//66 48//66 57//66
f 33//66 57//66 46//66
f 34//67 47//67 58//67
f 34//67 58//67 65//67
f 34//67 65//67 62//67
f 34//67 62//67 60//67
f 34//67 60//67 59//67
f 34//67 59//67 54//67
f 34//67 54//67 49//67
f 34//67 49//67 36//67
f 34//68 36//68 35//68
f 36//69 49//69 50//69
f 36//70 50//70 51//70
f 36//71 51//71 52//71
f 36//72 52//72 53//72
f 36//73 53//73 37//73
f 44//74 54//74 59//74
f 44//74 59//74 55//74
f 46//75 57//75 58//75
f 46//76 58//76 47//76
f 55//77 59//77 60//77
f 55//78 60//78 61//78
f 56//79 62//79 63//79
f 56//80 64//80 62//80
f 60//81 66//81 61//81
f 60//82 62//82 64//82
f 60//83 64//83 66//83
f 62//84 65//84 67//84
f 62//85 67//85 68//85
f 62//85 68//85 69//85
f 62//86 69//86 63//86
