# Blender 4.4.3
# www.blender.org
o socket9mm_collision_geom_14
v -0.074626 0.010482 -0.034133
v -0.074626 0.010534 -0.037167
v -0.074565 0.004720 -0.034133
v -0.074626 0.023750 -0.034133
v -0.074626 0.010540 -0.037325
v -0.074563 0.004548 -0.034133
v -0.073180 0.023750 -0.034133
v -0.074626 0.023750 -0.037325
v -0.074281 0.004122 -0.037325
v -0.074344 0.004170 -0.036606
v -0.074519 0.004374 -0.034653
v -0.074546 0.004374 -0.034307
v -0.074558 0.004374 -0.034133
v -0.073180 0.023750 -0.034307
v -0.069823 0.020832 -0.034133
v -0.073989 0.023750 -0.037325
v -0.074276 0.004028 -0.037325
v -0.074384 0.004108 -0.035691
v -0.074506 0.004238 -0.034133
v -0.074288 0.004028 -0.037074
v -0.069823 0.020832 -0.034653
v -0.073190 0.023750 -0.034653
v -0.069812 0.020728 -0.034133
v -0.073969 0.023750 -0.037290
v -0.070422 0.020888 -0.037325
v -0.074173 0.003816 -0.037325
v -0.074429 0.004102 -0.034653
v -0.074441 0.004102 -0.034307
v -0.074446 0.004102 -0.034133
v -0.069801 0.020626 -0.034653
v -0.069830 0.020820 -0.034999
v -0.073191 0.023750 -0.034661
v -0.069801 0.020626 -0.034133
v -0.073868 0.023750 -0.037104
v -0.070181 0.020812 -0.036926
v -0.070383 0.020806 -0.037325
v -0.073860 0.023750 -0.037086
v -0.073709 0.023750 -0.036753
v -0.073701 0.023750 -0.036735
v -0.073700 0.023750 -0.036733
v -0.074130 0.003746 -0.037325
v -0.074167 0.003948 -0.034133
v -0.069801 0.003682 -0.034653
v -0.069815 0.020626 -0.034999
v -0.069839 0.020806 -0.035201
v -0.073233 0.023750 -0.035005
v -0.069801 0.003682 -0.034133
v -0.073575 0.023750 -0.036396
v -0.073449 0.023750 -0.036044
v -0.073447 0.023750 -0.036036
v -0.070154 0.020844 -0.036728
v -0.070042 0.020626 -0.036382
v -0.070118 0.020626 -0.036728
v -0.070176 0.020626 -0.036939
v -0.070320 0.020626 -0.037325
v -0.073805 0.003582 -0.037325
v -0.073002 0.003572 -0.034133
v -0.069812 0.003578 -0.034133
v -0.069823 0.003476 -0.034653
v -0.069830 0.003486 -0.034999
v -0.069815 0.003682 -0.034999
v -0.069836 0.020626 -0.035216
v -0.070117 0.020880 -0.036382
v -0.073234 0.023750 -0.035019
v -0.073361 0.023750 -0.035719
v -0.073355 0.023750 -0.035697
v -0.070042 0.003682 -0.036382
v -0.070118 0.003682 -0.036728
v -0.070317 0.020280 -0.037325
v -0.070319 0.020520 -0.037325
v -0.070176 0.003682 -0.036939
v -0.073715 0.003556 -0.037325
v -0.072438 0.003392 -0.034133
v -0.072573 0.003434 -0.034133
v -0.069823 0.003476 -0.034133
v -0.070017 0.003382 -0.034653
v -0.070017 0.003392 -0.034999
v -0.069839 0.003502 -0.035201
v -0.070090 0.003416 -0.036036
v -0.070117 0.003428 -0.036382
v -0.069836 0.003682 -0.035216
v -0.070181 0.003496 -0.036926
v -0.070317 0.004028 -0.037325
v -0.070321 0.003682 -0.037325
v -0.070318 0.003922 -0.037325
v -0.073370 0.003460 -0.037325
v -0.073129 0.003396 -0.037325
v -0.073035 0.003374 -0.037325
v -0.072263 0.003358 -0.034133
v -0.070017 0.003382 -0.034133
v -0.070188 0.003350 -0.034133
v -0.070363 0.003318 -0.035691
v -0.070363 0.003320 -0.036036
v -0.070363 0.003332 -0.036382
v -0.070154 0.003464 -0.036728
v -0.070363 0.003368 -0.036728
v -0.070422 0.003426 -0.037325
v -0.072783 0.003334 -0.037325
v -0.072092 0.003328 -0.034133
v -0.070363 0.003318 -0.034133
v -0.070709 0.003318 -0.037074
v -0.070709 0.003328 -0.037325
v -0.070616 0.003356 -0.037325
v -0.072689 0.003326 -0.037325
v -0.072092 0.003326 -0.034307
v -0.071918 0.003322 -0.034133
v -0.071746 0.003318 -0.034133
v -0.070960 0.003318 -0.037325
v -0.072438 0.003320 -0.036728
v -0.072438 0.003318 -0.037325
v -0.072438 0.003318 -0.037074
vn -0.9999 -0.0107 -0.0002
vn -0.0160 -0.0000 0.9999
vn 0.0003 -0.0000 1.0000
vn -0.0000 -0.0000 1.0000
vn -0.0001 -0.0000 1.0000
vn -1.0000 -0.0000 -0.0000
vn -0.9999 -0.0108 -0.0004
vn -0.9999 -0.0110 -0.0008
vn -0.0000 1.0000 -0.0000
vn -0.0000 1.0000 -0.0004
vn -0.0000 1.0000 -0.0001
vn -0.0000 1.0000 0.0006
vn -0.9950 -0.0536 -0.0840
vn -0.9950 -0.0536 -0.0837
vn -0.9958 -0.0503 -0.0762
vn -0.9962 -0.0486 -0.0727
vn -0.9992 -0.0271 -0.0310
vn -0.0000 -0.0000 -1.0000
vn 0.0001 -0.0000 -1.0000
vn -0.0001 -0.0000 -1.0000
vn 0.0033 -0.0000 -1.0000
vn 0.6560 0.7548 -0.0000
vn -0.9950 -0.0549 -0.0839
vn -0.9948 -0.0588 -0.0832
vn -0.9907 -0.1130 -0.0758
vn -0.9872 -0.1426 -0.0721
vn -0.9322 -0.3594 -0.0429
vn -0.9428 -0.3299 -0.0478
vn -0.9349 -0.3522 -0.0445
vn 0.6548 0.7556 -0.0179
vn 0.9946 0.1038 -0.0000
vn 0.5895 0.7347 -0.3359
vn -0.8986 -0.4364 -0.0455
vn -0.9318 -0.3604 -0.0428
vn -0.9268 -0.3732 -0.0427
vn -0.9159 -0.4003 -0.0300
vn -0.9135 -0.4061 -0.0247
vn -0.8957 -0.4430 -0.0387
vn 0.9947 0.1027 -0.0002
vn 0.9944 0.1026 -0.0239
vn 0.6544 0.7551 -0.0396
vn 0.6505 0.7554 -0.0786
vn 0.9948 0.1014 -0.0000
vn 0.5925 0.7384 -0.3221
vn 0.8212 0.3833 -0.4228
vn 0.6035 0.7479 -0.2765
vn 0.6040 0.7484 -0.2740
vn 0.6042 0.7487 -0.2727
vn 0.6161 0.7524 -0.2333
vn 0.6165 0.7534 -0.2287
vn -0.8543 -0.5190 -0.0268
vn -0.8603 -0.5091 -0.0282
vn -0.8406 -0.5412 -0.0227
vn -0.4831 -0.8742 0.0497
vn 0.9992 -0.0000 -0.0396
vn 0.9964 0.0752 -0.0395
vn 1.0000 -0.0000 -0.0000
vn 0.9958 0.0752 -0.0518
vn 0.6503 0.7551 -0.0828
vn 0.6505 0.7553 -0.0796
vn 0.6168 0.7536 -0.2272
vn 0.6180 0.7542 -0.2219
vn 0.6196 0.7546 -0.2160
vn 0.6228 0.7547 -0.2062
vn 0.9200 0.3477 -0.1809
vn 0.9682 0.1614 -0.1911
vn 0.9719 0.1015 -0.2125
vn 0.9633 0.0427 -0.2649
vn 0.9363 0.0476 -0.3480
vn 0.8486 0.3006 -0.4354
vn -0.4494 -0.8918 0.0512
vn -0.3062 -0.9491 0.0741
vn 0.9950 -0.0995 -0.0000
vn 0.9947 -0.1027 -0.0006
vn 0.9944 -0.1026 -0.0233
vn 0.9964 -0.0745 -0.0395
vn 0.9949 0.0236 -0.0977
vn 0.9952 -0.0000 -0.0977
vn 0.9843 0.0297 -0.1738
vn 0.7875 0.5984 -0.1474
vn 0.6483 0.7541 -0.1049
vn 0.6504 0.7549 -0.0839
vn 0.6315 0.7563 -0.1712
vn 0.6337 0.7560 -0.1639
vn 0.6383 0.7555 -0.1476
vn 0.9848 -0.0000 -0.1738
vn 0.9769 -0.0000 -0.2136
vn 0.9642 -0.0000 -0.2652
vn 0.9374 0.0074 -0.3482
vn 0.9373 0.0083 -0.3484
vn 0.9396 -0.0000 -0.3424
vn -0.2777 -0.9587 0.0619
vn -0.2952 -0.9529 0.0697
vn -0.3058 -0.9492 0.0739
vn 0.9944 -0.1059 -0.0000
vn 0.4348 -0.9001 -0.0260
vn 0.4479 -0.8934 -0.0350
vn 0.4349 -0.9005 -0.0000
vn 0.4350 -0.9004 -0.0000
vn 0.9958 -0.0744 -0.0525
vn 0.4475 -0.8927 -0.0520
vn 0.5041 -0.8609 -0.0684
vn 0.6001 -0.7947 -0.0911
vn 0.9949 -0.0236 -0.0977
vn 0.6452 0.7554 -0.1147
vn 0.9843 -0.0297 -0.1738
vn 0.9682 -0.1614 -0.1911
vn 0.9719 -0.1015 -0.2125
vn 0.9633 -0.0427 -0.2649
vn 0.9355 -0.0478 -0.3501
vn 0.9365 -0.0110 -0.3504
vn 0.9371 -0.0085 -0.3490
vn -0.2678 -0.9618 0.0577
vn -0.2564 -0.9650 0.0543
vn -0.2266 -0.9728 0.0479
vn -0.1908 -0.9808 0.0412
vn 0.1840 -0.9829 -0.0000
vn 0.1830 -0.9831 -0.0003
vn 0.1985 -0.9801 -0.0057
vn 0.2828 -0.9588 -0.0277
vn 0.2979 -0.9540 -0.0331
vn 0.3465 -0.9369 -0.0460
vn 0.7875 -0.5984 -0.1474
vn 0.9200 -0.3478 -0.1809
vn 0.3622 -0.9302 -0.0599
vn 0.3611 -0.9275 -0.0966
vn 0.3998 -0.9077 -0.1276
vn 0.4370 -0.8885 -0.1397
vn 0.5706 -0.7950 -0.2057
vn 0.8322 -0.3302 -0.4454
vn -0.1571 -0.9871 0.0322
vn -0.1731 -0.9842 0.0369
vn 0.1801 -0.9837 -0.0000
vn 0.0231 -0.9997 -0.0058
vn -0.0000 -1.0000 -0.0000
vn 0.1091 -0.9934 -0.0345
vn 0.1190 -0.9921 -0.0394
vn 0.2821 -0.9542 -0.0994
vn 0.2879 -0.9521 -0.1029
vn 0.3366 -0.9335 -0.1239
vn -0.0843 -0.9963 0.0164
vn -0.0578 -0.9983 0.0114
vn -0.0343 -0.9993 0.0114
vn 0.0397 -0.9984 -0.0397
vn -0.0450 -0.9989 0.0089
vn -0.0318 -0.9995 -0.0000
vn -0.0376 -0.9993 0.0058
vn -0.0296 -0.9995 0.0067
vn -0.0250 -0.9997 0.0058
vn -0.0233 -0.9997 0.0055
s 0
f 1//1 2//1 3//1
f 1//2 3//2 6//2
f 1//3 6//3 13//3
f 1//4 13//4 19//4
f 1//4 19//4 29//4
f 1//4 29//4 42//4
f 1//4 42//4 57//4
f 1//4 57//4 74//4
f 1//4 74//4 73//4
f 1//4 73//4 89//4
f 1//4 89//4 99//4
f 1//4 99//4 106//4
f 1//4 106//4 107//4
f 1//4 107//4 100//4
f 1//4 100//4 91//4
f 1//4 91//4 90//4
f 1//4 90//4 75//4
f 1//4 75//4 58//4
f 1//4 58//4 47//4
f 1//4 47//4 33//4
f 1//4 33//4 23//4
f 1//5 23//5 15//5
f 1//4 15//4 7//4
f 1//4 7//4 4//4
f 1//6 4//6 8//6
f 1//6 8//6 5//6
f 1//6 5//6 2//6
f 2//7 5//7 3//7
f 3//8 5//8 6//8
f 4//9 7//9 14//9
f 4//9 14//9 22//9
f 4//10 22//10 32//10
f 4//9 32//9 46//9
f 4//11 46//11 64//11
f 4//9 64//9 66//9
f 4//9 66//9 65//9
f 4//9 65//9 50//9
f 4//9 50//9 49//9
f 4//9 49//9 48//9
f 4//9 48//9 40//9
f 4//12 40//12 39//12
f 4//9 39//9 38//9
f 4//9 38//9 37//9
f 4//9 37//9 34//9
f 4//9 34//9 24//9
f 4//9 24//9 16//9
f 4//9 16//9 8//9
f 5//13 9//13 10//13
f 5//14 10//14 11//14
f 5//15 11//15 12//15
f 5//16 12//16 13//16
f 5//17 13//17 6//17
f 5//18 8//18 16//18
f 5//18 16//18 25//18
f 5//18 25//18 36//18
f 5//18 36//18 55//18
f 5//18 55//18 70//18
f 5//18 70//18 69//18
f 5//18 69//18 83//18
f 5//18 83//18 85//18
f 5//18 85//18 84//18
f 5//18 84//18 97//18
f 5//18 97//18 103//18
f 5//18 103//18 102//18
f 5//18 102//18 108//18
f 5//18 108//18 110//18
f 5//18 110//18 104//18
f 5//19 104//19 98//19
f 5//18 98//18 88//18
f 5//20 88//20 87//20
f 5//18 87//18 86//18
f 5//18 86//18 72//18
f 5//18 72//18 56//18
f 5//18 56//18 41//18
f 5//18 41//18 26//18
f 5//18 26//18 17//18
f 5//21 17//21 9//21
f 7//22 15//22 21//22
f 7//22 21//22 14//22
f 9//23 17//23 10//23
f 10//24 17//24 11//24
f 11//25 17//25 12//25
f 12//26 17//26 13//26
f 13//27 18//27 19//27
f 13//28 17//28 20//28
f 13//29 20//29 18//29
f 14//30 21//30 22//30
f 15//31 23//31 21//31
f 16//32 24//32 25//32
f 17//33 26//33 20//33
f 18//34 27//34 19//34
f 18//35 20//35 27//35
f 19//36 27//36 28//36
f 19//37 28//37 29//37
f 20//38 26//38 27//38
f 21//39 23//39 30//39
f 21//40 30//40 31//40
f 21//41 31//41 22//41
f 22//42 31//42 32//42
f 23//43 33//43 30//43
f 24//44 34//44 25//44
f 25//45 35//45 36//45
f 25//46 34//46 37//46
f 25//47 37//47 38//47
f 25//48 38//48 39//48
f 25//49 39//49 40//49
f 25//50 40//50 35//50
f 26//51 41//51 28//51
f 26//52 28//52 27//52
f 28//53 41//53 29//53
f 29//54 41//54 42//54
f 30//55 43//55 61//55
f 30//55 61//55 44//55
f 30//56 44//56 31//56
f 30//57 33//57 47//57
f 30//57 47//57 43//57
f 31//58 44//58 45//58
f 31//59 45//59 46//59
f 31//60 46//60 32//60
f 35//61 40//61 48//61
f 35//62 48//62 49//62
f 35//63 49//63 50//63
f 35//64 50//64 51//64
f 35//65 51//65 45//65
f 35//66 45//66 52//66
f 35//67 52//67 53//67
f 35//68 53//68 54//68
f 35//69 54//69 55//69
f 35//70 55//70 36//70
f 41//71 56//71 42//71
f 42//72 56//72 57//72
f 43//73 47//73 58//73
f 43//74 58//74 59//74
f 43//75 59//75 60//75
f 43//76 60//76 61//76
f 44//77 62//77 45//77
f 44//78 61//78 81//78
f 44//78 81//78 62//78
f 45//79 62//79 52//79
f 45//80 51//80 63//80
f 45//81 63//81 64//81
f 45//82 64//82 46//82
f 50//83 65//83 51//83
f 51//84 65//84 66//84
f 51//85 66//85 63//85
f 52//86 62//86 81//86
f 52//86 81//86 67//86
f 52//87 67//87 68//87
f 52//87 68//87 53//87
f 53//88 68//88 71//88
f 53//88 71//88 54//88
f 54//89 69//89 70//89
f 54//90 70//90 55//90
f 54//91 71//91 83//91
f 54//91 83//91 69//91
f 56//92 72//92 73//92
f 56//93 73//93 74//93
f 56//94 74//94 57//94
f 58//95 75//95 59//95
f 59//96 76//96 77//96
f 59//97 77//97 60//97
f 59//98 75//98 90//98
f 59//99 90//99 76//99
f 60//100 78//100 61//100
f 60//101 77//101 79//101
f 60//102 79//102 80//102
f 60//103 80//103 78//103
f 61//104 78//104 81//104
f 63//105 66//105 64//105
f 67//106 81//106 78//106
f 67//107 78//107 82//107
f 67//108 82//108 68//108
f 68//109 82//109 71//109
f 71//110 82//110 84//110
f 71//111 84//111 85//111
f 71//112 85//112 83//112
f 72//113 86//113 73//113
f 73//114 86//114 87//114
f 73//115 87//115 88//115
f 73//116 88//116 89//116
f 76//117 90//117 91//117
f 76//118 91//118 92//118
f 76//119 92//119 93//119
f 76//120 93//120 77//120
f 77//121 93//121 94//121
f 77//122 94//122 79//122
f 78//123 80//123 95//123
f 78//124 95//124 82//124
f 79//125 94//125 80//125
f 80//126 94//126 96//126
f 80//127 96//127 97//127
f 80//128 97//128 95//128
f 82//129 95//129 97//129
f 82//130 97//130 84//130
f 88//131 98//131 99//131
f 88//132 99//132 89//132
f 91//133 100//133 92//133
f 92//134 101//134 93//134
f 92//135 100//135 107//135
f 92//135 107//135 111//135
f 92//135 111//135 110//135
f 92//135 110//135 108//135
f 92//135 108//135 101//135
f 93//136 101//136 94//136
f 94//137 101//137 102//137
f 94//138 102//138 96//138
f 96//139 102//139 103//139
f 96//140 103//140 97//140
f 98//141 104//141 99//141
f 99//142 104//142 105//142
f 99//143 105//143 106//143
f 101//144 108//144 102//144
f 104//145 109//145 105//145
f 104//146 110//146 111//146
f 104//147 111//147 109//147
f 105//148 109//148 106//148
f 106//149 109//149 111//149
f 106//150 111//150 107//150
