# Blender 4.4.3
# www.blender.org
o socket8mm_collision_geom_20
v -0.107029 0.009672 -0.030354
v -0.102931 0.009672 -0.030354
v -0.107013 0.009672 -0.030279
v -0.107029 0.019469 -0.030354
v -0.102613 0.009672 -0.028114
v -0.100155 0.010236 -0.030354
v -0.097649 0.010315 -0.029467
v -0.097649 0.010232 -0.029283
v -0.097649 0.010176 -0.028951
v -0.106985 0.009672 -0.030180
v -0.107013 0.019802 -0.030279
v -0.107028 0.019802 -0.030354
v -0.106125 0.009672 -0.028114
v -0.097649 0.010164 -0.028114
v -0.100119 0.010248 -0.030354
v -0.099909 0.010361 -0.030354
v -0.099870 0.010485 -0.030354
v -0.097649 0.010507 -0.029486
v -0.106956 0.009672 -0.030075
v -0.106956 0.019802 -0.030075
v -0.106951 0.019981 -0.030088
v -0.107002 0.019964 -0.030354
v -0.106128 0.009672 -0.028117
v -0.106125 0.019802 -0.028114
v -0.097649 0.022840 -0.028114
v -0.099867 0.010511 -0.030354
v -0.097649 0.010674 -0.029487
v -0.106896 0.009672 -0.029909
v -0.106896 0.019469 -0.029909
v -0.106669 0.019802 -0.029286
v -0.106978 0.020012 -0.030279
v -0.106609 0.019802 -0.029120
v -0.106546 0.019802 -0.028951
v -0.106650 0.020013 -0.029340
v -0.106985 0.020019 -0.030354
v -0.106300 0.009672 -0.028416
v -0.106300 0.019802 -0.028416
v -0.106090 0.019930 -0.028114
v -0.106293 0.019986 -0.028428
v -0.097649 0.022840 -0.029487
v -0.101601 0.022840 -0.028114
v -0.097649 0.010838 -0.029487
v -0.099868 0.022840 -0.030354
v -0.106610 0.009672 -0.029120
v -0.106610 0.019469 -0.029120
v -0.106697 0.020050 -0.029615
v -0.103263 0.022840 -0.030354
v -0.106403 0.019802 -0.028619
v -0.106547 0.019469 -0.028951
v -0.106340 0.020028 -0.028619
v -0.103231 0.022840 -0.030267
v -0.106353 0.009672 -0.028520
v -0.106404 0.019469 -0.028619
v -0.106044 0.020035 -0.028114
v -0.103064 0.022840 -0.029933
v -0.101788 0.022840 -0.028268
v -0.106579 0.009672 -0.029038
v -0.106547 0.009672 -0.028951
v -0.106477 0.009672 -0.028789
v -0.103217 0.022840 -0.030236
v -0.106404 0.009672 -0.028619
v -0.101805 0.022840 -0.028283
v -0.101980 0.022840 -0.028437
v -0.102120 0.022840 -0.028596
v -0.102412 0.022840 -0.028939
v -0.102439 0.022840 -0.028971
v -0.102590 0.022840 -0.029166
v -0.102669 0.022840 -0.029271
v -0.102694 0.022840 -0.029305
v -0.102866 0.022840 -0.029590
v -0.102880 0.022840 -0.029613
vn -0.0000 -1.0000 -0.0000
vn -0.0000 -1.0000 0.0001
vn -0.0000 -1.0000 0.0002
vn -0.9765 -0.0000 0.2157
vn 0.0026 -0.0000 -1.0000
vn -0.0000 -0.0000 -1.0000
vn 0.0001 -0.0000 -1.0000
vn 0.1799 -0.8847 -0.4301
vn 0.1769 -0.8982 -0.4023
vn 0.1375 -0.9763 -0.1669
vn 0.0987 -0.9950 -0.0140
vn -0.9636 -0.0000 0.2673
vn -0.9789 0.0027 0.2043
vn 0.0987 -0.9950 -0.0138
vn -0.0000 -0.0000 1.0000
vn 0.2422 -0.7477 -0.6183
vn 0.2957 -0.5481 -0.7824
vn 0.3608 -0.1151 -0.9255
vn 0.3632 -0.0921 -0.9272
vn 1.0000 -0.0000 -0.0000
vn -0.9629 -0.0000 0.2700
vn -0.9632 -0.0000 0.2687
vn -0.9623 0.0437 0.2684
vn -0.9721 0.1175 0.2029
vn -0.9717 0.1593 0.1743
vn -0.7857 -0.0000 0.6186
vn 0.3640 -0.0393 -0.9306
vn 0.3643 -0.0036 -0.9313
vn -0.9410 -0.0000 0.3384
vn -0.9399 0.0018 0.3415
vn -0.9388 0.0483 0.3411
vn -0.9615 0.2168 0.1688
vn -0.9379 0.0560 0.3424
vn -0.9356 0.0743 0.3452
vn -0.9095 0.2122 0.3575
vn -0.5991 0.7731 0.2082
vn -0.9512 0.2831 0.1228
vn -0.8650 0.0001 0.5018
vn -0.8659 -0.0000 0.5002
vn -0.8024 0.2174 0.5558
vn -0.8630 0.0677 0.5006
vn -0.0000 1.0000 -0.0000
vn 0.3642 -0.0013 -0.9313
vn 0.3639 -0.0000 -0.9314
vn 0.3640 -0.0000 -0.9314
vn -0.9399 -0.0000 0.3415
vn -0.9393 0.0026 0.3430
vn -0.5973 0.7747 0.2076
vn -0.5903 0.7809 0.2043
vn -0.5979 0.7892 0.1403
vn -0.9382 0.0026 0.3461
vn -0.9094 0.1375 0.3924
vn -0.9059 0.2209 0.3613
vn -0.9182 0.0025 0.3962
vn -0.7575 0.5725 0.3136
vn -0.5813 0.7795 0.2334
vn -0.5882 0.7806 0.2115
vn -0.5896 0.7807 0.2071
vn -0.8903 -0.0000 0.4553
vn -0.8902 0.0655 0.4509
vn -0.8921 0.0025 0.4519
vn -0.8905 -0.0000 0.4551
vn -0.7636 0.3355 0.5517
vn -0.5447 0.7794 0.3095
vn -0.5456 0.7795 0.3077
vn -0.4478 0.7094 0.5442
vn -0.9386 -0.0000 0.3451
vn -0.9382 -0.0000 0.3461
vn -0.9378 -0.0000 0.3471
vn -0.9182 -0.0000 0.3960
vn -0.9182 -0.0000 0.3962
vn -0.5578 0.7811 0.2806
vn -0.5641 0.7810 0.2682
vn -0.8906 -0.0000 0.4549
vn -0.9181 -0.0000 0.3964
vn -0.4550 0.7194 0.5248
vn -0.4574 0.7225 0.5184
vn -0.4886 0.7578 0.4324
vn -0.4932 0.7621 0.4195
vn -0.4962 0.7639 0.4127
vn -0.5049 0.7688 0.3924
vn -0.5096 0.7708 0.3823
vn -0.5141 0.7725 0.3727
vn -0.5369 0.7789 0.3242
vn -0.5392 0.7792 0.3197
vn -0.5426 0.7795 0.3131
s 0
f 1//1 2//1 5//1
f 1//1 5//1 13//1
f 1//2 13//2 23//2
f 1//1 23//1 36//1
f 1//1 36//1 52//1
f 1//1 52//1 61//1
f 1//1 61//1 59//1
f 1//1 59//1 58//1
f 1//1 58//1 57//1
f 1//3 57//3 44//3
f 1//1 44//1 28//1
f 1//1 28//1 19//1
f 1//2 19//2 10//2
f 1//1 10//1 3//1
f 1//4 3//4 11//4
f 1//4 11//4 4//4
f 1//5 4//5 12//5
f 1//6 12//6 22//6
f 1//7 22//7 35//7
f 1//6 35//6 47//6
f 1//6 47//6 43//6
f 1//6 43//6 26//6
f 1//6 26//6 17//6
f 1//6 17//6 16//6
f 1//6 16//6 15//6
f 1//6 15//6 6//6
f 1//6 6//6 2//6
f 2//8 6//8 7//8
f 2//9 7//9 8//9
f 2//10 8//10 9//10
f 2//11 9//11 5//11
f 3//12 10//12 11//12
f 4//13 11//13 12//13
f 5//14 9//14 14//14
f 5//15 14//15 25//15
f 5//15 25//15 41//15
f 5//15 41//15 54//15
f 5//15 54//15 38//15
f 5//15 38//15 24//15
f 5//15 24//15 13//15
f 6//16 15//16 7//16
f 7//17 15//17 16//17
f 7//18 16//18 17//18
f 7//19 17//19 18//19
f 7//20 18//20 27//20
f 7//20 27//20 42//20
f 7//20 42//20 40//20
f 7//20 40//20 25//20
f 7//20 25//20 14//20
f 7//20 14//20 9//20
f 7//20 9//20 8//20
f 10//21 19//21 20//21
f 10//22 20//22 11//22
f 11//23 20//23 21//23
f 11//24 21//24 12//24
f 12//25 21//25 22//25
f 13//26 24//26 23//26
f 17//27 26//27 18//27
f 18//28 26//28 27//28
f 19//29 28//29 29//29
f 19//29 29//29 20//29
f 20//30 29//30 45//30
f 20//30 45//30 30//30
f 20//31 30//31 21//31
f 21//32 31//32 22//32
f 21//33 30//33 32//33
f 21//34 32//34 33//34
f 21//35 33//35 34//35
f 21//36 34//36 31//36
f 22//37 31//37 35//37
f 23//38 24//38 37//38
f 23//39 37//39 36//39
f 24//40 38//40 39//40
f 24//41 39//41 37//41
f 25//42 40//42 43//42
f 25//42 43//42 47//42
f 25//42 47//42 51//42
f 25//42 51//42 60//42
f 25//42 60//42 55//42
f 25//42 55//42 71//42
f 25//42 71//42 70//42
f 25//42 70//42 69//42
f 25//42 69//42 68//42
f 25//42 68//42 67//42
f 25//42 67//42 66//42
f 25//42 66//42 65//42
f 25//42 65//42 64//42
f 25//42 64//42 63//42
f 25//42 63//42 62//42
f 25//42 62//42 56//42
f 25//42 56//42 41//42
f 26//43 42//43 27//43
f 26//44 43//44 40//44
f 26//45 40//45 42//45
f 28//46 44//46 45//46
f 28//46 45//46 29//46
f 30//47 45//47 32//47
f 31//48 34//48 46//48
f 31//49 46//49 47//49
f 31//50 47//50 35//50
f 32//51 45//51 49//51
f 32//51 49//51 33//51
f 33//52 48//52 39//52
f 33//53 39//53 34//53
f 33//54 49//54 53//54
f 33//54 53//54 48//54
f 34//55 39//55 50//55
f 34//56 50//56 51//56
f 34//57 51//57 47//57
f 34//58 47//58 46//58
f 36//59 37//59 52//59
f 37//60 39//60 48//60
f 37//61 48//61 53//61
f 37//62 53//62 52//62
f 38//63 54//63 39//63
f 39//64 54//64 55//64
f 39//65 55//65 50//65
f 41//66 56//66 54//66
f 44//67 57//67 45//67
f 45//68 57//68 49//68
f 49//69 57//69 58//69
f 49//70 58//70 59//70
f 49//71 59//71 53//71
f 50//72 55//72 60//72
f 50//73 60//73 51//73
f 52//74 53//74 61//74
f 53//75 59//75 61//75
f 54//76 56//76 62//76
f 54//77 62//77 63//77
f 54//78 63//78 64//78
f 54//79 64//79 65//79
f 54//80 65//80 66//80
f 54//81 66//81 67//81
f 54//82 67//82 68//82
f 54//83 68//83 69//83
f 54//84 69//84 70//84
f 54//85 70//85 71//85
f 54//86 71//86 55//86
