# Blender 4.4.3
# www.blender.org
o socket8mm_collision_geom_17
v -0.100929 0.022840 -0.032767
v -0.100648 0.022840 -0.034105
v -0.103760 0.022840 -0.032767
v -0.100929 0.010671 -0.032767
v -0.100648 0.022840 -0.038087
v -0.100648 0.011154 -0.034105
v -0.103760 0.022840 -0.032936
v -0.107295 0.019998 -0.032767
v -0.100930 0.010507 -0.032767
v -0.100648 0.010824 -0.034106
v -0.100803 0.022840 -0.038001
v -0.100648 0.020052 -0.041859
v -0.100801 0.020050 -0.041818
v -0.101074 0.020012 -0.041772
v -0.101797 0.020028 -0.041461
v -0.103750 0.022840 -0.033218
v -0.107295 0.019998 -0.033267
v -0.107305 0.019901 -0.032767
v -0.100648 0.010507 -0.034116
v -0.100949 0.010315 -0.032767
v -0.100826 0.022840 -0.037987
v -0.102400 0.020024 -0.041129
v -0.100648 0.019921 -0.041920
v -0.100648 0.019801 -0.041963
v -0.101128 0.019801 -0.041791
v -0.101294 0.019801 -0.041730
v -0.101465 0.019801 -0.041666
v -0.101987 0.019985 -0.041414
v -0.103748 0.022840 -0.033267
v -0.107288 0.019989 -0.033599
v -0.107316 0.019801 -0.033267
v -0.107316 0.019801 -0.032767
v -0.100648 0.010277 -0.034302
v -0.101039 0.010273 -0.032767
v -0.100648 0.009515 -0.038126
v -0.101110 0.022840 -0.037815
v -0.103031 0.020013 -0.040780
v -0.100648 0.019469 -0.041966
v -0.101465 0.019469 -0.041668
v -0.101797 0.019801 -0.041523
v -0.101999 0.019801 -0.041421
v -0.102452 0.019801 -0.041159
v -0.102793 0.019801 -0.040961
v -0.103066 0.019801 -0.040802
v -0.103713 0.022840 -0.033550
v -0.107279 0.019976 -0.033793
v -0.107302 0.019801 -0.033599
v -0.103708 0.022840 -0.033595
v -0.107303 0.009515 -0.033594
v -0.107316 0.009515 -0.033267
v -0.107316 0.009515 -0.032767
v -0.102743 0.009515 -0.032767
v -0.100648 0.009515 -0.041966
v -0.101144 0.022840 -0.037791
v -0.103232 0.019801 -0.040695
v -0.103965 0.019977 -0.040081
v -0.103390 0.020029 -0.040487
v -0.101797 0.019469 -0.041524
v -0.101465 0.009515 -0.041668
v -0.102001 0.009515 -0.041420
v -0.102793 0.019469 -0.040962
v -0.102452 0.009515 -0.041159
v -0.103232 0.019469 -0.040696
v -0.103066 0.009515 -0.040802
v -0.107014 0.020046 -0.034928
v -0.106977 0.020012 -0.035260
v -0.106952 0.019981 -0.035450
v -0.107084 0.019801 -0.034928
v -0.107282 0.019801 -0.033807
v -0.103661 0.022840 -0.033857
v -0.107282 0.009515 -0.033807
v -0.101444 0.022840 -0.037560
v -0.103440 0.019801 -0.040529
v -0.103441 0.019469 -0.040530
v -0.104317 0.019996 -0.039766
v -0.103970 0.019801 -0.040085
v -0.104333 0.019801 -0.039780
v -0.101477 0.022840 -0.037533
v -0.101797 0.009515 -0.041524
v -0.101801 0.009515 -0.041522
v -0.102793 0.009515 -0.040962
v -0.103232 0.009515 -0.040696
v -0.103236 0.009515 -0.040693
v -0.103576 0.022840 -0.034290
v -0.106650 0.020013 -0.036197
v -0.103501 0.022840 -0.034546
v -0.103486 0.022840 -0.034595
v -0.106546 0.019801 -0.036587
v -0.106609 0.019801 -0.036418
v -0.106670 0.019801 -0.036251
v -0.106956 0.019801 -0.035462
v -0.107012 0.019801 -0.035260
v -0.107202 0.019469 -0.034263
v -0.107085 0.009515 -0.034922
v -0.107202 0.009515 -0.034263
v -0.103789 0.019469 -0.040237
v -0.103441 0.009515 -0.040530
v -0.103792 0.009515 -0.040235
v -0.104499 0.019801 -0.039621
v -0.104645 0.019996 -0.039440
v -0.101820 0.022840 -0.037241
v -0.101805 0.022840 -0.037255
v -0.104333 0.009515 -0.039780
v -0.106340 0.020028 -0.036919
v -0.106292 0.019986 -0.037109
v -0.103364 0.022840 -0.034930
v -0.103243 0.022840 -0.035243
v -0.106403 0.019801 -0.036919
v -0.106548 0.019469 -0.036587
v -0.106610 0.009515 -0.036415
v -0.106956 0.009515 -0.035462
v -0.107012 0.009515 -0.035260
v -0.104658 0.019801 -0.039455
v -0.104499 0.009515 -0.039621
v -0.104959 0.019978 -0.039087
v -0.105365 0.020029 -0.038511
v -0.102439 0.022840 -0.036567
v -0.102132 0.022840 -0.036927
v -0.102097 0.022840 -0.036964
v -0.106007 0.020024 -0.037522
v -0.103232 0.022840 -0.035272
v -0.103065 0.022840 -0.035605
v -0.105658 0.020013 -0.038152
v -0.105680 0.019801 -0.038188
v -0.105840 0.019801 -0.037914
v -0.106038 0.019801 -0.037574
v -0.106300 0.019801 -0.037122
v -0.106404 0.019469 -0.036919
v -0.106548 0.009515 -0.036587
v -0.104963 0.019801 -0.039092
v -0.104658 0.009515 -0.039455
v -0.104826 0.009515 -0.039255
v -0.105407 0.019801 -0.038562
v -0.105573 0.019801 -0.038354
v -0.102694 0.022840 -0.036232
v -0.102472 0.022840 -0.036526
v -0.102881 0.022840 -0.035925
v -0.105841 0.019469 -0.037914
v -0.105574 0.019469 -0.038354
v -0.105576 0.009515 -0.038351
v -0.105680 0.009515 -0.038188
v -0.105942 0.019469 -0.037740
v -0.106206 0.009515 -0.037285
v -0.106300 0.009515 -0.037122
v -0.106302 0.009515 -0.037118
v -0.106404 0.009515 -0.036919
v -0.105408 0.019469 -0.038562
v -0.104963 0.009515 -0.039092
v -0.105841 0.009515 -0.037914
v -0.105574 0.009515 -0.038354
v -0.105408 0.009515 -0.038562
vn -0.0000 1.0000 -0.0000
vn -0.0000 -0.0000 1.0000
vn 0.0001 -0.0000 1.0000
vn 0.0006 -0.0000 1.0000
vn 0.9786 -0.0000 0.2058
vn 1.0000 -0.0000 -0.0000
vn 1.0000 -0.0001 -0.0000
vn 1.0000 0.0001 -0.0000
vn -0.6266 0.7794 -0.0000
vn -0.6265 0.7794 -0.0000
vn 0.9787 -0.0039 0.2052
vn 0.9786 -0.0006 0.2056
vn -0.1690 0.7927 -0.5858
vn -0.2082 0.7874 -0.5802
vn -0.2304 0.7847 -0.5755
vn -0.3052 0.7801 -0.5462
vn -0.6251 0.7802 -0.0217
vn -0.9942 0.1075 -0.0000
vn 0.9788 -0.0064 0.2046
vn 0.9743 -0.0963 0.2037
vn -0.3058 0.7800 -0.5460
vn -0.3120 0.7798 -0.5427
vn -0.2203 0.4111 -0.8846
vn -0.2149 0.5993 -0.7711
vn -0.2493 0.3221 -0.9133
vn -0.3327 0.1674 -0.9281
vn -0.3370 0.1683 -0.9263
vn -0.3435 0.1758 -0.9225
vn -0.3617 0.2172 -0.9066
vn -0.3158 0.5638 -0.7631
vn -0.3117 0.7700 -0.5567
vn -0.6251 0.7802 -0.0247
vn -0.9942 0.1055 -0.0224
vn -0.9944 0.1055 -0.0004
vn -0.6249 0.7800 -0.0337
vn -0.9946 0.1034 -0.0000
vn 0.9685 -0.1565 0.1938
vn 0.4152 -0.8960 0.1571
vn 0.6575 -0.7389 0.1472
vn -0.3126 0.7798 -0.5424
vn -0.3237 0.7807 -0.5345
vn -0.3382 0.7331 -0.5901
vn -0.3374 0.0102 -0.9413
vn -0.3419 0.0029 -0.9397
vn -0.3426 0.0013 -0.9395
vn -0.3490 0.0051 -0.9371
vn -0.3929 0.1333 -0.9099
vn -0.3964 0.0050 -0.9181
vn -0.4528 0.0595 -0.8896
vn -0.4979 0.0615 -0.8650
vn -0.5012 0.0738 -0.8622
vn -0.5026 0.0842 -0.8604
vn -0.5081 0.1701 -0.8443
vn -0.6210 0.7801 -0.0760
vn -0.9960 0.0727 -0.0520
vn -0.9965 0.0727 -0.0411
vn -0.6207 0.7798 -0.0809
vn -0.6207 0.7797 -0.0819
vn -0.9991 -0.0000 -0.0412
vn -0.9992 -0.0000 -0.0399
vn -1.0000 -0.0000 -0.0000
vn 0.4012 -0.9024 0.1569
vn -0.0000 -1.0000 -0.0000
vn -0.0000 -1.0000 -0.0001
vn -0.0000 -1.0000 0.0001
vn -0.3640 0.7806 -0.5081
vn -0.5346 0.1727 -0.8272
vn -0.5871 0.2447 -0.7716
vn -0.5169 0.5426 -0.6621
vn -0.3749 0.7801 -0.5009
vn -0.3426 -0.0000 -0.9395
vn -0.3985 0.0025 -0.9172
vn -0.3985 -0.0000 -0.9172
vn -0.4535 0.0024 -0.8912
vn -0.4566 -0.0000 -0.8896
vn -0.4989 0.0001 -0.8667
vn -0.5026 0.0024 -0.8645
vn -0.4997 -0.0000 -0.8662
vn -0.5009 -0.0000 -0.8655
vn -0.5044 0.0024 -0.8635
vn -0.5428 0.0023 -0.8399
vn -0.5065 -0.0000 -0.8622
vn -0.5396 -0.0000 -0.8419
vn -0.6194 0.7791 -0.0967
vn -0.7888 0.5966 -0.1477
vn -0.9194 0.3494 -0.1807
vn -0.9687 0.1587 -0.1911
vn -0.9844 0.0281 -0.1737
vn -0.9950 0.0224 -0.0973
vn -0.9953 -0.0000 -0.0973
vn -0.6152 0.7806 -0.1103
vn -0.9952 -0.0000 -0.0979
vn -0.3809 0.7802 -0.4961
vn -0.6170 0.1337 -0.7755
vn -0.6214 0.0021 -0.7835
vn -0.6226 0.0034 -0.7825
vn -0.4520 0.7025 -0.5498
vn -0.6417 0.0363 -0.7661
vn -0.6433 0.0362 -0.7648
vn -0.6593 0.1042 -0.7446
vn -0.4015 0.7791 -0.4814
vn -0.3996 0.7793 -0.4827
vn -0.4171 -0.0000 -0.9089
vn -0.4559 -0.0000 -0.8900
vn -0.5661 -0.0000 -0.8243
vn -0.6214 -0.0000 -0.7835
vn -0.6126 0.7812 -0.1200
vn -0.6073 0.7808 -0.1465
vn -0.5983 0.7739 -0.2077
vn -0.5992 0.7811 -0.1759
vn -0.5979 0.7808 -0.1813
vn -0.5920 0.7793 -0.2055
vn -0.9099 0.2096 -0.3580
vn -0.9320 0.0996 -0.3485
vn -0.9382 0.0527 -0.3420
vn -0.9388 0.0476 -0.3411
vn -0.9628 0.0431 -0.2668
vn -0.9719 0.1062 -0.2101
vn -0.9848 0.0008 -0.1737
vn -0.9774 -0.0000 -0.2112
vn -0.9847 -0.0000 -0.1741
vn -0.9849 -0.0000 -0.1732
vn -0.6421 0.0033 -0.7666
vn -0.6430 0.0008 -0.7659
vn -0.6224 -0.0000 -0.7827
vn -0.6429 -0.0000 -0.7659
vn -0.6430 -0.0000 -0.7659
vn -0.6872 0.1047 -0.7189
vn -0.7003 0.1294 -0.7020
vn -0.4414 0.7806 -0.4425
vn -0.4231 0.7805 -0.4602
vn -0.4053 0.7797 -0.4773
vn -0.6437 0.0002 -0.7653
vn -0.6438 -0.0000 -0.7652
vn -0.6910 -0.0000 -0.7229
vn -0.7609 0.5671 -0.3154
vn -0.9062 0.2186 -0.3619
vn -0.5881 0.7799 -0.2143
vn -0.5842 0.7799 -0.2246
vn -0.5811 0.7795 -0.2340
vn -0.9186 0.0054 -0.3952
vn -0.9366 0.0055 -0.3503
vn -0.9095 0.1404 -0.3913
vn -0.9396 0.0010 -0.3424
vn -0.9399 -0.0000 -0.3416
vn -0.9399 -0.0000 -0.3415
vn -0.9399 -0.0000 -0.3413
vn -0.9637 -0.0000 -0.2670
vn -0.9774 -0.0000 -0.2116
vn -0.9848 -0.0000 -0.1736
vn -0.7190 0.1018 -0.6875
vn -0.7228 -0.0000 -0.6911
vn -0.7459 0.1014 -0.6583
vn -0.5426 0.7119 -0.4459
vn -0.4819 0.7790 -0.4011
vn -0.4766 0.7798 -0.4060
vn -0.4519 0.7808 -0.4315
vn -0.4416 0.7807 -0.4422
vn -0.5487 0.7771 -0.3083
vn -0.5799 0.7796 -0.2366
vn -0.5582 0.7811 -0.2799
vn -0.5461 0.7795 -0.3068
vn -0.5824 0.7407 -0.3350
vn -0.8433 0.1741 -0.5085
vn -0.8604 0.0837 -0.5027
vn -0.8624 0.0718 -0.5011
vn -0.8634 0.0675 -0.5000
vn -0.8893 0.0652 -0.4527
vn -0.8912 0.0035 -0.4537
vn -0.9179 0.0036 -0.3967
vn -0.9179 -0.0000 -0.3967
vn -0.9396 -0.0000 -0.3423
vn -0.7644 0.0393 -0.6435
vn -0.7647 -0.0000 -0.6443
vn -0.7650 -0.0000 -0.6440
vn -0.6589 0.5497 -0.5135
vn -0.7663 0.0392 -0.6413
vn -0.7752 0.1310 -0.6180
vn -0.7712 0.2484 -0.5862
vn -0.5011 0.7800 -0.3748
vn -0.4985 0.7801 -0.3780
vn -0.4918 0.7798 -0.3873
vn -0.5430 0.7797 -0.3118
vn -0.5422 0.7797 -0.3133
vn -0.8267 0.1768 -0.5341
vn -0.5346 0.7806 -0.3239
vn -0.8634 0.0034 -0.5045
vn -0.8400 0.0016 -0.5427
vn -0.8414 -0.0000 -0.5404
vn -0.8420 -0.0000 -0.5395
vn -0.8616 -0.0000 -0.5075
vn -0.8646 0.0033 -0.5024
vn -0.8654 0.0016 -0.5011
vn -0.8656 0.0005 -0.5007
vn -0.8657 -0.0000 -0.5006
vn -0.8663 -0.0000 -0.4996
vn -0.8783 -0.0000 -0.4781
vn -0.8888 -0.0000 -0.4582
vn -0.8890 -0.0000 -0.4579
vn -0.7669 0.0015 -0.6418
vn -0.7653 -0.0000 -0.6437
vn -0.7664 -0.0000 -0.6424
vn -0.7820 0.0015 -0.6233
vn -0.8655 -0.0000 -0.5009
vn -0.8656 -0.0000 -0.5007
vn -0.7820 -0.0000 -0.6233
vn -0.8090 -0.0000 -0.5878
s 0
f 1//1 2//1 5//1
f 1//1 5//1 11//1
f 1//1 11//1 21//1
f 1//1 21//1 36//1
f 1//1 36//1 54//1
f 1//1 54//1 72//1
f 1//1 72//1 78//1
f 1//1 78//1 102//1
f 1//1 102//1 101//1
f 1//1 101//1 119//1
f 1//1 119//1 118//1
f 1//1 118//1 117//1
f 1//1 117//1 136//1
f 1//1 136//1 135//1
f 1//1 135//1 137//1
f 1//1 137//1 122//1
f 1//1 122//1 121//1
f 1//1 121//1 107//1
f 1//1 107//1 106//1
f 1//1 106//1 87//1
f 1//1 87//1 86//1
f 1//1 86//1 84//1
f 1//1 84//1 70//1
f 1//1 70//1 48//1
f 1//1 48//1 45//1
f 1//1 45//1 29//1
f 1//1 29//1 16//1
f 1//1 16//1 7//1
f 1//1 7//1 3//1
f 1//2 3//2 8//2
f 1//2 8//2 18//2
f 1//2 18//2 32//2
f 1//2 32//2 51//2
f 1//2 51//2 52//2
f 1//2 52//2 34//2
f 1//2 34//2 20//2
f 1//3 20//3 9//3
f 1//4 9//4 4//4
f 1//5 4//5 6//5
f 1//5 6//5 2//5
f 2//6 6//6 10//6
f 2//6 10//6 19//6
f 2//6 19//6 33//6
f 2//6 33//6 35//6
f 2//6 35//6 53//6
f 2//6 53//6 38//6
f 2//6 38//6 24//6
f 2//7 24//7 23//7
f 2//8 23//8 12//8
f 2//6 12//6 5//6
f 3//9 7//9 17//9
f 3//10 17//10 8//10
f 4//11 9//11 10//11
f 4//12 10//12 6//12
f 5//13 12//13 13//13
f 5//14 13//14 14//14
f 5//15 14//15 15//15
f 5//16 15//16 11//16
f 7//17 16//17 17//17
f 8//18 17//18 18//18
f 9//19 19//19 10//19
f 9//20 20//20 19//20
f 11//21 15//21 22//21
f 11//22 22//22 21//22
f 12//23 23//23 14//23
f 12//24 14//24 13//24
f 14//25 23//25 24//25
f 14//26 24//26 25//26
f 14//27 25//27 26//27
f 14//28 26//28 27//28
f 14//29 27//29 28//29
f 14//30 28//30 15//30
f 15//31 28//31 22//31
f 16//32 29//32 17//32
f 17//33 30//33 31//33
f 17//34 31//34 18//34
f 17//35 29//35 30//35
f 18//36 31//36 32//36
f 19//37 20//37 33//37
f 20//38 34//38 35//38
f 20//39 35//39 33//39
f 21//40 22//40 37//40
f 21//41 37//41 36//41
f 22//42 28//42 37//42
f 24//43 38//43 25//43
f 25//44 38//44 26//44
f 26//45 38//45 39//45
f 26//46 39//46 27//46
f 27//47 40//47 28//47
f 27//48 39//48 40//48
f 28//49 40//49 41//49
f 28//50 41//50 42//50
f 28//51 42//51 43//51
f 28//52 43//52 44//52
f 28//53 44//53 37//53
f 29//54 45//54 30//54
f 30//55 46//55 47//55
f 30//56 47//56 31//56
f 30//57 45//57 48//57
f 30//58 48//58 46//58
f 31//59 47//59 49//59
f 31//60 49//60 50//60
f 31//61 50//61 51//61
f 31//61 51//61 32//61
f 34//62 52//62 35//62
f 35//63 52//63 51//63
f 35//63 51//63 50//63
f 35//63 50//63 49//63
f 35//63 49//63 71//63
f 35//63 71//63 95//63
f 35//63 95//63 94//63
f 35//63 94//63 112//63
f 35//63 112//63 111//63
f 35//63 111//63 110//63
f 35//63 110//63 129//63
f 35//63 129//63 146//63
f 35//63 146//63 145//63
f 35//64 145//64 144//64
f 35//63 144//63 143//63
f 35//63 143//63 149//63
f 35//63 149//63 141//63
f 35//63 141//63 140//63
f 35//65 140//65 150//65
f 35//63 150//63 151//63
f 35//63 151//63 148//63
f 35//63 148//63 132//63
f 35//63 132//63 131//63
f 35//63 131//63 114//63
f 35//63 114//63 103//63
f 35//63 103//63 98//63
f 35//63 98//63 97//63
f 35//63 97//63 83//63
f 35//63 83//63 82//63
f 35//63 82//63 64//63
f 35//63 64//63 81//63
f 35//63 81//63 62//63
f 35//63 62//63 60//63
f 35//63 60//63 80//63
f 35//63 80//63 79//63
f 35//63 79//63 59//63
f 35//63 59//63 53//63
f 36//66 37//66 54//66
f 37//67 44//67 55//67
f 37//68 55//68 56//68
f 37//69 56//69 57//69
f 37//70 57//70 54//70
f 38//71 53//71 59//71
f 38//71 59//71 39//71
f 39//72 58//72 40//72
f 39//73 59//73 79//73
f 39//73 79//73 58//73
f 40//74 58//74 41//74
f 41//75 58//75 60//75
f 41//76 60//76 42//76
f 42//77 61//77 43//77
f 42//78 60//78 62//78
f 42//79 62//79 81//79
f 42//79 81//79 61//79
f 43//80 61//80 44//80
f 44//81 63//81 55//81
f 44//82 61//82 81//82
f 44//82 81//82 64//82
f 44//83 64//83 82//83
f 44//83 82//83 63//83
f 46//84 48//84 65//84
f 46//85 65//85 66//85
f 46//86 66//86 67//86
f 46//87 67//87 68//87
f 46//88 68//88 69//88
f 46//89 69//89 47//89
f 47//90 69//90 49//90
f 48//91 70//91 65//91
f 49//92 69//92 71//92
f 54//93 57//93 72//93
f 55//94 73//94 56//94
f 55//95 63//95 74//95
f 55//96 74//96 73//96
f 56//97 75//97 57//97
f 56//98 73//98 76//98
f 56//99 76//99 77//99
f 56//100 77//100 75//100
f 57//101 75//101 78//101
f 57//102 78//102 72//102
f 58//103 79//103 80//103
f 58//104 80//104 60//104
f 63//105 82//105 83//105
f 63//106 83//106 74//106
f 65//107 70//107 84//107
f 65//108 84//108 66//108
f 66//109 85//109 67//109
f 66//110 84//110 86//110
f 66//111 86//111 87//111
f 66//112 87//112 85//112
f 67//113 85//113 88//113
f 67//114 88//114 89//114
f 67//115 89//115 90//115
f 67//116 90//116 91//116
f 67//117 91//117 92//117
f 67//118 92//118 68//118
f 68//119 93//119 69//119
f 68//120 92//120 94//120
f 68//121 94//121 93//121
f 69//122 93//122 95//122
f 69//122 95//122 71//122
f 73//123 74//123 76//123
f 74//124 96//124 76//124
f 74//125 83//125 97//125
f 74//126 97//126 98//126
f 74//127 98//127 96//127
f 75//128 77//128 99//128
f 75//129 99//129 100//129
f 75//130 100//130 101//130
f 75//131 101//131 102//131
f 75//132 102//132 78//132
f 76//133 96//133 77//133
f 77//134 96//134 98//134
f 77//134 98//134 103//134
f 77//135 103//135 114//135
f 77//135 114//135 99//135
f 85//136 104//136 105//136
f 85//137 105//137 88//137
f 85//138 87//138 106//138
f 85//139 106//139 107//139
f 85//140 107//140 104//140
f 88//141 108//141 109//141
f 88//142 109//142 89//142
f 88//143 105//143 108//143
f 89//144 109//144 90//144
f 90//145 109//145 110//145
f 90//146 110//146 91//146
f 91//147 110//147 111//147
f 91//148 111//148 112//148
f 91//148 112//148 92//148
f 92//149 112//149 94//149
f 93//150 94//150 95//150
f 99//151 113//151 100//151
f 99//152 114//152 131//152
f 99//152 131//152 113//152
f 100//153 113//153 115//153
f 100//154 115//154 116//154
f 100//155 116//155 117//155
f 100//156 117//156 118//156
f 100//157 118//157 119//157
f 100//158 119//158 101//158
f 104//159 120//159 105//159
f 104//160 107//160 121//160
f 104//161 121//161 122//161
f 104//162 122//162 120//162
f 105//163 120//163 123//163
f 105//164 123//164 124//164
f 105//165 124//165 125//165
f 105//166 125//166 126//166
f 105//167 126//167 127//167
f 105//168 127//168 108//168
f 108//169 127//169 128//169
f 108//170 128//170 109//170
f 109//171 128//171 146//171
f 109//171 146//171 129//171
f 109//172 129//172 110//172
f 113//173 130//173 115//173
f 113//174 131//174 132//174
f 113//175 132//175 130//175
f 115//176 123//176 116//176
f 115//177 130//177 133//177
f 115//178 133//178 134//178
f 115//179 134//179 123//179
f 116//180 123//180 135//180
f 116//181 135//181 136//181
f 116//182 136//182 117//182
f 120//183 122//183 137//183
f 120//184 137//184 123//184
f 123//185 134//185 124//185
f 123//186 137//186 135//186
f 124//187 138//187 125//187
f 124//188 134//188 139//188
f 124//189 139//189 140//189
f 124//190 140//190 141//190
f 124//191 141//191 149//191
f 124//191 149//191 138//191
f 125//192 138//192 126//192
f 126//193 138//193 127//193
f 127//194 138//194 142//194
f 127//195 142//195 143//195
f 127//196 143//196 144//196
f 127//197 144//197 145//197
f 127//198 145//198 128//198
f 128//199 145//199 146//199
f 130//200 147//200 133//200
f 130//201 132//201 148//201
f 130//202 148//202 151//202
f 130//202 151//202 147//202
f 133//203 147//203 139//203
f 133//203 139//203 134//203
f 138//204 149//204 143//204
f 138//205 143//205 142//205
f 139//206 147//206 151//206
f 139//206 151//206 150//206
f 139//207 150//207 140//207
