# Blender 4.4.3
# www.blender.org
o socket9mm_collision_geom_26
v -0.083746 0.023750 -0.034133
v -0.083068 0.023750 -0.036331
v -0.084732 0.023750 -0.034133
v -0.083746 0.011462 -0.034133
v -0.083068 0.023750 -0.040014
v -0.083068 0.011290 -0.036331
v -0.084732 0.023750 -0.038750
v -0.084732 0.010582 -0.034133
v -0.083746 0.011290 -0.034133
v -0.083143 0.023750 -0.039973
v -0.083068 0.020888 -0.043585
v -0.083159 0.020886 -0.043561
v -0.083443 0.020846 -0.043512
v -0.084196 0.020862 -0.043189
v -0.084393 0.020818 -0.043139
v -0.083068 0.010944 -0.036334
v -0.084614 0.023750 -0.038876
v -0.084732 0.020869 -0.042878
v -0.084732 0.010008 -0.039243
v -0.083068 0.010008 -0.039715
v -0.084196 0.010600 -0.034133
v -0.083761 0.010944 -0.034133
v -0.083164 0.023750 -0.039961
v -0.083068 0.020810 -0.043621
v -0.083068 0.020627 -0.043687
v -0.083498 0.020627 -0.043532
v -0.083671 0.020627 -0.043469
v -0.083850 0.020627 -0.043402
v -0.084732 0.020771 -0.042920
v -0.083173 0.023750 -0.039956
v -0.084196 0.020627 -0.043254
v -0.084405 0.020627 -0.043147
v -0.084732 0.020627 -0.042959
v -0.083068 0.010714 -0.036455
v -0.084446 0.023750 -0.039033
v -0.084195 0.023750 -0.039243
v -0.084166 0.023750 -0.039267
v -0.083868 0.023750 -0.039511
v -0.083861 0.023750 -0.039516
v -0.083520 0.023750 -0.039755
v -0.083514 0.023750 -0.039759
v -0.084732 0.010008 -0.042959
v -0.083068 0.010008 -0.043690
v -0.083068 0.010647 -0.036735
v -0.083900 0.010686 -0.034133
v -0.084045 0.010643 -0.034133
v -0.083068 0.020281 -0.043690
v -0.083850 0.020281 -0.043404
v -0.084196 0.020281 -0.043255
v -0.084405 0.010008 -0.043147
v -0.083850 0.010008 -0.043404
v -0.084196 0.010008 -0.043255
vn -0.0000 1.0000 -0.0000
vn -0.0000 -0.0000 1.0000
vn 0.0002 -0.0000 1.0000
vn -0.0045 -0.0000 1.0000
vn 0.9556 -0.0000 0.2947
vn 1.0000 -0.0000 -0.0000
vn 1.0000 -0.0001 -0.0000
vn -1.0000 -0.0000 -0.0000
vn -1.0000 -0.0001 -0.0000
vn -1.0000 0.0001 -0.0000
vn 0.9556 -0.0008 0.2947
vn -0.1706 0.7688 -0.6163
vn -0.2147 0.7626 -0.6102
vn -0.2427 0.7590 -0.6042
vn -0.3146 0.7552 -0.5751
vn -0.3163 0.7550 -0.5744
vn 0.9556 -0.0024 0.2947
vn -0.5249 0.6979 -0.4873
vn 0.0316 -0.9932 0.1116
vn 0.0324 -0.9932 0.1119
vn 0.9530 -0.0418 0.3001
vn -0.3213 0.7546 -0.5722
vn -0.2181 0.4134 -0.8841
vn -0.2185 0.5377 -0.8143
vn -0.2354 0.3275 -0.9150
vn -0.3326 0.1713 -0.9274
vn -0.3400 0.1729 -0.9244
vn -0.3425 0.1758 -0.9229
vn -0.3616 0.2195 -0.9062
vn -0.3181 0.5531 -0.7700
vn -0.5461 0.3301 -0.7699
vn -0.3269 0.7542 -0.5695
vn -0.3222 0.7547 -0.5715
vn -0.3914 0.1395 -0.9096
vn -0.4529 0.0638 -0.8893
vn -0.4984 0.0657 -0.8645
vn -0.5528 0.2194 -0.8039
vn 0.9422 -0.1556 0.2967
vn -0.4705 0.7225 -0.5066
vn -0.4349 0.7358 -0.5191
vn -0.4280 0.7380 -0.5217
vn -0.4272 0.7382 -0.5222
vn -0.4077 0.7423 -0.5317
vn -0.3808 0.7484 -0.5430
vn -0.3399 0.7538 -0.5624
vn -0.3286 0.7542 -0.5685
vn -0.0000 -1.0000 -0.0000
vn 0.5209 -0.8346 0.1790
vn 0.2812 -0.9467 0.1569
vn 0.2704 -0.9501 0.1554
vn 0.8417 -0.4516 0.2960
vn -0.3376 0.0076 -0.9413
vn -0.3427 0.0005 -0.9395
vn -0.3452 0.0035 -0.9385
vn -0.3480 0.0051 -0.9375
vn -0.3952 0.0050 -0.9186
vn -0.3973 0.0025 -0.9177
vn -0.4538 0.0024 -0.8911
vn -0.4569 -0.0000 -0.8895
vn -0.4570 -0.0000 -0.8895
vn -0.4995 -0.0000 -0.8663
vn 0.5644 -0.8028 0.1924
vn -0.3427 -0.0000 -0.9395
vn -0.3974 -0.0000 -0.9177
vn -0.3973 -0.0000 -0.9177
s 0
f 1//1 2//1 5//1
f 1//1 5//1 10//1
f 1//1 10//1 23//1
f 1//1 23//1 30//1
f 1//1 30//1 41//1
f 1//1 41//1 40//1
f 1//1 40//1 39//1
f 1//1 39//1 38//1
f 1//1 38//1 37//1
f 1//1 37//1 36//1
f 1//1 36//1 35//1
f 1//1 35//1 17//1
f 1//1 17//1 7//1
f 1//1 7//1 3//1
f 1//2 3//2 8//2
f 1//2 8//2 21//2
f 1//2 21//2 46//2
f 1//2 46//2 45//2
f 1//2 45//2 22//2
f 1//3 22//3 9//3
f 1//4 9//4 4//4
f 1//5 4//5 6//5
f 1//5 6//5 2//5
f 2//6 6//6 16//6
f 2//6 16//6 34//6
f 2//6 34//6 44//6
f 2//6 44//6 20//6
f 2//6 20//6 43//6
f 2//6 43//6 47//6
f 2//6 47//6 25//6
f 2//6 25//6 24//6
f 2//7 24//7 11//7
f 2//6 11//6 5//6
f 3//8 7//8 18//8
f 3//9 18//9 29//9
f 3//10 29//10 33//10
f 3//8 33//8 42//8
f 3//8 42//8 19//8
f 3//8 19//8 8//8
f 4//11 9//11 6//11
f 5//12 11//12 12//12
f 5//13 12//13 13//13
f 5//14 13//14 14//14
f 5//15 14//15 15//15
f 5//16 15//16 10//16
f 6//17 9//17 16//17
f 7//18 17//18 18//18
f 8//19 19//19 20//19
f 8//20 20//20 21//20
f 9//21 22//21 16//21
f 10//22 15//22 23//22
f 11//23 24//23 13//23
f 11//24 13//24 12//24
f 13//25 24//25 25//25
f 13//26 25//26 26//26
f 13//27 26//27 27//27
f 13//28 27//28 28//28
f 13//29 28//29 15//29
f 13//30 15//30 14//30
f 15//31 29//31 18//31
f 15//32 18//32 30//32
f 15//33 30//33 23//33
f 15//34 28//34 31//34
f 15//35 31//35 32//35
f 15//36 32//36 33//36
f 15//37 33//37 29//37
f 16//38 22//38 34//38
f 17//39 35//39 18//39
f 18//40 35//40 36//40
f 18//41 36//41 37//41
f 18//42 37//42 38//42
f 18//43 38//43 39//43
f 18//44 39//44 40//44
f 18//45 40//45 41//45
f 18//46 41//46 30//46
f 19//47 42//47 50//47
f 19//47 50//47 52//47
f 19//47 52//47 51//47
f 19//47 51//47 43//47
f 19//47 43//47 20//47
f 20//48 44//48 45//48
f 20//49 45//49 46//49
f 20//50 46//50 21//50
f 22//51 45//51 34//51
f 25//52 47//52 26//52
f 26//53 47//53 48//53
f 26//54 48//54 27//54
f 27//55 48//55 28//55
f 28//56 48//56 31//56
f 31//57 48//57 49//57
f 31//58 49//58 32//58
f 32//59 49//59 52//59
f 32//60 52//60 50//60
f 32//61 50//61 42//61
f 32//61 42//61 33//61
f 34//62 45//62 44//62
f 43//63 51//63 48//63
f 43//63 48//63 47//63
f 48//64 51//64 52//64
f 48//65 52//65 49//65
