# Blender 4.4.3
# www.blender.org
o socket8mm_collision_geom_10
v -0.097648 0.003185 -0.024967
v -0.097648 0.003185 -0.023639
v -0.097648 0.003195 -0.025299
v -0.097481 0.003193 -0.025299
v -0.093165 0.003187 -0.026627
v -0.093497 0.003185 -0.026295
v -0.096153 0.003185 -0.023639
v -0.097648 0.003247 -0.023307
v -0.097648 0.003226 -0.025466
v -0.093034 0.003208 -0.026959
v -0.093034 0.003187 -0.026627
v -0.093034 0.003185 -0.026295
v -0.094825 0.003185 -0.023971
v -0.095821 0.003187 -0.023639
v -0.097149 0.003247 -0.023307
v -0.097648 0.003291 -0.023215
v -0.097648 0.003256 -0.025631
v -0.093165 0.003218 -0.026959
v -0.093034 0.003295 -0.027284
v -0.093034 0.003185 -0.024967
v -0.093829 0.003185 -0.024303
v -0.094493 0.003197 -0.023971
v -0.095489 0.003199 -0.023639
v -0.096817 0.003256 -0.023307
v -0.097149 0.003337 -0.023120
v -0.097648 0.003337 -0.023120
v -0.097648 0.003297 -0.025759
v -0.097648 0.003431 -0.026178
v -0.097648 0.003718 -0.027068
v -0.097648 0.003791 -0.027291
v -0.093034 0.003355 -0.027425
v -0.093034 0.003216 -0.024624
v -0.093165 0.003189 -0.024635
v -0.093497 0.003218 -0.024303
v -0.093829 0.003278 -0.024005
v -0.094493 0.003289 -0.023720
v -0.095157 0.003233 -0.023639
v -0.095489 0.003291 -0.023402
v -0.095821 0.003279 -0.023377
v -0.096817 0.003347 -0.023127
v -0.097149 0.003535 -0.023099
v -0.097648 0.003535 -0.023099
v -0.097648 0.003864 -0.027428
v -0.097648 0.003939 -0.027558
v -0.093034 0.003393 -0.027453
v -0.093034 0.003301 -0.024356
v -0.093184 0.003287 -0.024300
v -0.093497 0.003310 -0.024076
v -0.094219 0.003324 -0.023766
v -0.095157 0.003324 -0.023438
v -0.096623 0.003360 -0.023136
v -0.096817 0.003535 -0.023113
v -0.097149 0.019802 -0.023099
v -0.097648 0.019802 -0.023099
v -0.097648 0.004070 -0.027616
v -0.093034 0.003535 -0.027538
v -0.093034 0.003535 -0.024267
v -0.093307 0.003351 -0.024124
v -0.094966 0.003355 -0.023464
v -0.093829 0.003535 -0.023871
v -0.095489 0.003535 -0.023331
v -0.096608 0.003535 -0.023134
v -0.096817 0.019802 -0.023113
v -0.096817 0.019988 -0.023127
v -0.097149 0.019998 -0.023120
v -0.097648 0.019998 -0.023120
v -0.097648 0.004199 -0.027666
v -0.093034 0.003866 -0.027667
v -0.093295 0.003535 -0.024116
v -0.093034 0.019802 -0.024267
v -0.093497 0.003535 -0.024014
v -0.093999 0.003535 -0.023807
v -0.094165 0.003535 -0.023747
v -0.094953 0.003535 -0.023459
v -0.095157 0.003535 -0.023403
v -0.093829 0.003866 -0.023869
v -0.095821 0.003866 -0.023272
v -0.095489 0.019802 -0.023331
v -0.096608 0.019802 -0.023134
v -0.096623 0.019975 -0.023136
v -0.096820 0.022840 -0.026708
v -0.097149 0.022840 -0.026667
v -0.097481 0.022840 -0.026656
v -0.097648 0.022840 -0.026656
v -0.097648 0.004366 -0.027670
v -0.097648 0.004530 -0.027672
v -0.093034 0.009767 -0.027712
v -0.093497 0.003866 -0.024012
v -0.093295 0.019802 -0.024116
v -0.093034 0.019890 -0.024292
v -0.093307 0.019985 -0.024124
v -0.093999 0.003866 -0.023807
v -0.094493 0.003866 -0.023627
v -0.094953 0.019802 -0.023459
v -0.095157 0.019802 -0.023403
v -0.093829 0.019469 -0.023869
v -0.095821 0.019469 -0.023272
v -0.094966 0.019981 -0.023464
v -0.095157 0.020012 -0.023438
v -0.095489 0.020046 -0.023402
v -0.096508 0.022840 -0.026764
v -0.097648 0.022840 -0.027712
v -0.097648 0.009992 -0.027712
v -0.093034 0.021501 -0.027712
v -0.093497 0.019469 -0.024012
v -0.093497 0.019802 -0.024014
v -0.093034 0.020038 -0.024356
v -0.094219 0.020013 -0.023766
v -0.093829 0.019802 -0.023870
v -0.094812 0.022840 -0.027351
v -0.093497 0.020027 -0.024076
v -0.093999 0.019469 -0.023807
v -0.094493 0.019469 -0.023627
v -0.094165 0.019802 -0.023747
v -0.093999 0.019802 -0.023807
v -0.094493 0.020050 -0.023719
v -0.095821 0.022840 -0.026930
v -0.096080 0.022840 -0.026853
v -0.096126 0.022840 -0.026840
v -0.094200 0.022840 -0.027712
v -0.093034 0.020067 -0.024420
v -0.094468 0.022840 -0.027550
v -0.094491 0.022840 -0.027536
v -0.095145 0.022840 -0.027184
v -0.095467 0.022840 -0.027059
v -0.095114 0.022840 -0.027199
vn -1.0000 0.0002 -0.0000
vn -1.0000 -0.0001 -0.0000
vn -1.0000 0.0001 -0.0000
vn -1.0000 -0.0000 -0.0000
vn -1.0000 -0.0004 -0.0000
vn -0.0115 -0.9995 -0.0290
vn -0.0100 -0.9996 -0.0282
vn -0.0027 -1.0000 -0.0085
vn -0.0000 -1.0000 -0.0000
vn -0.0000 -0.9832 0.1824
vn -0.0622 -0.9815 -0.1808
vn -0.0233 -0.9971 -0.0728
vn -0.0115 -0.9994 -0.0331
vn -0.0000 -0.9980 -0.0636
vn -0.0000 -1.0000 -0.0058
vn 0.0058 -0.9997 0.0232
vn 0.0057 -0.9800 0.1989
vn -0.0000 -0.9022 0.4312
vn -0.0631 -0.9810 -0.1837
vn -0.0713 -0.9745 -0.2126
vn -0.0706 -0.9639 -0.2567
vn 1.0000 -0.0003 -0.0000
vn 1.0000 0.0003 -0.0000
vn 1.0000 -0.0001 -0.0000
vn 1.0000 0.0001 -0.0000
vn 1.0000 -0.0000 -0.0000
vn 1.0000 0.0011 -0.0000
vn 0.0346 -0.9940 0.1038
vn 0.0345 -0.9934 0.1092
vn 0.0331 -0.9538 0.2986
vn 0.0278 -0.9586 0.2833
vn 0.0261 -0.8999 0.4353
vn 0.0010 -0.9002 0.4355
vn -0.0000 -0.8982 0.4396
vn -0.0989 -0.9494 -0.2981
vn -0.0859 -0.9612 -0.2623
vn -0.1011 -0.9471 -0.3047
vn -0.1011 -0.9470 -0.3049
vn -0.1012 -0.9452 -0.3104
vn -0.0980 -0.9169 -0.3869
vn 0.1930 -0.9773 0.0877
vn 0.0144 -0.9997 0.0173
vn 0.0964 -0.9786 0.1815
vn 0.0955 -0.9697 0.2249
vn 0.1304 -0.9343 0.3318
vn 0.1305 -0.9307 0.3417
vn 0.1199 -0.9319 0.3422
vn 0.0990 -0.9481 0.3022
vn 0.0969 -0.9274 0.3613
vn 0.0599 -0.9301 0.3624
vn 0.0459 -0.9368 0.3467
vn 0.0520 -0.8925 0.4480
vn 0.0350 -0.8932 0.4483
vn 0.0233 -0.1042 0.9943
vn -0.0000 -0.1043 0.9946
vn -0.0967 -0.8778 -0.4691
vn -0.0950 -0.8622 -0.4975
vn -0.0503 -0.5812 -0.8122
vn 0.2004 -0.9343 0.2949
vn 0.1737 -0.9508 0.2564
vn 0.2016 -0.9267 0.3170
vn 0.1969 -0.9082 0.3693
vn 0.1697 -0.9129 0.3712
vn 0.1856 -0.8642 0.4676
vn 0.1246 -0.9098 0.3959
vn 0.1889 -0.8584 0.4770
vn 0.1962 -0.8041 0.5612
vn 0.1347 -0.8939 0.4274
vn 0.1451 -0.6116 0.7777
vn 0.0832 -0.8188 0.5680
vn 0.0684 -0.8606 0.5047
vn 0.0514 -0.0739 0.9959
vn 0.0407 -0.0740 0.9964
vn 0.0408 -0.0000 0.9992
vn -0.0000 -0.0000 1.0000
vn -0.0317 -0.4065 -0.9131
vn -0.0413 -0.5137 -0.8570
vn 0.5900 -0.2861 0.7550
vn 0.3000 -0.7971 0.5241
vn 0.2355 -0.8764 0.4200
vn 0.3110 -0.5842 0.7496
vn 0.2047 -0.7842 0.5857
vn 0.3617 -0.2184 0.9064
vn 0.3591 -0.2124 0.9088
vn 0.1803 -0.3545 0.9175
vn 0.1911 -0.1584 0.9687
vn 0.1735 -0.0270 0.9845
vn 0.0990 -0.0210 0.9949
vn 0.0991 -0.0000 0.9951
vn 0.0990 -0.0000 0.9951
vn 0.0407 0.0747 0.9964
vn 0.0233 0.1052 0.9942
vn -0.0000 0.1053 0.9944
vn -0.0263 -0.3595 -0.9328
vn -0.0265 -0.3645 -0.9308
vn 0.4984 -0.0655 0.8645
vn 0.4995 -0.0000 0.8663
vn 0.4517 -0.0635 0.8899
vn 0.3922 -0.1366 0.9097
vn 0.3469 -0.0776 0.9347
vn 0.3445 -0.0606 0.9368
vn 0.3419 -0.0465 0.9386
vn 0.2668 -0.0420 0.9628
vn 0.2105 -0.1047 0.9720
vn 0.3959 -0.0050 0.9183
vn 0.3480 -0.0051 0.9375
vn 0.1736 -0.0005 0.9848
vn 0.2116 -0.0000 0.9773
vn 0.2116 -0.0000 0.9774
vn 0.1741 -0.0000 0.9847
vn 0.1734 -0.0000 0.9849
vn 0.0990 0.0212 0.9949
vn 0.0515 0.0747 0.9959
vn 0.0829 0.7797 0.6207
vn 0.0768 0.7800 0.6210
vn 0.0353 0.7800 0.6248
vn 0.0213 0.7803 0.6251
vn -0.0000 0.7795 0.6264
vn -0.0023 -0.0270 -0.9996
vn -0.0006 -0.0110 -0.9999
vn -0.0001 -0.0076 -1.0000
vn 0.4526 -0.0037 0.8917
vn 0.4574 -0.0000 0.8893
vn 0.5660 0.2228 0.7937
vn 0.4984 0.0662 0.8644
vn 0.3970 -0.0037 0.9178
vn 0.3451 -0.0035 0.9386
vn 0.3436 -0.0016 0.9391
vn 0.3423 -0.0010 0.9396
vn 0.3420 -0.0000 0.9397
vn 0.2670 -0.0000 0.9637
vn 0.3969 -0.0000 0.9178
vn 0.3970 -0.0000 0.9178
vn 0.3436 -0.0000 0.9391
vn 0.2104 0.1058 0.9719
vn 0.1910 0.1601 0.9684
vn 0.1735 0.0273 0.9845
vn 0.1736 0.0005 0.9848
vn 0.1803 0.3545 0.9175
vn 0.1482 0.5940 0.7907
vn 0.0964 0.7791 0.6195
vn -0.0000 1.0000 -0.0009
vn -0.0000 1.0000 0.0006
vn -0.0000 1.0000 -0.0001
vn -0.0000 1.0000 -0.0000
vn -0.0000 1.0000 0.0001
vn -0.0000 1.0000 -0.0003
vn -0.0000 1.0000 -0.0002
vn 0.1110 0.7807 0.6150
vn -0.0004 -0.0074 -1.0000
vn -0.0000 -0.0000 -1.0000
vn 0.4517 0.0642 0.8899
vn 0.4526 0.0036 0.8917
vn 0.5749 0.3250 0.7509
vn 0.3619 0.2211 0.9056
vn 0.3932 0.1367 0.9092
vn 0.3100 0.7792 0.5448
vn 0.3094 0.7792 0.5451
vn 0.3159 0.5677 0.7603
vn 0.3423 0.0010 0.9396
vn 0.3419 0.0470 0.9386
vn 0.2668 0.0425 0.9628
vn 0.3970 0.0037 0.9178
vn 0.3969 0.0037 0.9178
vn 0.3480 0.0038 0.9375
vn 0.3436 0.0013 0.9391
vn 0.2057 0.7789 0.5924
vn 0.2054 0.7792 0.5921
vn 0.2048 0.7793 0.5923
vn 0.3424 0.0499 0.9382
vn 0.3469 0.0809 0.9344
vn 0.3585 0.2133 0.9088
vn 0.1763 0.7810 0.5991
vn 0.1761 0.7810 0.5992
vn 0.1477 0.7808 0.6071
vn 0.1210 0.7813 0.6124
vn 0.7249 0.6316 0.2750
vn 0.7101 0.6420 0.2891
vn 0.3253 0.7785 0.5367
vn 0.3210 0.7790 0.5386
vn 0.3137 0.7792 0.5426
vn 0.2349 0.7794 0.5808
vn 0.2258 0.7799 0.5837
vn 0.2153 0.7799 0.5877
vn 0.2056 0.7793 0.5920
vn 0.2806 0.7809 0.5581
vn 0.2727 0.7808 0.5622
vn 0.3429 0.0013 0.9394
s 0
f 1//1 2//1 8//1
f 1//2 8//2 16//2
f 1//3 16//3 26//3
f 1//4 26//4 42//4
f 1//4 42//4 54//4
f 1//4 54//4 66//4
f 1//4 66//4 84//4
f 1//4 84//4 102//4
f 1//4 102//4 103//4
f 1//4 103//4 86//4
f 1//4 86//4 85//4
f 1//4 85//4 67//4
f 1//2 67//2 55//2
f 1//4 55//4 44//4
f 1//2 44//2 43//2
f 1//4 43//4 30//4
f 1//2 30//2 29//2
f 1//4 29//4 28//4
f 1//4 28//4 27//4
f 1//3 27//3 17//3
f 1//5 17//5 9//5
f 1//5 9//5 3//5
f 1//6 3//6 4//6
f 1//7 4//7 5//7
f 1//8 5//8 6//8
f 1//9 6//9 12//9
f 1//9 12//9 20//9
f 1//9 20//9 21//9
f 1//9 21//9 13//9
f 1//9 13//9 7//9
f 1//9 7//9 2//9
f 2//10 7//10 15//10
f 2//10 15//10 8//10
f 3//11 9//11 10//11
f 3//12 10//12 5//12
f 3//13 5//13 4//13
f 5//14 10//14 11//14
f 5//15 11//15 12//15
f 5//15 12//15 6//15
f 7//16 13//16 14//16
f 7//17 14//17 15//17
f 8//18 15//18 16//18
f 9//19 17//19 10//19
f 10//20 17//20 18//20
f 10//21 18//21 19//21
f 10//22 19//22 31//22
f 10//23 31//23 45//23
f 10//24 45//24 56//24
f 10//25 56//25 68//25
f 10//26 68//26 87//26
f 10//26 87//26 104//26
f 10//26 104//26 121//26
f 10//26 121//26 107//26
f 10//26 107//26 90//26
f 10//26 90//26 70//26
f 10//26 70//26 57//26
f 10//26 57//26 46//26
f 10//25 46//25 32//25
f 10//24 32//24 20//24
f 10//26 20//26 12//26
f 10//27 12//27 11//27
f 13//28 21//28 22//28
f 13//29 22//29 23//29
f 13//29 23//29 14//29
f 14//30 23//30 24//30
f 14//31 24//31 15//31
f 15//32 24//32 25//32
f 15//33 25//33 16//33
f 16//34 25//34 26//34
f 17//35 27//35 19//35
f 17//36 19//36 18//36
f 19//37 27//37 28//37
f 19//38 28//38 29//38
f 19//39 29//39 30//39
f 19//40 30//40 31//40
f 20//41 32//41 33//41
f 20//42 33//42 21//42
f 21//43 33//43 34//43
f 21//44 34//44 22//44
f 22//45 34//45 35//45
f 22//46 35//46 36//46
f 22//47 36//47 37//47
f 22//48 37//48 23//48
f 23//49 37//49 38//49
f 23//50 38//50 39//50
f 23//51 39//51 24//51
f 24//52 39//52 40//52
f 24//53 40//53 25//53
f 25//54 40//54 41//54
f 25//55 41//55 42//55
f 25//55 42//55 26//55
f 30//56 43//56 31//56
f 31//57 43//57 44//57
f 31//58 44//58 45//58
f 32//59 46//59 34//59
f 32//60 34//60 33//60
f 34//61 46//61 47//61
f 34//62 47//62 48//62
f 34//63 48//63 35//63
f 35//64 48//64 36//64
f 36//65 38//65 37//65
f 36//66 48//66 49//66
f 36//67 49//67 50//67
f 36//68 50//68 38//68
f 38//69 50//69 51//69
f 38//70 51//70 40//70
f 38//71 40//71 39//71
f 40//72 51//72 52//72
f 40//73 52//73 41//73
f 41//74 52//74 63//74
f 41//74 63//74 53//74
f 41//75 53//75 54//75
f 41//75 54//75 42//75
f 44//76 55//76 56//76
f 44//77 56//77 45//77
f 46//78 57//78 58//78
f 46//79 58//79 48//79
f 46//80 48//80 47//80
f 48//81 58//81 49//81
f 49//82 59//82 50//82
f 49//83 58//83 60//83
f 49//84 60//84 59//84
f 50//85 59//85 51//85
f 51//86 59//86 61//86
f 51//87 61//87 62//87
f 51//88 62//88 52//88
f 52//89 62//89 79//89
f 52//90 79//90 63//90
f 53//91 63//91 64//91
f 53//92 64//92 65//92
f 53//93 65//93 66//93
f 53//93 66//93 54//93
f 55//94 67//94 68//94
f 55//95 68//95 56//95
f 57//96 69//96 58//96
f 57//97 70//97 89//97
f 57//97 89//97 69//97
f 58//98 69//98 71//98
f 58//99 71//99 60//99
f 59//100 60//100 72//100
f 59//101 72//101 73//101
f 59//102 73//102 74//102
f 59//103 74//103 75//103
f 59//104 75//104 61//104
f 60//105 71//105 76//105
f 60//106 76//106 72//106
f 61//107 77//107 62//107
f 61//108 75//108 95//108
f 61//109 95//109 78//109
f 61//110 78//110 97//110
f 61//110 97//110 77//110
f 62//111 77//111 97//111
f 62//111 97//111 79//111
f 63//112 79//112 80//112
f 63//113 80//113 64//113
f 64//114 80//114 81//114
f 64//115 81//115 82//115
f 64//116 82//116 65//116
f 65//117 82//117 83//117
f 65//118 83//118 84//118
f 65//118 84//118 66//118
f 67//119 85//119 68//119
f 68//120 85//120 86//120
f 68//121 86//121 87//121
f 69//122 88//122 71//122
f 69//123 89//123 105//123
f 69//123 105//123 88//123
f 70//124 90//124 91//124
f 70//125 91//125 89//125
f 71//126 88//126 76//126
f 72//127 76//127 73//127
f 73//128 76//128 92//128
f 73//129 92//129 74//129
f 74//130 92//130 93//130
f 74//130 93//130 113//130
f 74//130 113//130 94//130
f 74//131 94//131 95//131
f 74//131 95//131 75//131
f 76//132 88//132 105//132
f 76//133 105//133 96//133
f 76//134 96//134 112//134
f 76//134 112//134 92//134
f 78//135 95//135 98//135
f 78//136 98//136 80//136
f 78//137 80//137 79//137
f 78//138 79//138 97//138
f 80//139 98//139 99//139
f 80//140 99//140 100//140
f 80//141 100//141 81//141
f 81//142 101//142 119//142
f 81//143 119//143 118//143
f 81//144 118//144 117//144
f 81//145 117//145 125//145
f 81//145 125//145 124//145
f 81//146 124//146 126//146
f 81//145 126//145 110//145
f 81//145 110//145 123//145
f 81//147 123//147 122//147
f 81//145 122//145 120//145
f 81//145 120//145 102//145
f 81//145 102//145 84//145
f 81//148 84//148 83//148
f 81//146 83//146 82//146
f 81//149 100//149 101//149
f 86//150 103//150 87//150
f 87//151 103//151 102//151
f 87//151 102//151 120//151
f 87//151 120//151 104//151
f 89//152 91//152 106//152
f 89//153 106//153 105//153
f 90//154 107//154 91//154
f 91//155 108//155 109//155
f 91//156 109//156 106//156
f 91//157 107//157 110//157
f 91//158 110//158 111//158
f 91//159 111//159 108//159
f 92//130 112//130 113//130
f 92//130 113//130 93//130
f 94//130 113//130 112//130
f 94//160 112//160 114//160
f 94//161 114//161 98//161
f 94//162 98//162 95//162
f 96//163 105//163 106//163
f 96//164 106//164 109//164
f 96//165 109//165 115//165
f 96//166 115//166 112//166
f 98//167 108//167 116//167
f 98//168 116//168 117//168
f 98//169 117//169 99//169
f 98//170 114//170 115//170
f 98//171 115//171 109//171
f 98//172 109//172 108//172
f 99//173 117//173 118//173
f 99//174 118//174 119//174
f 99//175 119//175 100//175
f 100//176 119//176 101//176
f 104//177 120//177 121//177
f 107//178 121//178 120//178
f 107//179 120//179 122//179
f 107//180 122//180 123//180
f 107//181 123//181 110//181
f 108//182 111//182 124//182
f 108//183 124//183 125//183
f 108//184 125//184 117//184
f 108//185 117//185 116//185
f 110//186 126//186 111//186
f 111//187 126//187 124//187
f 112//188 115//188 114//188
