# Blender 4.4.3
# www.blender.org
o socket8mm_collision_geom_26
v -0.104594 0.021243 -0.031480
v -0.104313 0.021225 -0.030354
v -0.104558 0.021243 -0.031275
v -0.103619 0.022840 -0.031480
v -0.100676 0.021243 -0.031480
v -0.104166 0.021225 -0.029947
v -0.104391 0.021243 -0.030592
v -0.104497 0.021243 -0.030943
v -0.099867 0.021225 -0.030354
v -0.103575 0.022840 -0.031248
v -0.100676 0.022840 -0.031480
v -0.098806 0.021225 -0.029695
v -0.103356 0.022840 -0.030590
v -0.103472 0.022840 -0.030907
v -0.104060 0.021225 -0.029695
v -0.103232 0.022840 -0.030267
v -0.103485 0.022840 -0.030943
v -0.103561 0.022840 -0.031202
v -0.098809 0.022840 -0.029696
v -0.098806 0.022839 -0.029695
v -0.102923 0.022840 -0.029695
v -0.103054 0.022840 -0.029916
v -0.103064 0.022840 -0.029933
v -0.103216 0.022840 -0.030236
v -0.098810 0.022840 -0.029695
vn -0.2094 -0.9771 0.0370
vn -0.8438 0.5155 0.1490
vn -0.0000 -0.0000 -1.0000
vn -0.0000 -0.9999 -0.0157
vn -0.8835 0.3446 0.3174
vn -0.9000 -0.3407 0.2720
vn -0.2233 -0.9739 0.0408
vn -0.0000 -1.0000 -0.0000
vn -0.8429 0.5156 0.1539
vn -0.8416 0.5164 0.1583
vn -0.0000 1.0000 -0.0000
vn -0.0000 1.0000 0.0001
vn -0.0000 1.0000 0.0015
vn 0.6906 -0.0000 -0.7233
vn 0.0176 -0.9994 -0.0284
vn -0.8016 0.5199 0.2951
vn -0.8023 0.5195 0.2940
vn -0.7870 0.5211 0.3303
vn -0.7962 0.5217 0.3064
vn -0.8040 0.5195 0.2894
vn -0.8185 0.5186 0.2473
vn -0.8200 0.5195 0.2403
vn -0.8201 0.5195 0.2398
vn 0.2301 0.9431 -0.2402
vn 0.0004 -0.0000 1.0000
vn -0.0000 -0.0000 1.0000
vn -0.7360 0.5183 0.4356
vn -0.7383 0.5190 0.4308
vn -0.7606 0.5255 0.3813
vn -0.7629 0.5252 0.3769
vn 0.1363 0.9866 0.0897
s 0
f 1//1 2//1 3//1
f 1//2 3//2 4//2
f 1//3 4//3 11//3
f 1//3 11//3 5//3
f 1//4 5//4 9//4
f 1//4 9//4 2//4
f 2//5 6//5 7//5
f 2//6 7//6 8//6
f 2//7 8//7 3//7
f 2//8 9//8 12//8
f 2//8 12//8 15//8
f 2//8 15//8 6//8
f 3//9 8//9 4//9
f 4//10 8//10 10//10
f 4//11 10//11 18//11
f 4//11 18//11 17//11
f 4//12 17//12 14//12
f 4//11 14//11 13//11
f 4//11 13//11 16//11
f 4//12 16//12 24//12
f 4//11 24//11 23//11
f 4//12 23//12 22//12
f 4//11 22//11 21//11
f 4//11 21//11 25//11
f 4//13 25//13 19//13
f 4//11 19//11 11//11
f 5//14 11//14 20//14
f 5//14 20//14 12//14
f 5//15 12//15 9//15
f 6//16 13//16 14//16
f 6//17 14//17 7//17
f 6//18 15//18 16//18
f 6//19 16//19 13//19
f 7//20 14//20 17//20
f 7//21 17//21 8//21
f 8//22 17//22 18//22
f 8//23 18//23 10//23
f 11//24 19//24 20//24
f 12//25 20//25 25//25
f 12//26 25//26 21//26
f 12//26 21//26 15//26
f 15//27 21//27 22//27
f 15//28 22//28 23//28
f 15//29 23//29 24//29
f 15//30 24//30 16//30
f 19//31 25//31 20//31
