# Blender 4.4.3
# www.blender.org
o socket10mm_collision_geom_28
v -0.053015 0.022758 -0.035924
v -0.053015 0.022758 -0.039030
v -0.055542 0.022758 -0.036928
v -0.053015 0.011171 -0.035924
v -0.053095 0.022758 -0.039063
v -0.053015 0.019990 -0.042054
v -0.053030 0.019980 -0.042074
v -0.055542 0.022758 -0.037080
v -0.055542 0.010839 -0.036928
v -0.053015 0.010707 -0.035925
v -0.053228 0.022758 -0.039111
v -0.053015 0.019966 -0.042069
v -0.053018 0.019801 -0.042078
v -0.053220 0.019801 -0.042134
v -0.053552 0.019801 -0.042206
v -0.054686 0.019975 -0.042402
v -0.053220 0.020011 -0.042099
v -0.053916 0.022758 -0.039348
v -0.053896 0.022758 -0.039342
v -0.053554 0.022758 -0.039230
v -0.053520 0.022758 -0.039218
v -0.055512 0.022758 -0.039577
v -0.055542 0.022755 -0.039578
v -0.055542 0.010506 -0.036930
v -0.053015 0.010506 -0.035925
v -0.053015 0.019801 -0.042077
v -0.053018 0.009514 -0.042078
v -0.053220 0.009514 -0.042134
v -0.053884 0.019469 -0.042265
v -0.054216 0.019469 -0.042324
v -0.054672 0.019801 -0.042404
v -0.053552 0.009514 -0.042206
v -0.054508 0.009514 -0.042375
v -0.054880 0.019989 -0.042411
v -0.054880 0.022758 -0.039537
v -0.053552 0.020047 -0.042136
v -0.054880 0.019801 -0.042425
v -0.054124 0.022758 -0.039401
v -0.055212 0.022758 -0.039572
v -0.055212 0.019998 -0.042417
v -0.055542 0.019998 -0.042417
v -0.055542 0.010262 -0.037008
v -0.053015 0.010414 -0.035945
v -0.053015 0.009514 -0.042077
v -0.054672 0.009514 -0.042404
v -0.055212 0.019801 -0.042438
v -0.055180 0.022758 -0.039568
v -0.054482 0.022758 -0.039467
v -0.054216 0.022758 -0.039418
v -0.054880 0.009514 -0.042425
v -0.055542 0.019801 -0.042438
v -0.053015 0.010288 -0.036003
v -0.055542 0.009514 -0.037850
v -0.053015 0.009514 -0.037628
v -0.055212 0.009514 -0.042438
v -0.055542 0.009514 -0.042438
v -0.055539 0.009514 -0.037849
v -0.053884 0.009514 -0.037703
vn -0.0000 1.0000 -0.0000
vn -0.3691 -0.0000 0.9294
vn 1.0000 -0.0000 -0.0000
vn 1.0000 0.0003 -0.0000
vn 0.3584 0.6887 -0.6303
vn 0.2680 0.7110 -0.6501
vn -1.0000 -0.0000 -0.0000
vn -0.3690 -0.0013 0.9294
vn 0.2396 0.7161 -0.6555
vn 0.6183 0.4019 -0.6754
vn 0.3661 0.0480 -0.9293
vn 0.2670 0.0421 -0.9628
vn 0.2109 0.1048 -0.9719
vn 0.1912 0.1600 -0.9684
vn 0.1807 0.3517 -0.9185
vn 0.2065 0.7180 -0.6647
vn 0.2108 0.7180 -0.6633
vn 0.2167 0.7180 -0.6615
vn 0.2363 0.7165 -0.6563
vn 0.2390 0.7162 -0.6557
vn -0.0855 0.9963 -0.0010
vn -0.3693 -0.0053 0.9293
vn -0.3690 -0.0029 0.9294
vn 0.4244 0.0456 -0.9043
vn 0.4241 -0.0000 -0.9056
vn 0.4257 -0.0000 -0.9049
vn 0.2672 -0.0000 -0.9636
vn 0.2121 -0.0000 -0.9772
vn 0.1739 0.0001 -0.9848
vn 0.1738 0.0003 -0.9848
vn 0.1737 0.0283 -0.9844
vn 0.1740 -0.0000 -0.9847
vn 0.0868 0.7174 -0.6912
vn 0.1155 0.7163 -0.6882
vn 0.1510 0.5781 -0.8019
vn 0.1007 0.0226 -0.9947
vn 0.0546 0.0743 -0.9957
vn 0.1529 0.7177 -0.6794
vn 0.1698 0.7185 -0.6745
vn 0.0118 0.7178 -0.6961
vn -0.0000 0.7172 -0.6968
vn -0.0323 0.7170 -0.6963
vn -0.3569 -0.2862 0.8892
vn -0.3622 -0.1958 0.9113
vn -0.0000 -1.0000 -0.0000
vn -0.0000 -1.0000 -0.0001
vn -0.0000 -1.0000 0.0001
vn 0.1739 -0.0000 -0.9848
vn 0.1736 -0.0000 -0.9848
vn 0.1723 -0.0000 -0.9850
vn 0.1008 -0.0000 -0.9949
vn 0.1007 -0.0000 -0.9949
vn 0.0402 0.0744 -0.9964
vn 0.0220 0.1061 -0.9941
vn 0.0330 0.7175 -0.6958
vn 0.0690 0.7182 -0.6924
vn 0.0721 0.7183 -0.6920
vn 0.1211 0.7172 -0.6863
vn 0.1264 0.7176 -0.6849
vn 0.1280 0.7177 -0.6845
vn 0.0403 -0.0000 -0.9992
vn -0.0000 0.1062 -0.9943
vn -0.3368 -0.3909 0.8566
vn -0.2486 -0.7240 0.6434
vn -0.0000 -0.0000 -1.0000
vn -0.1223 -0.8445 0.5214
vn -0.0379 -0.9021 0.4299
vn -0.0372 -0.9022 0.4296
s 0
f 1//1 2//1 5//1
f 1//1 5//1 11//1
f 1//1 11//1 21//1
f 1//1 21//1 20//1
f 1//1 20//1 19//1
f 1//1 19//1 18//1
f 1//1 18//1 38//1
f 1//1 38//1 49//1
f 1//1 49//1 48//1
f 1//1 48//1 35//1
f 1//1 35//1 47//1
f 1//1 47//1 39//1
f 1//1 39//1 22//1
f 1//1 22//1 8//1
f 1//1 8//1 3//1
f 1//2 3//2 9//2
f 1//2 9//2 4//2
f 1//3 4//3 10//3
f 1//3 10//3 25//3
f 1//3 25//3 43//3
f 1//3 43//3 52//3
f 1//3 52//3 54//3
f 1//3 54//3 44//3
f 1//3 44//3 26//3
f 1//3 26//3 12//3
f 1//4 12//4 6//4
f 1//3 6//3 2//3
f 2//5 6//5 7//5
f 2//6 7//6 5//6
f 3//7 8//7 23//7
f 3//7 23//7 41//7
f 3//7 41//7 51//7
f 3//7 51//7 56//7
f 3//7 56//7 53//7
f 3//7 53//7 42//7
f 3//7 42//7 24//7
f 3//7 24//7 9//7
f 4//8 9//8 10//8
f 5//9 7//9 11//9
f 6//10 12//10 7//10
f 7//11 12//11 13//11
f 7//12 13//12 14//12
f 7//13 14//13 15//13
f 7//14 15//14 16//14
f 7//15 16//15 17//15
f 7//16 17//16 18//16
f 7//17 18//17 19//17
f 7//18 19//18 20//18
f 7//19 20//19 21//19
f 7//20 21//20 11//20
f 8//21 22//21 23//21
f 9//22 24//22 25//22
f 9//23 25//23 10//23
f 12//24 26//24 13//24
f 13//25 26//25 44//25
f 13//26 44//26 27//26
f 13//27 27//27 28//27
f 13//27 28//27 14//27
f 14//28 28//28 32//28
f 14//28 32//28 15//28
f 15//29 29//29 30//29
f 15//30 30//30 31//30
f 15//31 31//31 16//31
f 15//32 32//32 33//32
f 15//32 33//32 29//32
f 16//33 34//33 35//33
f 16//34 35//34 36//34
f 16//35 36//35 17//35
f 16//36 31//36 37//36
f 16//37 37//37 34//37
f 17//38 36//38 38//38
f 17//39 38//39 18//39
f 22//40 39//40 40//40
f 22//41 40//41 41//41
f 22//42 41//42 23//42
f 24//43 42//43 43//43
f 24//44 43//44 25//44
f 27//45 44//45 54//45
f 27//45 54//45 58//45
f 27//45 58//45 57//45
f 27//45 57//45 53//45
f 27//45 53//45 56//45
f 27//45 56//45 55//45
f 27//45 55//45 50//45
f 27//46 50//46 45//46
f 27//47 45//47 33//47
f 27//47 33//47 32//47
f 27//46 32//46 28//46
f 29//48 33//48 30//48
f 30//49 33//49 31//49
f 31//50 33//50 45//50
f 31//51 45//51 50//51
f 31//52 50//52 37//52
f 34//53 37//53 46//53
f 34//54 46//54 40//54
f 34//55 40//55 39//55
f 34//56 39//56 47//56
f 34//57 47//57 35//57
f 35//58 48//58 36//58
f 36//59 48//59 49//59
f 36//60 49//60 38//60
f 37//61 50//61 55//61
f 37//61 55//61 46//61
f 40//62 46//62 51//62
f 40//62 51//62 41//62
f 42//63 52//63 43//63
f 42//64 53//64 52//64
f 46//65 55//65 56//65
f 46//65 56//65 51//65
f 52//66 53//66 57//66
f 52//67 57//67 58//67
f 52//68 58//68 54//68
