# Blender 4.4.3
# www.blender.org
o socket11mm_collision_geom_26
v -0.029533 0.004198 -0.034062
v -0.029486 0.004198 -0.034595
v -0.029348 0.003955 -0.036166
v -0.029346 0.003866 -0.036166
v -0.029364 0.003866 -0.035923
v -0.029444 0.003968 -0.034927
v -0.029516 0.004098 -0.034062
v -0.029532 0.009509 -0.034062
v -0.029515 0.009509 -0.034263
v -0.029457 0.004198 -0.034927
v -0.029369 0.009509 -0.035923
v -0.029348 0.004198 -0.036166
v -0.029257 0.003641 -0.036166
v -0.029381 0.003866 -0.035591
v -0.029458 0.003947 -0.034595
v -0.029472 0.003944 -0.034263
v -0.029481 0.003944 -0.034062
v -0.025151 0.009509 -0.034062
v -0.029348 0.009509 -0.036166
v -0.029221 0.003567 -0.036166
v -0.029228 0.003586 -0.035923
v -0.029348 0.003780 -0.034595
v -0.029305 0.003778 -0.034263
v -0.029262 0.003771 -0.034062
v -0.025151 0.003866 -0.034062
v -0.025304 0.009509 -0.034927
v -0.025689 0.009509 -0.036166
v -0.028982 0.003400 -0.036166
v -0.029212 0.003654 -0.034927
v -0.029226 0.003638 -0.035259
v -0.029182 0.003671 -0.034595
v -0.029200 0.003737 -0.034062
v -0.025155 0.003636 -0.034062
v -0.025304 0.003534 -0.034927
v -0.025377 0.009509 -0.035259
v -0.025601 0.009509 -0.035925
v -0.025689 0.003866 -0.036166
v -0.028863 0.003367 -0.036166
v -0.027745 0.003272 -0.034062
v -0.027922 0.003326 -0.034062
v -0.028399 0.003474 -0.034062
v -0.029109 0.003697 -0.034062
v -0.025158 0.003534 -0.034062
v -0.025411 0.003324 -0.035259
v -0.025437 0.003355 -0.035449
v -0.025377 0.003534 -0.035259
v -0.025433 0.009509 -0.035461
v -0.025433 0.003534 -0.035461
v -0.025690 0.003534 -0.036166
v -0.028777 0.003343 -0.036166
v -0.027603 0.003233 -0.034062
v -0.025287 0.003285 -0.034062
v -0.025375 0.003290 -0.034927
v -0.025693 0.003289 -0.035923
v -0.025734 0.003319 -0.036166
v -0.028600 0.003295 -0.036166
v -0.028267 0.003220 -0.036166
v -0.028179 0.003206 -0.036166
v -0.027403 0.003203 -0.034062
v -0.028511 0.003271 -0.036166
v -0.025409 0.003246 -0.034062
v -0.025612 0.003187 -0.034595
v -0.025326 0.003277 -0.034263
v -0.025350 0.003279 -0.034595
v -0.025612 0.003199 -0.034927
v -0.025612 0.003233 -0.035259
v -0.025840 0.003274 -0.036166
v -0.025944 0.003197 -0.035923
v -0.027935 0.003188 -0.036166
v -0.027272 0.003186 -0.034062
v -0.025612 0.003185 -0.034263
v -0.025612 0.003185 -0.034062
v -0.025944 0.003185 -0.035591
v -0.025923 0.003245 -0.036166
v -0.026187 0.003188 -0.036166
v -0.027847 0.003185 -0.036166
v -0.027272 0.003186 -0.034263
v -0.026940 0.003185 -0.034062
v -0.026276 0.003185 -0.036166
v -0.027272 0.003185 -0.034595
vn -0.9962 -0.0031 -0.0874
vn -0.9962 -0.0192 -0.0855
vn -0.9920 -0.1041 -0.0718
vn -0.9877 -0.1426 -0.0645
vn -0.9841 -0.1683 -0.0573
vn 0.0011 -0.0000 1.0000
vn -0.0000 -0.0000 1.0000
vn -0.0001 -0.0000 1.0000
vn -0.9964 0.0002 -0.0851
vn -0.9962 0.0001 -0.0874
vn -0.9962 -0.0022 -0.0875
vn -0.9962 0.0001 -0.0875
vn -0.9962 -0.0017 -0.0876
vn -0.0000 -0.0000 -1.0000
vn -0.0001 -0.0000 -1.0000
vn 0.0001 -0.0000 -1.0000
vn 0.0003 -0.0000 -1.0000
vn -0.9279 -0.3666 -0.0672
vn -0.9217 -0.3849 -0.0476
vn -0.9513 -0.3044 -0.0492
vn -0.9760 -0.2103 -0.0566
vn -0.9817 -0.1821 -0.0550
vn -0.9746 -0.2198 -0.0436
vn -0.9744 -0.2205 -0.0430
vn -0.0000 1.0000 -0.0000
vn -0.0000 1.0000 0.0002
vn -0.0000 1.0000 -0.0003
vn -0.9962 0.0001 -0.0876
vn -0.9961 0.0001 -0.0881
vn -0.9149 -0.4017 -0.0396
vn -0.8987 -0.4374 -0.0327
vn -0.9317 -0.3608 -0.0431
vn -0.9161 -0.3989 -0.0398
vn -0.7156 -0.6975 0.0366
vn -0.7135 -0.6997 0.0373
vn -0.6353 -0.7683 0.0780
vn -0.6169 -0.7801 0.1039
vn 0.9847 -0.0000 -0.1743
vn -0.5718 -0.8189 0.0506
vn -0.5635 -0.8235 0.0655
vn -0.5880 -0.8063 0.0643
vn -0.5615 -0.8249 0.0656
vn -0.5838 -0.8092 0.0657
vn -0.5773 -0.8135 0.0700
vn -0.5278 -0.8453 0.0828
vn -0.4967 -0.8635 0.0871
vn -0.4739 -0.8757 0.0928
vn 0.9855 -0.0147 -0.1688
vn 0.9772 -0.0000 -0.2122
vn 0.9394 -0.0000 -0.3428
vn -0.2686 -0.9581 0.0996
vn -0.2891 -0.9507 0.1121
vn -0.2957 -0.9483 0.1155
vn -0.2968 -0.9479 0.1158
vn -0.4044 -0.9087 0.1038
vn -0.4576 -0.8841 0.0944
vn -0.4923 -0.8661 0.0869
vn 0.9855 -0.0292 -0.1671
vn 0.9594 -0.2304 -0.1627
vn 0.9601 -0.2248 -0.1664
vn 0.9720 -0.1037 -0.2111
vn 0.9636 -0.0000 -0.2674
vn 0.9398 -0.0000 -0.3417
vn 0.9397 -0.0000 -0.3421
vn 0.9393 -0.0025 -0.3431
vn -0.2609 -0.9607 0.0951
vn -0.2644 -0.9595 0.0973
vn 0.8837 -0.4588 -0.0925
vn 0.9289 -0.3443 -0.1362
vn 0.4381 -0.8882 -0.1387
vn 0.5589 -0.8061 -0.1944
vn 0.5934 -0.7779 -0.2068
vn 0.9112 -0.1850 -0.3681
vn 0.9383 -0.0456 -0.3428
vn 0.9628 -0.0411 -0.2672
vn -0.2598 -0.9610 0.0946
vn -0.1581 -0.9858 0.0560
vn -0.1492 -0.9874 0.0536
vn -0.2589 -0.9613 0.0941
vn -0.2062 -0.9759 0.0711
vn 0.3059 -0.9520 -0.0117
vn 0.3237 -0.9459 -0.0236
vn 0.3648 -0.9306 -0.0320
vn 0.7362 -0.6721 -0.0787
vn 0.3581 -0.9318 -0.0586
vn 0.3571 -0.9292 -0.0954
vn 0.3935 -0.9109 -0.1245
vn 0.3817 -0.9071 -0.1773
vn 0.3405 -0.9326 -0.1198
vn 0.3391 -0.9287 -0.1503
vn -0.0736 -0.9970 0.0226
vn -0.1220 -0.9916 0.0435
vn 0.2908 -0.9568 -0.0053
vn 0.2859 -0.9583 -0.0000
vn 0.0223 -0.9997 -0.0056
vn 0.1111 -0.9932 -0.0352
vn 0.3298 -0.9434 -0.0334
vn 0.3299 -0.9436 -0.0296
vn 0.2976 -0.9497 -0.0975
vn 0.3338 -0.9301 -0.1530
vn 0.0708 -0.9969 -0.0353
vn 0.2051 -0.9637 -0.1709
vn -0.0279 -0.9996 0.0082
vn -0.0092 -1.0000 0.0031
vn -0.0037 -1.0000 0.0031
vn -0.0000 -1.0000 -0.0000
vn 0.0348 -0.9992 -0.0201
vn -0.0051 -1.0000 0.0019
vn -0.0030 -1.0000 0.0019
s 0
f 1//1 2//1 3//1
f 1//2 3//2 4//2
f 1//3 4//3 5//3
f 1//4 5//4 6//4
f 1//5 6//5 7//5
f 1//6 7//6 17//6
f 1//7 17//7 24//7
f 1//7 24//7 32//7
f 1//7 32//7 42//7
f 1//7 42//7 41//7
f 1//7 41//7 40//7
f 1//7 40//7 39//7
f 1//8 39//8 51//8
f 1//7 51//7 59//7
f 1//7 59//7 70//7
f 1//7 70//7 78//7
f 1//7 78//7 72//7
f 1//7 72//7 61//7
f 1//7 61//7 52//7
f 1//7 52//7 43//7
f 1//7 43//7 33//7
f 1//7 33//7 25//7
f 1//7 25//7 18//7
f 1//7 18//7 8//7
f 1//9 8//9 9//9
f 1//10 9//10 2//10
f 2//11 10//11 3//11
f 2//12 9//12 11//12
f 2//12 11//12 10//12
f 3//13 10//13 12//13
f 3//14 12//14 19//14
f 3//14 19//14 27//14
f 3//14 27//14 37//14
f 3//14 37//14 49//14
f 3//14 49//14 55//14
f 3//14 55//14 67//14
f 3//14 67//14 74//14
f 3//14 74//14 75//14
f 3//14 75//14 79//14
f 3//14 79//14 76//14
f 3//14 76//14 69//14
f 3//14 69//14 58//14
f 3//14 58//14 57//14
f 3//14 57//14 60//14
f 3//14 60//14 56//14
f 3//14 56//14 50//14
f 3//15 50//15 38//15
f 3//16 38//16 28//16
f 3//14 28//14 20//14
f 3//17 20//17 13//17
f 3//14 13//14 4//14
f 4//18 13//18 5//18
f 5//19 13//19 14//19
f 5//20 14//20 15//20
f 5//21 15//21 6//21
f 6//22 15//22 7//22
f 7//23 15//23 16//23
f 7//24 16//24 17//24
f 8//25 18//25 26//25
f 8//25 26//25 35//25
f 8//25 35//25 47//25
f 8//25 47//25 36//25
f 8//25 36//25 27//25
f 8//25 27//25 19//25
f 8//26 19//26 11//26
f 8//27 11//27 9//27
f 10//28 11//28 12//28
f 11//29 19//29 12//29
f 13//30 17//30 14//30
f 13//31 20//31 17//31
f 14//32 16//32 15//32
f 14//33 17//33 16//33
f 17//34 20//34 21//34
f 17//35 21//35 22//35
f 17//36 22//36 23//36
f 17//37 23//37 24//37
f 18//38 25//38 34//38
f 18//38 34//38 26//38
f 20//39 28//39 21//39
f 21//40 29//40 30//40
f 21//41 30//41 22//41
f 21//42 28//42 29//42
f 22//43 30//43 29//43
f 22//44 29//44 23//44
f 23//45 29//45 24//45
f 24//46 29//46 31//46
f 24//47 31//47 32//47
f 25//48 33//48 34//48
f 26//49 34//49 46//49
f 26//49 46//49 35//49
f 27//50 36//50 37//50
f 28//51 38//51 39//51
f 28//52 39//52 40//52
f 28//53 40//53 41//53
f 28//54 41//54 42//54
f 28//55 42//55 32//55
f 28//56 32//56 31//56
f 28//57 31//57 29//57
f 33//58 43//58 34//58
f 34//59 43//59 44//59
f 34//60 44//60 45//60
f 34//61 45//61 46//61
f 35//62 46//62 48//62
f 35//62 48//62 47//62
f 36//63 47//63 48//63
f 36//64 48//64 37//64
f 37//65 48//65 49//65
f 38//66 50//66 51//66
f 38//67 51//67 39//67
f 43//68 52//68 53//68
f 43//69 53//69 44//69
f 44//70 53//70 54//70
f 44//71 54//71 55//71
f 44//72 55//72 45//72
f 45//73 55//73 49//73
f 45//74 49//74 48//74
f 45//75 48//75 46//75
f 50//76 56//76 51//76
f 51//77 57//77 58//77
f 51//78 58//78 59//78
f 51//79 56//79 60//79
f 51//80 60//80 57//80
f 52//81 61//81 62//81
f 52//82 62//82 63//82
f 52//83 63//83 64//83
f 52//84 64//84 53//84
f 53//85 64//85 65//85
f 53//86 65//86 66//86
f 53//87 66//87 54//87
f 54//88 67//88 55//88
f 54//89 66//89 68//89
f 54//90 68//90 67//90
f 58//91 69//91 70//91
f 58//92 70//92 59//92
f 61//93 71//93 62//93
f 61//94 72//94 71//94
f 62//95 71//95 73//95
f 62//96 73//96 68//96
f 62//96 68//96 65//96
f 62//97 65//97 64//97
f 62//98 64//98 63//98
f 65//99 68//99 66//99
f 67//100 68//100 74//100
f 68//101 73//101 75//101
f 68//102 75//102 74//102
f 69//103 76//103 70//103
f 70//104 76//104 77//104
f 70//105 77//105 78//105
f 71//106 72//106 78//106
f 71//106 78//106 80//106
f 71//106 80//106 76//106
f 71//106 76//106 79//106
f 71//106 79//106 73//106
f 73//107 79//107 75//107
f 76//108 80//108 77//108
f 77//109 80//109 78//109
