# Blender 4.4.3
# www.blender.org
o socket9mm_collision_geom_4
v -0.073821 0.038277 -0.034133
v -0.073821 0.038278 -0.034308
v -0.076933 0.038279 -0.039495
v -0.077145 0.038272 -0.039495
v -0.074167 0.038227 -0.034133
v -0.073502 0.038185 -0.034133
v -0.073821 0.038279 -0.034654
v -0.074167 0.038279 -0.036383
v -0.075550 0.038278 -0.038457
v -0.075896 0.038275 -0.038802
v -0.076242 0.038269 -0.039149
v -0.076587 0.038240 -0.039495
v -0.077145 0.038227 -0.039844
v -0.077145 0.038225 -0.039149
v -0.074749 0.038072 -0.034133
v -0.073502 0.038185 -0.034308
v -0.073346 0.037918 -0.034133
v -0.073821 0.038279 -0.034999
v -0.074513 0.038278 -0.037074
v -0.073821 0.038278 -0.035345
v -0.073821 0.038262 -0.035691
v -0.074167 0.038255 -0.036729
v -0.074859 0.038269 -0.037766
v -0.075187 0.038203 -0.038472
v -0.075535 0.038201 -0.038820
v -0.075894 0.038193 -0.039156
v -0.076270 0.038163 -0.039489
v -0.076943 0.038184 -0.039849
v -0.077145 0.038134 -0.040051
v -0.077145 0.038144 -0.038794
v -0.075204 0.037941 -0.034133
v -0.074843 0.038046 -0.034133
v -0.073508 0.038185 -0.034654
v -0.073346 0.037918 -0.034308
v -0.073337 0.037572 -0.034133
v -0.073527 0.038185 -0.034999
v -0.073553 0.038183 -0.035345
v -0.073581 0.038167 -0.035691
v -0.073868 0.038185 -0.036383
v -0.074513 0.038240 -0.037419
v -0.073929 0.038160 -0.036729
v -0.074158 0.038184 -0.037064
v -0.074852 0.038193 -0.038113
v -0.074962 0.038149 -0.038367
v -0.075290 0.038154 -0.038717
v -0.075640 0.038149 -0.039045
v -0.076008 0.038139 -0.039371
v -0.076587 0.038144 -0.039726
v -0.077066 0.038120 -0.040035
v -0.077145 0.037918 -0.040088
v -0.077145 0.038060 -0.038432
v -0.077145 0.037982 -0.038111
v -0.075467 0.037814 -0.034133
v -0.073358 0.037918 -0.034654
v -0.073337 0.037572 -0.034308
v -0.073348 0.037572 -0.034654
v -0.073180 0.023750 -0.034133
v -0.073615 0.038133 -0.035957
v -0.073398 0.037918 -0.034999
v -0.073453 0.037918 -0.035345
v -0.074518 0.038163 -0.037737
v -0.073972 0.038120 -0.036942
v -0.074281 0.038144 -0.037419
v -0.074637 0.038139 -0.037999
v -0.075074 0.037918 -0.038581
v -0.075246 0.037918 -0.038761
v -0.075426 0.037918 -0.038934
v -0.075599 0.037918 -0.039080
v -0.075805 0.037918 -0.039253
v -0.075978 0.037918 -0.039395
v -0.076405 0.038099 -0.039673
v -0.077045 0.037918 -0.040046
v -0.077145 0.023750 -0.040249
v -0.077145 0.037867 -0.037773
v -0.077145 0.037779 -0.037564
v -0.075719 0.037662 -0.034488
v -0.075532 0.037689 -0.034133
v -0.073181 0.023750 -0.034318
v -0.073190 0.023750 -0.034654
v -0.073389 0.037572 -0.034999
v -0.073191 0.023750 -0.034661
v -0.076000 0.023750 -0.034133
v -0.073515 0.037918 -0.035691
v -0.073598 0.037918 -0.036003
v -0.073235 0.023750 -0.035019
v -0.074334 0.038099 -0.037602
v -0.073863 0.037918 -0.036729
v -0.073961 0.037918 -0.036963
v -0.074612 0.037918 -0.038030
v -0.074755 0.037918 -0.038202
v -0.074928 0.037918 -0.038409
v -0.074971 0.023750 -0.038701
v -0.074975 0.023750 -0.038707
v -0.075133 0.023750 -0.038875
v -0.075309 0.023750 -0.039041
v -0.075533 0.023750 -0.039228
v -0.075684 0.023750 -0.039354
v -0.076227 0.037918 -0.039568
v -0.075878 0.023750 -0.039511
v -0.076076 0.023750 -0.039663
v -0.076400 0.037918 -0.039676
v -0.076872 0.037918 -0.039949
v -0.076717 0.023750 -0.040038
v -0.076887 0.023750 -0.040130
v -0.076903 0.023750 -0.040139
v -0.077145 0.023750 -0.036882
v -0.077145 0.037762 -0.037553
v -0.075563 0.037565 -0.034133
v -0.076000 0.028582 -0.034133
v -0.073355 0.023750 -0.035697
v -0.073361 0.023750 -0.035719
v -0.073447 0.023750 -0.036037
v -0.073576 0.023750 -0.036396
v -0.074059 0.037918 -0.037136
v -0.074331 0.037918 -0.037607
v -0.074439 0.037918 -0.037781
v -0.073701 0.023750 -0.036736
v -0.073860 0.023750 -0.037087
v -0.073868 0.023750 -0.037104
v -0.073969 0.023750 -0.037290
v -0.074344 0.023750 -0.037931
v -0.074497 0.023750 -0.038128
v -0.074654 0.023750 -0.038322
v -0.074764 0.023750 -0.038456
v -0.076232 0.023750 -0.039759
v -0.076566 0.023750 -0.039951
v -0.077145 0.028582 -0.036882
v -0.077145 0.037572 -0.037513
v -0.077145 0.028886 -0.036903
v -0.074047 0.023750 -0.037425
v -0.074249 0.023750 -0.037775
vn -0.0131 0.9999 0.0081
vn -0.0336 0.9992 0.0200
vn -0.1418 0.9861 0.0871
vn -0.0000 -0.0000 1.0000
vn -0.0001 -0.0000 1.0000
vn 0.2744 0.9616 0.0079
vn -0.0064 1.0000 0.0041
vn 0.2763 0.9610 0.0039
vn -0.0000 1.0000 -0.0000
vn 0.0031 1.0000 -0.0027
vn 0.0289 0.9989 -0.0371
vn 0.0451 0.9971 -0.0614
vn 0.1122 0.9741 -0.1962
vn 0.1118 0.9704 -0.2140
vn -0.0333 0.9911 -0.1292
vn -1.0000 -0.0002 -0.0000
vn -1.0000 -0.0000 -0.0000
vn -1.0000 0.0001 -0.0000
vn -1.0000 -0.0001 -0.0000
vn -1.0000 -0.0005 -0.0000
vn -1.0000 0.0006 -0.0000
vn -1.0000 -0.0003 -0.0000
vn -0.2213 0.9664 0.1311
vn -0.2547 0.9552 0.1509
vn 0.2823 0.9593 -0.0000
vn 0.8643 0.5030 -0.0000
vn 0.8643 0.5031 -0.0000
vn 0.0082 0.9999 -0.0061
vn 0.0164 0.9999 -0.0041
vn 0.1381 0.9894 -0.0447
vn 0.1851 0.9803 -0.0685
vn 0.1340 0.9886 -0.0690
vn 0.0493 0.9981 -0.0370
vn 0.1927 0.9645 -0.1807
vn 0.1915 0.9619 -0.1953
vn 0.1875 0.9626 -0.1956
vn 0.1869 0.9613 -0.2025
vn 0.2046 0.9481 -0.2435
vn 0.2016 0.9379 -0.2824
vn 0.2270 0.9134 -0.3378
vn 0.2249 0.9026 -0.3671
vn 0.1870 0.9244 -0.3325
vn 0.1797 0.8987 -0.4000
vn -0.3977 0.8944 0.2046
vn -0.2760 0.9476 0.1605
vn -0.2588 0.9537 0.1529
vn 0.2942 0.9557 -0.0053
vn 0.2901 0.9570 -0.0039
vn 0.8642 0.5030 -0.0155
vn 0.9996 0.0269 -0.0000
vn 0.1536 0.9841 -0.0890
vn 0.3189 0.9476 -0.0176
vn 0.3342 0.9419 -0.0321
vn 0.3341 0.9416 -0.0426
vn 0.3683 0.9269 -0.0725
vn 0.3662 0.9218 -0.1273
vn 0.3621 0.9234 -0.1272
vn 0.2117 0.9689 -0.1279
vn 0.3675 0.9205 -0.1324
vn 0.3645 0.9128 -0.1840
vn 0.3323 0.9244 -0.1872
vn 0.2826 0.9379 -0.2014
vn 0.2469 0.9473 -0.2043
vn 0.3568 0.8817 -0.3086
vn 0.3629 0.8730 -0.3260
vn 0.3030 0.9024 -0.3065
vn 0.3192 0.8785 -0.3554
vn 0.3064 0.8848 -0.3510
vn 0.3187 0.8654 -0.3868
vn 0.2446 0.9017 -0.3566
vn 0.2775 0.8546 -0.4389
vn 0.2323 0.8947 -0.3814
vn 0.2545 0.8509 -0.4596
vn 0.2468 0.8551 -0.4560
vn 0.2253 0.1623 -0.9607
vn -0.4034 0.8913 0.2068
vn -0.4233 0.8800 0.2156
vn -0.4210 0.8814 0.2145
vn 0.8715 0.4895 -0.0293
vn 0.8709 0.4892 -0.0479
vn 0.9991 0.0269 -0.0314
vn 0.9990 0.0292 -0.0336
vn 0.9999 0.0113 -0.0000
vn 0.8805 0.4692 -0.0680
vn 0.9034 0.4184 -0.0939
vn 0.4975 0.8502 -0.1724
vn 0.3838 0.9136 -0.1347
vn 0.9172 0.3844 -0.1051
vn 0.9488 0.2767 -0.1522
vn 0.9496 0.2723 -0.1556
vn 0.3662 0.9031 -0.2244
vn 0.3373 0.9137 -0.2265
vn 0.7105 0.6516 -0.2659
vn 0.4574 0.8528 -0.2520
vn 0.4583 0.8518 -0.2539
vn 0.3809 0.8951 -0.2319
vn 0.3568 0.9016 -0.2447
vn 0.3869 0.8653 -0.3189
vn 0.7300 0.2417 -0.6393
vn 0.7047 0.2698 -0.6562
vn 0.6984 0.2573 -0.6678
vn 0.6683 0.2573 -0.6980
vn 0.6565 0.2700 -0.7044
vn 0.6392 0.2414 -0.7302
vn 0.6337 0.1860 -0.7509
vn 0.6324 0.1804 -0.7533
vn 0.6262 0.1707 -0.7607
vn 0.5871 0.1688 -0.7917
vn 0.3482 0.7549 -0.5558
vn 0.3518 0.7188 -0.5996
vn 0.4808 0.0954 -0.8716
vn 0.3860 0.0883 -0.9183
vn 0.3874 0.0105 -0.9218
vn -0.5573 0.7858 0.2681
vn -0.6318 0.7142 0.3014
vn -0.8140 0.4273 0.3935
vn -0.8157 0.4199 0.3978
vn 0.9931 0.0290 -0.1138
vn 0.9999 0.0113 -0.0020
vn 0.9996 0.0113 -0.0278
vn 0.9994 0.0114 -0.0314
vn 0.9928 0.0256 -0.1171
vn 0.9949 0.0114 -0.1000
vn 0.9930 0.0114 -0.1172
vn -0.0000 -1.0000 -0.0000
vn -0.0000 -1.0000 0.0001
vn -0.0000 -1.0000 0.0002
vn 0.9564 0.2379 -0.1694
vn 0.9576 0.1297 -0.2573
vn 0.9297 0.1449 -0.3387
vn 0.9871 0.0255 -0.1583
vn 0.9850 0.0112 -0.1722
vn 0.9846 0.0112 -0.1745
vn 0.4387 0.8547 -0.2775
vn 0.5998 0.7183 -0.3524
vn 0.9299 0.1409 -0.3397
vn 0.9191 0.0881 -0.3840
vn 0.8714 0.0953 -0.4813
vn 0.5566 0.7540 -0.3489
vn 0.7917 0.1704 -0.5867
vn 0.7594 0.1724 -0.6273
vn 0.7540 0.1795 -0.6319
vn 0.7495 0.1899 -0.6342
vn 0.7633 0.0110 -0.6460
vn 0.7567 0.0110 -0.6537
vn 0.7306 0.0111 -0.6827
vn 0.7227 0.0113 -0.6910
vn 0.6915 0.0113 -0.7223
vn 0.6837 0.0111 -0.7296
vn 0.6449 0.0111 -0.7642
vn 0.6429 0.0110 -0.7658
vn 0.6418 0.0110 -0.7668
vn 0.6397 0.0109 -0.7685
vn 0.6355 0.0109 -0.7720
vn 0.5678 0.0809 -0.8192
vn 0.6286 0.0108 -0.7776
vn 0.6107 0.0108 -0.7918
vn 0.5696 0.0116 -0.8218
vn 0.5304 0.0277 -0.8473
vn 0.5006 0.0273 -0.8653
vn 0.4877 0.0683 -0.8704
vn 0.4887 0.0108 -0.8724
vn 0.4760 0.0105 -0.8794
vn 0.4740 0.0105 -0.8805
vn 0.4151 0.0101 -0.9097
vn -0.8683 0.2750 0.4128
vn -0.9013 0.0966 0.4223
vn -0.8701 0.2183 0.4419
vn 0.9925 0.0112 -0.1216
vn -0.9231 -0.0000 0.3844
vn 0.9844 0.0111 -0.1753
vn 0.9670 0.0110 -0.2544
vn 0.9657 0.0110 -0.2595
vn 0.9653 0.0109 -0.2609
vn 0.9414 0.0109 -0.3371
vn 0.9392 0.0110 -0.3431
vn 0.8697 0.0627 -0.4897
vn 0.8653 0.0279 -0.5004
vn 0.8482 0.0285 -0.5289
vn 0.8188 0.0841 -0.5678
vn 0.9384 0.0109 -0.3455
vn 0.9227 0.0108 -0.3855
vn 0.9103 0.0101 -0.4139
vn 0.9052 0.0102 -0.4249
vn 0.8793 0.0105 -0.4762
vn 0.8713 0.0108 -0.4906
vn 0.8217 0.0116 -0.5698
vn 0.7915 0.0107 -0.6110
vn 0.7777 0.0107 -0.6286
vn 0.7709 0.0109 -0.6368
vn 0.7700 0.0109 -0.6379
vn 0.7664 0.0110 -0.6422
vn 0.7652 0.0110 -0.6437
vn 0.5306 0.0114 -0.8475
vn 0.5217 0.0112 -0.8530
vn 0.5007 0.0110 -0.8655
vn 0.5002 0.0110 -0.8659
vn 0.4965 0.0109 -0.8680
vn -0.9021 0.0882 0.4223
vn -0.9048 0.0440 0.4235
vn -0.9228 0.0265 0.3843
vn -0.9228 0.0270 0.3844
vn 0.8674 0.0109 -0.4976
vn 0.8660 0.0109 -0.5000
vn 0.8656 0.0110 -0.5006
vn 0.8524 0.0112 -0.5228
vn 0.8485 0.0113 -0.5291
s 0
f 1//1 2//1 3//1
f 1//2 3//2 4//2
f 1//3 4//3 5//3
f 1//4 5//4 15//4
f 1//5 15//5 32//5
f 1//4 32//4 31//4
f 1//4 31//4 53//4
f 1//4 53//4 77//4
f 1//4 77//4 108//4
f 1//4 108//4 109//4
f 1//4 109//4 82//4
f 1//4 82//4 57//4
f 1//4 57//4 35//4
f 1//4 35//4 17//4
f 1//4 17//4 6//4
f 1//6 6//6 2//6
f 2//7 7//7 3//7
f 2//8 6//8 7//8
f 3//9 7//9 18//9
f 3//9 18//9 8//9
f 3//10 8//10 9//10
f 3//11 9//11 10//11
f 3//12 10//12 11//12
f 3//13 11//13 12//13
f 3//14 12//14 13//14
f 3//15 13//15 4//15
f 4//16 13//16 29//16
f 4//17 29//17 50//17
f 4//17 50//17 73//17
f 4//17 73//17 106//17
f 4//17 106//17 127//17
f 4//17 127//17 129//17
f 4//17 129//17 128//17
f 4//17 128//17 107//17
f 4//18 107//18 75//18
f 4//19 75//19 74//19
f 4//19 74//19 52//19
f 4//20 52//20 51//20
f 4//21 51//21 30//21
f 4//22 30//22 14//22
f 4//23 14//23 5//23
f 5//24 14//24 15//24
f 6//25 16//25 18//25
f 6//25 18//25 7//25
f 6//26 17//26 34//26
f 6//27 34//27 16//27
f 8//28 19//28 9//28
f 8//29 18//29 20//29
f 8//30 20//30 21//30
f 8//31 21//31 22//31
f 8//32 22//32 19//32
f 9//33 19//33 23//33
f 9//34 23//34 24//34
f 9//35 24//35 25//35
f 9//36 25//36 10//36
f 10//37 25//37 11//37
f 11//38 25//38 26//38
f 11//39 26//39 12//39
f 12//40 26//40 27//40
f 12//41 27//41 28//41
f 12//42 28//42 13//42
f 13//43 28//43 29//43
f 14//44 30//44 31//44
f 14//45 31//45 32//45
f 14//46 32//46 15//46
f 16//47 33//47 20//47
f 16//48 20//48 18//48
f 16//49 34//49 33//49
f 17//50 35//50 55//50
f 17//50 55//50 34//50
f 19//51 22//51 23//51
f 20//52 33//52 36//52
f 20//53 36//53 37//53
f 20//54 37//54 21//54
f 21//55 37//55 38//55
f 21//56 38//56 39//56
f 21//57 39//57 22//57
f 22//58 40//58 23//58
f 22//59 39//59 41//59
f 22//60 41//60 42//60
f 22//61 42//61 40//61
f 23//62 40//62 43//62
f 23//63 43//63 24//63
f 24//64 43//64 44//64
f 24//65 44//65 45//65
f 24//66 45//66 25//66
f 25//67 45//67 46//67
f 25//68 46//68 26//68
f 26//69 46//69 47//69
f 26//70 47//70 27//70
f 27//71 47//71 48//71
f 27//72 48//72 28//72
f 28//73 48//73 49//73
f 28//74 49//74 29//74
f 29//75 49//75 50//75
f 30//76 51//76 31//76
f 31//77 52//77 53//77
f 31//78 51//78 52//78
f 33//79 34//79 54//79
f 33//80 54//80 36//80
f 34//81 55//81 56//81
f 34//82 56//82 54//82
f 35//83 57//83 55//83
f 36//84 54//84 37//84
f 37//85 54//85 38//85
f 38//86 58//86 41//86
f 38//87 41//87 39//87
f 38//88 54//88 59//88
f 38//89 59//89 60//89
f 38//90 60//90 58//90
f 40//91 42//91 61//91
f 40//92 61//92 43//92
f 41//93 58//93 62//93
f 41//94 62//94 42//94
f 42//95 62//95 63//95
f 42//96 63//96 61//96
f 43//97 61//97 64//97
f 43//98 64//98 44//98
f 44//99 64//99 65//99
f 44//100 65//100 45//100
f 45//101 65//101 66//101
f 45//102 66//102 67//102
f 45//103 67//103 46//103
f 46//104 67//104 47//104
f 47//105 67//105 68//105
f 47//106 68//106 69//106
f 47//107 69//107 70//107
f 47//108 70//108 71//108
f 47//109 71//109 48//109
f 48//110 71//110 49//110
f 49//111 71//111 72//111
f 49//112 72//112 50//112
f 50//113 72//113 73//113
f 52//114 74//114 53//114
f 53//115 74//115 75//115
f 53//116 75//116 76//116
f 53//117 76//117 77//117
f 54//118 56//118 59//118
f 55//119 57//119 78//119
f 55//120 78//120 79//120
f 55//121 79//121 56//121
f 56//122 80//122 59//122
f 56//123 79//123 81//123
f 56//124 81//124 80//124
f 57//125 82//125 106//125
f 57//125 106//125 73//125
f 57//125 73//125 105//125
f 57//126 105//126 104//126
f 57//125 104//125 103//125
f 57//125 103//125 126//125
f 57//125 126//125 125//125
f 57//125 125//125 100//125
f 57//125 100//125 99//125
f 57//125 99//125 97//125
f 57//125 97//125 96//125
f 57//125 96//125 95//125
f 57//125 95//125 94//125
f 57//125 94//125 93//125
f 57//126 93//126 92//126
f 57//125 92//125 124//125
f 57//125 124//125 123//125
f 57//125 123//125 122//125
f 57//125 122//125 121//125
f 57//125 121//125 131//125
f 57//125 131//125 130//125
f 57//125 130//125 120//125
f 57//125 120//125 119//125
f 57//127 119//127 118//127
f 57//125 118//125 117//125
f 57//125 117//125 113//125
f 57//125 113//125 112//125
f 57//125 112//125 111//125
f 57//126 111//126 110//126
f 57//125 110//125 85//125
f 57//125 85//125 81//125
f 57//125 81//125 79//125
f 57//125 79//125 78//125
f 58//128 60//128 83//128
f 58//129 83//129 84//129
f 58//130 84//130 62//130
f 59//131 80//131 60//131
f 60//132 80//132 85//132
f 60//133 85//133 83//133
f 61//134 63//134 64//134
f 62//135 86//135 63//135
f 62//136 84//136 87//136
f 62//137 87//137 88//137
f 62//138 88//138 86//138
f 63//139 86//139 64//139
f 64//140 86//140 89//140
f 64//141 89//141 90//141
f 64//142 90//142 91//142
f 64//143 91//143 65//143
f 65//144 91//144 92//144
f 65//145 92//145 93//145
f 65//146 93//146 94//146
f 65//147 94//147 66//147
f 66//148 94//148 67//148
f 67//149 94//149 95//149
f 67//150 95//150 68//150
f 68//151 95//151 69//151
f 69//152 95//152 96//152
f 69//153 96//153 97//153
f 69//154 97//154 70//154
f 70//155 98//155 71//155
f 70//156 97//156 99//156
f 70//157 99//157 100//157
f 70//158 100//158 98//158
f 71//159 98//159 101//159
f 71//160 101//160 102//160
f 71//161 102//161 72//161
f 72//162 102//162 103//162
f 72//163 103//163 104//163
f 72//164 104//164 105//164
f 72//165 105//165 73//165
f 75//166 107//166 76//166
f 76//167 107//167 108//167
f 76//168 108//168 77//168
f 80//169 81//169 85//169
f 82//170 109//170 127//170
f 82//170 127//170 106//170
f 83//171 85//171 110//171
f 83//172 110//172 111//172
f 83//173 111//173 84//173
f 84//174 111//174 112//174
f 84//175 112//175 113//175
f 84//176 113//176 87//176
f 86//177 88//177 114//177
f 86//178 114//178 115//178
f 86//179 115//179 116//179
f 86//180 116//180 89//180
f 87//181 113//181 117//181
f 87//182 117//182 88//182
f 88//183 117//183 118//183
f 88//184 118//184 119//184
f 88//185 119//185 120//185
f 88//186 120//186 114//186
f 89//187 116//187 121//187
f 89//188 121//188 122//188
f 89//189 122//189 123//189
f 89//190 123//190 90//190
f 90//191 123//191 124//191
f 90//192 124//192 91//192
f 91//193 124//193 92//193
f 98//194 100//194 101//194
f 100//195 125//195 101//195
f 101//196 125//196 102//196
f 102//197 125//197 126//197
f 102//198 126//198 103//198
f 107//199 128//199 108//199
f 108//200 128//200 109//200
f 109//201 129//201 127//201
f 109//202 128//202 129//202
f 114//203 120//203 130//203
f 114//204 130//204 131//204
f 114//205 131//205 115//205
f 115//206 131//206 121//206
f 115//207 121//207 116//207
