# Blender 4.4.3
# www.blender.org
o socket8mm_collision_geom_5
v -0.097636 0.022840 -0.038881
v -0.097480 0.022840 -0.038881
v -0.097636 0.022840 -0.036051
v -0.097636 0.036070 -0.038695
v -0.097198 0.022840 -0.038871
v -0.097480 0.036070 -0.038695
v -0.095720 0.022840 -0.035429
v -0.097636 0.028103 -0.036051
v -0.097636 0.036225 -0.038690
v -0.097148 0.022840 -0.038869
v -0.097480 0.036401 -0.038685
v -0.097148 0.036401 -0.038672
v -0.097148 0.036070 -0.038683
v -0.092141 0.022840 -0.035429
v -0.095720 0.028103 -0.035429
v -0.097636 0.028435 -0.036051
v -0.097636 0.036401 -0.038685
v -0.096867 0.022840 -0.038835
v -0.097636 0.036522 -0.038618
v -0.097480 0.036658 -0.038543
v -0.097148 0.036658 -0.038537
v -0.096817 0.036401 -0.038634
v -0.096817 0.036658 -0.038520
v -0.096485 0.036652 -0.038496
v -0.096817 0.036070 -0.038640
v -0.092230 0.022840 -0.035605
v -0.092340 0.036401 -0.035429
v -0.095714 0.028435 -0.035429
v -0.095228 0.036070 -0.035429
v -0.097636 0.036070 -0.036428
v -0.096821 0.022840 -0.038829
v -0.097636 0.036658 -0.038543
v -0.097636 0.036701 -0.038404
v -0.096817 0.036751 -0.038247
v -0.096485 0.036401 -0.038580
v -0.096153 0.036627 -0.038463
v -0.096485 0.036744 -0.038247
v -0.096153 0.036718 -0.038247
v -0.092240 0.022840 -0.035622
v -0.092434 0.036401 -0.035591
v -0.092621 0.036616 -0.035837
v -0.092345 0.036410 -0.035429
v -0.095201 0.036143 -0.035429
v -0.095114 0.036308 -0.035429
v -0.097636 0.036089 -0.036437
v -0.096559 0.022840 -0.038782
v -0.097636 0.036751 -0.038247
v -0.095820 0.036751 -0.037915
v -0.095933 0.036594 -0.038432
v -0.096153 0.036401 -0.038512
v -0.096126 0.022840 -0.038697
v -0.096180 0.022840 -0.038708
v -0.095489 0.036652 -0.038181
v -0.095489 0.036744 -0.037915
v -0.092414 0.022840 -0.035925
v -0.092598 0.036401 -0.035876
v -0.092991 0.036576 -0.036430
v -0.092927 0.036620 -0.036255
v -0.092814 0.036669 -0.035938
v -0.092551 0.036648 -0.035591
v -0.092698 0.036401 -0.036042
v -0.092506 0.036662 -0.035429
v -0.094825 0.036414 -0.035429
v -0.097636 0.036337 -0.036589
v -0.093165 0.036734 -0.035429
v -0.093165 0.036744 -0.035591
v -0.092833 0.036745 -0.035429
v -0.093165 0.036751 -0.035923
v -0.097636 0.036725 -0.037915
v -0.095157 0.036751 -0.037583
v -0.095214 0.036620 -0.038130
v -0.095159 0.036401 -0.038155
v -0.095489 0.036401 -0.038286
v -0.095906 0.036401 -0.038442
v -0.095820 0.022840 -0.038608
v -0.094825 0.036648 -0.037865
v -0.095124 0.036672 -0.037947
v -0.094493 0.036751 -0.037251
v -0.094825 0.036740 -0.037583
v -0.092428 0.022840 -0.035948
v -0.093306 0.036595 -0.036784
v -0.092852 0.036401 -0.036255
v -0.092987 0.036401 -0.036435
v -0.093127 0.036401 -0.036601
v -0.093293 0.036401 -0.036799
v -0.093183 0.036627 -0.036559
v -0.093165 0.036711 -0.036255
v -0.092833 0.036740 -0.035591
v -0.092601 0.022840 -0.036232
v -0.092625 0.022840 -0.036266
v -0.097636 0.036405 -0.036730
v -0.093497 0.036684 -0.035429
v -0.097636 0.036692 -0.037759
v -0.097636 0.036654 -0.037583
v -0.097636 0.036514 -0.037056
v -0.097636 0.036475 -0.036919
v -0.093497 0.036726 -0.036587
v -0.094579 0.036616 -0.037795
v -0.094993 0.036401 -0.038079
v -0.095145 0.022840 -0.038353
v -0.095174 0.022840 -0.038365
v -0.095486 0.022840 -0.038485
v -0.094478 0.036669 -0.037603
v -0.093829 0.036726 -0.036919
v -0.094161 0.036711 -0.037251
v -0.093633 0.036595 -0.037111
v -0.093512 0.036637 -0.036904
v -0.093451 0.036401 -0.036965
v -0.092704 0.022840 -0.036371
v -0.092856 0.022840 -0.036566
v -0.092883 0.022840 -0.036599
v -0.093162 0.022840 -0.036926
v -0.093176 0.022840 -0.036942
v -0.093316 0.022840 -0.037100
v -0.094161 0.036620 -0.037489
v -0.093986 0.036578 -0.037425
v -0.094373 0.036401 -0.037718
v -0.094540 0.036401 -0.037818
v -0.094812 0.022840 -0.038186
v -0.093857 0.036627 -0.037233
v -0.093618 0.036401 -0.037124
v -0.093490 0.022840 -0.037254
v -0.093815 0.036401 -0.037289
v -0.093981 0.036401 -0.037429
v -0.094161 0.036401 -0.037564
v -0.094185 0.022840 -0.037815
v -0.094492 0.022840 -0.038001
v -0.094515 0.022840 -0.038015
v -0.093850 0.022840 -0.037560
v -0.093891 0.022840 -0.037593
v -0.094045 0.022840 -0.037711
vn -0.0000 -1.0000 -0.0006
vn -0.0000 -1.0000 -0.0009
vn -0.0000 -1.0000 -0.0001
vn -0.0000 -1.0000 0.0008
vn -0.0000 -1.0000 -0.0000
vn -0.0000 -1.0000 0.0001
vn -0.0000 -1.0000 0.0004
vn -0.0000 -1.0000 -0.0004
vn -1.0000 -0.0000 -0.0000
vn -0.0000 0.0140 -0.9999
vn 0.0336 0.0140 -0.9993
vn -0.3086 -0.0000 0.9512
vn -0.0000 0.0327 -0.9995
vn 0.0377 0.0326 -0.9988
vn 0.0386 0.0316 -0.9988
vn 0.0387 0.0141 -0.9992
vn -0.0000 -0.0000 1.0000
vn -0.0001 -0.0000 1.0000
vn -0.0008 -0.0000 1.0000
vn -0.3086 0.0010 0.9512
vn 0.1214 0.0140 -0.9925
vn -0.0000 0.4796 -0.8775
vn 0.0016 0.4811 -0.8767
vn 0.0161 0.4811 -0.8765
vn 0.0334 0.4638 -0.8853
vn 0.1142 0.0314 -0.9930
vn 0.0460 0.4635 -0.8849
vn 0.0720 0.4369 -0.8966
vn 0.1064 0.3659 -0.9246
vn 0.1262 0.0192 -0.9918
vn 0.1263 0.0141 -0.9919
vn 0.8925 0.0131 -0.4508
vn -0.3079 0.0050 0.9514
vn -0.3079 0.0196 0.9512
vn -0.3827 0.0455 0.9228
vn 0.1318 0.0141 -0.9912
vn -0.0000 0.4825 -0.8759
vn -0.0000 0.9542 -0.2993
vn 0.0004 0.9543 -0.2990
vn 0.0057 0.9508 -0.3098
vn 0.0167 0.9469 -0.3211
vn 0.1588 0.0191 -0.9871
vn 0.1209 0.3493 -0.9292
vn 0.1528 0.2713 -0.9503
vn 0.0194 0.9468 -0.3211
vn 0.0403 0.9382 -0.3437
vn 0.0730 0.9365 -0.3431
vn 0.1104 0.9153 -0.3873
vn 0.1638 0.0140 -0.9864
vn 0.8755 0.0134 -0.4830
vn 0.8661 0.0135 -0.4998
vn 0.8520 0.1800 -0.4917
vn 0.8433 0.3804 -0.3796
vn -0.3793 0.1388 0.9148
vn -0.3770 0.1981 0.9048
vn -0.3688 0.4134 0.8325
vn 0.1765 0.0137 -0.9842
vn -0.0000 0.9548 -0.2972
vn -0.0000 1.0000 -0.0000
vn -0.0000 1.0000 0.0001
vn 0.0205 0.9979 -0.0613
vn 0.0205 0.9979 -0.0614
vn 0.1677 0.2512 -0.9533
vn 0.1995 0.1694 -0.9651
vn 0.2024 0.0138 -0.9792
vn 0.1970 0.0137 -0.9803
vn 0.1909 0.0135 -0.9815
vn 0.1284 0.9133 -0.3865
vn 0.1953 0.8215 -0.5358
vn 0.0757 0.9709 -0.2270
vn 0.1244 0.9385 -0.3220
vn 0.8659 0.0135 -0.5000
vn 0.8660 0.0135 -0.4998
vn 0.8520 0.1798 -0.4917
vn 0.5320 0.7557 -0.3819
vn 0.3867 0.8805 -0.2743
vn 0.3671 0.9025 -0.2254
vn 0.8131 0.4991 -0.2996
vn 0.8438 0.1813 -0.5051
vn 0.8234 0.2098 -0.5272
vn 0.8113 0.5214 -0.2644
vn -0.2730 0.7424 0.6118
vn -0.3604 0.4870 0.7956
vn -0.0333 0.9977 0.0586
vn -0.0298 0.9982 0.0528
vn -0.0088 0.9998 0.0169
vn -0.0453 0.9960 0.0776
vn 0.0205 0.9990 -0.0410
vn 0.1959 0.8208 -0.5366
vn 0.3738 0.1956 -0.9067
vn 0.3643 0.1370 -0.9211
vn 0.3500 0.0959 -0.9318
vn 0.2703 0.0862 -0.9589
vn 0.2713 0.0137 -0.9624
vn 0.2817 0.0135 -0.9594
vn 0.1742 0.9187 -0.3545
vn 0.1566 0.9342 -0.3205
vn 0.1618 0.9306 -0.3284
vn 0.0205 0.9989 -0.0410
vn 0.0450 0.9960 -0.0777
vn 0.1576 0.9397 -0.3035
vn 0.1578 0.9368 -0.3122
vn 0.8574 0.0135 -0.5145
vn 0.8579 0.0135 -0.5136
vn 0.4632 0.8057 -0.3692
vn 0.8080 0.0524 -0.5869
vn 0.7997 0.0332 -0.5995
vn 0.7654 0.0336 -0.6427
vn 0.7650 0.0344 -0.6432
vn 0.7454 0.1010 -0.6589
vn 0.4509 0.8164 -0.3609
vn 0.3443 0.8994 -0.2695
vn 0.3450 0.9011 -0.2626
vn 0.2737 0.9452 -0.1778
vn 0.3027 0.9370 -0.1745
vn 0.3034 0.9391 -0.1613
vn 0.8550 0.0134 -0.5185
vn 0.8095 0.0140 -0.5870
vn 0.8090 0.0140 -0.5876
vn 0.2464 0.9686 -0.0326
vn -0.1996 0.8831 0.4247
vn -0.1833 0.9028 0.3892
vn -0.0327 0.9977 0.0587
vn -0.1157 0.9720 0.2043
vn -0.1185 0.9706 0.2097
vn -0.1399 0.9569 0.2546
vn -0.1437 0.9533 0.2655
vn -0.1446 0.9523 0.2686
vn 0.0661 0.9972 -0.0334
vn 0.1370 0.9850 -0.1049
vn 0.0734 0.9946 -0.0734
vn 0.2434 0.8594 -0.4496
vn 0.4532 0.2573 -0.8535
vn 0.4070 0.2021 -0.8908
vn 0.4155 0.0137 -0.9095
vn 0.3713 0.0139 -0.9284
vn 0.3678 0.0140 -0.9298
vn 0.3588 0.0138 -0.9333
vn 0.3516 0.0138 -0.9360
vn 0.3447 0.0136 -0.9386
vn 0.1742 0.9371 -0.3026
vn 0.2256 0.9021 -0.3678
vn 0.0735 0.9946 -0.0735
vn 0.1051 0.9849 -0.1375
vn 0.1282 0.9767 -0.1723
vn 0.1775 0.9453 -0.2736
vn 0.4031 0.8219 -0.4026
vn 0.3669 0.8725 -0.3228
vn 0.7190 0.1014 -0.6876
vn 0.7018 0.1266 -0.7010
vn 0.8001 0.0139 -0.5998
vn 0.7990 0.0138 -0.6011
vn 0.7903 0.0136 -0.6126
vn 0.7657 0.0137 -0.6430
vn 0.7653 0.0136 -0.6435
vn 0.7635 0.0135 -0.6456
vn 0.7612 0.0134 -0.6484
vn 0.7506 0.0135 -0.6606
vn 0.7470 0.0135 -0.6647
vn 0.7226 0.0141 -0.6911
vn 0.3135 0.9102 -0.2707
vn 0.3107 0.9116 -0.2693
vn 0.1727 0.9765 -0.1285
vn -0.1711 0.9224 0.3463
vn 0.2708 0.9237 -0.2709
vn 0.2746 0.8801 -0.3874
vn 0.3759 0.7639 -0.5245
vn 0.5267 0.2106 -0.8236
vn 0.5056 0.1836 -0.8430
vn 0.4913 0.1819 -0.8518
vn 0.4996 0.0135 -0.8662
vn 0.4489 0.0130 -0.8935
vn 0.2627 0.9011 -0.3451
vn 0.2693 0.9116 -0.3105
vn 0.2708 0.9101 -0.3137
vn 0.2696 0.8993 -0.3444
vn 0.3619 0.8149 -0.4527
vn 0.3591 0.8184 -0.4487
vn 0.3216 0.8734 -0.3656
vn 0.6881 0.1006 -0.7186
vn 0.6585 0.1002 -0.7459
vn 0.6916 0.0141 -0.7222
vn 0.6638 0.0134 -0.7478
vn 0.6432 0.0360 -0.7648
vn 0.6427 0.0351 -0.7653
vn 0.5997 0.0347 -0.7995
vn 0.5862 0.0550 -0.8083
vn 0.5870 0.0140 -0.8095
vn 0.5177 0.0133 -0.8555
vn 0.5143 0.0134 -0.8575
vn 0.5047 0.0134 -0.8632
vn 0.4997 0.0135 -0.8661
vn 0.6478 0.0134 -0.7617
vn 0.6436 0.0136 -0.7653
vn 0.6430 0.0136 -0.7658
vn 0.6205 0.0136 -0.7841
vn 0.6094 0.0136 -0.7927
vn 0.6000 0.0138 -0.7999
vn 0.5972 0.0138 -0.8020
s 0
f 1//1 2//1 5//1
f 1//2 5//2 10//2
f 1//3 10//3 18//3
f 1//4 18//4 31//4
f 1//5 31//5 46//5
f 1//6 46//6 52//6
f 1//5 52//5 51//5
f 1//3 51//3 75//3
f 1//5 75//5 102//5
f 1//5 102//5 101//5
f 1//7 101//7 100//7
f 1//5 100//5 119//5
f 1//5 119//5 128//5
f 1//5 128//5 127//5
f 1//5 127//5 126//5
f 1//5 126//5 131//5
f 1//5 131//5 130//5
f 1//6 130//6 129//6
f 1//5 129//5 122//5
f 1//5 122//5 114//5
f 1//5 114//5 113//5
f 1//5 113//5 112//5
f 1//5 112//5 111//5
f 1//5 111//5 110//5
f 1//5 110//5 109//5
f 1//5 109//5 90//5
f 1//5 90//5 89//5
f 1//5 89//5 80//5
f 1//5 80//5 55//5
f 1//5 55//5 39//5
f 1//8 39//8 26//8
f 1//5 26//5 14//5
f 1//5 14//5 7//5
f 1//5 7//5 3//5
f 1//9 3//9 8//9
f 1//9 8//9 16//9
f 1//9 16//9 30//9
f 1//9 30//9 45//9
f 1//9 45//9 64//9
f 1//9 64//9 91//9
f 1//9 91//9 96//9
f 1//9 96//9 95//9
f 1//9 95//9 94//9
f 1//9 94//9 93//9
f 1//9 93//9 69//9
f 1//9 69//9 47//9
f 1//9 47//9 33//9
f 1//9 33//9 32//9
f 1//9 32//9 19//9
f 1//9 19//9 17//9
f 1//9 17//9 9//9
f 1//9 9//9 4//9
f 1//10 4//10 6//10
f 1//10 6//10 2//10
f 2//11 6//11 5//11
f 3//12 7//12 15//12
f 3//12 15//12 8//12
f 4//13 9//13 6//13
f 5//11 6//11 10//11
f 6//13 9//13 11//13
f 6//14 11//14 12//14
f 6//15 12//15 13//15
f 6//16 13//16 10//16
f 7//17 14//17 27//17
f 7//18 27//18 42//18
f 7//17 42//17 62//17
f 7//17 62//17 67//17
f 7//17 67//17 65//17
f 7//17 65//17 92//17
f 7//17 92//17 63//17
f 7//17 63//17 44//17
f 7//17 44//17 43//17
f 7//17 43//17 29//17
f 7//17 29//17 28//17
f 7//19 28//19 15//19
f 8//20 15//20 16//20
f 9//13 17//13 11//13
f 10//21 13//21 18//21
f 11//22 17//22 19//22
f 11//23 19//23 20//23
f 11//24 20//24 21//24
f 11//25 21//25 12//25
f 12//26 22//26 13//26
f 12//27 21//27 23//27
f 12//28 23//28 24//28
f 12//29 24//29 22//29
f 13//30 22//30 25//30
f 13//31 25//31 18//31
f 14//32 26//32 27//32
f 15//33 28//33 16//33
f 16//34 28//34 29//34
f 16//35 29//35 30//35
f 18//36 25//36 31//36
f 19//37 32//37 20//37
f 20//38 32//38 33//38
f 20//39 33//39 34//39
f 20//40 34//40 21//40
f 21//41 34//41 23//41
f 22//42 35//42 25//42
f 22//43 24//43 36//43
f 22//44 36//44 35//44
f 23//45 34//45 37//45
f 23//46 37//46 24//46
f 24//47 37//47 38//47
f 24//48 38//48 36//48
f 25//49 35//49 31//49
f 26//50 39//50 27//50
f 27//51 39//51 40//51
f 27//52 40//52 41//52
f 27//53 41//53 42//53
f 29//54 43//54 30//54
f 30//55 43//55 44//55
f 30//56 44//56 45//56
f 31//57 35//57 46//57
f 33//58 47//58 34//58
f 34//59 47//59 68//59
f 34//59 68//59 78//59
f 34//60 78//60 70//60
f 34//59 70//59 48//59
f 34//61 48//61 54//61
f 34//62 54//62 37//62
f 35//63 36//63 49//63
f 35//64 49//64 50//64
f 35//65 50//65 51//65
f 35//66 51//66 52//66
f 35//67 52//67 46//67
f 36//68 38//68 53//68
f 36//69 53//69 49//69
f 37//70 54//70 38//70
f 38//71 54//71 53//71
f 39//72 55//72 56//72
f 39//73 56//73 40//73
f 40//74 56//74 41//74
f 41//75 57//75 58//75
f 41//76 58//76 59//76
f 41//77 59//77 60//77
f 41//78 60//78 42//78
f 41//79 56//79 61//79
f 41//80 61//80 57//80
f 42//81 60//81 62//81
f 44//82 63//82 64//82
f 44//83 64//83 45//83
f 47//84 65//84 66//84
f 47//85 66//85 67//85
f 47//86 67//86 68//86
f 47//87 69//87 65//87
f 48//88 70//88 54//88
f 49//89 53//89 71//89
f 49//90 71//90 72//90
f 49//91 72//91 73//91
f 49//92 73//92 74//92
f 49//93 74//93 50//93
f 50//94 74//94 51//94
f 51//95 74//95 75//95
f 53//96 76//96 71//96
f 53//97 54//97 77//97
f 53//98 77//98 76//98
f 54//99 70//99 78//99
f 54//100 78//100 79//100
f 54//101 79//101 76//101
f 54//102 76//102 77//102
f 55//103 80//103 61//103
f 55//104 61//104 56//104
f 57//105 81//105 58//105
f 57//106 61//106 82//106
f 57//107 82//107 83//107
f 57//108 83//108 84//108
f 57//109 84//109 85//109
f 57//110 85//110 81//110
f 58//111 81//111 86//111
f 58//112 86//112 87//112
f 58//113 87//113 59//113
f 59//114 87//114 88//114
f 59//115 88//115 60//115
f 60//116 88//116 62//116
f 61//117 80//117 89//117
f 61//118 89//118 90//118
f 61//119 90//119 82//119
f 62//120 88//120 67//120
f 63//121 91//121 64//121
f 63//122 92//122 91//122
f 65//123 67//123 66//123
f 65//124 69//124 93//124
f 65//125 93//125 94//125
f 65//126 94//126 95//126
f 65//127 95//127 96//127
f 65//128 96//128 92//128
f 67//129 88//129 68//129
f 68//130 88//130 97//130
f 68//131 97//131 78//131
f 71//132 76//132 98//132
f 71//133 98//133 99//133
f 71//134 99//134 72//134
f 72//135 99//135 100//135
f 72//136 100//136 101//136
f 72//137 101//137 73//137
f 73//138 101//138 102//138
f 73//139 102//139 74//139
f 74//140 102//140 75//140
f 76//141 79//141 103//141
f 76//142 103//142 98//142
f 78//143 97//143 104//143
f 78//144 104//144 79//144
f 79//145 104//145 105//145
f 79//146 105//146 103//146
f 81//147 106//147 107//147
f 81//148 107//148 86//148
f 81//149 85//149 108//149
f 81//150 108//150 106//150
f 82//151 90//151 83//151
f 83//152 90//152 109//152
f 83//153 109//153 110//153
f 83//154 110//154 84//154
f 84//155 110//155 85//155
f 85//156 110//156 111//156
f 85//157 111//157 112//157
f 85//158 112//158 113//158
f 85//159 113//159 114//159
f 85//160 114//160 108//160
f 86//161 107//161 87//161
f 87//162 107//162 97//162
f 87//163 97//163 88//163
f 91//164 92//164 96//164
f 97//165 107//165 104//165
f 98//166 103//166 115//166
f 98//167 115//167 116//167
f 98//168 116//168 117//168
f 98//169 117//169 118//169
f 98//170 118//170 99//170
f 99//171 118//171 119//171
f 99//172 119//172 100//172
f 103//173 105//173 115//173
f 104//174 107//174 105//174
f 105//175 107//175 120//175
f 105//176 120//176 115//176
f 106//177 116//177 115//177
f 106//178 115//178 120//178
f 106//179 120//179 107//179
f 106//180 108//180 121//180
f 106//181 121//181 116//181
f 108//182 114//182 121//182
f 114//183 122//183 121//183
f 116//184 121//184 123//184
f 116//185 123//185 124//185
f 116//186 124//186 125//186
f 116//187 125//187 117//187
f 117//188 125//188 126//188
f 117//189 126//189 127//189
f 117//190 127//190 118//190
f 118//191 127//191 128//191
f 118//192 128//192 119//192
f 121//193 122//193 129//193
f 121//194 129//194 123//194
f 123//195 129//195 124//195
f 124//196 129//196 130//196
f 124//197 130//197 131//197
f 124//198 131//198 125//198
f 125//199 131//199 126//199
