# Blender 4.4.3
# www.blender.org
o socket10mm_collision_geom_0
v -0.052753 0.022759 -0.029857
v -0.051558 0.022759 -0.032770
v -0.049549 0.022759 -0.029857
v -0.052753 0.027396 -0.029857
v -0.048901 0.022759 -0.032770
v -0.051558 0.027438 -0.032770
v -0.049490 0.022759 -0.029975
v -0.049654 0.036401 -0.029857
v -0.052752 0.027438 -0.029857
v -0.048901 0.022759 -0.032603
v -0.049001 0.036401 -0.032770
v -0.051092 0.036070 -0.032770
v -0.049488 0.022759 -0.029980
v -0.049478 0.036401 -0.030279
v -0.049612 0.036401 -0.029947
v -0.049694 0.036609 -0.029857
v -0.052086 0.036070 -0.029857
v -0.051084 0.036229 -0.032770
v -0.048907 0.022759 -0.032271
v -0.049001 0.036401 -0.032603
v -0.049035 0.036616 -0.032770
v -0.049367 0.022759 -0.030289
v -0.049348 0.036401 -0.030629
v -0.049366 0.036611 -0.030679
v -0.049673 0.036629 -0.029947
v -0.049737 0.036634 -0.029857
v -0.052055 0.036214 -0.029857
v -0.051077 0.036256 -0.032770
v -0.048942 0.022759 -0.031939
v -0.049008 0.036401 -0.032271
v -0.049035 0.036616 -0.032603
v -0.049039 0.036612 -0.032271
v -0.049135 0.036661 -0.032770
v -0.049260 0.022759 -0.030579
v -0.049242 0.036070 -0.030943
v -0.049245 0.036401 -0.030943
v -0.049248 0.022759 -0.030613
v -0.049052 0.036594 -0.031999
v -0.049325 0.036645 -0.030943
v -0.049607 0.036659 -0.030279
v -0.049900 0.036719 -0.029947
v -0.049899 0.036700 -0.029857
v -0.052009 0.036286 -0.029857
v -0.050900 0.036375 -0.032770
v -0.049003 0.022759 -0.031592
v -0.049042 0.036401 -0.031946
v -0.049236 0.036707 -0.032603
v -0.049236 0.036703 -0.032271
v -0.049289 0.036659 -0.031275
v -0.049236 0.036707 -0.032770
v -0.049160 0.036070 -0.031275
v -0.049134 0.022759 -0.030961
v -0.049130 0.022759 -0.030975
v -0.049168 0.036401 -0.031275
v -0.049072 0.036401 -0.031780
v -0.049568 0.036737 -0.030943
v -0.049900 0.036751 -0.030279
v -0.049990 0.036727 -0.029857
v -0.051951 0.036318 -0.029857
v -0.050575 0.036523 -0.032770
v -0.049012 0.022759 -0.031540
v -0.049568 0.036751 -0.031275
v -0.049568 0.036749 -0.032770
v -0.049568 0.036751 -0.031607
v -0.049060 0.022759 -0.031275
v -0.050232 0.036748 -0.029947
v -0.050232 0.036748 -0.029857
v -0.051650 0.036451 -0.029857
v -0.051379 0.036544 -0.029857
v -0.050493 0.036548 -0.032770
v -0.050564 0.036722 -0.029857
v -0.050322 0.036745 -0.029857
v -0.049900 0.036705 -0.032770
v -0.050992 0.036634 -0.029857
v -0.050232 0.036618 -0.032770
v -0.050654 0.036708 -0.029857
v -0.050896 0.036656 -0.029857
vn -0.0000 -1.0000 -0.0000
vn -0.0000 -1.0000 -0.0001
vn -0.0000 -1.0000 0.0002
vn -0.0000 -1.0000 0.0004
vn -0.0000 -0.0000 1.0000
vn 0.0001 -0.0000 1.0000
vn 0.0058 -0.0000 1.0000
vn -0.9252 -0.0000 -0.3795
vn -0.0000 -0.0000 -1.0000
vn -0.0006 -0.0000 -1.0000
vn 0.8949 0.0069 0.4461
vn -0.9252 0.0081 -0.3793
vn 1.0000 0.0073 -0.0000
vn -0.9241 0.0498 -0.3789
vn 0.9290 0.0074 0.3700
vn 0.9274 0.0075 0.3739
vn 0.9030 0.0072 0.4296
vn 0.8900 0.1692 0.4234
vn -0.9443 0.0729 -0.3209
vn -0.9247 0.0504 -0.3774
vn 0.9998 0.0073 0.0171
vn 0.9872 0.1593 -0.0000
vn 0.9872 0.1592 -0.0000
vn 0.9308 0.0073 0.3654
vn 0.9256 0.1606 0.3428
vn 0.9084 0.2080 0.3628
vn 0.9085 0.2011 0.3663
vn 0.9377 0.0074 0.3473
vn 0.7490 0.5909 0.2997
vn 0.4795 0.8288 0.2884
vn -0.9298 0.1999 -0.3090
vn -0.9238 0.2291 -0.3069
vn 0.9998 0.0074 0.0204
vn 0.9946 0.0073 0.1039
vn 0.9872 0.1593 0.0121
vn 0.9890 0.1467 0.0202
vn 0.4148 0.9099 -0.0000
vn 0.9383 0.0073 0.3457
vn 0.9496 0.0076 0.3135
vn 0.9383 0.1540 0.3098
vn 0.9405 0.0073 0.3398
vn 0.9495 0.0074 0.3137
vn 0.8530 0.4831 0.1974
vn 0.4979 0.8466 0.1883
vn 0.9382 0.2668 0.2204
vn 0.4345 0.8851 0.1667
vn 0.3655 0.9176 0.1560
vn 0.3634 0.9122 0.1893
vn 0.3679 0.9071 0.2047
vn -0.8162 0.5127 -0.2665
vn -0.5493 0.8151 -0.1842
vn 0.9943 0.0074 0.1061
vn 0.9848 0.0074 0.1733
vn 0.9876 0.1465 0.0561
vn 0.9914 0.0774 0.1058
vn 0.4109 0.9117 0.0028
vn 0.4109 0.9116 0.0113
vn 0.4167 0.9089 0.0155
vn 0.4160 0.9072 0.0622
vn 0.4798 0.8737 0.0798
vn 0.4071 0.9134 -0.0000
vn 0.9709 0.0077 0.2393
vn 0.9501 0.0073 0.3119
vn 0.9631 0.0075 0.2692
vn 0.9709 0.0076 0.2393
vn 0.9742 0.0233 0.2246
vn 0.9444 0.2462 0.2178
vn 0.5048 0.8586 0.0893
vn 0.9766 0.1081 0.1861
vn 0.9797 0.0961 0.1758
vn 0.3515 0.9331 0.0760
vn 0.3496 0.9279 0.1297
vn 0.3385 0.9320 0.1295
vn 0.2241 0.9702 0.0920
vn 0.1823 0.9788 0.0929
vn 0.2820 0.9391 0.1964
vn -0.4713 0.8686 -0.1529
vn -0.4104 0.9026 -0.1302
vn 0.9848 0.0074 0.1736
vn 0.9843 0.0074 0.1766
vn 0.1308 0.9914 -0.0000
vn 0.1785 0.9839 0.0122
vn 0.2587 0.9651 0.0398
vn 0.3338 0.9408 0.0592
vn 0.1268 0.9919 -0.0012
vn 0.9821 0.0235 0.1871
vn 0.9742 0.0073 0.2255
vn 0.9836 0.0074 0.1804
vn 0.9842 0.0075 0.1770
vn 0.1227 0.9916 0.0409
vn -0.0000 1.0000 -0.0000
vn -0.0047 1.0000 -0.0012
vn -0.0102 0.9999 -0.0019
vn -0.0083 1.0000 -0.0000
vn 0.0843 0.9938 0.0728
vn -0.4000 0.9080 -0.1250
vn -0.2863 0.9543 -0.0857
vn -0.3235 0.9414 -0.0959
vn -0.0956 0.9951 -0.0233
vn -0.0392 0.9992 -0.0087
vn -0.1307 0.9908 -0.0354
vn -0.0305 0.9995 -0.0000
vn -0.2276 0.9718 -0.0615
vn -0.2547 0.9640 -0.0758
vn -0.2582 0.9630 -0.0772
vn -0.1508 0.9878 -0.0399
vn -0.2099 0.9762 -0.0552
vn -0.2210 0.9735 -0.0591
s 0
f 1//1 2//1 5//1
f 1//1 5//1 10//1
f 1//1 10//1 19//1
f 1//1 19//1 29//1
f 1//1 29//1 45//1
f 1//2 45//2 61//2
f 1//1 61//1 65//1
f 1//1 65//1 53//1
f 1//3 53//3 52//3
f 1//1 52//1 37//1
f 1//1 37//1 34//1
f 1//1 34//1 22//1
f 1//1 22//1 13//1
f 1//4 13//4 7//4
f 1//1 7//1 3//1
f 1//5 3//5 8//5
f 1//5 8//5 16//5
f 1//5 16//5 26//5
f 1//5 26//5 42//5
f 1//5 42//5 58//5
f 1//5 58//5 67//5
f 1//5 67//5 72//5
f 1//5 72//5 71//5
f 1//5 71//5 76//5
f 1//5 76//5 77//5
f 1//5 77//5 74//5
f 1//5 74//5 69//5
f 1//5 69//5 68//5
f 1//5 68//5 59//5
f 1//5 59//5 43//5
f 1//5 43//5 27//5
f 1//6 27//6 17//6
f 1//5 17//5 9//5
f 1//7 9//7 4//7
f 1//8 4//8 6//8
f 1//8 6//8 2//8
f 2//9 6//9 12//9
f 2//9 12//9 18//9
f 2//10 18//10 28//10
f 2//9 28//9 44//9
f 2//9 44//9 60//9
f 2//9 60//9 70//9
f 2//9 70//9 75//9
f 2//9 75//9 73//9
f 2//9 73//9 63//9
f 2//9 63//9 50//9
f 2//9 50//9 33//9
f 2//9 33//9 21//9
f 2//9 21//9 11//9
f 2//9 11//9 5//9
f 3//11 7//11 8//11
f 4//12 9//12 6//12
f 5//13 11//13 20//13
f 5//13 20//13 10//13
f 6//14 9//14 12//14
f 7//15 13//15 14//15
f 7//16 14//16 15//16
f 7//17 15//17 8//17
f 8//18 15//18 16//18
f 9//19 17//19 18//19
f 9//20 18//20 12//20
f 10//21 20//21 19//21
f 11//22 21//22 31//22
f 11//23 31//23 20//23
f 13//24 22//24 14//24
f 14//25 23//25 24//25
f 14//26 24//26 16//26
f 14//27 16//27 15//27
f 14//28 22//28 23//28
f 16//29 24//29 25//29
f 16//30 25//30 26//30
f 17//31 27//31 18//31
f 18//32 27//32 28//32
f 19//33 20//33 30//33
f 19//34 30//34 29//34
f 20//35 31//35 32//35
f 20//36 32//36 30//36
f 21//37 33//37 31//37
f 22//38 34//38 23//38
f 23//39 35//39 36//39
f 23//40 36//40 24//40
f 23//41 34//41 37//41
f 23//42 37//42 35//42
f 24//43 38//43 39//43
f 24//44 39//44 25//44
f 24//45 36//45 38//45
f 25//46 39//46 40//46
f 25//47 40//47 41//47
f 25//48 41//48 42//48
f 25//49 42//49 26//49
f 27//50 43//50 28//50
f 28//51 43//51 44//51
f 29//52 30//52 46//52
f 29//53 46//53 45//53
f 30//54 32//54 38//54
f 30//55 38//55 46//55
f 31//56 33//56 47//56
f 31//57 47//57 48//57
f 31//58 48//58 32//58
f 32//59 48//59 49//59
f 32//60 49//60 38//60
f 33//61 50//61 47//61
f 35//62 51//62 36//62
f 35//63 37//63 52//63
f 35//64 52//64 53//64
f 35//65 53//65 51//65
f 36//66 51//66 54//66
f 36//67 54//67 38//67
f 38//68 49//68 39//68
f 38//69 54//69 55//69
f 38//70 55//70 46//70
f 39//71 49//71 56//71
f 39//72 56//72 40//72
f 40//73 56//73 41//73
f 41//74 56//74 57//74
f 41//75 57//75 58//75
f 41//76 58//76 42//76
f 43//77 59//77 44//77
f 44//78 59//78 60//78
f 45//79 46//79 61//79
f 46//80 55//80 61//80
f 47//81 50//81 64//81
f 47//81 64//81 62//81
f 47//82 62//82 48//82
f 48//83 62//83 56//83
f 48//84 56//84 49//84
f 50//85 63//85 64//85
f 51//86 55//86 54//86
f 51//87 53//87 65//87
f 51//88 65//88 61//88
f 51//89 61//89 55//89
f 56//90 62//90 57//90
f 57//91 62//91 64//91
f 57//92 64//92 63//92
f 57//93 63//93 66//93
f 57//94 66//94 67//94
f 57//95 67//95 58//95
f 59//96 68//96 60//96
f 60//97 69//97 70//97
f 60//98 68//98 69//98
f 63//99 71//99 72//99
f 63//100 72//100 66//100
f 63//101 73//101 71//101
f 66//102 72//102 67//102
f 69//103 74//103 73//103
f 69//104 73//104 75//104
f 69//105 75//105 70//105
f 71//106 73//106 76//106
f 73//107 77//107 76//107
f 73//108 74//108 77//108
