# Blender 4.4.3
# www.blender.org
o socket9mm_collision_geom_20
v -0.076676 0.020280 -0.024579
v -0.076073 0.020280 -0.024798
v -0.076246 0.020626 -0.024735
v -0.076676 0.020626 -0.024582
v -0.076676 0.004028 -0.024579
v -0.075896 0.020280 -0.024863
v -0.076073 0.004028 -0.024798
v -0.076302 0.020846 -0.024756
v -0.076073 0.020626 -0.024799
v -0.076676 0.020810 -0.024648
v -0.076676 0.003682 -0.024583
v -0.076246 0.003682 -0.024735
v -0.075550 0.020280 -0.025013
v -0.075550 0.020626 -0.025014
v -0.075896 0.020626 -0.024864
v -0.075896 0.004028 -0.024863
v -0.076588 0.020886 -0.024707
v -0.076676 0.020888 -0.024683
v -0.075352 0.020818 -0.025128
v -0.075550 0.020862 -0.025079
v -0.076676 0.023750 -0.028254
v -0.076302 0.003462 -0.024756
v -0.076676 0.003426 -0.024685
v -0.076073 0.003682 -0.024799
v -0.075340 0.020626 -0.025121
v -0.075550 0.004028 -0.025013
v -0.075896 0.003682 -0.024865
v -0.075550 0.003682 -0.025014
v -0.075328 0.020832 -0.025163
v -0.076226 0.023750 -0.028513
v -0.076232 0.023750 -0.028509
v -0.076582 0.023750 -0.028306
v -0.075328 0.020626 -0.025128
v -0.076676 0.023750 -0.028726
v -0.075352 0.003490 -0.025128
v -0.076588 0.003426 -0.024708
v -0.075550 0.003448 -0.025079
v -0.076676 0.003328 -0.024970
v -0.076588 0.003330 -0.024970
v -0.075340 0.003682 -0.025121
v -0.075328 0.020882 -0.025238
v -0.075922 0.023748 -0.028726
v -0.076081 0.023750 -0.028616
v -0.075328 0.003682 -0.025128
v -0.076134 0.023750 -0.028726
v -0.076676 0.010486 -0.028726
v -0.075328 0.003478 -0.025163
v -0.075328 0.003516 -0.025141
v -0.075896 0.003414 -0.025005
v -0.075550 0.003352 -0.025316
v -0.075328 0.003402 -0.025313
v -0.076676 0.003318 -0.025316
v -0.075896 0.003318 -0.025316
v -0.075328 0.022860 -0.028726
v -0.075909 0.023730 -0.028726
v -0.076609 0.010484 -0.028726
v -0.076676 0.004116 -0.028541
v -0.075328 0.003322 -0.025662
v -0.076676 0.003318 -0.026698
v -0.075550 0.003318 -0.025662
v -0.075328 0.010516 -0.028726
v -0.075328 0.004028 -0.028504
v -0.076676 0.004028 -0.028536
v -0.075328 0.003318 -0.026007
v -0.076242 0.003318 -0.027044
v -0.076676 0.003334 -0.027044
v -0.076588 0.003328 -0.027044
v -0.075328 0.003780 -0.028488
v -0.075328 0.003682 -0.028473
v -0.075328 0.003464 -0.028369
v -0.076676 0.003812 -0.028431
v -0.075328 0.003318 -0.027390
v -0.075550 0.003318 -0.027390
v -0.075896 0.003324 -0.027390
v -0.075328 0.003324 -0.027736
v -0.076676 0.003394 -0.027390
v -0.076242 0.003344 -0.027390
v -0.075550 0.003334 -0.027736
v -0.075801 0.003496 -0.028276
v -0.076676 0.003744 -0.028391
v -0.075328 0.003366 -0.028082
v -0.075550 0.003394 -0.028082
v -0.075908 0.003460 -0.028102
v -0.076676 0.003480 -0.027703
v -0.076031 0.003518 -0.028231
v -0.076676 0.003622 -0.028156
v -0.076676 0.003494 -0.027753
v -0.076242 0.003486 -0.027991
v -0.076676 0.003582 -0.028065
vn 0.3420 -0.0000 0.9397
vn 0.3365 0.0077 0.9416
vn -1.0000 -0.0000 -0.0000
vn -1.0000 -0.0001 -0.0000
vn 0.3430 0.0006 0.9393
vn 0.3430 -0.0000 0.9393
vn 0.3315 0.1720 0.9276
vn 0.3439 0.0016 0.9390
vn 0.3386 0.1736 0.9248
vn 0.2333 0.3290 0.9150
vn 0.3341 -0.0111 0.9425
vn 0.3974 0.0021 0.9176
vn 0.3965 0.0033 0.9180
vn 0.3468 0.0033 0.9379
vn 0.3974 -0.0000 0.9176
vn 0.3430 -0.0006 0.9393
vn 0.2166 0.6069 0.7647
vn 0.2179 0.4064 0.8873
vn 0.3414 0.1767 0.9232
vn 0.3614 0.2224 0.9055
vn 0.3160 0.5623 0.7642
vn 0.2431 0.7589 0.6041
vn 0.2119 0.7629 0.6108
vn 0.3292 -0.1715 0.9286
vn 0.2083 -0.3616 0.9088
vn 0.3386 -0.1736 0.9248
vn 0.3439 -0.0016 0.9390
vn 0.4550 0.0021 0.8905
vn 0.4577 -0.0000 0.8891
vn 0.4540 0.0635 0.8887
vn 0.3926 0.1390 0.9091
vn 0.3506 -0.0055 0.9365
vn 0.3956 -0.0054 0.9184
vn 0.3974 -0.0032 0.9176
vn 0.1805 0.7675 0.6151
vn 0.3636 0.7484 0.5547
vn 0.3388 0.7526 0.5647
vn 0.3291 0.7540 0.5684
vn 0.3171 0.7551 0.5739
vn 0.3120 0.7553 0.5764
vn 0.5011 0.0656 0.8629
vn 0.7954 0.1024 0.5974
vn -0.0000 1.0000 0.0021
vn -0.0000 1.0000 0.0051
vn -0.0000 1.0000 -0.0001
vn -0.0000 1.0000 -0.0000
vn 0.3616 -0.2191 0.9062
vn 0.3448 -0.1807 0.9211
vn 0.2064 -0.5754 0.7914
vn 0.1889 -0.8586 0.4766
vn 0.3100 -0.5884 0.7468
vn 0.0213 -0.9456 0.3247
vn 0.0893 -0.9353 0.3424
vn 0.5021 -0.0000 0.8648
vn 0.4536 -0.0032 0.8912
vn 0.3918 -0.1382 0.9096
vn 0.4527 -0.0634 0.8894
vn 1.0000 -0.0000 -0.0000
vn 1.0000 0.0022 -0.0000
vn 0.5968 0.6668 0.4464
vn 0.3868 0.7441 0.5446
vn 0.3226 0.8316 0.4521
vn -0.0000 -0.0000 -1.0000
vn 0.2953 -0.8210 0.4886
vn 0.6980 -0.3674 0.6146
vn 0.5004 -0.0655 0.8633
vn 0.1861 -0.8636 0.4686
vn 0.1301 -0.9311 0.3409
vn 0.1698 -0.9132 0.3705
vn 0.2000 -0.9079 0.3683
vn 0.2793 -0.8567 0.4336
vn -0.0000 -0.9996 0.0289
vn 0.0224 -0.9966 0.0794
vn 0.0953 -0.9698 0.2243
vn 0.1301 -0.9348 0.3306
vn 0.5009 -0.0654 0.8631
vn 0.7930 0.5299 0.3005
vn 0.7796 0.5425 0.3130
vn 0.0094 0.9999 -0.0045
vn -0.0009 -0.0290 -0.9996
vn 0.0968 -0.9843 0.1476
vn 0.2117 -0.9525 0.2188
vn -0.0000 -1.0000 -0.0000
vn 0.0180 -0.9997 0.0180
vn 0.0007 -0.0290 -0.9996
vn 0.0251 -0.0341 -0.9991
vn 0.0234 -0.0598 -0.9979
vn 0.0180 -0.9998 0.0116
vn -0.0673 -0.9967 -0.0461
vn -0.0289 -0.9989 -0.0363
vn 0.0234 -0.0653 -0.9976
vn 0.0080 -0.1474 -0.9890
vn -0.0688 -0.4307 -0.8999
vn -0.0716 -0.4365 -0.8968
vn -0.0289 -0.9985 -0.0462
vn -0.0269 -0.9987 -0.0442
vn -0.0128 -0.9996 -0.0255
vn -0.1126 -0.9790 -0.1699
vn -0.0771 -0.9891 -0.1255
vn -0.0670 -0.9918 -0.1091
vn -0.0448 -0.9961 -0.0758
vn -0.0324 -0.9981 -0.0533
vn -0.1625 -0.8252 -0.5409
vn -0.0904 -0.5029 -0.8596
vn -0.1183 -0.9397 -0.3209
vn -0.1280 -0.9361 -0.3275
vn -0.0000 -0.9998 -0.0173
vn -0.0446 -0.9917 -0.1204
vn -0.1607 -0.9517 -0.2616
vn -0.1224 -0.9723 -0.1992
vn -0.1124 -0.9773 -0.1796
vn -0.1609 -0.9516 -0.2618
vn -0.0882 -0.9851 -0.1479
vn -0.1768 -0.8525 -0.4919
vn -0.1487 -0.9412 -0.3034
vn -0.1930 -0.8708 -0.4521
vn -0.1593 -0.9482 -0.2749
vn -0.1613 -0.9513 -0.2625
vn -0.1626 -0.9503 -0.2656
vn -0.1637 -0.9491 -0.2691
vn -0.1637 -0.9486 -0.2709
vn -0.1910 -0.8979 -0.3967
vn -0.1639 -0.9494 -0.2680
s 0
f 1//1 2//1 3//1
f 1//2 3//2 4//2
f 1//3 4//3 10//3
f 1//3 10//3 18//3
f 1//3 18//3 21//3
f 1//3 21//3 34//3
f 1//3 34//3 46//3
f 1//3 46//3 57//3
f 1//4 57//4 63//4
f 1//3 63//3 71//3
f 1//4 71//4 80//4
f 1//3 80//3 86//3
f 1//3 86//3 89//3
f 1//3 89//3 87//3
f 1//3 87//3 84//3
f 1//3 84//3 76//3
f 1//3 76//3 66//3
f 1//3 66//3 59//3
f 1//3 59//3 52//3
f 1//3 52//3 38//3
f 1//3 38//3 23//3
f 1//3 23//3 11//3
f 1//3 11//3 5//3
f 1//1 5//1 7//1
f 1//1 7//1 2//1
f 2//5 6//5 3//5
f 2//6 7//6 16//6
f 2//6 16//6 6//6
f 3//7 8//7 4//7
f 3//8 6//8 9//8
f 3//9 9//9 8//9
f 4//10 8//10 10//10
f 5//11 11//11 12//11
f 5//1 12//1 7//1
f 6//12 13//12 14//12
f 6//13 14//13 15//13
f 6//14 15//14 9//14
f 6//15 16//15 26//15
f 6//15 26//15 13//15
f 7//16 12//16 16//16
f 8//17 17//17 18//17
f 8//18 18//18 10//18
f 8//19 9//19 15//19
f 8//20 15//20 19//20
f 8//21 19//21 20//21
f 8//22 20//22 21//22
f 8//23 21//23 17//23
f 11//24 22//24 12//24
f 11//25 23//25 22//25
f 12//26 22//26 24//26
f 12//27 24//27 16//27
f 13//28 25//28 14//28
f 13//29 26//29 40//29
f 13//29 40//29 25//29
f 14//30 25//30 19//30
f 14//31 19//31 15//31
f 16//32 24//32 27//32
f 16//33 27//33 28//33
f 16//34 28//34 26//34
f 17//35 21//35 18//35
f 19//36 29//36 30//36
f 19//37 30//37 31//37
f 19//38 31//38 32//38
f 19//39 32//39 21//39
f 19//40 21//40 20//40
f 19//41 25//41 33//41
f 19//42 33//42 29//42
f 21//43 32//43 31//43
f 21//44 31//44 30//44
f 21//45 30//45 43//45
f 21//46 43//46 45//46
f 21//46 45//46 34//46
f 22//47 35//47 27//47
f 22//48 27//48 24//48
f 22//49 23//49 36//49
f 22//50 36//50 37//50
f 22//51 37//51 35//51
f 23//52 38//52 39//52
f 23//53 39//53 36//53
f 25//54 40//54 44//54
f 25//54 44//54 33//54
f 26//55 28//55 40//55
f 27//56 35//56 28//56
f 28//57 35//57 40//57
f 29//58 33//58 44//58
f 29//58 44//58 48//58
f 29//58 48//58 47//58
f 29//58 47//58 51//58
f 29//58 51//58 58//58
f 29//58 58//58 64//58
f 29//58 64//58 72//58
f 29//58 72//58 75//58
f 29//58 75//58 81//58
f 29//58 81//58 70//58
f 29//58 70//58 69//58
f 29//58 69//58 68//58
f 29//58 68//58 62//58
f 29//58 62//58 61//58
f 29//58 61//58 54//58
f 29//59 54//59 41//59
f 29//60 41//60 42//60
f 29//61 42//61 30//61
f 30//62 42//62 43//62
f 34//63 45//63 42//63
f 34//63 42//63 55//63
f 34//63 55//63 54//63
f 34//63 54//63 61//63
f 34//63 61//63 56//63
f 34//63 56//63 46//63
f 35//64 37//64 47//64
f 35//65 47//65 48//65
f 35//66 48//66 40//66
f 36//67 49//67 37//67
f 36//68 39//68 49//68
f 37//69 49//69 50//69
f 37//70 50//70 51//70
f 37//71 51//71 47//71
f 38//72 52//72 53//72
f 38//73 53//73 39//73
f 39//74 53//74 50//74
f 39//75 50//75 49//75
f 40//76 48//76 44//76
f 41//77 54//77 55//77
f 41//78 55//78 42//78
f 42//79 45//79 43//79
f 46//80 56//80 57//80
f 50//81 53//81 58//81
f 50//82 58//82 51//82
f 52//83 59//83 65//83
f 52//83 65//83 73//83
f 52//83 73//83 72//83
f 52//83 72//83 64//83
f 52//83 64//83 60//83
f 52//83 60//83 53//83
f 53//84 60//84 58//84
f 56//85 61//85 57//85
f 57//86 61//86 62//86
f 57//87 62//87 63//87
f 58//88 60//88 64//88
f 59//89 66//89 67//89
f 59//90 67//90 65//90
f 62//91 68//91 63//91
f 63//92 68//92 69//92
f 63//93 69//93 70//93
f 63//94 70//94 71//94
f 65//95 67//95 74//95
f 65//96 74//96 75//96
f 65//97 75//97 73//97
f 66//98 76//98 77//98
f 66//99 77//99 78//99
f 66//100 78//100 67//100
f 67//101 78//101 75//101
f 67//102 75//102 74//102
f 70//103 79//103 80//103
f 70//104 80//104 71//104
f 70//105 81//105 82//105
f 70//106 82//106 79//106
f 72//107 73//107 75//107
f 75//108 78//108 81//108
f 76//109 83//109 82//109
f 76//110 82//110 81//110
f 76//111 81//111 77//111
f 76//112 84//112 83//112
f 77//113 81//113 78//113
f 79//114 85//114 80//114
f 79//115 82//115 85//115
f 80//116 85//116 86//116
f 82//117 83//117 85//117
f 83//118 84//118 87//118
f 83//119 87//119 88//119
f 83//120 88//120 89//120
f 83//121 89//121 85//121
f 85//122 89//122 86//122
f 87//123 89//123 88//123
