# Blender 4.4.3
# www.blender.org
o socket11mm_collision_geom_7
v -0.041817 0.022453 -0.030768
v -0.041333 0.022452 -0.030768
v -0.041767 0.022452 -0.030600
v -0.041760 0.036402 -0.030650
v -0.041793 0.036402 -0.030768
v -0.038873 0.022452 -0.030768
v -0.041530 0.022452 -0.029947
v -0.041504 0.036402 -0.029947
v -0.041402 0.036595 -0.029737
v -0.041745 0.036606 -0.030692
v -0.041775 0.036543 -0.030768
v -0.037684 0.022452 -0.029251
v -0.038873 0.027250 -0.030768
v -0.041426 0.022452 -0.029690
v -0.041412 0.036402 -0.029716
v -0.041159 0.036433 -0.029251
v -0.041105 0.036617 -0.029251
v -0.041114 0.036626 -0.029283
v -0.041443 0.036633 -0.029947
v -0.041328 0.036402 -0.029550
v -0.041755 0.036616 -0.030768
v -0.040819 0.022452 -0.029251
v -0.037684 0.027439 -0.029251
v -0.038873 0.027439 -0.030768
v -0.041345 0.022452 -0.029527
v -0.041179 0.036402 -0.029283
v -0.041161 0.036402 -0.029251
v -0.040884 0.036710 -0.029251
v -0.041227 0.036656 -0.029622
v -0.041215 0.036724 -0.029947
v -0.041500 0.036658 -0.030279
v -0.041560 0.036697 -0.030768
v -0.041209 0.022452 -0.029283
v -0.041191 0.022453 -0.029251
v -0.038465 0.035737 -0.029702
v -0.038345 0.035737 -0.029536
v -0.038353 0.036069 -0.029521
v -0.038222 0.036069 -0.029251
v -0.038899 0.027782 -0.030768
v -0.040552 0.036745 -0.029251
v -0.040884 0.036717 -0.029283
v -0.040884 0.036750 -0.029615
v -0.041215 0.036749 -0.030279
v -0.041215 0.036749 -0.030611
v -0.041215 0.036745 -0.030768
v -0.039525 0.036069 -0.030768
v -0.038478 0.036069 -0.029687
v -0.038372 0.036255 -0.029487
v -0.038298 0.036256 -0.029251
v -0.040552 0.036745 -0.029283
v -0.040220 0.036710 -0.029251
v -0.040884 0.036711 -0.030611
v -0.040884 0.036700 -0.030768
v -0.039568 0.036186 -0.030768
v -0.038680 0.036260 -0.029814
v -0.038560 0.036363 -0.029283
v -0.038315 0.036287 -0.029251
v -0.039627 0.036319 -0.030768
v -0.039769 0.036391 -0.030768
v -0.039887 0.036448 -0.030768
v -0.039887 0.036642 -0.029251
v -0.040220 0.036707 -0.029283
v -0.040542 0.036616 -0.030768
v -0.038560 0.036368 -0.029251
v -0.040040 0.036489 -0.030768
vn -0.0029 -1.0000 -0.0075
vn -0.9595 0.0015 0.2819
vn -0.9618 0.0016 0.2738
vn -0.0001 -0.0000 -1.0000
vn 0.0001 -0.0000 -1.0000
vn -0.0000 -0.0000 -1.0000
vn -0.0000 -1.0000 -0.0000
vn -0.9400 0.0017 0.3411
vn -0.9328 0.1221 0.3391
vn -0.9320 0.1366 0.3357
vn -0.9542 0.1251 0.2717
vn -0.9398 0.0018 0.3416
vn -0.9545 0.1257 0.2705
vn 0.7873 -0.0000 -0.6166
vn -0.9273 0.0016 0.3743
vn -0.9298 0.0018 0.3680
vn -0.9261 0.0888 0.3666
vn -0.8324 0.2442 0.4975
vn -0.6424 0.6758 0.3613
vn -0.4751 0.8454 0.2440
vn -0.6895 0.6779 0.2551
vn -0.8869 0.0961 0.4519
vn -0.8696 0.1271 0.4770
vn -0.5075 0.8436 0.1755
vn -0.9525 0.2594 0.1595
vn -0.0000 -0.0000 1.0000
vn 0.0002 -0.0000 1.0000
vn 0.7872 0.0017 -0.6167
vn -0.8946 0.0017 0.4468
vn -0.8910 0.0018 0.4540
vn -0.8721 0.0654 0.4849
vn -0.8692 0.0570 0.4911
vn -0.3634 0.8706 0.3315
vn -0.4310 0.8745 0.2224
vn -0.3600 0.9108 0.2022
vn -0.3657 0.9139 0.1762
vn -0.3682 0.9202 0.1332
vn -0.4165 0.8983 0.1398
vn -0.8740 0.0019 0.4858
vn -0.3822 0.9162 0.1204
vn -0.0038 -0.9989 0.0459
vn 0.7865 0.0405 -0.6162
vn 0.8082 0.0441 -0.5872
vn 0.8282 0.0467 -0.5585
vn 0.8976 0.0559 -0.4372
vn 0.7167 0.0541 -0.6953
vn -0.8740 0.0019 0.4859
vn -0.8707 0.0019 0.4918
vn -0.8650 0.0018 0.5017
vn -0.1024 0.9721 0.2111
vn -0.3560 0.9133 0.1980
vn -0.3390 0.9236 0.1791
vn -0.1777 0.9791 0.0991
vn -0.1539 0.9853 0.0748
vn -0.2492 0.9657 0.0733
vn -0.3521 0.9285 0.1177
vn -0.1486 0.9889 -0.0000
vn -0.1367 0.9903 -0.0264
vn 0.7172 0.0594 -0.6943
vn 0.7976 0.0583 -0.6003
vn 0.8081 0.0475 -0.5871
vn 0.7166 0.0541 -0.6953
vn 0.7845 0.1892 -0.5905
vn 0.8858 0.1709 -0.4315
vn 0.8881 0.3640 -0.2807
vn 0.0169 0.9999 -0.0000
vn -0.0932 0.9906 0.1002
vn 0.1048 0.9945 -0.0000
vn 0.0274 0.9996 -0.0105
vn -0.0042 1.0000 -0.0000
vn 0.0595 0.9979 -0.0266
vn 0.1093 0.9928 -0.0489
vn 0.1298 0.9896 -0.0624
vn 0.1335 0.9886 -0.0703
vn 0.6950 0.2535 -0.6728
vn 0.6902 0.2870 -0.6643
vn 0.6967 0.3032 -0.6502
vn 0.3132 0.9279 -0.2022
vn 0.8437 0.4654 -0.2674
vn 0.5591 0.6496 -0.5152
vn 0.4186 0.8302 -0.3682
vn 0.4074 0.8415 -0.3548
vn 0.3002 0.9293 -0.2149
vn 0.1976 0.9766 -0.0848
vn 0.1801 0.9799 -0.0852
vn 0.1457 0.9868 -0.0702
vn 0.1982 0.9757 -0.0932
vn 0.2015 0.9748 -0.0954
vn 0.2361 0.9598 -0.1517
vn 0.6850 0.3064 -0.6609
vn 0.3106 0.9365 -0.1626
vn 0.2528 0.9523 -0.1712
vn 0.2476 0.9546 -0.1656
vn 0.2427 0.9567 -0.1609
s 0
f 1//1 2//1 3//1
f 1//2 3//2 4//2
f 1//3 4//3 5//3
f 1//4 5//4 11//4
f 1//5 11//5 21//5
f 1//6 21//6 32//6
f 1//6 32//6 45//6
f 1//6 45//6 53//6
f 1//6 53//6 63//6
f 1//6 63//6 65//6
f 1//6 65//6 60//6
f 1//6 60//6 59//6
f 1//6 59//6 58//6
f 1//6 58//6 54//6
f 1//6 54//6 46//6
f 1//6 46//6 39//6
f 1//6 39//6 24//6
f 1//6 24//6 13//6
f 1//6 13//6 6//6
f 1//6 6//6 2//6
f 2//7 6//7 12//7
f 2//7 12//7 22//7
f 2//7 22//7 33//7
f 2//7 33//7 25//7
f 2//7 25//7 14//7
f 2//7 14//7 7//7
f 2//7 7//7 3//7
f 3//8 7//8 4//8
f 4//9 8//9 9//9
f 4//10 9//10 10//10
f 4//11 10//11 5//11
f 4//12 7//12 8//12
f 5//13 10//13 11//13
f 6//14 13//14 23//14
f 6//14 23//14 12//14
f 7//15 14//15 15//15
f 7//16 15//16 8//16
f 8//17 15//17 9//17
f 9//18 16//18 17//18
f 9//19 17//19 18//19
f 9//20 18//20 19//20
f 9//21 19//21 10//21
f 9//22 15//22 20//22
f 9//23 20//23 16//23
f 10//24 19//24 21//24
f 10//25 21//25 11//25
f 12//26 23//26 38//26
f 12//26 38//26 49//26
f 12//26 49//26 57//26
f 12//26 57//26 64//26
f 12//26 64//26 61//26
f 12//26 61//26 51//26
f 12//26 51//26 40//26
f 12//26 40//26 28//26
f 12//26 28//26 17//26
f 12//26 17//26 16//26
f 12//27 16//27 27//27
f 12//26 27//26 34//26
f 12//26 34//26 22//26
f 13//28 24//28 23//28
f 14//29 25//29 15//29
f 15//30 25//30 20//30
f 16//31 20//31 26//31
f 16//32 26//32 27//32
f 17//33 28//33 18//33
f 18//34 29//34 19//34
f 18//35 28//35 29//35
f 19//36 29//36 30//36
f 19//37 30//37 31//37
f 19//38 31//38 21//38
f 20//39 25//39 26//39
f 21//40 31//40 32//40
f 22//41 34//41 33//41
f 23//42 24//42 35//42
f 23//43 35//43 36//43
f 23//44 36//44 37//44
f 23//45 37//45 38//45
f 24//46 39//46 35//46
f 25//47 33//47 26//47
f 26//48 33//48 27//48
f 27//49 33//49 34//49
f 28//50 40//50 41//50
f 28//51 41//51 29//51
f 29//52 41//52 30//52
f 30//53 41//53 42//53
f 30//54 42//54 43//54
f 30//55 43//55 32//55
f 30//56 32//56 31//56
f 32//57 43//57 44//57
f 32//58 44//58 45//58
f 35//59 46//59 47//59
f 35//60 47//60 37//60
f 35//61 37//61 36//61
f 35//62 39//62 46//62
f 37//63 47//63 48//63
f 37//64 48//64 38//64
f 38//65 48//65 49//65
f 40//66 50//66 42//66
f 40//67 42//67 41//67
f 40//68 51//68 50//68
f 42//69 50//69 44//69
f 42//70 44//70 43//70
f 44//71 50//71 45//71
f 45//72 50//72 51//72
f 45//73 51//73 52//73
f 45//74 52//74 53//74
f 46//75 54//75 47//75
f 47//76 54//76 55//76
f 47//77 55//77 48//77
f 48//78 56//78 57//78
f 48//79 57//79 49//79
f 48//80 55//80 58//80
f 48//81 58//81 59//81
f 48//82 59//82 60//82
f 48//83 60//83 56//83
f 51//84 61//84 62//84
f 51//85 62//85 53//85
f 51//86 53//86 52//86
f 53//87 62//87 61//87
f 53//88 61//88 64//88
f 53//89 64//89 63//89
f 54//90 58//90 55//90
f 56//91 64//91 57//91
f 56//92 60//92 65//92
f 56//93 65//93 64//93
f 63//94 64//94 65//94
