# Blender 4.4.3
# www.blender.org
o socket10mm_collision_geom_22
v -0.052316 0.010040 -0.027424
v -0.052316 0.010180 -0.029615
v -0.050615 0.009786 -0.032767
v -0.051260 0.009786 -0.027424
v -0.052316 0.022758 -0.027424
v -0.052316 0.010210 -0.029944
v -0.046040 0.009786 -0.032767
v -0.051474 0.010260 -0.032767
v -0.047633 0.009786 -0.027424
v -0.051493 0.022758 -0.027424
v -0.052316 0.022758 -0.030353
v -0.052316 0.010274 -0.030224
v -0.046040 0.009786 -0.032271
v -0.046040 0.019801 -0.032767
v -0.051556 0.010506 -0.032767
v -0.047516 0.009786 -0.027623
v -0.047633 0.019801 -0.027424
v -0.051243 0.022758 -0.027629
v -0.051486 0.022757 -0.027424
v -0.051558 0.022758 -0.032767
v -0.052316 0.010834 -0.030353
v -0.052316 0.010505 -0.030351
v -0.046054 0.009786 -0.031939
v -0.046040 0.019801 -0.032271
v -0.046061 0.019999 -0.032767
v -0.051558 0.010839 -0.032767
v -0.047074 0.009786 -0.028390
v -0.047516 0.019469 -0.027623
v -0.047517 0.019801 -0.027623
v -0.047065 0.019986 -0.028430
v -0.047687 0.020020 -0.027424
v -0.051233 0.022758 -0.027638
v -0.048901 0.022758 -0.032767
v -0.046075 0.009786 -0.031730
v -0.046054 0.019801 -0.031939
v -0.046061 0.019999 -0.032271
v -0.046068 0.019989 -0.031939
v -0.047058 0.009786 -0.028417
v -0.047058 0.019801 -0.028417
v -0.047320 0.019801 -0.027964
v -0.046955 0.019801 -0.028619
v -0.046811 0.019801 -0.028951
v -0.046707 0.020013 -0.029342
v -0.047017 0.020029 -0.028619
v -0.049669 0.022758 -0.029614
v -0.047350 0.020025 -0.028016
v -0.050011 0.022758 -0.029024
v -0.050026 0.022758 -0.029000
v -0.050115 0.022758 -0.028859
v -0.050304 0.022758 -0.028619
v -0.050309 0.022758 -0.028612
v -0.050574 0.022758 -0.028297
v -0.050578 0.022758 -0.028292
v -0.050848 0.022758 -0.027992
v -0.050889 0.022758 -0.027948
v -0.050903 0.022758 -0.027935
v -0.050932 0.022758 -0.027908
v -0.048901 0.022758 -0.032603
v -0.046104 0.009786 -0.031564
v -0.046075 0.019801 -0.031730
v -0.046077 0.019975 -0.031744
v -0.048907 0.022758 -0.032271
v -0.048942 0.022758 -0.031939
v -0.046971 0.009786 -0.028585
v -0.046954 0.019469 -0.028619
v -0.046810 0.019469 -0.028951
v -0.046748 0.019801 -0.029122
v -0.046405 0.019981 -0.030089
v -0.049260 0.022758 -0.030579
v -0.049365 0.022758 -0.030291
v -0.049366 0.022758 -0.030288
v -0.049490 0.022758 -0.029975
v -0.049847 0.022758 -0.029307
v -0.046214 0.009786 -0.030943
v -0.046104 0.019469 -0.031564
v -0.046273 0.019801 -0.030611
v -0.046343 0.020047 -0.030611
v -0.046380 0.020011 -0.030279
v -0.048947 0.022758 -0.031907
v -0.046954 0.009786 -0.028619
v -0.046834 0.009786 -0.028896
v -0.046687 0.019801 -0.029288
v -0.046810 0.009786 -0.028951
v -0.046400 0.019801 -0.030076
v -0.046345 0.019801 -0.030279
v -0.049136 0.022758 -0.030954
v -0.049248 0.022758 -0.030613
v -0.046224 0.009786 -0.030887
v -0.046214 0.019469 -0.030943
v -0.046284 0.009786 -0.030555
v -0.046273 0.009786 -0.030611
v -0.049011 0.022758 -0.031540
v -0.049060 0.022758 -0.031275
v -0.049130 0.022758 -0.030975
v -0.046568 0.019469 -0.029615
v -0.046687 0.009786 -0.029288
v -0.046400 0.009786 -0.030076
v -0.046354 0.009786 -0.030245
v -0.046345 0.009786 -0.030279
v -0.046568 0.009786 -0.029615
vn -0.3294 -0.9423 -0.0601
vn -0.2336 -0.9719 -0.0282
vn -0.0000 -0.0000 1.0000
vn 0.0002 -0.0000 1.0000
vn -1.0000 -0.0000 -0.0000
vn -0.3727 -0.9240 -0.0857
vn -0.0000 -1.0000 -0.0000
vn -0.4771 -0.8646 -0.1576
vn -0.0000 -0.0000 -1.0000
vn -0.0000 1.0000 -0.0000
vn -0.0000 1.0000 0.0004
vn -0.0000 1.0000 0.0002
vn -0.0000 1.0000 -0.0002
vn -0.0000 1.0000 -0.0013
vn -0.5638 -0.8055 -0.1824
vn 1.0000 -0.0000 -0.0000
vn -0.9053 -0.3025 -0.2983
vn 0.8611 -0.0000 0.5084
vn 0.1801 0.9588 0.2198
vn -0.9540 -0.0000 -0.2998
vn -0.9412 -0.1623 -0.2963
vn 0.9992 -0.0000 0.0407
vn 0.9945 0.1049 -0.0000
vn -0.9539 -0.0053 -0.3002
vn 0.8662 -0.0000 0.4997
vn 0.8623 0.0016 0.5064
vn 0.8580 0.0995 0.5039
vn 0.8350 0.2055 0.5104
vn 0.4788 0.6647 0.5736
vn 0.4820 0.6686 0.5662
vn -0.9540 -0.0024 -0.2998
vn 0.9951 -0.0000 0.0993
vn 0.9942 0.1048 0.0235
vn 0.9964 0.0749 0.0406
vn 0.6968 0.7172 -0.0000
vn 0.8664 -0.0000 0.4993
vn 0.8661 0.0006 0.4999
vn 0.8657 0.0016 0.5006
vn 0.8638 0.0663 0.4995
vn 0.8643 0.0639 0.4988
vn 0.8887 0.0619 0.4543
vn 0.9095 0.1381 0.3920
vn 0.9062 0.2191 0.3616
vn 0.7693 0.5542 0.3178
vn 0.6195 0.7179 0.3176
vn 0.6042 0.7166 0.3485
vn 0.6138 0.7044 0.3564
vn 0.6031 0.7166 0.3504
vn 0.5942 0.7171 0.3643
vn 0.5887 0.7173 0.3727
vn 0.5496 0.7143 0.4332
vn 0.5442 0.7132 0.4419
vn 0.5382 0.7115 0.4518
vn 0.5299 0.7079 0.4670
vn 0.5266 0.7061 0.4733
vn 0.5206 0.7018 0.4862
vn 0.5030 0.6884 0.5226
vn 0.4957 0.6823 0.5373
vn 0.4910 0.6784 0.5465
vn 0.9852 -0.0000 0.1716
vn 0.9958 0.0749 0.0525
vn 0.9948 0.0224 0.0993
vn 0.6961 0.7179 0.0116
vn 0.6957 0.7174 0.0362
vn 0.6920 0.7181 0.0731
vn 0.6914 0.7175 0.0843
vn 0.8887 -0.0000 0.4585
vn 0.8904 0.0016 0.4552
vn 0.8893 -0.0000 0.4573
vn 0.9177 0.0017 0.3972
vn 0.9183 0.0034 0.3958
vn 0.9344 0.0823 0.3467
vn 0.9094 0.2114 0.3583
vn 0.9375 0.0034 0.3479
vn 0.6568 0.7165 0.2348
vn 0.6543 0.7169 0.2408
vn 0.6491 0.7173 0.2533
vn 0.6488 0.7167 0.2557
vn 0.6470 0.7162 0.2615
vn 0.6232 0.7183 0.3093
vn 0.6038 0.7166 0.3492
vn 0.6034 0.7166 0.3498
vn 0.9847 -0.0000 0.1743
vn 0.9843 0.0286 0.1740
vn 0.9847 0.0013 0.1740
vn 0.7977 0.5842 0.1498
vn 0.9189 0.3507 0.1807
vn 0.9686 0.1591 0.1913
vn 0.6881 0.7163 0.1157
vn 0.6870 0.7168 0.1190
vn 0.8923 -0.0000 0.4514
vn 0.9174 -0.0000 0.3979
vn 0.9177 -0.0000 0.3972
vn 0.9392 0.0009 0.3435
vn 0.9193 -0.0000 0.3935
vn 0.9394 -0.0000 0.3427
vn 0.9377 0.0555 0.3429
vn 0.9385 0.0494 0.3418
vn 0.9631 0.0447 0.2653
vn 0.9719 0.1054 0.2107
vn 0.6651 0.7180 0.2051
vn 0.6615 0.7180 0.2166
vn 0.6591 0.7172 0.2262
vn 0.9847 -0.0000 0.1745
vn 0.9847 0.0006 0.1743
vn 0.9773 -0.0000 0.2118
vn 0.9786 -0.0000 0.2060
vn 0.9846 -0.0000 0.1749
vn 0.9846 -0.0000 0.1748
vn 0.6868 0.7170 0.1197
vn 0.6849 0.7175 0.1267
vn 0.6794 0.7180 0.1513
vn 0.6777 0.7184 0.1570
vn 0.6677 0.7181 0.1961
vn 0.9396 0.0003 0.3422
vn 0.9395 -0.0000 0.3425
vn 0.9397 -0.0000 0.3420
vn 0.9639 -0.0000 0.2664
vn 0.9641 -0.0000 0.2656
vn 0.9652 -0.0000 0.2617
vn 0.9771 -0.0000 0.2130
s 0
f 1//1 2//1 3//1
f 1//2 3//2 4//2
f 1//3 4//3 9//3
f 1//3 9//3 17//3
f 1//3 17//3 31//3
f 1//3 31//3 19//3
f 1//4 19//4 10//4
f 1//3 10//3 5//3
f 1//5 5//5 11//5
f 1//5 11//5 21//5
f 1//5 21//5 22//5
f 1//5 22//5 12//5
f 1//5 12//5 6//5
f 1//5 6//5 2//5
f 2//6 6//6 3//6
f 3//7 7//7 13//7
f 3//7 13//7 23//7
f 3//7 23//7 34//7
f 3//7 34//7 59//7
f 3//7 59//7 74//7
f 3//7 74//7 88//7
f 3//7 88//7 91//7
f 3//7 91//7 90//7
f 3//7 90//7 99//7
f 3//7 99//7 98//7
f 3//7 98//7 97//7
f 3//7 97//7 100//7
f 3//7 100//7 96//7
f 3//7 96//7 83//7
f 3//7 83//7 81//7
f 3//7 81//7 80//7
f 3//7 80//7 64//7
f 3//7 64//7 38//7
f 3//7 38//7 27//7
f 3//7 27//7 16//7
f 3//7 16//7 9//7
f 3//7 9//7 4//7
f 3//8 6//8 8//8
f 3//9 8//9 15//9
f 3//9 15//9 26//9
f 3//9 26//9 20//9
f 3//9 20//9 33//9
f 3//9 33//9 25//9
f 3//9 25//9 14//9
f 3//9 14//9 7//9
f 5//10 10//10 18//10
f 5//11 18//11 32//11
f 5//10 32//10 57//10
f 5//12 57//12 56//12
f 5//13 56//13 55//13
f 5//10 55//10 54//10
f 5//10 54//10 53//10
f 5//13 53//13 52//13
f 5//10 52//10 51//10
f 5//10 51//10 50//10
f 5//10 50//10 49//10
f 5//10 49//10 48//10
f 5//10 48//10 47//10
f 5//10 47//10 73//10
f 5//10 73//10 45//10
f 5//10 45//10 72//10
f 5//10 72//10 71//10
f 5//14 71//14 70//14
f 5//10 70//10 69//10
f 5//10 69//10 87//10
f 5//10 87//10 86//10
f 5//10 86//10 94//10
f 5//10 94//10 93//10
f 5//10 93//10 92//10
f 5//10 92//10 79//10
f 5//10 79//10 63//10
f 5//10 63//10 62//10
f 5//10 62//10 58//10
f 5//10 58//10 33//10
f 5//10 33//10 20//10
f 5//10 20//10 11//10
f 6//15 12//15 8//15
f 7//16 14//16 24//16
f 7//16 24//16 13//16
f 8//17 12//17 15//17
f 9//18 16//18 28//18
f 9//18 28//18 17//18
f 10//19 19//19 18//19
f 11//20 20//20 26//20
f 11//20 26//20 21//20
f 12//21 22//21 15//21
f 13//22 24//22 35//22
f 13//22 35//22 23//22
f 14//23 25//23 36//23
f 14//23 36//23 24//23
f 15//24 22//24 26//24
f 16//25 27//25 28//25
f 17//26 28//26 29//26
f 17//27 29//27 30//27
f 17//28 30//28 31//28
f 18//29 19//29 31//29
f 18//30 31//30 32//30
f 21//31 26//31 22//31
f 23//32 35//32 60//32
f 23//32 60//32 34//32
f 24//33 36//33 37//33
f 24//34 37//34 35//34
f 25//35 33//35 58//35
f 25//35 58//35 36//35
f 27//36 38//36 39//36
f 27//25 39//25 28//25
f 28//37 39//37 40//37
f 28//38 40//38 29//38
f 29//39 40//39 30//39
f 30//40 40//40 39//40
f 30//41 39//41 41//41
f 30//42 41//42 42//42
f 30//43 42//43 43//43
f 30//44 43//44 44//44
f 30//45 44//45 45//45
f 30//46 45//46 46//46
f 30//47 46//47 31//47
f 31//48 46//48 47//48
f 31//49 47//49 48//49
f 31//50 48//50 49//50
f 31//51 49//51 50//51
f 31//52 50//52 51//52
f 31//53 51//53 52//53
f 31//54 52//54 53//54
f 31//55 53//55 54//55
f 31//56 54//56 55//56
f 31//57 55//57 56//57
f 31//58 56//58 57//58
f 31//59 57//59 32//59
f 34//60 60//60 75//60
f 34//60 75//60 59//60
f 35//61 37//61 61//61
f 35//62 61//62 60//62
f 36//63 58//63 62//63
f 36//64 62//64 37//64
f 37//65 62//65 63//65
f 37//66 63//66 61//66
f 38//67 64//67 39//67
f 39//68 65//68 41//68
f 39//69 64//69 65//69
f 41//70 65//70 66//70
f 41//71 66//71 42//71
f 42//72 67//72 68//72
f 42//73 68//73 43//73
f 42//74 66//74 67//74
f 43//75 68//75 69//75
f 43//76 69//76 70//76
f 43//77 70//77 71//77
f 43//78 71//78 72//78
f 43//79 72//79 44//79
f 44//80 72//80 45//80
f 45//81 73//81 46//81
f 46//82 73//82 47//82
f 59//83 75//83 89//83
f 59//83 89//83 74//83
f 60//84 61//84 76//84
f 60//85 76//85 75//85
f 61//86 77//86 78//86
f 61//87 78//87 68//87
f 61//88 68//88 76//88
f 61//89 63//89 77//89
f 63//90 79//90 77//90
f 64//91 80//91 65//91
f 65//92 80//92 81//92
f 65//93 81//93 66//93
f 66//94 82//94 67//94
f 66//95 81//95 83//95
f 66//96 83//96 96//96
f 66//96 96//96 82//96
f 67//97 82//97 68//97
f 68//98 82//98 84//98
f 68//99 84//99 85//99
f 68//100 85//100 76//100
f 68//101 78//101 86//101
f 68//102 86//102 87//102
f 68//103 87//103 69//103
f 74//104 89//104 88//104
f 75//105 76//105 89//105
f 76//106 85//106 90//106
f 76//107 90//107 91//107
f 76//108 91//108 88//108
f 76//109 88//109 89//109
f 77//110 79//110 92//110
f 77//111 92//111 93//111
f 77//112 93//112 78//112
f 78//113 93//113 94//113
f 78//114 94//114 86//114
f 82//115 95//115 84//115
f 82//116 96//116 100//116
f 82//116 100//116 95//116
f 84//117 95//117 100//117
f 84//117 100//117 97//117
f 84//118 97//118 98//118
f 84//119 98//119 85//119
f 85//120 98//120 99//120
f 85//121 99//121 90//121
