# Blender 4.4.3
# www.blender.org
o socket9mm_collision_geom_27
v -0.084732 0.010008 -0.039244
v -0.083068 0.010008 -0.039716
v -0.084732 0.010008 -0.042959
v -0.084732 0.004027 -0.039258
v -0.083068 0.004373 -0.039722
v -0.083068 0.010008 -0.043690
v -0.084456 0.010008 -0.043118
v -0.084732 0.003681 -0.042959
v -0.084732 0.003681 -0.039463
v -0.083068 0.003812 -0.039837
v -0.083068 0.004027 -0.039732
v -0.083068 0.004118 -0.039726
v -0.083724 0.010008 -0.043450
v -0.083068 0.004027 -0.043690
v -0.084405 0.010008 -0.043147
v -0.084405 0.003681 -0.043147
v -0.084578 0.003681 -0.043047
v -0.084393 0.003490 -0.043140
v -0.084732 0.003442 -0.042877
v -0.084732 0.003499 -0.039639
v -0.083068 0.003744 -0.039877
v -0.083850 0.010008 -0.043404
v -0.083850 0.004027 -0.043404
v -0.083068 0.003681 -0.043686
v -0.083498 0.003681 -0.043532
v -0.084258 0.010008 -0.043223
v -0.084196 0.004027 -0.043254
v -0.084196 0.003681 -0.043253
v -0.083443 0.003461 -0.043512
v -0.084196 0.003447 -0.043189
v -0.083850 0.003681 -0.043402
v -0.084522 0.003424 -0.042956
v -0.084196 0.003352 -0.042953
v -0.084732 0.003360 -0.042623
v -0.084732 0.003418 -0.039846
v -0.083945 0.003495 -0.039993
v -0.083715 0.003517 -0.040038
v -0.083068 0.003622 -0.040111
v -0.084196 0.010008 -0.043254
v -0.083068 0.003425 -0.043584
v -0.083159 0.003425 -0.043560
v -0.083850 0.003414 -0.043263
v -0.083159 0.003330 -0.043299
v -0.083850 0.003318 -0.042953
v -0.084542 0.003322 -0.042607
v -0.084732 0.003318 -0.042261
v -0.084732 0.003338 -0.040187
v -0.084542 0.003351 -0.040187
v -0.084196 0.003393 -0.040187
v -0.083068 0.003581 -0.040203
v -0.083838 0.003459 -0.040166
v -0.083068 0.003327 -0.043299
v -0.083068 0.003318 -0.042953
v -0.084732 0.003318 -0.040878
v -0.084732 0.003319 -0.040532
v -0.084542 0.003319 -0.040532
v -0.084196 0.003333 -0.040532
v -0.083068 0.003332 -0.041224
v -0.083504 0.003344 -0.040878
v -0.083850 0.003366 -0.040532
v -0.083068 0.003395 -0.040878
v -0.083068 0.003480 -0.040566
v -0.083068 0.003318 -0.041569
v -0.084196 0.003318 -0.040878
v -0.083504 0.003318 -0.041224
v -0.083159 0.003328 -0.041224
v -0.083159 0.003383 -0.040878
vn -0.0000 1.0000 -0.0000
vn -1.0000 -0.0000 -0.0000
vn 0.2693 -0.0022 0.9631
vn 0.2726 -0.0011 0.9621
vn 1.0000 -0.0000 -0.0000
vn -0.4997 -0.0000 -0.8662
vn 0.2271 -0.4974 0.8373
vn 0.2480 -0.4251 0.8705
vn 0.2736 -0.0554 0.9603
vn 0.2720 -0.0164 0.9622
vn -0.3428 -0.0000 -0.9394
vn -0.4979 -0.0000 -0.8672
vn -0.4993 -0.0000 -0.8664
vn -0.4995 -0.0000 -0.8663
vn -0.4985 -0.0632 -0.8646
vn -0.5673 -0.2648 -0.7798
vn 0.2010 -0.6814 0.7038
vn 0.2269 -0.5015 0.8349
vn -0.3429 -0.0000 -0.9394
vn -0.3353 -0.0107 -0.9420
vn -0.3428 -0.0001 -0.9394
vn -0.4578 -0.0000 -0.8890
vn -0.4523 -0.0034 -0.8919
vn -0.4514 -0.0611 -0.8902
vn -0.4983 -0.0631 -0.8647
vn -0.4566 -0.0000 -0.8897
vn -0.3114 -0.5821 -0.7512
vn -0.3024 -0.7897 -0.5338
vn -0.3929 -0.1329 -0.9099
vn -0.3614 -0.2174 -0.9067
vn -0.2250 -0.8874 -0.4022
vn -0.2008 -0.9225 -0.3297
vn -0.1985 -0.9331 -0.3000
vn 0.1571 -0.9192 0.3611
vn 0.1590 -0.9173 0.3652
vn 0.1930 -0.8697 0.4542
vn 0.1933 -0.8700 0.4535
vn -0.3974 -0.0000 -0.9177
vn -0.3468 -0.0047 -0.9379
vn -0.3964 -0.0046 -0.9181
vn -0.3974 -0.0035 -0.9176
vn -0.2098 -0.3600 -0.9091
vn -0.3305 -0.1697 -0.9284
vn -0.3417 -0.1721 -0.9239
vn -0.4538 -0.0000 -0.8911
vn -0.2074 -0.5844 -0.7845
vn -0.1902 -0.8558 -0.4811
vn -0.1830 -0.8686 -0.4604
vn -0.1676 -0.9145 -0.3682
vn -0.1976 -0.9094 -0.3661
vn -0.0955 -0.9695 -0.2258
vn -0.0964 -0.9786 -0.1816
vn -0.1693 -0.9527 -0.2522
vn -0.1294 -0.9352 -0.3297
vn -0.1858 -0.9761 -0.1131
vn 0.0638 -0.9716 0.2278
vn 0.1163 -0.9600 0.2548
vn 0.1486 -0.9410 0.3041
vn 0.1494 -0.9412 0.3032
vn 0.1915 -0.8960 0.4006
vn 0.1594 -0.9478 0.2762
vn 0.1638 -0.9482 0.2722
vn -0.0342 -0.9450 -0.3252
vn -0.0898 -0.9362 -0.3398
vn -0.1295 -0.9321 -0.3384
vn -0.0360 -0.9935 -0.1076
vn -0.0000 -1.0000 -0.0000
vn -0.0157 -0.9997 -0.0199
vn -0.0000 -0.9996 -0.0265
vn -0.0000 -0.9984 0.0568
vn 0.0415 -0.9960 0.0794
vn 0.0650 -0.9911 0.1158
vn 0.0789 -0.9884 0.1296
vn 0.1011 -0.9818 0.1610
vn 0.1074 -0.9795 0.1704
vn 0.1180 -0.9743 0.1920
vn 0.1213 -0.9732 0.1952
vn 0.1609 -0.9522 0.2598
vn 0.1611 -0.9520 0.2604
vn 0.1638 -0.9500 0.2657
vn -0.0000 -1.0000 0.0019
vn 0.0019 -1.0000 0.0037
vn 0.0284 -0.9987 0.0434
vn 0.0415 -0.9967 0.0698
vn 0.0504 -0.9953 0.0831
vn 0.1202 -0.9771 0.1757
vn 0.1111 -0.9785 0.1735
vn 0.0505 -0.9979 0.0416
vn 0.1111 -0.9784 0.1741
vn 0.1198 -0.9741 0.1916
vn 0.0284 -0.9990 0.0359
s 0
f 1//1 2//1 6//1
f 1//1 6//1 13//1
f 1//1 13//1 22//1
f 1//1 22//1 39//1
f 1//1 39//1 26//1
f 1//1 26//1 15//1
f 1//1 15//1 7//1
f 1//1 7//1 3//1
f 1//2 3//2 8//2
f 1//2 8//2 19//2
f 1//2 19//2 34//2
f 1//2 34//2 46//2
f 1//2 46//2 54//2
f 1//2 54//2 55//2
f 1//2 55//2 47//2
f 1//2 47//2 35//2
f 1//2 35//2 20//2
f 1//2 20//2 9//2
f 1//2 9//2 4//2
f 1//3 4//3 5//3
f 1//4 5//4 2//4
f 2//5 5//5 12//5
f 2//5 12//5 11//5
f 2//5 11//5 10//5
f 2//5 10//5 21//5
f 2//5 21//5 38//5
f 2//5 38//5 50//5
f 2//5 50//5 62//5
f 2//5 62//5 61//5
f 2//5 61//5 58//5
f 2//5 58//5 63//5
f 2//5 63//5 53//5
f 2//5 53//5 52//5
f 2//5 52//5 40//5
f 2//5 40//5 24//5
f 2//5 24//5 14//5
f 2//5 14//5 6//5
f 3//6 7//6 8//6
f 4//7 9//7 10//7
f 4//8 10//8 11//8
f 4//9 11//9 12//9
f 4//10 12//10 5//10
f 6//11 14//11 13//11
f 7//12 15//12 16//12
f 7//13 16//13 17//13
f 7//14 17//14 8//14
f 8//15 17//15 18//15
f 8//16 18//16 19//16
f 9//17 20//17 21//17
f 9//18 21//18 10//18
f 13//11 14//11 23//11
f 13//19 23//19 22//19
f 14//20 24//20 25//20
f 14//21 25//21 23//21
f 15//22 26//22 16//22
f 16//23 27//23 28//23
f 16//24 28//24 18//24
f 16//25 18//25 17//25
f 16//26 26//26 27//26
f 18//27 29//27 30//27
f 18//28 30//28 19//28
f 18//29 28//29 31//29
f 18//30 31//30 29//30
f 19//31 30//31 32//31
f 19//32 32//32 33//32
f 19//33 33//33 34//33
f 20//34 35//34 36//34
f 20//35 36//35 37//35
f 20//36 37//36 21//36
f 21//37 37//37 38//37
f 22//38 23//38 27//38
f 22//38 27//38 39//38
f 23//39 25//39 31//39
f 23//40 31//40 28//40
f 23//41 28//41 27//41
f 24//42 40//42 29//42
f 24//43 29//43 25//43
f 25//44 29//44 31//44
f 26//45 39//45 27//45
f 29//46 40//46 41//46
f 29//47 41//47 30//47
f 30//48 41//48 42//48
f 30//49 42//49 33//49
f 30//50 33//50 32//50
f 33//51 43//51 44//51
f 33//52 44//52 45//52
f 33//53 45//53 34//53
f 33//54 42//54 43//54
f 34//55 45//55 46//55
f 35//56 47//56 48//56
f 35//57 48//57 49//57
f 35//58 49//58 36//58
f 36//59 49//59 37//59
f 37//60 50//60 38//60
f 37//61 49//61 51//61
f 37//62 51//62 50//62
f 40//63 52//63 43//63
f 40//64 43//64 41//64
f 41//65 43//65 42//65
f 43//66 52//66 44//66
f 44//67 53//67 63//67
f 44//67 63//67 65//67
f 44//67 65//67 64//67
f 44//67 64//67 54//67
f 44//67 54//67 46//67
f 44//68 46//68 45//68
f 44//69 52//69 53//69
f 47//70 55//70 56//70
f 47//71 56//71 57//71
f 47//72 57//72 48//72
f 48//73 57//73 58//73
f 48//74 58//74 59//74
f 48//75 59//75 60//75
f 48//76 60//76 49//76
f 49//77 60//77 61//77
f 49//78 61//78 62//78
f 49//79 62//79 51//79
f 50//80 51//80 62//80
f 54//81 64//81 56//81
f 54//81 56//81 55//81
f 56//82 64//82 65//82
f 56//83 65//83 66//83
f 56//84 66//84 57//84
f 57//85 66//85 58//85
f 58//86 61//86 67//86
f 58//87 67//87 59//87
f 58//88 66//88 63//88
f 59//89 67//89 60//89
f 60//90 67//90 61//90
f 63//91 66//91 65//91
