# Blender 4.4.3
# www.blender.org
o socket8mm_collision_geom_11
v -0.107316 0.003534 -0.032767
v -0.107295 0.003337 -0.032767
v -0.107316 0.003534 -0.032271
v -0.107316 0.009672 -0.032767
v -0.107295 0.003337 -0.032271
v -0.107109 0.003246 -0.032767
v -0.107289 0.003346 -0.031939
v -0.107303 0.003534 -0.031939
v -0.107309 0.009672 -0.032109
v -0.107316 0.009672 -0.032271
v -0.102743 0.009672 -0.032767
v -0.107109 0.003246 -0.032271
v -0.107109 0.003256 -0.031939
v -0.106776 0.003185 -0.032767
v -0.107014 0.003290 -0.030611
v -0.107280 0.003360 -0.031745
v -0.107039 0.003279 -0.030943
v -0.107282 0.003534 -0.031731
v -0.107303 0.009672 -0.031939
v -0.102614 0.009672 -0.028114
v -0.102743 0.006854 -0.032767
v -0.106776 0.003187 -0.030943
v -0.106776 0.003185 -0.031275
v -0.106776 0.003199 -0.030611
v -0.105449 0.003185 -0.032767
v -0.106696 0.003288 -0.029615
v -0.106978 0.003324 -0.030279
v -0.106776 0.003232 -0.030279
v -0.106952 0.003355 -0.030088
v -0.107085 0.003534 -0.030611
v -0.107253 0.003866 -0.031565
v -0.107282 0.009672 -0.031731
v -0.102638 0.003866 -0.028114
v -0.102744 0.004530 -0.032767
v -0.106126 0.009672 -0.028114
v -0.106445 0.003197 -0.029615
v -0.106445 0.003185 -0.029947
v -0.105281 0.003189 -0.032767
v -0.103789 0.003186 -0.028287
v -0.103948 0.003185 -0.028114
v -0.106340 0.003308 -0.028619
v -0.106650 0.003322 -0.029341
v -0.106411 0.003277 -0.028951
v -0.106546 0.003534 -0.028951
v -0.106609 0.003534 -0.029120
v -0.106670 0.003534 -0.029287
v -0.106956 0.003534 -0.030075
v -0.107013 0.003534 -0.030279
v -0.107143 0.003866 -0.030943
v -0.107050 0.009672 -0.030449
v -0.107085 0.009672 -0.030611
v -0.107228 0.009672 -0.031424
v -0.107253 0.009672 -0.031565
v -0.102780 0.003534 -0.028114
v -0.102801 0.004066 -0.032767
v -0.102750 0.004198 -0.032767
v -0.102745 0.004362 -0.032767
v -0.106300 0.009672 -0.028416
v -0.106126 0.003534 -0.028114
v -0.106113 0.003217 -0.028619
v -0.106113 0.003185 -0.028951
v -0.105117 0.003193 -0.032767
v -0.103616 0.003190 -0.028114
v -0.103789 0.003186 -0.028114
v -0.105449 0.003185 -0.028114
v -0.106045 0.003303 -0.028114
v -0.106293 0.003349 -0.028429
v -0.106116 0.003286 -0.028306
v -0.106403 0.003534 -0.028619
v -0.106548 0.003866 -0.028951
v -0.106609 0.003866 -0.029120
v -0.106789 0.003866 -0.029615
v -0.106896 0.003866 -0.029909
v -0.106956 0.009672 -0.030075
v -0.107013 0.009672 -0.030279
v -0.107143 0.009672 -0.030943
v -0.102937 0.003362 -0.028114
v -0.102858 0.003938 -0.032767
v -0.106405 0.009672 -0.028619
v -0.106300 0.003534 -0.028416
v -0.105780 0.003188 -0.028287
v -0.105795 0.003223 -0.028114
v -0.105963 0.003273 -0.028114
v -0.105607 0.003187 -0.028114
v -0.104950 0.003224 -0.032767
v -0.103284 0.003232 -0.028114
v -0.103457 0.003205 -0.028114
v -0.106405 0.003866 -0.028619
v -0.106478 0.009672 -0.028789
v -0.106548 0.009672 -0.028951
v -0.106579 0.009672 -0.029038
v -0.106789 0.009672 -0.029615
v -0.106896 0.009672 -0.029909
v -0.102982 0.003318 -0.028114
v -0.103125 0.003790 -0.032767
v -0.104785 0.003255 -0.032767
v -0.104360 0.003392 -0.032767
vn -0.9946 -0.1042 -0.0000
vn -0.9945 -0.1044 -0.0000
vn -1.0000 -0.0000 -0.0000
vn -0.0000 -0.0000 -1.0000
vn -0.4404 -0.8978 -0.0000
vn -0.4403 -0.8978 -0.0000
vn -0.9943 -0.1043 0.0223
vn -0.9965 -0.0732 0.0400
vn -0.9992 -0.0000 0.0402
vn -0.9992 -0.0000 0.0398
vn -0.0000 1.0000 -0.0000
vn -0.4402 -0.8975 0.0275
vn -0.4501 -0.8923 0.0343
vn -0.1786 -0.9839 -0.0000
vn -0.5805 -0.8097 0.0859
vn -0.9959 -0.0731 0.0525
vn -0.4498 -0.8916 0.0520
vn -0.5059 -0.8599 0.0683
vn -0.9948 -0.0209 0.0992
vn -0.9951 -0.0000 0.0993
vn -0.9992 -0.0000 0.0405
vn 0.9996 -0.0002 -0.0277
vn -0.2855 -0.9579 0.0293
vn -0.1949 -0.9808 0.0056
vn -0.2957 -0.9547 0.0329
vn -0.3437 -0.9380 0.0456
vn -0.0000 -1.0000 -0.0000
vn -0.4372 -0.8888 0.1375
vn -0.7831 -0.6045 0.1462
vn -0.3592 -0.9314 0.0595
vn -0.3582 -0.9289 0.0942
vn -0.3957 -0.9099 0.1243
vn -0.9194 -0.3495 0.1806
vn -0.9683 -0.1610 0.1910
vn -0.9845 -0.0266 0.1731
vn -0.9849 -0.0007 0.1732
vn -0.9851 -0.0000 0.1718
vn 0.9997 -0.0042 -0.0232
vn -0.0000 -0.0000 1.0000
vn -0.0001 -0.0000 1.0000
vn -0.1085 -0.9935 0.0342
vn -0.0230 -0.9997 0.0057
vn -0.1083 -0.9935 0.0342
vn -0.2949 -0.9507 0.0964
vn 0.0227 -0.9997 -0.0083
vn 0.0030 -1.0000 -0.0010
vn -0.4772 -0.8584 0.1882
vn -0.5641 -0.8021 0.1959
vn -0.3389 -0.9332 0.1194
vn -0.3385 -0.9321 0.1292
vn -0.4590 -0.8696 0.1820
vn -0.5943 -0.7773 0.2065
vn -0.9091 -0.2127 0.3582
vn -0.9335 -0.0889 0.3474
vn -0.9378 -0.0555 0.3427
vn -0.9387 -0.0484 0.3414
vn -0.9627 -0.0437 0.2670
vn -0.9717 -0.1070 0.2104
vn -0.9849 -0.0003 0.1734
vn -0.9774 -0.0000 0.2116
vn -0.9774 -0.0000 0.2115
vn -0.9848 -0.0000 0.1736
vn -0.9849 -0.0000 0.1734
vn -0.9849 -0.0000 0.1733
vn 0.9183 -0.3928 -0.0490
vn 0.9315 -0.3605 -0.0481
vn 0.9993 -0.0279 -0.0260
vn 0.9996 -0.0110 -0.0242
vn -0.8663 -0.0000 0.4996
vn -0.3302 -0.9350 0.1291
vn -0.1027 -0.9941 0.0342
vn -0.2195 -0.9712 0.0930
vn 0.0270 -0.9996 -0.0097
vn 0.0387 -0.9992 -0.0132
vn 0.0256 -0.9997 -0.0000
vn 0.0040 -1.0000 -0.0000
vn -0.5295 -0.7933 0.3005
vn -0.7501 -0.5838 0.3107
vn -0.3679 -0.9148 0.1667
vn -0.3658 -0.9096 0.1968
vn -0.4059 -0.8852 0.2272
vn -0.9063 -0.2196 0.3612
vn -0.9097 -0.1390 0.3914
vn -0.9186 -0.0052 0.3952
vn -0.9372 -0.0052 0.3487
vn -0.9393 -0.0021 0.3432
vn -0.9397 -0.0006 0.3420
vn -0.9398 -0.0005 0.3419
vn -0.9398 -0.0006 0.3418
vn -0.9398 -0.0004 0.3416
vn -0.9401 -0.0000 0.3409
vn -0.9636 -0.0000 0.2673
vn -0.9773 -0.0000 0.2118
vn 0.7382 -0.6709 -0.0705
vn 0.9138 -0.4032 -0.0502
vn -0.8893 -0.0000 0.4573
vn -0.8643 -0.0674 0.4985
vn -0.7750 -0.2709 0.5709
vn -0.1779 -0.9796 0.0938
vn -0.2520 -0.9526 0.1703
vn -0.2817 -0.9408 0.1887
vn -0.3271 -0.9235 0.2003
vn -0.0120 -0.9999 0.0095
vn -0.0244 -0.9996 0.0170
vn 0.1791 -0.9818 -0.0625
vn 0.1521 -0.9870 -0.0518
vn 0.0916 -0.9953 -0.0302
vn -0.3289 -0.9226 0.2018
vn -0.8898 -0.0652 0.4516
vn -0.8917 -0.0037 0.4525
vn -0.9181 -0.0038 0.3963
vn -0.9181 -0.0001 0.3963
vn -0.9187 -0.0000 0.3948
vn -0.9394 -0.0000 0.3429
vn -0.9397 -0.0000 0.3420
vn -0.9398 -0.0000 0.3419
vn -0.9398 -0.0000 0.3418
vn -0.9398 -0.0000 0.3416
vn 0.6910 -0.7187 -0.0772
vn 0.4815 -0.8704 -0.1030
vn -0.9175 -0.0000 0.3977
vn -0.1862 -0.9661 0.1786
vn 0.1852 -0.9806 -0.0647
vn 0.2742 -0.9572 -0.0933
vn 0.3042 -0.9468 -0.1050
vn 0.3051 -0.9465 -0.1053
s 0
f 1//1 2//1 5//1
f 1//2 5//2 3//2
f 1//3 3//3 10//3
f 1//3 10//3 4//3
f 1//4 4//4 11//4
f 1//4 11//4 21//4
f 1//4 21//4 34//4
f 1//4 34//4 57//4
f 1//4 57//4 56//4
f 1//4 56//4 55//4
f 1//4 55//4 78//4
f 1//4 78//4 95//4
f 1//4 95//4 97//4
f 1//4 97//4 96//4
f 1//4 96//4 85//4
f 1//4 85//4 62//4
f 1//4 62//4 38//4
f 1//4 38//4 25//4
f 1//4 25//4 14//4
f 1//4 14//4 6//4
f 1//4 6//4 2//4
f 2//5 6//5 12//5
f 2//6 12//6 5//6
f 3//7 5//7 7//7
f 3//8 7//8 8//8
f 3//9 8//9 9//9
f 3//10 9//10 10//10
f 4//11 10//11 9//11
f 4//11 9//11 19//11
f 4//11 19//11 32//11
f 4//11 32//11 53//11
f 4//11 53//11 52//11
f 4//11 52//11 76//11
f 4//11 76//11 51//11
f 4//11 51//11 50//11
f 4//11 50//11 75//11
f 4//11 75//11 74//11
f 4//11 74//11 93//11
f 4//11 93//11 92//11
f 4//11 92//11 91//11
f 4//11 91//11 90//11
f 4//11 90//11 89//11
f 4//11 89//11 79//11
f 4//11 79//11 58//11
f 4//11 58//11 35//11
f 4//11 35//11 20//11
f 4//11 20//11 11//11
f 5//12 12//12 13//12
f 5//13 13//13 7//13
f 6//14 14//14 23//14
f 6//14 23//14 12//14
f 7//15 15//15 16//15
f 7//16 16//16 8//16
f 7//17 13//17 17//17
f 7//18 17//18 15//18
f 8//19 16//19 18//19
f 8//20 18//20 32//20
f 8//20 32//20 19//20
f 8//21 19//21 9//21
f 11//22 20//22 21//22
f 12//23 22//23 13//23
f 12//24 23//24 22//24
f 13//25 22//25 24//25
f 13//26 24//26 17//26
f 14//27 25//27 40//27
f 14//27 40//27 65//27
f 14//27 65//27 61//27
f 14//27 61//27 37//27
f 14//27 37//27 23//27
f 15//28 26//28 27//28
f 15//29 27//29 16//29
f 15//30 17//30 24//30
f 15//31 24//31 28//31
f 15//32 28//32 26//32
f 16//33 27//33 29//33
f 16//34 29//34 30//34
f 16//35 30//35 18//35
f 18//36 30//36 31//36
f 18//37 31//37 53//37
f 18//37 53//37 32//37
f 20//38 33//38 34//38
f 20//22 34//22 21//22
f 20//39 35//39 59//39
f 20//39 59//39 66//39
f 20//39 66//39 83//39
f 20//39 83//39 82//39
f 20//39 82//39 84//39
f 20//39 84//39 65//39
f 20//39 65//39 40//39
f 20//39 40//39 64//39
f 20//39 64//39 63//39
f 20//39 63//39 87//39
f 20//39 87//39 86//39
f 20//39 86//39 94//39
f 20//40 94//40 77//40
f 20//39 77//39 54//39
f 20//39 54//39 33//39
f 22//41 36//41 24//41
f 22//42 23//42 37//42
f 22//43 37//43 36//43
f 24//44 36//44 28//44
f 25//45 38//45 39//45
f 25//46 39//46 40//46
f 26//47 41//47 42//47
f 26//48 42//48 27//48
f 26//49 28//49 36//49
f 26//50 36//50 43//50
f 26//51 43//51 41//51
f 27//52 42//52 29//52
f 29//53 42//53 44//53
f 29//54 44//54 45//54
f 29//55 45//55 46//55
f 29//56 46//56 47//56
f 29//57 47//57 48//57
f 29//58 48//58 30//58
f 30//59 49//59 31//59
f 30//60 48//60 50//60
f 30//61 50//61 51//61
f 30//62 51//62 76//62
f 30//62 76//62 49//62
f 31//63 49//63 52//63
f 31//64 52//64 53//64
f 33//65 54//65 55//65
f 33//66 55//66 56//66
f 33//67 56//67 57//67
f 33//68 57//68 34//68
f 35//69 58//69 80//69
f 35//69 80//69 59//69
f 36//70 60//70 43//70
f 36//71 37//71 61//71
f 36//72 61//72 60//72
f 38//73 62//73 39//73
f 39//74 62//74 63//74
f 39//75 63//75 64//75
f 39//76 64//76 40//76
f 41//77 66//77 67//77
f 41//78 67//78 42//78
f 41//79 43//79 60//79
f 41//80 60//80 68//80
f 41//81 68//81 66//81
f 42//82 67//82 44//82
f 44//83 67//83 69//83
f 44//84 69//84 70//84
f 44//85 70//85 45//85
f 45//86 70//86 46//86
f 46//87 70//87 71//87
f 46//88 71//88 72//88
f 46//89 72//89 47//89
f 47//90 72//90 73//90
f 47//91 73//91 93//91
f 47//91 93//91 74//91
f 47//92 74//92 75//92
f 47//92 75//92 48//92
f 48//93 75//93 50//93
f 49//63 76//63 52//63
f 54//94 77//94 78//94
f 54//95 78//95 55//95
f 58//96 79//96 88//96
f 58//96 88//96 80//96
f 59//97 80//97 67//97
f 59//98 67//98 66//98
f 60//99 61//99 81//99
f 60//100 81//100 82//100
f 60//101 82//101 83//101
f 60//102 83//102 68//102
f 61//103 65//103 84//103
f 61//104 84//104 81//104
f 62//105 85//105 86//105
f 62//106 86//106 87//106
f 62//107 87//107 63//107
f 66//108 68//108 83//108
f 67//109 80//109 69//109
f 69//110 80//110 88//110
f 69//111 88//111 70//111
f 70//112 88//112 89//112
f 70//113 89//113 90//113
f 70//114 90//114 91//114
f 70//115 91//115 71//115
f 71//116 91//116 72//116
f 72//117 91//117 92//117
f 72//118 92//118 93//118
f 72//118 93//118 73//118
f 77//119 94//119 78//119
f 78//120 94//120 95//120
f 79//121 89//121 88//121
f 81//122 84//122 82//122
f 85//123 96//123 86//123
f 86//124 96//124 94//124
f 94//125 96//125 97//125
f 94//126 97//126 95//126
