# Blender 4.4.3
# www.blender.org
o socket11mm_collision_geom_10
v -0.028268 0.036749 -0.034984
v -0.028268 0.036749 -0.035259
v -0.031587 0.036751 -0.038911
v -0.031587 0.036728 -0.038579
v -0.028600 0.036713 -0.034984
v -0.027921 0.036662 -0.034984
v -0.028268 0.036724 -0.035591
v -0.028600 0.036749 -0.035923
v -0.029264 0.036749 -0.036919
v -0.030591 0.036748 -0.038247
v -0.030924 0.036746 -0.038579
v -0.031256 0.036716 -0.038911
v -0.031596 0.036657 -0.039254
v -0.031596 0.036749 -0.038911
v -0.031596 0.036749 -0.038903
v -0.031596 0.036727 -0.038579
v -0.031596 0.036664 -0.038246
v -0.028932 0.036636 -0.034984
v -0.031596 0.036725 -0.038571
v -0.028041 0.036633 -0.035591
v -0.027984 0.036657 -0.035259
v -0.027762 0.036401 -0.034984
v -0.028932 0.036746 -0.036587
v -0.028257 0.036657 -0.035916
v -0.028600 0.036716 -0.036255
v -0.029596 0.036723 -0.037583
v -0.029928 0.036723 -0.037915
v -0.030260 0.036707 -0.038247
v -0.030570 0.036674 -0.038602
v -0.030945 0.036647 -0.038912
v -0.031256 0.036625 -0.039141
v -0.031596 0.036475 -0.039383
v -0.031596 0.036590 -0.037931
v -0.029557 0.036473 -0.034984
v -0.029317 0.036538 -0.034984
v -0.029179 0.036574 -0.034984
v -0.028081 0.036595 -0.035800
v -0.028370 0.036625 -0.036255
v -0.027761 0.036069 -0.034984
v -0.027981 0.036401 -0.035591
v -0.028909 0.036674 -0.036940
v -0.029264 0.036707 -0.037251
v -0.028598 0.036647 -0.036566
v -0.029614 0.036633 -0.037897
v -0.029958 0.036620 -0.038226
v -0.030260 0.036616 -0.038485
v -0.030667 0.036623 -0.038803
v -0.031070 0.036583 -0.039088
v -0.031524 0.036401 -0.039354
v -0.031596 0.036401 -0.039391
v -0.031596 0.036514 -0.037612
v -0.029596 0.036462 -0.034984
v -0.028422 0.036583 -0.036441
v -0.028072 0.036401 -0.035821
v -0.028156 0.036401 -0.035987
v -0.028708 0.036623 -0.036844
v -0.027734 0.022452 -0.034984
v -0.027954 0.022452 -0.035591
v -0.029025 0.036616 -0.037251
v -0.029284 0.036620 -0.037552
v -0.029409 0.036591 -0.037774
v -0.029737 0.036591 -0.038102
v -0.030090 0.036571 -0.038416
v -0.030456 0.036401 -0.038721
v -0.030622 0.036401 -0.038832
v -0.030894 0.036401 -0.038998
v -0.031060 0.036401 -0.039094
v -0.031256 0.036401 -0.039205
v -0.031495 0.022452 -0.039368
v -0.031596 0.022452 -0.039418
v -0.031596 0.036361 -0.037201
v -0.031112 0.036255 -0.036051
v -0.030918 0.036289 -0.035933
v -0.030804 0.036262 -0.035724
v -0.029880 0.036328 -0.034984
v -0.028305 0.036401 -0.036255
v -0.028417 0.036401 -0.036451
v -0.028513 0.036401 -0.036617
v -0.028679 0.036401 -0.036889
v -0.028790 0.036401 -0.037055
v -0.028055 0.022452 -0.035841
v -0.028058 0.022452 -0.035847
v -0.028140 0.022452 -0.036010
v -0.029095 0.036571 -0.037421
v -0.030724 0.022452 -0.034984
v -0.029399 0.036401 -0.037786
v -0.029559 0.036401 -0.037952
v -0.029725 0.036401 -0.038112
v -0.030088 0.036401 -0.038417
v -0.030260 0.036401 -0.038559
v -0.030251 0.022452 -0.038588
v -0.030436 0.022452 -0.038738
v -0.030576 0.022452 -0.038830
v -0.030581 0.022452 -0.038833
v -0.030867 0.022452 -0.039009
v -0.031032 0.022452 -0.039106
v -0.031250 0.022452 -0.039231
v -0.031596 0.022452 -0.036099
v -0.031596 0.036205 -0.037001
v -0.031447 0.036265 -0.036700
v -0.031131 0.036069 -0.036016
v -0.031007 0.036069 -0.035850
v -0.030841 0.036069 -0.035698
v -0.030004 0.036069 -0.034984
v -0.029922 0.036249 -0.034984
v -0.028276 0.022452 -0.036255
v -0.028403 0.022452 -0.036475
v -0.028498 0.022452 -0.036638
v -0.028681 0.022452 -0.036935
v -0.028773 0.022452 -0.037075
v -0.028951 0.036401 -0.037251
v -0.028923 0.022452 -0.037259
v -0.029093 0.036401 -0.037422
v -0.029233 0.036401 -0.037588
v -0.030724 0.027107 -0.034984
v -0.029191 0.022452 -0.037581
v -0.029383 0.022452 -0.037805
v -0.029540 0.022452 -0.037970
v -0.029702 0.022452 -0.038125
v -0.029706 0.022452 -0.038128
v -0.029910 0.022452 -0.038303
v -0.029930 0.022452 -0.038320
v -0.031596 0.027439 -0.036099
v -0.031596 0.036069 -0.036921
v -0.031140 0.035737 -0.036001
v -0.031020 0.035737 -0.035835
v -0.030698 0.027769 -0.034984
v -0.030724 0.027439 -0.034984
v -0.031596 0.027573 -0.036111
vn 0.0004 1.0000 -0.0000
vn -0.0789 0.9946 0.0671
vn -0.1085 0.9896 0.0944
vn -0.0000 -0.0000 1.0000
vn 0.0001 -0.0000 1.0000
vn -0.0001 -0.0000 1.0000
vn 0.2424 0.9702 -0.0000
vn 0.1497 0.9859 -0.0748
vn 0.0009 1.0000 -0.0005
vn 0.2954 0.9526 -0.0723
vn 0.0014 1.0000 -0.0009
vn 0.0105 0.9999 -0.0116
vn 0.0169 0.9996 -0.0212
vn 0.1029 0.9757 -0.1933
vn 0.1011 0.9592 -0.2641
vn -0.1597 0.9534 -0.2561
vn -0.1651 0.9863 -0.0000
vn -0.1034 0.9924 0.0669
vn -0.1662 0.9837 0.0680
vn -0.1649 0.9762 0.1411
vn -0.2219 0.9565 0.1894
vn -0.2016 0.9643 0.1718
vn -0.2139 0.9597 0.1820
vn 0.6509 0.7410 -0.1650
vn 0.3342 0.9376 -0.0961
vn 0.8398 0.5081 -0.1912
vn 0.1579 0.9840 -0.0831
vn 0.3692 0.9203 -0.1294
vn 0.3665 0.9135 -0.1764
vn 0.3363 0.9244 -0.1798
vn 0.2047 0.9721 -0.1146
vn 0.0253 0.9995 -0.0169
vn 0.0961 0.9915 -0.0878
vn 0.0797 0.9936 -0.0797
vn 0.0765 0.9940 -0.0775
vn 0.0798 0.9932 -0.0842
vn 0.1585 0.9662 -0.2032
vn 0.1799 0.9520 -0.2478
vn 0.1778 0.9475 -0.2656
vn 0.2023 0.9246 -0.3229
vn 0.1997 0.9137 -0.3538
vn 0.2110 0.9025 -0.3756
vn 0.3114 0.5481 -0.7763
vn -1.0000 -0.0000 -0.0000
vn -1.0000 0.0001 -0.0000
vn -1.0000 -0.0002 -0.0000
vn -1.0000 0.0002 -0.0000
vn -0.2663 0.9382 0.2211
vn -0.2528 0.9438 0.2130
vn -0.2499 0.9450 0.2111
vn -0.2365 0.9506 0.2012
vn 0.4714 0.8476 -0.2438
vn 0.4399 0.8685 -0.2285
vn 0.8764 0.4156 -0.2433
vn 0.9410 0.0032 -0.3383
vn 0.9340 0.1223 -0.3358
vn 0.2656 0.9475 -0.1778
vn 0.2472 0.9521 -0.1800
vn 0.2041 0.9659 -0.1592
vn 0.3746 0.9031 -0.2101
vn 0.3540 0.9137 -0.1995
vn 0.3225 0.9247 -0.2021
vn 0.3197 0.9060 -0.2775
vn 0.2789 0.9190 -0.2788
vn 0.2776 0.9060 -0.3195
vn 0.2823 0.9011 -0.3292
vn 0.2822 0.8999 -0.3325
vn 0.2984 0.8835 -0.3612
vn 0.2993 0.8818 -0.3644
vn 0.2090 0.9203 -0.3307
vn 0.2362 0.8820 -0.4077
vn 0.3312 0.7487 -0.5742
vn 0.3385 0.5100 -0.7908
vn 0.4676 0.1142 -0.8765
vn 0.4507 0.0935 -0.8877
vn -0.2678 0.9375 0.2221
vn -0.2717 0.9357 0.2250
vn 0.6015 0.7256 -0.3342
vn 0.9266 0.0860 -0.3661
vn 0.8867 0.0932 -0.4528
vn 0.8765 0.1121 -0.4683
vn 0.5745 0.7483 -0.3317
vn 0.4089 0.8813 -0.2368
vn 0.9408 0.0019 -0.3390
vn 0.9403 0.0018 -0.3404
vn 0.9301 0.0018 -0.3674
vn 0.3309 0.9201 -0.2094
vn 0.3646 0.8816 -0.2998
vn 0.3615 0.8831 -0.2989
vn 0.3313 0.9004 -0.2818
vn 0.3289 0.9013 -0.2819
vn 0.3709 0.8705 -0.3233
vn 0.4121 0.8126 -0.4121
vn 0.3235 0.8705 -0.3710
vn 0.3434 0.8437 -0.4127
vn 0.4077 0.7600 -0.5061
vn 0.5562 0.2314 -0.7982
vn 0.5488 0.2214 -0.8061
vn 0.5459 0.1934 -0.8152
vn 0.5197 0.0788 -0.8507
vn 0.4998 0.0528 -0.8645
vn 0.4951 0.0526 -0.8672
vn 0.4840 0.0673 -0.8725
vn 0.4852 0.0019 -0.8744
vn 0.4526 0.0018 -0.8917
vn 0.4465 0.0018 -0.8948
vn -0.5275 0.7965 0.2956
vn -0.3103 0.9177 0.2483
vn -0.2960 0.9237 0.2434
vn -0.3279 0.8983 0.2924
vn -0.3892 0.8234 0.4129
vn 0.8726 0.0681 -0.4836
vn 0.8666 0.0513 -0.4963
vn 0.8657 0.0513 -0.4979
vn 0.8512 0.0789 -0.5190
vn 0.8145 0.1966 -0.5458
vn 0.8059 0.2229 -0.5485
vn 0.9271 0.0016 -0.3749
vn 0.9073 0.0017 -0.4206
vn 0.8947 0.0017 -0.4467
vn 0.8906 0.0018 -0.4548
vn 0.8746 0.0019 -0.4848
vn 0.7977 0.2332 -0.5561
vn 0.5048 0.7613 -0.4070
vn 0.5023 0.7639 -0.4052
vn -0.0000 -1.0000 -0.0000
vn -0.0000 -1.0000 -0.0009
vn -0.0000 -1.0000 0.0002
vn 0.4120 0.8443 -0.3427
vn 0.7468 0.0807 -0.6602
vn 0.7168 0.0811 -0.6926
vn 0.7035 0.1016 -0.7034
vn 0.6930 0.0816 -0.7163
vn 0.6597 0.0811 -0.7471
vn 0.6428 0.0115 -0.7660
vn 0.6381 0.0115 -0.7698
vn 0.6347 0.0172 -0.7726
vn 0.6348 0.0020 -0.7726
vn 0.6314 0.0019 -0.7755
vn 0.5564 0.0018 -0.8309
vn 0.5458 0.0017 -0.8379
vn 0.5266 0.0016 -0.8501
vn 0.5254 0.0016 -0.8509
vn 0.5213 0.0017 -0.8534
vn 0.5048 0.0017 -0.8633
vn 0.5006 0.0017 -0.8657
vn 0.5005 0.0017 -0.8658
vn 0.4958 0.0018 -0.8684
vn 0.4862 0.0018 -0.8738
vn -0.8431 0.4233 0.3316
vn -0.5956 0.7373 0.3188
vn -0.8734 0.1769 0.4538
vn -0.7850 0.1927 0.5887
vn -0.6967 0.3067 0.6485
vn -0.3351 0.8945 0.2959
vn -0.6587 0.2204 0.7194
vn -0.6334 0.2187 0.7422
vn -0.6154 0.2770 0.7379
vn -0.6049 0.3266 0.7262
vn 0.8744 0.0018 -0.4852
vn 0.8677 0.0018 -0.4970
vn 0.8668 0.0018 -0.4986
vn 0.8657 0.0017 -0.5005
vn 0.8637 0.0017 -0.5040
vn 0.8538 0.0017 -0.5206
vn 0.8505 0.0016 -0.5259
vn 0.8373 0.0016 -0.5468
vn 0.8307 0.0018 -0.5567
vn 0.7715 0.0152 -0.6361
vn 0.7750 0.0018 -0.6319
vn 0.7716 0.0019 -0.6361
vn 0.7698 0.0117 -0.6381
vn 0.7660 0.0117 -0.6427
vn 0.7649 0.0139 -0.6440
vn -0.7880 -0.0000 0.6157
vn 0.7650 0.0019 -0.6440
vn 0.7592 0.0018 -0.6509
vn 0.7248 0.0018 -0.6890
vn 0.7191 0.0019 -0.6949
vn 0.6954 0.0019 -0.7187
vn 0.6897 0.0018 -0.7241
vn 0.6660 0.0018 -0.7460
vn 0.6510 0.0018 -0.7591
vn 0.6456 0.0019 -0.7637
vn 0.6429 0.0020 -0.7660
vn 0.6403 0.0019 -0.7681
vn 0.6382 0.0020 -0.7699
vn -0.8899 0.2313 0.3931
vn -0.8786 0.1578 0.4507
vn -0.8889 0.0442 0.4560
vn -0.8096 0.0480 0.5850
vn -0.7986 0.0593 0.5989
vn -0.6741 0.0606 0.7362
vn -0.6657 0.0527 0.7444
vn -0.6482 0.0543 0.7595
vn 0.7699 0.0019 -0.6381
vn 0.7683 0.0019 -0.6401
vn 0.7661 0.0019 -0.6427
vn -0.7879 0.0009 0.6158
vn -0.7874 0.0350 0.6155
vn -0.8100 0.0375 0.5853
vn -0.8804 0.0428 0.4724
vn -0.8890 0.0435 0.4558
vn -0.6733 0.0516 0.7375
s 0
f 1//1 2//1 3//1
f 1//2 3//2 4//2
f 1//3 4//3 5//3
f 1//4 5//4 18//4
f 1//5 18//5 36//5
f 1//6 36//6 35//6
f 1//4 35//4 34//4
f 1//5 34//5 52//5
f 1//4 52//4 75//4
f 1//4 75//4 105//4
f 1//4 105//4 104//4
f 1//4 104//4 127//4
f 1//4 127//4 128//4
f 1//6 128//6 115//6
f 1//4 115//4 85//4
f 1//4 85//4 57//4
f 1//4 57//4 39//4
f 1//4 39//4 22//4
f 1//4 22//4 6//4
f 1//7 6//7 2//7
f 2//8 7//8 8//8
f 2//9 8//9 3//9
f 2//10 6//10 7//10
f 3//11 8//11 9//11
f 3//12 9//12 10//12
f 3//13 10//13 11//13
f 3//14 11//14 12//14
f 3//15 12//15 13//15
f 3//16 13//16 14//16
f 3//17 14//17 15//17
f 3//18 15//18 4//18
f 4//19 15//19 16//19
f 4//20 16//20 5//20
f 5//21 17//21 18//21
f 5//22 16//22 19//22
f 5//23 19//23 17//23
f 6//24 20//24 21//24
f 6//25 21//25 7//25
f 6//26 22//26 20//26
f 7//27 23//27 8//27
f 7//28 21//28 20//28
f 7//29 20//29 24//29
f 7//30 24//30 25//30
f 7//31 25//31 23//31
f 8//32 23//32 9//32
f 9//33 23//33 26//33
f 9//34 26//34 27//34
f 9//35 27//35 10//35
f 10//36 27//36 11//36
f 11//37 27//37 28//37
f 11//38 28//38 29//38
f 11//39 29//39 12//39
f 12//40 29//40 30//40
f 12//41 30//41 13//41
f 13//42 30//42 31//42
f 13//43 31//43 32//43
f 13//44 32//44 50//44
f 13//44 50//44 70//44
f 13//44 70//44 98//44
f 13//44 98//44 123//44
f 13//44 123//44 129//44
f 13//44 129//44 124//44
f 13//44 124//44 99//44
f 13//44 99//44 71//44
f 13//44 71//44 51//44
f 13//45 51//45 33//45
f 13//44 33//44 17//44
f 13//44 17//44 19//44
f 13//46 19//46 16//46
f 13//44 16//44 15//44
f 13//47 15//47 14//47
f 17//48 33//48 34//48
f 17//49 34//49 35//49
f 17//50 35//50 36//50
f 17//51 36//51 18//51
f 20//52 37//52 38//52
f 20//53 38//53 24//53
f 20//54 22//54 37//54
f 22//55 39//55 40//55
f 22//56 40//56 37//56
f 23//57 25//57 41//57
f 23//58 41//58 42//58
f 23//59 42//59 26//59
f 24//60 38//60 43//60
f 24//61 43//61 25//61
f 25//62 43//62 41//62
f 26//63 42//63 44//63
f 26//64 44//64 27//64
f 27//65 44//65 28//65
f 28//66 44//66 45//66
f 28//67 45//67 29//67
f 29//68 45//68 46//68
f 29//69 46//69 47//69
f 29//70 47//70 30//70
f 30//71 47//71 31//71
f 31//72 47//72 48//72
f 31//73 48//73 32//73
f 32//74 48//74 49//74
f 32//75 49//75 50//75
f 33//76 51//76 34//76
f 34//77 51//77 52//77
f 37//78 53//78 38//78
f 37//79 40//79 54//79
f 37//80 54//80 55//80
f 37//81 55//81 53//81
f 38//82 53//82 56//82
f 38//83 56//83 43//83
f 39//84 57//84 40//84
f 40//85 57//85 58//85
f 40//86 58//86 54//86
f 41//87 43//87 56//87
f 41//88 56//88 59//88
f 41//89 59//89 60//89
f 41//90 60//90 42//90
f 42//91 60//91 44//91
f 44//92 60//92 61//92
f 44//93 61//93 62//93
f 44//94 62//94 45//94
f 45//95 62//95 46//95
f 46//96 62//96 63//96
f 46//96 63//96 47//96
f 47//97 63//97 64//97
f 47//98 64//98 48//98
f 48//99 64//99 65//99
f 48//100 65//100 66//100
f 48//101 66//101 67//101
f 48//102 67//102 68//102
f 48//103 68//103 49//103
f 49//104 68//104 69//104
f 49//105 69//105 50//105
f 50//106 69//106 70//106
f 51//107 71//107 72//107
f 51//108 72//108 73//108
f 51//109 73//109 52//109
f 52//110 73//110 74//110
f 52//111 74//111 75//111
f 53//112 55//112 76//112
f 53//113 76//113 77//113
f 53//114 77//114 78//114
f 53//115 78//115 79//115
f 53//116 79//116 80//116
f 53//117 80//117 56//117
f 54//118 58//118 81//118
f 54//119 81//119 82//119
f 54//120 82//120 83//120
f 54//121 83//121 55//121
f 55//122 83//122 76//122
f 56//123 80//123 84//123
f 56//124 84//124 61//124
f 56//125 61//125 59//125
f 57//126 85//126 98//126
f 57//126 98//126 70//126
f 57//126 70//126 69//126
f 57//126 69//126 97//126
f 57//126 97//126 96//126
f 57//126 96//126 95//126
f 57//126 95//126 94//126
f 57//127 94//127 93//127
f 57//126 93//126 92//126
f 57//126 92//126 91//126
f 57//126 91//126 122//126
f 57//126 122//126 121//126
f 57//126 121//126 120//126
f 57//126 120//126 119//126
f 57//126 119//126 118//126
f 57//126 118//126 117//126
f 57//126 117//126 116//126
f 57//126 116//126 112//126
f 57//126 112//126 110//126
f 57//126 110//126 109//126
f 57//126 109//126 108//126
f 57//126 108//126 107//126
f 57//126 107//126 106//126
f 57//126 106//126 83//126
f 57//126 83//126 82//126
f 57//128 82//128 81//128
f 57//126 81//126 58//126
f 59//129 61//129 60//129
f 61//130 84//130 86//130
f 61//131 86//131 87//131
f 61//132 87//132 62//132
f 62//133 87//133 88//133
f 62//134 88//134 63//134
f 63//135 88//135 89//135
f 63//136 89//136 90//136
f 63//137 90//137 64//137
f 64//138 90//138 91//138
f 64//139 91//139 92//139
f 64//140 92//140 65//140
f 65//141 92//141 93//141
f 65//142 93//142 94//142
f 65//143 94//143 95//143
f 65//144 95//144 66//144
f 66//145 95//145 96//145
f 66//146 96//146 97//146
f 66//147 97//147 67//147
f 67//148 97//148 68//148
f 68//149 97//149 69//149
f 71//150 99//150 100//150
f 71//151 100//151 72//151
f 72//152 100//152 101//152
f 72//153 101//153 102//153
f 72//154 102//154 74//154
f 72//155 74//155 73//155
f 74//156 102//156 103//156
f 74//157 103//157 104//157
f 74//158 104//158 105//158
f 74//159 105//159 75//159
f 76//160 83//160 106//160
f 76//161 106//161 77//161
f 77//162 106//162 78//162
f 78//163 106//163 107//163
f 78//164 107//164 108//164
f 78//165 108//165 79//165
f 79//166 108//166 109//166
f 79//167 109//167 110//167
f 79//168 110//168 80//168
f 80//169 111//169 84//169
f 80//170 110//170 112//170
f 80//171 112//171 111//171
f 84//172 111//172 113//172
f 84//173 113//173 114//173
f 84//174 114//174 86//174
f 85//175 115//175 123//175
f 85//175 123//175 98//175
f 86//176 114//176 116//176
f 86//177 116//177 117//177
f 86//178 117//178 118//178
f 86//179 118//179 87//179
f 87//180 118//180 88//180
f 88//181 118//181 119//181
f 88//182 119//182 120//182
f 88//183 120//183 121//183
f 88//184 121//184 122//184
f 88//185 122//185 89//185
f 89//186 122//186 91//186
f 89//187 91//187 90//187
f 99//188 124//188 100//188
f 100//189 124//189 101//189
f 101//190 124//190 125//190
f 101//191 125//191 126//191
f 101//192 126//192 102//192
f 102//193 126//193 103//193
f 103//194 126//194 127//194
f 103//195 127//195 104//195
f 111//196 112//196 113//196
f 112//197 116//197 113//197
f 113//198 116//198 114//198
f 115//199 128//199 123//199
f 123//200 128//200 126//200
f 123//201 126//201 125//201
f 123//202 125//202 129//202
f 124//203 129//203 125//203
f 126//204 128//204 127//204
