# Blender 4.4.3
# www.blender.org
o socket10mm_collision_geom_25
v -0.058973 0.022758 -0.028319
v -0.058973 0.022758 -0.030191
v -0.060801 0.022758 -0.028319
v -0.058973 0.010167 -0.028319
v -0.059862 0.022758 -0.032767
v -0.058973 0.010839 -0.030191
v -0.060801 0.022758 -0.032767
v -0.060801 0.010066 -0.028319
v -0.060201 0.010099 -0.028319
v -0.060801 0.009856 -0.032767
v -0.058973 0.010176 -0.029392
v -0.059862 0.010839 -0.032767
v -0.058973 0.010506 -0.030184
v -0.059864 0.010506 -0.032767
v -0.059946 0.010260 -0.032767
v -0.058973 0.010193 -0.029724
v -0.058973 0.010187 -0.029615
v -0.058973 0.010301 -0.030116
v -0.058973 0.010265 -0.030038
vn -0.0000 1.0000 -0.0000
vn -0.0000 -0.0000 1.0000
vn 1.0000 -0.0000 -0.0000
vn 0.9452 -0.0000 -0.3264
vn -1.0000 -0.0000 -0.0000
vn 0.0554 -0.9974 0.0469
vn 0.1866 -0.9824 -0.0081
vn 0.0006 -0.0000 -1.0000
vn -0.0000 -0.0000 -1.0000
vn 0.9453 -0.0069 -0.3263
vn 0.9452 -0.0061 -0.3263
vn 0.0546 -0.9974 0.0470
vn 0.4223 -0.8932 -0.1547
vn 0.2704 -0.9611 -0.0559
vn 0.2592 -0.9646 -0.0491
vn 0.9398 -0.1070 -0.3244
vn 0.8973 -0.2987 -0.3250
vn 0.7582 -0.5937 -0.2694
vn 0.5330 -0.8248 -0.1886
s 0
f 1//1 2//1 5//1
f 1//1 5//1 7//1
f 1//1 7//1 3//1
f 1//2 3//2 8//2
f 1//2 8//2 9//2
f 1//2 9//2 4//2
f 1//3 4//3 11//3
f 1//3 11//3 17//3
f 1//3 17//3 16//3
f 1//3 16//3 19//3
f 1//3 19//3 18//3
f 1//3 18//3 13//3
f 1//3 13//3 6//3
f 1//3 6//3 2//3
f 2//4 6//4 12//4
f 2//4 12//4 5//4
f 3//5 7//5 10//5
f 3//5 10//5 8//5
f 4//6 9//6 10//6
f 4//7 10//7 11//7
f 5//8 12//8 14//8
f 5//9 14//9 15//9
f 5//9 15//9 10//9
f 5//9 10//9 7//9
f 6//10 13//10 14//10
f 6//11 14//11 12//11
f 8//12 10//12 9//12
f 10//13 15//13 16//13
f 10//14 16//14 17//14
f 10//15 17//15 11//15
f 13//16 18//16 14//16
f 14//17 18//17 15//17
f 15//18 18//18 19//18
f 15//19 19//19 16//19
