# Blender 4.4.3
# www.blender.org
o socket11mm_collision_geom_5
v -0.032535 0.022452 -0.028746
v -0.031411 0.022452 -0.029622
v -0.032535 0.022452 -0.026512
v -0.032535 0.027107 -0.028746
v -0.028092 0.022452 -0.029622
v -0.031411 0.027439 -0.029622
v -0.032269 0.022452 -0.025855
v -0.032535 0.022455 -0.025758
v -0.032535 0.027439 -0.028746
v -0.028142 0.022452 -0.029521
v -0.028120 0.036401 -0.029622
v -0.031675 0.035737 -0.029047
v -0.031509 0.035737 -0.029166
v -0.031399 0.027572 -0.029622
v -0.032267 0.022452 -0.025855
v -0.031919 0.022452 -0.025981
v -0.031919 0.036401 -0.026007
v -0.032535 0.036069 -0.025785
v -0.032535 0.027773 -0.028719
v -0.028275 0.022452 -0.029283
v -0.028156 0.036401 -0.029551
v -0.028305 0.036401 -0.029283
v -0.028128 0.036475 -0.029622
v -0.031812 0.036069 -0.028867
v -0.031660 0.036069 -0.029033
v -0.031494 0.036069 -0.029158
v -0.030590 0.036066 -0.029622
v -0.031669 0.022452 -0.026082
v -0.031689 0.036401 -0.026098
v -0.031710 0.036595 -0.026109
v -0.032535 0.036401 -0.025786
v -0.032535 0.036069 -0.028027
v -0.028404 0.022452 -0.029058
v -0.028417 0.036401 -0.029087
v -0.028422 0.036583 -0.029097
v -0.028257 0.036657 -0.029622
v -0.028370 0.036625 -0.029283
v -0.031787 0.036261 -0.028831
v -0.031460 0.036255 -0.029138
v -0.030809 0.036263 -0.029474
v -0.030589 0.036069 -0.029622
v -0.031662 0.022452 -0.026085
v -0.031523 0.036401 -0.026183
v -0.031499 0.022452 -0.026166
v -0.031069 0.036583 -0.026449
v -0.031255 0.036625 -0.026397
v -0.031919 0.036633 -0.026068
v -0.032535 0.036662 -0.025946
v -0.032535 0.036259 -0.027941
v -0.028501 0.022452 -0.028893
v -0.028513 0.036401 -0.028921
v -0.028708 0.036623 -0.028694
v -0.028790 0.036401 -0.028483
v -0.028679 0.036401 -0.028649
v -0.028280 0.036664 -0.029622
v -0.028600 0.036716 -0.029283
v -0.028598 0.036647 -0.028972
v -0.032535 0.036326 -0.027905
v -0.032535 0.036440 -0.027678
v -0.032535 0.036461 -0.027623
v -0.031577 0.036289 -0.028945
v -0.030313 0.036360 -0.029622
v -0.029928 0.036507 -0.029622
v -0.030510 0.036206 -0.029622
v -0.031255 0.036401 -0.026332
v -0.031255 0.022452 -0.026302
v -0.030667 0.036623 -0.026734
v -0.031059 0.036401 -0.026444
v -0.030893 0.036401 -0.026540
v -0.030621 0.036401 -0.026706
v -0.030456 0.036401 -0.026817
v -0.030945 0.036647 -0.026625
v -0.031595 0.036657 -0.026284
v -0.031919 0.036724 -0.026295
v -0.032252 0.036657 -0.026011
v -0.032535 0.036672 -0.025974
v -0.028678 0.022452 -0.028607
v -0.029025 0.036616 -0.028287
v -0.029409 0.036591 -0.027764
v -0.029095 0.036571 -0.028117
v -0.028909 0.036674 -0.028598
v -0.028951 0.036401 -0.028287
v -0.028922 0.022452 -0.028278
v -0.028788 0.036069 -0.028484
v -0.028685 0.022452 -0.028596
v -0.028593 0.036749 -0.029622
v -0.028600 0.036751 -0.029615
v -0.028932 0.036746 -0.028951
v -0.032535 0.036529 -0.027376
v -0.029265 0.036665 -0.029622
v -0.031035 0.022452 -0.026429
v -0.030090 0.036571 -0.027122
v -0.029737 0.036591 -0.027436
v -0.030260 0.036616 -0.027052
v -0.030570 0.036674 -0.026936
v -0.030872 0.022452 -0.026525
v -0.030576 0.022452 -0.026708
v -0.030569 0.022452 -0.026712
v -0.030457 0.036069 -0.026816
v -0.030261 0.022452 -0.026941
v -0.030260 0.036401 -0.026978
v -0.031255 0.036716 -0.026627
v -0.030924 0.036746 -0.026959
v -0.031588 0.036749 -0.026627
v -0.032252 0.036749 -0.026295
v -0.032535 0.036749 -0.026295
v -0.029285 0.036620 -0.027986
v -0.029614 0.036633 -0.027641
v -0.029559 0.036401 -0.027586
v -0.029399 0.036401 -0.027752
v -0.029232 0.036401 -0.027949
v -0.029093 0.036401 -0.028115
v -0.029264 0.036707 -0.028287
v -0.029207 0.022452 -0.027936
v -0.028600 0.036749 -0.029622
v -0.030591 0.036749 -0.027291
v -0.029264 0.036748 -0.028619
v -0.028925 0.036728 -0.029622
v -0.029596 0.036723 -0.027955
v -0.032535 0.036626 -0.026999
v -0.032535 0.036636 -0.026959
v -0.032535 0.036703 -0.026676
v -0.029257 0.036667 -0.029622
v -0.030088 0.036401 -0.027120
v -0.029922 0.036401 -0.027259
v -0.029725 0.036401 -0.027426
v -0.029959 0.036620 -0.027312
v -0.030260 0.036707 -0.027291
v -0.029930 0.022452 -0.027217
v -0.029928 0.036723 -0.027623
v -0.032535 0.036745 -0.026344
v -0.029542 0.022452 -0.027565
v -0.029539 0.022452 -0.027567
v -0.029382 0.022452 -0.027732
v -0.032535 0.036713 -0.026627
v -0.029709 0.022452 -0.027406
v -0.029705 0.022452 -0.027410
vn -0.0000 -1.0000 -0.0000
vn -0.0000 -1.0000 0.0012
vn -0.0000 -1.0000 0.0006
vn -0.0000 -1.0000 0.0001
vn -0.0000 -1.0000 -0.0001
vn -1.0000 -0.0000 -0.0000
vn -0.6145 -0.0000 -0.7889
vn -0.0000 -0.0000 -1.0000
vn 0.0044 -0.0000 -1.0000
vn -0.0001 -0.0000 -1.0000
vn -0.0092 -1.0000 0.0037
vn -0.6147 0.0009 -0.7888
vn 0.8955 0.0018 0.4451
vn -0.6143 0.0351 -0.7883
vn -0.5848 0.0375 -0.8103
vn -0.4683 0.0429 -0.8825
vn 0.1715 -0.8415 0.5122
vn 0.3193 -0.3347 0.8866
vn 0.3404 0.0018 0.9403
vn 0.3390 0.0019 0.9408
vn -0.7430 0.0528 -0.6672
vn 0.8917 0.0018 0.4527
vn 0.8742 0.0019 0.4855
vn 0.8741 0.0019 0.4858
vn 0.8877 0.0938 0.4507
vn -0.7358 0.0607 -0.6745
vn -0.5985 0.0594 -0.7989
vn -0.5846 0.0481 -0.8099
vn -0.7438 0.0529 -0.6663
vn -0.4561 0.0442 -0.8888
vn -0.4559 0.0434 -0.8890
vn 0.3751 0.0016 0.9270
vn 0.3678 0.0018 0.9299
vn 0.3663 0.0888 0.9262
vn 0.3362 0.1249 0.9335
vn 0.3389 0.0022 0.9408
vn -0.7572 0.0544 -0.6509
vn 0.8686 0.0019 0.4955
vn 0.8659 0.0018 0.5003
vn 0.8765 0.1142 0.4677
vn 0.8723 0.0664 0.4845
vn 0.8674 0.0527 0.4948
vn 0.7753 0.5503 0.3099
vn 0.7903 0.5109 0.3381
vn -0.7401 0.2178 -0.6362
vn -0.7192 0.2194 -0.6593
vn -0.6497 0.3047 -0.6965
vn -0.5888 0.1887 -0.7860
vn -0.4532 0.1732 -0.8744
vn -0.4508 0.1580 -0.8786
vn -0.4546 0.0719 -0.8878
vn 0.3759 0.0016 0.9267
vn 0.4532 0.0962 0.8862
vn 0.4479 0.0017 0.8941
vn 0.4553 0.0018 0.8903
vn 0.3328 0.7279 0.5995
vn 0.2444 0.8470 0.4720
vn 0.2447 0.4167 0.8755
vn 0.4679 0.1140 0.8764
vn 0.1907 0.5128 0.8370
vn -0.7358 0.2764 -0.6182
vn 0.8655 0.0018 0.5010
vn 0.8630 0.0017 0.5052
vn 0.8643 0.0529 0.5002
vn 0.5736 0.7494 0.3307
vn 0.8062 0.2216 0.5486
vn 0.8165 0.1896 0.5453
vn 0.8508 0.0783 0.5197
vn 0.2881 0.9492 0.1269
vn 0.3531 0.9142 0.1990
vn 0.3756 0.9025 0.2105
vn 0.4092 0.8812 0.2367
vn -0.7224 0.3314 -0.6069
vn -0.4289 0.8081 -0.4037
vn -0.3141 0.8859 -0.3413
vn -0.3017 0.8927 -0.3348
vn -0.3038 0.8903 -0.3393
vn -0.3219 0.7274 -0.6061
vn -0.2489 0.9174 -0.3106
vn -0.3000 0.7855 -0.5413
vn -0.3958 0.2284 -0.8895
vn -0.3334 0.4275 -0.8403
vn 0.4841 0.0676 0.8724
vn 0.4852 0.0019 0.8744
vn 0.4853 0.0019 0.8744
vn 0.3302 0.7503 0.5727
vn 0.4950 0.0531 0.8673
vn 0.4999 0.0532 0.8644
vn 0.5197 0.0792 0.8507
vn 0.5464 0.1964 0.8141
vn 0.5490 0.2217 0.8059
vn 0.2358 0.8823 0.4074
vn 0.2102 0.9031 0.3745
vn 0.2284 0.8688 0.4393
vn 0.1766 0.9136 0.3663
vn 0.1294 0.9204 0.3690
vn 0.1657 0.7345 0.6581
vn 0.0951 0.9381 0.3331
vn 0.0902 0.9415 0.3247
vn 0.8534 0.0018 0.5213
vn 0.8509 0.0016 0.5253
vn 0.5043 0.7620 0.4063
vn 0.5047 0.7615 0.4068
vn 0.7982 0.2316 0.5560
vn 0.3301 0.9205 0.2089
vn 0.3633 0.8825 0.2986
vn 0.7726 0.0020 0.6349
vn 0.7843 0.0017 0.6204
vn 0.8316 0.0020 0.5554
vn 0.7724 0.0164 0.6349
vn 0.8318 0.0018 0.5550
vn 0.8428 0.0017 0.5382
vn 0.2625 0.9626 0.0674
vn 0.2624 0.9596 0.1012
vn 0.1936 0.9757 0.1029
vn 0.2659 0.9475 0.1778
vn 0.3216 0.9252 0.2016
vn -0.2181 0.9404 -0.2608
vn -0.2234 0.9367 -0.2697
vn -0.2440 0.9232 -0.2970
vn 0.4957 0.0019 0.8685
vn 0.5005 0.0018 0.8657
vn 0.5567 0.2320 0.7977
vn 0.4088 0.7588 0.5071
vn 0.3999 0.7713 0.4951
vn 0.2995 0.8820 0.3639
vn 0.2087 0.9206 0.3300
vn 0.5006 0.0018 0.8657
vn 0.5046 0.0017 0.8633
vn 0.5213 0.0017 0.8534
vn 0.5258 0.0016 0.8506
vn 0.5573 0.0017 0.8303
vn 0.5712 0.0015 0.8208
vn 0.5944 0.0012 0.8042
vn 0.5968 0.0012 0.8024
vn 0.6356 0.0020 0.7720
vn 0.6355 0.0169 0.7719
vn 0.2020 0.9248 0.3224
vn 0.1994 0.9138 0.3538
vn 0.1798 0.9244 0.3362
vn 0.1147 0.9721 0.2047
vn 0.0830 0.9840 0.1576
vn 0.0748 0.9859 0.1495
vn 0.0723 0.9535 0.2927
vn -0.0000 0.9724 0.2334
vn 0.3592 0.8846 0.2975
vn 0.4079 0.8475 0.3398
vn 0.3696 0.8717 0.3217
vn 0.4114 0.8131 0.4119
vn 0.7029 0.1032 0.7038
vn 0.7168 0.0816 0.6924
vn 0.7469 0.0812 0.6600
vn 0.7651 0.0140 0.6438
vn 0.7664 0.0116 0.6423
vn 0.7701 0.0115 0.6378
vn 0.2475 0.9520 0.1800
vn 0.3319 0.9002 0.2820
vn 0.7702 0.0020 0.6378
vn 0.8015 0.0012 0.5980
vn 0.7680 0.0019 0.6405
vn -0.0000 0.9816 -0.1911
vn -0.0000 1.0000 0.0004
vn 0.0005 1.0000 0.0009
vn 0.0009 1.0000 0.0014
vn 0.0116 0.9999 0.0106
vn 0.0211 0.9996 0.0169
vn -0.0633 0.9796 -0.1910
vn -0.0668 0.9946 -0.0788
vn 0.0836 0.9933 0.0795
vn 0.2040 0.9660 0.1590
vn -0.2062 0.9479 -0.2430
vn -0.1932 0.9546 -0.2267
vn -0.1810 0.9599 -0.2143
vn -0.1980 0.9522 -0.2325
vn 0.6377 0.0133 0.7702
vn 0.6422 0.0133 0.7664
vn 0.6436 0.0157 0.7652
vn 0.6596 0.0823 0.7471
vn 0.3229 0.8707 0.3709
vn 0.3417 0.8455 0.4103
vn 0.6922 0.0827 0.7170
vn 0.2988 0.8833 0.3613
vn 0.1799 0.9522 0.2471
vn 0.1777 0.9476 0.2654
vn 0.2818 0.9005 0.3311
vn 0.5965 0.0012 0.8026
vn 0.6396 0.0019 0.7687
vn 0.6377 0.0020 0.7703
vn 0.0169 0.9995 0.0253
vn 0.1591 0.9660 0.2039
vn 0.0880 0.9914 0.0965
vn -0.0726 0.9937 -0.0849
vn 0.3293 0.9011 0.2821
vn 0.3197 0.9060 0.2775
vn 0.2784 0.9191 0.2788
vn 0.2770 0.9063 0.3192
vn 0.2818 0.9013 0.3291
vn 0.6945 0.0019 0.7195
vn 0.7192 0.0019 0.6948
vn 0.7214 0.0019 0.6925
vn 0.7243 0.0018 0.6895
vn 0.7589 0.0018 0.6512
vn 0.7652 0.0020 0.6438
vn 0.7664 0.0020 0.6423
vn 0.0798 0.9936 0.0800
vn 0.0775 0.9941 0.0764
vn -0.1782 0.9613 -0.2102
vn -0.1640 0.9675 -0.1926
vn -0.0976 0.9889 -0.1125
vn 0.6422 0.0020 0.7665
vn 0.6437 0.0020 0.7653
vn 0.6510 0.0018 0.7590
vn 0.6562 0.0018 0.7546
vn 0.6881 0.0018 0.7256
s 0
f 1//1 2//1 5//1
f 1//1 5//1 10//1
f 1//1 10//1 20//1
f 1//1 20//1 33//1
f 1//1 33//1 50//1
f 1//1 50//1 77//1
f 1//1 77//1 85//1
f 1//1 85//1 83//1
f 1//1 83//1 114//1
f 1//1 114//1 134//1
f 1//1 134//1 133//1
f 1//2 133//2 132//2
f 1//1 132//1 137//1
f 1//3 137//3 136//3
f 1//1 136//1 129//1
f 1//1 129//1 100//1
f 1//1 100//1 98//1
f 1//4 98//4 97//4
f 1//1 97//1 96//1
f 1//1 96//1 91//1
f 1//1 91//1 66//1
f 1//1 66//1 44//1
f 1//1 44//1 42//1
f 1//5 42//5 28//5
f 1//1 28//1 16//1
f 1//1 16//1 15//1
f 1//5 15//5 7//5
f 1//1 7//1 3//1
f 1//6 3//6 8//6
f 1//6 8//6 18//6
f 1//6 18//6 31//6
f 1//6 31//6 48//6
f 1//6 48//6 76//6
f 1//6 76//6 106//6
f 1//6 106//6 131//6
f 1//6 131//6 135//6
f 1//6 135//6 122//6
f 1//6 122//6 121//6
f 1//6 121//6 120//6
f 1//6 120//6 89//6
f 1//6 89//6 60//6
f 1//6 60//6 59//6
f 1//6 59//6 58//6
f 1//6 58//6 49//6
f 1//6 49//6 32//6
f 1//6 32//6 19//6
f 1//6 19//6 9//6
f 1//6 9//6 4//6
f 1//7 4//7 6//7
f 1//7 6//7 2//7
f 2//8 6//8 14//8
f 2//8 14//8 27//8
f 2//9 27//9 41//9
f 2//8 41//8 64//8
f 2//8 64//8 62//8
f 2//8 62//8 63//8
f 2//8 63//8 90//8
f 2//8 90//8 123//8
f 2//8 123//8 118//8
f 2//8 118//8 115//8
f 2//8 115//8 86//8
f 2//8 86//8 55//8
f 2//8 55//8 36//8
f 2//8 36//8 23//8
f 2//10 23//10 11//10
f 2//8 11//8 5//8
f 3//11 7//11 8//11
f 4//12 9//12 6//12
f 5//13 11//13 10//13
f 6//14 9//14 12//14
f 6//15 12//15 13//15
f 6//16 13//16 14//16
f 7//17 15//17 8//17
f 8//18 15//18 16//18
f 8//19 16//19 17//19
f 8//20 17//20 18//20
f 9//21 19//21 12//21
f 10//22 11//22 21//22
f 10//23 21//23 22//23
f 10//24 22//24 20//24
f 11//25 23//25 21//25
f 12//26 24//26 25//26
f 12//27 25//27 26//27
f 12//28 26//28 13//28
f 12//29 19//29 24//29
f 13//30 26//30 27//30
f 13//31 27//31 14//31
f 16//32 28//32 29//32
f 16//33 29//33 17//33
f 17//34 29//34 30//34
f 17//35 30//35 31//35
f 17//36 31//36 18//36
f 19//37 32//37 24//37
f 20//38 22//38 34//38
f 20//39 34//39 33//39
f 21//40 23//40 35//40
f 21//41 35//41 22//41
f 22//42 35//42 34//42
f 23//43 36//43 37//43
f 23//44 37//44 35//44
f 24//45 32//45 38//45
f 24//46 38//46 25//46
f 25//47 38//47 39//47
f 25//48 39//48 26//48
f 26//49 39//49 40//49
f 26//50 40//50 41//50
f 26//51 41//51 27//51
f 28//52 42//52 29//52
f 29//53 43//53 30//53
f 29//54 42//54 44//54
f 29//55 44//55 43//55
f 30//56 45//56 46//56
f 30//57 46//57 47//57
f 30//58 47//58 31//58
f 30//59 43//59 45//59
f 31//60 47//60 48//60
f 32//61 49//61 38//61
f 33//62 34//62 51//62
f 33//63 51//63 50//63
f 34//64 35//64 51//64
f 35//65 37//65 52//65
f 35//66 52//66 53//66
f 35//67 53//67 54//67
f 35//68 54//68 51//68
f 36//69 55//69 56//69
f 36//70 56//70 57//70
f 36//71 57//71 37//71
f 37//72 57//72 52//72
f 38//73 49//73 58//73
f 38//74 58//74 59//74
f 38//75 59//75 60//75
f 38//76 60//76 61//76
f 38//77 61//77 39//77
f 39//78 62//78 40//78
f 39//79 61//79 63//79
f 39//80 63//80 62//80
f 40//81 64//81 41//81
f 40//82 62//82 64//82
f 43//83 65//83 45//83
f 43//84 44//84 65//84
f 44//85 66//85 65//85
f 45//86 67//86 46//86
f 45//87 65//87 68//87
f 45//88 68//88 69//88
f 45//89 69//89 70//89
f 45//90 70//90 71//90
f 45//91 71//91 67//91
f 46//92 67//92 72//92
f 46//93 72//93 73//93
f 46//94 73//94 47//94
f 47//95 73//95 74//95
f 47//96 74//96 75//96
f 47//97 75//97 48//97
f 48//98 75//98 74//98
f 48//99 74//99 76//99
f 50//100 51//100 54//100
f 50//101 54//101 77//101
f 52//102 78//102 79//102
f 52//103 79//103 80//103
f 52//104 80//104 53//104
f 52//105 57//105 81//105
f 52//106 81//106 78//106
f 53//107 82//107 83//107
f 53//108 83//108 84//108
f 53//109 84//109 54//109
f 53//110 80//110 82//110
f 54//111 84//111 85//111
f 54//112 85//112 77//112
f 55//113 86//113 87//113
f 55//114 87//114 56//114
f 56//115 87//115 88//115
f 56//116 88//116 81//116
f 56//117 81//117 57//117
f 60//118 89//118 90//118
f 60//119 90//119 63//119
f 60//120 63//120 61//120
f 65//121 66//121 68//121
f 66//122 91//122 68//122
f 67//123 71//123 92//123
f 67//124 92//124 93//124
f 67//125 93//125 94//125
f 67//126 94//126 95//126
f 67//127 95//127 72//127
f 68//128 91//128 69//128
f 69//129 91//129 96//129
f 69//130 96//130 70//130
f 70//131 96//131 97//131
f 70//132 97//132 71//132
f 71//133 97//133 98//133
f 71//134 98//134 99//134
f 71//135 99//135 100//135
f 71//136 100//136 101//136
f 71//137 101//137 92//137
f 72//138 95//138 102//138
f 72//139 102//139 73//139
f 73//140 102//140 74//140
f 74//141 102//141 103//141
f 74//142 103//142 104//142
f 74//143 104//143 105//143
f 74//144 105//144 76//144
f 76//145 105//145 106//145
f 78//146 81//146 107//146
f 78//147 107//147 79//147
f 79//148 107//148 108//148
f 79//149 108//149 93//149
f 79//150 93//150 109//150
f 79//151 109//151 110//151
f 79//152 110//152 80//152
f 80//153 110//153 111//153
f 80//154 111//154 112//154
f 80//155 112//155 82//155
f 81//156 88//156 113//156
f 81//157 113//157 107//157
f 82//158 112//158 83//158
f 83//159 85//159 84//159
f 83//160 112//160 114//160
f 86//161 115//161 87//161
f 87//162 106//162 105//162
f 87//163 105//163 104//163
f 87//164 104//164 116//164
f 87//165 116//165 117//165
f 87//166 117//166 88//166
f 87//167 115//167 118//167
f 87//168 118//168 106//168
f 88//169 117//169 119//169
f 88//170 119//170 113//170
f 89//171 120//171 90//171
f 90//172 121//172 122//172
f 90//173 122//173 123//173
f 90//174 120//174 121//174
f 92//175 101//175 124//175
f 92//176 124//176 125//176
f 92//177 125//177 126//177
f 92//178 126//178 93//178
f 93//179 108//179 127//179
f 93//180 127//180 94//180
f 93//181 126//181 109//181
f 94//182 127//182 95//182
f 95//183 128//183 103//183
f 95//184 103//184 102//184
f 95//185 127//185 128//185
f 98//186 100//186 99//186
f 100//187 129//187 124//187
f 100//188 124//188 101//188
f 103//189 116//189 104//189
f 103//190 128//190 130//190
f 103//191 130//191 116//191
f 106//192 118//192 131//192
f 107//193 113//193 108//193
f 108//194 113//194 119//194
f 108//195 119//195 130//195
f 108//196 130//196 128//196
f 108//197 128//197 127//197
f 109//198 126//198 132//198
f 109//199 132//199 110//199
f 110//200 132//200 133//200
f 110//201 133//201 134//201
f 110//202 134//202 114//202
f 110//203 114//203 111//203
f 111//204 114//204 112//204
f 116//205 130//205 119//205
f 116//206 119//206 117//206
f 118//207 123//207 122//207
f 118//208 122//208 135//208
f 118//209 135//209 131//209
f 124//210 129//210 125//210
f 125//211 129//211 126//211
f 126//212 129//212 136//212
f 126//213 136//213 137//213
f 126//214 137//214 132//214
