# Blender 4.4.3
# www.blender.org
o socket11mm_collision_geom_28
v -0.033577 0.010839 -0.037203
v -0.033550 0.010540 -0.037203
v -0.031668 0.010507 -0.036166
v -0.031669 0.010839 -0.036166
v -0.033577 0.022452 -0.037203
v -0.033547 0.010507 -0.037203
v -0.031541 0.010272 -0.036166
v -0.031669 0.022452 -0.036166
v -0.029399 0.022452 -0.037203
v -0.033194 0.010284 -0.037203
v -0.033097 0.010334 -0.037080
v -0.033169 0.010273 -0.037203
v -0.031497 0.010254 -0.036166
v -0.029399 0.022452 -0.036166
v -0.029399 0.009882 -0.037203
v -0.032865 0.010217 -0.037203
v -0.031167 0.010185 -0.036166
v -0.029399 0.010181 -0.036166
v -0.029399 0.010044 -0.036167
v -0.032536 0.010177 -0.037203
v -0.029531 0.010097 -0.036166
vn -0.4826 -0.0442 0.8747
vn -0.4774 -0.0018 0.8787
vn -0.4774 -0.0000 0.8787
vn -0.0000 -0.0000 -1.0000
vn 0.0001 -0.0000 -1.0000
vn 0.0070 -0.0000 -1.0000
vn -0.4826 -0.0474 0.8745
vn -0.4676 -0.2515 0.8474
vn 0.0001 -0.0000 1.0000
vn -0.0000 -0.0000 1.0000
vn -0.0000 1.0000 -0.0000
vn -0.4230 -0.6691 0.6110
vn -0.4180 -0.6144 0.6691
vn -0.3176 -0.8072 0.4976
vn -0.3766 -0.7126 0.5920
vn -0.3357 -0.7815 0.5259
vn 1.0000 -0.0000 -0.0000
vn -0.1735 -0.9513 0.2548
vn -0.1950 -0.9345 0.2977
vn -0.0788 -0.9849 0.1543
vn -0.0929 -0.9870 0.1308
vn -0.1206 -0.9785 0.1673
vn -0.0005 -0.0090 1.0000
vn 0.0019 -0.0030 1.0000
s 0
f 1//1 2//1 3//1
f 1//2 3//2 4//2
f 1//3 4//3 8//3
f 1//3 8//3 5//3
f 1//4 5//4 9//4
f 1//4 9//4 15//4
f 1//4 15//4 20//4
f 1//4 20//4 16//4
f 1//4 16//4 12//4
f 1//5 12//5 10//5
f 1//4 10//4 6//4
f 1//6 6//6 2//6
f 2//7 6//7 3//7
f 3//8 6//8 7//8
f 3//9 7//9 13//9
f 3//10 13//10 17//10
f 3//10 17//10 21//10
f 3//10 21//10 18//10
f 3//10 18//10 14//10
f 3//10 14//10 8//10
f 3//10 8//10 4//10
f 5//11 8//11 14//11
f 5//11 14//11 9//11
f 6//12 10//12 11//12
f 6//13 11//13 7//13
f 7//14 12//14 13//14
f 7//15 11//15 10//15
f 7//16 10//16 12//16
f 9//17 14//17 18//17
f 9//17 18//17 19//17
f 9//17 19//17 15//17
f 12//18 16//18 17//18
f 12//19 17//19 13//19
f 15//20 19//20 17//20
f 15//21 17//21 20//21
f 16//22 20//22 17//22
f 17//23 19//23 21//23
f 18//24 21//24 19//24
