# Blender 4.4.3
# www.blender.org
o socket9mm_collision_geom_6
v -0.086568 0.023750 -0.034133
v -0.086567 0.023750 -0.034307
v -0.083746 0.023750 -0.034133
v -0.086410 0.037572 -0.034133
v -0.086410 0.037572 -0.034307
v -0.086558 0.023750 -0.034642
v -0.082623 0.023750 -0.036861
v -0.083746 0.028582 -0.034133
v -0.086405 0.037747 -0.034133
v -0.086401 0.037918 -0.034307
v -0.086399 0.037572 -0.034653
v -0.086558 0.023750 -0.034653
v -0.085989 0.023750 -0.036861
v -0.082623 0.028582 -0.036861
v -0.084183 0.037561 -0.034133
v -0.086401 0.037918 -0.034133
v -0.086389 0.037918 -0.034653
v -0.086245 0.038187 -0.034307
v -0.086239 0.038187 -0.034653
v -0.086349 0.037918 -0.034999
v -0.086358 0.037572 -0.034999
v -0.086513 0.023750 -0.035021
v -0.086043 0.023750 -0.036743
v -0.085828 0.037918 -0.036861
v -0.082644 0.028883 -0.036861
v -0.083679 0.037226 -0.035526
v -0.083690 0.037572 -0.035564
v -0.084213 0.037683 -0.034133
v -0.086245 0.038187 -0.034133
v -0.086219 0.038187 -0.034999
v -0.086194 0.038182 -0.035345
v -0.086165 0.038167 -0.035690
v -0.085925 0.038280 -0.034999
v -0.085925 0.038278 -0.035345
v -0.086293 0.037918 -0.035345
v -0.086510 0.023750 -0.035037
v -0.086047 0.023750 -0.036734
v -0.085884 0.037918 -0.036728
v -0.085791 0.038135 -0.036861
v -0.082647 0.028927 -0.036861
v -0.083255 0.037572 -0.036861
v -0.083294 0.037760 -0.036861
v -0.084279 0.037814 -0.034133
v -0.085925 0.038276 -0.034133
v -0.085925 0.038262 -0.035690
v -0.085878 0.038185 -0.036382
v -0.085818 0.038159 -0.036728
v -0.086131 0.038132 -0.035956
v -0.085233 0.038272 -0.036861
v -0.085579 0.038278 -0.036382
v -0.086232 0.037918 -0.035690
v -0.086396 0.023750 -0.035677
v -0.086172 0.023750 -0.036395
v -0.086148 0.037918 -0.036003
v -0.085727 0.038169 -0.036861
v -0.083306 0.037780 -0.036861
v -0.083390 0.037832 -0.036861
v -0.084542 0.037940 -0.034133
v -0.085579 0.038226 -0.034133
v -0.085100 0.038259 -0.036861
v -0.085579 0.038255 -0.036728
v -0.085583 0.038228 -0.036861
v -0.085446 0.038265 -0.036861
v -0.086392 0.023750 -0.035698
v -0.086300 0.023750 -0.036036
v -0.086303 0.023750 -0.036025
v -0.083717 0.037953 -0.036861
v -0.084904 0.038047 -0.034133
v -0.084078 0.038041 -0.036861
v -0.084754 0.038196 -0.036861
v -0.084888 0.038225 -0.036861
vn -0.0000 -1.0000 -0.0000
vn -0.0000 -1.0000 -0.0001
vn -0.0000 -1.0000 0.0001
vn -0.0000 -1.0000 0.0002
vn -0.0000 -0.0000 1.0000
vn -0.0007 -0.0000 1.0000
vn 0.0006 -0.0000 1.0000
vn -0.9999 0.0114 -0.0000
vn -0.9999 0.0114 -0.0022
vn -0.9996 0.0114 -0.0265
vn 0.9247 -0.0000 0.3807
vn -0.9996 0.0265 -0.0000
vn -0.9996 0.0268 -0.0003
vn -0.9992 0.0268 -0.0312
vn -0.9994 0.0115 -0.0312
vn -0.9993 0.0115 -0.0347
vn -0.0000 -0.0000 -1.0000
vn 0.0001 -0.0000 -1.0000
vn 0.0012 -0.0000 -1.0000
vn 0.9238 0.0450 0.3803
vn -0.9996 0.0271 -0.0000
vn -0.9990 0.0290 -0.0335
vn -0.8649 0.5019 -0.0000
vn -0.8649 0.5020 -0.0000
vn -0.8648 0.5019 -0.0155
vn -0.8720 0.4886 -0.0292
vn -0.9930 0.0288 -0.1143
vn -0.9927 0.0255 -0.1176
vn -0.9930 0.0114 -0.1176
vn -0.9925 0.0113 -0.1220
vn -0.9102 0.0103 -0.4141
vn 0.9439 0.0653 0.3237
vn 0.9431 0.0648 0.3261
vn 0.9431 0.0658 0.3258
vn 0.9202 0.2267 0.3192
vn -0.8714 0.4882 -0.0487
vn -0.8813 0.4674 -0.0698
vn -0.9033 0.4184 -0.0946
vn -0.9166 0.3856 -0.1055
vn -0.2817 0.9595 -0.0000
vn -0.2921 0.9564 -0.0052
vn -0.2948 0.9555 -0.0079
vn -0.3142 0.9492 -0.0175
vn -0.9868 0.0253 -0.1598
vn -0.9490 0.2754 -0.1537
vn -0.9848 0.0113 -0.1734
vn -0.9855 0.0113 -0.1691
vn -0.9222 0.0108 -0.3866
vn -0.9120 0.1554 -0.3796
vn -0.9231 0.0108 -0.3843
vn 0.9453 0.0664 0.3195
vn 0.9443 0.0655 0.3226
vn 0.9461 0.0666 0.3170
vn 0.9307 0.1914 0.3118
vn 0.9154 0.2500 0.3156
vn 0.8537 0.4258 0.2998
vn -0.2698 0.9629 0.0048
vn -0.3335 0.9421 -0.0358
vn -0.3334 0.9418 -0.0426
vn -0.3678 0.9271 -0.0728
vn -0.3658 0.9220 -0.1271
vn -0.3825 0.9142 -0.1342
vn -0.4987 0.8494 -0.1727
vn -0.9495 0.2722 -0.1562
vn 0.0256 0.9997 0.0049
vn 0.0208 0.9998 0.0031
vn -0.0247 0.9997 -0.0082
vn -0.1344 0.9899 -0.0448
vn -0.9562 0.2384 -0.1698
vn -0.9845 0.0113 -0.1749
vn -0.9844 0.0112 -0.1757
vn -0.9382 0.0109 -0.3458
vn -0.9296 0.1451 -0.3387
vn -0.9209 0.1801 -0.3457
vn -0.9395 0.0111 -0.3423
vn -0.7023 0.6619 -0.2620
vn -0.4555 0.8553 -0.2471
vn 0.8210 0.4938 0.2867
vn 0.5219 0.8348 0.1756
vn 0.4286 0.8917 0.1457
vn 0.1425 0.9891 0.0369
vn 0.0956 0.9952 0.0227
vn -0.1738 0.9827 -0.0646
vn -0.3623 0.9234 -0.1270
vn -0.3676 0.9206 -0.1321
vn -0.3651 0.9143 -0.1755
vn -0.3688 0.9112 -0.1837
vn -0.9574 0.1298 -0.2579
vn -0.0334 0.9988 -0.0360
vn -0.1386 0.9882 -0.0650
vn -0.9655 0.0110 -0.2601
vn -0.9836 0.0112 -0.1799
vn -0.9412 0.0109 -0.3377
vn -0.9623 0.0110 -0.2717
vn -0.9653 0.0110 -0.2609
vn 0.3443 0.9326 0.1085
vn 0.2819 0.9552 0.0897
vn 0.2232 0.9731 0.0569
vn 0.2079 0.9768 0.0522
vn 0.1586 0.9866 0.0397
vn 0.2555 0.9637 0.0779
vn 0.2367 0.9694 0.0645
vn -0.2559 0.9488 -0.1854
s 0
f 1//1 2//1 6//1
f 1//2 6//2 12//2
f 1//1 12//1 22//1
f 1//1 22//1 36//1
f 1//1 36//1 52//1
f 1//3 52//3 64//3
f 1//1 64//1 66//1
f 1//3 66//3 65//3
f 1//1 65//1 53//1
f 1//1 53//1 37//1
f 1//4 37//4 23//4
f 1//1 23//1 13//1
f 1//1 13//1 7//1
f 1//1 7//1 3//1
f 1//5 3//5 8//5
f 1//5 8//5 15//5
f 1//5 15//5 28//5
f 1//5 28//5 43//5
f 1//5 43//5 58//5
f 1//5 58//5 68//5
f 1//5 68//5 59//5
f 1//5 59//5 44//5
f 1//5 44//5 29//5
f 1//5 29//5 16//5
f 1//6 16//6 9//6
f 1//7 9//7 4//7
f 1//8 4//8 5//8
f 1//9 5//9 2//9
f 2//10 5//10 6//10
f 3//11 7//11 14//11
f 3//11 14//11 8//11
f 4//12 9//12 5//12
f 5//13 9//13 10//13
f 5//14 10//14 11//14
f 5//15 11//15 6//15
f 6//16 11//16 12//16
f 7//17 13//17 24//17
f 7//18 24//18 39//18
f 7//17 39//17 55//17
f 7//17 55//17 62//17
f 7//17 62//17 63//17
f 7//17 63//17 49//17
f 7//17 49//17 60//17
f 7//17 60//17 71//17
f 7//17 71//17 70//17
f 7//17 70//17 69//17
f 7//17 69//17 67//17
f 7//17 67//17 57//17
f 7//17 57//17 56//17
f 7//18 56//18 42//18
f 7//18 42//18 41//18
f 7//17 41//17 40//17
f 7//19 40//19 25//19
f 7//17 25//17 14//17
f 8//20 14//20 15//20
f 9//21 16//21 10//21
f 10//22 17//22 11//22
f 10//23 16//23 29//23
f 10//24 29//24 18//24
f 10//25 18//25 19//25
f 10//26 19//26 17//26
f 11//27 17//27 20//27
f 11//28 20//28 21//28
f 11//29 21//29 12//29
f 12//30 21//30 22//30
f 13//31 23//31 24//31
f 14//32 25//32 26//32
f 14//33 26//33 15//33
f 15//34 26//34 27//34
f 15//35 27//35 28//35
f 17//36 19//36 30//36
f 17//37 30//37 31//37
f 17//38 31//38 32//38
f 17//39 32//39 20//39
f 18//40 29//40 33//40
f 18//41 33//41 19//41
f 19//42 33//42 34//42
f 19//43 34//43 30//43
f 20//44 35//44 21//44
f 20//45 32//45 35//45
f 21//46 35//46 36//46
f 21//47 36//47 22//47
f 23//48 37//48 24//48
f 24//49 38//49 39//49
f 24//50 37//50 38//50
f 25//51 40//51 27//51
f 25//52 27//52 26//52
f 27//53 40//53 41//53
f 27//54 41//54 42//54
f 27//55 42//55 28//55
f 28//56 42//56 43//56
f 29//57 44//57 33//57
f 30//58 34//58 31//58
f 31//59 34//59 45//59
f 31//60 45//60 32//60
f 32//61 45//61 46//61
f 32//62 46//62 47//62
f 32//63 47//63 48//63
f 32//64 48//64 35//64
f 33//65 44//65 49//65
f 33//66 49//66 50//66
f 33//67 50//67 34//67
f 34//68 50//68 45//68
f 35//69 48//69 51//69
f 35//70 51//70 36//70
f 36//71 51//71 52//71
f 37//72 53//72 38//72
f 38//73 54//73 48//73
f 38//74 48//74 39//74
f 38//75 53//75 54//75
f 39//76 48//76 47//76
f 39//77 47//77 55//77
f 42//78 56//78 43//78
f 43//79 56//79 57//79
f 43//80 57//80 58//80
f 44//81 59//81 60//81
f 44//82 60//82 49//82
f 45//83 50//83 61//83
f 45//84 61//84 46//84
f 46//85 61//85 47//85
f 47//86 61//86 62//86
f 47//87 62//87 55//87
f 48//88 54//88 51//88
f 49//89 63//89 50//89
f 50//90 63//90 61//90
f 51//91 54//91 64//91
f 51//92 64//92 52//92
f 53//93 65//93 54//93
f 54//94 65//94 66//94
f 54//95 66//95 64//95
f 57//96 67//96 58//96
f 58//97 67//97 68//97
f 59//98 69//98 70//98
f 59//99 70//99 71//99
f 59//100 71//100 60//100
f 59//101 68//101 67//101
f 59//102 67//102 69//102
f 61//103 63//103 62//103
