# Blender 4.4.3
# www.blender.org
o socket10mm_collision_geom_27
v -0.050616 0.009829 -0.032768
v -0.046040 0.009829 -0.032768
v -0.050330 0.009829 -0.037193
v -0.050614 0.004530 -0.032768
v -0.046040 0.009829 -0.033267
v -0.046040 0.003534 -0.032768
v -0.047100 0.009829 -0.037193
v -0.050324 0.003866 -0.037193
v -0.050612 0.004366 -0.032768
v -0.046040 0.003534 -0.033267
v -0.046054 0.009829 -0.033599
v -0.046062 0.003337 -0.032768
v -0.047058 0.009829 -0.037120
v -0.047100 0.003534 -0.037193
v -0.050300 0.003560 -0.037193
v -0.050608 0.004198 -0.032768
v -0.046062 0.003337 -0.033267
v -0.046068 0.003346 -0.033599
v -0.046054 0.003534 -0.033599
v -0.046075 0.009829 -0.033808
v -0.046248 0.003246 -0.032768
v -0.046954 0.009829 -0.036919
v -0.047058 0.003534 -0.037120
v -0.047107 0.003438 -0.037193
v -0.050296 0.003534 -0.037193
v -0.050557 0.004068 -0.032768
v -0.046248 0.003246 -0.033267
v -0.046248 0.003255 -0.033599
v -0.046318 0.003279 -0.034595
v -0.046343 0.003290 -0.034927
v -0.046077 0.003360 -0.033793
v -0.046075 0.003534 -0.033808
v -0.046273 0.009829 -0.034927
v -0.046580 0.003185 -0.032768
v -0.046948 0.009829 -0.036906
v -0.046954 0.003866 -0.036919
v -0.046956 0.003534 -0.036919
v -0.047065 0.003350 -0.037108
v -0.047186 0.003307 -0.037193
v -0.050194 0.003322 -0.037193
v -0.050499 0.003938 -0.032768
v -0.046580 0.003185 -0.034263
v -0.046580 0.003187 -0.034595
v -0.046580 0.003199 -0.034927
v -0.046580 0.003233 -0.035259
v -0.046661 0.003289 -0.035923
v -0.046380 0.003324 -0.035259
v -0.046406 0.003355 -0.035449
v -0.046273 0.003534 -0.034927
v -0.046342 0.009829 -0.035246
v -0.047908 0.003185 -0.032768
v -0.046810 0.009829 -0.036587
v -0.046810 0.003866 -0.036587
v -0.046813 0.003534 -0.036587
v -0.046707 0.003322 -0.036196
v -0.047017 0.003309 -0.036919
v -0.047214 0.003290 -0.037193
v -0.050143 0.003303 -0.037193
v -0.050232 0.003789 -0.032768
v -0.046912 0.003185 -0.035591
v -0.046912 0.003197 -0.035923
v -0.046946 0.003277 -0.036587
v -0.046749 0.003534 -0.036415
v -0.046688 0.003534 -0.036250
v -0.046401 0.003534 -0.035461
v -0.046345 0.003534 -0.035259
v -0.046345 0.009829 -0.035259
v -0.049236 0.003185 -0.036919
v -0.048073 0.003189 -0.032768
v -0.049510 0.003186 -0.037193
v -0.046565 0.009829 -0.035911
v -0.047244 0.003218 -0.036919
v -0.047242 0.003278 -0.037193
v -0.049900 0.003224 -0.037193
v -0.050010 0.003718 -0.032768
v -0.047244 0.003185 -0.036587
v -0.046459 0.009829 -0.035620
v -0.046401 0.009829 -0.035461
v -0.046399 0.009829 -0.035453
v -0.049236 0.003185 -0.037193
v -0.048240 0.003194 -0.032768
v -0.049568 0.003188 -0.037193
v -0.047518 0.003194 -0.037193
v -0.049842 0.003214 -0.037193
v -0.048404 0.003224 -0.032768
v -0.048572 0.003255 -0.032768
v -0.048702 0.003296 -0.032768
v -0.048997 0.003391 -0.032768
v -0.047576 0.003185 -0.036919
v -0.047576 0.003188 -0.037193
v -0.047850 0.003185 -0.037193
vn -0.0000 1.0000 -0.0000
vn -0.9979 -0.0003 -0.0645
vn -0.0025 -0.0000 1.0000
vn -0.0000 -0.0000 1.0000
vn 0.0001 -0.0000 1.0000
vn 1.0000 -0.0000 -0.0000
vn -0.0000 -0.0000 -1.0000
vn -0.0001 -0.0000 -1.0000
vn 0.0002 -0.0000 -1.0000
vn -0.0006 -0.0000 -1.0000
vn -0.9979 -0.0009 -0.0652
vn -0.9979 -0.0109 -0.0637
vn 0.9992 -0.0000 -0.0405
vn 0.9944 -0.1058 -0.0000
vn 0.9944 -0.1059 -0.0000
vn 0.8643 -0.0000 -0.5030
vn -0.9951 -0.0802 -0.0576
vn -0.9977 -0.0294 -0.0616
vn 0.9941 -0.1059 -0.0233
vn 0.9963 -0.0760 -0.0403
vn 0.9951 -0.0000 -0.0984
vn 0.4382 -0.8989 -0.0000
vn 0.8895 -0.0000 -0.4569
vn 0.8625 -0.0638 -0.5020
vn -0.9895 -0.1361 -0.0492
vn -0.9330 -0.3598 -0.0116
vn 0.4380 -0.8986 -0.0264
vn 0.4509 -0.8919 -0.0353
vn 0.4985 -0.8644 -0.0664
vn 0.5727 -0.8155 -0.0838
vn 0.9958 -0.0759 -0.0513
vn 0.4506 -0.8912 -0.0526
vn 0.9949 -0.0235 -0.0984
vn 0.9847 -0.0000 -0.1741
vn 0.1793 -0.9838 -0.0000
vn 0.9126 -0.0000 -0.4088
vn 0.8919 -0.0036 -0.4522
vn 0.8901 -0.0641 -0.4512
vn 0.8638 -0.0663 -0.4994
vn 0.6166 -0.3719 -0.6938
vn -0.9014 -0.4329 -0.0019
vn -0.9134 -0.4069 -0.0048
vn 0.1960 -0.9806 -0.0058
vn 0.2819 -0.9590 -0.0282
vn 0.2971 -0.9542 -0.0336
vn 0.3449 -0.9375 -0.0462
vn 0.3581 -0.9319 -0.0580
vn 0.3571 -0.9293 -0.0948
vn 0.3945 -0.9104 -0.1248
vn 0.4374 -0.8885 -0.1386
vn 0.7864 -0.5999 -0.1473
vn 0.9225 -0.3405 -0.1818
vn 0.9682 -0.1611 -0.1915
vn 0.9843 -0.0295 -0.1740
vn 0.9770 -0.0000 -0.2130
vn -0.0000 -1.0000 -0.0000
vn 0.9178 -0.0000 -0.3971
vn 0.9176 -0.0000 -0.3975
vn 0.9176 -0.0037 -0.3975
vn 0.9098 -0.1369 -0.3917
vn 0.9185 -0.0062 -0.3954
vn 0.7574 -0.5726 -0.3139
vn 0.4987 -0.8129 -0.3010
vn 0.9066 -0.2173 -0.3617
vn 0.4963 -0.8149 -0.2995
vn -0.3450 -0.9337 0.0957
vn -0.4831 -0.8712 0.0879
vn 0.0235 -0.9997 -0.0059
vn 0.1108 -0.9932 -0.0350
vn 0.1107 -0.9932 -0.0350
vn 0.2964 -0.9501 -0.0970
vn 0.3409 -0.9324 -0.1201
vn 0.4734 -0.8608 -0.1867
vn 0.5586 -0.8063 -0.1943
vn 0.3405 -0.9313 -0.1296
vn 0.4607 -0.8686 -0.1823
vn 0.5995 -0.7727 -0.2087
vn 0.9096 -0.2099 -0.3585
vn 0.9348 -0.0772 -0.3466
vn 0.9354 -0.0725 -0.3460
vn 0.9388 -0.0465 -0.3413
vn 0.9629 -0.0420 -0.2665
vn 0.9718 -0.1020 -0.2128
vn 0.9769 -0.0000 -0.2139
vn 0.9722 -0.0000 -0.2341
vn -0.0238 -0.9997 0.0085
vn -0.0035 -1.0000 0.0011
vn 0.9397 -0.0000 -0.3419
vn 0.9379 -0.0059 -0.3469
vn 0.9376 -0.0063 -0.3476
vn 0.9398 -0.0000 -0.3418
vn 0.3669 -0.9152 -0.1667
vn 0.3648 -0.9099 -0.1974
vn 0.3748 -0.9039 -0.2063
vn -0.3086 -0.9461 0.0978
vn -0.3056 -0.9471 0.0982
vn 0.1050 -0.9939 -0.0350
vn 0.3296 -0.9352 -0.1295
vn 0.2241 -0.9699 -0.0950
vn 0.9398 -0.0000 -0.3417
vn 0.9402 -0.0000 -0.3407
vn 0.9611 -0.0000 -0.2763
vn 0.9638 -0.0000 -0.2667
vn 0.9639 -0.0000 -0.2663
vn -0.0024 -1.0000 -0.0000
vn -0.0271 -0.9996 0.0095
vn -0.0450 -0.9989 0.0147
vn 0.1820 -0.9786 -0.0959
vn 0.2864 -0.9361 -0.2040
vn -0.1650 -0.9847 0.0552
vn -0.1787 -0.9820 0.0604
vn -0.1828 -0.9812 0.0618
vn -0.3037 -0.9477 0.0978
vn -0.3047 -0.9474 0.0981
vn -0.3052 -0.9472 0.0982
vn 0.0119 -0.9999 -0.0119
vn 0.0889 -0.9946 -0.0540
vn -0.0921 -0.9953 0.0288
s 0
f 1//1 2//1 5//1
f 1//1 5//1 11//1
f 1//1 11//1 20//1
f 1//1 20//1 33//1
f 1//1 33//1 50//1
f 1//1 50//1 67//1
f 1//1 67//1 79//1
f 1//1 79//1 78//1
f 1//1 78//1 77//1
f 1//1 77//1 71//1
f 1//1 71//1 52//1
f 1//1 52//1 35//1
f 1//1 35//1 22//1
f 1//1 22//1 13//1
f 1//1 13//1 7//1
f 1//1 7//1 3//1
f 1//2 3//2 4//2
f 1//3 4//3 9//3
f 1//4 9//4 16//4
f 1//5 16//5 26//5
f 1//4 26//4 41//4
f 1//4 41//4 59//4
f 1//4 59//4 75//4
f 1//4 75//4 88//4
f 1//4 88//4 87//4
f 1//4 87//4 86//4
f 1//4 86//4 85//4
f 1//4 85//4 81//4
f 1//4 81//4 69//4
f 1//4 69//4 51//4
f 1//4 51//4 34//4
f 1//4 34//4 21//4
f 1//4 21//4 12//4
f 1//4 12//4 6//4
f 1//4 6//4 2//4
f 2//6 6//6 10//6
f 2//6 10//6 5//6
f 3//7 7//7 14//7
f 3//7 14//7 24//7
f 3//7 24//7 39//7
f 3//8 39//8 57//8
f 3//9 57//9 73//9
f 3//7 73//7 83//7
f 3//8 83//8 90//8
f 3//7 90//7 91//7
f 3//7 91//7 80//7
f 3//7 80//7 70//7
f 3//8 70//8 82//8
f 3//7 82//7 84//7
f 3//8 84//8 74//8
f 3//7 74//7 58//7
f 3//7 58//7 40//7
f 3//7 40//7 25//7
f 3//10 25//10 15//10
f 3//7 15//7 8//7
f 3//11 8//11 4//11
f 4//12 8//12 9//12
f 5//13 10//13 19//13
f 5//13 19//13 11//13
f 6//14 12//14 17//14
f 6//15 17//15 10//15
f 7//16 13//16 23//16
f 7//16 23//16 14//16
f 8//17 15//17 16//17
f 8//18 16//18 9//18
f 10//19 17//19 18//19
f 10//20 18//20 19//20
f 11//21 19//21 32//21
f 11//21 32//21 20//21
f 12//22 21//22 27//22
f 12//22 27//22 17//22
f 13//23 22//23 36//23
f 13//23 36//23 23//23
f 14//24 23//24 24//24
f 15//25 25//25 16//25
f 16//26 25//26 26//26
f 17//27 27//27 28//27
f 17//28 28//28 18//28
f 18//29 29//29 30//29
f 18//30 30//30 31//30
f 18//31 31//31 19//31
f 18//32 28//32 29//32
f 19//33 31//33 32//33
f 20//34 32//34 49//34
f 20//34 49//34 33//34
f 21//35 34//35 42//35
f 21//35 42//35 27//35
f 22//36 35//36 36//36
f 23//37 36//37 37//37
f 23//38 37//38 38//38
f 23//39 38//39 24//39
f 24//40 38//40 39//40
f 25//41 40//41 41//41
f 25//42 41//42 26//42
f 27//43 42//43 43//43
f 27//44 43//44 28//44
f 28//45 43//45 44//45
f 28//46 44//46 29//46
f 29//47 44//47 30//47
f 30//48 44//48 45//48
f 30//49 45//49 46//49
f 30//50 46//50 47//50
f 30//51 47//51 31//51
f 31//52 47//52 48//52
f 31//53 48//53 49//53
f 31//54 49//54 32//54
f 33//55 49//55 50//55
f 34//56 51//56 68//56
f 34//56 68//56 80//56
f 34//56 80//56 91//56
f 34//56 91//56 89//56
f 34//56 89//56 76//56
f 34//56 76//56 60//56
f 34//56 60//56 42//56
f 35//57 52//57 53//57
f 35//58 53//58 36//58
f 36//59 53//59 37//59
f 37//60 54//60 38//60
f 37//61 53//61 54//61
f 38//62 55//62 56//62
f 38//63 56//63 39//63
f 38//64 54//64 55//64
f 39//65 56//65 57//65
f 40//66 58//66 59//66
f 40//67 59//67 41//67
f 42//68 60//68 43//68
f 43//69 60//69 61//69
f 43//70 61//70 44//70
f 44//71 61//71 45//71
f 45//72 61//72 46//72
f 46//73 56//73 55//73
f 46//74 55//74 47//74
f 46//75 61//75 62//75
f 46//76 62//76 56//76
f 47//77 55//77 48//77
f 48//78 55//78 54//78
f 48//79 54//79 63//79
f 48//80 63//80 64//80
f 48//81 64//81 65//81
f 48//82 65//82 66//82
f 48//83 66//83 49//83
f 49//84 66//84 50//84
f 50//85 66//85 67//85
f 51//86 69//86 70//86
f 51//87 70//87 68//87
f 52//88 71//88 53//88
f 53//89 64//89 63//89
f 53//90 63//90 54//90
f 53//91 71//91 64//91
f 56//92 62//92 72//92
f 56//93 72//93 73//93
f 56//94 73//94 57//94
f 58//95 74//95 59//95
f 59//96 74//96 75//96
f 60//97 76//97 61//97
f 61//98 72//98 62//98
f 61//99 76//99 72//99
f 64//100 71//100 77//100
f 64//100 77//100 65//100
f 65//101 77//101 78//101
f 65//102 78//102 79//102
f 65//103 79//103 66//103
f 66//104 79//104 67//104
f 68//105 70//105 80//105
f 69//106 81//106 70//106
f 70//107 81//107 82//107
f 72//108 76//108 83//108
f 72//109 83//109 73//109
f 74//110 84//110 81//110
f 74//111 81//111 85//111
f 74//112 85//112 86//112
f 74//113 86//113 87//113
f 74//114 87//114 88//114
f 74//115 88//115 75//115
f 76//116 89//116 90//116
f 76//117 90//117 83//117
f 81//118 84//118 82//118
f 89//116 91//116 90//116
