# Blender 4.4.3
# www.blender.org
o socket10mm_collision_geom_21
v -0.058290 0.009563 -0.038089
v -0.058290 0.009563 -0.042109
v -0.060379 0.009563 -0.037627
v -0.053015 0.009513 -0.037628
v -0.058308 0.009563 -0.042104
v -0.053015 0.009513 -0.042077
v -0.053021 0.009513 -0.042079
v -0.053221 0.009513 -0.042134
v -0.053553 0.009513 -0.042206
v -0.054509 0.009513 -0.042375
v -0.054675 0.009513 -0.042405
v -0.054884 0.009513 -0.042425
v -0.055212 0.009513 -0.042438
v -0.055543 0.009513 -0.042438
v -0.056208 0.009513 -0.042438
v -0.056543 0.009513 -0.042425
v -0.056748 0.009513 -0.042404
v -0.056914 0.009513 -0.042375
v -0.057867 0.009513 -0.042206
v -0.058200 0.009513 -0.042134
v -0.060379 0.009563 -0.041237
v -0.060379 0.003866 -0.037638
v -0.053015 0.004199 -0.037629
v -0.058403 0.009563 -0.042078
v -0.053015 0.003535 -0.042077
v -0.053221 0.003535 -0.042134
v -0.053553 0.003535 -0.042206
v -0.054506 0.003867 -0.042375
v -0.054673 0.003535 -0.042404
v -0.054881 0.003535 -0.042425
v -0.055212 0.003535 -0.042438
v -0.055543 0.003865 -0.042438
v -0.056208 0.003535 -0.042438
v -0.056748 0.003535 -0.042404
v -0.056540 0.003535 -0.042425
v -0.056914 0.003867 -0.042375
v -0.057867 0.003535 -0.042206
v -0.058200 0.003535 -0.042134
v -0.060379 0.003534 -0.041237
v -0.060273 0.009563 -0.041299
v -0.060379 0.003534 -0.037871
v -0.053015 0.003879 -0.037695
v -0.053015 0.004094 -0.037649
v -0.058403 0.003534 -0.042078
v -0.058569 0.003866 -0.042018
v -0.058615 0.009563 -0.042000
v -0.053015 0.003348 -0.042054
v -0.053030 0.003356 -0.042073
v -0.054687 0.003361 -0.042402
v -0.054881 0.003347 -0.042410
v -0.055212 0.003338 -0.042417
v -0.055545 0.003535 -0.042438
v -0.056208 0.003338 -0.042417
v -0.056540 0.003347 -0.042411
v -0.056734 0.003361 -0.042401
v -0.058391 0.003355 -0.042073
v -0.060061 0.003534 -0.041421
v -0.060049 0.003350 -0.041415
v -0.060379 0.003304 -0.041160
v -0.060061 0.009563 -0.041421
v -0.060379 0.003358 -0.038049
v -0.053015 0.003731 -0.037800
v -0.059191 0.003534 -0.041791
v -0.059527 0.009563 -0.041668
v -0.053015 0.003301 -0.041976
v -0.053221 0.003325 -0.042099
v -0.053553 0.003291 -0.042136
v -0.054881 0.003256 -0.042231
v -0.053885 0.003279 -0.042161
v -0.055212 0.003246 -0.042231
v -0.055543 0.003338 -0.042416
v -0.056208 0.003246 -0.042231
v -0.056540 0.003256 -0.042231
v -0.057536 0.003279 -0.042161
v -0.057867 0.003291 -0.042136
v -0.058200 0.003325 -0.042099
v -0.058290 0.003339 -0.042087
v -0.059137 0.003323 -0.041772
v -0.059527 0.003534 -0.041666
v -0.059357 0.003534 -0.041730
v -0.059891 0.009563 -0.041508
v -0.059860 0.003866 -0.041524
v -0.059860 0.003534 -0.041523
v -0.059860 0.003309 -0.041461
v -0.060379 0.003227 -0.040918
v -0.060173 0.003287 -0.041237
v -0.059860 0.003218 -0.041235
v -0.060379 0.003279 -0.038252
v -0.053015 0.003719 -0.037826
v -0.059527 0.003866 -0.041668
v -0.059860 0.009563 -0.041524
v -0.053015 0.003269 -0.041906
v -0.053221 0.003234 -0.041899
v -0.053553 0.003200 -0.041899
v -0.053885 0.003187 -0.041899
v -0.054217 0.003185 -0.041899
v -0.057203 0.003185 -0.041899
v -0.057536 0.003187 -0.041899
v -0.057867 0.003200 -0.041899
v -0.058200 0.003233 -0.041899
v -0.058863 0.003288 -0.041818
v -0.059527 0.003277 -0.041532
v -0.060191 0.003190 -0.040903
v -0.060379 0.003186 -0.040571
v -0.058863 0.003198 -0.041567
v -0.059527 0.003186 -0.041235
v -0.060379 0.003204 -0.038580
v -0.053015 0.003266 -0.039370
v -0.053015 0.003343 -0.039100
v -0.053015 0.003587 -0.038248
v -0.053015 0.003672 -0.037952
v -0.053015 0.003205 -0.041693
v -0.053015 0.003185 -0.041567
v -0.058290 0.003185 -0.041566
v -0.058532 0.003186 -0.041567
v -0.060379 0.003186 -0.038911
v -0.060191 0.003186 -0.038911
v -0.053015 0.003186 -0.039908
v -0.053015 0.003203 -0.039703
v -0.053015 0.003221 -0.039575
v -0.053015 0.003185 -0.040034
v -0.058290 0.003185 -0.040238
vn -0.0000 1.0000 -0.0000
vn 0.0067 0.9995 0.0303
vn 0.0093 1.0000 -0.0000
vn 0.0095 0.9995 -0.0293
vn 0.0096 0.9994 -0.0344
vn 0.0095 0.9990 -0.0437
vn 0.0093 0.9986 -0.0526
vn 0.0093 0.9986 -0.0530
vn 0.0074 0.9971 -0.0752
vn 0.0042 0.9940 -0.1092
vn 0.0002 0.9893 -0.1462
vn -0.0000 0.9890 -0.1479
vn -0.0081 0.9803 -0.1975
vn -0.0335 0.9426 -0.3323
vn -0.1565 0.4305 -0.8889
vn -0.1586 0.4137 -0.8965
vn -0.2105 0.1160 -0.9707
vn -0.2533 0.0359 -0.9667
vn -1.0000 -0.0000 -0.0000
vn -0.0011 -0.0019 1.0000
vn 0.0002 -0.0002 1.0000
vn 1.0000 -0.0000 -0.0000
vn -0.2670 0.0037 -0.9637
vn 0.3102 -0.0000 -0.9507
vn 0.2673 -0.0000 -0.9636
vn 0.2685 -0.0000 -0.9633
vn 0.2124 -0.0000 -0.9772
vn 0.1742 -0.0000 -0.9847
vn 0.1741 -0.0000 -0.9847
vn 0.1727 -0.0000 -0.9850
vn 0.0986 -0.0000 -0.9951
vn 0.0993 -0.0000 -0.9951
vn 0.0387 -0.0000 -0.9992
vn 0.0398 -0.0001 -0.9992
vn 0.0014 -0.0000 -1.0000
vn 0.0009 -0.0000 -1.0000
vn -0.0000 -0.0000 -1.0000
vn -0.0408 -0.0000 -0.9992
vn -0.1003 -0.0000 -0.9950
vn -0.0411 -0.0000 -0.9992
vn -0.0990 -0.0000 -0.9951
vn -0.1734 -0.0000 -0.9848
vn -0.1735 -0.0000 -0.9848
vn -0.1742 -0.0000 -0.9847
vn -0.2119 -0.0000 -0.9773
vn -0.2679 -0.0000 -0.9635
vn -0.5006 -0.0000 -0.8657
vn 0.0074 -0.5745 0.8184
vn 0.0080 -0.2101 0.9776
vn 0.0072 -0.1854 0.9826
vn -0.3394 -0.0000 -0.9407
vn -0.3414 0.0001 -0.9399
vn 0.7684 -0.0783 -0.6351
vn 0.2682 -0.0429 -0.9624
vn 0.2111 -0.1069 -0.9716
vn 0.1739 -0.0006 -0.9848
vn 0.1916 -0.1614 -0.9681
vn 0.1738 -0.0271 -0.9844
vn 0.0993 -0.0214 -0.9948
vn 0.0493 -0.0774 -0.9958
vn 0.0396 -0.0774 -0.9962
vn 0.0014 -0.1048 -0.9945
vn 0.0240 -0.1048 -0.9942
vn -0.0226 -0.1071 -0.9940
vn -0.0411 -0.0749 -0.9963
vn -0.0000 -0.1072 -0.9942
vn -0.0989 -0.0243 -0.9948
vn -0.1740 -0.0304 -0.9843
vn -0.1741 -0.0003 -0.9847
vn -0.0536 -0.0749 -0.9958
vn -0.1911 -0.1592 -0.9686
vn -0.2108 -0.1045 -0.9719
vn -0.2675 -0.0411 -0.9627
vn -0.4994 -0.0000 -0.8664
vn -0.4985 -0.0622 -0.8647
vn -0.5658 -0.2628 -0.7815
vn -0.4989 -0.0000 -0.8667
vn 0.0122 -0.7120 0.7021
vn 0.0075 -0.5755 0.8178
vn -0.3412 -0.0455 -0.9389
vn -0.3416 -0.0012 -0.9398
vn -0.3422 0.0001 -0.9396
vn 0.2031 -0.8400 -0.5031
vn 0.2043 -0.8351 -0.5108
vn 0.1819 -0.3406 -0.9224
vn 0.1480 -0.5964 -0.7889
vn 0.0854 -0.8110 -0.5788
vn 0.0331 -0.8923 -0.4501
vn 0.0676 -0.8614 -0.5033
vn 0.0522 -0.8916 -0.4498
vn 0.0004 -0.8973 -0.4415
vn -0.0000 -0.8361 -0.5485
vn 0.0270 -0.8970 -0.4413
vn -0.0002 -0.8973 -0.4415
vn -0.0270 -0.8970 -0.4413
vn -0.0325 -0.8928 -0.4492
vn -0.0523 -0.8921 -0.4488
vn -0.0668 -0.8641 -0.4989
vn -0.0855 -0.8113 -0.5784
vn -0.1478 -0.5980 -0.7877
vn -0.1796 -0.3627 -0.9144
vn -0.1807 -0.3502 -0.9191
vn -0.2054 -0.7808 -0.5901
vn -0.3590 -0.2101 -0.9094
vn -0.3476 -0.0817 -0.9341
vn -0.3476 -0.0815 -0.9341
vn -0.4574 -0.0000 -0.8893
vn -0.4563 -0.0000 -0.8898
vn -0.4530 -0.0025 -0.8915
vn -0.4522 -0.0602 -0.8899
vn -0.3910 -0.1354 -0.9104
vn -0.3613 -0.2153 -0.9073
vn -0.3112 -0.5813 -0.7519
vn -0.3029 -0.7889 -0.5346
vn -0.2248 -0.8880 -0.4011
vn -0.2012 -0.9222 -0.3304
vn -0.1986 -0.9335 -0.2985
vn 0.0347 -0.9319 0.3611
vn 0.0319 -0.9088 0.4161
vn -0.3488 -0.0066 -0.9372
vn -0.3430 -0.0000 -0.9393
vn -0.3979 -0.0000 -0.9174
vn 0.1423 -0.8993 -0.4135
vn 0.1382 -0.9016 -0.4098
vn 0.1380 -0.9019 -0.4094
vn 0.0962 -0.9290 -0.3574
vn 0.0589 -0.9317 -0.3584
vn 0.0458 -0.9379 -0.3438
vn 0.0357 -0.9515 -0.3057
vn 0.0288 -0.9577 -0.2863
vn -0.0000 -0.8976 -0.4409
vn 0.0055 -0.9803 -0.1972
vn -0.0000 -0.9834 -0.1812
vn -0.0055 -0.9804 -0.1972
vn -0.0288 -0.9577 -0.2863
vn -0.0358 -0.9514 -0.3059
vn -0.0460 -0.9377 -0.3444
vn -0.0585 -0.9317 -0.3584
vn -0.0943 -0.9292 -0.3574
vn -0.1234 -0.9108 -0.3939
vn -0.1400 -0.8842 -0.4456
vn -0.1985 -0.7960 -0.5719
vn -0.1991 -0.7945 -0.5737
vn -0.1911 -0.8536 -0.4846
vn -0.3946 -0.0065 -0.9188
vn -0.3488 -0.0067 -0.9372
vn -0.4508 -0.0000 -0.8926
vn -0.3979 -0.0026 -0.9174
vn -0.1810 -0.8718 -0.4553
vn -0.1664 -0.9148 -0.3680
vn -0.1981 -0.9094 -0.3658
vn -0.1847 -0.9760 -0.1157
vn -0.1692 -0.9534 -0.2496
vn -0.1288 -0.9351 -0.3300
vn -0.0930 -0.9709 -0.2207
vn -0.0939 -0.9798 -0.1767
vn 0.0323 -0.9739 0.2247
vn 0.0397 -0.9612 0.2730
vn 0.0399 -0.9606 0.2750
vn 0.0399 -0.9603 0.2761
vn 0.0355 -0.9359 0.3505
vn 0.1501 -0.9464 -0.2859
vn 0.1000 -0.9660 -0.2384
vn 0.0667 -0.9863 -0.1506
vn 0.0373 -0.9939 -0.1034
vn 0.0056 -0.9998 -0.0204
vn -0.0000 -1.0000 -0.0000
vn -0.0025 -1.0000 -0.0083
vn -0.0056 -0.9998 -0.0207
vn -0.0355 -0.9933 -0.1103
vn -0.0374 -0.9924 -0.1177
vn -0.0964 -0.9507 -0.2947
vn -0.1184 -0.9341 -0.3368
vn -0.1288 -0.9329 -0.3364
vn -0.0157 -0.9997 -0.0202
vn -0.0008 -1.0000 -0.0010
vn -0.0003 -1.0000 -0.0000
vn -0.0355 -0.9937 -0.1066
vn -0.0025 -1.0000 -0.0076
vn -0.0000 -0.9985 0.0545
vn 0.0083 -0.9982 0.0592
vn 0.0119 -0.9968 0.0790
vn 0.0213 -0.9899 0.1404
vn 0.0312 -0.9763 0.2142
vn -0.0000 -1.0000 0.0004
vn -0.0000 -1.0000 0.0006
vn 0.0015 -0.9999 0.0099
s 0
f 1//1 2//1 5//1
f 1//1 5//1 24//1
f 1//1 24//1 46//1
f 1//1 46//1 64//1
f 1//1 64//1 91//1
f 1//1 91//1 81//1
f 1//1 81//1 60//1
f 1//1 60//1 40//1
f 1//1 40//1 21//1
f 1//1 21//1 3//1
f 1//2 3//2 4//2
f 1//3 4//3 6//3
f 1//3 6//3 2//3
f 2//4 6//4 7//4
f 2//5 7//5 8//5
f 2//6 8//6 9//6
f 2//7 9//7 10//7
f 2//8 10//8 11//8
f 2//9 11//9 12//9
f 2//10 12//10 13//10
f 2//11 13//11 14//11
f 2//12 14//12 15//12
f 2//13 15//13 16//13
f 2//14 16//14 17//14
f 2//15 17//15 18//15
f 2//16 18//16 19//16
f 2//17 19//17 20//17
f 2//18 20//18 5//18
f 3//19 21//19 39//19
f 3//19 39//19 59//19
f 3//19 59//19 85//19
f 3//19 85//19 104//19
f 3//19 104//19 116//19
f 3//19 116//19 107//19
f 3//19 107//19 88//19
f 3//19 88//19 61//19
f 3//19 61//19 41//19
f 3//19 41//19 22//19
f 3//20 22//20 23//20
f 3//21 23//21 4//21
f 4//22 23//22 43//22
f 4//22 43//22 42//22
f 4//22 42//22 62//22
f 4//22 62//22 89//22
f 4//22 89//22 111//22
f 4//22 111//22 110//22
f 4//22 110//22 109//22
f 4//22 109//22 108//22
f 4//22 108//22 120//22
f 4//22 120//22 119//22
f 4//22 119//22 118//22
f 4//22 118//22 121//22
f 4//22 121//22 113//22
f 4//22 113//22 112//22
f 4//22 112//22 92//22
f 4//22 92//22 65//22
f 4//22 65//22 47//22
f 4//22 47//22 25//22
f 4//22 25//22 6//22
f 5//23 20//23 24//23
f 6//24 25//24 7//24
f 7//25 26//25 8//25
f 7//26 25//26 26//26
f 8//27 26//27 27//27
f 8//27 27//27 9//27
f 9//28 27//28 10//28
f 10//29 27//29 28//29
f 10//30 28//30 29//30
f 10//30 29//30 11//30
f 11//31 30//31 12//31
f 11//32 29//32 30//32
f 12//33 31//33 13//33
f 12//34 30//34 31//34
f 13//35 31//35 32//35
f 13//35 32//35 14//35
f 14//36 32//36 52//36
f 14//37 52//37 33//37
f 14//37 33//37 15//37
f 15//38 33//38 16//38
f 16//39 34//39 17//39
f 16//40 33//40 35//40
f 16//41 35//41 34//41
f 17//42 34//42 36//42
f 17//43 36//43 18//43
f 18//44 36//44 37//44
f 18//44 37//44 19//44
f 19//45 37//45 38//45
f 19//45 38//45 20//45
f 20//46 38//46 44//46
f 20//46 44//46 24//46
f 21//47 40//47 39//47
f 22//48 41//48 42//48
f 22//49 42//49 43//49
f 22//50 43//50 23//50
f 24//51 44//51 45//51
f 24//52 45//52 46//52
f 25//53 47//53 48//53
f 25//54 48//54 26//54
f 26//55 48//55 27//55
f 27//56 29//56 28//56
f 27//57 48//57 49//57
f 27//58 49//58 29//58
f 29//59 49//59 30//59
f 30//60 49//60 50//60
f 30//61 50//61 31//61
f 31//62 51//62 52//62
f 31//35 52//35 32//35
f 31//63 50//63 51//63
f 33//64 53//64 54//64
f 33//65 54//65 35//65
f 33//66 52//66 51//66
f 33//66 51//66 53//66
f 34//67 35//67 55//67
f 34//68 55//68 37//68
f 34//69 37//69 36//69
f 35//70 54//70 55//70
f 37//71 55//71 56//71
f 37//72 56//72 38//72
f 38//73 56//73 44//73
f 39//74 40//74 57//74
f 39//75 57//75 58//75
f 39//76 58//76 59//76
f 40//77 60//77 57//77
f 41//78 61//78 62//78
f 41//79 62//79 42//79
f 44//80 56//80 63//80
f 44//81 63//81 45//81
f 45//82 63//82 64//82
f 45//82 64//82 46//82
f 47//83 65//83 66//83
f 47//84 66//84 48//84
f 48//85 66//85 49//85
f 49//86 66//86 67//86
f 49//87 67//87 50//87
f 50//88 68//88 51//88
f 50//89 67//89 69//89
f 50//90 69//90 68//90
f 51//91 70//91 71//91
f 51//92 71//92 53//92
f 51//93 68//93 70//93
f 53//94 71//94 72//94
f 53//95 72//95 73//95
f 53//96 73//96 54//96
f 54//97 73//97 74//97
f 54//98 74//98 75//98
f 54//99 75//99 55//99
f 55//100 75//100 76//100
f 55//101 76//101 77//101
f 55//102 77//102 56//102
f 56//103 77//103 78//103
f 56//104 78//104 79//104
f 56//105 79//105 80//105
f 56//106 80//106 63//106
f 57//107 60//107 81//107
f 57//108 81//108 82//108
f 57//109 82//109 83//109
f 57//110 83//110 58//110
f 58//111 83//111 79//111
f 58//112 79//112 78//112
f 58//113 78//113 84//113
f 58//114 84//114 59//114
f 59//115 84//115 86//115
f 59//116 86//116 87//116
f 59//117 87//117 85//117
f 61//118 88//118 89//118
f 61//119 89//119 62//119
f 63//120 80//120 90//120
f 63//121 90//121 64//121
f 64//122 90//122 82//122
f 64//122 82//122 91//122
f 65//123 92//123 66//123
f 66//124 92//124 67//124
f 67//125 92//125 93//125
f 67//126 93//126 94//126
f 67//127 94//127 69//127
f 68//128 69//128 94//128
f 68//129 94//129 95//129
f 68//130 95//130 70//130
f 70//131 72//131 71//131
f 70//132 95//132 96//132
f 70//133 96//133 97//133
f 70//133 97//133 72//133
f 72//134 97//134 98//134
f 72//135 98//135 73//135
f 73//136 98//136 99//136
f 73//137 99//137 74//137
f 74//138 99//138 75//138
f 75//139 99//139 100//139
f 75//140 100//140 101//140
f 75//141 101//141 76//141
f 76//142 101//142 78//142
f 76//143 78//143 77//143
f 78//144 101//144 84//144
f 79//145 83//145 90//145
f 79//146 90//146 80//146
f 81//147 91//147 82//147
f 82//148 90//148 83//148
f 84//149 101//149 102//149
f 84//150 102//150 87//150
f 84//151 87//151 86//151
f 85//152 103//152 104//152
f 85//153 87//153 103//153
f 87//154 102//154 105//154
f 87//155 105//155 106//155
f 87//156 106//156 103//156
f 88//157 107//157 108//157
f 88//158 108//158 109//158
f 88//159 109//159 110//159
f 88//160 110//160 111//160
f 88//161 111//161 89//161
f 92//162 112//162 93//162
f 93//163 112//163 94//163
f 94//164 112//164 113//164
f 94//165 113//165 95//165
f 95//166 113//166 96//166
f 96//167 113//167 121//167
f 96//167 121//167 122//167
f 96//167 122//167 114//167
f 96//167 114//167 97//167
f 97//168 114//168 115//168
f 97//169 115//169 98//169
f 98//170 115//170 105//170
f 98//171 105//171 99//171
f 99//172 105//172 100//172
f 100//173 105//173 101//173
f 101//174 105//174 102//174
f 103//175 106//175 104//175
f 104//176 106//176 114//176
f 104//177 114//177 122//177
f 104//177 122//177 116//177
f 105//178 115//178 106//178
f 106//179 115//179 114//179
f 107//180 116//180 117//180
f 107//181 117//181 118//181
f 107//182 118//182 119//182
f 107//183 119//183 120//183
f 107//184 120//184 108//184
f 116//185 122//185 121//185
f 116//186 121//186 117//186
f 117//187 121//187 118//187
