# Blender 4.4.3
# www.blender.org
o socket8mm_collision_geom_1
v -0.097481 0.022840 -0.026657
v -0.097813 0.022840 -0.026657
v -0.097431 0.022840 -0.026658
v -0.097481 0.036070 -0.026841
v -0.098091 0.022840 -0.026666
v -0.097813 0.036070 -0.026841
v -0.097149 0.022840 -0.026668
v -0.097149 0.036070 -0.026854
v -0.097149 0.036401 -0.026864
v -0.097481 0.036401 -0.026852
v -0.098091 0.022840 -0.029513
v -0.098091 0.036070 -0.026852
v -0.097813 0.036401 -0.026852
v -0.098091 0.036401 -0.026862
v -0.096821 0.022840 -0.026709
v -0.096817 0.036070 -0.026896
v -0.096817 0.036401 -0.026903
v -0.096485 0.036652 -0.027042
v -0.096817 0.036658 -0.027017
v -0.097149 0.036658 -0.027000
v -0.097481 0.036658 -0.026994
v -0.095171 0.022840 -0.030619
v -0.098091 0.028103 -0.029513
v -0.097813 0.036658 -0.026994
v -0.098091 0.036658 -0.026999
v -0.096508 0.022840 -0.026765
v -0.096485 0.036401 -0.026956
v -0.096153 0.036627 -0.027075
v -0.096153 0.036718 -0.027291
v -0.096485 0.036744 -0.027291
v -0.096817 0.036751 -0.027291
v -0.095171 0.028103 -0.030619
v -0.095171 0.022840 -0.027175
v -0.098091 0.028435 -0.029512
v -0.098091 0.036751 -0.027291
v -0.096127 0.022840 -0.026840
v -0.096153 0.036401 -0.027025
v -0.095932 0.036594 -0.027105
v -0.095489 0.036652 -0.027357
v -0.095489 0.036744 -0.027623
v -0.095821 0.036751 -0.027623
v -0.095171 0.028435 -0.030616
v -0.095468 0.022840 -0.027060
v -0.095171 0.036401 -0.027377
v -0.095489 0.036401 -0.027252
v -0.098091 0.036068 -0.029045
v -0.095171 0.036070 -0.030256
v -0.095171 0.036749 -0.027955
v -0.095171 0.036725 -0.028273
v -0.098091 0.036725 -0.027623
v -0.095821 0.022840 -0.026930
v -0.095905 0.036401 -0.027095
v -0.095213 0.036620 -0.027407
v -0.095171 0.036452 -0.027388
v -0.095171 0.036670 -0.027560
v -0.095171 0.036749 -0.027941
v -0.095171 0.036681 -0.027594
v -0.095785 0.022840 -0.026944
v -0.098091 0.036282 -0.028971
v -0.095352 0.036258 -0.030135
v -0.095171 0.036083 -0.030254
v -0.095171 0.036663 -0.028605
v -0.098091 0.036714 -0.027677
v -0.095171 0.036644 -0.027494
v -0.098091 0.036332 -0.028946
v -0.095171 0.036289 -0.030179
v -0.098091 0.036655 -0.027955
v -0.095171 0.036383 -0.029933
v -0.098091 0.036480 -0.028619
v -0.095171 0.036379 -0.029946
v -0.098091 0.036646 -0.027994
v -0.098091 0.036590 -0.028205
vn -0.0000 -1.0000 -0.0000
vn -0.0000 -1.0000 0.0004
vn -0.0000 -1.0000 -0.0001
vn -0.0000 -0.9998 0.0199
vn 0.0311 0.0139 0.9994
vn -0.0000 0.0139 0.9999
vn -0.0334 0.0139 0.9993
vn 0.0343 0.0139 0.9993
vn 0.0396 0.0305 0.9988
vn 0.0373 0.0328 0.9988
vn -0.0000 0.0328 0.9995
vn 0.0397 0.0141 0.9991
vn -0.0390 0.0140 0.9991
vn -1.0000 -0.0000 -0.0000
vn -0.0375 0.0328 0.9988
vn -0.0390 0.0316 0.9987
vn 0.1233 0.0140 0.9923
vn 0.1263 0.0198 0.9918
vn 0.1160 0.0303 0.9928
vn 0.1263 0.0140 0.9919
vn 0.1080 0.3670 0.9239
vn 0.0732 0.4388 0.8956
vn 0.0465 0.4660 0.8835
vn 0.0330 0.4663 0.8840
vn 0.0164 0.4829 0.8755
vn -0.0000 0.4830 0.8756
vn -0.3541 -0.0000 -0.9352
vn -0.3542 -0.0000 -0.9352
vn -0.0171 0.4829 0.8755
vn -0.0332 0.4694 0.8823
vn 0.1771 0.0136 0.9841
vn 0.1648 0.0139 0.9862
vn 0.1592 0.0197 0.9871
vn 0.1531 0.2737 0.9495
vn 0.1208 0.3525 0.9280
vn 0.1103 0.9156 0.3866
vn 0.0730 0.9366 0.3427
vn 0.0407 0.9384 0.3433
vn 0.0194 0.9471 0.3203
vn 0.0168 0.9472 0.3203
vn 0.0058 0.9511 0.3089
vn -0.0000 0.9548 0.2972
vn 1.0000 -0.0000 -0.0000
vn 1.0000 0.0002 -0.0000
vn 1.0000 -0.0001 -0.0000
vn 1.0000 0.0001 -0.0000
vn -0.3541 0.0022 -0.9352
vn -0.0059 0.9532 0.3022
vn 0.1933 0.0135 0.9810
vn 0.1995 0.1728 0.9645
vn 0.1682 0.2534 0.9526
vn 0.2026 0.0138 0.9792
vn 0.1951 0.8216 0.5356
vn 0.1280 0.9137 0.3858
vn 0.0757 0.9709 0.2271
vn 0.1241 0.9388 0.3215
vn 0.0205 0.9979 0.0613
vn 0.0205 0.9979 0.0614
vn -0.0000 1.0000 -0.0000
vn -0.3536 0.0076 -0.9354
vn 0.3674 0.0139 0.9300
vn 0.3630 0.0138 0.9317
vn -0.3827 0.0565 -0.9222
vn -0.3533 0.0440 -0.9345
vn -0.0008 1.0000 -0.0057
vn -0.0170 0.9969 -0.0769
vn -0.0173 0.9968 -0.0777
vn 0.2836 0.0134 0.9589
vn 0.2725 0.0137 0.9620
vn 0.2715 0.0881 0.9584
vn 0.1953 0.8214 0.5358
vn 0.3499 0.0978 0.9317
vn 0.3639 0.1377 0.9212
vn 0.3727 0.1907 0.9082
vn 0.3733 0.1971 0.9065
vn 0.1731 0.9204 0.3505
vn 0.1529 0.9349 0.3202
vn 0.0205 0.9991 0.0376
vn 0.1581 0.9407 0.3003
vn 0.1732 0.9664 0.1898
vn 0.0021 1.0000 -0.0000
vn 0.3516 0.0138 0.9361
vn 0.3435 0.0136 0.9390
vn -0.3707 0.3013 -0.8785
vn -0.3738 0.2259 -0.8996
vn -0.3800 0.1300 -0.9158
vn -0.0404 0.9826 -0.1813
vn -0.0460 0.9791 -0.1979
vn 0.3414 0.0135 0.9398
vn 0.2021 0.9124 0.3559
vn 0.8353 0.2655 0.4815
vn -0.3520 0.4187 -0.8371
vn -0.2837 0.6607 -0.6950
vn -0.2770 0.3288 -0.9029
vn -0.0486 0.9774 -0.2058
vn -0.0487 0.9772 -0.2065
vn -0.1577 0.9006 -0.4050
vn -0.1296 0.9256 -0.3557
vn -0.0693 0.9694 -0.2356
vn -0.1048 0.9474 -0.3024
vn -0.0834 0.9630 -0.2562
vn -0.0831 0.9631 -0.2558
s 0
f 1//1 2//1 5//1
f 1//1 5//1 11//1
f 1//1 11//1 22//1
f 1//1 22//1 33//1
f 1//1 33//1 43//1
f 1//1 43//1 58//1
f 1//2 58//2 51//2
f 1//3 51//3 36//3
f 1//1 36//1 26//1
f 1//1 26//1 15//1
f 1//3 15//3 7//3
f 1//4 7//4 3//4
f 1//5 3//5 4//5
f 1//6 4//6 6//6
f 1//6 6//6 2//6
f 2//7 6//7 5//7
f 3//8 7//8 4//8
f 4//9 8//9 9//9
f 4//10 9//10 10//10
f 4//11 10//11 13//11
f 4//11 13//11 6//11
f 4//12 7//12 8//12
f 5//13 6//13 12//13
f 5//14 12//14 14//14
f 5//14 14//14 25//14
f 5//14 25//14 35//14
f 5//14 35//14 50//14
f 5//14 50//14 63//14
f 5//14 63//14 67//14
f 5//14 67//14 71//14
f 5//14 71//14 72//14
f 5//14 72//14 69//14
f 5//14 69//14 65//14
f 5//14 65//14 59//14
f 5//14 59//14 46//14
f 5//14 46//14 34//14
f 5//14 34//14 23//14
f 5//14 23//14 11//14
f 6//15 13//15 14//15
f 6//16 14//16 12//16
f 7//17 15//17 8//17
f 8//18 16//18 17//18
f 8//19 17//19 9//19
f 8//20 15//20 16//20
f 9//21 17//21 18//21
f 9//22 18//22 19//22
f 9//23 19//23 20//23
f 9//24 20//24 10//24
f 10//25 20//25 21//25
f 10//26 21//26 24//26
f 10//26 24//26 13//26
f 11//27 23//27 32//27
f 11//28 32//28 22//28
f 13//29 24//29 25//29
f 13//30 25//30 14//30
f 15//31 26//31 27//31
f 15//32 27//32 16//32
f 16//33 27//33 17//33
f 17//34 27//34 28//34
f 17//35 28//35 18//35
f 18//36 28//36 29//36
f 18//37 29//37 30//37
f 18//38 30//38 19//38
f 19//39 30//39 31//39
f 19//40 31//40 20//40
f 20//41 31//41 21//41
f 21//42 31//42 35//42
f 21//42 35//42 24//42
f 22//43 32//43 42//43
f 22//43 42//43 47//43
f 22//43 47//43 61//43
f 22//43 61//43 66//43
f 22//43 66//43 70//43
f 22//43 70//43 68//43
f 22//43 68//43 62//43
f 22//43 62//43 49//43
f 22//43 49//43 48//43
f 22//44 48//44 56//44
f 22//43 56//43 57//43
f 22//45 57//45 55//45
f 22//43 55//43 64//43
f 22//43 64//43 54//43
f 22//46 54//46 44//46
f 22//43 44//43 33//43
f 23//47 34//47 32//47
f 24//48 35//48 25//48
f 26//49 36//49 27//49
f 27//50 37//50 38//50
f 27//51 38//51 28//51
f 27//52 36//52 37//52
f 28//53 38//53 39//53
f 28//54 39//54 29//54
f 29//55 40//55 30//55
f 29//56 39//56 40//56
f 30//57 40//57 41//57
f 30//58 41//58 31//58
f 31//59 41//59 35//59
f 32//60 34//60 42//60
f 33//61 44//61 45//61
f 33//62 45//62 43//62
f 34//63 46//63 47//63
f 34//64 47//64 42//64
f 35//65 41//65 48//65
f 35//66 48//66 49//66
f 35//67 49//67 50//67
f 36//68 51//68 52//68
f 36//69 52//69 37//69
f 37//70 52//70 38//70
f 38//71 53//71 39//71
f 38//72 52//72 45//72
f 38//73 45//73 44//73
f 38//74 44//74 54//74
f 38//75 54//75 53//75
f 39//76 53//76 55//76
f 39//77 55//77 40//77
f 40//78 56//78 41//78
f 40//79 55//79 57//79
f 40//80 57//80 56//80
f 41//81 56//81 48//81
f 43//82 45//82 52//82
f 43//83 52//83 58//83
f 46//84 59//84 60//84
f 46//85 60//85 61//85
f 46//86 61//86 47//86
f 49//87 62//87 50//87
f 50//88 62//88 63//88
f 51//89 58//89 52//89
f 53//90 64//90 55//90
f 53//91 54//91 64//91
f 59//92 65//92 60//92
f 60//93 65//93 66//93
f 60//94 66//94 61//94
f 62//95 67//95 63//95
f 62//96 68//96 67//96
f 65//97 69//97 66//97
f 66//98 69//98 70//98
f 67//99 68//99 71//99
f 68//100 70//100 69//100
f 68//101 69//101 72//101
f 68//102 72//102 71//102
