# Blender 4.4.3
# www.blender.org
o socket10mm_collision_geom_19
v -0.053015 0.003185 -0.041567
v -0.053015 0.003185 -0.040034
v -0.053015 0.003204 -0.041694
v -0.052888 0.003185 -0.041567
v -0.052888 0.003185 -0.039907
v -0.053015 0.003187 -0.039907
v -0.053015 0.003270 -0.041906
v -0.052556 0.003199 -0.041567
v -0.051892 0.003185 -0.041235
v -0.049236 0.003185 -0.037193
v -0.049510 0.003187 -0.037193
v -0.049568 0.003189 -0.037193
v -0.053015 0.003202 -0.039702
v -0.053015 0.003300 -0.041975
v -0.052556 0.003289 -0.041818
v -0.051892 0.003277 -0.041533
v -0.051560 0.003218 -0.041235
v -0.051228 0.003189 -0.040903
v -0.050232 0.003185 -0.040239
v -0.047850 0.003185 -0.037193
v -0.049842 0.003214 -0.037193
v -0.053015 0.003220 -0.039575
v -0.053015 0.003348 -0.042054
v -0.052283 0.003323 -0.041772
v -0.051560 0.003310 -0.041461
v -0.051247 0.003287 -0.041238
v -0.050564 0.003289 -0.040848
v -0.050222 0.003268 -0.040587
v -0.050564 0.003197 -0.040571
v -0.049236 0.003210 -0.039575
v -0.049568 0.003185 -0.039575
v -0.047909 0.003185 -0.037583
v -0.047576 0.003189 -0.037251
v -0.047576 0.003189 -0.037193
v -0.049900 0.003224 -0.037193
v -0.053015 0.003266 -0.039370
v -0.053015 0.003534 -0.042077
v -0.052229 0.003534 -0.041791
v -0.052064 0.003534 -0.041730
v -0.051892 0.003534 -0.041666
v -0.051371 0.003350 -0.041414
v -0.050958 0.003312 -0.041129
v -0.050327 0.003323 -0.040780
v -0.049568 0.003224 -0.039907
v -0.049968 0.003308 -0.040487
v -0.048919 0.003298 -0.039561
v -0.048904 0.003210 -0.039243
v -0.048240 0.003185 -0.038247
v -0.047909 0.003197 -0.037915
v -0.047518 0.003195 -0.037193
v -0.050143 0.003304 -0.037193
v -0.052977 0.003725 -0.037790
v -0.053015 0.003718 -0.037826
v -0.053015 0.003672 -0.037952
v -0.053015 0.003645 -0.038045
v -0.053015 0.003302 -0.039239
v -0.053015 0.003867 -0.042077
v -0.051892 0.003867 -0.041668
v -0.051560 0.003534 -0.041523
v -0.051359 0.003534 -0.041421
v -0.051193 0.003534 -0.041325
v -0.050906 0.003534 -0.041159
v -0.050564 0.003534 -0.040960
v -0.050292 0.003534 -0.040801
v -0.050126 0.003534 -0.040695
v -0.049393 0.003360 -0.040081
v -0.049263 0.003310 -0.039889
v -0.049039 0.003340 -0.039767
v -0.048712 0.003340 -0.039440
v -0.048590 0.003310 -0.039216
v -0.048572 0.003224 -0.038911
v -0.047892 0.003268 -0.038256
v -0.047631 0.003289 -0.037915
v -0.047242 0.003279 -0.037193
v -0.050194 0.003321 -0.037193
v -0.053015 0.003879 -0.037695
v -0.053015 0.003731 -0.037799
v -0.053015 0.019468 -0.042077
v -0.051560 0.003867 -0.041525
v -0.051892 0.019468 -0.041668
v -0.051359 0.019802 -0.041421
v -0.050564 0.003867 -0.040962
v -0.051193 0.019802 -0.041325
v -0.050126 0.003867 -0.040696
v -0.050292 0.019802 -0.040801
v -0.049918 0.003534 -0.040529
v -0.049222 0.003534 -0.039946
v -0.049024 0.003534 -0.039780
v -0.048858 0.003534 -0.039621
v -0.048699 0.003534 -0.039455
v -0.048398 0.003360 -0.039087
v -0.047992 0.003308 -0.038512
v -0.047699 0.003323 -0.038152
v -0.047242 0.003287 -0.037232
v -0.047350 0.003312 -0.037521
v -0.047214 0.003291 -0.037193
v -0.050296 0.003534 -0.037193
v -0.053015 0.004199 -0.037629
v -0.053015 0.004093 -0.037649
v -0.053015 0.019802 -0.042077
v -0.052229 0.019802 -0.041791
v -0.051560 0.019468 -0.041525
v -0.052064 0.019802 -0.041730
v -0.051892 0.019802 -0.041667
v -0.051560 0.019802 -0.041524
v -0.051371 0.019986 -0.041414
v -0.050564 0.019468 -0.040962
v -0.050906 0.019802 -0.041159
v -0.049918 0.003867 -0.040529
v -0.050126 0.019468 -0.040696
v -0.050564 0.019802 -0.040961
v -0.050327 0.020012 -0.040780
v -0.050126 0.019802 -0.040695
v -0.049752 0.003867 -0.040390
v -0.049222 0.019802 -0.039946
v -0.049024 0.019802 -0.039780
v -0.048858 0.019802 -0.039621
v -0.048533 0.003534 -0.039258
v -0.048699 0.019802 -0.039455
v -0.048394 0.003534 -0.039092
v -0.047950 0.003534 -0.038561
v -0.047784 0.003534 -0.038353
v -0.047678 0.003534 -0.038187
v -0.047107 0.003438 -0.037193
v -0.047185 0.003308 -0.037193
v -0.053015 0.010171 -0.037193
v -0.053015 0.019965 -0.042069
v -0.052283 0.020012 -0.041772
v -0.051560 0.020030 -0.041461
v -0.052554 0.022758 -0.038809
v -0.052551 0.022758 -0.038807
v -0.049918 0.019468 -0.040529
v -0.049968 0.020032 -0.040487
v -0.049393 0.019976 -0.040081
v -0.051965 0.022758 -0.038468
v -0.051800 0.022758 -0.038364
v -0.049918 0.019802 -0.040529
v -0.049752 0.019468 -0.040390
v -0.049039 0.019995 -0.039767
v -0.048712 0.019995 -0.039440
v -0.048089 0.003867 -0.038728
v -0.048533 0.019802 -0.039258
v -0.048398 0.019976 -0.039087
v -0.047950 0.003867 -0.038562
v -0.047783 0.003867 -0.038353
v -0.047517 0.003867 -0.037915
v -0.047518 0.003534 -0.037915
v -0.047678 0.019802 -0.038187
v -0.047320 0.003534 -0.037574
v -0.047100 0.003534 -0.037193
v -0.053015 0.022758 -0.037193
v -0.053015 0.019989 -0.042054
v -0.053015 0.022758 -0.039029
v -0.052915 0.022758 -0.038989
v -0.051588 0.022758 -0.038199
v -0.051406 0.022758 -0.038047
v -0.051211 0.022758 -0.037882
v -0.051190 0.022758 -0.037865
v -0.051058 0.022758 -0.037752
v -0.050891 0.022758 -0.037588
v -0.047992 0.020032 -0.038512
v -0.050727 0.022758 -0.037421
v -0.050573 0.022758 -0.037239
v -0.050534 0.022758 -0.037193
v -0.048089 0.019468 -0.038728
v -0.048394 0.019802 -0.039092
v -0.047699 0.020012 -0.038152
v -0.047784 0.019802 -0.038353
v -0.047950 0.019802 -0.038562
v -0.047950 0.019468 -0.038562
v -0.047783 0.019468 -0.038353
v -0.047517 0.019468 -0.037915
v -0.047518 0.019802 -0.037915
v -0.047320 0.019802 -0.037574
v -0.047100 0.019468 -0.037193
v -0.047185 0.020035 -0.037193
v -0.047350 0.020024 -0.037521
v -0.047100 0.019802 -0.037193
v -0.047154 0.019802 -0.037287
vn -1.0000 0.0003 -0.0000
vn -1.0000 0.0004 -0.0000
vn -1.0000 -0.0004 -0.0000
vn -1.0000 0.0001 -0.0000
vn -1.0000 -0.0000 -0.0000
vn -1.0000 -0.0001 -0.0000
vn -0.0000 -0.9888 -0.1490
vn -0.0000 -1.0000 -0.0000
vn -0.0150 -0.9998 0.0151
vn 0.0691 -0.9537 -0.2927
vn 0.0397 -0.9814 -0.1876
vn 0.0401 -0.9919 -0.1203
vn -0.0070 -0.9999 0.0094
vn -0.0150 -0.9997 0.0194
vn -0.0331 -0.9985 0.0427
vn -0.0580 -0.9955 0.0744
vn 0.1153 -0.9085 -0.4018
vn 0.1037 -0.9362 -0.3359
vn 0.1275 -0.9336 -0.3349
vn 0.1275 -0.9358 -0.3286
vn 0.0951 -0.9687 -0.2295
vn 0.0961 -0.9788 -0.1808
vn 0.0347 -0.9977 -0.0578
vn -0.0000 -0.0000 1.0000
vn -0.0897 -0.9890 0.1180
vn -0.1029 -0.9855 0.1347
vn 0.1558 -0.8430 -0.5149
vn 0.1978 -0.7882 -0.5827
vn 0.1889 -0.8582 -0.4773
vn 0.1850 -0.8652 -0.4661
vn 0.1692 -0.9132 -0.3706
vn 0.1970 -0.9085 -0.3686
vn 0.1992 -0.9173 -0.3447
vn 0.1929 -0.9251 -0.3271
vn 0.1801 -0.9368 -0.2999
vn 0.1069 -0.9757 -0.1914
vn 0.0575 -0.9941 -0.0920
vn 0.1411 -0.9744 -0.1751
vn 0.0746 -0.9944 -0.0746
vn 0.0136 -0.9999 -0.0020
vn 0.0140 -0.9999 -0.0000
vn -0.1597 -0.9645 0.2103
vn -0.1639 -0.9626 0.2158
vn 0.3396 -0.1153 -0.9335
vn 0.3415 -0.1260 -0.9314
vn 0.3450 -0.1533 -0.9260
vn 0.3479 -0.1854 -0.9190
vn 0.3617 -0.2172 -0.9066
vn 0.3114 -0.5821 -0.7511
vn 0.3022 -0.7833 -0.5432
vn 0.2306 -0.8812 -0.4128
vn 0.2205 -0.8974 -0.3823
vn 0.2482 -0.8734 -0.4190
vn 0.2415 -0.8895 -0.3878
vn 0.1862 -0.9525 -0.2408
vn 0.2970 -0.8623 -0.4102
vn 0.2678 -0.9100 -0.3165
vn 0.1571 -0.9678 -0.1965
vn 0.2681 -0.9137 -0.3054
vn 0.2694 -0.9247 -0.2690
vn 0.0750 -0.9944 -0.0749
vn 0.0230 -0.9997 -0.0115
vn 0.0919 -0.9941 -0.0575
vn 0.2165 -0.9689 -0.1195
vn 0.0987 -0.9951 -0.0000
vn -0.2429 -0.7324 0.6361
vn -0.2258 -0.8753 0.4276
vn -0.2136 -0.9179 0.3344
vn -0.2017 -0.9409 0.2721
vn -0.2013 -0.9415 0.2702
vn -0.1963 -0.9447 0.2625
vn 0.3419 -0.0014 -0.9397
vn 0.3423 -0.0003 -0.9396
vn 0.3443 -0.0025 -0.9389
vn 0.3491 -0.0054 -0.9371
vn 0.3920 -0.1357 -0.9099
vn 0.3957 -0.0053 -0.9184
vn 0.3426 -0.7276 -0.5943
vn 0.4529 -0.0609 -0.8895
vn 0.4977 -0.0628 -0.8650
vn 0.5002 -0.0659 -0.8634
vn 0.5010 -0.0691 -0.8627
vn 0.5031 -0.0848 -0.8600
vn 0.5086 -0.1714 -0.8438
vn 0.5318 -0.1737 -0.8289
vn 0.5862 -0.2492 -0.7708
vn 0.5187 -0.5367 -0.6655
vn 0.2752 -0.9062 -0.3210
vn 0.2752 -0.9064 -0.3204
vn 0.4535 -0.6993 -0.5526
vn 0.3269 -0.8644 -0.3821
vn 0.3192 -0.8744 -0.3654
vn 0.4026 -0.8217 -0.4034
vn 0.3638 -0.8755 -0.3179
vn 0.3204 -0.9064 -0.2754
vn 0.3042 -0.9142 -0.2677
vn 0.1745 -0.9745 -0.1407
vn 0.1946 -0.9684 -0.1558
vn 0.2415 -0.9523 -0.1866
vn 0.3096 -0.9338 -0.1795
vn 0.3096 -0.9338 -0.1794
vn 0.2877 -0.9446 -0.1579
vn -0.2439 -0.7205 0.6491
vn -0.2797 -0.5539 0.7842
vn -0.2405 -0.8647 0.4410
vn -0.2507 -0.5532 0.7944
vn 0.3423 -0.0000 -0.9396
vn 0.3968 -0.0039 -0.9179
vn 0.3968 -0.0000 -0.9179
vn 0.4538 -0.0038 -0.8911
vn 0.4588 -0.0000 -0.8885
vn 0.4987 -0.0000 -0.8668
vn 0.4987 -0.0000 -0.8667
vn 0.5013 -0.0024 -0.8653
vn 0.5003 -0.0000 -0.8658
vn 0.5022 -0.0037 -0.8647
vn 0.5049 -0.0037 -0.8631
vn 0.5400 -0.0024 -0.8417
vn 0.5083 -0.0000 -0.8612
vn 0.5365 -0.0000 -0.8439
vn 0.5366 -0.0000 -0.8439
vn 0.6186 -0.1282 -0.7752
vn 0.6238 -0.0023 -0.7816
vn 0.6416 -0.0361 -0.7662
vn 0.6439 -0.0400 -0.7641
vn 0.6581 -0.1010 -0.7461
vn 0.6860 -0.1014 -0.7205
vn 0.7006 -0.1290 -0.7018
vn 0.7190 -0.1017 -0.6875
vn 0.7465 -0.1011 -0.6576
vn 0.5549 -0.6964 -0.4552
vn 0.3802 -0.8657 -0.3255
vn 0.3212 -0.9061 -0.2754
vn 0.3154 -0.9109 -0.2661
vn 0.4071 -0.8646 -0.2945
vn 0.3854 -0.8910 -0.2402
vn 0.3146 -0.9316 -0.1820
vn 0.4170 -0.8747 -0.2468
vn 0.3816 -0.8977 -0.2202
vn 0.3760 -0.9094 -0.1776
vn -0.1781 -0.0853 0.9803
vn -0.2044 -0.1790 0.9624
vn -0.2108 -0.2065 0.9555
vn 0.3419 0.0014 -0.9397
vn 0.3423 0.0003 -0.9396
vn 0.3443 0.0025 -0.9389
vn 0.3468 0.0041 -0.9379
vn 0.3957 0.0040 -0.9184
vn 0.3968 0.0026 -0.9179
vn 0.4555 0.0025 -0.8902
vn 0.4546 0.0610 -0.8886
vn 0.4977 0.0628 -0.8651
vn 0.5002 0.0659 -0.8634
vn 0.5013 0.0024 -0.8653
vn 0.6249 -0.0011 -0.7807
vn 0.6249 -0.0000 -0.7807
vn 0.5061 0.0025 -0.8625
vn 0.5038 0.0936 -0.8587
vn 0.5086 0.1714 -0.8437
vn 0.5301 0.1736 -0.8300
vn 0.5383 0.0012 -0.8428
vn 0.6419 -0.0011 -0.7667
vn 0.6420 -0.0012 -0.7667
vn 0.6424 -0.0000 -0.7663
vn 0.6444 -0.0000 -0.7647
vn 0.6896 -0.0000 -0.7242
vn 0.7227 -0.0000 -0.6911
vn 0.7645 -0.0401 -0.6434
vn 0.7651 -0.0000 -0.6439
vn 0.6661 -0.5353 -0.5193
vn 0.7660 -0.0371 -0.6417
vn 0.7664 -0.0371 -0.6413
vn 0.7750 -0.1260 -0.6193
vn 0.7708 -0.2488 -0.5865
vn 0.8287 -0.1735 -0.5321
vn 0.8476 -0.1705 -0.5025
vn 0.8094 -0.3713 -0.4549
vn 0.4667 -0.8490 -0.2478
vn 0.7863 -0.4716 -0.3992
vn 0.5014 -0.8250 -0.2606
vn -0.1750 -0.0717 0.9820
vn 0.3415 0.0468 -0.9387
vn 0.3436 0.0593 -0.9372
vn 0.3458 0.0765 -0.9352
vn 0.3562 0.2067 -0.9113
vn 0.3616 0.2193 -0.9062
vn 0.3919 0.1381 -0.9096
vn 0.5002 0.0661 -0.8634
vn 0.3203 0.5421 -0.7769
vn 0.3214 0.7177 -0.6177
vn 0.3358 0.7170 -0.6109
vn 0.3489 0.7165 -0.6040
vn 0.5013 0.0025 -0.8653
vn 0.6420 -0.0000 -0.7667
vn 0.6419 -0.0000 -0.7668
vn 0.6249 0.0011 -0.7807
vn 0.5340 0.4910 -0.6883
vn 0.5860 0.2509 -0.7705
vn 0.3492 0.7166 -0.6037
vn 0.3719 0.7176 -0.5888
vn 0.4172 0.7161 -0.5596
vn 0.6201 0.1229 -0.7748
vn 0.6420 0.0012 -0.7667
vn 0.6416 0.0361 -0.7662
vn 0.6439 0.0400 -0.7641
vn 0.6581 0.1010 -0.7461
vn 0.6860 0.1015 -0.7205
vn 0.7006 0.1290 -0.7018
vn 0.7190 0.1017 -0.6875
vn 0.7666 -0.0013 -0.6422
vn 0.7662 -0.0000 -0.6426
vn 0.7465 0.1011 -0.6576
vn 0.7645 0.0401 -0.6434
vn 0.7669 -0.0022 -0.6418
vn 0.7812 -0.0022 -0.6242
vn 0.7819 -0.0014 -0.6234
vn 0.8414 -0.0015 -0.5403
vn 0.8630 -0.0030 -0.5052
vn 0.8582 -0.1052 -0.5024
vn 0.8428 -0.0000 -0.5383
vn 0.8614 -0.0000 -0.5079
vn 0.8614 -0.0826 -0.5012
vn 0.8640 -0.0679 -0.4989
vn 0.3006 0.4876 -0.8197
vn 0.2307 0.7177 -0.6570
vn 0.2607 0.7162 -0.6474
vn 0.2636 0.7164 -0.6460
vn 0.3098 0.7184 -0.6228
vn -0.0000 1.0000 -0.0000
vn -0.0000 1.0000 0.0001
vn -0.0000 1.0000 -0.0002
vn -0.0000 1.0000 0.0011
vn -0.0000 1.0000 -0.0001
vn 0.6420 0.0011 -0.7667
vn 0.4647 0.6825 -0.5642
vn 0.4284 0.7166 -0.5505
vn 0.4454 0.7159 -0.5376
vn 0.4482 0.7166 -0.5343
vn 0.4486 0.7167 -0.5339
vn 0.4510 0.7170 -0.5315
vn 0.4528 0.7171 -0.5298
vn 0.4863 0.7182 -0.4977
vn 0.4918 0.7179 -0.4927
vn 0.5665 0.6794 -0.4663
vn 0.4980 0.7183 -0.4859
vn 0.5316 0.7171 -0.4507
vn 0.5348 0.7168 -0.4475
vn 0.5373 0.7164 -0.4451
vn 0.7666 -0.0000 -0.6421
vn 0.7666 -0.0000 -0.6422
vn 0.7660 0.0372 -0.6417
vn 0.7666 0.0013 -0.6422
vn 0.7666 0.0013 -0.6421
vn 0.6889 0.4896 -0.5345
vn 0.7708 0.2488 -0.5865
vn 0.7751 0.1319 -0.6179
vn 0.7661 0.0371 -0.6417
vn 0.7819 -0.0000 -0.6234
vn 0.8644 -0.0030 -0.5029
vn 0.8656 -0.0000 -0.5007
vn 0.8414 0.0015 -0.5403
vn 0.8287 0.1735 -0.5321
vn 0.8496 0.1702 -0.4992
vn 0.8622 0.0015 -0.5065
vn 0.8660 -0.0000 -0.5000
vn 0.5567 0.7198 -0.4147
vn 0.5967 0.7340 -0.3244
vn 0.5918 0.7304 -0.3410
vn 0.8450 0.2507 -0.4724
vn 0.8509 0.1919 -0.4890
vn 0.8512 0.1863 -0.4906
vn 0.8513 0.1775 -0.4938
vn 0.7819 0.0014 -0.6234
vn 0.7819 0.0013 -0.6234
vn 0.8650 0.0015 -0.5018
vn 0.8664 0.0011 -0.4993
vn 0.8670 0.0015 -0.4982
vn 0.8463 0.3082 -0.4345
s 0
f 1//1 2//1 6//1
f 1//2 6//2 13//2
f 1//3 13//3 22//3
f 1//4 22//4 36//4
f 1//4 36//4 56//4
f 1//5 56//5 55//5
f 1//5 55//5 54//5
f 1//5 54//5 53//5
f 1//3 53//3 77//3
f 1//5 77//5 76//5
f 1//5 76//5 99//5
f 1//5 99//5 98//5
f 1//5 98//5 126//5
f 1//5 126//5 151//5
f 1//5 151//5 153//5
f 1//5 153//5 152//5
f 1//5 152//5 127//5
f 1//5 127//5 100//5
f 1//5 100//5 78//5
f 1//5 78//5 57//5
f 1//5 57//5 37//5
f 1//5 37//5 23//5
f 1//6 23//6 14//6
f 1//4 14//4 7//4
f 1//5 7//5 3//5
f 1//7 3//7 4//7
f 1//8 4//8 9//8
f 1//8 9//8 19//8
f 1//8 19//8 31//8
f 1//8 31//8 48//8
f 1//8 48//8 32//8
f 1//8 32//8 20//8
f 1//8 20//8 10//8
f 1//8 10//8 5//8
f 1//8 5//8 2//8
f 2//9 5//9 6//9
f 3//10 7//10 8//10
f 3//11 8//11 4//11
f 4//12 8//12 9//12
f 5//13 10//13 11//13
f 5//14 11//14 6//14
f 6//15 11//15 12//15
f 6//16 12//16 13//16
f 7//17 14//17 15//17
f 7//18 15//18 8//18
f 8//19 15//19 16//19
f 8//20 16//20 17//20
f 8//21 17//21 9//21
f 9//22 17//22 18//22
f 9//23 18//23 19//23
f 10//24 20//24 34//24
f 10//24 34//24 50//24
f 10//24 50//24 74//24
f 10//24 74//24 96//24
f 10//24 96//24 125//24
f 10//24 125//24 124//24
f 10//24 124//24 150//24
f 10//24 150//24 175//24
f 10//24 175//24 178//24
f 10//24 178//24 176//24
f 10//24 176//24 164//24
f 10//24 164//24 151//24
f 10//24 151//24 126//24
f 10//24 126//24 97//24
f 10//24 97//24 75//24
f 10//24 75//24 51//24
f 10//24 51//24 35//24
f 10//24 35//24 21//24
f 10//24 21//24 12//24
f 10//24 12//24 11//24
f 12//25 21//25 13//25
f 13//26 21//26 22//26
f 14//27 23//27 15//27
f 15//28 23//28 24//28
f 15//29 24//29 25//29
f 15//30 25//30 16//30
f 16//31 25//31 17//31
f 17//32 25//32 26//32
f 17//33 26//33 27//33
f 17//34 27//34 28//34
f 17//35 28//35 29//35
f 17//36 29//36 18//36
f 18//37 29//37 19//37
f 19//38 29//38 30//38
f 19//39 30//39 31//39
f 20//40 32//40 33//40
f 20//41 33//41 34//41
f 21//42 35//42 22//42
f 22//43 35//43 36//43
f 23//44 37//44 38//44
f 23//45 38//45 39//45
f 23//46 39//46 40//46
f 23//47 40//47 24//47
f 24//48 40//48 41//48
f 24//49 41//49 25//49
f 25//50 41//50 42//50
f 25//51 42//51 26//51
f 26//52 42//52 27//52
f 27//53 42//53 43//53
f 27//54 43//54 28//54
f 28//55 44//55 29//55
f 28//56 43//56 45//56
f 28//57 45//57 44//57
f 29//58 44//58 30//58
f 30//59 44//59 46//59
f 30//60 46//60 47//60
f 30//61 47//61 48//61
f 30//39 48//39 31//39
f 32//62 48//62 33//62
f 33//63 48//63 49//63
f 33//64 49//64 50//64
f 33//65 50//65 34//65
f 35//66 51//66 52//66
f 35//67 52//67 53//67
f 35//68 53//68 54//68
f 35//69 54//69 55//69
f 35//70 55//70 56//70
f 35//71 56//71 36//71
f 37//72 57//72 38//72
f 38//73 57//73 58//73
f 38//74 58//74 39//74
f 39//75 58//75 40//75
f 40//76 59//76 41//76
f 40//77 58//77 59//77
f 41//78 43//78 42//78
f 41//79 59//79 60//79
f 41//80 60//80 61//80
f 41//81 61//81 62//81
f 41//82 62//82 63//82
f 41//83 63//83 64//83
f 41//84 64//84 43//84
f 43//85 64//85 65//85
f 43//86 65//86 66//86
f 43//87 66//87 45//87
f 44//88 45//88 67//88
f 44//89 67//89 46//89
f 45//90 66//90 68//90
f 45//91 68//91 67//91
f 46//92 67//92 68//92
f 46//93 68//93 69//93
f 46//94 69//94 70//94
f 46//95 70//95 71//95
f 46//96 71//96 47//96
f 47//97 49//97 48//97
f 47//98 71//98 49//98
f 49//99 71//99 72//99
f 49//100 72//100 73//100
f 49//101 73//101 74//101
f 49//102 74//102 50//102
f 51//103 75//103 52//103
f 52//104 76//104 77//104
f 52//105 77//105 53//105
f 52//106 75//106 76//106
f 57//107 78//107 80//107
f 57//107 80//107 58//107
f 58//108 79//108 59//108
f 58//109 80//109 102//109
f 58//109 102//109 79//109
f 59//110 79//110 60//110
f 60//111 79//111 102//111
f 60//111 102//111 81//111
f 60//112 81//112 83//112
f 60//113 83//113 61//113
f 61//114 82//114 62//114
f 61//115 83//115 107//115
f 61//115 107//115 82//115
f 62//116 82//116 63//116
f 63//117 82//117 64//117
f 64//118 84//118 65//118
f 64//119 82//119 107//119
f 64//119 107//119 85//119
f 64//120 85//120 110//120
f 64//121 110//121 84//121
f 65//122 86//122 66//122
f 65//123 84//123 86//123
f 66//124 86//124 87//124
f 66//125 87//125 88//125
f 66//126 88//126 68//126
f 68//127 88//127 89//127
f 68//128 89//128 69//128
f 69//129 89//129 90//129
f 69//130 90//130 91//130
f 69//131 91//131 92//131
f 69//132 92//132 70//132
f 70//133 92//133 71//133
f 71//134 92//134 72//134
f 72//135 92//135 93//135
f 72//136 93//136 73//136
f 73//137 94//137 74//137
f 73//138 93//138 95//138
f 73//139 95//139 94//139
f 74//140 94//140 96//140
f 75//141 97//141 98//141
f 75//142 98//142 99//142
f 75//143 99//143 76//143
f 78//144 100//144 101//144
f 78//145 101//145 80//145
f 80//146 101//146 103//146
f 80//147 103//147 104//147
f 80//148 104//148 105//148
f 80//149 105//149 102//149
f 81//150 102//150 105//150
f 81//151 105//151 106//151
f 81//152 106//152 83//152
f 83//153 106//153 108//153
f 83//154 108//154 107//154
f 84//155 109//155 86//155
f 84//156 110//156 132//156
f 84//156 132//156 109//156
f 85//157 107//157 111//157
f 85//158 111//158 106//158
f 85//159 106//159 112//159
f 85//160 112//160 113//160
f 85//161 113//161 110//161
f 86//162 109//162 114//162
f 86//163 114//163 87//163
f 87//164 114//164 138//164
f 87//164 138//164 115//164
f 87//165 115//165 116//165
f 87//165 116//165 88//165
f 88//166 116//166 117//166
f 88//166 117//166 89//166
f 89//167 117//167 119//167
f 89//167 119//167 90//167
f 90//168 118//168 91//168
f 90//169 119//169 142//169
f 90//169 142//169 118//169
f 91//170 93//170 92//170
f 91//171 118//171 120//171
f 91//172 120//172 121//172
f 91//173 121//173 122//173
f 91//174 122//174 93//174
f 93//175 122//175 123//175
f 93//176 123//176 124//176
f 93//177 124//177 95//177
f 94//178 95//178 96//178
f 95//179 124//179 125//179
f 95//180 125//180 96//180
f 97//181 126//181 98//181
f 100//182 127//182 101//182
f 101//183 127//183 103//183
f 103//184 127//184 104//184
f 104//185 127//185 128//185
f 104//186 128//186 106//186
f 104//187 106//187 105//187
f 106//188 111//188 108//188
f 106//189 128//189 129//189
f 106//190 129//190 130//190
f 106//191 130//191 131//191
f 106//192 131//192 112//192
f 107//193 108//193 111//193
f 109//194 132//194 138//194
f 109//195 138//195 114//195
f 110//196 113//196 137//196
f 110//196 137//196 132//196
f 112//197 133//197 134//197
f 112//198 134//198 113//198
f 112//199 131//199 135//199
f 112//200 135//200 136//200
f 112//201 136//201 133//201
f 113//202 134//202 137//202
f 115//203 138//203 137//203
f 115//204 137//204 134//204
f 115//205 134//205 116//205
f 116//206 134//206 139//206
f 116//207 139//207 117//207
f 117//208 139//208 140//208
f 117//209 140//209 119//209
f 118//210 141//210 144//210
f 118//210 144//210 120//210
f 118//211 142//211 165//211
f 118//211 165//211 141//211
f 119//212 140//212 143//212
f 119//213 143//213 142//213
f 120//214 144//214 121//214
f 121//215 144//215 122//215
f 122//216 144//216 145//216
f 122//217 145//217 123//217
f 123//218 146//218 147//218
f 123//219 147//219 124//219
f 123//220 145//220 171//220
f 123//220 171//220 148//220
f 123//221 148//221 172//221
f 123//221 172//221 146//221
f 124//222 147//222 149//222
f 124//223 149//223 150//223
f 127//224 152//224 128//224
f 128//225 152//225 153//225
f 128//226 153//226 129//226
f 129//227 153//227 154//227
f 129//228 154//228 130//228
f 130//229 154//229 153//229
f 130//229 153//229 151//229
f 130//229 151//229 164//229
f 130//229 164//229 163//229
f 130//229 163//229 162//229
f 130//229 162//229 160//229
f 130//230 160//230 159//230
f 130//231 159//231 158//231
f 130//232 158//232 157//232
f 130//233 157//233 156//233
f 130//229 156//229 155//229
f 130//229 155//229 136//229
f 130//233 136//233 135//233
f 130//229 135//229 131//229
f 132//234 137//234 138//234
f 133//235 139//235 134//235
f 133//236 136//236 155//236
f 133//237 155//237 139//237
f 139//238 155//238 156//238
f 139//239 156//239 157//239
f 139//240 157//240 158//240
f 139//241 158//241 159//241
f 139//242 159//242 160//242
f 139//243 160//243 140//243
f 140//244 161//244 143//244
f 140//245 160//245 162//245
f 140//246 162//246 163//246
f 140//247 163//247 164//247
f 140//248 164//248 161//248
f 141//249 165//249 170//249
f 141//250 170//250 144//250
f 142//251 143//251 166//251
f 142//252 166//252 170//252
f 142//253 170//253 165//253
f 143//254 161//254 167//254
f 143//255 167//255 168//255
f 143//256 168//256 169//256
f 143//257 169//257 166//257
f 144//258 170//258 171//258
f 144//258 171//258 145//258
f 146//259 149//259 147//259
f 146//260 172//260 174//260
f 146//260 174//260 149//260
f 148//261 171//261 168//261
f 148//262 168//262 167//262
f 148//263 167//263 173//263
f 148//264 173//264 172//264
f 149//265 174//265 175//265
f 149//265 175//265 150//265
f 161//266 164//266 167//266
f 164//267 176//267 177//267
f 164//268 177//268 167//268
f 166//253 169//253 170//253
f 167//269 177//269 178//269
f 167//270 178//270 179//270
f 167//271 179//271 174//271
f 167//272 174//272 173//272
f 168//273 171//273 170//273
f 168//274 170//274 169//274
f 172//275 173//275 174//275
f 174//276 179//276 175//276
f 175//277 179//277 178//277
f 176//278 178//278 177//278
