# Blender 4.4.3
# www.blender.org
o socket8mm_collision_geom_15
v -0.100647 0.022840 -0.034105
v -0.098123 0.022840 -0.036019
v -0.100647 0.022840 -0.037825
v -0.100647 0.011153 -0.034105
v -0.098123 0.022840 -0.037825
v -0.098123 0.010838 -0.036019
v -0.100647 0.010113 -0.037825
v -0.100647 0.010838 -0.034106
v -0.098123 0.010068 -0.037825
v -0.098123 0.010507 -0.036021
v -0.100469 0.010107 -0.037825
v -0.100647 0.010176 -0.035259
v -0.100647 0.010507 -0.034117
v -0.098123 0.010176 -0.036587
v -0.100647 0.010191 -0.034927
v -0.100469 0.010176 -0.035259
v -0.100137 0.010101 -0.037825
v -0.098123 0.010298 -0.036056
v -0.100647 0.010277 -0.034301
v -0.100584 0.010292 -0.034332
v -0.098123 0.010178 -0.036565
v -0.100647 0.010223 -0.034607
v -0.098123 0.010216 -0.036255
vn -0.0000 1.0000 -0.0000
vn -1.0000 -0.0000 -0.0000
vn 0.6041 -0.0000 0.7969
vn 1.0000 -0.0000 -0.0000
vn -0.0000 -0.0000 -1.0000
vn 0.6041 -0.0009 0.7969
vn 0.6041 -0.0035 0.7969
vn -0.0350 -0.9991 0.0243
vn 0.6019 -0.0272 0.7981
vn 0.0509 -0.9950 0.0864
vn 0.0087 -0.9987 0.0498
vn -0.0000 -0.9991 0.0419
vn -0.0161 -0.9995 0.0260
vn 0.5968 -0.1325 0.7914
vn -0.0188 -0.9995 0.0255
vn -0.0000 -0.9990 0.0451
vn 0.4716 -0.5506 0.6888
vn 0.4818 -0.5450 0.6861
vn 0.0718 -0.9907 0.1153
vn 0.0604 -0.9931 0.1008
vn 0.4675 -0.5819 0.6655
vn 0.2641 -0.8911 0.3691
vn 0.1094 -0.9790 0.1720
vn 0.0751 -0.9900 0.1195
s 0
f 1//1 2//1 5//1
f 1//1 5//1 3//1
f 1//2 3//2 7//2
f 1//2 7//2 12//2
f 1//2 12//2 15//2
f 1//2 15//2 22//2
f 1//2 22//2 19//2
f 1//2 19//2 13//2
f 1//2 13//2 8//2
f 1//2 8//2 4//2
f 1//3 4//3 6//3
f 1//3 6//3 2//3
f 2//4 6//4 10//4
f 2//4 10//4 18//4
f 2//4 18//4 23//4
f 2//4 23//4 21//4
f 2//4 21//4 14//4
f 2//4 14//4 9//4
f 2//4 9//4 5//4
f 3//5 5//5 9//5
f 3//5 9//5 17//5
f 3//5 17//5 11//5
f 3//5 11//5 7//5
f 4//6 8//6 6//6
f 6//7 8//7 10//7
f 7//8 11//8 12//8
f 8//9 13//9 10//9
f 9//10 14//10 15//10
f 9//11 15//11 16//11
f 9//12 16//12 12//12
f 9//13 12//13 17//13
f 10//14 13//14 18//14
f 11//15 17//15 12//15
f 12//16 16//16 15//16
f 13//17 19//17 20//17
f 13//18 20//18 18//18
f 14//19 21//19 22//19
f 14//20 22//20 15//20
f 18//21 20//21 19//21
f 18//22 19//22 23//22
f 19//23 22//23 23//23
f 21//24 23//24 22//24
