# Blender 4.4.3
# www.blender.org
o socket10mm_collision_geom_3
v -0.061852 0.036749 -0.032771
v -0.058912 0.036741 -0.037915
v -0.058912 0.036748 -0.038198
v -0.059196 0.036749 -0.037915
v -0.061852 0.036751 -0.033931
v -0.062184 0.036708 -0.032771
v -0.061520 0.036705 -0.032771
v -0.058912 0.036737 -0.037867
v -0.060192 0.036748 -0.037250
v -0.058912 0.036738 -0.038251
v -0.059528 0.036731 -0.037915
v -0.059860 0.036741 -0.037583
v -0.061520 0.036751 -0.035259
v -0.061852 0.036751 -0.034264
v -0.062184 0.036708 -0.032935
v -0.062283 0.036663 -0.032771
v -0.058912 0.036697 -0.037583
v -0.061188 0.036618 -0.032771
v -0.061188 0.036748 -0.035923
v -0.060197 0.036667 -0.037592
v -0.060533 0.036667 -0.037255
v -0.060524 0.036741 -0.036919
v -0.058912 0.036655 -0.038531
v -0.059228 0.036675 -0.038278
v -0.059528 0.036640 -0.038188
v -0.059852 0.036655 -0.037913
v -0.061520 0.036720 -0.035591
v -0.061852 0.036737 -0.034595
v -0.062184 0.036704 -0.033267
v -0.062385 0.036616 -0.032935
v -0.062385 0.036616 -0.032771
v -0.058912 0.036689 -0.037534
v -0.061101 0.036594 -0.032771
v -0.060930 0.036548 -0.032771
v -0.060846 0.036523 -0.032771
v -0.060856 0.036731 -0.036587
v -0.060089 0.036616 -0.037801
v -0.060429 0.036624 -0.037488
v -0.060854 0.036655 -0.036910
v -0.060743 0.036616 -0.037147
v -0.058912 0.036645 -0.038559
v -0.059138 0.036624 -0.038475
v -0.059736 0.036604 -0.038115
v -0.061220 0.036675 -0.036287
v -0.061524 0.036651 -0.035906
v -0.061747 0.036629 -0.035591
v -0.061813 0.036659 -0.035259
v -0.062095 0.036645 -0.034595
v -0.062131 0.036659 -0.034264
v -0.062381 0.036612 -0.033267
v -0.062420 0.036401 -0.032935
v -0.062420 0.036401 -0.032771
v -0.058912 0.036418 -0.036255
v -0.060520 0.036374 -0.032771
v -0.061129 0.036640 -0.036587
v -0.060286 0.036401 -0.037689
v -0.060464 0.036401 -0.037523
v -0.060630 0.036401 -0.037345
v -0.061057 0.036604 -0.036794
v -0.058912 0.036408 -0.038666
v -0.058912 0.036401 -0.038668
v -0.059192 0.036401 -0.038506
v -0.059358 0.036401 -0.038410
v -0.059528 0.036401 -0.038296
v -0.059756 0.036401 -0.038133
v -0.061417 0.036624 -0.036197
v -0.061702 0.036588 -0.035784
v -0.062054 0.036611 -0.034860
v -0.062369 0.036594 -0.033540
v -0.062413 0.036401 -0.033267
v -0.062514 0.022759 -0.033267
v -0.062520 0.022759 -0.032935
v -0.062520 0.022759 -0.032771
v -0.060344 0.036255 -0.032771
v -0.058912 0.036398 -0.036205
v -0.059866 0.022759 -0.038170
v -0.060181 0.022759 -0.037905
v -0.060186 0.022759 -0.037901
v -0.060488 0.022759 -0.037629
v -0.060516 0.022759 -0.037602
v -0.060530 0.022759 -0.037588
v -0.060570 0.022759 -0.037546
v -0.061074 0.036401 -0.036815
v -0.060842 0.022759 -0.037245
v -0.060847 0.022759 -0.037239
v -0.060849 0.022759 -0.037236
v -0.061111 0.022759 -0.036924
v -0.061238 0.036401 -0.036587
v -0.061352 0.036401 -0.036417
v -0.058912 0.022759 -0.038782
v -0.059161 0.022759 -0.038639
v -0.059428 0.022759 -0.038484
v -0.059456 0.022759 -0.038468
v -0.059621 0.022759 -0.038364
v -0.059860 0.022759 -0.038175
v -0.061448 0.036401 -0.036251
v -0.061710 0.036401 -0.035798
v -0.061809 0.036401 -0.035591
v -0.061942 0.036401 -0.035259
v -0.062072 0.036401 -0.034910
v -0.062176 0.036401 -0.034595
v -0.062253 0.036401 -0.034264
v -0.062349 0.036401 -0.033760
v -0.062378 0.036401 -0.033594
v -0.062480 0.022759 -0.033599
v -0.062511 0.022759 -0.033299
v -0.059862 0.022759 -0.032771
v -0.060339 0.036231 -0.032771
v -0.058912 0.036260 -0.035969
v -0.058912 0.036309 -0.035994
v -0.061305 0.022759 -0.036679
v -0.061394 0.022759 -0.036538
v -0.061409 0.022759 -0.036514
v -0.061573 0.022759 -0.036232
v -0.058912 0.022759 -0.035414
v -0.061750 0.022759 -0.035925
v -0.061930 0.022759 -0.035564
v -0.061932 0.022759 -0.035558
v -0.062054 0.022759 -0.035247
v -0.062179 0.036070 -0.034595
v -0.062160 0.022759 -0.034959
v -0.062172 0.022759 -0.034926
v -0.062260 0.036070 -0.034264
v -0.062409 0.022759 -0.033999
v -0.059862 0.027438 -0.032771
v -0.058912 0.036070 -0.035899
v -0.058912 0.027438 -0.035414
v -0.062284 0.022759 -0.034585
v -0.062286 0.022759 -0.034578
v -0.062291 0.022759 -0.034563
v -0.062361 0.022759 -0.034264
vn 0.0449 0.9987 0.0241
vn 0.0100 0.9999 0.0052
vn 0.0023 1.0000 0.0012
vn -0.1227 0.9924 0.0012
vn -0.0000 -0.0000 1.0000
vn 0.0001 -0.0000 1.0000
vn -0.0001 -0.0000 1.0000
vn 0.1306 0.9887 0.0730
vn 1.0000 -0.0000 -0.0000
vn 1.0000 -0.0031 -0.0000
vn 1.0000 -0.0006 -0.0000
vn 1.0000 0.0002 -0.0000
vn 1.0000 -0.0001 -0.0000
vn 1.0000 -0.0002 -0.0000
vn 1.0000 0.0005 -0.0000
vn 1.0000 0.0004 -0.0000
vn 0.1522 0.9848 0.0840
vn -0.0139 0.9997 -0.0188
vn -0.1085 0.9779 -0.1789
vn -0.0735 0.9920 -0.1023
vn -0.0582 0.9952 -0.0786
vn 0.0008 1.0000 0.0002
vn -0.0041 1.0000 -0.0042
vn -0.0000 1.0000 -0.0000
vn -0.1267 0.9919 -0.0000
vn -0.4145 0.9100 -0.0000
vn 0.2508 0.9587 0.1342
vn 0.2530 0.9579 0.1354
vn -0.0166 0.9998 -0.0124
vn -0.2036 0.9533 -0.2229
vn -0.2218 0.9495 -0.2218
vn -0.2230 0.9534 -0.2034
vn -0.0819 0.9947 -0.0614
vn -0.1641 0.9453 -0.2820
vn -0.1642 0.9454 -0.2817
vn -0.2040 0.9280 -0.3119
vn -0.2209 0.9245 -0.3107
vn -0.2232 0.9350 -0.2756
vn -0.2031 0.9516 -0.2306
vn -0.1700 0.9814 -0.0891
vn -0.2166 0.9723 -0.0883
vn -0.1228 0.9916 -0.0409
vn -0.2549 0.9661 -0.0399
vn -0.1745 0.9846 -0.0122
vn -0.4154 0.9096 -0.0112
vn -0.4154 0.9096 -0.0007
vn -0.4163 0.9092 -0.0000
vn 0.2564 0.9568 0.1370
vn 0.2598 0.9557 0.1386
vn 0.2795 0.9489 0.1466
vn 0.3087 0.9379 0.1581
vn -0.1066 0.9912 -0.0779
vn -0.2080 0.9697 -0.1280
vn -0.3169 0.8717 -0.3738
vn -0.3282 0.8656 -0.3782
vn -0.3006 0.9052 -0.3005
vn -0.2753 0.9352 -0.2229
vn -0.2305 0.9517 -0.2028
vn -0.3782 0.8656 -0.3283
vn -0.3739 0.8716 -0.3169
vn -0.1966 0.9265 -0.3210
vn -0.2061 0.9208 -0.3311
vn -0.2092 0.9197 -0.3322
vn -0.3019 0.8383 -0.4540
vn -0.2841 0.8791 -0.3827
vn -0.3273 0.8554 -0.4013
vn -0.3011 0.9344 -0.1905
vn -0.3254 0.9241 -0.2003
vn -0.3674 0.9091 -0.1964
vn -0.3701 0.9157 -0.1568
vn -0.3423 0.9306 -0.1295
vn -0.3494 0.9280 -0.1296
vn -0.3514 0.9331 -0.0763
vn -0.3346 0.9404 -0.0605
vn -0.4207 0.9050 -0.0634
vn -0.4215 0.9067 -0.0157
vn -0.9867 0.1621 -0.0125
vn -0.9868 0.1621 -0.0000
vn 0.3927 0.8997 0.1907
vn 0.4080 0.8909 0.1995
vn -0.3101 0.9248 -0.2205
vn -0.3112 0.9282 -0.2039
vn -0.6459 0.2092 -0.7342
vn -0.6574 0.2282 -0.7181
vn -0.6662 0.2182 -0.7132
vn -0.7132 0.2182 -0.6662
vn -0.7182 0.2282 -0.6574
vn -0.4017 0.8553 -0.3273
vn -0.3832 0.8786 -0.2849
vn -0.7344 0.2089 -0.6458
vn -0.3506 0.3857 -0.8534
vn -0.4372 0.2936 -0.8501
vn -0.4862 0.2353 -0.8416
vn -0.4885 0.2356 -0.8402
vn -0.5048 0.2563 -0.8243
vn -0.5477 0.1691 -0.8194
vn -0.5765 0.1285 -0.8069
vn -0.6368 0.1305 -0.7599
vn -0.3321 0.9198 -0.2092
vn -0.3304 0.9214 -0.2045
vn -0.4151 0.8797 -0.2321
vn -0.5285 0.7966 -0.2933
vn -0.7500 0.5889 -0.3010
vn -0.4938 0.8493 -0.1869
vn -0.4351 0.8848 -0.1670
vn -0.8478 0.4927 -0.1960
vn -0.5056 0.8581 -0.0898
vn -0.4783 0.8746 -0.0793
vn -0.9873 0.1488 -0.0557
vn -0.9886 0.1489 -0.0211
vn -0.9997 0.0074 -0.0213
vn -0.9998 0.0073 -0.0181
vn -1.0000 0.0073 -0.0000
vn 0.5423 0.7988 0.2603
vn 0.6074 0.7418 0.2843
vn -0.4550 0.8374 -0.3030
vn -0.6423 0.0072 -0.7664
vn -0.6430 0.0072 -0.7658
vn -0.6638 0.0067 -0.7479
vn -0.6695 0.0066 -0.7428
vn -0.6826 0.0069 -0.7307
vn -0.6916 0.0068 -0.7222
vn -0.7011 0.0068 -0.7130
vn -0.7249 0.0068 -0.6888
vn -0.7308 0.0068 -0.6826
vn -0.7599 0.1309 -0.6367
vn -0.7423 0.0066 -0.6700
vn -0.7551 0.0069 -0.6556
vn -0.7675 0.0072 -0.6410
vn -0.7658 0.0072 -0.6431
vn -0.7664 0.0072 -0.6423
vn -0.7273 0.5131 -0.4558
vn -0.8062 0.1289 -0.5774
vn -0.8185 0.1687 -0.5492
vn -0.8227 0.2266 -0.5214
vn -0.4995 0.0072 -0.8663
vn -0.5003 0.0073 -0.8658
vn -0.5005 0.0073 -0.8657
vn -0.5026 0.0073 -0.8645
vn -0.5087 0.0073 -0.8609
vn -0.5339 0.0074 -0.8455
vn -0.5557 0.0079 -0.8313
vn -0.5813 0.0080 -0.8136
vn -0.6199 0.0071 -0.7846
vn -0.6398 0.0072 -0.7685
vn -0.8629 0.0765 -0.4995
vn -0.8632 0.0755 -0.4992
vn -0.9001 0.0718 -0.4297
vn -0.9178 0.1437 -0.3702
vn -0.9164 0.1865 -0.3543
vn -0.9255 0.1605 -0.3432
vn -0.9382 0.1537 -0.3100
vn -0.9382 0.2670 -0.2203
vn -0.9438 0.2484 -0.2179
vn -0.9762 0.1107 -0.1864
vn -0.9799 0.0967 -0.1746
vn -0.9913 0.0783 -0.1061
vn -0.9943 0.0074 -0.1064
vn -0.9945 0.0074 -0.1042
vn -0.9950 0.0074 -0.0996
vn -0.0000 -1.0000 -0.0024
vn -0.0000 -1.0000 -0.0000
vn -0.0000 -1.0000 0.0001
vn -0.0000 -1.0000 -0.0002
vn -0.0000 -1.0000 -0.0006
vn -0.0000 -1.0000 -0.0010
vn -0.0000 -1.0000 0.0002
vn -0.0000 -1.0000 -0.0001
vn -0.0000 -1.0000 0.0003
vn 0.8936 0.2029 0.4004
vn 0.8931 0.2055 0.4003
vn 0.6436 0.7049 0.2979
vn -0.7850 0.0071 -0.6195
vn -0.8130 0.0079 -0.5822
vn -0.8304 0.0078 -0.5572
vn -0.8450 0.0074 -0.5348
vn -0.8464 0.0073 -0.5326
vn -0.8645 0.0072 -0.5026
vn -0.8654 0.0072 -0.5010
vn -0.8656 0.0072 -0.5006
vn -0.8661 0.0072 -0.4999
vn -0.8954 0.0068 -0.4453
vn -0.9024 0.0072 -0.4308
vn -0.9217 0.0074 -0.3878
vn -0.9274 0.0075 -0.3740
vn -0.9308 0.0073 -0.3654
vn -0.9376 0.0074 -0.3477
vn -0.9495 0.0081 -0.3137
vn -0.9384 0.0073 -0.3456
vn -0.9415 0.0073 -0.3368
vn -0.9492 0.0073 -0.3144
vn -0.9711 0.0083 -0.2387
vn -0.9741 0.0228 -0.2249
vn -0.9820 0.0230 -0.1875
vn -0.9841 0.0075 -0.1776
vn -0.9845 0.0075 -0.1754
vn -0.9849 0.0074 -0.1730
vn 0.9411 -0.0000 0.3382
vn 0.9028 0.1474 0.4041
vn 0.9097 0.0493 0.4123
vn -0.9500 0.0073 -0.3122
vn -0.9502 0.0073 -0.3114
vn -0.9579 0.0074 -0.2871
vn -0.9711 0.0076 -0.2387
vn -0.9740 0.0073 -0.2263
vn -0.9834 0.0074 -0.1814
vn 0.9409 0.0190 0.3382
s 0
f 1//1 2//1 3//1
f 1//2 3//2 4//2
f 1//3 4//3 5//3
f 1//4 5//4 6//4
f 1//5 6//5 16//5
f 1//5 16//5 31//5
f 1//5 31//5 52//5
f 1//5 52//5 73//5
f 1//5 73//5 107//5
f 1//5 107//5 125//5
f 1//5 125//5 108//5
f 1//5 108//5 74//5
f 1//5 74//5 54//5
f 1//5 54//5 35//5
f 1//6 35//6 34//6
f 1//5 34//5 33//5
f 1//7 33//7 18//7
f 1//5 18//5 7//5
f 1//8 7//8 2//8
f 2//9 8//9 17//9
f 2//10 17//10 32//10
f 2//9 32//9 53//9
f 2//11 53//11 75//11
f 2//12 75//12 110//12
f 2//13 110//13 109//13
f 2//9 109//9 126//9
f 2//9 126//9 127//9
f 2//9 127//9 115//9
f 2//9 115//9 90//9
f 2//9 90//9 61//9
f 2//14 61//14 60//14
f 2//9 60//9 41//9
f 2//15 41//15 23//15
f 2//13 23//13 10//13
f 2//16 10//16 3//16
f 2//17 7//17 8//17
f 3//18 9//18 4//18
f 3//19 10//19 11//19
f 3//20 11//20 12//20
f 3//21 12//21 9//21
f 4//22 13//22 5//22
f 4//23 9//23 13//23
f 5//24 13//24 14//24
f 5//25 14//25 15//25
f 5//25 15//25 6//25
f 6//26 15//26 16//26
f 7//27 17//27 8//27
f 7//28 18//28 17//28
f 9//29 19//29 13//29
f 9//30 12//30 20//30
f 9//31 20//31 21//31
f 9//32 21//32 22//32
f 9//33 22//33 19//33
f 10//34 23//34 24//34
f 10//35 24//35 11//35
f 11//36 24//36 25//36
f 11//37 25//37 26//37
f 11//38 26//38 20//38
f 11//39 20//39 12//39
f 13//40 19//40 27//40
f 13//41 27//41 28//41
f 13//42 28//42 14//42
f 14//43 28//43 29//43
f 14//44 29//44 15//44
f 15//45 29//45 30//45
f 15//46 30//46 16//46
f 16//47 30//47 31//47
f 17//48 18//48 33//48
f 17//49 33//49 34//49
f 17//50 34//50 35//50
f 17//51 35//51 32//51
f 19//52 22//52 36//52
f 19//53 36//53 27//53
f 20//54 26//54 37//54
f 20//55 37//55 38//55
f 20//56 38//56 21//56
f 21//57 39//57 36//57
f 21//58 36//58 22//58
f 21//59 38//59 40//59
f 21//60 40//60 39//60
f 23//61 41//61 24//61
f 24//62 41//62 42//62
f 24//63 42//63 25//63
f 25//64 42//64 43//64
f 25//65 43//65 26//65
f 26//66 43//66 37//66
f 27//67 36//67 44//67
f 27//68 44//68 45//68
f 27//69 45//69 46//69
f 27//70 46//70 47//70
f 27//71 47//71 28//71
f 28//72 47//72 48//72
f 28//73 48//73 49//73
f 28//74 49//74 29//74
f 29//75 49//75 50//75
f 29//76 50//76 30//76
f 30//77 50//77 51//77
f 30//78 51//78 52//78
f 30//78 52//78 31//78
f 32//79 35//79 53//79
f 35//80 54//80 53//80
f 36//81 39//81 55//81
f 36//82 55//82 44//82
f 37//83 43//83 56//83
f 37//84 56//84 38//84
f 38//85 56//85 57//85
f 38//86 57//86 58//86
f 38//87 58//87 40//87
f 39//88 40//88 59//88
f 39//89 59//89 55//89
f 40//90 58//90 59//90
f 41//91 60//91 42//91
f 42//92 60//92 61//92
f 42//93 61//93 62//93
f 42//94 62//94 63//94
f 42//95 63//95 43//95
f 43//96 63//96 64//96
f 43//97 64//97 65//97
f 43//98 65//98 56//98
f 44//99 55//99 66//99
f 44//100 66//100 45//100
f 45//101 66//101 46//101
f 46//102 66//102 67//102
f 46//103 67//103 68//103
f 46//104 68//104 48//104
f 46//105 48//105 47//105
f 48//106 68//106 69//106
f 48//107 69//107 49//107
f 49//108 69//108 50//108
f 50//109 69//109 70//109
f 50//110 70//110 51//110
f 51//111 70//111 71//111
f 51//112 71//112 72//112
f 51//113 72//113 73//113
f 51//113 73//113 52//113
f 53//114 54//114 74//114
f 53//115 74//115 75//115
f 55//116 59//116 66//116
f 56//117 65//117 76//117
f 56//118 76//118 77//118
f 56//119 77//119 78//119
f 56//120 78//120 79//120
f 56//121 79//121 57//121
f 57//122 79//122 80//122
f 57//123 80//123 81//123
f 57//124 81//124 82//124
f 57//125 82//125 58//125
f 58//126 83//126 59//126
f 58//127 82//127 84//127
f 58//128 84//128 85//128
f 58//129 85//129 86//129
f 58//130 86//130 87//130
f 58//131 87//131 83//131
f 59//132 67//132 66//132
f 59//133 83//133 88//133
f 59//134 88//134 89//134
f 59//135 89//135 67//135
f 61//136 90//136 91//136
f 61//137 91//137 62//137
f 62//138 91//138 92//138
f 62//139 92//139 63//139
f 63//140 92//140 93//140
f 63//141 93//141 94//141
f 63//142 94//142 64//142
f 64//143 94//143 65//143
f 65//144 94//144 95//144
f 65//145 95//145 76//145
f 67//146 89//146 96//146
f 67//147 96//147 97//147
f 67//148 97//148 98//148
f 67//149 98//149 99//149
f 67//150 99//150 68//150
f 68//151 99//151 100//151
f 68//152 100//152 101//152
f 68//153 101//153 69//153
f 69//154 101//154 102//154
f 69//155 102//155 103//155
f 69//156 103//156 104//156
f 69//157 104//157 70//157
f 70//158 104//158 105//158
f 70//159 105//159 106//159
f 70//160 106//160 71//160
f 71//161 106//161 105//161
f 71//162 105//162 124//162
f 71//163 124//163 131//163
f 71//162 131//162 130//162
f 71//162 130//162 129//162
f 71//163 129//163 128//163
f 71//162 128//162 122//162
f 71//164 122//164 121//164
f 71//162 121//162 119//162
f 71//162 119//162 118//162
f 71//165 118//165 117//165
f 71//162 117//162 116//162
f 71//162 116//162 114//162
f 71//162 114//162 113//162
f 71//162 113//162 112//162
f 71//162 112//162 111//162
f 71//162 111//162 87//162
f 71//162 87//162 86//162
f 71//166 86//166 85//166
f 71//167 85//167 84//167
f 71//162 84//162 82//162
f 71//168 82//168 81//168
f 71//163 81//163 80//163
f 71//168 80//168 79//168
f 71//162 79//162 78//162
f 71//169 78//169 77//169
f 71//162 77//162 76//162
f 71//169 76//169 95//169
f 71//162 95//162 94//162
f 71//162 94//162 93//162
f 71//162 93//162 92//162
f 71//162 92//162 91//162
f 71//162 91//162 90//162
f 71//162 90//162 115//162
f 71//162 115//162 107//162
f 71//162 107//162 73//162
f 71//162 73//162 72//162
f 74//170 108//170 109//170
f 74//171 109//171 110//171
f 74//172 110//172 75//172
f 83//173 87//173 111//173
f 83//174 111//174 88//174
f 88//175 111//175 89//175
f 89//176 111//176 112//176
f 89//177 112//177 113//177
f 89//178 113//178 114//178
f 89//179 114//179 96//179
f 96//180 114//180 97//180
f 97//181 114//181 116//181
f 97//182 116//182 117//182
f 97//183 117//183 98//183
f 98//184 117//184 118//184
f 98//185 118//185 99//185
f 99//186 118//186 119//186
f 99//187 119//187 100//187
f 100//188 120//188 101//188
f 100//189 119//189 121//189
f 100//190 121//190 122//190
f 100//191 122//191 120//191
f 101//192 120//192 123//192
f 101//193 123//193 102//193
f 102//194 123//194 103//194
f 103//195 123//195 124//195
f 103//196 124//196 104//196
f 104//197 124//197 105//197
f 107//198 115//198 127//198
f 107//198 127//198 125//198
f 108//199 126//199 109//199
f 108//200 125//200 126//200
f 120//201 122//201 128//201
f 120//202 128//202 129//202
f 120//203 129//203 130//203
f 120//204 130//204 123//204
f 123//205 130//205 131//205
f 123//206 131//206 124//206
f 125//207 127//207 126//207
