# Blender 4.4.3
# www.blender.org
o socket10mm_collision_geom_6
v -0.055544 0.022759 -0.025959
v -0.055876 0.022759 -0.025959
v -0.055212 0.022759 -0.025965
v -0.055544 0.036401 -0.026059
v -0.056201 0.022759 -0.025965
v -0.055876 0.036401 -0.026059
v -0.054880 0.022759 -0.026000
v -0.055212 0.036401 -0.026066
v -0.055212 0.036612 -0.026097
v -0.055544 0.036616 -0.026094
v -0.056201 0.022759 -0.028632
v -0.056201 0.036401 -0.026065
v -0.055876 0.036616 -0.026094
v -0.056201 0.036612 -0.026097
v -0.056201 0.036405 -0.026066
v -0.054533 0.022759 -0.026061
v -0.054885 0.036401 -0.026101
v -0.054939 0.036594 -0.026110
v -0.054216 0.036659 -0.026348
v -0.055212 0.036704 -0.026295
v -0.055544 0.036708 -0.026295
v -0.053893 0.022759 -0.029029
v -0.056201 0.027107 -0.028632
v -0.055876 0.036708 -0.026295
v -0.056201 0.036704 -0.026295
v -0.054216 0.022759 -0.026119
v -0.054216 0.036070 -0.026219
v -0.054719 0.036401 -0.026130
v -0.053893 0.036638 -0.026379
v -0.053893 0.036645 -0.026382
v -0.054216 0.036401 -0.026227
v -0.053893 0.036401 -0.026301
v -0.053893 0.036734 -0.026620
v -0.053893 0.036737 -0.026627
v -0.054216 0.036751 -0.026627
v -0.053893 0.027438 -0.029029
v -0.053893 0.022759 -0.026196
v -0.056201 0.027438 -0.028631
v -0.054880 0.036751 -0.026627
v -0.055544 0.036749 -0.026627
v -0.056201 0.036748 -0.026627
v -0.053916 0.022759 -0.026189
v -0.053893 0.036070 -0.026298
v -0.053893 0.036392 -0.026301
v -0.053893 0.036744 -0.026950
v -0.053893 0.036744 -0.026959
v -0.055046 0.036236 -0.028453
v -0.053893 0.027445 -0.029028
v -0.053901 0.022759 -0.026193
v -0.056201 0.036070 -0.028060
v -0.056201 0.036748 -0.026634
v -0.053906 0.022759 -0.026191
v -0.053893 0.036698 -0.027282
v -0.056201 0.036704 -0.026959
v -0.056201 0.036071 -0.028060
v -0.056201 0.036330 -0.027963
v -0.056201 0.036519 -0.027635
v -0.055179 0.036305 -0.028290
v -0.054880 0.036335 -0.028287
v -0.054880 0.036244 -0.028459
v -0.054614 0.036246 -0.028461
v -0.053893 0.036070 -0.028409
v -0.053893 0.036697 -0.027291
v -0.056201 0.036703 -0.026966
v -0.056201 0.036571 -0.027469
v -0.053893 0.036533 -0.027935
v -0.055212 0.036451 -0.027955
v -0.053893 0.036360 -0.028263
v -0.053893 0.036607 -0.027647
v -0.056201 0.036618 -0.027295
vn -0.0000 -1.0000 -0.0000
vn -0.0000 -1.0000 -0.0007
vn -0.0000 -1.0000 0.0032
vn -0.0000 -1.0000 -0.0022
vn -0.0000 -1.0000 0.0001
vn -0.0000 -1.0000 -0.0001
vn 0.0172 0.0073 0.9998
vn -0.0000 0.0073 1.0000
vn -0.0176 0.0073 0.9998
vn 0.1045 0.0073 0.9945
vn 0.0208 0.0074 0.9998
vn 0.0206 0.1479 0.9888
vn 0.0119 0.1613 0.9868
vn -0.0000 0.1613 0.9869
vn -0.0203 0.0074 0.9998
vn -1.0000 -0.0001 -0.0000
vn -1.0000 -0.0000 -0.0000
vn -1.0000 0.0001 -0.0000
vn -0.0121 0.1613 0.9868
vn -0.0200 0.1494 0.9886
vn -0.0201 0.1432 0.9895
vn 0.1729 0.0074 0.9849
vn 0.1070 0.0074 0.9942
vn 0.1067 0.0774 0.9913
vn 0.0563 0.1477 0.9874
vn 0.0796 0.8742 0.4789
vn 0.0634 0.9052 0.4202
vn 0.0154 0.9069 0.4210
vn 0.0113 0.9097 0.4152
vn -0.0000 0.9097 0.4153
vn -0.1696 -0.0000 -0.9855
vn -0.0115 0.9096 0.4152
vn -0.0158 0.9069 0.4210
vn 0.1802 0.0074 0.9836
vn 0.1777 0.0074 0.9841
vn 0.1746 0.0074 0.9846
vn 0.1738 0.0955 0.9801
vn 0.2087 0.4246 0.8810
vn 0.0906 0.8568 0.5076
vn 0.1866 0.1104 0.9762
vn 0.2178 0.2465 0.9444
vn 0.2252 0.3051 0.9253
vn 0.0771 0.9334 0.3505
vn 0.0681 0.9377 0.3408
vn 0.0604 0.9410 0.3331
vn 0.0409 0.9652 0.2581
vn 0.0122 0.9845 0.1747
vn -0.0000 0.9919 0.1269
vn -0.0000 0.9919 0.1268
vn 1.0000 -0.0000 -0.0000
vn 1.0000 -0.0001 -0.0000
vn 1.0000 -0.0002 -0.0000
vn -0.1700 0.0027 -0.9854
vn -0.0020 0.9927 0.1208
vn -0.0021 0.9927 0.1208
vn -0.0125 0.9913 0.1308
vn 0.2266 0.0073 0.9739
vn 0.2384 0.0082 0.9711
vn 0.2245 0.0230 0.9742
vn 0.1877 0.0231 0.9820
vn 0.2384 0.0076 0.9711
vn 0.2247 0.0299 0.9740
vn 0.0423 0.9989 0.0212
vn 0.0212 0.9998 -0.0000
vn -0.0000 0.9998 -0.0206
vn -0.1698 0.0422 -0.9846
vn -0.1670 0.0427 -0.9850
vn 0.3467 0.0072 0.9380
vn -0.3293 0.0623 -0.9422
vn -0.0019 0.9997 -0.0264
vn -0.0021 1.0000 -0.0048
vn -0.0021 1.0000 -0.0000
vn 0.2418 0.0075 0.9703
vn 0.3159 0.0073 0.9488
vn -0.0170 0.9902 -0.1386
vn -0.0171 0.9909 -0.1336
vn -0.3399 0.2057 -0.9177
vn -0.3458 0.3285 -0.8789
vn -0.1396 0.8578 -0.4946
vn -0.1212 0.8723 -0.4737
vn -0.0846 0.8885 -0.4509
vn -0.0606 0.8805 -0.4701
vn -0.0391 0.0602 -0.9974
vn 0.0878 0.0713 -0.9936
vn -0.0074 0.0638 -0.9979
vn -0.0186 0.9885 -0.1500
vn -0.0250 0.9804 -0.1952
vn -0.0445 0.9532 -0.2991
vn -0.0525 0.9308 -0.3618
vn -0.0583 0.9238 -0.3785
vn -0.0860 0.8998 -0.4278
vn -0.0109 0.8830 -0.4693
vn -0.0123 0.8821 -0.4709
vn -0.0520 0.9264 -0.3730
vn -0.0111 0.8853 -0.4648
vn 0.1708 0.4427 -0.8803
vn -0.0324 0.9687 -0.2461
vn -0.0332 0.9680 -0.2487
vn -0.0337 0.9677 -0.2500
vn -0.0359 0.9656 -0.2575
s 0
f 1//1 2//1 5//1
f 1//1 5//1 11//1
f 1//1 11//1 22//1
f 1//1 22//1 37//1
f 1//2 37//2 49//2
f 1//3 49//3 52//3
f 1//4 52//4 42//4
f 1//5 42//5 26//5
f 1//1 26//1 16//1
f 1//6 16//6 7//6
f 1//1 7//1 3//1
f 1//7 3//7 4//7
f 1//8 4//8 6//8
f 1//8 6//8 2//8
f 2//9 6//9 5//9
f 3//10 7//10 8//10
f 3//11 8//11 4//11
f 4//12 8//12 9//12
f 4//13 9//13 10//13
f 4//14 10//14 13//14
f 4//14 13//14 6//14
f 5//15 6//15 12//15
f 5//16 12//16 15//16
f 5//17 15//17 14//17
f 5//17 14//17 25//17
f 5//17 25//17 41//17
f 5//17 41//17 51//17
f 5//17 51//17 54//17
f 5//17 54//17 64//17
f 5//17 64//17 70//17
f 5//17 70//17 65//17
f 5//17 65//17 57//17
f 5//17 57//17 56//17
f 5//17 56//17 55//17
f 5//18 55//18 50//18
f 5//17 50//17 38//17
f 5//17 38//17 23//17
f 5//17 23//17 11//17
f 6//19 13//19 14//19
f 6//20 14//20 15//20
f 6//21 15//21 12//21
f 7//22 16//22 17//22
f 7//23 17//23 8//23
f 8//24 17//24 18//24
f 8//25 18//25 9//25
f 9//26 18//26 19//26
f 9//27 19//27 20//27
f 9//28 20//28 10//28
f 10//29 20//29 21//29
f 10//30 21//30 24//30
f 10//30 24//30 13//30
f 11//31 23//31 36//31
f 11//31 36//31 22//31
f 13//32 24//32 25//32
f 13//33 25//33 14//33
f 16//34 26//34 27//34
f 16//35 27//35 28//35
f 16//36 28//36 17//36
f 17//37 28//37 18//37
f 18//38 29//38 30//38
f 18//39 30//39 19//39
f 18//40 28//40 31//40
f 18//41 31//41 32//41
f 18//42 32//42 29//42
f 19//43 30//43 33//43
f 19//44 33//44 34//44
f 19//45 34//45 20//45
f 20//46 34//46 35//46
f 20//47 35//47 21//47
f 21//48 35//48 39//48
f 21//49 39//49 24//49
f 22//50 36//50 48//50
f 22//50 48//50 62//50
f 22//50 62//50 68//50
f 22//50 68//50 66//50
f 22//50 66//50 69//50
f 22//50 69//50 63//50
f 22//51 63//51 53//51
f 22//50 53//50 46//50
f 22//50 46//50 45//50
f 22//50 45//50 34//50
f 22//50 34//50 33//50
f 22//50 33//50 30//50
f 22//51 30//51 29//51
f 22//50 29//50 32//50
f 22//52 32//52 44//52
f 22//50 44//50 43//50
f 22//50 43//50 37//50
f 23//53 38//53 36//53
f 24//54 39//54 40//54
f 24//55 40//55 41//55
f 24//56 41//56 25//56
f 26//57 42//57 27//57
f 27//58 43//58 44//58
f 27//59 44//59 31//59
f 27//60 31//60 28//60
f 27//61 42//61 43//61
f 31//62 44//62 32//62
f 34//63 45//63 35//63
f 35//64 45//64 46//64
f 35//65 46//65 39//65
f 36//66 38//66 47//66
f 36//67 47//67 48//67
f 37//68 43//68 49//68
f 38//69 50//69 47//69
f 39//70 46//70 51//70
f 39//71 51//71 40//71
f 40//72 51//72 41//72
f 42//73 52//73 43//73
f 43//74 52//74 49//74
f 46//75 53//75 54//75
f 46//76 54//76 51//76
f 47//77 50//77 55//77
f 47//78 55//78 56//78
f 47//79 56//79 57//79
f 47//80 57//80 58//80
f 47//81 58//81 59//81
f 47//82 59//82 60//82
f 47//83 60//83 48//83
f 48//84 61//84 62//84
f 48//85 60//85 61//85
f 53//86 63//86 54//86
f 54//87 63//87 64//87
f 57//88 65//88 66//88
f 57//89 66//89 67//89
f 57//90 67//90 59//90
f 57//91 59//91 58//91
f 59//92 68//92 61//92
f 59//93 61//93 60//93
f 59//94 67//94 66//94
f 59//95 66//95 68//95
f 61//96 68//96 62//96
f 63//97 69//97 64//97
f 64//98 69//98 66//98
f 64//99 66//99 70//99
f 65//100 70//100 66//100
