# Blender 4.4.3
# www.blender.org
o socket11mm_collision_geom_27
v -0.029398 0.009882 -0.037203
v -0.029370 0.003866 -0.037203
v -0.029398 0.010044 -0.036167
v -0.029398 0.022452 -0.037203
v -0.029334 0.003549 -0.037203
v -0.029346 0.003866 -0.036166
v -0.029348 0.003957 -0.036166
v -0.029397 0.010044 -0.036166
v -0.029398 0.010180 -0.036166
v -0.029398 0.022452 -0.036166
v -0.028878 0.022452 -0.037203
v -0.029331 0.003534 -0.037203
v -0.029257 0.003642 -0.036166
v -0.028226 0.022452 -0.036166
v -0.028773 0.022452 -0.037075
v -0.026232 0.020045 -0.037203
v -0.029229 0.003321 -0.037203
v -0.029221 0.003566 -0.036166
v -0.025734 0.020017 -0.036166
v -0.025739 0.020013 -0.036196
v -0.026049 0.020030 -0.036919
v -0.026096 0.019985 -0.037108
v -0.028275 0.022452 -0.036255
v -0.028681 0.022452 -0.036934
v -0.026137 0.019800 -0.037203
v -0.029118 0.003355 -0.036678
v -0.029184 0.003304 -0.037203
v -0.029075 0.003376 -0.036456
v -0.029011 0.003393 -0.036255
v -0.028983 0.003400 -0.036166
v -0.025724 0.019991 -0.036166
v -0.025719 0.019800 -0.036250
v -0.025780 0.019800 -0.036416
v -0.025844 0.019800 -0.036587
v -0.028497 0.022452 -0.036638
v -0.028399 0.022452 -0.036469
v -0.025987 0.019800 -0.036919
v -0.026089 0.019800 -0.037120
v -0.026137 0.003534 -0.037203
v -0.028932 0.003257 -0.036919
v -0.028932 0.003223 -0.037203
v -0.028951 0.003321 -0.036575
v -0.028599 0.003279 -0.036255
v -0.028777 0.003344 -0.036166
v -0.025690 0.019800 -0.036166
v -0.025689 0.019715 -0.036166
v -0.025842 0.019468 -0.036587
v -0.025986 0.019468 -0.036919
v -0.026089 0.003534 -0.037120
v -0.026096 0.003351 -0.037108
v -0.026144 0.003449 -0.037203
v -0.028599 0.003232 -0.036587
v -0.028510 0.003272 -0.036166
v -0.028884 0.003215 -0.037203
v -0.028268 0.003210 -0.036255
v -0.025689 0.003866 -0.036166
v -0.025842 0.003866 -0.036587
v -0.025986 0.003866 -0.036919
v -0.025987 0.003534 -0.036919
v -0.025844 0.003534 -0.036587
v -0.025739 0.003323 -0.036196
v -0.026049 0.003310 -0.036919
v -0.026252 0.003289 -0.037203
v -0.026232 0.003302 -0.037203
v -0.028268 0.003221 -0.036166
v -0.028599 0.003189 -0.037203
v -0.028599 0.003200 -0.036919
v -0.028179 0.003206 -0.036166
v -0.025690 0.003534 -0.036166
v -0.025719 0.003534 -0.036250
v -0.025780 0.003534 -0.036416
v -0.025734 0.003319 -0.036166
v -0.025978 0.003278 -0.036587
v -0.026276 0.003219 -0.036919
v -0.026273 0.003281 -0.037203
v -0.028552 0.003187 -0.037203
v -0.027936 0.003185 -0.036255
v -0.028268 0.003191 -0.036587
v -0.027936 0.003189 -0.036166
v -0.025840 0.003276 -0.036166
v -0.025923 0.003246 -0.036166
v -0.026276 0.003185 -0.036587
v -0.026560 0.003193 -0.037203
v -0.028268 0.003185 -0.037203
v -0.028268 0.003185 -0.036919
v -0.027847 0.003185 -0.036166
v -0.026187 0.003189 -0.036166
v -0.026608 0.003185 -0.036919
v -0.026608 0.003189 -0.037203
v -0.026276 0.003185 -0.036166
v -0.026892 0.003185 -0.037203
vn -1.0000 -0.0047 0.0007
vn -1.0000 -0.0000 -0.0000
vn -0.0000 -0.0000 -1.0000
vn -0.0001 -0.0000 -1.0000
vn 0.0003 -0.0000 -1.0000
vn 0.0001 -0.0000 -1.0000
vn -0.0002 -0.0000 -1.0000
vn -0.0021 -0.0000 -1.0000
vn -0.9932 -0.1138 0.0226
vn -0.9996 -0.0161 0.0228
vn -0.9997 -0.0083 0.0221
vn -0.3522 -0.0029 0.9359
vn -0.3541 -0.0029 0.9352
vn -0.0000 1.0000 -0.0000
vn -0.9893 -0.1428 0.0315
vn -0.9246 -0.3665 0.1040
vn -0.0003 -0.0000 1.0000
vn -0.0000 -0.0000 1.0000
vn 0.0001 -0.0000 1.0000
vn -0.0001 -0.0000 1.0000
vn -0.0002 -0.0000 1.0000
vn -0.0704 -0.0000 0.9975
vn 0.5884 0.6471 -0.4848
vn -0.8960 -0.4305 0.1086
vn -0.8957 -0.4311 0.1088
vn 0.6828 0.6990 -0.2124
vn 0.6721 0.6888 -0.2718
vn 0.6499 0.6861 -0.3270
vn 0.6379 0.6851 -0.3516
vn 0.6173 0.6753 -0.4036
vn 0.6045 0.6619 -0.4431
vn 0.6257 0.2409 -0.7419
vn -0.6327 -0.7525 0.1828
vn -0.3494 -0.9273 0.1340
vn -0.6179 -0.7630 0.1901
vn -0.5547 -0.7956 0.2434
vn -0.5536 -0.7956 0.2460
vn 0.9209 0.3288 -0.2092
vn 0.9276 0.1690 -0.3333
vn 0.9256 0.1701 -0.3381
vn 0.9233 0.1746 -0.3421
vn 0.9063 0.2189 -0.3617
vn 0.7837 0.5304 -0.3233
vn 0.6233 0.6803 -0.3856
vn 0.6302 0.6836 -0.3680
vn 0.6316 0.6841 -0.3648
vn 0.9096 0.1376 -0.3921
vn 0.8889 0.0618 -0.4539
vn 0.8640 0.0638 -0.4994
vn 0.8658 -0.0000 -0.5004
vn -0.3234 -0.9371 0.1317
vn -0.3056 -0.9408 0.1468
vn -0.3040 -0.9459 0.1130
vn -0.2644 -0.9507 0.1621
vn -0.2629 -0.9508 0.1638
vn -0.2614 -0.9512 0.1641
vn -0.2614 -0.9510 0.1650
vn -0.2613 -0.9511 0.1649
vn 0.9284 0.1682 -0.3312
vn 0.9418 0.0081 -0.3360
vn 0.9395 0.0008 -0.3425
vn 0.9393 0.0015 -0.3431
vn 0.9377 0.0041 -0.3474
vn 0.9183 0.0040 -0.3958
vn 0.9176 0.0020 -0.3975
vn 0.8906 0.0019 -0.4548
vn 0.8893 -0.0000 -0.4573
vn 0.8640 -0.0645 -0.4993
vn 0.8622 -0.0664 -0.5022
vn -0.1883 -0.9752 0.1165
vn -0.2061 -0.9692 0.1347
vn -0.2289 -0.9622 0.1473
vn -0.2601 -0.9518 0.1626
vn -0.1547 -0.9834 0.0947
vn -0.1774 -0.9779 0.1106
vn -0.2560 -0.9506 0.1754
vn 0.9397 -0.0000 -0.3421
vn 0.9176 -0.0000 -0.3975
vn 0.8919 -0.0039 -0.4522
vn 0.8902 -0.0624 -0.4513
vn 0.9099 -0.1354 -0.3922
vn 0.9065 -0.2177 -0.3617
vn 0.7564 -0.5738 -0.3140
vn 0.5055 -0.8079 -0.3028
vn 0.5104 -0.7997 -0.3161
vn 0.6184 -0.3693 -0.6937
vn -0.1904 -0.9739 0.1239
vn -0.2033 -0.9699 0.1342
vn -0.0924 -0.9949 0.0396
vn -0.1328 -0.9879 0.0804
vn -0.1121 -0.9912 0.0701
vn -0.1659 -0.9783 0.1244
vn 0.9431 -0.0031 -0.3324
vn 0.9397 -0.0003 -0.3421
vn 0.9386 -0.0036 -0.3450
vn 0.9370 -0.0062 -0.3492
vn 0.9183 -0.0060 -0.3958
vn 0.9176 -0.0040 -0.3975
vn 0.9224 -0.1764 -0.3437
vn 0.4774 -0.8581 -0.1891
vn 0.9246 -0.1719 -0.3398
vn 0.9295 -0.1693 -0.3276
vn 0.9622 -0.1967 -0.1882
vn 0.4633 -0.8671 -0.1831
vn 0.3653 -0.9158 -0.1668
vn 0.3635 -0.9113 -0.1936
vn 0.3355 -0.9210 -0.1982
vn -0.0395 -0.9989 0.0237
vn -0.0436 -0.9987 0.0265
vn -0.0681 -0.9969 0.0397
vn -0.0811 -0.9953 0.0528
vn -0.0696 -0.9963 0.0504
vn 0.3767 -0.9175 -0.1279
vn 0.3388 -0.9337 -0.1155
vn 0.3105 -0.9439 -0.1126
vn 0.2796 -0.9551 -0.0977
vn 0.1908 -0.9765 -0.0999
vn 0.2892 -0.9357 -0.2020
vn -0.0066 -1.0000 -0.0000
vn -0.0133 -0.9999 0.0066
vn -0.0000 -1.0000 -0.0000
vn -0.0423 -0.9982 0.0423
vn -0.0593 -0.9973 0.0423
vn 0.2092 -0.9772 -0.0355
vn 0.0133 -0.9998 -0.0133
vn 0.0784 -0.9958 -0.0483
vn 0.0424 -0.9991 -0.0000
s 0
f 1//1 2//1 3//1
f 1//2 3//2 9//2
f 1//2 9//2 10//2
f 1//2 10//2 4//2
f 1//3 4//3 11//3
f 1//3 11//3 16//3
f 1//3 16//3 25//3
f 1//3 25//3 39//3
f 1//4 39//4 51//4
f 1//3 51//3 64//3
f 1//5 64//5 63//5
f 1//3 63//3 75//3
f 1//3 75//3 83//3
f 1//6 83//6 89//6
f 1//3 89//3 91//3
f 1//3 91//3 84//3
f 1//3 84//3 76//3
f 1//6 76//6 66//6
f 1//3 66//3 54//3
f 1//7 54//7 41//7
f 1//3 41//3 27//3
f 1//4 27//4 17//4
f 1//3 17//3 12//3
f 1//8 12//8 5//8
f 1//6 5//6 2//6
f 2//9 5//9 6//9
f 2//10 6//10 7//10
f 2//11 7//11 3//11
f 3//12 8//12 9//12
f 3//13 7//13 8//13
f 4//14 10//14 14//14
f 4//14 14//14 23//14
f 4//14 23//14 36//14
f 4//14 36//14 35//14
f 4//14 35//14 24//14
f 4//14 24//14 15//14
f 4//14 15//14 11//14
f 5//15 12//15 6//15
f 6//16 12//16 13//16
f 6//17 13//17 18//17
f 6//18 18//18 30//18
f 6//18 30//18 44//18
f 6//18 44//18 53//18
f 6//18 53//18 65//18
f 6//18 65//18 68//18
f 6//18 68//18 79//18
f 6//18 79//18 86//18
f 6//18 86//18 90//18
f 6//18 90//18 87//18
f 6//18 87//18 81//18
f 6//18 81//18 80//18
f 6//18 80//18 72//18
f 6//18 72//18 69//18
f 6//18 69//18 56//18
f 6//18 56//18 46//18
f 6//19 46//19 45//19
f 6//20 45//20 31//20
f 6//19 31//19 19//19
f 6//18 19//18 14//18
f 6//18 14//18 10//18
f 6//21 10//21 9//21
f 6//22 9//22 8//22
f 6//18 8//18 7//18
f 11//23 15//23 16//23
f 12//24 17//24 13//24
f 13//25 17//25 18//25
f 14//26 19//26 20//26
f 14//27 20//27 21//27
f 14//28 21//28 22//28
f 14//29 22//29 23//29
f 15//30 24//30 22//30
f 15//31 22//31 16//31
f 16//32 22//32 25//32
f 17//33 26//33 18//33
f 17//34 27//34 26//34
f 18//35 26//35 28//35
f 18//36 28//36 29//36
f 18//37 29//37 30//37
f 19//38 31//38 20//38
f 20//39 31//39 32//39
f 20//40 32//40 33//40
f 20//41 33//41 34//41
f 20//42 34//42 22//42
f 20//43 22//43 21//43
f 22//44 24//44 35//44
f 22//45 35//45 36//45
f 22//46 36//46 23//46
f 22//47 34//47 37//47
f 22//48 37//48 38//48
f 22//49 38//49 25//49
f 25//50 38//50 49//50
f 25//50 49//50 39//50
f 26//51 27//51 40//51
f 26//52 40//52 28//52
f 27//53 41//53 40//53
f 28//54 40//54 42//54
f 28//55 42//55 29//55
f 29//56 42//56 43//56
f 29//57 43//57 44//57
f 29//58 44//58 30//58
f 31//59 45//59 32//59
f 32//60 45//60 46//60
f 32//61 46//61 47//61
f 32//62 47//62 33//62
f 33//63 47//63 34//63
f 34//64 47//64 37//64
f 37//65 47//65 48//65
f 37//66 48//66 38//66
f 38//67 48//67 58//67
f 38//67 58//67 49//67
f 39//68 49//68 50//68
f 39//69 50//69 51//69
f 40//70 41//70 52//70
f 40//71 52//71 53//71
f 40//72 53//72 43//72
f 40//73 43//73 42//73
f 41//74 54//74 55//74
f 41//75 55//75 52//75
f 43//76 53//76 44//76
f 46//77 56//77 57//77
f 46//77 57//77 47//77
f 47//78 57//78 58//78
f 47//78 58//78 48//78
f 49//79 58//79 59//79
f 49//80 59//80 50//80
f 50//81 59//81 60//81
f 50//82 60//82 61//82
f 50//83 61//83 62//83
f 50//84 62//84 63//84
f 50//85 63//85 64//85
f 50//86 64//86 51//86
f 52//87 55//87 65//87
f 52//88 65//88 53//88
f 54//89 66//89 67//89
f 54//90 67//90 55//90
f 55//91 67//91 68//91
f 55//92 68//92 65//92
f 56//93 69//93 70//93
f 56//94 70//94 57//94
f 57//95 70//95 71//95
f 57//96 71//96 60//96
f 57//97 60//97 59//97
f 57//98 59//98 58//98
f 60//99 71//99 61//99
f 61//100 72//100 62//100
f 61//101 71//101 70//101
f 61//102 70//102 69//102
f 61//103 69//103 72//103
f 62//104 72//104 73//104
f 62//105 73//105 74//105
f 62//106 74//106 63//106
f 63//107 74//107 75//107
f 66//108 76//108 77//108
f 66//109 77//109 78//109
f 66//110 78//110 67//110
f 67//111 78//111 68//111
f 68//112 78//112 79//112
f 72//113 80//113 73//113
f 73//114 80//114 81//114
f 73//115 81//115 74//115
f 74//116 81//116 82//116
f 74//117 82//117 83//117
f 74//118 83//118 75//118
f 76//119 84//119 85//119
f 76//120 85//120 77//120
f 77//121 85//121 84//121
f 77//121 84//121 91//121
f 77//121 91//121 88//121
f 77//121 88//121 82//121
f 77//121 82//121 90//121
f 77//121 90//121 86//121
f 77//122 86//122 79//122
f 77//123 79//123 78//123
f 81//124 87//124 82//124
f 82//125 88//125 89//125
f 82//126 89//126 83//126
f 82//127 87//127 90//127
f 88//125 91//125 89//125
