# Blender 4.4.3
# www.blender.org
o socket8mm_collision_geom_28
v -0.097202 0.029249 -0.038684
v -0.097148 0.029249 -0.038682
v -0.097202 0.029249 -0.036456
v -0.097202 0.036069 -0.038684
v -0.096817 0.029249 -0.038640
v -0.097148 0.036069 -0.038682
v -0.097089 0.029249 -0.036358
v -0.097202 0.035737 -0.036490
v -0.097202 0.036401 -0.038673
v -0.097148 0.036401 -0.038672
v -0.096484 0.029249 -0.038582
v -0.096817 0.036069 -0.038640
v -0.096817 0.036401 -0.038634
v -0.096983 0.029249 -0.036284
v -0.094251 0.029429 -0.034244
v -0.094250 0.035736 -0.034244
v -0.097202 0.036069 -0.036493
v -0.097202 0.036658 -0.038538
v -0.097148 0.036658 -0.038537
v -0.096817 0.036658 -0.038520
v -0.096484 0.036652 -0.038496
v -0.096153 0.029249 -0.038512
v -0.096484 0.036069 -0.038582
v -0.096484 0.036401 -0.038580
v -0.096153 0.036626 -0.038462
v -0.096720 0.029249 -0.036134
v -0.095260 0.029250 -0.035430
v -0.093596 0.029250 -0.035429
v -0.091900 0.029429 -0.034244
v -0.094239 0.036068 -0.034244
v -0.097018 0.036262 -0.036397
v -0.097202 0.036283 -0.036566
v -0.097202 0.036750 -0.038247
v -0.096817 0.036750 -0.038247
v -0.096484 0.036743 -0.038247
v -0.096153 0.036717 -0.038247
v -0.095906 0.029249 -0.038442
v -0.096153 0.036401 -0.038512
v -0.095933 0.036593 -0.038432
v -0.095488 0.036652 -0.038180
v -0.095213 0.036620 -0.038130
v -0.096485 0.029249 -0.036029
v -0.096153 0.029249 -0.035932
v -0.095552 0.029249 -0.035793
v -0.092340 0.029250 -0.035429
v -0.091904 0.029429 -0.034262
v -0.091900 0.036400 -0.034244
v -0.094233 0.036083 -0.034244
v -0.094112 0.036329 -0.034244
v -0.097202 0.036332 -0.036591
v -0.097202 0.036725 -0.037915
v -0.092502 0.036747 -0.034244
v -0.092502 0.036750 -0.034596
v -0.095821 0.036750 -0.037915
v -0.095552 0.036745 -0.037915
v -0.095488 0.036742 -0.037914
v -0.095603 0.029249 -0.038331
v -0.095906 0.036401 -0.038442
v -0.095159 0.036400 -0.038155
v -0.095488 0.036400 -0.038285
v -0.095124 0.036670 -0.037947
v -0.094824 0.036648 -0.037865
v -0.094578 0.036613 -0.037794
v -0.094993 0.036400 -0.038079
v -0.095552 0.029249 -0.038313
v -0.092383 0.029250 -0.035503
v -0.092340 0.036080 -0.035429
v -0.092336 0.029429 -0.035423
v -0.092261 0.029429 -0.035257
v -0.092126 0.029429 -0.034927
v -0.092035 0.029430 -0.034677
v -0.091975 0.029429 -0.034510
v -0.091975 0.036400 -0.034510
v -0.091905 0.036400 -0.034264
v -0.091984 0.036594 -0.034483
v -0.091947 0.036613 -0.034244
v -0.093843 0.036459 -0.034244
v -0.093829 0.036466 -0.034244
v -0.097202 0.036480 -0.036919
v -0.097202 0.036656 -0.037583
v -0.092834 0.036709 -0.034244
v -0.092170 0.036718 -0.034244
v -0.092170 0.036718 -0.034264
v -0.092502 0.036742 -0.034927
v -0.093166 0.036749 -0.035923
v -0.094492 0.036749 -0.037250
v -0.094824 0.036739 -0.037583
v -0.095551 0.036069 -0.038313
v -0.095551 0.029250 -0.038313
v -0.095488 0.036069 -0.038289
v -0.095159 0.029250 -0.038155
v -0.094478 0.036668 -0.037602
v -0.094161 0.036620 -0.037488
v -0.093985 0.036576 -0.037424
v -0.094373 0.036400 -0.037718
v -0.094539 0.036400 -0.037817
v -0.094824 0.036400 -0.037982
v -0.094900 0.029250 -0.038026
v -0.094993 0.029250 -0.038079
v -0.095488 0.029250 -0.038289
v -0.094373 0.029250 -0.037721
v -0.094161 0.029250 -0.037567
v -0.093981 0.029250 -0.037428
v -0.093618 0.029250 -0.037123
v -0.093527 0.029250 -0.037036
v -0.093452 0.029250 -0.036964
v -0.093293 0.029250 -0.036798
v -0.093202 0.029250 -0.036690
v -0.093051 0.029250 -0.036510
v -0.092988 0.029250 -0.036435
v -0.092850 0.029250 -0.036255
v -0.092765 0.029250 -0.036139
v -0.092696 0.029250 -0.036043
v -0.092687 0.029250 -0.036029
v -0.092599 0.029250 -0.035877
v -0.092599 0.036400 -0.035877
v -0.092336 0.036068 -0.035423
v -0.092434 0.036400 -0.035592
v -0.092341 0.036400 -0.035429
v -0.092337 0.036400 -0.035423
v -0.092261 0.036400 -0.035257
v -0.092126 0.036068 -0.034927
v -0.092035 0.036068 -0.034677
v -0.092131 0.036400 -0.034927
v -0.092286 0.036620 -0.035202
v -0.091954 0.036626 -0.034264
v -0.091952 0.036628 -0.034244
v -0.093166 0.036628 -0.034244
v -0.092236 0.036652 -0.034927
v -0.092507 0.036660 -0.035429
v -0.092551 0.036648 -0.035592
v -0.092834 0.036739 -0.035592
v -0.093497 0.036723 -0.036587
v -0.093829 0.036723 -0.036919
v -0.094161 0.036709 -0.037250
v -0.093857 0.036626 -0.037232
v -0.093633 0.036595 -0.037110
v -0.093618 0.036400 -0.037123
v -0.093981 0.036400 -0.037428
v -0.094161 0.036400 -0.037564
v -0.094373 0.036069 -0.037721
v -0.094161 0.036069 -0.037567
v -0.093452 0.036400 -0.036964
v -0.093293 0.036400 -0.036798
v -0.092988 0.036400 -0.036435
v -0.092850 0.036069 -0.036255
v -0.092696 0.036069 -0.036043
v -0.092687 0.036069 -0.036029
v -0.092698 0.036400 -0.036043
v -0.092621 0.036613 -0.035837
v -0.092814 0.036668 -0.035938
v -0.093166 0.036709 -0.036255
v -0.093513 0.036637 -0.036903
v -0.093306 0.036595 -0.036783
v -0.092992 0.036576 -0.036431
v -0.092853 0.036400 -0.036255
v -0.092928 0.036620 -0.036255
v -0.093183 0.036626 -0.036559
vn -0.0000 -1.0000 -0.0000
vn -0.0000 -1.0000 -0.0002
vn -0.0000 -1.0000 0.0002
vn -0.0000 -1.0000 -0.0001
vn -0.0000 -1.0000 0.0001
vn -0.0000 -1.0000 -0.0003
vn -1.0000 -0.0000 -0.0000
vn 0.0405 -0.0000 -0.9992
vn 0.1248 -0.0000 -0.9922
vn -0.6555 0.0040 0.7552
vn 0.0324 0.0327 -0.9989
vn 0.0405 0.0314 -0.9987
vn 0.1740 -0.0000 -0.9848
vn 0.1739 -0.0000 -0.9848
vn 0.1132 0.0312 -0.9931
vn 0.1248 0.0195 -0.9920
vn -0.4878 -0.5222 0.6995
vn -0.5972 -0.0000 0.8021
vn -0.6055 0.0057 0.7958
vn -0.6259 0.0051 0.7799
vn 0.0145 0.4666 -0.8843
vn 0.0286 0.4642 -0.8853
vn 0.0452 0.4638 -0.8848
vn 0.0735 0.4349 -0.8975
vn 0.1053 0.3689 -0.9235
vn 0.2064 -0.0000 -0.9785
vn 0.1601 0.0194 -0.9869
vn 0.1739 0.0051 -0.9847
vn 0.1209 0.3511 -0.9285
vn 0.1542 0.2697 -0.9505
vn -0.1959 -0.9185 0.3435
vn -0.1181 -0.9621 0.2459
vn -0.0001 -0.9888 0.1495
vn -0.0000 -0.9888 0.1495
vn -0.0000 -0.0000 1.0000
vn 0.0005 -0.0000 1.0000
vn 0.0007 -0.0000 1.0000
vn 0.0001 -0.0000 1.0000
vn -0.6044 0.0198 0.7964
vn -0.5948 0.1779 0.7839
vn -0.6404 0.2497 0.7264
vn -0.0000 0.9537 -0.3006
vn 0.0050 0.9518 -0.3066
vn 0.0163 0.9479 -0.3182
vn 0.0189 0.9478 -0.3182
vn 0.0417 0.9384 -0.3431
vn 0.0726 0.9367 -0.3425
vn 0.1100 0.9156 -0.3867
vn 0.2730 -0.0000 -0.9620
vn 0.2731 -0.0000 -0.9620
vn 0.2015 0.0051 -0.9795
vn 0.1680 0.2509 -0.9533
vn 0.1985 0.1724 -0.9648
vn 0.1285 0.9136 -0.3859
vn 0.1939 0.8243 -0.5319
vn 0.1969 0.8180 -0.5404
vn -0.0067 -0.9999 0.0151
vn -0.0009 -1.0000 0.0030
vn -0.0006 -1.0000 0.0025
vn -0.0000 -1.0000 0.0020
vn 0.7413 -0.6474 -0.1770
vn 0.9726 -0.0000 -0.2325
vn -0.5881 0.2177 0.7789
vn -0.5749 0.2839 0.7674
vn -0.5123 0.5309 0.6751
vn -0.6090 0.3616 0.7059
vn -0.0631 0.9952 0.0749
vn -0.0065 0.9999 0.0083
vn -0.0000 1.0000 -0.0000
vn -0.0000 1.0000 0.0001
vn 0.0191 0.9982 -0.0572
vn 0.0199 0.9980 -0.0602
vn 0.0352 0.9940 -0.1031
vn 0.0753 0.9718 -0.2234
vn 0.1244 0.9395 -0.3190
vn 0.3417 -0.0000 -0.9398
vn 0.2720 0.0858 -0.9585
vn 0.3735 0.1959 -0.9067
vn 0.3635 0.1340 -0.9219
vn 0.3501 0.0954 -0.9318
vn 0.1589 0.9335 -0.3215
vn 0.1718 0.9213 -0.3488
vn 0.1563 0.9353 -0.3176
vn 0.4537 0.2571 -0.8533
vn 0.4077 0.2024 -0.8904
vn 0.2505 0.8534 -0.4571
vn 0.0002 -1.0000 -0.0000
vn 0.0005 -1.0000 -0.0001
vn 0.8666 -0.0000 -0.4991
vn 0.8728 -0.0000 -0.4881
vn 0.8729 -0.0000 -0.4879
vn 0.9093 -0.0035 -0.4161
vn 0.9250 -0.0480 -0.3769
vn 0.9275 -0.1587 -0.3386
vn 0.9262 -0.1752 -0.3340
vn 0.8399 -0.4873 -0.2389
vn 0.9618 -0.0000 -0.2736
vn 0.9619 -0.0000 -0.2736
vn 0.9715 -0.0000 -0.2369
vn 0.9635 0.1285 -0.2348
vn 0.9628 0.2136 -0.1658
vn -0.3775 0.7808 0.4979
vn -0.3637 0.7999 0.4773
vn -0.3064 0.8679 0.3909
vn -0.1651 0.9656 0.2007
vn -0.1132 0.9838 0.1391
vn 0.0859 0.9963 0.0083
vn 0.0946 0.9955 -0.0000
vn 0.1163 0.9930 -0.0220
vn 0.0431 0.9988 -0.0221
vn 0.0011 1.0000 -0.0011
vn 0.0191 0.9991 -0.0370
vn 0.0351 0.9974 -0.0626
vn 0.1566 0.9399 -0.3034
vn 0.1569 0.9365 -0.3135
vn 0.0416 0.9965 -0.0722
vn 0.3419 -0.0000 -0.9397
vn 0.3356 -0.2286 -0.9139
vn 0.3515 0.0123 -0.9361
vn 0.3500 0.0101 -0.9367
vn 0.4163 -0.0000 -0.9092
vn 0.4164 -0.0000 -0.9092
vn 0.3774 -0.0000 -0.9261
vn 0.3668 0.0122 -0.9302
vn 0.1759 0.9368 -0.3024
vn 0.2331 0.8974 -0.3747
vn 0.2720 0.8798 -0.3900
vn 0.3848 0.7480 -0.5408
vn 0.5269 0.2130 -0.8228
vn 0.5027 0.1816 -0.8452
vn 0.4932 0.1805 -0.8510
vn 0.4895 0.1856 -0.8520
vn 0.4982 0.0001 -0.8671
vn 0.4947 -0.0000 -0.8691
vn 0.3391 -0.2334 -0.9113
vn 0.1210 -0.9469 -0.2977
vn 0.0151 -0.9993 -0.0334
vn 0.0049 -1.0000 -0.0085
vn 0.0047 -1.0000 -0.0081
vn 0.0020 -1.0000 -0.0027
vn 0.0017 -1.0000 -0.0023
vn 0.0014 -1.0000 -0.0017
vn 0.0011 -1.0000 -0.0011
vn 0.0011 -1.0000 -0.0012
vn 0.0009 -1.0000 -0.0008
vn 0.0007 -1.0000 -0.0007
vn 0.0007 -1.0000 -0.0006
vn 0.0007 -1.0000 -0.0005
vn 0.0006 -1.0000 -0.0004
vn 0.0005 -1.0000 -0.0003
vn 0.8659 -0.0000 -0.5002
vn 0.8660 -0.0000 -0.5000
vn 0.8661 0.0004 -0.4998
vn 0.8670 0.0014 -0.4984
vn 0.8740 0.0014 -0.4860
vn 0.8742 0.0014 -0.4855
vn 0.9093 -0.0000 -0.4161
vn 0.9093 -0.0000 -0.4162
vn 0.9261 -0.0000 -0.3774
vn 0.9392 -0.0000 -0.3433
vn 0.9410 -0.0000 -0.3385
vn 0.9392 0.0028 -0.3433
vn 0.9364 0.0131 -0.3506
vn 0.9324 0.0935 -0.3491
vn 0.9584 0.0841 -0.2726
vn 0.5328 0.8236 -0.1943
vn 0.9549 0.2453 -0.1672
vn 0.9224 0.1324 -0.3628
vn 0.9062 0.1981 -0.3735
vn 0.9378 0.3319 -0.1017
vn -0.2275 0.9291 0.2917
vn -0.2262 0.9300 0.2897
vn -0.2035 0.9463 0.2513
vn 0.3836 0.9235 -0.0000
vn 0.3892 0.9156 -0.1015
vn 0.3879 0.9126 -0.1294
vn 0.3187 0.9395 -0.1252
vn 0.3173 0.9354 -0.1562
vn 0.3078 0.9385 -0.1566
vn 0.3032 0.9400 -0.1565
vn 0.0724 0.9965 -0.0416
vn 0.1368 0.9849 -0.1065
vn 0.0770 0.9941 -0.0770
vn 0.0770 0.9940 -0.0770
vn 0.1065 0.9849 -0.1367
vn 0.1281 0.9772 -0.1692
vn 0.1792 0.9449 -0.2740
vn 0.3500 -0.0000 -0.9367
vn 0.3499 -0.0000 -0.9368
vn 0.2578 0.9043 -0.3402
vn 0.3535 0.8260 -0.4391
vn 0.3712 0.8037 -0.4651
vn 0.2680 0.9017 -0.3391
vn 0.6592 0.0992 -0.7454
vn 0.6438 0.0342 -0.7644
vn 0.6011 0.0338 -0.7985
vn 0.5869 0.0554 -0.8078
vn 0.5878 0.0074 -0.8090
vn 0.5112 0.0079 -0.8594
vn 0.5014 0.0013 -0.8652
vn 0.5007 -0.0000 -0.8656
vn 0.5009 -0.0000 -0.8655
vn 0.5889 -0.0000 -0.8082
vn 0.6088 -0.0000 -0.7933
vn 0.6088 -0.0000 -0.7934
vn 0.6442 -0.0000 -0.7649
vn 0.6896 -0.0000 -0.7242
vn 0.6907 -0.0000 -0.7232
vn 0.6920 -0.0000 -0.7219
vn 0.7226 -0.0000 -0.6913
vn 0.7647 -0.0000 -0.6444
vn 0.7653 -0.0000 -0.6436
vn 0.7656 -0.0000 -0.6433
vn 0.7934 -0.0000 -0.6088
vn 0.7933 -0.0000 -0.6088
vn 0.8081 -0.0000 -0.5890
vn 0.8095 0.0001 -0.5871
vn 0.8112 -0.0000 -0.5848
vn 0.8585 -0.0000 -0.5129
vn 0.8637 -0.0000 -0.5039
vn 0.8637 -0.0000 -0.5040
vn 0.8585 0.0061 -0.5128
vn 0.8574 0.0066 -0.5146
vn 0.8425 0.1854 -0.5057
vn 0.8514 0.1836 -0.4913
vn 0.9082 0.0015 -0.4186
vn 0.8519 0.1859 -0.4897
vn 0.8530 0.2194 -0.4735
vn 0.8532 0.2575 -0.4536
vn 0.8889 0.2051 -0.4096
vn 0.9305 0.0131 -0.3660
vn 0.4582 0.8527 -0.2510
vn 0.3495 0.9210 -0.1721
vn 0.5324 0.8239 -0.1942
vn 0.3264 0.9314 -0.1612
vn 0.3021 0.9369 -0.1759
vn 0.3749 0.8972 -0.2335
vn 0.2743 0.9448 -0.1791
vn 0.1689 0.9773 -0.1277
vn 0.3016 0.9164 -0.2632
vn 0.2644 0.9275 -0.2644
vn 0.2631 0.9164 -0.3017
vn 0.2690 0.9106 -0.3139
vn 0.3204 0.8736 -0.3663
vn 0.7017 0.1270 -0.7011
vn 0.6872 0.0998 -0.7196
vn 0.4048 0.8201 -0.4045
vn 0.6015 0.0063 -0.7989
vn 0.5888 0.0064 -0.8082
vn 0.7188 0.1017 -0.6877
vn 0.7455 0.1012 -0.6587
vn 0.7648 0.0356 -0.6432
vn 0.8010 0.0088 -0.5985
vn 0.8006 0.0352 -0.5982
vn 0.8076 0.0088 -0.5897
vn 0.8095 0.0063 -0.5871
vn 0.8066 0.0492 -0.5890
vn 0.8227 0.2131 -0.5270
vn 0.3902 0.8796 -0.2721
vn 0.5420 0.7468 -0.3854
vn 0.3407 0.9041 -0.2580
vn 0.3397 0.9017 -0.2676
vn 0.3131 0.9109 -0.2687
vn 0.3677 0.8723 -0.3222
vn 0.4456 0.8206 -0.3579
vn 0.4662 0.8028 -0.3718
s 0
f 1//1 2//1 5//1
f 1//2 5//2 11//2
f 1//3 11//3 22//3
f 1//4 22//4 37//4
f 1//5 37//5 57//5
f 1//6 57//6 65//6
f 1//1 65//1 44//1
f 1//1 44//1 43//1
f 1//1 43//1 42//1
f 1//1 42//1 26//1
f 1//1 26//1 14//1
f 1//1 14//1 7//1
f 1//1 7//1 3//1
f 1//7 3//7 8//7
f 1//7 8//7 17//7
f 1//7 17//7 32//7
f 1//7 32//7 50//7
f 1//7 50//7 79//7
f 1//7 79//7 80//7
f 1//7 80//7 51//7
f 1//7 51//7 33//7
f 1//7 33//7 18//7
f 1//7 18//7 9//7
f 1//7 9//7 4//7
f 1//8 4//8 6//8
f 1//8 6//8 2//8
f 2//9 6//9 12//9
f 2//9 12//9 5//9
f 3//10 7//10 8//10
f 4//11 9//11 10//11
f 4//12 10//12 6//12
f 5//13 12//13 23//13
f 5//14 23//14 11//14
f 6//15 10//15 13//15
f 6//16 13//16 12//16
f 7//17 14//17 15//17
f 7//18 15//18 16//18
f 7//19 16//19 17//19
f 7//20 17//20 8//20
f 9//21 18//21 19//21
f 9//22 19//22 10//22
f 10//23 19//23 20//23
f 10//24 20//24 21//24
f 10//25 21//25 13//25
f 11//26 23//26 38//26
f 11//26 38//26 22//26
f 12//27 13//27 24//27
f 12//28 24//28 23//28
f 13//29 21//29 25//29
f 13//30 25//30 24//30
f 14//31 26//31 15//31
f 15//32 26//32 27//32
f 15//33 27//33 28//33
f 15//34 28//34 45//34
f 15//34 45//34 29//34
f 15//35 29//35 47//35
f 15//35 47//35 76//35
f 15//36 76//36 127//36
f 15//35 127//35 82//35
f 15//35 82//35 52//35
f 15//35 52//35 81//35
f 15//35 81//35 128//35
f 15//35 128//35 78//35
f 15//35 78//35 77//35
f 15//35 77//35 49//35
f 15//35 49//35 48//35
f 15//37 48//37 30//37
f 15//38 30//38 16//38
f 16//39 30//39 17//39
f 17//40 30//40 31//40
f 17//41 31//41 32//41
f 18//42 33//42 34//42
f 18//43 34//43 19//43
f 19//44 34//44 20//44
f 20//45 34//45 35//45
f 20//46 35//46 21//46
f 21//47 35//47 36//47
f 21//48 36//48 25//48
f 22//49 38//49 58//49
f 22//50 58//50 37//50
f 23//51 24//51 38//51
f 24//52 25//52 39//52
f 24//53 39//53 38//53
f 25//54 36//54 40//54
f 25//55 40//55 41//55
f 25//56 41//56 39//56
f 26//57 42//57 27//57
f 27//58 42//58 43//58
f 27//59 43//59 44//59
f 27//60 44//60 28//60
f 28//60 44//60 45//60
f 29//61 45//61 46//61
f 29//62 46//62 47//62
f 30//63 48//63 31//63
f 31//64 48//64 49//64
f 31//65 49//65 50//65
f 31//66 50//66 32//66
f 33//67 51//67 52//67
f 33//68 52//68 53//68
f 33//69 53//69 54//69
f 33//70 54//70 34//70
f 34//71 54//71 55//71
f 34//72 55//72 35//72
f 35//73 55//73 56//73
f 35//74 56//74 36//74
f 36//75 56//75 40//75
f 37//76 58//76 57//76
f 38//77 39//77 58//77
f 39//78 41//78 59//78
f 39//79 59//79 60//79
f 39//80 60//80 58//80
f 40//81 61//81 62//81
f 40//82 62//82 41//82
f 40//83 56//83 61//83
f 41//84 63//84 64//84
f 41//85 64//85 59//85
f 41//86 62//86 63//86
f 44//87 65//87 45//87
f 45//88 65//88 66//88
f 45//89 66//89 67//89
f 45//90 67//90 117//90
f 45//91 117//91 68//91
f 45//92 68//92 69//92
f 45//93 69//93 70//93
f 45//94 70//94 71//94
f 45//95 71//95 72//95
f 45//96 72//96 46//96
f 46//97 72//97 73//97
f 46//98 73//98 74//98
f 46//99 74//99 47//99
f 47//100 74//100 75//100
f 47//101 75//101 76//101
f 49//102 77//102 50//102
f 50//103 77//103 78//103
f 50//104 78//104 79//104
f 51//105 80//105 81//105
f 51//106 81//106 52//106
f 52//107 82//107 53//107
f 53//108 82//108 83//108
f 53//109 83//109 84//109
f 53//110 84//110 85//110
f 53//111 85//111 86//111
f 53//111 86//111 54//111
f 54//112 86//112 55//112
f 55//113 86//113 56//113
f 56//114 87//114 62//114
f 56//115 62//115 61//115
f 56//116 86//116 87//116
f 57//76 58//76 88//76
f 57//117 88//117 89//117
f 57//118 89//118 65//118
f 58//119 60//119 90//119
f 58//120 90//120 88//120
f 59//121 64//121 99//121
f 59//122 99//122 91//122
f 59//123 91//123 100//123
f 59//123 100//123 90//123
f 59//124 90//124 60//124
f 62//125 87//125 92//125
f 62//126 92//126 63//126
f 63//127 92//127 93//127
f 63//128 93//128 94//128
f 63//129 94//129 95//129
f 63//130 95//130 96//130
f 63//131 96//131 97//131
f 63//132 97//132 64//132
f 64//133 97//133 98//133
f 64//134 98//134 99//134
f 65//135 89//135 100//135
f 65//136 100//136 91//136
f 65//137 91//137 99//137
f 65//138 99//138 98//138
f 65//139 98//139 101//139
f 65//140 101//140 102//140
f 65//141 102//141 103//141
f 65//142 103//142 104//142
f 65//143 104//143 105//143
f 65//144 105//144 106//144
f 65//145 106//145 107//145
f 65//146 107//146 108//146
f 65//147 108//147 109//147
f 65//147 109//147 110//147
f 65//148 110//148 111//148
f 65//149 111//149 112//149
f 65//149 112//149 113//149
f 65//150 113//150 114//150
f 65//150 114//150 115//150
f 65//150 115//150 66//150
f 66//151 115//151 116//151
f 66//152 116//152 67//152
f 67//153 116//153 118//153
f 67//154 118//154 119//154
f 67//155 119//155 120//155
f 67//156 120//156 117//156
f 68//157 117//157 121//157
f 68//158 121//158 69//158
f 69//159 121//159 122//159
f 69//159 122//159 70//159
f 70//160 122//160 123//160
f 70//160 123//160 71//160
f 71//161 123//161 73//161
f 71//161 73//161 72//161
f 73//162 123//162 122//162
f 73//163 122//163 124//163
f 73//164 124//164 75//164
f 73//165 75//165 74//165
f 75//166 125//166 126//166
f 75//167 126//167 76//167
f 75//168 124//168 121//168
f 75//169 121//169 125//169
f 76//170 126//170 127//170
f 78//171 128//171 79//171
f 79//172 128//172 81//172
f 79//173 81//173 80//173
f 82//174 127//174 83//174
f 83//175 127//175 126//175
f 83//176 126//176 129//176
f 83//177 129//177 84//177
f 84//178 129//178 130//178
f 84//179 130//179 131//179
f 84//180 131//180 132//180
f 84//181 132//181 85//181
f 85//182 132//182 133//182
f 85//183 133//183 86//183
f 86//184 133//184 134//184
f 86//185 134//185 87//185
f 87//186 134//186 135//186
f 87//187 135//187 92//187
f 88//188 90//188 100//188
f 88//189 100//189 89//189
f 92//190 135//190 93//190
f 93//191 136//191 137//191
f 93//192 137//192 94//192
f 93//193 135//193 136//193
f 94//194 137//194 138//194
f 94//195 138//195 139//195
f 94//196 139//196 140//196
f 94//197 140//197 95//197
f 95//198 140//198 141//198
f 95//199 141//199 96//199
f 96//200 141//200 97//200
f 97//201 141//201 98//201
f 98//202 141//202 101//202
f 101//203 141//203 142//203
f 101//203 142//203 102//203
f 102//204 142//204 139//204
f 102//205 139//205 103//205
f 103//206 139//206 138//206
f 103//206 138//206 104//206
f 104//207 138//207 105//207
f 105//208 138//208 143//208
f 105//209 143//209 106//209
f 106//210 143//210 144//210
f 106//210 144//210 107//210
f 107//211 144//211 108//211
f 108//212 144//212 145//212
f 108//213 145//213 109//213
f 109//213 145//213 110//213
f 110//214 145//214 146//214
f 110//215 146//215 111//215
f 111//216 146//216 112//216
f 112//217 146//217 147//217
f 112//218 147//218 113//218
f 113//219 147//219 148//219
f 113//219 148//219 114//219
f 114//220 148//220 116//220
f 114//221 116//221 115//221
f 116//222 148//222 147//222
f 116//223 147//223 149//223
f 116//224 149//224 150//224
f 116//225 150//225 118//225
f 117//226 120//226 121//226
f 118//227 150//227 119//227
f 119//228 150//228 120//228
f 120//229 150//229 125//229
f 120//230 125//230 121//230
f 121//231 124//231 122//231
f 125//232 150//232 131//232
f 125//233 131//233 129//233
f 125//234 129//234 126//234
f 129//235 131//235 130//235
f 131//236 151//236 132//236
f 131//237 150//237 151//237
f 132//238 151//238 152//238
f 132//239 152//239 133//239
f 133//240 152//240 153//240
f 133//241 153//241 134//241
f 134//242 153//242 135//242
f 135//243 153//243 136//243
f 136//244 153//244 137//244
f 137//245 154//245 143//245
f 137//246 143//246 138//246
f 137//247 153//247 154//247
f 139//248 142//248 140//248
f 140//249 142//249 141//249
f 143//250 154//250 144//250
f 144//251 154//251 155//251
f 144//252 155//252 145//252
f 145//253 156//253 146//253
f 145//254 155//254 156//254
f 146//255 156//255 149//255
f 146//256 149//256 147//256
f 149//257 156//257 155//257
f 149//258 155//258 150//258
f 150//259 157//259 151//259
f 150//260 155//260 157//260
f 151//261 157//261 152//261
f 152//262 157//262 158//262
f 152//263 158//263 153//263
f 153//264 158//264 154//264
f 154//265 158//265 157//265
f 154//266 157//266 155//266
