# Blender 4.4.3
# www.blender.org
o socket11mm_collision_geom_18
v -0.044314 0.009518 -0.031371
v -0.039960 0.009518 -0.031371
v -0.044314 0.009518 -0.031369
v -0.044314 0.019469 -0.031371
v -0.039968 0.009518 -0.031275
v -0.039236 0.010263 -0.031371
v -0.037016 0.010313 -0.028748
v -0.037099 0.010281 -0.028748
v -0.044297 0.009518 -0.031275
v -0.044297 0.019469 -0.031275
v -0.044180 0.019801 -0.030611
v -0.044310 0.019801 -0.031371
v -0.039996 0.009518 -0.030951
v -0.039113 0.010507 -0.031371
v -0.036944 0.010507 -0.028748
v -0.040189 0.009518 -0.028748
v -0.040025 0.009518 -0.030619
v -0.044180 0.009518 -0.030611
v -0.044108 0.019801 -0.030279
v -0.044047 0.019981 -0.030087
v -0.044073 0.020012 -0.030279
v -0.044109 0.020049 -0.030611
v -0.044223 0.019987 -0.031371
v -0.039111 0.010556 -0.031371
v -0.039106 0.010838 -0.031371
v -0.036944 0.010647 -0.028748
v -0.043556 0.009518 -0.028748
v -0.044108 0.009518 -0.030279
v -0.044052 0.019801 -0.030074
v -0.043765 0.019801 -0.029286
v -0.043705 0.019801 -0.029120
v -0.043642 0.019801 -0.028951
v -0.043745 0.020015 -0.029340
v -0.041766 0.022452 -0.030598
v -0.041869 0.022452 -0.030943
v -0.044135 0.020068 -0.030943
v -0.044180 0.020079 -0.031371
v -0.041870 0.022452 -0.030950
v -0.041934 0.022452 -0.031275
v -0.041950 0.022452 -0.031365
v -0.036943 0.010838 -0.028748
v -0.039106 0.022452 -0.031371
v -0.043643 0.009518 -0.028951
v -0.043556 0.019469 -0.028748
v -0.044052 0.009518 -0.030074
v -0.043989 0.009518 -0.029901
v -0.043764 0.009518 -0.029282
v -0.043643 0.019469 -0.028951
v -0.043555 0.019672 -0.028748
v -0.043554 0.019801 -0.028748
v -0.043516 0.019943 -0.028748
v -0.043464 0.020051 -0.028748
v -0.041428 0.022452 -0.029696
v -0.041530 0.022452 -0.029947
v -0.041532 0.022452 -0.029953
v -0.041951 0.022451 -0.031371
v -0.041920 0.022452 -0.031371
v -0.036943 0.022452 -0.028748
v -0.040893 0.022452 -0.028748
v -0.040986 0.022452 -0.028899
v -0.041085 0.022452 -0.029068
v -0.041209 0.022452 -0.029283
v -0.041345 0.022452 -0.029527
v -0.041426 0.022452 -0.029690
vn -0.0000 -1.0000 -0.0000
vn -1.0000 -0.0000 -0.0000
vn -0.0003 -0.0000 -1.0000
vn -0.0000 -0.0000 -1.0000
vn -0.0001 -0.0000 -1.0000
vn 0.6168 -0.5987 -0.5109
vn 0.3538 -0.9281 -0.1159
vn 0.2408 -0.9704 0.0198
vn -0.9849 -0.0000 0.1730
vn -0.9855 -0.0000 0.1694
vn -0.9855 0.0082 0.1694
vn -0.9857 0.0107 0.1683
vn 0.2399 -0.9706 0.0208
vn 0.7146 -0.3628 -0.5981
vn 0.7414 -0.2734 -0.6129
vn -0.0001 -0.0000 1.0000
vn -0.0000 -0.0000 1.0000
vn 0.2398 -0.9706 0.0210
vn 0.2399 -0.9706 0.0209
vn -0.9849 -0.0000 0.1734
vn -0.9717 0.1062 0.2112
vn -0.9598 0.2256 0.1672
vn -0.9592 0.2305 0.1638
vn -0.9772 -0.0000 0.2124
vn -0.9327 0.3332 0.1382
vn -0.9020 0.4197 0.1018
vn 0.7705 -0.0226 -0.6370
vn 0.7707 -0.0157 -0.6370
vn 0.7715 -0.0040 -0.6362
vn -0.9632 0.0459 0.2649
vn -0.9642 -0.0000 0.2652
vn -0.9386 0.0507 0.3411
vn -0.9379 0.0564 0.3422
vn -0.9331 0.0931 0.3473
vn -0.9094 0.2121 0.3577
vn -0.6865 0.6843 0.2460
vn -0.6972 0.6862 0.2076
vn -0.6973 0.6862 0.2069
vn -0.7122 0.6851 0.1532
vn -0.7831 0.6142 0.0980
vn -0.9009 0.4220 0.1015
vn -0.7138 0.6855 0.1433
vn -0.7143 0.6854 0.1413
vn -0.7193 0.6842 0.1206
vn -0.7249 0.6819 0.0973
vn 0.7715 -0.0029 -0.6362
vn 0.7715 -0.0000 -0.6362
vn -0.9183 -0.0000 0.3958
vn -0.9399 -0.0000 0.3415
vn -0.9399 -0.0000 0.3416
vn -0.9394 0.0006 0.3427
vn -0.9396 -0.0000 0.3422
vn -0.9372 0.0041 0.3488
vn -0.9186 0.0040 0.3952
vn -0.9183 0.0052 0.3958
vn -0.8914 0.2404 0.3842
vn -0.8916 0.2531 0.3755
vn -0.8355 0.4042 0.3722
vn -0.6754 0.6827 0.2788
vn -0.6768 0.6833 0.2740
vn -0.6849 0.6844 0.2502
vn -0.6852 0.6846 0.2486
vn -0.0000 1.0000 0.0010
vn -0.0000 1.0000 0.0001
vn -0.0000 1.0000 -0.0028
vn -0.0000 1.0000 -0.0000
vn -0.0000 1.0000 -0.0001
vn -0.0000 1.0000 -0.0009
vn -0.7255 0.6818 0.0939
vn -0.7279 0.6850 0.0301
vn -0.0401 0.9804 -0.1928
vn -0.9396 -0.0000 0.3424
vn -0.9183 0.0033 0.3958
vn -0.6286 0.6731 0.3896
vn -0.6346 0.6781 0.3708
vn -0.6360 0.6790 0.3669
vn -0.6402 0.6806 0.3564
vn -0.6543 0.6829 0.3248
vn -0.6662 0.6830 0.2997
s 0
f 1//1 2//1 5//1
f 1//1 5//1 13//1
f 1//1 13//1 17//1
f 1//1 17//1 16//1
f 1//1 16//1 27//1
f 1//1 27//1 43//1
f 1//1 43//1 47//1
f 1//1 47//1 46//1
f 1//1 46//1 45//1
f 1//1 45//1 28//1
f 1//1 28//1 18//1
f 1//1 18//1 9//1
f 1//1 9//1 3//1
f 1//2 3//2 4//2
f 1//3 4//3 12//3
f 1//4 12//4 23//4
f 1//5 23//5 37//5
f 1//4 37//4 56//4
f 1//4 56//4 57//4
f 1//4 57//4 42//4
f 1//4 42//4 25//4
f 1//4 25//4 24//4
f 1//4 24//4 14//4
f 1//4 14//4 6//4
f 1//4 6//4 2//4
f 2//6 6//6 7//6
f 2//7 7//7 8//7
f 2//8 8//8 5//8
f 3//9 9//9 10//9
f 3//10 10//10 4//10
f 4//11 10//11 11//11
f 4//12 11//12 12//12
f 5//13 8//13 13//13
f 6//14 14//14 7//14
f 7//15 14//15 15//15
f 7//16 15//16 26//16
f 7//17 26//17 41//17
f 7//17 41//17 58//17
f 7//17 58//17 59//17
f 7//17 59//17 52//17
f 7//17 52//17 51//17
f 7//17 51//17 50//17
f 7//17 50//17 49//17
f 7//17 49//17 44//17
f 7//17 44//17 27//17
f 7//17 27//17 16//17
f 7//17 16//17 8//17
f 8//18 16//18 17//18
f 8//19 17//19 13//19
f 9//20 18//20 11//20
f 9//20 11//20 10//20
f 11//21 19//21 20//21
f 11//22 20//22 21//22
f 11//23 21//23 12//23
f 11//24 18//24 28//24
f 11//24 28//24 19//24
f 12//25 21//25 22//25
f 12//26 22//26 23//26
f 14//27 24//27 15//27
f 15//28 24//28 25//28
f 15//29 25//29 26//29
f 19//30 29//30 20//30
f 19//31 28//31 45//31
f 19//31 45//31 29//31
f 20//32 29//32 30//32
f 20//33 30//33 31//33
f 20//34 31//34 32//34
f 20//35 32//35 33//35
f 20//36 33//36 34//36
f 20//37 34//37 21//37
f 21//38 34//38 35//38
f 21//39 35//39 22//39
f 22//40 36//40 37//40
f 22//41 37//41 23//41
f 22//42 35//42 38//42
f 22//43 38//43 39//43
f 22//44 39//44 40//44
f 22//45 40//45 36//45
f 25//46 41//46 26//46
f 25//47 42//47 58//47
f 25//47 58//47 41//47
f 27//48 44//48 48//48
f 27//48 48//48 43//48
f 29//49 45//49 46//49
f 29//49 46//49 47//49
f 29//50 47//50 30//50
f 30//51 48//51 31//51
f 30//52 47//52 48//52
f 31//53 48//53 32//53
f 32//54 48//54 49//54
f 32//55 49//55 50//55
f 32//56 50//56 51//56
f 32//57 51//57 33//57
f 33//58 51//58 52//58
f 33//59 52//59 53//59
f 33//60 53//60 54//60
f 33//61 54//61 55//61
f 33//62 55//62 34//62
f 34//63 55//63 54//63
f 34//64 54//64 53//64
f 34//65 53//65 64//65
f 34//64 64//64 63//64
f 34//66 63//66 62//66
f 34//67 62//67 61//67
f 34//64 61//64 60//64
f 34//67 60//67 59//67
f 34//66 59//66 58//66
f 34//66 58//66 42//66
f 34//66 42//66 57//66
f 34//66 57//66 40//66
f 34//67 40//67 39//67
f 34//66 39//66 38//66
f 34//68 38//68 35//68
f 36//69 40//69 37//69
f 37//70 40//70 56//70
f 40//71 57//71 56//71
f 43//72 48//72 47//72
f 44//73 49//73 48//73
f 52//74 59//74 60//74
f 52//75 60//75 61//75
f 52//76 61//76 62//76
f 52//77 62//77 63//77
f 52//78 63//78 64//78
f 52//79 64//79 53//79
