# Blender 4.4.3
# www.blender.org
o socket10mm_collision_geom_17
v -0.058290 0.022758 -0.036028
v -0.055542 0.022758 -0.036928
v -0.058290 0.022758 -0.039073
v -0.058290 0.011166 -0.036028
v -0.055542 0.022758 -0.037081
v -0.055542 0.010839 -0.036928
v -0.058182 0.022758 -0.039115
v -0.058290 0.019997 -0.042087
v -0.058290 0.010834 -0.036029
v -0.055542 0.022755 -0.039578
v -0.055544 0.022758 -0.039577
v -0.055542 0.010506 -0.036930
v -0.057866 0.022758 -0.039231
v -0.058200 0.020011 -0.042100
v -0.056735 0.019975 -0.042401
v -0.057868 0.019801 -0.042206
v -0.058290 0.019886 -0.042105
v -0.057518 0.022758 -0.039344
v -0.058290 0.010542 -0.036034
v -0.055542 0.019998 -0.042418
v -0.055876 0.022758 -0.039577
v -0.058290 0.010506 -0.036035
v -0.058290 0.010336 -0.036068
v -0.055542 0.010262 -0.037008
v -0.057868 0.020047 -0.042135
v -0.057514 0.022758 -0.039346
v -0.057504 0.022758 -0.039348
v -0.057204 0.022758 -0.039418
v -0.056540 0.019989 -0.042411
v -0.056540 0.019801 -0.042425
v -0.056749 0.019801 -0.042404
v -0.056540 0.022758 -0.039537
v -0.058200 0.019801 -0.042134
v -0.056915 0.019469 -0.042375
v -0.057536 0.019469 -0.042265
v -0.057872 0.009514 -0.042206
v -0.058290 0.019801 -0.042109
v -0.055542 0.019801 -0.042438
v -0.056208 0.019801 -0.042438
v -0.056208 0.019998 -0.042417
v -0.056176 0.022758 -0.039572
v -0.058290 0.010295 -0.036102
v -0.055542 0.009514 -0.037850
v -0.056887 0.022758 -0.039476
v -0.056208 0.022758 -0.039572
v -0.056212 0.009514 -0.042438
v -0.056543 0.009514 -0.042425
v -0.056751 0.009514 -0.042404
v -0.058200 0.009514 -0.042134
v -0.058203 0.009514 -0.042134
v -0.056915 0.009514 -0.042375
v -0.057536 0.009514 -0.042265
v -0.058290 0.009514 -0.042109
v -0.055542 0.009514 -0.042438
v -0.058290 0.009514 -0.038090
v -0.058275 0.009514 -0.038088
v -0.057863 0.009514 -0.038052
v -0.057536 0.009514 -0.038023
v -0.057204 0.009514 -0.037994
v -0.055544 0.009514 -0.037850
vn -0.0000 1.0000 -0.0000
vn -1.0000 -0.0000 -0.0000
vn 0.3112 -0.0000 0.9503
vn 1.0000 -0.0000 -0.0000
vn 0.9973 -0.0735 -0.0000
vn -0.2582 0.7124 -0.6526
vn 0.3110 -0.0018 0.9504
vn 0.8478 0.5303 -0.0006
vn 0.3110 -0.0054 0.9504
vn -0.2397 0.7155 -0.6562
vn -0.1820 0.3365 -0.9239
vn -0.1928 0.1724 -0.9660
vn -0.1990 0.1597 -0.9669
vn -0.2158 0.7178 -0.6619
vn -0.2063 0.7180 -0.6648
vn 0.3098 -0.0164 0.9507
vn 0.6589 0.5395 -0.5242
vn -0.0000 0.7172 -0.6969
vn 0.3044 -0.1864 0.9341
vn 0.3025 -0.2920 0.9073
vn -0.1497 0.5847 -0.7973
vn -0.1943 0.7183 -0.6680
vn -0.1704 0.7184 -0.6744
vn -0.1575 0.7185 -0.6775
vn -0.1516 0.7181 -0.6793
vn -0.0536 0.0731 -0.9959
vn -0.0987 0.0224 -0.9949
vn -0.1739 0.0285 -0.9844
vn -0.1157 0.7163 -0.6882
vn -0.0860 0.7174 -0.6913
vn -0.2111 0.1055 -0.9718
vn -0.1739 0.0013 -0.9848
vn -0.1741 0.0009 -0.9847
vn -0.1750 -0.0000 -0.9846
vn -0.2123 -0.0000 -0.9772
vn -0.2681 0.0424 -0.9625
vn -0.0000 0.1014 -0.9948
vn -0.0009 0.1045 -0.9945
vn -0.0006 0.7172 -0.6969
vn -0.0117 0.7178 -0.6962
vn 0.2426 -0.6068 0.7569
vn 0.2059 -0.7314 0.6502
vn -0.1260 0.7176 -0.6850
vn -0.1205 0.7171 -0.6865
vn -0.0217 0.1045 -0.9943
vn -0.0396 0.0732 -0.9965
vn -0.0720 0.7182 -0.6921
vn -0.0328 0.7174 -0.6959
vn -0.0397 -0.0000 -0.9992
vn -0.0398 -0.0000 -0.9992
vn -0.0988 -0.0000 -0.9951
vn -0.0990 -0.0000 -0.9951
vn -0.1714 -0.0000 -0.9852
vn -0.2131 -0.0000 -0.9770
vn -0.2235 -0.0000 -0.9747
vn -0.2683 -0.0000 -0.9633
vn -0.1735 -0.0000 -0.9848
vn -0.1741 -0.0000 -0.9847
vn -0.1746 -0.0000 -0.9846
vn -0.0000 -1.0000 -0.0000
vn -0.0000 -1.0000 -0.0019
vn -0.0000 -1.0000 0.0001
vn -0.0000 -1.0000 -0.0001
vn -0.0000 -0.9999 -0.0110
vn -0.2696 -0.0000 -0.9630
vn -0.0000 -0.0000 -1.0000
vn -0.0133 0.7178 -0.6961
vn -0.0464 -0.9299 0.3649
vn -0.0323 -0.9303 0.3653
vn -0.0322 -0.9303 0.3653
vn -0.0318 -0.9303 0.3654
vn -0.0000 -0.9129 0.4082
s 0
f 1//1 2//1 5//1
f 1//1 5//1 11//1
f 1//1 11//1 21//1
f 1//1 21//1 41//1
f 1//1 41//1 45//1
f 1//1 45//1 32//1
f 1//1 32//1 44//1
f 1//1 44//1 28//1
f 1//1 28//1 27//1
f 1//1 27//1 26//1
f 1//1 26//1 18//1
f 1//1 18//1 13//1
f 1//1 13//1 7//1
f 1//1 7//1 3//1
f 1//2 3//2 8//2
f 1//2 8//2 17//2
f 1//2 17//2 37//2
f 1//2 37//2 53//2
f 1//2 53//2 55//2
f 1//2 55//2 42//2
f 1//2 42//2 23//2
f 1//2 23//2 22//2
f 1//2 22//2 19//2
f 1//2 19//2 9//2
f 1//2 9//2 4//2
f 1//3 4//3 6//3
f 1//3 6//3 2//3
f 2//4 6//4 12//4
f 2//4 12//4 24//4
f 2//4 24//4 43//4
f 2//4 43//4 54//4
f 2//4 54//4 38//4
f 2//4 38//4 20//4
f 2//4 20//4 10//4
f 2//5 10//5 5//5
f 3//6 7//6 8//6
f 4//7 9//7 6//7
f 5//8 10//8 11//8
f 6//9 9//9 12//9
f 7//10 13//10 8//10
f 8//11 14//11 15//11
f 8//12 15//12 16//12
f 8//13 16//13 17//13
f 8//14 13//14 18//14
f 8//15 18//15 14//15
f 9//16 19//16 12//16
f 10//17 20//17 11//17
f 11//18 20//18 21//18
f 12//16 19//16 22//16
f 12//19 22//19 23//19
f 12//20 23//20 24//20
f 14//21 25//21 15//21
f 14//22 18//22 26//22
f 14//23 26//23 27//23
f 14//24 27//24 28//24
f 14//25 28//25 25//25
f 15//26 29//26 30//26
f 15//27 30//27 31//27
f 15//28 31//28 16//28
f 15//29 25//29 32//29
f 15//30 32//30 29//30
f 16//31 33//31 17//31
f 16//32 31//32 34//32
f 16//33 34//33 35//33
f 16//34 35//34 36//34
f 16//35 36//35 33//35
f 17//36 33//36 37//36
f 20//37 38//37 39//37
f 20//38 39//38 40//38
f 20//39 40//39 21//39
f 21//40 40//40 41//40
f 23//41 42//41 24//41
f 24//42 42//42 43//42
f 25//43 28//43 44//43
f 25//44 44//44 32//44
f 29//45 40//45 39//45
f 29//46 39//46 30//46
f 29//47 32//47 45//47
f 29//48 45//48 40//48
f 30//49 39//49 46//49
f 30//50 46//50 47//50
f 30//51 47//51 31//51
f 31//52 47//52 48//52
f 31//53 48//53 34//53
f 33//54 36//54 49//54
f 33//55 49//55 50//55
f 33//56 50//56 37//56
f 34//57 48//57 51//57
f 34//58 51//58 52//58
f 34//58 52//58 35//58
f 35//59 52//59 36//59
f 36//60 52//60 51//60
f 36//61 51//61 48//61
f 36//62 48//62 47//62
f 36//60 47//60 46//60
f 36//60 46//60 54//60
f 36//60 54//60 43//60
f 36//60 43//60 60//60
f 36//60 60//60 59//60
f 36//60 59//60 58//60
f 36//60 58//60 57//60
f 36//60 57//60 56//60
f 36//60 56//60 55//60
f 36//60 55//60 53//60
f 36//63 53//63 50//63
f 36//64 50//64 49//64
f 37//65 50//65 53//65
f 38//66 54//66 46//66
f 38//66 46//66 39//66
f 40//67 45//67 41//67
f 42//68 55//68 56//68
f 42//69 56//69 57//69
f 42//70 57//70 58//70
f 42//71 58//71 59//71
f 42//71 59//71 60//71
f 42//72 60//72 43//72
