# Blender 4.4.3
# www.blender.org
o socket9mm_collision_geom_25
v -0.079702 0.010599 -0.038688
v -0.074362 0.010490 -0.038688
v -0.074362 0.010348 -0.037399
v -0.079702 0.010600 -0.038457
v -0.079702 0.023732 -0.038688
v -0.074362 0.022725 -0.038688
v -0.074362 0.010388 -0.037325
v -0.077185 0.010624 -0.037325
v -0.079702 0.010685 -0.038164
v -0.079702 0.023750 -0.038569
v -0.079700 0.023750 -0.038688
v -0.074959 0.023750 -0.038688
v -0.074764 0.023750 -0.038456
v -0.074653 0.023750 -0.038323
v -0.074497 0.023750 -0.038129
v -0.074362 0.023750 -0.037954
v -0.074362 0.023750 -0.037325
v -0.077509 0.010695 -0.037325
v -0.077551 0.010716 -0.037325
v -0.079702 0.010943 -0.038030
v -0.079702 0.023750 -0.038031
v -0.077672 0.023750 -0.037325
v -0.077669 0.010944 -0.037325
v -0.079702 0.011288 -0.038014
v -0.079702 0.023749 -0.038014
v -0.079700 0.023750 -0.038014
v -0.077672 0.011290 -0.037325
v -0.079702 0.011634 -0.038014
vn -0.0203 -0.9938 -0.1093
vn -0.0482 -0.9988 0.0057
vn -1.0000 -0.0000 -0.0000
vn -0.0021 -0.0000 -1.0000
vn -0.0000 -0.0000 -1.0000
vn 1.0000 -0.0000 -0.0000
vn 1.0000 0.0001 -0.0000
vn -0.0736 -0.8798 0.4695
vn -0.0891 -0.9718 0.2185
vn -0.1159 -0.9537 0.2776
vn -0.9934 0.1131 -0.0175
vn 0.6992 0.4069 -0.5878
vn 0.7022 0.4072 -0.5840
vn 0.7115 0.4061 -0.5734
vn 0.7248 0.4007 -0.5604
vn -0.0000 -0.0000 1.0000
vn -0.1858 -0.8486 0.4953
vn -0.2871 -0.5865 0.7574
vn -0.3212 -0.4381 0.8396
vn -0.0000 1.0000 -0.0000
vn -0.3228 -0.1663 0.9318
vn -0.3271 -0.0442 0.9440
vn -0.4443 0.8934 0.0663
vn -0.2590 0.5935 0.7621
vn -0.3210 -0.0000 0.9471
vn -0.3211 -0.0029 0.9470
vn -0.3211 -0.0007 0.9470
s 0
f 1//1 2//1 3//1
f 1//2 3//2 4//2
f 1//3 4//3 9//3
f 1//3 9//3 20//3
f 1//3 20//3 24//3
f 1//3 24//3 28//3
f 1//3 28//3 25//3
f 1//3 25//3 21//3
f 1//3 21//3 10//3
f 1//3 10//3 5//3
f 1//4 5//4 11//4
f 1//5 11//5 12//5
f 1//5 12//5 6//5
f 1//5 6//5 2//5
f 2//6 6//6 16//6
f 2//6 16//6 17//6
f 2//6 17//6 7//6
f 2//7 7//7 3//7
f 3//8 7//8 8//8
f 3//9 8//9 4//9
f 4//10 8//10 9//10
f 5//11 10//11 11//11
f 6//12 12//12 13//12
f 6//13 13//13 14//13
f 6//14 14//14 15//14
f 6//15 15//15 16//15
f 7//16 17//16 22//16
f 7//16 22//16 27//16
f 7//16 27//16 23//16
f 7//16 23//16 19//16
f 7//16 19//16 18//16
f 7//16 18//16 8//16
f 8//17 18//17 9//17
f 9//18 18//18 19//18
f 9//19 19//19 20//19
f 10//20 21//20 26//20
f 10//20 26//20 22//20
f 10//20 22//20 17//20
f 10//20 17//20 16//20
f 10//20 16//20 15//20
f 10//20 15//20 14//20
f 10//20 14//20 13//20
f 10//20 13//20 12//20
f 10//20 12//20 11//20
f 19//21 23//21 20//21
f 20//22 23//22 24//22
f 21//23 25//23 26//23
f 22//24 26//24 25//24
f 22//25 25//25 28//25
f 22//25 28//25 27//25
f 23//26 27//26 24//26
f 24//27 27//27 28//27
