# Blender 4.4.3
# www.blender.org
o socket9mm_collision_geom_10
v -0.079862 0.010358 -0.028852
v -0.079862 0.010599 -0.029811
v -0.076677 0.010713 -0.031816
v -0.076677 0.010647 -0.031534
v -0.076677 0.010607 -0.031195
v -0.076677 0.010534 -0.028852
v -0.079862 0.023750 -0.028852
v -0.079862 0.010686 -0.030108
v -0.079862 0.010944 -0.030246
v -0.076677 0.010944 -0.031937
v -0.076677 0.023750 -0.028852
v -0.079862 0.023750 -0.030261
v -0.079862 0.011290 -0.030261
v -0.076677 0.011289 -0.031941
v -0.076677 0.023750 -0.031931
v -0.076677 0.023750 -0.031940
v -0.076677 0.023749 -0.031941
v -0.076677 0.011635 -0.031941
vn -0.1179 -0.9631 -0.2421
vn -0.1056 -0.9676 -0.2295
vn -0.0069 -0.9933 -0.1151
vn 0.0550 -0.9980 -0.0313
vn -0.0000 -0.0000 1.0000
vn -1.0000 -0.0000 -0.0000
vn -0.1407 -0.9503 -0.2778
vn -0.4243 -0.4280 -0.7980
vn -0.4253 -0.4210 -0.8012
vn 1.0000 -0.0000 -0.0000
vn 1.0000 -0.0003 -0.0000
vn -0.0000 1.0000 -0.0000
vn -0.0000 1.0000 0.0001
vn -0.4685 -0.0386 -0.8826
vn -0.4663 -0.0086 -0.8846
vn -0.4156 0.4518 -0.7894
vn -0.4664 -0.0000 -0.8846
vn -0.4663 -0.0008 -0.8846
vn 0.9709 0.2372 -0.0327
s 0
f 1//1 2//1 3//1
f 1//2 3//2 4//2
f 1//3 4//3 5//3
f 1//4 5//4 6//4
f 1//5 6//5 11//5
f 1//5 11//5 7//5
f 1//6 7//6 12//6
f 1//6 12//6 13//6
f 1//6 13//6 9//6
f 1//6 9//6 8//6
f 1//6 8//6 2//6
f 2//7 8//7 3//7
f 3//8 8//8 9//8
f 3//9 9//9 10//9
f 3//10 10//10 14//10
f 3//10 14//10 18//10
f 3//10 18//10 17//10
f 3//10 17//10 15//10
f 3//10 15//10 11//10
f 3//10 11//10 6//10
f 3//10 6//10 5//10
f 3//11 5//11 4//11
f 7//12 11//12 15//12
f 7//13 15//13 16//13
f 7//12 16//12 12//12
f 9//14 13//14 10//14
f 10//15 13//15 14//15
f 12//16 16//16 17//16
f 12//17 17//17 18//17
f 12//17 18//17 13//17
f 13//18 18//18 14//18
f 15//19 17//19 16//19
