# Blender 4.4.3
# www.blender.org
o socket11mm_collision_geom_11
v -0.036951 0.027107 -0.036790
v -0.034742 0.027439 -0.037355
v -0.036951 0.027439 -0.036791
v -0.036951 0.022452 -0.036790
v -0.034742 0.027605 -0.037364
v -0.035240 0.036069 -0.037655
v -0.035572 0.035737 -0.037528
v -0.034742 0.022452 -0.037355
v -0.036951 0.027772 -0.036817
v -0.036951 0.022452 -0.039028
v -0.034742 0.027770 -0.037373
v -0.035043 0.036069 -0.037735
v -0.035057 0.036244 -0.037742
v -0.035572 0.036069 -0.037562
v -0.035904 0.036069 -0.037543
v -0.035904 0.035737 -0.037510
v -0.034742 0.022452 -0.040113
v -0.036951 0.036069 -0.037510
v -0.036911 0.022452 -0.039793
v -0.036951 0.022453 -0.039779
v -0.034742 0.036069 -0.037873
v -0.034742 0.036171 -0.037905
v -0.034742 0.036303 -0.037967
v -0.035240 0.036266 -0.037711
v -0.035572 0.036287 -0.037673
v -0.036951 0.036255 -0.037594
v -0.035904 0.036296 -0.037662
v -0.035214 0.022452 -0.040113
v -0.034742 0.036401 -0.040087
v -0.036909 0.022452 -0.039794
v -0.036859 0.036401 -0.039786
v -0.036951 0.036401 -0.039751
v -0.034742 0.036368 -0.038089
v -0.035240 0.036353 -0.037915
v -0.036951 0.036328 -0.037632
v -0.035572 0.036375 -0.037915
v -0.036568 0.036438 -0.037915
v -0.036951 0.036462 -0.037915
v -0.036951 0.036440 -0.037858
v -0.035248 0.022452 -0.040113
v -0.034908 0.036401 -0.040087
v -0.034742 0.036490 -0.040084
v -0.036567 0.022452 -0.039896
v -0.036818 0.036605 -0.039771
v -0.036568 0.036401 -0.039870
v -0.036951 0.036662 -0.039591
v -0.034742 0.036433 -0.038247
v -0.034908 0.036445 -0.038247
v -0.034742 0.036485 -0.038411
v -0.036951 0.036538 -0.038195
v -0.035572 0.022452 -0.040078
v -0.035434 0.036401 -0.040078
v -0.035240 0.036401 -0.040085
v -0.035240 0.036577 -0.040079
v -0.034908 0.036580 -0.040080
v -0.034742 0.036580 -0.040080
v -0.036236 0.022452 -0.039961
v -0.036568 0.036640 -0.039806
v -0.035426 0.036573 -0.040076
v -0.036236 0.036401 -0.039933
v -0.036236 0.036069 -0.039935
v -0.036951 0.036672 -0.039561
v -0.036568 0.036731 -0.039575
v -0.034742 0.036618 -0.038911
v -0.034742 0.036704 -0.039243
v -0.036951 0.036574 -0.038335
v -0.035240 0.036669 -0.039907
v -0.034908 0.036671 -0.039907
v -0.034742 0.036671 -0.039907
v -0.036236 0.036657 -0.039835
v -0.035551 0.036644 -0.039927
v -0.036951 0.036749 -0.039243
v -0.036236 0.036748 -0.039575
v -0.034742 0.036749 -0.039575
v -0.036951 0.036713 -0.038911
v -0.036900 0.036711 -0.038911
v -0.036951 0.036703 -0.038859
v -0.036951 0.036626 -0.038537
v -0.035904 0.036751 -0.039575
v -0.035572 0.036751 -0.039575
v -0.034742 0.036710 -0.039741
v -0.036951 0.036745 -0.039191
vn 0.2474 0.0019 0.9689
vn -1.0000 -0.0000 -0.0000
vn 0.2476 -0.0000 0.9689
vn 0.3251 0.0516 0.9443
vn 0.3116 0.0510 0.9488
vn 0.2471 0.0450 0.9679
vn 1.0000 -0.0000 -0.0000
vn 1.0000 -0.0004 -0.0000
vn 0.0643 0.0777 0.9949
vn -0.0000 -1.0000 -0.0000
vn 0.3930 0.0543 0.9179
vn 0.3757 0.0540 0.9252
vn 0.3754 0.0667 0.9245
vn 0.2638 0.1935 0.9450
vn 0.2676 0.0987 0.9585
vn 0.0585 0.1023 0.9930
vn 0.0527 0.0965 0.9939
vn 0.0527 0.0798 0.9954
vn 0.0270 0.0832 0.9962
vn -0.0357 -0.9994 -0.0019
vn 0.4164 0.0546 0.9075
vn 0.4160 0.0694 0.9067
vn 0.4895 0.2573 0.8332
vn 0.4922 0.3717 0.7871
vn 0.1876 0.8537 0.4858
vn 0.1994 0.3520 0.9145
vn 0.1289 0.4481 0.8846
vn 0.0524 0.4513 0.8908
vn 0.0286 0.4108 0.9113
vn 0.0312 0.0966 0.9948
vn 0.0404 0.4655 0.8841
vn 0.0396 0.4656 0.8841
vn 0.0007 0.0018 -1.0000
vn -0.3433 0.0017 -0.9392
vn -0.3217 0.0017 -0.9469
vn -0.3584 0.0019 -0.9335
vn 0.1765 0.8668 0.4663
vn 0.1073 0.9153 0.3882
vn 0.1021 0.9158 0.3884
vn 0.0410 0.6043 0.7957
vn 0.0632 0.9379 0.3412
vn 0.0593 0.9381 0.3413
vn 0.0581 0.9367 0.3454
vn 0.0541 0.9299 0.3637
vn 0.0393 0.8949 0.4445
vn 0.0393 0.4693 0.8822
vn -0.0000 0.0019 -1.0000
vn -0.0000 0.0363 -0.9993
vn -0.2855 0.0015 -0.9584
vn -0.3550 0.1391 -0.9245
vn -0.2728 0.1248 -0.9539
vn -0.2750 0.0018 -0.9614
vn -0.6801 0.3814 -0.6262
vn 0.1025 0.9213 0.3751
vn 0.0712 0.9403 0.3327
vn 0.0636 0.9433 0.3259
vn 0.0598 0.9459 0.3189
vn 0.0588 0.9477 0.3138
vn 0.0542 0.9571 0.2848
vn 0.0486 0.9643 0.2602
vn -0.1069 0.0011 -0.9943
vn -0.0368 0.0020 -0.9993
vn -0.0059 0.0020 -1.0000
vn -0.0059 0.0332 -0.9994
vn -0.0033 0.0381 -0.9993
vn -0.0009 0.0381 -0.9993
vn -0.0000 0.0399 -0.9992
vn -0.1924 0.0018 -0.9813
vn -0.1816 0.8898 -0.4186
vn -0.1819 0.4436 -0.8776
vn -0.2045 0.2094 -0.9562
vn -0.1864 0.0596 -0.9807
vn -0.1868 0.0077 -0.9824
vn -0.1555 0.9416 -0.2986
vn -0.1488 0.9199 -0.3629
vn 0.0720 0.9508 0.3015
vn 0.0482 0.9653 0.2565
vn 0.0470 0.9664 0.2527
vn 0.0461 0.9669 0.2510
vn -0.1742 0.0017 -0.9847
vn -0.1781 0.0077 -0.9840
vn -0.1781 0.0180 -0.9838
vn -0.0368 0.0113 -0.9993
vn -0.1758 0.0018 -0.9844
vn -0.0165 0.0332 -0.9993
vn -0.0273 0.8811 -0.4721
vn -0.0088 0.8814 -0.4723
vn -0.0037 0.8855 -0.4646
vn -0.0000 0.8855 -0.4646
vn -0.0799 0.9273 -0.3658
vn -0.0940 0.7984 -0.5948
vn -0.0449 0.8866 -0.4603
vn -0.0427 0.8875 -0.4589
vn -0.1558 0.9600 -0.2325
vn -0.0502 0.9924 -0.1123
vn -0.0477 0.9430 -0.3292
vn 0.0238 0.9907 0.1336
vn 0.0268 0.9876 0.1545
vn 0.0327 0.9809 0.1915
vn 0.0397 0.9719 0.2321
vn 0.0452 0.9675 0.2488
vn -0.0435 0.8916 -0.4508
vn -0.0355 0.9435 -0.3294
vn -0.0082 0.9674 -0.2530
vn -0.0041 0.9694 -0.2454
vn -0.0000 0.9723 -0.2337
vn 0.0015 0.9731 -0.2303
vn 0.0123 0.9966 0.0816
vn 0.0017 0.9999 0.0111
vn -0.0000 1.0000 0.0042
vn -0.0084 0.9997 -0.0224
vn 0.0016 0.9733 -0.2295
vn 0.0179 0.9933 0.1140
vn 0.0266 0.9822 0.1859
s 0
f 1//1 2//1 3//1
f 1//2 3//2 9//2
f 1//2 9//2 18//2
f 1//2 18//2 26//2
f 1//2 26//2 35//2
f 1//2 35//2 39//2
f 1//2 39//2 38//2
f 1//2 38//2 50//2
f 1//2 50//2 66//2
f 1//2 66//2 78//2
f 1//2 78//2 77//2
f 1//2 77//2 75//2
f 1//2 75//2 82//2
f 1//2 82//2 72//2
f 1//2 72//2 62//2
f 1//2 62//2 46//2
f 1//2 46//2 32//2
f 1//2 32//2 20//2
f 1//2 20//2 10//2
f 1//2 10//2 4//2
f 1//3 4//3 8//3
f 1//3 8//3 2//3
f 2//4 5//4 6//4
f 2//5 6//5 7//5
f 2//6 7//6 3//6
f 2//7 8//7 17//7
f 2//7 17//7 29//7
f 2//7 29//7 42//7
f 2//7 42//7 56//7
f 2//7 56//7 69//7
f 2//7 69//7 81//7
f 2//7 81//7 74//7
f 2//7 74//7 65//7
f 2//7 65//7 64//7
f 2//7 64//7 49//7
f 2//7 49//7 47//7
f 2//7 47//7 33//7
f 2//7 33//7 23//7
f 2//7 23//7 22//7
f 2//7 22//7 21//7
f 2//8 21//8 11//8
f 2//7 11//7 5//7
f 3//9 7//9 9//9
f 4//10 10//10 19//10
f 4//10 19//10 30//10
f 4//10 30//10 43//10
f 4//10 43//10 57//10
f 4//10 57//10 51//10
f 4//10 51//10 40//10
f 4//10 40//10 28//10
f 4//10 28//10 17//10
f 4//10 17//10 8//10
f 5//11 11//11 12//11
f 5//12 12//12 6//12
f 6//13 12//13 13//13
f 6//14 13//14 14//14
f 6//15 14//15 7//15
f 7//16 14//16 15//16
f 7//17 15//17 16//17
f 7//18 16//18 9//18
f 9//19 16//19 18//19
f 10//20 20//20 19//20
f 11//21 21//21 12//21
f 12//22 21//22 13//22
f 13//23 21//23 22//23
f 13//24 22//24 23//24
f 13//25 23//25 24//25
f 13//26 24//26 14//26
f 14//27 24//27 25//27
f 14//28 25//28 15//28
f 15//29 26//29 18//29
f 15//30 18//30 16//30
f 15//31 25//31 27//31
f 15//32 27//32 26//32
f 17//33 28//33 29//33
f 19//34 20//34 31//34
f 19//35 31//35 30//35
f 20//36 32//36 31//36
f 23//37 33//37 24//37
f 24//38 33//38 34//38
f 24//39 34//39 25//39
f 25//40 35//40 27//40
f 25//41 34//41 36//41
f 25//42 36//42 37//42
f 25//43 37//43 38//43
f 25//44 38//44 39//44
f 25//45 39//45 35//45
f 26//46 27//46 35//46
f 28//47 40//47 41//47
f 28//47 41//47 29//47
f 29//48 41//48 42//48
f 30//49 31//49 43//49
f 31//50 32//50 44//50
f 31//51 44//51 45//51
f 31//52 45//52 43//52
f 32//53 46//53 44//53
f 33//54 47//54 34//54
f 34//55 47//55 48//55
f 34//56 48//56 36//56
f 36//57 48//57 37//57
f 37//58 48//58 38//58
f 38//59 48//59 49//59
f 38//60 49//60 50//60
f 40//61 51//61 52//61
f 40//62 52//62 53//62
f 40//63 53//63 41//63
f 41//64 53//64 54//64
f 41//65 54//65 55//65
f 41//66 55//66 42//66
f 42//67 55//67 56//67
f 43//68 45//68 57//68
f 44//69 46//69 58//69
f 44//70 58//70 59//70
f 44//71 59//71 45//71
f 45//72 59//72 60//72
f 45//73 60//73 61//73
f 45//68 61//68 57//68
f 46//74 62//74 63//74
f 46//75 63//75 58//75
f 47//76 49//76 48//76
f 49//77 64//77 50//77
f 50//78 64//78 65//78
f 50//79 65//79 66//79
f 51//80 57//80 52//80
f 52//81 61//81 60//81
f 52//82 60//82 59//82
f 52//83 59//83 53//83
f 52//84 57//84 61//84
f 53//85 59//85 54//85
f 54//86 59//86 67//86
f 54//87 67//87 55//87
f 55//88 67//88 68//88
f 55//89 68//89 69//89
f 55//89 69//89 56//89
f 58//90 63//90 70//90
f 58//91 70//91 59//91
f 59//92 70//92 71//92
f 59//93 71//93 67//93
f 62//94 72//94 63//94
f 63//95 72//95 73//95
f 63//96 73//96 70//96
f 65//97 74//97 75//97
f 65//98 75//98 76//98
f 65//99 76//99 77//99
f 65//100 77//100 78//100
f 65//101 78//101 66//101
f 67//102 71//102 70//102
f 67//103 70//103 73//103
f 67//104 73//104 79//104
f 67//105 79//105 68//105
f 68//106 79//106 80//106
f 68//106 80//106 69//106
f 69//107 80//107 81//107
f 72//108 82//108 74//108
f 72//109 74//109 80//109
f 72//110 80//110 79//110
f 72//111 79//111 73//111
f 74//112 81//112 80//112
f 74//113 82//113 75//113
f 75//114 77//114 76//114
