# Blender 4.4.3
# www.blender.org
o socket9mm_collision_geom_19
v -0.084732 0.023750 -0.034133
v -0.084732 0.023750 -0.038750
v -0.086568 0.023750 -0.034133
v -0.084732 0.010582 -0.034133
v -0.084781 0.023750 -0.038698
v -0.084732 0.020868 -0.042877
v -0.084824 0.020858 -0.042842
v -0.085481 0.020846 -0.042479
v -0.085856 0.020864 -0.042174
v -0.086823 0.020828 -0.041424
v -0.087163 0.020828 -0.041083
v -0.086568 0.023750 -0.034308
v -0.089923 0.020832 -0.034133
v -0.085190 0.004374 -0.034133
v -0.084732 0.003682 -0.039462
v -0.084967 0.023750 -0.038476
v -0.084732 0.020770 -0.042919
v -0.084732 0.020626 -0.042959
v -0.084879 0.020626 -0.042874
v -0.085234 0.020626 -0.042668
v -0.085518 0.020626 -0.042502
v -0.085691 0.020626 -0.042391
v -0.086455 0.020810 -0.041751
v -0.086839 0.020626 -0.041438
v -0.087012 0.020626 -0.041272
v -0.087177 0.020626 -0.041100
v -0.087490 0.020810 -0.040715
v -0.087914 0.020864 -0.040117
v -0.086559 0.023750 -0.034642
v -0.089923 0.020832 -0.034654
v -0.089945 0.020626 -0.034133
v -0.085242 0.004236 -0.034133
v -0.084732 0.003418 -0.039845
v -0.084732 0.003500 -0.039639
v -0.085242 0.023750 -0.038140
v -0.084732 0.003682 -0.042959
v -0.085234 0.020280 -0.042669
v -0.084879 0.003682 -0.042874
v -0.085518 0.003682 -0.042502
v -0.085908 0.020280 -0.042219
v -0.085908 0.020626 -0.042218
v -0.085691 0.004028 -0.042391
v -0.086460 0.020626 -0.041755
v -0.086633 0.020626 -0.041610
v -0.086839 0.003682 -0.041438
v -0.087012 0.003682 -0.041272
v -0.087958 0.020280 -0.040169
v -0.087350 0.020626 -0.040894
v -0.087177 0.003682 -0.041100
v -0.088218 0.020846 -0.039742
v -0.087957 0.020626 -0.040168
v -0.088130 0.020626 -0.039951
v -0.085251 0.023750 -0.038129
v -0.086558 0.023750 -0.034654
v -0.089917 0.020820 -0.034999
v -0.089945 0.020626 -0.034654
v -0.089945 0.003682 -0.034133
v -0.085302 0.004102 -0.034133
v -0.084732 0.003338 -0.040186
v -0.084732 0.003442 -0.042877
v -0.084824 0.003450 -0.042842
v -0.085481 0.003460 -0.042479
v -0.085234 0.004028 -0.042669
v -0.085234 0.003682 -0.042668
v -0.085691 0.003682 -0.042390
v -0.085908 0.004028 -0.042219
v -0.086633 0.003682 -0.041610
v -0.086455 0.003498 -0.041751
v -0.086823 0.003480 -0.041424
v -0.087163 0.003478 -0.041083
v -0.088131 0.020280 -0.039951
v -0.087958 0.004028 -0.040169
v -0.087490 0.003498 -0.040715
v -0.087350 0.003682 -0.040894
v -0.088241 0.020626 -0.039779
v -0.088879 0.020818 -0.038655
v -0.088582 0.020858 -0.039085
v -0.085504 0.023750 -0.037767
v -0.085499 0.023750 -0.037776
v -0.085488 0.023750 -0.037792
v -0.085266 0.023750 -0.038108
v -0.086513 0.023750 -0.035021
v -0.089907 0.020806 -0.035201
v -0.089931 0.020626 -0.034999
v -0.089945 0.003682 -0.034654
v -0.089935 0.003580 -0.034133
v -0.085580 0.003948 -0.034133
v -0.087309 0.003392 -0.034133
v -0.087480 0.003360 -0.034133
v -0.087654 0.003328 -0.034133
v -0.084732 0.003320 -0.040532
v -0.086443 0.003670 -0.034133
v -0.087039 0.003478 -0.034133
v -0.084732 0.003360 -0.042623
v -0.085234 0.003330 -0.042261
v -0.085234 0.003426 -0.042550
v -0.085589 0.003404 -0.042278
v -0.085856 0.003446 -0.042174
v -0.085908 0.003682 -0.042218
v -0.086460 0.003682 -0.041755
v -0.086589 0.003446 -0.041552
v -0.086948 0.003434 -0.041209
v -0.087291 0.003446 -0.040849
v -0.087913 0.003446 -0.040117
v -0.088131 0.004028 -0.039951
v -0.087957 0.003682 -0.040168
v -0.088130 0.003682 -0.039951
v -0.088218 0.003460 -0.039742
v -0.088409 0.020280 -0.039494
v -0.088408 0.020626 -0.039494
v -0.088241 0.003682 -0.039779
v -0.089251 0.020846 -0.037706
v -0.088929 0.020862 -0.038458
v -0.085879 0.023750 -0.037105
v -0.085855 0.023750 -0.037148
v -0.085692 0.023750 -0.037443
v -0.088614 0.020626 -0.039140
v -0.088787 0.020626 -0.038840
v -0.088886 0.020626 -0.038668
v -0.088994 0.020626 -0.038458
v -0.089143 0.020626 -0.038112
v -0.086511 0.023750 -0.035036
v -0.089631 0.020882 -0.036382
v -0.089593 0.020846 -0.036729
v -0.089566 0.020812 -0.036928
v -0.089705 0.020626 -0.036382
v -0.089910 0.020626 -0.035216
v -0.089931 0.003682 -0.034999
v -0.089917 0.003486 -0.034999
v -0.089923 0.003476 -0.034654
v -0.089923 0.003476 -0.034133
v -0.087825 0.003322 -0.034133
v -0.088000 0.003318 -0.034133
v -0.084888 0.003318 -0.040532
v -0.084732 0.003318 -0.040878
v -0.084732 0.003318 -0.042261
v -0.084888 0.003318 -0.042261
v -0.086617 0.003344 -0.041223
v -0.086271 0.003358 -0.041570
v -0.085580 0.003318 -0.041915
v -0.086963 0.003344 -0.040878
v -0.087309 0.003358 -0.040532
v -0.088017 0.003404 -0.039850
v -0.088879 0.003490 -0.038655
v -0.088290 0.003426 -0.039494
v -0.088582 0.003450 -0.039085
v -0.088409 0.004028 -0.039494
v -0.088408 0.003682 -0.039494
v -0.086301 0.023750 -0.036037
v -0.086172 0.023750 -0.036395
v -0.086047 0.023750 -0.036735
v -0.088614 0.003682 -0.039140
v -0.088787 0.003682 -0.038840
v -0.088995 0.020280 -0.038458
v -0.088886 0.003682 -0.038668
v -0.089145 0.020280 -0.038112
v -0.089208 0.020626 -0.037935
v -0.086396 0.023750 -0.035677
v -0.086392 0.023750 -0.035699
v -0.089272 0.020626 -0.037762
v -0.089571 0.020626 -0.036941
v -0.089629 0.020626 -0.036729
v -0.089880 0.020280 -0.035389
v -0.089705 0.003682 -0.036382
v -0.089910 0.003682 -0.035216
v -0.089907 0.003500 -0.035201
v -0.089631 0.003428 -0.036382
v -0.089657 0.003416 -0.036037
v -0.089729 0.003392 -0.034999
v -0.089729 0.003382 -0.034654
v -0.089825 0.003428 -0.034133
v -0.089383 0.003318 -0.034133
v -0.086617 0.003318 -0.040878
v -0.086963 0.003318 -0.040532
v -0.087654 0.003318 -0.039840
v -0.088000 0.003330 -0.039494
v -0.088692 0.003352 -0.038458
v -0.088928 0.003448 -0.038458
v -0.089251 0.003462 -0.037706
v -0.089143 0.003682 -0.038112
v -0.088994 0.003682 -0.038458
v -0.088695 0.003424 -0.038783
v -0.088995 0.004028 -0.038458
v -0.089145 0.004028 -0.038112
v -0.089571 0.003682 -0.036941
v -0.089629 0.003682 -0.036729
v -0.089880 0.004028 -0.035389
v -0.089566 0.003496 -0.036928
v -0.089593 0.003462 -0.036729
v -0.089300 0.003426 -0.037420
v -0.089383 0.003368 -0.036729
v -0.089383 0.003332 -0.036382
v -0.089383 0.003320 -0.036037
v -0.089729 0.003382 -0.034133
v -0.089383 0.003318 -0.035691
v -0.088692 0.003318 -0.038112
v -0.088346 0.003322 -0.038802
v -0.089037 0.003330 -0.037420
v -0.089003 0.003414 -0.038112
v -0.089208 0.003682 -0.037935
v -0.089272 0.003682 -0.037762
v -0.089037 0.003318 -0.037074
vn -0.0000 1.0000 -0.0000
vn -0.0000 1.0000 0.0001
vn -0.0000 1.0000 -0.0001
vn -0.0000 -0.0000 1.0000
vn -0.0002 -0.0000 1.0000
vn 0.0001 -0.0000 1.0000
vn 1.0000 -0.0000 -0.0000
vn 1.0000 -0.0001 -0.0000
vn -0.2913 0.7843 -0.5477
vn -0.3141 0.7787 -0.5432
vn -0.3848 0.7642 -0.5177
vn -0.4177 0.7577 -0.5014
vn -0.4630 0.7555 -0.4636
vn -0.4784 0.7555 -0.4476
vn -0.6562 0.7546 -0.0000
vn 0.9928 -0.0732 0.0948
vn -0.5022 0.7545 -0.4225
vn -0.3621 0.3697 -0.8557
vn -0.4717 0.2472 -0.8464
vn -0.4743 0.2343 -0.8486
vn -0.4923 0.1796 -0.8517
vn -0.4951 0.1721 -0.8516
vn -0.4967 0.1698 -0.8512
vn -0.5305 0.1733 -0.8298
vn -0.5859 0.2497 -0.7710
vn -0.5226 0.5237 -0.6728
vn -0.4453 0.7149 -0.5391
vn -0.6588 0.1042 -0.7451
vn -0.6864 0.1048 -0.7196
vn -0.7004 0.1315 -0.7015
vn -0.7185 0.1049 -0.6876
vn -0.7464 0.1043 -0.6573
vn -0.5460 0.7066 -0.4500
vn -0.5049 0.7542 -0.4199
vn -0.6550 0.7554 -0.0180
vn -0.9944 0.1060 -0.0000
vn -0.9944 0.1059 -0.0000
vn 0.9262 -0.3527 0.1333
vn 0.9362 -0.3266 0.1297
vn 0.9908 -0.0942 0.0973
vn -0.5078 0.7546 -0.4156
vn -0.5005 -0.0000 -0.8658
vn -0.5005 -0.0000 -0.8657
vn -0.5026 0.0022 -0.8645
vn -0.5010 -0.0000 -0.8655
vn -0.5040 0.0022 -0.8637
vn -0.5060 -0.0000 -0.8626
vn -0.5386 -0.0000 -0.8426
vn -0.6250 0.0029 -0.7806
vn -0.6205 0.1201 -0.7750
vn -0.6222 -0.0000 -0.7829
vn -0.6415 0.0358 -0.7663
vn -0.6423 0.0358 -0.7656
vn -0.6428 0.0367 -0.7651
vn -0.6432 -0.0000 -0.7657
vn -0.6902 -0.0000 -0.7236
vn -0.7225 -0.0000 -0.6914
vn -0.7661 0.0005 -0.6427
vn -0.7655 0.0403 -0.6422
vn -0.7660 -0.0000 -0.6428
vn -0.6772 0.5150 -0.5255
vn -0.7663 0.0387 -0.6413
vn -0.7752 0.1291 -0.6184
vn -0.7710 0.2497 -0.5859
vn -0.5262 0.7550 -0.3913
vn -0.5154 0.7548 -0.4058
vn -0.6548 0.7552 -0.0297
vn -0.9941 0.1059 -0.0228
vn -0.6546 0.7550 -0.0388
vn -1.0000 -0.0000 -0.0000
vn 0.9059 -0.4003 0.1382
vn 0.7477 -0.6465 0.1520
vn -0.3585 -0.3021 -0.8833
vn -0.4720 -0.2397 -0.8484
vn -0.4925 -0.1780 -0.8519
vn -0.4952 -0.1706 -0.8519
vn -0.5026 -0.0022 -0.8645
vn -0.5040 -0.0022 -0.8637
vn -0.4968 -0.1684 -0.8514
vn -0.5335 -0.1721 -0.8281
vn -0.5416 -0.0021 -0.8407
vn -0.6427 0.0006 -0.7661
vn -0.6419 0.0029 -0.7668
vn -0.6429 -0.0000 -0.7660
vn -0.6222 -0.0019 -0.7829
vn -0.6428 -0.0367 -0.7652
vn -0.6588 -0.1042 -0.7451
vn -0.6864 -0.1048 -0.7196
vn -0.7001 -0.1308 -0.7019
vn -0.7186 -0.1039 -0.6877
vn -0.7838 0.0011 -0.6210
vn -0.7817 0.0039 -0.6237
vn -0.7669 0.0039 -0.6418
vn -0.7838 -0.0000 -0.6210
vn -0.7467 -0.1033 -0.6571
vn -0.7655 -0.0403 -0.6422
vn -0.7661 -0.0005 -0.6427
vn -0.8276 0.1763 -0.5329
vn -0.8434 0.1739 -0.5084
vn -0.5944 0.7275 -0.3427
vn -0.5681 0.7545 -0.3286
vn -0.5649 0.7546 -0.3339
vn -0.5483 0.7557 -0.3582
vn -0.5356 0.7561 -0.3762
vn -0.5286 0.7553 -0.3873
vn -0.8408 0.0012 -0.5414
vn -0.6506 0.7552 -0.0796
vn -0.9959 0.0733 -0.0529
vn -0.9964 0.0734 -0.0412
vn -0.6505 0.7549 -0.0835
vn -0.9991 -0.0000 -0.0413
vn -0.9945 -0.1047 -0.0000
vn 0.4786 -0.8644 0.1541
vn 0.1833 -0.9792 0.0868
vn 0.1797 -0.9800 0.0851
vn 0.1102 -0.9926 0.0516
vn 0.3037 -0.9428 0.1375
vn 0.3034 -0.9429 0.1375
vn 0.3012 -0.9437 0.1366
vn -0.1626 -0.9390 -0.3032
vn -0.1721 -0.9350 -0.3101
vn -0.2236 -0.8945 -0.3872
vn -0.2374 -0.8826 -0.4057
vn -0.5868 -0.2451 -0.7718
vn -0.2304 -0.8985 -0.3737
vn -0.2936 -0.8685 -0.3994
vn -0.5036 -0.5767 -0.6433
vn -0.6231 -0.0029 -0.7821
vn -0.6179 -0.1292 -0.7756
vn -0.6419 -0.0029 -0.7668
vn -0.6427 -0.0006 -0.7661
vn -0.6423 -0.0358 -0.7656
vn -0.4371 -0.7264 -0.5304
vn -0.6414 -0.0358 -0.7663
vn -0.3459 -0.8452 -0.4075
vn -0.3329 -0.8635 -0.3789
vn -0.4061 -0.8160 -0.4115
vn -0.3638 -0.8755 -0.3179
vn -0.3871 -0.8615 -0.3287
vn -0.5497 -0.7040 -0.4496
vn -0.8419 -0.0000 -0.5397
vn -0.7669 -0.0039 -0.6418
vn -0.7817 -0.0039 -0.6237
vn -0.7838 -0.0011 -0.6210
vn -0.6512 -0.5628 -0.5091
vn -0.7711 -0.2479 -0.5864
vn -0.7751 -0.1291 -0.6185
vn -0.7663 -0.0387 -0.6413
vn -0.8624 0.0026 -0.5063
vn -0.8582 0.0982 -0.5038
vn -0.8610 -0.0000 -0.5086
vn -0.7672 0.5575 -0.3173
vn -0.5760 0.7550 -0.3134
vn -0.5733 0.7549 -0.3184
vn -0.5732 0.7549 -0.3187
vn -0.5708 0.7545 -0.3239
vn -0.8624 0.0743 -0.5007
vn -0.8642 0.0667 -0.4987
vn -0.8647 0.0658 -0.4980
vn -0.8880 0.0637 -0.4555
vn -0.9090 0.1415 -0.3920
vn -0.9054 0.2222 -0.3617
vn -0.5682 0.7545 -0.3285
vn -0.6478 0.7543 -0.1065
vn -0.6486 0.7541 -0.1034
vn -0.7936 0.5902 -0.1479
vn -0.9271 0.3276 -0.1822
vn -0.9680 0.1630 -0.1909
vn -0.9845 0.0281 -0.1732
vn -0.9949 0.0222 -0.0983
vn -0.9952 -0.0000 -0.0984
vn -0.9965 -0.0727 -0.0412
vn -0.9941 -0.1059 -0.0221
vn -0.9944 -0.1058 -0.0003
vn -0.9942 -0.1073 -0.0000
vn 0.0351 -0.9992 0.0173
vn 0.0229 -0.9997 0.0114
vn 0.0128 -0.9999 0.0062
vn 0.0128 -0.9999 0.0058
vn -0.0000 -0.9933 -0.1152
vn -0.0344 -0.9909 -0.1298
vn -0.1559 -0.9684 -0.1948
vn -0.1864 -0.9524 -0.2413
vn -0.1792 -0.9338 -0.3097
vn -0.0346 -0.9970 -0.0693
vn -0.1414 -0.9743 -0.1754
vn -0.2678 -0.9099 -0.3168
vn -0.2701 -0.9087 -0.3182
vn -0.2702 -0.9099 -0.3149
vn -0.2629 -0.9171 -0.2996
vn -0.2642 -0.9276 -0.2641
vn -0.2996 -0.9171 -0.2628
vn -0.3151 -0.9098 -0.2703
vn -0.3181 -0.9087 -0.2701
vn -0.3165 -0.9101 -0.2675
vn -0.4007 -0.8678 -0.2937
vn -0.8408 -0.0012 -0.5414
vn -0.8278 -0.1748 -0.5330
vn -0.8437 -0.1724 -0.5083
vn -0.3755 -0.8973 -0.2321
vn -0.4071 -0.8815 -0.2390
vn -0.5859 -0.7375 -0.3359
vn -0.8648 0.0026 -0.5021
vn -0.8659 -0.0000 -0.5003
vn -0.8596 -0.0892 -0.5031
vn -0.8630 -0.0038 -0.5052
vn -0.9091 0.2133 -0.3578
vn -0.6195 0.7543 -0.2173
vn -0.6175 0.7547 -0.2215
vn -0.6155 0.7549 -0.2266
vn -0.6092 0.7541 -0.2454
vn -0.5960 0.7560 -0.2706
vn -0.8661 -0.0000 -0.4998
vn -0.8666 -0.0000 -0.4991
vn -0.8898 0.0026 -0.4564
vn -0.8880 -0.0000 -0.4598
vn -0.9178 0.0027 -0.3971
vn -0.9183 0.0040 -0.3960
vn -0.9358 0.0723 -0.3452
vn -0.9382 0.0042 -0.3461
vn -0.6449 0.7555 -0.1150
vn -0.6435 0.7557 -0.1218
vn -0.6380 0.7557 -0.1481
vn -0.6314 0.7564 -0.1708
vn -0.6207 0.7544 -0.2136
vn -0.9374 0.0588 -0.3433
vn -0.9385 0.0495 -0.3416
vn -0.9627 0.0449 -0.2669
vn -0.9716 0.1086 -0.2104
vn -0.9849 0.0008 -0.1732
vn -0.9773 -0.0000 -0.2117
vn -0.9848 -0.0000 -0.1735
vn -0.9851 -0.0000 -0.1717
vn -0.9852 -0.0000 -0.1717
vn -0.9949 -0.0219 -0.0983
vn -0.9960 -0.0725 -0.0529
vn -0.5710 -0.8166 -0.0840
vn -0.5019 -0.8623 -0.0677
vn -0.4470 -0.8931 -0.0519
vn -0.4473 -0.8937 -0.0344
vn -0.4351 -0.9000 -0.0260
vn -0.4352 -0.9003 -0.0011
vn -0.4399 -0.8980 -0.0000
vn -0.0000 -1.0000 -0.0000
vn -0.0748 -0.9944 -0.0748
vn -0.0749 -0.9944 -0.0748
vn -0.1748 -0.9745 -0.1409
vn -0.1948 -0.9684 -0.1559
vn -0.2411 -0.9525 -0.1863
vn -0.2997 -0.9369 -0.1802
vn -0.3262 -0.9255 -0.1926
vn -0.5430 -0.7835 -0.3021
vn -0.7489 -0.5852 -0.3110
vn -0.9059 -0.2201 -0.3618
vn -0.9093 -0.1392 -0.3921
vn -0.8889 -0.0638 -0.4537
vn -0.8647 -0.0658 -0.4980
vn -0.8642 -0.0667 -0.4987
vn -0.8617 -0.0774 -0.5016
vn -0.3455 -0.9170 -0.1995
vn -0.3823 -0.8974 -0.2204
vn -0.4122 -0.8815 -0.2302
vn -0.8643 -0.0038 -0.5030
vn -0.9178 -0.0000 -0.3971
vn -0.8907 -0.0039 -0.4547
vn -0.9397 0.0008 -0.3420
vn -0.9390 0.0028 -0.3439
vn -0.9398 -0.0000 -0.3418
vn -0.9636 -0.0000 -0.2672
vn -0.9716 -0.1086 -0.2104
vn -0.9680 -0.1624 -0.1911
vn -0.9845 -0.0278 -0.1732
vn -0.9849 -0.0008 -0.1732
vn -0.9263 -0.3295 -0.1825
vn -0.7777 -0.6117 -0.1448
vn -0.3953 -0.9101 -0.1242
vn -0.3606 -0.9277 -0.0964
vn -0.3616 -0.9304 -0.0595
vn -0.4267 -0.8944 -0.1343
vn -0.3464 -0.9370 -0.0459
vn -0.2982 -0.9539 -0.0331
vn -0.2831 -0.9587 -0.0277
vn -0.4305 -0.9026 -0.0000
vn -0.1985 -0.9801 -0.0057
vn -0.1821 -0.9833 -0.0000
vn -0.0582 -0.9977 -0.0350
vn -0.0920 -0.9941 -0.0575
vn -0.1910 -0.9758 -0.1068
vn -0.1808 -0.9788 -0.0963
vn -0.2248 -0.9697 -0.0954
vn -0.3310 -0.9346 -0.1301
vn -0.3709 -0.9130 -0.1698
vn -0.3690 -0.9082 -0.1973
vn -0.4681 -0.8639 -0.1859
vn -0.4767 -0.8586 -0.1889
vn -0.6114 -0.7620 -0.2136
vn -0.9094 -0.2115 -0.3580
vn -0.5622 -0.8033 -0.1964
vn -0.9373 -0.0056 -0.3484
vn -0.9182 -0.0054 -0.3960
vn -0.9338 -0.0862 -0.3471
vn -0.9178 -0.0040 -0.3971
vn -0.9390 -0.0028 -0.3439
vn -0.9397 -0.0008 -0.3420
vn -0.9385 -0.0495 -0.3416
vn -0.9627 -0.0449 -0.2669
vn -0.9374 -0.0588 -0.3433
vn -0.3408 -0.9311 -0.1301
vn -0.3412 -0.9323 -0.1196
vn -0.3010 -0.9485 -0.0986
vn -0.1092 -0.9934 -0.0345
vn -0.1091 -0.9934 -0.0345
vn -0.0231 -0.9997 -0.0058
vn -0.1036 -0.9940 -0.0345
s 0
f 1//1 2//1 5//1
f 1//1 5//1 16//1
f 1//1 16//1 35//1
f 1//1 35//1 53//1
f 1//1 53//1 81//1
f 1//1 81//1 80//1
f 1//1 80//1 79//1
f 1//2 79//2 78//2
f 1//1 78//1 116//1
f 1//1 116//1 115//1
f 1//1 115//1 114//1
f 1//1 114//1 151//1
f 1//1 151//1 150//1
f 1//1 150//1 149//1
f 1//1 149//1 159//1
f 1//2 159//2 158//2
f 1//1 158//1 122//1
f 1//1 122//1 82//1
f 1//1 82//1 54//1
f 1//3 54//3 29//3
f 1//1 29//1 12//1
f 1//1 12//1 3//1
f 1//4 3//4 13//4
f 1//4 13//4 31//4
f 1//4 31//4 57//4
f 1//4 57//4 86//4
f 1//4 86//4 131//4
f 1//4 131//4 171//4
f 1//4 171//4 194//4
f 1//4 194//4 172//4
f 1//4 172//4 133//4
f 1//4 133//4 132//4
f 1//4 132//4 90//4
f 1//4 90//4 89//4
f 1//4 89//4 88//4
f 1//4 88//4 93//4
f 1//4 93//4 92//4
f 1//4 92//4 87//4
f 1//4 87//4 58//4
f 1//5 58//5 32//5
f 1//6 32//6 14//6
f 1//4 14//4 4//4
f 1//7 4//7 15//7
f 1//7 15//7 34//7
f 1//7 34//7 33//7
f 1//7 33//7 59//7
f 1//7 59//7 91//7
f 1//7 91//7 135//7
f 1//7 135//7 136//7
f 1//7 136//7 94//7
f 1//7 94//7 60//7
f 1//7 60//7 36//7
f 1//7 36//7 18//7
f 1//7 18//7 17//7
f 1//8 17//8 6//8
f 1//7 6//7 2//7
f 2//9 6//9 7//9
f 2//10 7//10 8//10
f 2//11 8//11 9//11
f 2//12 9//12 10//12
f 2//13 10//13 11//13
f 2//14 11//14 5//14
f 3//15 12//15 30//15
f 3//15 30//15 13//15
f 4//16 14//16 15//16
f 5//17 11//17 16//17
f 6//18 17//18 7//18
f 7//19 17//19 8//19
f 8//20 17//20 18//20
f 8//21 18//21 19//21
f 8//22 19//22 20//22
f 8//23 20//23 21//23
f 8//24 21//24 22//24
f 8//25 22//25 23//25
f 8//26 23//26 9//26
f 9//27 23//27 10//27
f 10//28 23//28 24//28
f 10//29 24//29 25//29
f 10//30 25//30 11//30
f 11//31 25//31 26//31
f 11//32 26//32 27//32
f 11//33 27//33 28//33
f 11//34 28//34 16//34
f 12//35 29//35 30//35
f 13//36 30//36 56//36
f 13//37 56//37 31//37
f 14//38 32//38 33//38
f 14//39 33//39 34//39
f 14//40 34//40 15//40
f 16//41 28//41 35//41
f 18//42 36//42 38//42
f 18//43 38//43 19//43
f 19//44 37//44 20//44
f 19//45 38//45 63//45
f 19//45 63//45 37//45
f 20//46 37//46 21//46
f 21//47 37//47 63//47
f 21//47 63//47 39//47
f 21//48 39//48 42//48
f 21//48 42//48 22//48
f 22//49 40//49 41//49
f 22//50 41//50 23//50
f 22//51 42//51 66//51
f 22//51 66//51 40//51
f 23//52 41//52 43//52
f 23//53 43//53 44//53
f 23//54 44//54 24//54
f 24//55 44//55 67//55
f 24//55 67//55 45//55
f 24//56 45//56 46//56
f 24//56 46//56 25//56
f 25//57 46//57 49//57
f 25//57 49//57 26//57
f 26//58 47//58 48//58
f 26//59 48//59 27//59
f 26//60 49//60 72//60
f 26//60 72//60 47//60
f 27//61 50//61 28//61
f 27//62 48//62 51//62
f 27//63 51//63 52//63
f 27//64 52//64 50//64
f 28//65 50//65 53//65
f 28//66 53//66 35//66
f 29//67 54//67 30//67
f 30//68 55//68 56//68
f 30//69 54//69 55//69
f 31//70 56//70 85//70
f 31//70 85//70 57//70
f 32//71 58//71 33//71
f 33//72 58//72 59//72
f 36//73 60//73 61//73
f 36//74 61//74 62//74
f 36//75 62//75 38//75
f 38//76 62//76 64//76
f 38//77 64//77 63//77
f 39//78 63//78 64//78
f 39//79 64//79 62//79
f 39//80 62//80 65//80
f 39//81 65//81 42//81
f 40//82 44//82 43//82
f 40//83 43//83 41//83
f 40//84 66//84 67//84
f 40//84 67//84 44//84
f 42//85 65//85 66//85
f 45//86 67//86 68//86
f 45//87 68//87 69//87
f 45//88 69//88 46//88
f 46//89 69//89 70//89
f 46//90 70//90 49//90
f 47//91 71//91 52//91
f 47//92 52//92 51//92
f 47//93 51//93 48//93
f 47//94 72//94 105//94
f 47//94 105//94 71//94
f 49//95 70//95 73//95
f 49//96 73//96 74//96
f 49//97 74//97 72//97
f 50//98 52//98 75//98
f 50//99 75//99 76//99
f 50//100 76//100 77//100
f 50//101 77//101 78//101
f 50//102 78//102 79//102
f 50//103 79//103 80//103
f 50//104 80//104 81//104
f 50//105 81//105 53//105
f 52//106 71//106 75//106
f 54//107 82//107 55//107
f 55//108 83//108 84//108
f 55//109 84//109 56//109
f 55//110 82//110 83//110
f 56//111 84//111 128//111
f 56//111 128//111 85//111
f 57//112 85//112 86//112
f 58//113 87//113 59//113
f 59//114 88//114 89//114
f 59//115 89//115 90//115
f 59//116 90//116 91//116
f 59//117 87//117 92//117
f 59//118 92//118 93//118
f 59//119 93//119 88//119
f 60//120 94//120 95//120
f 60//121 95//121 96//121
f 60//122 96//122 61//122
f 61//123 96//123 62//123
f 62//124 68//124 65//124
f 62//125 96//125 97//125
f 62//126 97//126 98//126
f 62//127 98//127 68//127
f 65//128 99//128 66//128
f 65//129 68//129 99//129
f 66//130 99//130 100//130
f 66//131 100//131 67//131
f 67//132 100//132 68//132
f 68//133 98//133 69//133
f 68//134 100//134 99//134
f 69//135 98//135 101//135
f 69//136 101//136 102//136
f 69//137 102//137 70//137
f 70//138 102//138 103//138
f 70//139 103//139 104//139
f 70//140 104//140 73//140
f 71//141 105//141 111//141
f 71//141 111//141 75//141
f 72//142 74//142 106//142
f 72//143 106//143 107//143
f 72//144 107//144 105//144
f 73//145 104//145 108//145
f 73//146 108//146 107//146
f 73//147 107//147 106//147
f 73//148 106//148 74//148
f 75//149 109//149 110//149
f 75//150 110//150 76//150
f 75//151 111//151 147//151
f 75//151 147//151 109//151
f 76//152 112//152 113//152
f 76//153 113//153 114//153
f 76//154 114//154 115//154
f 76//155 115//155 116//155
f 76//156 116//156 77//156
f 76//157 110//157 117//157
f 76//158 117//158 118//158
f 76//159 118//159 119//159
f 76//160 119//160 120//160
f 76//161 120//161 121//161
f 76//162 121//162 112//162
f 77//163 116//163 78//163
f 82//164 122//164 123//164
f 82//165 123//165 83//165
f 83//166 123//166 124//166
f 83//167 124//167 125//167
f 83//168 125//168 126//168
f 83//169 126//169 127//169
f 83//170 127//170 84//170
f 84//171 127//171 165//171
f 84//171 165//171 128//171
f 85//172 128//172 129//172
f 85//173 129//173 130//173
f 85//174 130//174 86//174
f 86//175 130//175 131//175
f 90//176 132//176 91//176
f 91//177 132//177 133//177
f 91//178 133//178 134//178
f 91//179 134//179 135//179
f 94//180 136//180 137//180
f 94//181 137//181 95//181
f 95//182 138//182 139//182
f 95//183 139//183 97//183
f 95//184 97//184 96//184
f 95//185 137//185 140//185
f 95//186 140//186 138//186
f 97//187 139//187 98//187
f 98//188 139//188 101//188
f 101//189 139//189 102//189
f 102//190 139//190 138//190
f 102//191 138//191 141//191
f 102//192 141//192 142//192
f 102//193 142//193 103//193
f 103//194 142//194 104//194
f 104//195 142//195 143//195
f 104//196 143//196 108//196
f 105//197 107//197 111//197
f 107//198 108//198 111//198
f 108//199 144//199 111//199
f 108//200 143//200 145//200
f 108//201 145//201 146//201
f 108//202 146//202 144//202
f 109//203 117//203 110//203
f 109//204 147//204 152//204
f 109//204 152//204 117//204
f 111//205 144//205 148//205
f 111//206 148//206 147//206
f 112//207 121//207 125//207
f 112//208 125//208 149//208
f 112//209 149//209 150//209
f 112//210 150//210 151//210
f 112//211 151//211 113//211
f 113//212 151//212 114//212
f 117//213 152//213 153//213
f 117//213 153//213 118//213
f 118//214 153//214 155//214
f 118//214 155//214 119//214
f 119//215 154//215 120//215
f 119//216 155//216 183//216
f 119//216 183//216 154//216
f 120//217 154//217 156//217
f 120//218 156//218 121//218
f 121//219 157//219 125//219
f 121//220 156//220 157//220
f 122//221 158//221 123//221
f 123//222 158//222 159//222
f 123//223 159//223 124//223
f 124//224 159//224 149//224
f 124//225 149//225 125//225
f 125//226 157//226 160//226
f 125//227 160//227 161//227
f 125//228 161//228 162//228
f 125//229 162//229 126//229
f 126//230 163//230 127//230
f 126//231 162//231 186//231
f 126//231 186//231 164//231
f 126//232 164//232 187//232
f 126//232 187//232 163//232
f 127//233 163//233 187//233
f 127//234 187//234 165//234
f 128//235 165//235 166//235
f 128//236 166//236 129//236
f 129//237 166//237 167//237
f 129//238 167//238 168//238
f 129//239 168//239 169//239
f 129//240 169//240 130//240
f 130//241 169//241 170//241
f 130//242 170//242 171//242
f 130//243 171//243 131//243
f 133//244 172//244 195//244
f 133//244 195//244 202//244
f 133//244 202//244 196//244
f 133//244 196//244 175//244
f 133//244 175//244 174//244
f 133//244 174//244 173//244
f 133//244 173//244 140//244
f 133//244 140//244 137//244
f 133//244 137//244 136//244
f 133//244 136//244 135//244
f 133//244 135//244 134//244
f 138//245 140//245 173//245
f 138//245 173//245 174//245
f 138//245 174//245 141//245
f 141//246 174//246 175//246
f 141//247 175//247 176//247
f 141//248 176//248 142//248
f 142//249 176//249 143//249
f 143//250 176//250 177//250
f 143//251 177//251 145//251
f 144//252 146//252 178//252
f 144//253 178//253 179//253
f 144//254 179//254 180//254
f 144//255 180//255 181//255
f 144//256 181//256 155//256
f 144//257 155//257 153//257
f 144//258 153//258 152//258
f 144//259 152//259 148//259
f 145//260 177//260 182//260
f 145//261 182//261 146//261
f 146//262 182//262 178//262
f 147//263 148//263 152//263
f 154//264 183//264 184//264
f 154//264 184//264 156//264
f 155//265 181//265 183//265
f 156//266 161//266 160//266
f 156//267 160//267 157//267
f 156//268 184//268 185//268
f 156//268 185//268 161//268
f 161//269 185//269 186//269
f 161//269 186//269 162//269
f 164//270 186//270 188//270
f 164//271 188//271 166//271
f 164//272 166//272 165//272
f 164//273 165//273 187//273
f 166//274 188//274 189//274
f 166//275 189//275 167//275
f 167//276 190//276 191//276
f 167//277 191//277 192//277
f 167//278 192//278 168//278
f 167//279 189//279 190//279
f 168//280 192//280 169//280
f 169//281 192//281 193//281
f 169//282 193//282 170//282
f 170//283 194//283 171//283
f 170//284 193//284 195//284
f 170//285 195//285 172//285
f 170//285 172//285 194//285
f 175//286 196//286 197//286
f 175//287 197//287 176//287
f 176//288 197//288 177//288
f 177//289 197//289 196//289
f 177//290 196//290 198//290
f 177//291 198//291 199//291
f 177//292 199//292 178//292
f 177//293 178//293 182//293
f 178//294 199//294 190//294
f 178//295 190//295 179//295
f 179//296 189//296 188//296
f 179//297 188//297 180//297
f 179//298 190//298 189//298
f 180//299 200//299 184//299
f 180//300 184//300 181//300
f 180//301 188//301 200//301
f 181//302 184//302 183//302
f 184//303 200//303 201//303
f 184//304 201//304 185//304
f 185//305 201//305 188//305
f 185//306 188//306 186//306
f 188//307 201//307 200//307
f 190//308 199//308 198//308
f 190//309 198//309 191//309
f 191//310 198//310 192//310
f 192//311 198//311 202//311
f 192//312 202//312 193//312
f 193//313 202//313 195//313
f 196//314 202//314 198//314
