# Blender 4.4.3
# www.blender.org
o socket10mm_collision_geom_12
v -0.058912 0.027438 -0.035414
v -0.058912 0.022759 -0.035414
v -0.057530 0.027438 -0.036508
v -0.058627 0.036070 -0.036044
v -0.058864 0.036070 -0.035923
v -0.058912 0.036070 -0.035900
v -0.058912 0.022759 -0.038782
v -0.057530 0.022759 -0.036508
v -0.057530 0.036070 -0.037128
v -0.058461 0.036070 -0.036184
v -0.058652 0.036266 -0.036060
v -0.058912 0.036260 -0.035969
v -0.058866 0.022759 -0.038809
v -0.058912 0.036401 -0.038668
v -0.057530 0.022759 -0.039341
v -0.057530 0.036360 -0.037274
v -0.058333 0.036268 -0.036375
v -0.058864 0.036304 -0.036009
v -0.058912 0.036309 -0.035994
v -0.057530 0.036364 -0.037281
v -0.057530 0.036533 -0.037601
v -0.058538 0.036311 -0.036260
v -0.058864 0.036408 -0.036255
v -0.058861 0.022759 -0.038812
v -0.058904 0.036401 -0.038673
v -0.058738 0.036401 -0.038768
v -0.058912 0.036408 -0.038666
v -0.058725 0.036588 -0.038761
v -0.057530 0.036394 -0.039236
v -0.057866 0.022759 -0.039231
v -0.057536 0.036070 -0.039237
v -0.058912 0.036398 -0.036205
v -0.057530 0.036534 -0.037605
v -0.058912 0.036418 -0.036255
v -0.058504 0.022759 -0.038988
v -0.058532 0.036401 -0.038867
v -0.058912 0.036645 -0.038559
v -0.058532 0.036629 -0.038806
v -0.057801 0.036611 -0.039113
v -0.058200 0.036401 -0.039001
v -0.057536 0.036401 -0.039234
v -0.057530 0.036401 -0.039236
v -0.058187 0.022759 -0.039113
v -0.057850 0.036401 -0.039131
v -0.057530 0.036607 -0.037890
v -0.057530 0.036697 -0.038247
v -0.057530 0.036698 -0.038253
v -0.058912 0.036689 -0.037534
v -0.058499 0.022759 -0.038991
v -0.058912 0.036655 -0.038531
v -0.058532 0.036719 -0.038579
v -0.058847 0.036651 -0.038583
v -0.058200 0.036659 -0.038872
v -0.057536 0.036645 -0.039154
v -0.057530 0.036641 -0.039157
v -0.058912 0.036697 -0.037583
v -0.057530 0.036744 -0.038579
v -0.058912 0.036737 -0.037866
v -0.058912 0.036738 -0.038251
v -0.058864 0.036748 -0.038247
v -0.058200 0.036751 -0.038579
v -0.057536 0.036737 -0.038911
v -0.057530 0.036735 -0.038916
v -0.057530 0.036645 -0.039155
v -0.057530 0.036744 -0.038585
v -0.057868 0.036749 -0.038579
v -0.058912 0.036741 -0.037915
v -0.058864 0.036740 -0.037915
v -0.058912 0.036748 -0.038199
v -0.057530 0.036737 -0.038911
v -0.058532 0.036746 -0.038247
vn 0.6206 -0.0000 0.7841
vn 0.6202 0.0366 0.7836
vn 0.4540 0.0499 0.8896
vn 0.4233 0.0509 0.9046
vn -1.0000 -0.0000 -0.0000
vn -1.0000 0.0002 -0.0000
vn -0.0000 -1.0000 -0.0000
vn 1.0000 -0.0000 -0.0000
vn 1.0000 -0.0004 -0.0000
vn 1.0000 -0.0003 -0.0000
vn 1.0000 0.0002 -0.0000
vn 1.0000 0.0001 -0.0000
vn 0.7111 0.0503 0.7013
vn 0.6438 0.0407 0.7641
vn 0.6374 0.1456 0.7566
vn 0.4506 0.1316 0.8830
vn 0.4174 0.1738 0.8919
vn 0.3038 0.3270 0.8948
vn -0.5035 0.0072 -0.8639
vn 0.6881 0.3274 0.6475
vn 0.6959 0.2119 0.6862
vn 0.6822 0.2287 0.6945
vn 0.2894 0.5806 0.7611
vn 0.2875 0.4329 0.8544
vn 0.5140 0.6764 0.5275
vn 0.4697 0.7331 0.4918
vn 0.3939 0.8134 0.4280
vn 0.2910 0.8843 0.3652
vn 0.2723 0.8936 0.3567
vn 0.2525 0.8913 0.3766
vn -0.4990 0.0073 -0.8666
vn -0.4997 0.0073 -0.8662
vn -0.4682 0.0070 -0.8836
vn -0.6178 0.2517 -0.7450
vn -0.4983 0.0719 -0.8640
vn -0.3103 0.0073 -0.9506
vn -0.2562 0.0074 -0.9666
vn 0.2137 0.8999 0.3801
vn 0.2134 0.8999 0.3803
vn 0.2181 0.9282 0.3014
vn 0.2726 0.8949 0.3532
vn 0.1867 0.9438 0.2726
vn 0.1816 0.9180 0.3525
vn -0.4440 0.0068 -0.8960
vn -0.4984 0.0718 -0.8640
vn -0.4291 0.0683 -0.9007
vn -0.4301 0.0072 -0.9028
vn -0.6499 0.3124 -0.6928
vn -0.2903 0.8147 -0.5020
vn -0.3002 0.5905 -0.7491
vn -0.3539 0.1854 -0.9167
vn -0.3713 0.1382 -0.9182
vn -0.2768 0.0078 -0.9609
vn -0.2309 0.0549 -0.9714
vn -0.3444 0.0073 -0.9388
vn -0.3135 0.0073 -0.9496
vn -0.3131 0.0077 -0.9497
vn 0.1578 0.9568 0.2442
vn 0.1553 0.9577 0.2422
vn 0.1143 0.9698 0.2155
vn 0.1005 0.9733 0.2063
vn -0.3749 0.0075 -0.9270
vn -0.3684 0.0074 -0.9297
vn -0.1969 0.9278 -0.3168
vn -0.1970 0.9260 -0.3222
vn -0.2241 0.8866 -0.4047
vn -0.1932 0.9114 -0.3634
vn -0.1563 0.9175 -0.3658
vn -0.1672 0.8843 -0.4359
vn -0.1876 0.8479 -0.4959
vn -0.1910 0.3745 -0.9073
vn -0.1875 0.3054 -0.9336
vn -0.2220 0.2637 -0.9387
vn -0.3094 0.1534 -0.9385
vn -0.3431 0.1602 -0.9255
vn -0.3476 0.0074 -0.9376
vn -0.3652 0.0073 -0.9309
vn 0.0799 0.9828 0.1666
vn 0.0658 0.9884 0.1372
vn 0.0661 0.9882 0.1384
vn -0.1945 0.9398 -0.2809
vn -0.1669 0.9538 -0.2498
vn -0.0930 0.9796 -0.1780
vn -0.0921 0.9702 -0.2242
vn -0.1295 0.9320 -0.3385
vn -0.1297 0.9278 -0.3499
vn -0.0949 0.9315 -0.3512
vn -0.0414 0.9343 -0.3540
vn -0.1015 0.4865 -0.8678
vn 0.0162 0.9999 -0.0000
vn 0.0162 0.9992 0.0378
vn 0.0281 0.9976 0.0628
vn 0.0497 0.9932 0.1057
vn 0.0281 0.9960 0.0846
vn -0.1762 0.9685 -0.1762
vn -0.0083 0.9999 -0.0081
vn 0.0041 0.9999 0.0149
vn 0.0041 0.9994 -0.0329
vn -0.0000 0.9991 -0.0416
vn -0.0000 0.9689 -0.2474
vn 0.0158 0.9997 -0.0210
vn 0.0062 0.9998 0.0207
vn 0.0096 0.9996 0.0275
vn 0.0067 0.9997 0.0241
s 0
f 1//1 2//1 8//1
f 1//1 8//1 3//1
f 1//2 3//2 4//2
f 1//3 4//3 5//3
f 1//4 5//4 6//4
f 1//5 6//5 12//5
f 1//5 12//5 19//5
f 1//5 19//5 32//5
f 1//5 32//5 34//5
f 1//5 34//5 48//5
f 1//5 48//5 56//5
f 1//5 56//5 58//5
f 1//5 58//5 67//5
f 1//5 67//5 69//5
f 1//5 69//5 59//5
f 1//5 59//5 50//5
f 1//5 50//5 37//5
f 1//5 37//5 27//5
f 1//6 27//6 14//6
f 1//5 14//5 7//5
f 1//5 7//5 2//5
f 2//7 7//7 13//7
f 2//7 13//7 24//7
f 2//7 24//7 35//7
f 2//7 35//7 49//7
f 2//7 49//7 43//7
f 2//7 43//7 30//7
f 2//7 30//7 15//7
f 2//7 15//7 8//7
f 3//8 8//8 15//8
f 3//8 15//8 29//8
f 3//9 29//9 42//9
f 3//8 42//8 55//8
f 3//10 55//10 64//10
f 3//8 64//8 63//8
f 3//11 63//11 70//11
f 3//8 70//8 65//8
f 3//12 65//12 57//12
f 3//8 57//8 47//8
f 3//8 47//8 46//8
f 3//8 46//8 45//8
f 3//8 45//8 33//8
f 3//8 33//8 21//8
f 3//8 21//8 20//8
f 3//8 20//8 16//8
f 3//8 16//8 9//8
f 3//13 9//13 10//13
f 3//14 10//14 4//14
f 4//15 10//15 11//15
f 4//16 11//16 5//16
f 5//17 11//17 6//17
f 6//18 11//18 12//18
f 7//19 14//19 13//19
f 9//20 16//20 17//20
f 9//21 17//21 10//21
f 10//22 17//22 11//22
f 11//23 18//23 19//23
f 11//24 19//24 12//24
f 11//25 17//25 16//25
f 11//26 16//26 20//26
f 11//27 20//27 21//27
f 11//28 21//28 22//28
f 11//29 22//29 23//29
f 11//30 23//30 18//30
f 13//31 14//31 25//31
f 13//32 25//32 26//32
f 13//33 26//33 24//33
f 14//34 27//34 28//34
f 14//35 28//35 25//35
f 15//36 30//36 31//36
f 15//37 31//37 29//37
f 18//38 23//38 32//38
f 18//39 32//39 19//39
f 21//40 33//40 23//40
f 21//41 23//41 22//41
f 23//42 33//42 34//42
f 23//43 34//43 32//43
f 24//44 26//44 35//44
f 25//45 28//45 26//45
f 26//46 28//46 36//46
f 26//47 36//47 35//47
f 27//48 37//48 28//48
f 28//49 37//49 38//49
f 28//50 38//50 39//50
f 28//51 39//51 40//51
f 28//52 40//52 36//52
f 29//53 31//53 41//53
f 29//54 41//54 42//54
f 30//55 43//55 44//55
f 30//56 44//56 31//56
f 31//57 44//57 41//57
f 33//58 45//58 34//58
f 34//59 45//59 46//59
f 34//60 46//60 47//60
f 34//61 47//61 48//61
f 35//62 36//62 40//62
f 35//63 40//63 49//63
f 37//64 50//64 51//64
f 37//65 51//65 52//65
f 37//66 52//66 38//66
f 38//67 52//67 51//67
f 38//68 51//68 53//68
f 38//69 53//69 54//69
f 38//70 54//70 39//70
f 39//71 54//71 55//71
f 39//72 55//72 42//72
f 39//73 42//73 41//73
f 39//74 41//74 44//74
f 39//75 44//75 40//75
f 40//76 44//76 43//76
f 40//77 43//77 49//77
f 47//78 56//78 48//78
f 47//79 57//79 58//79
f 47//80 58//80 56//80
f 50//81 59//81 51//81
f 51//82 59//82 60//82
f 51//83 60//83 61//83
f 51//84 61//84 62//84
f 51//85 62//85 53//85
f 53//86 62//86 54//86
f 54//87 62//87 63//87
f 54//88 63//88 64//88
f 54//89 64//89 55//89
f 57//90 65//90 66//90
f 57//91 66//91 67//91
f 57//92 67//92 68//92
f 57//93 68//93 58//93
f 58//94 68//94 67//94
f 59//95 69//95 60//95
f 60//96 69//96 61//96
f 61//97 69//97 66//97
f 61//98 66//98 70//98
f 61//99 70//99 62//99
f 62//100 70//100 63//100
f 65//101 70//101 66//101
f 66//102 69//102 71//102
f 66//103 71//103 67//103
f 67//104 71//104 69//104
