# Blender 4.4.3
# www.blender.org
o socket10mm_collision_geom_26
v -0.053015 0.010170 -0.037193
v -0.050330 0.009829 -0.037193
v -0.050616 0.009829 -0.032768
v -0.053015 0.010175 -0.036587
v -0.053015 0.022758 -0.037193
v -0.047100 0.009829 -0.037193
v -0.046040 0.009829 -0.032768
v -0.051473 0.010260 -0.032768
v -0.053015 0.010183 -0.036382
v -0.053015 0.022758 -0.035924
v -0.050535 0.022758 -0.037193
v -0.047058 0.009829 -0.037120
v -0.047100 0.019802 -0.037193
v -0.046040 0.009829 -0.033267
v -0.046040 0.019802 -0.032768
v -0.053015 0.010288 -0.036002
v -0.053015 0.010260 -0.036061
v -0.053015 0.010213 -0.036253
v -0.051555 0.010507 -0.032768
v -0.051557 0.022758 -0.032768
v -0.053015 0.010839 -0.035924
v -0.050421 0.022758 -0.037057
v -0.047185 0.020036 -0.037193
v -0.046955 0.009829 -0.036919
v -0.047058 0.019802 -0.037120
v -0.047065 0.019985 -0.037108
v -0.046053 0.009829 -0.033586
v -0.046040 0.019802 -0.033267
v -0.046062 0.019999 -0.032768
v -0.053015 0.010413 -0.035945
v -0.051557 0.010674 -0.032768
v -0.053015 0.010507 -0.035925
v -0.048902 0.022758 -0.032768
v -0.051557 0.010839 -0.032768
v -0.050309 0.022758 -0.036924
v -0.050115 0.022758 -0.036679
v -0.046948 0.009829 -0.036906
v -0.046955 0.019469 -0.036919
v -0.046955 0.019802 -0.036919
v -0.050011 0.022758 -0.036514
v -0.049995 0.022758 -0.036486
v -0.049842 0.022758 -0.036224
v -0.049670 0.022758 -0.035924
v -0.049668 0.022758 -0.035920
v -0.047017 0.020029 -0.036919
v -0.046707 0.020013 -0.036196
v -0.046812 0.019802 -0.036587
v -0.046054 0.009829 -0.033599
v -0.046054 0.019802 -0.033599
v -0.046068 0.019989 -0.033599
v -0.046062 0.019999 -0.033267
v -0.048902 0.022758 -0.032935
v -0.046811 0.009829 -0.036587
v -0.046811 0.019469 -0.036587
v -0.049491 0.022758 -0.035563
v -0.049417 0.022758 -0.035384
v -0.046406 0.019980 -0.035449
v -0.049365 0.022758 -0.035241
v -0.049249 0.022758 -0.034926
v -0.046748 0.019802 -0.036415
v -0.046075 0.009829 -0.033808
v -0.046075 0.019802 -0.033808
v -0.046077 0.019975 -0.033793
v -0.048942 0.022758 -0.033599
v -0.048907 0.022758 -0.033267
v -0.046683 0.009829 -0.036237
v -0.046688 0.019802 -0.036250
v -0.046380 0.020012 -0.035259
v -0.046273 0.019802 -0.034927
v -0.046345 0.019802 -0.035259
v -0.046401 0.019802 -0.035461
v -0.049134 0.022758 -0.034577
v -0.046155 0.009829 -0.034263
v -0.046155 0.019469 -0.034263
v -0.046344 0.020047 -0.034927
v -0.049003 0.022758 -0.033946
v -0.046401 0.009829 -0.035461
v -0.049133 0.022758 -0.034573
v -0.049130 0.022758 -0.034563
v -0.049079 0.022758 -0.034356
v -0.046273 0.009829 -0.034927
v -0.046345 0.009829 -0.035259
v -0.049061 0.022758 -0.034263
vn -0.1262 -0.9920 -0.0082
vn -0.1559 -0.9877 0.0083
vn -1.0000 0.0010 -0.0000
vn -1.0000 -0.0003 -0.0000
vn -1.0000 -0.0000 -0.0000
vn -1.0000 0.0003 -0.0000
vn -1.0000 -0.0001 -0.0000
vn -0.0000 -0.0000 -1.0000
vn -0.0000 -1.0000 -0.0000
vn -0.0000 -1.0000 0.0001
vn -0.0000 -0.0000 1.0000
vn -0.4399 -0.8740 0.2063
vn -0.1992 -0.9793 0.0362
vn -0.0000 1.0000 -0.0000
vn -0.0000 1.0000 -0.0003
vn -0.0000 1.0000 0.0004
vn -0.0000 1.0000 0.0005
vn 0.8631 -0.0000 -0.5050
vn 1.0000 -0.0000 -0.0000
vn -0.6721 -0.6703 0.3146
vn -0.4518 -0.8667 0.2115
vn -0.4412 -0.8732 0.2068
vn -0.8656 -0.2873 0.4101
vn -0.9078 -0.0000 0.4193
vn 0.5568 0.6851 -0.4697
vn 0.8902 -0.0000 -0.4556
vn 0.6200 0.2259 -0.7514
vn 0.8613 0.0654 -0.5039
vn 0.9992 -0.0000 -0.0406
vn 0.9943 0.1066 -0.0000
vn -0.8899 -0.1906 0.4145
vn -0.9076 -0.0075 0.4197
vn -0.9041 -0.0889 0.4180
vn -0.9078 -0.0011 0.4193
vn 0.5571 0.6853 -0.4690
vn 0.5658 0.6931 -0.4466
vn 0.5812 0.7028 -0.4102
vn 0.9040 -0.0000 -0.4274
vn 0.8896 0.0630 -0.4523
vn 0.8914 0.0018 -0.4532
vn 0.5946 0.7119 -0.3738
vn 0.6015 0.7154 -0.3556
vn 0.6036 0.7163 -0.3500
vn 0.6042 0.7165 -0.3486
vn 0.6167 0.7180 -0.3227
vn 0.6177 0.7176 -0.3216
vn 0.7759 0.5435 -0.3203
vn 0.9059 0.2209 -0.3613
vn 0.9095 0.1360 -0.3929
vn 0.9986 -0.0000 -0.0527
vn 0.9992 -0.0000 -0.0411
vn 0.9962 0.0763 -0.0410
vn 0.9940 0.1066 -0.0237
vn 0.6968 0.7173 -0.0000
vn -0.9077 -0.0038 0.4195
vn 0.9173 -0.0000 -0.3982
vn 0.9178 -0.0000 -0.3970
vn 0.9173 0.0019 -0.3982
vn 0.9180 0.0038 -0.3966
vn 0.6234 0.7184 -0.3085
vn 0.6451 0.7166 -0.2652
vn 0.6472 0.7162 -0.2612
vn 0.9091 0.2132 -0.3579
vn 0.6538 0.7170 -0.2419
vn 0.6543 0.7170 -0.2405
vn 0.6571 0.7165 -0.2339
vn 0.9378 0.0039 -0.3471
vn 0.9349 0.0789 -0.3460
vn 0.9952 -0.0000 -0.0978
vn 0.9949 0.0237 -0.0978
vn 0.9958 0.0762 -0.0510
vn 0.6915 0.7176 -0.0831
vn 0.6921 0.7182 -0.0726
vn 0.6957 0.7175 -0.0362
vn 0.6961 0.7179 -0.0114
vn 0.9396 -0.0000 -0.3423
vn 0.9390 0.0020 -0.3439
vn 0.9396 -0.0000 -0.3422
vn 0.9235 0.3376 -0.1821
vn 0.9680 0.1625 -0.1915
vn 0.9716 0.1047 -0.2122
vn 0.9629 0.0439 -0.2664
vn 0.9387 0.0484 -0.3414
vn 0.9374 0.0589 -0.3433
vn 0.6616 0.7179 -0.2166
vn 0.6638 0.7179 -0.2100
vn 0.9847 -0.0000 -0.1741
vn 0.9843 0.0298 -0.1740
vn 0.7962 0.5863 -0.1496
vn 0.6881 0.7163 -0.1160
vn 0.6866 0.7170 -0.1202
vn 0.9398 -0.0000 -0.3418
vn 0.9398 -0.0000 -0.3417
vn 0.6634 0.7187 -0.2083
vn 0.6727 0.7184 -0.1771
vn 0.6745 0.7185 -0.1694
vn 0.6798 0.7177 -0.1510
vn 0.9770 -0.0000 -0.2134
vn 0.9638 -0.0000 -0.2667
vn 0.6840 0.7176 -0.1310
vn 0.6852 0.7175 -0.1254
s 0
f 1//1 2//1 3//1
f 1//2 3//2 4//2
f 1//3 4//3 9//3
f 1//4 9//4 18//4
f 1//5 18//5 17//5
f 1//6 17//6 16//6
f 1//5 16//5 30//5
f 1//7 30//7 32//7
f 1//5 32//5 21//5
f 1//5 21//5 10//5
f 1//5 10//5 5//5
f 1//8 5//8 11//8
f 1//8 11//8 23//8
f 1//8 23//8 13//8
f 1//8 13//8 6//8
f 1//8 6//8 2//8
f 2//9 6//9 12//9
f 2//9 12//9 24//9
f 2//10 24//10 37//10
f 2//9 37//9 53//9
f 2//9 53//9 66//9
f 2//9 66//9 77//9
f 2//9 77//9 82//9
f 2//9 82//9 81//9
f 2//9 81//9 73//9
f 2//9 73//9 61//9
f 2//9 61//9 48//9
f 2//9 48//9 27//9
f 2//9 27//9 14//9
f 2//9 14//9 7//9
f 2//9 7//9 3//9
f 3//11 7//11 15//11
f 3//11 15//11 29//11
f 3//11 29//11 33//11
f 3//11 33//11 20//11
f 3//11 20//11 34//11
f 3//11 34//11 31//11
f 3//11 31//11 19//11
f 3//11 19//11 8//11
f 3//12 8//12 9//12
f 3//13 9//13 4//13
f 5//14 10//14 20//14
f 5//14 20//14 33//14
f 5//14 33//14 52//14
f 5//14 52//14 65//14
f 5//14 65//14 64//14
f 5//14 64//14 76//14
f 5//14 76//14 83//14
f 5//14 83//14 80//14
f 5//14 80//14 79//14
f 5//15 79//15 78//15
f 5//16 78//16 72//16
f 5//14 72//14 59//14
f 5//14 59//14 58//14
f 5//14 58//14 56//14
f 5//14 56//14 55//14
f 5//14 55//14 44//14
f 5//17 44//17 43//17
f 5//14 43//14 42//14
f 5//14 42//14 41//14
f 5//14 41//14 40//14
f 5//14 40//14 36//14
f 5//14 36//14 35//14
f 5//14 35//14 22//14
f 5//14 22//14 11//14
f 6//18 13//18 25//18
f 6//18 25//18 12//18
f 7//19 14//19 28//19
f 7//19 28//19 15//19
f 8//20 16//20 17//20
f 8//21 17//21 18//21
f 8//22 18//22 9//22
f 8//23 19//23 16//23
f 10//24 21//24 34//24
f 10//24 34//24 20//24
f 11//25 22//25 23//25
f 12//26 25//26 38//26
f 12//26 38//26 24//26
f 13//27 23//27 26//27
f 13//28 26//28 25//28
f 14//29 27//29 28//29
f 15//30 28//30 51//30
f 15//30 51//30 29//30
f 16//31 19//31 30//31
f 19//32 31//32 32//32
f 19//33 32//33 30//33
f 21//34 32//34 34//34
f 22//35 35//35 23//35
f 23//36 35//36 36//36
f 23//37 36//37 26//37
f 24//38 38//38 37//38
f 25//39 26//39 39//39
f 25//40 39//40 38//40
f 26//41 36//41 40//41
f 26//42 40//42 41//42
f 26//43 41//43 42//43
f 26//44 42//44 43//44
f 26//45 43//45 44//45
f 26//46 44//46 45//46
f 26//47 45//47 46//47
f 26//48 46//48 47//48
f 26//49 47//49 39//49
f 27//50 48//50 49//50
f 27//51 49//51 28//51
f 28//52 49//52 50//52
f 28//53 50//53 51//53
f 29//54 51//54 52//54
f 29//54 52//54 33//54
f 31//55 34//55 32//55
f 37//56 38//56 54//56
f 37//57 54//57 53//57
f 38//58 39//58 54//58
f 39//59 47//59 54//59
f 44//60 55//60 45//60
f 45//61 55//61 56//61
f 45//62 56//62 46//62
f 46//63 57//63 47//63
f 46//64 56//64 58//64
f 46//65 58//65 59//65
f 46//66 59//66 57//66
f 47//67 60//67 54//67
f 47//68 57//68 60//68
f 48//69 61//69 62//69
f 48//69 62//69 49//69
f 49//70 62//70 63//70
f 49//71 63//71 50//71
f 50//72 63//72 64//72
f 50//73 64//73 65//73
f 50//74 65//74 51//74
f 51//75 65//75 52//75
f 53//76 54//76 66//76
f 54//77 60//77 67//77
f 54//78 67//78 66//78
f 57//79 68//79 63//79
f 57//80 63//80 69//80
f 57//81 69//81 70//81
f 57//82 70//82 71//82
f 57//83 71//83 67//83
f 57//84 67//84 60//84
f 57//85 59//85 72//85
f 57//86 72//86 68//86
f 61//87 73//87 74//87
f 61//87 74//87 62//87
f 62//87 74//87 69//87
f 62//88 69//88 63//88
f 63//89 68//89 75//89
f 63//90 75//90 64//90
f 64//91 75//91 76//91
f 66//92 67//92 71//92
f 66//93 71//93 77//93
f 68//94 72//94 78//94
f 68//95 78//95 79//95
f 68//96 79//96 80//96
f 68//97 80//97 75//97
f 69//87 74//87 73//87
f 69//87 73//87 81//87
f 69//98 81//98 82//98
f 69//98 82//98 70//98
f 70//99 82//99 77//99
f 70//99 77//99 71//99
f 75//100 80//100 83//100
f 75//101 83//101 76//101
