# Blender 4.4.3
# www.blender.org
o socket9mm_collision_geom_5
v -0.077145 0.028563 -0.036882
v -0.077145 0.028582 -0.036882
v -0.079862 0.028582 -0.038008
v -0.077145 0.023752 -0.036882
v -0.077145 0.028886 -0.036903
v -0.078485 0.037227 -0.037939
v -0.079862 0.037566 -0.038448
v -0.079862 0.023752 -0.038008
v -0.077145 0.023752 -0.040249
v -0.077145 0.037572 -0.037514
v -0.078447 0.037572 -0.037950
v -0.079862 0.037696 -0.038481
v -0.079862 0.023752 -0.040828
v -0.077256 0.023752 -0.040299
v -0.077145 0.037918 -0.040088
v -0.077145 0.037761 -0.037554
v -0.079862 0.037814 -0.038542
v -0.079700 0.023752 -0.040828
v -0.079862 0.037572 -0.040670
v -0.077275 0.023752 -0.040307
v -0.077280 0.037918 -0.040144
v -0.077145 0.038135 -0.040051
v -0.077145 0.037780 -0.037565
v -0.079862 0.037881 -0.038661
v -0.079700 0.037572 -0.040670
v -0.079365 0.023752 -0.040818
v -0.079862 0.037734 -0.040666
v -0.077614 0.023752 -0.040432
v -0.078005 0.037918 -0.040409
v -0.078051 0.038133 -0.040392
v -0.077280 0.038160 -0.040079
v -0.077145 0.038226 -0.039844
v -0.077145 0.037867 -0.037774
v -0.079862 0.037940 -0.038803
v -0.079700 0.037918 -0.040661
v -0.079354 0.037572 -0.040660
v -0.079354 0.023752 -0.040818
v -0.079862 0.037918 -0.040661
v -0.077971 0.023752 -0.040561
v -0.078317 0.037918 -0.040493
v -0.078310 0.023752 -0.040653
v -0.078317 0.038167 -0.040426
v -0.078663 0.037918 -0.040554
v -0.077626 0.038185 -0.040139
v -0.077280 0.038255 -0.039840
v -0.077145 0.038272 -0.039495
v -0.077145 0.037982 -0.038111
v -0.079862 0.038003 -0.038987
v -0.079862 0.038044 -0.040588
v -0.079700 0.038187 -0.040506
v -0.079354 0.038187 -0.040499
v -0.079354 0.037918 -0.040650
v -0.079008 0.037918 -0.040610
v -0.079008 0.037572 -0.040619
v -0.078987 0.023752 -0.040773
v -0.078331 0.023752 -0.040657
v -0.078972 0.023752 -0.040770
v -0.078663 0.038182 -0.040455
v -0.078317 0.038262 -0.040186
v -0.077626 0.038278 -0.039840
v -0.079008 0.038280 -0.040186
v -0.079862 0.038276 -0.040186
v -0.077145 0.038225 -0.039149
v -0.077145 0.038060 -0.038433
v -0.079862 0.038226 -0.039840
v -0.079862 0.038187 -0.040506
v -0.078663 0.038278 -0.040186
v -0.079008 0.038187 -0.040480
v -0.079862 0.038229 -0.040356
v -0.079862 0.038253 -0.040024
v -0.077145 0.038144 -0.038794
v -0.077145 0.038076 -0.038499
vn -0.3828 0.0195 0.9236
vn -0.3830 -0.0000 0.9238
vn 1.0000 -0.0000 -0.0000
vn -0.3270 0.0647 0.9428
vn -0.3322 0.0636 0.9411
vn -0.3825 0.0452 0.9229
vn -1.0000 -0.0000 -0.0000
vn -0.0000 -1.0000 -0.0000
vn -0.3172 0.0666 0.9460
vn -0.3206 0.0659 0.9449
vn -0.3314 0.0670 0.9411
vn -0.3239 0.2301 0.9177
vn 0.4149 0.0103 -0.9098
vn -0.3117 0.1956 0.9298
vn -0.3165 0.2736 0.9083
vn -0.2997 0.4382 0.8475
vn -0.0000 0.0114 -0.9999
vn 0.4060 0.0105 -0.9138
vn 0.3809 0.1537 -0.9117
vn 0.3854 0.0108 -0.9227
vn -0.2883 0.4965 0.8188
vn -0.1621 0.8616 0.4810
vn 0.0277 0.0114 -0.9996
vn -0.0000 0.0262 -0.9997
vn 0.3464 0.0109 -0.9380
vn 0.3395 0.1454 -0.9293
vn 0.3462 0.1790 -0.9209
vn 0.3431 0.0110 -0.9392
vn 0.2629 0.6599 -0.7038
vn 0.2401 0.8890 -0.3900
vn -0.1190 0.9172 0.3801
vn -0.1216 0.9147 0.3855
vn 0.0006 0.0268 -0.9996
vn 0.0301 0.0268 -0.9992
vn 0.0301 0.0115 -0.9995
vn 0.0348 0.0114 -0.9993
vn -0.0000 0.0273 -0.9996
vn 0.3383 0.0109 -0.9410
vn 0.2581 0.1300 -0.9573
vn 0.2612 0.0110 -0.9652
vn 0.2603 0.0110 -0.9655
vn 0.1721 0.8507 -0.4967
vn 0.1689 0.2398 -0.9560
vn 0.1552 0.2737 -0.9492
vn 0.1350 0.9132 -0.3846
vn 0.1326 0.9203 -0.3680
vn 0.1841 0.9126 -0.3649
vn 0.2027 0.9710 -0.1266
vn -0.0962 0.9419 0.3218
vn -0.0961 0.9421 0.3213
vn 0.0007 0.5002 -0.8659
vn 0.0155 0.5001 -0.8658
vn 0.0283 0.4877 -0.8725
vn 0.0323 0.0290 -0.9991
vn -0.0000 0.4996 -0.8663
vn 0.1142 0.0288 -0.9930
vn 0.1175 0.0255 -0.9928
vn 0.1175 0.0114 -0.9930
vn 0.1212 0.0113 -0.9926
vn 0.1939 0.0112 -0.9810
vn 0.1745 0.0112 -0.9846
vn 0.1740 0.0112 -0.9847
vn 0.0729 0.9269 -0.3682
vn 0.1271 0.9218 -0.3662
vn 0.1526 0.2770 -0.9487
vn 0.1055 0.3846 -0.9170
vn 0.0947 0.4174 -0.9038
vn 0.1588 0.0254 -0.9870
vn 0.1727 0.0113 -0.9849
vn 0.1725 0.0113 -0.9850
vn 0.1270 0.9234 -0.3623
vn 0.0646 0.9827 -0.1737
vn 0.0655 0.9951 -0.0745
vn -0.0032 0.9998 0.0208
vn -0.0050 0.9997 0.0258
vn -0.0326 0.9904 0.1343
vn -0.0629 0.9697 0.2360
vn -0.0737 0.9648 0.2524
vn -0.0000 0.5008 -0.8656
vn -0.0000 0.9594 -0.2820
vn 0.0052 0.9563 -0.2923
vn 0.0079 0.9555 -0.2950
vn 0.0176 0.9491 -0.3145
vn 0.0487 0.4874 -0.8718
vn 0.0697 0.4665 -0.8818
vn 0.0359 0.9419 -0.3339
vn 0.0426 0.9417 -0.3338
vn 0.0448 0.9899 -0.1345
vn 0.0082 0.9997 -0.0247
vn -0.0033 0.9618 -0.2738
vn -0.0048 0.9638 -0.2667
vn -0.0345 0.9897 0.1392
vn -0.0365 0.9887 0.1453
vn -0.0562 0.9733 0.2228
vn -0.0597 0.9713 0.2302
vn -0.0570 0.9728 0.2247
s 0
f 1//1 2//1 3//1
f 1//2 3//2 8//2
f 1//2 8//2 4//2
f 1//3 4//3 9//3
f 1//3 9//3 15//3
f 1//3 15//3 22//3
f 1//3 22//3 32//3
f 1//3 32//3 46//3
f 1//3 46//3 63//3
f 1//3 63//3 71//3
f 1//3 71//3 72//3
f 1//3 72//3 64//3
f 1//3 64//3 47//3
f 1//3 47//3 33//3
f 1//3 33//3 23//3
f 1//3 23//3 16//3
f 1//3 16//3 10//3
f 1//3 10//3 5//3
f 1//3 5//3 2//3
f 2//4 5//4 6//4
f 2//5 6//5 7//5
f 2//6 7//6 3//6
f 3//7 7//7 12//7
f 3//7 12//7 17//7
f 3//7 17//7 24//7
f 3//7 24//7 34//7
f 3//7 34//7 48//7
f 3//7 48//7 65//7
f 3//7 65//7 70//7
f 3//7 70//7 62//7
f 3//7 62//7 69//7
f 3//7 69//7 66//7
f 3//7 66//7 49//7
f 3//7 49//7 38//7
f 3//7 38//7 27//7
f 3//7 27//7 19//7
f 3//7 19//7 13//7
f 3//7 13//7 8//7
f 4//8 8//8 13//8
f 4//8 13//8 18//8
f 4//8 18//8 26//8
f 4//8 26//8 37//8
f 4//8 37//8 55//8
f 4//8 55//8 57//8
f 4//8 57//8 56//8
f 4//8 56//8 41//8
f 4//8 41//8 39//8
f 4//8 39//8 28//8
f 4//8 28//8 20//8
f 4//8 20//8 14//8
f 4//8 14//8 9//8
f 5//9 10//9 11//9
f 5//10 11//10 6//10
f 6//11 11//11 7//11
f 7//12 11//12 12//12
f 9//13 14//13 15//13
f 10//14 16//14 11//14
f 11//15 16//15 12//15
f 12//16 16//16 17//16
f 13//17 19//17 25//17
f 13//17 25//17 18//17
f 14//18 20//18 15//18
f 15//19 21//19 22//19
f 15//20 20//20 21//20
f 16//21 23//21 17//21
f 17//22 23//22 24//22
f 18//23 25//23 26//23
f 19//24 27//24 25//24
f 20//25 28//25 21//25
f 21//26 29//26 30//26
f 21//27 30//27 22//27
f 21//28 28//28 29//28
f 22//29 30//29 31//29
f 22//30 31//30 32//30
f 23//31 33//31 34//31
f 23//32 34//32 24//32
f 25//33 27//33 35//33
f 25//34 35//34 36//34
f 25//35 36//35 26//35
f 26//36 36//36 37//36
f 27//37 38//37 35//37
f 28//38 39//38 29//38
f 29//39 40//39 30//39
f 29//40 39//40 41//40
f 29//41 41//41 40//41
f 30//42 42//42 31//42
f 30//43 40//43 43//43
f 30//44 43//44 42//44
f 31//45 42//45 44//45
f 31//46 44//46 45//46
f 31//47 45//47 32//47
f 32//48 45//48 46//48
f 33//49 47//49 34//49
f 34//50 47//50 48//50
f 35//51 49//51 50//51
f 35//52 50//52 51//52
f 35//53 51//53 52//53
f 35//54 52//54 36//54
f 35//55 38//55 49//55
f 36//56 52//56 53//56
f 36//57 53//57 54//57
f 36//58 54//58 37//58
f 37//59 54//59 55//59
f 40//60 41//60 56//60
f 40//61 56//61 57//61
f 40//62 57//62 43//62
f 42//63 58//63 59//63
f 42//64 59//64 44//64
f 42//65 43//65 53//65
f 42//66 53//66 52//66
f 42//67 52//67 58//67
f 43//68 54//68 53//68
f 43//69 57//69 55//69
f 43//70 55//70 54//70
f 44//71 59//71 45//71
f 45//72 59//72 60//72
f 45//73 60//73 46//73
f 46//74 60//74 61//74
f 46//75 61//75 62//75
f 46//76 62//76 63//76
f 47//77 64//77 65//77
f 47//78 65//78 48//78
f 49//79 66//79 50//79
f 50//80 66//80 61//80
f 50//81 61//81 51//81
f 51//82 61//82 67//82
f 51//83 67//83 68//83
f 51//84 68//84 52//84
f 52//85 68//85 58//85
f 58//86 68//86 67//86
f 58//87 67//87 59//87
f 59//88 67//88 60//88
f 60//89 67//89 61//89
f 61//90 66//90 69//90
f 61//91 69//91 62//91
f 62//92 70//92 63//92
f 63//93 70//93 65//93
f 63//94 65//94 71//94
f 64//95 72//95 65//95
f 65//96 72//96 71//96
