# Blender 4.4.3
# www.blender.org
o tool1_collision_geom_6
v -0.034920 -0.108150 0.030241
v -0.033787 -0.108150 0.030114
v -0.034920 -0.106970 0.029986
v -0.035476 -0.106970 0.029986
v -0.035476 -0.107547 0.030110
v -0.035476 -0.108150 0.030240
v -0.034920 -0.124653 0.030241
v -0.032653 -0.108150 0.029878
v -0.033787 -0.106970 0.029856
v -0.033787 -0.124653 0.030114
v -0.034920 -0.101101 0.027814
v -0.035476 -0.101101 0.027814
v -0.035476 -0.124653 0.030240
v -0.035476 -0.125230 0.030230
v -0.035476 -0.125833 0.030219
v -0.034920 -0.125833 0.030219
v -0.031520 -0.108150 0.029522
v -0.030861 -0.107446 0.029223
v -0.032653 -0.106970 0.029610
v -0.032653 -0.124653 0.029878
v -0.033787 -0.101101 0.027662
v -0.033787 -0.125833 0.030082
v -0.032653 -0.125833 0.029861
v -0.035476 -0.101101 0.023415
v -0.035476 -0.126280 0.029959
v -0.034920 -0.126745 0.029688
v -0.033787 -0.126745 0.029615
v -0.032653 -0.126733 0.029512
v -0.030815 -0.108150 0.029245
v -0.031520 -0.125833 0.029522
v -0.030602 -0.107181 0.028955
v -0.031252 -0.101101 0.026751
v -0.031264 -0.101101 0.026757
v -0.031818 -0.101101 0.027038
v -0.031839 -0.101101 0.027046
v -0.032653 -0.101101 0.027357
v -0.031632 -0.107021 0.029317
v -0.030602 -0.108150 0.029137
v -0.031520 -0.126618 0.029350
v -0.030861 -0.126486 0.029223
v -0.030602 -0.101101 0.023415
v -0.035476 -0.118118 0.023415
v -0.035476 -0.126745 0.029688
v -0.033787 -0.127071 0.028612
v -0.032653 -0.127056 0.028612
v -0.031520 -0.126944 0.028612
v -0.030815 -0.125833 0.029245
v -0.030602 -0.101101 0.026328
v -0.030602 -0.125833 0.029137
v -0.030602 -0.126751 0.028632
v -0.030602 -0.126629 0.028858
v -0.030602 -0.126209 0.029110
v -0.030602 -0.119200 0.023415
v -0.030602 -0.124653 0.023742
v -0.030602 -0.125838 0.023851
v -0.035476 -0.124653 0.024197
v -0.035476 -0.127071 0.028612
v -0.031520 -0.127071 0.027478
v -0.030602 -0.127066 0.027478
v -0.035476 -0.125688 0.024421
v -0.030602 -0.126649 0.024200
v -0.035476 -0.127043 0.027478
v -0.033787 -0.127061 0.027478
v -0.032653 -0.127071 0.027478
v -0.030602 -0.127061 0.026345
v -0.035476 -0.126278 0.024882
v -0.030602 -0.126949 0.025211
v -0.035476 -0.126827 0.026345
v -0.035476 -0.126532 0.025449
vn 0.1088 0.2097 0.9717
vn -0.0000 0.2110 0.9775
vn -0.0010 0.2105 0.9776
vn -0.0012 0.2103 0.9776
vn -0.0012 -0.0000 1.0000
vn 0.1113 -0.0000 0.9938
vn 0.1993 0.2093 0.9573
vn 0.1116 0.2123 0.9708
vn 0.2038 -0.0000 0.9790
vn 0.1072 0.3451 0.9324
vn -0.0000 0.3471 0.9378
vn -1.0000 -0.0000 -0.0000
vn -0.9999 0.0125 -0.0000
vn -0.0012 -0.0174 0.9998
vn -0.0008 -0.0177 0.9998
vn -0.0000 -0.0181 0.9998
vn 0.1113 -0.0180 0.9936
vn 0.2976 0.1229 0.9468
vn 0.2600 0.2139 0.9416
vn 0.2070 0.2167 0.9540
vn 0.2998 -0.0000 0.9540
vn 0.1244 0.3474 0.9294
vn 0.1992 0.3431 0.9179
vn 0.1199 -0.0264 0.9924
vn 0.1915 -0.0261 0.9811
vn 0.2038 -0.0139 0.9789
vn -0.0000 1.0000 -0.0001
vn -0.0000 1.0000 -0.0000
vn -0.0000 1.0000 0.0004
vn -0.0000 1.0000 0.0006
vn -0.0000 -0.5024 0.8647
vn 0.0008 -0.5031 0.8643
vn 0.0559 -0.5023 0.8629
vn 0.0849 -0.4750 0.8759
vn 0.1082 -0.4316 0.8955
vn 0.3645 0.0531 0.9297
vn 0.3650 -0.0000 0.9310
vn 0.4826 0.3436 0.8056
vn 0.4444 0.3488 0.8252
vn 0.4228 0.3515 0.8353
vn 0.3479 0.3517 0.8691
vn 0.3335 0.3515 0.8748
vn 0.2984 0.3459 0.8895
vn 0.2770 0.3020 0.9122
vn 0.4527 0.0576 0.8898
vn 0.6379 0.1420 0.7569
vn 0.2749 0.3446 0.8976
vn 0.2440 0.3475 0.9054
vn 0.2869 -0.0136 0.9579
vn 0.1677 -0.3686 0.9143
vn 0.1801 -0.3407 0.9228
vn 0.2340 -0.2702 0.9339
vn 0.2838 -0.1467 0.9476
vn -0.0000 -0.0000 -1.0000
vn -0.0000 -0.5038 0.8638
vn -0.0000 -0.9572 0.2893
vn 0.0128 -0.9533 0.3016
vn 0.0205 -0.9484 0.3164
vn 0.0412 -0.9405 0.3373
vn 0.0925 -0.9372 0.3362
vn 0.1483 -0.9050 0.3988
vn 0.4534 -0.0000 0.8913
vn 0.3644 -0.0572 0.9295
vn 1.0000 -0.0000 -0.0000
vn 0.5123 0.3406 0.7884
vn 0.1804 -0.9001 0.3967
vn 0.2378 -0.8546 0.4617
vn 0.2622 -0.8213 0.5066
vn 0.6788 -0.3781 0.6295
vn 0.4547 -0.0631 0.8884
vn 0.4525 -0.0621 0.8896
vn -0.0133 -0.0598 -0.9981
vn -0.0559 -0.0914 -0.9942
vn -0.0989 -0.1182 -0.9881
vn -0.0000 -1.0000 -0.0000
vn 0.0055 -0.9999 0.0110
vn 0.0134 -0.9994 0.0333
vn 0.0966 -0.9783 0.1835
vn 0.1932 -0.9465 0.2584
vn -0.1199 -0.2099 -0.9703
vn -0.1187 -0.3923 -0.9121
vn -0.0105 -0.9996 -0.0246
vn -0.0090 -0.9997 -0.0223
vn 0.0055 -1.0000 -0.0045
vn -0.0000 -1.0000 -0.0089
vn -0.1553 -0.6084 -0.7783
vn -0.0898 -0.9549 -0.2832
vn -0.1024 -0.9449 -0.3109
vn -0.1257 -0.9053 -0.4057
vn -0.0105 -0.9995 -0.0296
vn -0.0680 -0.9800 -0.1870
vn -0.0264 -0.9948 -0.0981
vn -0.0090 -0.9996 -0.0252
s 0
f 1//1 2//1 3//1
f 1//2 3//2 4//2
f 1//3 4//3 5//3
f 1//4 5//4 6//4
f 1//5 6//5 13//5
f 1//5 13//5 7//5
f 1//6 7//6 10//6
f 1//6 10//6 2//6
f 2//7 8//7 9//7
f 2//8 9//8 3//8
f 2//9 10//9 20//9
f 2//9 20//9 8//9
f 3//10 9//10 11//10
f 3//11 11//11 12//11
f 3//11 12//11 4//11
f 4//12 12//12 24//12
f 4//12 24//12 42//12
f 4//12 42//12 56//12
f 4//12 56//12 60//12
f 4//12 60//12 66//12
f 4//12 66//12 69//12
f 4//12 69//12 68//12
f 4//12 68//12 62//12
f 4//12 62//12 57//12
f 4//12 57//12 43//12
f 4//12 43//12 25//12
f 4//12 25//12 15//12
f 4//12 15//12 14//12
f 4//12 14//12 13//12
f 4//12 13//12 6//12
f 4//13 6//13 5//13
f 7//14 13//14 14//14
f 7//15 14//15 15//15
f 7//16 15//16 16//16
f 7//17 16//17 10//17
f 8//18 17//18 18//18
f 8//19 18//19 19//19
f 8//20 19//20 9//20
f 8//21 20//21 30//21
f 8//21 30//21 17//21
f 9//22 21//22 11//22
f 9//23 19//23 21//23
f 10//24 16//24 22//24
f 10//25 22//25 23//25
f 10//26 23//26 20//26
f 11//27 21//27 36//27
f 11//28 36//28 35//28
f 11//29 35//29 34//29
f 11//28 34//28 33//28
f 11//30 33//30 32//30
f 11//28 32//28 48//28
f 11//28 48//28 41//28
f 11//28 41//28 24//28
f 11//28 24//28 12//28
f 15//31 25//31 16//31
f 16//32 25//32 26//32
f 16//33 26//33 27//33
f 16//34 27//34 28//34
f 16//35 28//35 22//35
f 17//36 29//36 18//36
f 17//37 30//37 47//37
f 17//37 47//37 29//37
f 18//38 31//38 32//38
f 18//39 32//39 33//39
f 18//40 33//40 34//40
f 18//41 34//41 35//41
f 18//42 35//42 36//42
f 18//43 36//43 37//43
f 18//44 37//44 19//44
f 18//45 29//45 38//45
f 18//46 38//46 31//46
f 19//47 37//47 36//47
f 19//48 36//48 21//48
f 20//49 23//49 30//49
f 22//50 28//50 39//50
f 22//51 39//51 23//51
f 23//52 39//52 40//52
f 23//53 40//53 30//53
f 24//54 41//54 53//54
f 24//54 53//54 42//54
f 25//55 43//55 26//55
f 26//56 43//56 57//56
f 26//56 57//56 44//56
f 26//57 44//57 45//57
f 26//58 45//58 27//58
f 27//59 45//59 28//59
f 28//60 45//60 46//60
f 28//61 46//61 39//61
f 29//62 47//62 49//62
f 29//62 49//62 38//62
f 30//63 40//63 47//63
f 31//64 38//64 49//64
f 31//64 49//64 52//64
f 31//64 52//64 51//64
f 31//64 51//64 50//64
f 31//64 50//64 59//64
f 31//64 59//64 65//64
f 31//64 65//64 67//64
f 31//64 67//64 61//64
f 31//64 61//64 55//64
f 31//64 55//64 54//64
f 31//64 54//64 53//64
f 31//64 53//64 41//64
f 31//64 41//64 48//64
f 31//65 48//65 32//65
f 39//66 46//66 50//66
f 39//67 50//67 51//67
f 39//68 51//68 40//68
f 40//69 51//69 52//69
f 40//70 52//70 49//70
f 40//71 49//71 47//71
f 42//72 53//72 54//72
f 42//73 54//73 55//73
f 42//74 55//74 56//74
f 44//75 57//75 64//75
f 44//75 64//75 58//75
f 44//76 58//76 59//76
f 44//77 59//77 45//77
f 45//78 59//78 46//78
f 46//79 59//79 50//79
f 55//80 60//80 56//80
f 55//81 61//81 60//81
f 57//82 62//82 63//82
f 57//83 63//83 64//83
f 58//84 65//84 59//84
f 58//85 64//85 65//85
f 60//86 61//86 66//86
f 61//87 67//87 68//87
f 61//88 68//88 69//88
f 61//89 69//89 66//89
f 62//90 65//90 63//90
f 62//91 68//91 67//91
f 62//92 67//92 65//92
f 63//93 65//93 64//93
