# Blender 4.4.3
# www.blender.org
o tool1_collision_geom_1
v -0.035476 -0.127071 0.009341
v -0.033787 -0.127071 0.009341
v -0.026986 -0.127071 0.015239
v -0.035476 -0.127056 0.009919
v -0.035476 -0.126745 0.008264
v -0.032653 -0.127056 0.009341
v -0.030386 -0.127066 0.010474
v -0.031519 -0.127071 0.010474
v -0.034921 -0.126745 0.008264
v -0.026986 -0.127071 0.015008
v -0.026755 -0.127066 0.015239
v -0.027889 -0.127035 0.015239
v -0.035476 -0.127040 0.010474
v -0.035476 -0.125833 0.007732
v -0.031519 -0.126944 0.009341
v -0.033787 -0.126745 0.008337
v -0.032653 -0.126733 0.008440
v -0.029253 -0.127071 0.011607
v -0.029154 -0.126806 0.010375
v -0.028119 -0.126941 0.011607
v -0.034921 -0.125833 0.007732
v -0.028119 -0.127071 0.012740
v -0.026986 -0.127066 0.013875
v -0.025852 -0.126967 0.015239
v -0.028119 -0.127010 0.015239
v -0.035476 -0.126827 0.011607
v -0.035476 -0.125253 0.007722
v -0.034921 -0.124653 0.007711
v -0.031519 -0.126618 0.008602
v -0.030443 -0.126717 0.009316
v -0.033787 -0.125833 0.007869
v -0.029466 -0.126631 0.009677
v -0.028119 -0.126616 0.010749
v -0.027260 -0.126616 0.011607
v -0.026887 -0.126806 0.012642
v -0.033787 -0.124653 0.007838
v -0.025852 -0.126944 0.015008
v -0.025668 -0.126901 0.015239
v -0.029023 -0.126847 0.015239
v -0.035476 -0.126677 0.012064
v -0.035476 -0.124653 0.007712
v -0.034921 -0.108150 0.007711
v -0.030859 -0.126486 0.008729
v -0.032653 -0.125833 0.008090
v -0.029289 -0.125833 0.009562
v -0.028722 -0.125833 0.009938
v -0.027517 -0.126466 0.011006
v -0.026189 -0.126631 0.012954
v -0.025827 -0.126717 0.013932
v -0.032653 -0.124653 0.008073
v -0.033787 -0.108150 0.007838
v -0.025113 -0.126618 0.015008
v -0.025081 -0.126641 0.015239
v -0.029272 -0.126781 0.015239
v -0.035476 -0.126278 0.013070
v -0.035476 -0.126532 0.012503
v -0.035476 -0.108150 0.007712
v -0.035476 -0.107573 0.007835
v -0.035476 -0.106970 0.007965
v -0.034921 -0.106970 0.007965
v -0.031519 -0.125833 0.008429
v -0.030813 -0.125833 0.008706
v -0.030246 -0.125833 0.008995
v -0.028722 -0.124653 0.009933
v -0.029289 -0.108150 0.009562
v -0.028119 -0.125833 0.010452
v -0.027499 -0.125833 0.010988
v -0.026963 -0.125833 0.011607
v -0.026449 -0.125833 0.012211
v -0.026075 -0.125833 0.012777
v -0.025241 -0.126486 0.014348
v -0.032653 -0.108150 0.008073
v -0.033787 -0.106970 0.008096
v -0.024872 -0.125833 0.015239
v -0.029933 -0.126522 0.015239
v -0.035476 -0.125978 0.013305
v -0.035476 -0.101101 0.010138
v -0.034921 -0.101101 0.010138
v -0.034895 -0.101101 0.010141
v -0.031519 -0.108150 0.008429
v -0.030813 -0.108150 0.008706
v -0.030246 -0.108150 0.008995
v -0.028119 -0.124653 0.010447
v -0.028722 -0.108150 0.009933
v -0.030859 -0.107446 0.008729
v -0.029523 -0.106970 0.009714
v -0.026959 -0.124653 0.011607
v -0.027499 -0.108150 0.010988
v -0.026446 -0.124653 0.012211
v -0.025508 -0.125833 0.013735
v -0.026075 -0.108150 0.012777
v -0.025218 -0.125833 0.014302
v -0.024941 -0.125833 0.015008
v -0.032653 -0.106970 0.008342
v -0.033787 -0.101101 0.010289
v -0.024868 -0.124653 0.015239
v -0.035476 -0.125688 0.013531
v -0.035476 -0.118034 0.015239
v -0.035476 -0.101101 0.015239
v -0.028119 -0.108150 0.010447
v -0.028956 -0.106970 0.010101
v -0.027517 -0.107484 0.011006
v -0.031631 -0.107021 0.008635
v -0.032653 -0.101101 0.010594
v -0.031818 -0.101101 0.010914
v -0.031805 -0.101101 0.010920
v -0.031251 -0.101101 0.011202
v -0.031233 -0.101101 0.011213
v -0.030386 -0.101101 0.011763
v -0.030371 -0.101101 0.011773
v -0.026959 -0.108150 0.011607
v -0.026446 -0.108150 0.012211
v -0.025508 -0.108150 0.013735
v -0.026226 -0.106970 0.013011
v -0.025241 -0.107446 0.014348
v -0.025218 -0.108150 0.014302
v -0.024941 -0.108150 0.015008
v -0.033762 -0.101101 0.010295
v -0.024868 -0.108150 0.015239
v -0.027459 -0.101101 0.015239
v -0.029815 -0.101101 0.012169
v -0.029801 -0.101101 0.012182
v -0.029248 -0.101101 0.012735
v -0.028681 -0.101101 0.013301
v -0.026613 -0.106970 0.012444
v -0.028275 -0.101101 0.013875
v -0.028263 -0.101101 0.013892
v -0.027713 -0.101101 0.014739
v -0.025147 -0.107021 0.015119
v -0.025113 -0.107014 0.015239
v -0.025081 -0.107153 0.015239
vn -0.0000 -1.0000 -0.0000
vn -0.0183 -0.9995 0.0264
vn -0.9999 -0.0108 -0.0000
vn -1.0000 -0.0000 -0.0000
vn -0.0000 -0.9573 -0.2891
vn 0.0134 -0.9993 -0.0359
vn 0.0045 -1.0000 -0.0090
vn 0.0128 -0.9534 -0.3014
vn 0.0219 -0.9998 -0.0000
vn -0.0000 -0.0000 1.0000
vn -0.0393 -0.9972 0.0637
vn -0.0190 -0.9994 0.0274
vn -0.0000 -0.5031 -0.8642
vn 0.0962 -0.9749 -0.2010
vn 0.0203 -0.9486 -0.3158
vn 0.0414 -0.9405 -0.3372
vn 0.0925 -0.9373 -0.3360
vn 0.0045 -1.0000 -0.0089
vn 0.1764 -0.9443 -0.2780
vn 0.1795 -0.9502 -0.2547
vn 0.1128 -0.9867 -0.1172
vn 0.0555 -0.5024 -0.8629
vn 0.0089 -0.9999 -0.0045
vn 0.0263 -0.9996 -0.0045
vn 0.1092 -0.9938 -0.0185
vn -0.1079 -0.9790 0.1730
vn -0.1151 -0.9762 0.1840
vn -0.0007 -0.0178 -0.9998
vn -0.0000 -0.0181 -0.9998
vn 0.1480 -0.9052 -0.3984
vn 0.1801 -0.9003 -0.3963
vn 0.1889 -0.9324 -0.3082
vn 0.0856 -0.4739 -0.8764
vn 0.1076 -0.4331 -0.8949
vn 0.1674 -0.3698 -0.9139
vn 0.1128 -0.9872 -0.1129
vn 0.2009 -0.9251 -0.3222
vn 0.2913 -0.8890 -0.3534
vn 0.2874 -0.8956 -0.3395
vn 0.1174 -0.9867 -0.1128
vn 0.3340 -0.8814 -0.3340
vn 0.3394 -0.8956 -0.2876
vn 0.2544 -0.9503 -0.1793
vn 0.1111 -0.0180 -0.9937
vn 0.1193 -0.0260 -0.9925
vn 0.2777 -0.9444 -0.1762
vn 0.2016 -0.9747 -0.0966
vn 0.3369 -0.9369 -0.0930
vn -0.1693 -0.9402 0.2957
vn -0.1757 -0.9353 0.3071
vn -0.0013 -0.0172 -0.9999
vn -0.0013 -0.0000 -1.0000
vn 0.1111 -0.0000 -0.9938
vn 0.2623 -0.8189 -0.5105
vn 0.2595 -0.8231 -0.5051
vn 0.1805 -0.3402 -0.9228
vn 0.2338 -0.2706 -0.9339
vn 0.1919 -0.0257 -0.9811
vn 0.5302 -0.2346 -0.8148
vn 0.5370 -0.2354 -0.8101
vn 0.5585 -0.2632 -0.7866
vn 0.4033 -0.7690 -0.4960
vn 0.3703 -0.8518 -0.3705
vn 0.3539 -0.8886 -0.2917
vn 0.4961 -0.7688 -0.4034
vn 0.3225 -0.9250 -0.2009
vn 0.3084 -0.9323 -0.1889
vn 0.2036 -0.0141 -0.9790
vn 0.2036 -0.0000 -0.9791
vn 0.3962 -0.9003 -0.1801
vn 0.3984 -0.9052 -0.1480
vn 0.3993 -0.9052 -0.1454
vn -0.2285 -0.8616 0.4533
vn -0.2130 -0.8915 0.3999
vn -0.1764 -0.9348 0.3084
vn -0.0013 0.2098 -0.9777
vn -0.0006 0.2105 -0.9776
vn -0.0000 0.2107 -0.9776
vn 0.1086 0.2095 -0.9718
vn 0.2833 -0.1480 -0.9475
vn 0.3647 -0.0575 -0.9293
vn 0.4531 -0.0625 -0.8893
vn 0.5057 -0.1266 -0.8534
vn 0.2864 -0.0138 -0.9580
vn 0.5525 -0.0031 -0.8335
vn 0.5098 -0.0000 -0.8603
vn 0.5480 -0.0000 -0.8365
vn 0.6474 -0.0498 -0.7605
vn 0.6482 -0.0029 -0.7614
vn 0.6483 -0.0029 -0.7614
vn 0.6539 -0.0393 -0.7556
vn 0.7555 -0.0393 -0.6540
vn 0.7604 -0.0496 -0.6476
vn 0.7866 -0.2634 -0.5585
vn 0.8107 -0.2348 -0.5363
vn 0.8151 -0.2341 -0.5299
vn 0.5118 -0.8178 -0.2631
vn 0.5047 -0.8234 -0.2592
vn 0.2995 -0.0000 -0.9541
vn 0.1117 0.2123 -0.9708
vn 0.1991 0.2093 -0.9574
vn 0.9476 -0.2236 -0.2283
vn 0.9561 -0.2468 -0.1579
vn -0.2811 -0.7171 0.6378
vn -0.3178 -0.5849 0.7463
vn -0.0000 0.3471 -0.9378
vn 0.1060 0.3453 -0.9325
vn 0.1073 0.3451 -0.9324
vn 0.3653 -0.0000 -0.9309
vn 0.4540 -0.0000 -0.8910
vn 0.6483 -0.0000 -0.7614
vn 0.5063 0.1176 -0.8543
vn 0.5304 0.2107 -0.8211
vn 0.5356 0.2113 -0.8176
vn 0.6544 -0.0028 -0.7561
vn 0.7561 -0.0027 -0.6544
vn 0.6575 -0.0000 -0.7535
vn 0.7536 -0.0000 -0.6573
vn 0.7613 -0.0027 -0.6484
vn 0.7620 -0.0020 -0.6476
vn 0.8340 -0.0022 -0.5517
vn 0.8538 -0.1254 -0.5053
vn 0.8362 -0.0000 -0.5485
vn 0.8606 -0.0000 -0.5093
vn 0.8886 -0.0634 -0.4543
vn 0.9292 -0.0584 -0.3649
vn 0.9476 -0.1511 -0.2815
vn 0.2071 0.2170 -0.9540
vn 0.2599 0.2141 -0.9416
vn 0.2972 0.1240 -0.9467
vn 0.1243 0.3473 -0.9295
vn 0.1993 0.3430 -0.9180
vn 0.9586 -0.0034 -0.2848
vn -0.3180 -0.5834 0.7473
vn -0.3163 -0.2065 0.9259
vn -0.0000 1.0000 -0.0000
vn -0.0000 1.0000 -0.0002
vn -0.0000 1.0000 0.0003
vn -0.0000 1.0000 -0.0001
vn -0.0000 1.0000 0.0039
vn -0.0000 1.0000 -0.0017
vn -0.0000 1.0000 0.0032
vn -0.0000 1.0000 0.0001
vn -0.0000 1.0000 -0.0006
vn -0.0000 1.0000 0.0014
vn 0.3648 0.0534 -0.9296
vn 0.4532 0.0580 -0.8895
vn 0.5495 0.2230 -0.8052
vn 0.5750 0.2254 -0.7865
vn 0.6473 0.0523 -0.7604
vn 0.2769 0.3021 -0.9122
vn 0.2982 0.3459 -0.8896
vn 0.3349 0.3517 -0.8742
vn 0.4006 0.3519 -0.8460
vn 0.4238 0.3515 -0.8348
vn 0.4744 0.3450 -0.8099
vn 0.4973 0.3479 -0.7948
vn 0.5105 0.3494 -0.7857
vn 0.5157 0.3490 -0.7825
vn 0.5284 0.3480 -0.7744
vn 0.7620 -0.0000 -0.6476
vn 0.6570 0.0374 -0.7530
vn 0.7531 0.0374 -0.6569
vn 0.8904 -0.0000 -0.4552
vn 0.8173 0.2112 -0.5361
vn 0.8213 0.2106 -0.5302
vn 0.8547 0.1165 -0.5058
vn 0.9308 -0.0000 -0.3655
vn 0.9538 -0.0000 -0.3006
vn 0.2411 0.3472 -0.9062
vn 0.2442 0.3475 -0.9053
vn 0.2748 0.3445 -0.8977
vn 0.5438 0.3486 -0.7634
vn 0.5847 0.3444 -0.7345
vn 0.6362 0.3540 -0.6855
vn 0.6598 0.3579 -0.6607
vn 0.6601 0.3579 -0.6604
vn 0.7349 0.3442 -0.5844
vn 0.7868 0.2253 -0.5746
vn 0.7609 0.0531 -0.6467
vn 0.8048 0.2230 -0.5500
vn 0.8888 0.0588 -0.4544
vn 0.7740 0.3480 -0.5290
vn 0.7774 0.3484 -0.5238
vn 0.7858 0.3493 -0.5103
vn 0.8100 0.3448 -0.4742
vn 0.9086 0.3094 -0.2806
vn 0.9457 0.2177 -0.2414
vn 0.9500 0.2029 -0.2373
vn 0.9464 0.1240 -0.2983
vn 0.9294 0.0542 -0.3650
vn 0.8343 0.3513 -0.4248
vn 0.8862 0.3520 -0.3013
vn 0.8927 0.3541 -0.2789
vn 0.7649 0.3485 -0.5417
s 0
f 1//1 2//1 8//1
f 1//1 8//1 18//1
f 1//1 18//1 22//1
f 1//1 22//1 10//1
f 1//1 10//1 3//1
f 1//2 3//2 4//2
f 1//3 4//3 13//3
f 1//4 13//4 26//4
f 1//4 26//4 40//4
f 1//4 40//4 56//4
f 1//4 56//4 55//4
f 1//4 55//4 76//4
f 1//4 76//4 97//4
f 1//4 97//4 98//4
f 1//4 98//4 99//4
f 1//4 99//4 77//4
f 1//4 77//4 59//4
f 1//4 59//4 58//4
f 1//4 58//4 57//4
f 1//4 57//4 41//4
f 1//4 41//4 27//4
f 1//4 27//4 14//4
f 1//4 14//4 5//4
f 1//5 5//5 9//5
f 1//5 9//5 2//5
f 2//6 6//6 7//6
f 2//7 7//7 8//7
f 2//8 9//8 6//8
f 3//9 10//9 11//9
f 3//10 11//10 24//10
f 3//10 24//10 38//10
f 3//10 38//10 53//10
f 3//10 53//10 74//10
f 3//10 74//10 96//10
f 3//10 96//10 119//10
f 3//10 119//10 131//10
f 3//10 131//10 130//10
f 3//10 130//10 120//10
f 3//10 120//10 99//10
f 3//10 99//10 98//10
f 3//10 98//10 75//10
f 3//10 75//10 54//10
f 3//10 54//10 39//10
f 3//10 39//10 25//10
f 3//10 25//10 12//10
f 3//11 12//11 13//11
f 3//12 13//12 4//12
f 5//13 14//13 21//13
f 5//13 21//13 9//13
f 6//14 15//14 7//14
f 6//15 9//15 16//15
f 6//16 16//16 17//16
f 6//17 17//17 15//17
f 7//18 18//18 8//18
f 7//19 15//19 19//19
f 7//20 19//20 20//20
f 7//21 20//21 18//21
f 9//22 21//22 16//22
f 10//23 22//23 23//23
f 10//24 23//24 11//24
f 11//25 23//25 24//25
f 12//26 25//26 13//26
f 13//27 25//27 26//27
f 14//28 27//28 28//28
f 14//29 28//29 21//29
f 15//30 17//30 29//30
f 15//31 29//31 30//31
f 15//32 30//32 19//32
f 16//33 21//33 17//33
f 17//34 21//34 31//34
f 17//35 31//35 29//35
f 18//36 20//36 22//36
f 19//37 30//37 32//37
f 19//38 32//38 33//38
f 19//39 33//39 20//39
f 20//40 23//40 22//40
f 20//41 33//41 34//41
f 20//42 34//42 35//42
f 20//43 35//43 23//43
f 21//44 28//44 36//44
f 21//45 36//45 31//45
f 23//46 35//46 37//46
f 23//47 37//47 24//47
f 24//48 37//48 38//48
f 25//49 39//49 26//49
f 26//50 39//50 40//50
f 27//51 41//51 28//51
f 28//52 41//52 57//52
f 28//52 57//52 42//52
f 28//53 42//53 51//53
f 28//53 51//53 36//53
f 29//54 43//54 32//54
f 29//55 32//55 30//55
f 29//56 31//56 44//56
f 29//57 44//57 43//57
f 31//58 36//58 44//58
f 32//59 43//59 45//59
f 32//60 45//60 46//60
f 32//61 46//61 47//61
f 32//62 47//62 33//62
f 33//63 47//63 34//63
f 34//64 48//64 35//64
f 34//65 47//65 48//65
f 35//66 48//66 49//66
f 35//67 49//67 37//67
f 36//68 50//68 44//68
f 36//69 51//69 72//69
f 36//69 72//69 50//69
f 37//70 49//70 52//70
f 37//71 52//71 38//71
f 38//72 52//72 53//72
f 39//73 54//73 55//73
f 39//74 55//74 56//74
f 39//75 56//75 40//75
f 42//76 57//76 58//76
f 42//77 58//77 59//77
f 42//78 59//78 60//78
f 42//79 60//79 51//79
f 43//80 44//80 61//80
f 43//81 61//81 62//81
f 43//82 62//82 63//82
f 43//83 63//83 45//83
f 44//84 50//84 61//84
f 45//85 64//85 46//85
f 45//86 63//86 82//86
f 45//86 82//86 65//86
f 45//87 65//87 84//87
f 45//87 84//87 64//87
f 46//88 66//88 47//88
f 46//89 64//89 83//89
f 46//90 83//90 66//90
f 47//91 66//91 67//91
f 47//92 67//92 68//92
f 47//93 68//93 69//93
f 47//94 69//94 48//94
f 48//95 69//95 70//95
f 48//96 70//96 71//96
f 48//97 71//97 52//97
f 48//98 52//98 49//98
f 50//99 72//99 80//99
f 50//99 80//99 61//99
f 51//100 60//100 73//100
f 51//101 73//101 72//101
f 52//102 71//102 74//102
f 52//103 74//103 53//103
f 54//104 75//104 55//104
f 55//105 75//105 76//105
f 59//106 77//106 78//106
f 59//106 78//106 60//106
f 60//107 78//107 79//107
f 60//108 79//108 73//108
f 61//109 80//109 81//109
f 61//109 81//109 62//109
f 62//110 81//110 82//110
f 62//110 82//110 63//110
f 64//111 84//111 100//111
f 64//111 100//111 83//111
f 65//112 82//112 85//112
f 65//113 85//113 86//113
f 65//114 86//114 84//114
f 66//115 83//115 67//115
f 67//116 87//116 68//116
f 67//117 83//117 100//117
f 67//117 100//117 88//117
f 67//118 88//118 111//118
f 67//118 111//118 87//118
f 68//119 87//119 69//119
f 69//120 87//120 89//120
f 69//121 89//121 70//121
f 70//122 90//122 71//122
f 70//123 89//123 112//123
f 70//123 112//123 91//123
f 70//124 91//124 113//124
f 70//124 113//124 90//124
f 71//125 90//125 92//125
f 71//126 92//126 93//126
f 71//127 93//127 74//127
f 72//128 73//128 94//128
f 72//129 94//129 85//129
f 72//130 85//130 80//130
f 73//131 79//131 95//131
f 73//132 95//132 94//132
f 74//133 93//133 96//133
f 75//134 97//134 76//134
f 75//135 98//135 97//135
f 77//136 99//136 120//136
f 77//136 120//136 128//136
f 77//136 128//136 127//136
f 77//137 127//137 126//137
f 77//136 126//136 124//136
f 77//136 124//136 123//136
f 77//136 123//136 122//136
f 77//138 122//138 121//138
f 77//139 121//139 110//139
f 77//140 110//140 109//140
f 77//136 109//136 108//136
f 77//141 108//141 107//141
f 77//136 107//136 106//136
f 77//142 106//142 105//142
f 77//139 105//139 104//139
f 77//143 104//143 118//143
f 77//144 118//144 95//144
f 77//137 95//137 79//137
f 77//145 79//145 78//145
f 80//146 85//146 81//146
f 81//147 85//147 82//147
f 84//148 86//148 101//148
f 84//149 101//149 102//149
f 84//150 102//150 100//150
f 85//151 94//151 103//151
f 85//152 103//152 104//152
f 85//153 104//153 105//153
f 85//154 105//154 106//154
f 85//155 106//155 107//155
f 85//156 107//156 86//156
f 86//157 107//157 108//157
f 86//158 108//158 109//158
f 86//159 109//159 110//159
f 86//160 110//160 101//160
f 87//161 111//161 112//161
f 87//161 112//161 89//161
f 88//162 100//162 102//162
f 88//163 102//163 111//163
f 90//164 113//164 116//164
f 90//164 116//164 92//164
f 91//165 112//165 114//165
f 91//166 114//166 115//166
f 91//167 115//167 113//167
f 92//168 116//168 117//168
f 92//168 117//168 93//168
f 93//169 117//169 119//169
f 93//169 119//169 96//169
f 94//170 95//170 118//170
f 94//171 118//171 104//171
f 94//172 104//172 103//172
f 101//173 110//173 121//173
f 101//174 121//174 102//174
f 102//175 121//175 122//175
f 102//176 122//176 123//176
f 102//177 123//177 124//177
f 102//178 124//178 125//178
f 102//179 125//179 112//179
f 102//180 112//180 111//180
f 112//181 125//181 114//181
f 113//182 115//182 116//182
f 114//183 125//183 126//183
f 114//184 126//184 127//184
f 114//185 127//185 128//185
f 114//186 128//186 115//186
f 115//187 129//187 130//187
f 115//188 130//188 131//188
f 115//189 131//189 119//189
f 115//190 119//190 117//190
f 115//191 117//191 116//191
f 115//192 128//192 120//192
f 115//193 120//193 129//193
f 120//194 130//194 129//194
f 124//195 126//195 125//195
