# Blender 4.4.3
# www.blender.org
o tool1_collision_geom_3
v -0.035476 -0.108150 0.030241
v -0.035476 -0.106970 0.029986
v -0.036054 -0.106970 0.029986
v -0.036054 -0.108150 0.030240
v -0.035476 -0.124653 0.030241
v -0.035476 -0.101101 0.027814
v -0.036054 -0.101101 0.027814
v -0.037188 -0.106970 0.029856
v -0.037188 -0.108150 0.030113
v -0.036054 -0.124653 0.030240
v -0.036054 -0.125833 0.030219
v -0.035476 -0.125230 0.030230
v -0.035476 -0.101101 0.020604
v -0.037188 -0.101101 0.027663
v -0.038321 -0.106970 0.029610
v -0.038321 -0.108150 0.029878
v -0.037188 -0.124653 0.030113
v -0.035476 -0.125833 0.030219
v -0.037188 -0.125833 0.030082
v -0.038321 -0.126733 0.029512
v -0.037188 -0.126745 0.029614
v -0.036054 -0.126745 0.029688
v -0.035476 -0.126280 0.029959
v -0.040106 -0.101101 0.020604
v -0.035476 -0.117983 0.020604
v -0.038321 -0.101101 0.027357
v -0.039343 -0.107021 0.029316
v -0.040106 -0.107443 0.029224
v -0.039455 -0.108150 0.029522
v -0.038321 -0.124653 0.029878
v -0.038321 -0.125833 0.029862
v -0.039455 -0.126618 0.029350
v -0.039455 -0.126944 0.028612
v -0.038321 -0.127056 0.028612
v -0.037188 -0.127071 0.028612
v -0.035476 -0.126745 0.029688
v -0.040106 -0.101101 0.026501
v -0.040106 -0.118234 0.020604
v -0.035476 -0.125688 0.024420
v -0.040106 -0.126618 0.024290
v -0.038342 -0.101101 0.027349
v -0.040106 -0.108150 0.029266
v -0.039157 -0.101101 0.027038
v -0.039724 -0.101101 0.026750
v -0.039455 -0.125833 0.029522
v -0.040106 -0.126479 0.029227
v -0.040106 -0.126489 0.029225
v -0.040106 -0.126677 0.028918
v -0.040106 -0.126806 0.028626
v -0.040106 -0.127012 0.027961
v -0.040106 -0.127068 0.027478
v -0.039455 -0.127071 0.027478
v -0.035476 -0.127071 0.028612
v -0.035476 -0.126278 0.024882
v -0.035476 -0.126532 0.025448
v -0.040106 -0.126743 0.024602
v -0.040106 -0.125833 0.029266
v -0.040106 -0.127068 0.026827
v -0.038321 -0.127071 0.027478
v -0.037188 -0.127061 0.027478
v -0.035476 -0.127043 0.027478
v -0.035476 -0.126827 0.026344
v -0.040106 -0.126911 0.025212
v -0.040106 -0.127050 0.026344
v -0.040106 -0.126997 0.025693
vn -0.0000 0.2111 0.9775
vn -0.0016 0.2103 0.9776
vn -0.0016 -0.0000 1.0000
vn 1.0000 -0.0000 -0.0000
vn -0.0000 0.3471 0.9378
vn -0.1070 0.3451 0.9324
vn -0.1115 0.2120 0.9709
vn -0.1083 0.2091 0.9719
vn -0.1108 -0.0000 0.9938
vn -0.0016 -0.0176 0.9998
vn -0.0008 -0.0180 0.9998
vn -0.0000 1.0000 -0.0000
vn -0.0000 1.0000 -0.0001
vn -0.0000 1.0000 -0.0035
vn -0.0000 1.0000 0.0002
vn -0.1237 0.3473 0.9295
vn -0.1995 0.3430 0.9179
vn -0.2073 0.2167 0.9540
vn -0.1993 0.2090 0.9574
vn -0.2038 -0.0000 0.9790
vn -0.1108 -0.0175 0.9937
vn -0.0000 -0.0188 0.9998
vn -0.1197 -0.0262 0.9925
vn -0.1080 -0.4319 0.8954
vn -0.0848 -0.4750 0.8759
vn -0.0560 -0.5022 0.8629
vn -0.0000 -0.5030 0.8643
vn -0.0000 -0.0000 -1.0000
vn -0.2442 0.3474 0.9053
vn -0.2769 0.3006 0.9126
vn -0.2602 0.2139 0.9416
vn -0.2748 0.3445 0.8977
vn -0.2970 0.1256 0.9466
vn -0.2994 -0.0000 0.9541
vn -0.2038 -0.0133 0.9789
vn -0.1912 -0.0259 0.9812
vn -0.1798 -0.3412 0.9227
vn -0.1674 -0.3691 0.9142
vn -0.1481 -0.9051 0.3987
vn -0.0925 -0.9372 0.3362
vn -0.0412 -0.9405 0.3374
vn -0.0205 -0.9484 0.3165
vn -0.0128 -0.9533 0.3016
vn -0.0000 -0.9572 0.2894
vn -0.0000 -0.9572 0.2893
vn -1.0000 -0.0000 -0.0000
vn -1.0000 -0.0003 -0.0000
vn 0.1137 -0.4410 -0.8903
vn 0.0219 -0.4024 -0.9152
vn -0.3251 0.3500 0.8785
vn -0.2992 0.3459 0.8893
vn -0.3648 0.0558 0.9294
vn -0.3341 0.3514 0.8746
vn -0.4237 0.3512 0.8350
vn -0.5134 0.3385 0.7886
vn -0.3654 -0.0000 0.9308
vn -0.2870 -0.0130 0.9578
vn -0.2839 -0.1470 0.9475
vn -0.2728 -0.1759 0.9459
vn -0.2338 -0.2705 0.9339
vn -0.2611 -0.8228 0.5049
vn -0.1836 -0.8986 0.3984
vn -0.1811 -0.9000 0.3965
vn -0.1913 -0.9376 0.2903
vn -0.0962 -0.9752 0.1992
vn -0.0658 -0.9912 0.1147
vn -0.0134 -0.9994 0.0323
vn -0.0039 -1.0000 0.0078
vn -0.0000 -1.0000 -0.0000
vn 0.1444 -0.6097 -0.7794
vn 0.1186 -0.9058 -0.4068
vn 0.1095 -0.9228 -0.3693
vn -0.3648 -0.0570 0.9293
vn -0.0039 -1.0000 -0.0000
vn -0.0000 -1.0000 -0.0039
vn 0.0090 -0.9997 -0.0224
vn 0.0104 -0.9996 -0.0247
vn 0.0999 -0.9451 -0.3110
vn 0.0820 -0.9610 -0.2641
vn 0.0107 -0.9993 -0.0369
vn 0.0104 -0.9993 -0.0347
vn 0.0090 -0.9996 -0.0285
vn 0.0216 -0.9964 -0.0817
vn 0.0583 -0.9826 -0.1766
vn 0.0634 -0.9803 -0.1868
s 0
f 1//1 2//1 3//1
f 1//2 3//2 4//2
f 1//3 4//3 10//3
f 1//3 10//3 5//3
f 1//4 5//4 12//4
f 1//4 12//4 18//4
f 1//4 18//4 23//4
f 1//4 23//4 36//4
f 1//4 36//4 53//4
f 1//4 53//4 61//4
f 1//4 61//4 62//4
f 1//4 62//4 55//4
f 1//4 55//4 54//4
f 1//4 54//4 39//4
f 1//4 39//4 25//4
f 1//4 25//4 13//4
f 1//4 13//4 6//4
f 1//4 6//4 2//4
f 2//5 6//5 7//5
f 2//5 7//5 3//5
f 3//6 7//6 8//6
f 3//7 8//7 9//7
f 3//8 9//8 4//8
f 4//9 9//9 17//9
f 4//9 17//9 10//9
f 5//10 10//10 11//10
f 5//11 11//11 12//11
f 6//12 13//12 24//12
f 6//12 24//12 37//12
f 6//13 37//13 44//13
f 6//12 44//12 43//12
f 6//12 43//12 41//12
f 6//14 41//14 26//14
f 6//12 26//12 14//12
f 6//15 14//15 7//15
f 7//16 14//16 8//16
f 8//17 14//17 15//17
f 8//18 15//18 16//18
f 8//19 16//19 9//19
f 9//20 16//20 30//20
f 9//20 30//20 17//20
f 10//21 17//21 11//21
f 11//22 18//22 12//22
f 11//23 17//23 19//23
f 11//24 19//24 20//24
f 11//25 20//25 21//25
f 11//26 21//26 22//26
f 11//27 22//27 23//27
f 11//27 23//27 18//27
f 13//28 25//28 38//28
f 13//28 38//28 24//28
f 14//29 26//29 15//29
f 15//30 27//30 28//30
f 15//31 28//31 16//31
f 15//32 26//32 27//32
f 16//33 28//33 29//33
f 16//34 29//34 45//34
f 16//34 45//34 30//34
f 17//35 30//35 31//35
f 17//36 31//36 19//36
f 19//37 31//37 32//37
f 19//38 32//38 20//38
f 20//39 32//39 33//39
f 20//40 33//40 34//40
f 20//41 34//41 21//41
f 21//42 34//42 22//42
f 22//43 34//43 35//43
f 22//44 35//44 53//44
f 22//45 53//45 36//45
f 22//27 36//27 23//27
f 24//46 38//46 40//46
f 24//46 40//46 56//46
f 24//46 56//46 63//46
f 24//46 63//46 65//46
f 24//46 65//46 64//46
f 24//46 64//46 58//46
f 24//46 58//46 51//46
f 24//46 51//46 50//46
f 24//46 50//46 49//46
f 24//46 49//46 48//46
f 24//46 48//46 47//46
f 24//47 47//47 46//47
f 24//46 46//46 57//46
f 24//46 57//46 42//46
f 24//46 42//46 28//46
f 24//46 28//46 37//46
f 25//48 39//48 40//48
f 25//49 40//49 38//49
f 26//50 41//50 28//50
f 26//51 28//51 27//51
f 28//52 42//52 29//52
f 28//53 41//53 43//53
f 28//54 43//54 44//54
f 28//55 44//55 37//55
f 29//56 42//56 57//56
f 29//56 57//56 45//56
f 30//57 45//57 31//57
f 31//58 45//58 46//58
f 31//59 46//59 47//59
f 31//60 47//60 32//60
f 32//61 47//61 48//61
f 32//62 48//62 49//62
f 32//63 49//63 33//63
f 33//64 49//64 50//64
f 33//65 50//65 34//65
f 34//66 50//66 51//66
f 34//67 51//67 35//67
f 35//68 51//68 52//68
f 35//69 52//69 59//69
f 35//69 59//69 53//69
f 39//70 54//70 40//70
f 40//71 54//71 55//71
f 40//72 55//72 56//72
f 45//73 57//73 46//73
f 51//74 58//74 52//74
f 52//75 58//75 59//75
f 53//76 59//76 60//76
f 53//77 60//77 61//77
f 55//78 62//78 56//78
f 56//79 62//79 63//79
f 58//80 64//80 61//80
f 58//81 61//81 60//81
f 58//82 60//82 59//82
f 61//83 64//83 65//83
f 61//84 65//84 63//84
f 61//85 63//85 62//85
