# Blender 4.4.3
# www.blender.org
o tool1_collision_geom_7
v -0.030602 -0.101102 0.023414
v -0.030602 -0.101102 0.015240
v -0.035476 -0.101102 0.023414
v -0.030602 -0.119202 0.023414
v -0.035476 -0.101102 0.015240
v -0.030602 -0.118743 0.015240
v -0.035476 -0.118119 0.023414
v -0.035476 -0.118034 0.015240
vn -0.0000 1.0000 -0.0000
vn -0.0000 -0.0000 1.0000
vn 1.0000 -0.0000 -0.0000
vn -0.0000 -0.0000 -1.0000
vn -1.0000 -0.0000 -0.0000
vn -0.2168 -0.9762 -0.0102
vn -0.1437 -0.9881 -0.0555
s 0
f 1//1 2//1 5//1
f 1//1 5//1 3//1
f 1//2 3//2 7//2
f 1//2 7//2 4//2
f 1//3 4//3 6//3
f 1//3 6//3 2//3
f 2//4 6//4 8//4
f 2//4 8//4 5//4
f 3//5 5//5 8//5
f 3//5 8//5 7//5
f 4//6 7//6 8//6
f 4//7 8//7 6//7
