# Blender 4.4.3
# www.blender.org
o wrench_collision_geom_0
v -0.005347 0.020825 -0.000109
v -0.005346 0.020825 -0.000481
v -0.005347 0.020825 0.000375
v -0.004781 0.044164 -0.000352
v -0.005345 0.020825 -0.000595
v -0.005346 0.020825 0.000618
v -0.004781 0.044164 0.000375
v -0.004755 0.044164 -0.000595
v -0.005327 0.020825 -0.000723
v -0.005324 0.020825 0.000860
v -0.004766 0.044164 0.000618
v -0.004696 0.044164 -0.000837
v -0.005311 0.020825 -0.000837
v -0.005278 0.020825 0.001065
v -0.004718 0.044164 0.000860
v -0.004574 0.044164 -0.001288
v -0.005286 0.020825 -0.000932
v -0.005263 0.020825 0.001122
v -0.004552 0.044164 0.001473
v -0.005172 0.020825 0.001460
v -0.005137 0.020825 0.001589
v -0.004540 0.044164 -0.001409
v -0.005114 0.020825 -0.001565
v -0.005146 0.020825 -0.001452
v -0.005181 0.020825 -0.001322
v -0.004515 0.044164 0.001594
v -0.005097 0.020825 0.001721
v -0.004486 0.044164 -0.001565
v -0.005051 0.020825 -0.001757
v -0.005079 0.020825 -0.001672
v -0.004404 0.044164 0.001832
v -0.005061 0.020825 0.001840
v -0.005028 0.020825 0.001938
v -0.005022 0.020825 0.001955
v -0.004377 0.044164 -0.001776
v -0.004994 0.020825 -0.001878
v -0.005022 0.020825 -0.001822
v -0.004320 0.044164 0.001961
v -0.004986 0.020825 0.002007
v -0.004292 0.044164 -0.001898
v -0.004875 0.020825 -0.002061
v -0.004938 0.020825 -0.001965
v -0.004235 0.044164 0.002083
v -0.004944 0.020825 0.002067
v -0.004088 0.044164 -0.002185
v -0.004712 0.020825 -0.002291
v -0.003913 0.044164 0.002535
v -0.004882 0.020825 0.002155
v -0.004678 0.020825 0.002442
v -0.004575 0.020825 0.002587
v -0.004002 0.044164 -0.002306
v -0.004541 0.020825 -0.002531
v -0.004587 0.020825 -0.002467
v -0.003821 0.044164 0.002656
v -0.004528 0.020825 0.002651
v -0.003885 0.044164 -0.002468
v -0.004500 0.020825 -0.002588
v -0.003702 0.044164 0.002755
v -0.004473 0.020825 0.002719
v -0.004401 0.020825 0.002806
v -0.004348 0.020825 0.002866
v -0.004305 0.020825 0.002915
v -0.003771 0.044164 -0.002589
v -0.004383 0.020825 -0.002731
v -0.003544 0.044164 0.002876
v -0.004198 0.020825 0.002996
v -0.003653 0.044164 -0.002691
v -0.004252 0.020825 -0.002852
v -0.004314 0.020825 -0.002795
v -0.003428 0.044164 0.002964
v -0.004119 0.020825 0.003057
v -0.003971 0.020825 0.003168
v -0.003492 0.044164 -0.002813
v -0.004049 0.020825 -0.003007
v -0.004190 0.020825 -0.002899
v -0.003266 0.044164 0.003086
v -0.003630 0.020825 0.003425
v -0.003095 0.044164 -0.003111
v -0.003726 0.020825 -0.003250
v -0.003784 0.020825 -0.003206
v -0.003974 0.020825 -0.003063
v -0.003148 0.044164 0.003174
v -0.003568 0.020825 0.003462
v -0.003019 0.044164 0.003267
v -0.002977 0.044164 -0.003193
v -0.003570 0.020825 -0.003362
v -0.003646 0.020825 -0.003307
v -0.003491 0.020825 0.003506
v -0.002812 0.044164 0.003380
v -0.002784 0.044164 -0.003283
v -0.003453 0.020825 -0.003427
v -0.003381 0.020825 0.003554
v -0.002694 0.044164 0.003417
v -0.003256 0.020825 0.003605
v -0.002556 0.044164 -0.003353
v -0.003256 0.020825 -0.003502
v -0.003344 0.020825 -0.003469
v -0.002314 0.044164 0.003526
v -0.003061 0.020825 0.003662
v -0.002438 0.044164 -0.003388
v -0.003130 0.020825 -0.003539
v -0.002078 0.044164 0.003594
v -0.002549 0.020825 0.003809
v -0.002314 0.044164 -0.003423
v -0.002743 0.020825 -0.003650
v -0.001887 0.044164 0.003640
v -0.002439 0.020825 0.003828
v -0.002078 0.044164 -0.003491
v -0.002549 0.020825 -0.003706
v -0.001769 0.044164 0.003659
v -0.002314 0.020825 0.003848
v -0.001842 0.044164 -0.003544
v -0.002314 0.020825 -0.003745
v -0.001607 0.044164 0.003666
v -0.002203 0.020825 0.003851
v -0.001607 0.044164 -0.003563
v -0.002078 0.020825 -0.003750
v 0.002865 0.044164 0.003666
v -0.002078 0.020825 0.003852
v 0.002865 0.044164 -0.003563
v 0.003335 0.020825 -0.003750
v 0.003026 0.044164 0.003659
v 0.003335 0.020825 0.003852
v 0.003570 0.020825 0.003848
v 0.003100 0.044164 -0.003543
v 0.003570 0.020825 -0.003745
v 0.003143 0.044164 0.003640
v 0.003806 0.020825 0.003809
v 0.003335 0.044164 -0.003490
v 0.003806 0.020825 -0.003705
v 0.003695 0.020825 -0.003724
v 0.003335 0.044164 0.003594
v 0.004256 0.020825 0.003680
v 0.003951 0.044164 0.003417
v 0.003812 0.044164 -0.003353
v 0.003914 0.020825 -0.003675
v 0.004443 0.020825 0.003625
v 0.004068 0.044164 0.003380
v 0.004512 0.020825 0.003605
v 0.004041 0.044164 -0.003283
v 0.004512 0.020825 -0.003502
v 0.004402 0.020825 -0.003534
v 0.003999 0.020825 -0.003650
v 0.004277 0.044164 0.003266
v 0.004748 0.020825 0.003506
v 0.004233 0.044164 -0.003193
v 0.004709 0.020825 -0.003427
v 0.004405 0.044164 0.003174
v 0.004886 0.020825 0.003425
v 0.004351 0.044164 -0.003111
v 0.004828 0.020825 -0.003362
v 0.004771 0.020825 -0.003393
v 0.004802 0.044164 0.002876
v 0.005221 0.020825 0.003174
v 0.004631 0.044164 -0.002901
v 0.004983 0.020825 -0.003249
v 0.004907 0.020825 -0.003304
v 0.004960 0.044164 0.002755
v 0.005359 0.020825 0.003069
v 0.005455 0.020825 0.002996
v 0.005514 0.020825 0.002951
v 0.004909 0.044164 -0.002691
v 0.005391 0.020825 -0.002942
v 0.005077 0.044164 0.002656
v 0.005561 0.020825 0.002915
v 0.005028 0.044164 -0.002588
v 0.005508 0.020825 -0.002851
v 0.005169 0.044164 0.002534
v 0.005595 0.020825 0.002877
v 0.005658 0.020825 0.002805
v 0.005786 0.020825 0.002651
v 0.005141 0.044164 -0.002467
v 0.005639 0.020825 -0.002730
v 0.005287 0.044164 0.002369
v 0.006030 0.020825 0.002307
v 0.005259 0.044164 -0.002306
v 0.005758 0.020825 -0.002588
v 0.005703 0.020825 -0.002655
v 0.005577 0.044164 0.001960
v 0.006201 0.020825 0.002067
v 0.005549 0.044164 -0.001897
v 0.006015 0.020825 -0.002226
v 0.005844 0.020825 -0.002466
v 0.005660 0.044164 0.001832
v 0.006279 0.020825 0.001955
v 0.005635 0.044164 -0.001776
v 0.006132 0.020825 -0.002061
v 0.005773 0.044164 0.001592
v 0.006318 0.020825 0.001840
v 0.005742 0.044164 -0.001565
v 0.006251 0.020825 -0.001878
v 0.006189 0.020825 -0.001974
v 0.005808 0.044164 0.001471
v 0.006355 0.020825 0.001718
v 0.006393 0.020825 0.001589
v 0.005797 0.044164 -0.001407
v 0.006308 0.020825 -0.001757
v 0.006282 0.020825 -0.001814
v 0.005842 0.044164 0.001346
v 0.006424 0.020825 0.001475
v 0.005952 0.044164 -0.000837
v 0.006510 0.020825 -0.001057
v 0.006492 0.020825 -0.001122
v 0.006407 0.020825 -0.001436
v 0.006372 0.020825 -0.001565
v 0.006344 0.020825 -0.001651
v 0.005907 0.044164 0.001104
v 0.006482 0.020825 0.001263
v 0.006010 0.044164 -0.000595
v 0.006568 0.020825 -0.000837
v 0.006525 0.020825 -0.001001
v 0.005973 0.044164 0.000860
v 0.006535 0.020825 0.001064
v 0.006036 0.044164 -0.000352
v 0.006601 0.020825 -0.000595
v 0.006586 0.020825 -0.000708
v 0.006021 0.044164 0.000618
v 0.006580 0.020825 0.000860
v 0.006603 0.020825 -0.000109
v 0.006602 0.020825 -0.000466
v 0.006036 0.044164 0.000375
v 0.006590 0.020825 0.000747
v 0.006602 0.020825 0.000618
v 0.006603 0.020825 0.000375
vn -0.0000 -1.0000 -0.0000
vn -0.9997 0.0244 0.0001
vn -0.9997 0.0246 0.0044
vn -0.9997 0.0243 0.0028
vn -0.9997 0.0243 -0.0062
vn -0.9997 0.0243 -0.0094
vn -0.9997 0.0243 -0.0103
vn -0.9997 0.0243 0.0048
vn -0.0000 1.0000 -0.0000
vn -0.0000 1.0000 0.0001
vn -0.0000 1.0000 -0.0001
vn -0.9941 0.0251 -0.1055
vn -0.9905 0.0250 -0.1350
vn -0.9905 0.0250 -0.1354
vn -0.9955 0.0248 0.0911
vn -0.9977 0.0248 0.0625
vn -0.9708 0.0256 -0.2387
vn -0.9689 0.0256 -0.2460
vn -0.9697 0.0256 -0.2428
vn -0.9895 0.0251 -0.1423
vn -0.9757 0.0254 0.2175
vn -0.9807 0.0255 0.1938
vn -0.9652 0.0255 -0.2603
vn -0.9649 0.0255 -0.2613
vn -0.9652 0.0255 -0.2604
vn -0.9680 0.0256 -0.2497
vn -0.9654 0.0254 0.2596
vn -0.9652 0.0254 0.2601
vn -0.9652 0.0254 0.2604
vn -0.9650 0.0255 0.2608
vn -0.9648 0.0255 0.2618
vn -0.9649 0.0255 0.2613
vn -0.9627 0.0255 -0.2693
vn -0.9628 0.0255 -0.2690
vn -0.9646 0.0254 -0.2624
vn -0.9650 0.0255 -0.2610
vn -0.9578 0.0255 0.2863
vn -0.9575 0.0254 0.2873
vn -0.9572 0.0254 0.2883
vn -0.9564 0.0252 0.2909
vn -0.9447 0.0256 -0.3270
vn -0.9493 0.0255 -0.3134
vn -0.9491 0.0255 -0.3139
vn -0.9500 0.0255 -0.3111
vn -0.9563 0.0254 0.2913
vn -0.9484 0.0255 0.3161
vn -0.9414 0.0257 0.3364
vn -0.9414 0.0256 0.3364
vn -0.9054 0.0261 0.4238
vn -0.8888 0.0255 -0.4575
vn -0.8955 0.0255 -0.4444
vn -0.9110 0.0255 -0.4115
vn -0.8380 0.0251 0.5451
vn -0.8205 0.0245 0.5711
vn -0.8199 0.0245 0.5720
vn -0.8186 0.0245 0.5738
vn -0.8174 0.0244 -0.5755
vn -0.8163 0.0244 -0.5771
vn -0.8170 0.0244 -0.5762
vn -0.8343 0.0245 -0.5507
vn -0.8332 0.0245 -0.5525
vn -0.8344 0.0245 -0.5506
vn -0.8402 0.0246 -0.5416
vn -0.8169 0.0244 0.5763
vn -0.8157 0.0244 0.5780
vn -0.8140 0.0243 -0.5803
vn -0.8159 0.0244 -0.5777
vn -0.8164 0.0244 0.5769
vn -0.8156 0.0244 0.5782
vn -0.8153 0.0244 0.5786
vn -0.8147 0.0244 0.5793
vn -0.8107 0.0244 -0.5849
vn -0.8138 0.0244 -0.5806
vn -0.8148 0.0244 -0.5792
vn -0.8071 0.0242 0.5900
vn -0.7952 0.0240 0.6058
vn -0.8096 0.0244 -0.5864
vn -0.8116 0.0244 -0.5838
vn -0.7692 0.0233 0.6386
vn -0.7762 0.0234 0.6301
vn -0.7695 0.0233 0.6382
vn -0.7682 0.0232 0.6398
vn -0.7522 0.0229 0.6586
vn -0.7530 0.0229 0.6576
vn -0.7522 0.0230 0.6585
vn -0.7501 0.0229 0.6609
vn -0.6394 0.0218 0.7686
vn -0.7301 0.0233 -0.6829
vn -0.7720 0.0236 -0.6352
vn -0.6091 0.0212 0.7928
vn -0.6078 0.0211 0.7938
vn -0.6038 0.0211 0.7969
vn -0.6047 0.0211 0.7962
vn -0.6532 0.0220 -0.7569
vn -0.6794 0.0222 -0.7335
vn -0.6786 0.0222 -0.7342
vn -0.6799 0.0223 -0.7330
vn -0.6030 0.0211 0.7974
vn -0.6010 0.0210 0.7989
vn -0.6069 0.0210 -0.7945
vn -0.6008 0.0209 -0.7991
vn -0.6031 0.0210 -0.7974
vn -0.6088 0.0210 -0.7931
vn -0.6091 0.0211 -0.7928
vn -0.6003 0.0210 0.7995
vn -0.6002 0.0210 -0.7996
vn -0.6009 0.0210 -0.7991
vn -0.6023 0.0210 -0.7980
vn -0.5996 0.0210 0.8000
vn -0.5069 0.0191 0.8618
vn -0.5011 0.0191 0.8652
vn -0.5065 0.0192 0.8620
vn -0.5827 0.0208 0.8124
vn -0.5729 0.0205 -0.8194
vn -0.5815 0.0206 -0.8133
vn -0.5812 0.0206 -0.8135
vn -0.5845 0.0206 -0.8111
vn -0.5006 0.0190 0.8655
vn -0.4794 0.0187 0.8774
vn -0.4199 0.0177 -0.9074
vn -0.4884 0.0187 -0.8724
vn -0.3975 0.0165 0.9174
vn -0.3795 0.0162 0.9250
vn -0.3004 0.0149 0.9537
vn -0.2961 0.0149 -0.9550
vn -0.3531 0.0159 -0.9354
vn -0.3525 0.0159 -0.9357
vn -0.3528 0.0158 -0.9356
vn -0.3576 0.0160 -0.9337
vn -0.2785 0.0144 0.9603
vn -0.2797 0.0144 0.9600
vn -0.2766 0.0144 0.9609
vn -0.2760 0.0145 0.9611
vn -0.2789 0.0145 -0.9602
vn -0.2771 0.0144 -0.9607
vn -0.2776 0.0144 -0.9606
vn -0.2797 0.0145 -0.9600
vn -0.2759 0.0144 0.9611
vn -0.2755 0.0144 0.9612
vn -0.2762 0.0144 -0.9610
vn -0.2768 0.0145 -0.9608
vn -0.2351 0.0137 0.9719
vn -0.1669 0.0119 0.9859
vn -0.1597 0.0118 0.9871
vn -0.1640 0.0118 0.9864
vn -0.2756 0.0144 -0.9612
vn -0.2758 0.0144 -0.9611
vn -0.1563 0.0116 0.9876
vn -0.1556 0.0116 0.9878
vn -0.2191 0.0134 -0.9756
vn -0.1625 0.0118 -0.9866
vn -0.0414 0.0091 0.9991
vn -0.0270 0.0086 0.9996
vn -0.0789 0.0101 -0.9968
vn -0.0218 0.0085 -0.9997
vn -0.0069 0.0081 0.9999
vn -0.0119 0.0082 0.9999
vn -0.0103 0.0082 0.9999
vn -0.0000 0.0080 1.0000
vn -0.0000 0.0080 -1.0000
vn 0.0190 0.0084 0.9998
vn 0.0415 0.0091 0.9991
vn 0.0820 0.0102 -0.9966
vn 0.0222 0.0085 -0.9997
vn 0.1626 0.0118 0.9866
vn 0.1617 0.0118 0.9868
vn 0.1621 0.0118 0.9867
vn 0.1632 0.0118 0.9865
vn 0.2193 0.0135 -0.9756
vn 0.1646 0.0118 -0.9863
vn 0.1651 0.0118 -0.9862
vn 0.1642 0.0118 -0.9864
vn 0.2303 0.0137 0.9730
vn 0.2766 0.0144 0.9609
vn 0.2775 0.0144 0.9606
vn 0.2783 0.0144 0.9604
vn 0.2761 0.0144 0.9610
vn 0.2737 0.0144 -0.9617
vn 0.2779 0.0145 -0.9605
vn 0.2749 0.0144 -0.9614
vn 0.2728 0.0143 -0.9620
vn 0.2791 0.0144 0.9601
vn 0.2794 0.0144 0.9601
vn 0.3032 0.0149 0.9528
vn 0.2947 0.0149 -0.9555
vn 0.2793 0.0145 -0.9601
vn 0.2768 0.0145 -0.9608
vn 0.3863 0.0163 0.9222
vn 0.4797 0.0187 0.8772
vn 0.4220 0.0177 -0.9064
vn 0.3553 0.0159 -0.9346
vn 0.5064 0.0191 0.8621
vn 0.5796 0.0207 0.8146
vn 0.5729 0.0205 -0.8194
vn 0.5805 0.0206 -0.8140
vn 0.5774 0.0206 -0.8162
vn 0.4850 0.0186 -0.8743
vn 0.4863 0.0186 -0.8736
vn 0.4834 0.0186 -0.8752
vn 0.6010 0.0210 0.7990
vn 0.6008 0.0210 0.7991
vn 0.6013 0.0210 0.7988
vn 0.6068 0.0211 0.7945
vn 0.6003 0.0210 -0.7995
vn 0.6009 0.0210 -0.7990
vn 0.6004 0.0210 -0.7994
vn 0.5861 0.0207 -0.8099
vn 0.5844 0.0208 -0.8112
vn 0.6032 0.0210 0.7973
vn 0.6053 0.0211 0.7957
vn 0.6117 0.0212 0.7908
vn 0.6127 0.0212 0.7901
vn 0.6018 0.0210 -0.7984
vn 0.6100 0.0211 -0.7921
vn 0.6053 0.0210 -0.7957
vn 0.6015 0.0210 -0.7986
vn 0.6145 0.0213 0.7886
vn 0.6458 0.0219 0.7632
vn 0.6559 0.0220 -0.7545
vn 0.6130 0.0212 -0.7898
vn 0.7467 0.0229 0.6648
vn 0.7453 0.0228 0.6664
vn 0.7465 0.0229 0.6650
vn 0.7490 0.0229 0.6622
vn 0.7701 0.0233 0.6374
vn 0.7953 0.0240 0.6058
vn 0.7302 0.0233 -0.6828
vn 0.6793 0.0222 -0.7335
vn 0.8132 0.0244 0.5815
vn 0.8138 0.0244 0.5807
vn 0.8151 0.0243 0.5788
vn 0.8148 0.0244 0.5792
vn 0.8068 0.0244 -0.5903
vn 0.8147 0.0244 -0.5793
vn 0.8095 0.0244 -0.5866
vn 0.7762 0.0237 -0.6301
vn 0.7622 0.0235 -0.6469
vn 0.8149 0.0243 0.5791
vn 0.8187 0.0244 0.5737
vn 0.8166 0.0244 -0.5767
vn 0.8155 0.0244 -0.5783
vn 0.8142 0.0244 -0.5800
vn 0.8200 0.0245 0.5718
vn 0.8401 0.0252 0.5419
vn 0.8175 0.0245 -0.5754
vn 0.8170 0.0244 -0.5762
vn 0.9052 0.0262 0.4242
vn 0.9474 0.0256 0.3191
vn 0.8902 0.0256 -0.4548
vn 0.8342 0.0246 -0.5509
vn 0.8398 0.0245 -0.5424
vn 0.8341 0.0245 -0.5510
vn 0.8329 0.0245 -0.5529
vn 0.9557 0.0255 0.2931
vn 0.9601 0.0255 0.2787
vn 0.9599 0.0254 0.2791
vn 0.9601 0.0255 0.2784
vn 0.9603 0.0255 0.2778
vn 0.9441 0.0256 -0.3286
vn 0.9033 0.0255 -0.4283
vn 0.9049 0.0255 -0.4249
vn 0.9034 0.0255 -0.4280
vn 0.9029 0.0255 -0.4290
vn 0.9637 0.0255 0.2658
vn 0.9633 0.0255 0.2672
vn 0.9637 0.0256 0.2658
vn 0.9647 0.0256 0.2622
vn 0.9648 0.0255 -0.2616
vn 0.9658 0.0256 -0.2580
vn 0.9651 0.0256 -0.2605
vn 0.9648 0.0256 -0.2619
vn 0.9645 0.0255 -0.2627
vn 0.9645 0.0255 -0.2630
vn 0.9497 0.0255 -0.3122
vn 0.9499 0.0255 -0.3115
vn 0.9494 0.0255 -0.3130
vn 0.9651 0.0255 0.2605
vn 0.9652 0.0255 0.2602
vn 0.9719 0.0257 -0.2342
vn 0.9665 0.0256 -0.2555
vn 0.9657 0.0256 -0.2585
vn 0.9652 0.0256 0.2601
vn 0.9653 0.0256 0.2598
vn 0.9941 0.0252 -0.1056
vn 0.9908 0.0251 -0.1332
vn 0.9909 0.0251 -0.1324
vn 0.9908 0.0251 -0.1331
vn 0.9905 0.0251 -0.1350
vn 0.9766 0.0254 0.2137
vn 0.9807 0.0255 0.1939
vn 0.9997 0.0243 -0.0048
vn 0.9997 0.0244 -0.0030
vn 0.9997 0.0244 -0.0084
vn 0.9997 0.0243 -0.0091
vn 0.9997 0.0243 0.0034
vn 0.9997 0.0243 -0.0002
vn 0.9954 0.0248 0.0921
vn 0.9954 0.0248 0.0927
vn 0.9954 0.0248 0.0920
vn 0.9956 0.0248 0.0900
vn 0.9977 0.0249 0.0625
vn 0.9997 0.0243 0.0050
s 1
f 1//1 2//1 5//1
f 1//1 5//1 9//1
f 1//1 9//1 13//1
f 1//1 13//1 17//1
f 1//1 17//1 25//1
f 1//1 25//1 24//1
f 1//1 24//1 23//1
f 1//1 23//1 30//1
f 1//1 30//1 29//1
f 1//1 29//1 37//1
f 1//1 37//1 36//1
f 1//1 36//1 42//1
f 1//1 42//1 41//1
f 1//1 41//1 46//1
f 1//1 46//1 53//1
f 1//1 53//1 52//1
f 1//1 52//1 57//1
f 1//1 57//1 64//1
f 1//1 64//1 69//1
f 1//1 69//1 68//1
f 1//1 68//1 75//1
f 1//1 75//1 74//1
f 1//1 74//1 81//1
f 1//1 81//1 80//1
f 1//1 80//1 79//1
f 1//1 79//1 87//1
f 1//1 87//1 86//1
f 1//1 86//1 91//1
f 1//1 91//1 97//1
f 1//1 97//1 96//1
f 1//1 96//1 101//1
f 1//1 101//1 105//1
f 1//1 105//1 109//1
f 1//1 109//1 113//1
f 1//1 113//1 117//1
f 1//1 117//1 121//1
f 1//1 121//1 126//1
f 1//1 126//1 131//1
f 1//1 131//1 130//1
f 1//1 130//1 136//1
f 1//1 136//1 143//1
f 1//1 143//1 142//1
f 1//1 142//1 141//1
f 1//1 141//1 147//1
f 1//1 147//1 152//1
f 1//1 152//1 151//1
f 1//1 151//1 157//1
f 1//1 157//1 156//1
f 1//1 156//1 163//1
f 1//1 163//1 167//1
f 1//1 167//1 173//1
f 1//1 173//1 178//1
f 1//1 178//1 177//1
f 1//1 177//1 183//1
f 1//1 183//1 182//1
f 1//1 182//1 187//1
f 1//1 187//1 192//1
f 1//1 192//1 191//1
f 1//1 191//1 198//1
f 1//1 198//1 197//1
f 1//1 197//1 206//1
f 1//1 206//1 205//1
f 1//1 205//1 204//1
f 1//1 204//1 203//1
f 1//1 203//1 202//1
f 1//1 202//1 211//1
f 1//1 211//1 210//1
f 1//1 210//1 216//1
f 1//1 216//1 215//1
f 1//1 215//1 220//1
f 1//1 220//1 219//1
f 1//1 219//1 224//1
f 1//1 224//1 223//1
f 1//1 223//1 222//1
f 1//1 222//1 218//1
f 1//1 218//1 213//1
f 1//1 213//1 208//1
f 1//1 208//1 200//1
f 1//1 200//1 195//1
f 1//1 195//1 194//1
f 1//1 194//1 189//1
f 1//1 189//1 185//1
f 1//1 185//1 180//1
f 1//1 180//1 175//1
f 1//1 175//1 171//1
f 1//1 171//1 170//1
f 1//1 170//1 169//1
f 1//1 169//1 165//1
f 1//1 165//1 161//1
f 1//1 161//1 160//1
f 1//1 160//1 159//1
f 1//1 159//1 154//1
f 1//1 154//1 149//1
f 1//1 149//1 145//1
f 1//1 145//1 139//1
f 1//1 139//1 137//1
f 1//1 137//1 133//1
f 1//1 133//1 128//1
f 1//1 128//1 124//1
f 1//1 124//1 123//1
f 1//1 123//1 119//1
f 1//1 119//1 115//1
f 1//1 115//1 111//1
f 1//1 111//1 107//1
f 1//1 107//1 103//1
f 1//1 103//1 99//1
f 1//1 99//1 94//1
f 1//1 94//1 92//1
f 1//1 92//1 88//1
f 1//1 88//1 83//1
f 1//1 83//1 77//1
f 1//1 77//1 72//1
f 1//1 72//1 71//1
f 1//1 71//1 66//1
f 1//1 66//1 62//1
f 1//1 62//1 61//1
f 1//1 61//1 60//1
f 1//1 60//1 59//1
f 1//1 59//1 55//1
f 1//1 55//1 50//1
f 1//1 50//1 49//1
f 1//1 49//1 48//1
f 1//1 48//1 44//1
f 1//1 44//1 39//1
f 1//1 39//1 34//1
f 1//1 34//1 33//1
f 1//1 33//1 32//1
f 1//1 32//1 27//1
f 1//1 27//1 21//1
f 1//1 21//1 20//1
f 1//1 20//1 18//1
f 1//1 18//1 14//1
f 1//1 14//1 10//1
f 1//1 10//1 6//1
f 1//1 6//1 3//1
f 1//2 3//3 7//4
f 1//2 7//4 4//5
f 1//2 4//5 2//6
f 2//6 4//5 5//7
f 3//3 6//8 7//4
f 4//9 7//9 11//9
f 4//9 11//9 15//9
f 4//9 15//9 19//9
f 4//9 19//9 26//9
f 4//9 26//9 31//9
f 4//9 31//9 38//9
f 4//9 38//9 43//9
f 4//9 43//9 47//9
f 4//9 47//9 54//9
f 4//9 54//9 58//9
f 4//9 58//9 65//9
f 4//9 65//9 70//9
f 4//9 70//9 76//9
f 4//9 76//9 82//9
f 4//9 82//9 84//9
f 4//9 84//9 89//9
f 4//9 89//9 93//9
f 4//9 93//9 98//9
f 4//9 98//9 102//9
f 4//9 102//9 106//9
f 4//9 106//9 110//9
f 4//9 110//9 114//9
f 4//9 114//9 118//9
f 4//9 118//9 122//10
f 4//9 122//10 127//9
f 4//9 127//9 132//9
f 4//9 132//9 134//9
f 4//9 134//9 138//9
f 4//9 138//9 144//9
f 4//9 144//9 148//9
f 4//9 148//9 153//9
f 4//9 153//9 158//11
f 4//9 158//11 164//9
f 4//9 164//9 168//9
f 4//9 168//9 174//9
f 4//9 174//9 179//9
f 4//9 179//9 184//9
f 4//9 184//9 188//9
f 4//9 188//9 193//9
f 4//9 193//9 199//9
f 4//9 199//9 207//9
f 4//9 207//9 212//9
f 4//9 212//9 217//9
f 4//9 217//9 221//9
f 4//9 221//9 214//9
f 4//9 214//9 209//9
f 4//9 209//9 201//9
f 4//9 201//9 196//9
f 4//9 196//9 190//9
f 4//9 190//9 186//9
f 4//9 186//9 181//9
f 4//9 181//9 176//9
f 4//9 176//9 172//9
f 4//9 172//9 166//9
f 4//9 166//9 162//9
f 4//9 162//9 155//9
f 4//9 155//9 150//9
f 4//9 150//9 146//9
f 4//9 146//9 140//9
f 4//9 140//9 135//9
f 4//9 135//9 129//9
f 4//9 129//9 125//9
f 4//9 125//9 120//9
f 4//9 120//9 116//9
f 4//9 116//9 112//9
f 4//9 112//9 108//9
f 4//9 108//9 104//9
f 4//9 104//9 100//9
f 4//9 100//9 95//9
f 4//9 95//9 90//9
f 4//9 90//9 85//9
f 4//9 85//9 78//9
f 4//9 78//9 73//9
f 4//9 73//9 67//9
f 4//9 67//9 63//9
f 4//9 63//9 56//9
f 4//9 56//9 51//9
f 4//9 51//9 45//10
f 4//9 45//10 40//9
f 4//9 40//9 35//9
f 4//9 35//9 28//9
f 4//9 28//9 22//9
f 4//9 22//9 16//11
f 4//9 16//11 12//9
f 4//9 12//9 8//11
f 4//12 8//12 5//12
f 5//13 8//14 9//14
f 6//15 10//15 11//15
f 6//16 11//16 7//16
f 8//17 12//18 13//19
f 8//14 13//20 9//14
f 10//21 14//21 15//21
f 10//22 15//22 11//22
f 12//23 16//24 17//25
f 12//18 17//26 13//19
f 14//27 18//28 15//29
f 15//29 18//28 20//30
f 15//29 20//30 21//31
f 15//29 21//31 19//32
f 16//24 22//33 23//34
f 16//24 23//34 24//35
f 16//24 24//35 25//36
f 16//24 25//36 17//25
f 19//37 21//38 26//39
f 21//38 27//40 26//39
f 22//41 28//41 29//41
f 22//42 29//43 30//42
f 22//42 30//42 23//44
f 26//39 27//40 32//45
f 26//46 32//46 33//46
f 26//47 33//48 34//47
f 26//49 34//49 31//49
f 28//50 35//50 36//50
f 28//51 36//51 37//51
f 28//52 37//52 29//52
f 31//53 34//53 38//53
f 34//54 39//55 38//56
f 35//57 40//58 41//59
f 35//60 41//61 42//62
f 35//60 42//62 36//63
f 38//56 39//55 44//64
f 38//56 44//64 43//65
f 40//58 45//66 46//67
f 40//58 46//67 41//59
f 43//65 44//64 48//68
f 43//65 48//68 49//69
f 43//65 49//69 50//70
f 43//65 50//70 47//71
f 45//66 51//72 52//73
f 45//66 52//73 53//74
f 45//66 53//74 46//67
f 47//75 50//75 55//75
f 47//76 55//76 54//76
f 51//72 56//77 57//78
f 51//72 57//78 52//73
f 54//79 55//80 59//81
f 54//79 59//81 60//82
f 54//83 60//84 61//85
f 54//83 61//85 62//86
f 54//87 62//87 58//87
f 56//88 63//88 64//88
f 56//89 64//89 57//89
f 58//90 62//91 65//92
f 62//91 66//93 65//92
f 63//94 67//94 68//94
f 63//95 68//96 69//95
f 63//95 69//95 64//97
f 65//92 66//93 71//92
f 65//92 71//92 72//98
f 65//92 72//98 70//99
f 67//100 73//101 74//102
f 67//100 74//102 75//103
f 67//100 75//103 68//104
f 70//99 72//98 77//105
f 70//99 77//105 76//105
f 73//101 78//106 79//106
f 73//101 79//106 80//107
f 73//101 80//107 81//108
f 73//101 81//108 74//102
f 76//105 77//105 82//109
f 77//110 83//111 84//112
f 77//113 84//113 82//113
f 78//114 85//114 86//114
f 78//115 86//116 87//115
f 78//115 87//115 79//117
f 83//111 88//118 84//112
f 84//119 88//119 89//119
f 85//120 90//120 91//120
f 85//121 91//121 86//121
f 88//122 92//122 89//122
f 89//123 92//123 94//123
f 89//124 94//124 93//124
f 90//125 95//125 96//125
f 90//126 96//127 97//128
f 90//126 97//128 91//129
f 93//130 94//131 99//132
f 93//130 99//132 98//133
f 95//134 100//135 101//136
f 95//134 101//136 96//137
f 98//133 99//132 103//138
f 98//133 103//138 102//139
f 100//135 104//140 105//141
f 100//135 105//141 101//136
f 102//142 103//142 106//142
f 103//143 107//144 106//145
f 104//140 108//146 109//147
f 104//140 109//147 105//141
f 106//145 107//144 111//148
f 106//145 111//148 110//149
f 108//150 112//150 109//150
f 109//151 112//151 113//151
f 110//152 111//152 114//152
f 111//153 115//153 114//153
f 112//154 116//154 113//154
f 113//155 116//155 117//155
f 114//156 115//157 119//158
f 114//156 119//158 123//159
f 114//156 123//159 118//159
f 116//160 120//160 121//160
f 116//160 121//160 117//160
f 118//161 123//161 124//161
f 118//162 124//162 122//162
f 120//163 125//163 126//163
f 120//164 126//164 121//164
f 122//165 124//166 128//167
f 122//165 128//167 127//168
f 125//169 129//169 130//169
f 125//170 130//171 131//170
f 125//170 131//170 126//172
f 127//173 128//173 132//173
f 128//174 133//175 134//176
f 128//174 134//176 132//177
f 129//178 135//179 136//180
f 129//178 136//180 130//181
f 133//175 137//182 134//176
f 134//176 137//182 139//183
f 134//184 139//184 138//184
f 135//185 140//185 141//185
f 135//179 141//186 142//186
f 135//179 142//186 143//187
f 135//179 143//187 136//180
f 138//188 139//188 145//188
f 138//189 145//189 144//189
f 140//190 146//190 147//190
f 140//191 147//191 141//191
f 144//192 145//192 149//192
f 144//193 149//193 148//193
f 146//194 150//195 151//196
f 146//197 151//198 152//197
f 146//197 152//197 147//199
f 148//200 149//201 154//202
f 148//200 154//202 153//203
f 150//204 155//205 156//206
f 150//207 156//207 157//207
f 150//195 157//208 151//196
f 153//203 154//202 159//209
f 153//203 159//209 160//210
f 153//203 160//210 161//211
f 153//203 161//211 158//212
f 155//213 162//214 163//215
f 155//205 163//216 156//206
f 158//212 161//211 165//217
f 158//218 165//218 164//218
f 162//219 166//219 167//219
f 162//214 167//220 163//215
f 164//221 165//222 169//223
f 164//221 169//223 170//224
f 164//225 170//225 171//225
f 164//226 171//226 168//226
f 166//227 172//227 173//227
f 166//228 173//228 167//228
f 168//229 171//230 174//231
f 171//230 175//232 174//231
f 172//233 176//234 177//235
f 172//236 177//236 178//236
f 172//237 178//237 173//237
f 174//231 175//232 180//238
f 174//231 180//238 179//239
f 176//234 181//240 182//241
f 176//234 182//241 183//242
f 176//234 183//242 177//235
f 179//239 180//238 185//243
f 179//244 185//244 184//244
f 181//240 186//245 187//246
f 181//240 187//246 182//241
f 184//247 185//247 188//247
f 185//248 189//248 188//248
f 186//249 190//249 191//249
f 186//250 191//251 192//252
f 186//250 192//252 187//253
f 188//254 189//254 194//254
f 188//255 194//256 195//257
f 188//255 195//257 193//258
f 190//259 196//259 197//259
f 190//260 197//261 198//262
f 190//260 198//262 191//263
f 193//264 195//265 200//266
f 193//264 200//266 199//267
f 196//268 201//269 202//270
f 196//268 202//270 203//271
f 196//268 203//271 204//272
f 196//268 204//272 205//273
f 196//274 205//275 206//274
f 196//274 206//274 197//276
f 199//267 200//266 208//277
f 199//267 208//277 207//278
f 201//279 209//279 210//279
f 201//269 210//280 211//281
f 201//269 211//281 202//270
f 207//278 208//277 213//282
f 207//278 213//282 212//283
f 209//284 214//284 215//284
f 209//285 215//286 216//287
f 209//285 216//287 210//288
f 212//289 213//289 218//289
f 212//290 218//290 217//290
f 214//291 219//292 220//293
f 214//291 220//293 215//294
f 214//291 221//295 224//296
f 214//291 224//296 219//292
f 217//297 218//298 222//299
f 217//297 222//299 223//300
f 217//301 223//301 221//301
f 221//295 223//302 224//296
