# Blender 4.4.3
# www.blender.org
o wrench_collision_geom_4
v -0.006083 0.060246 -0.000594
v -0.006083 0.060246 0.000618
v -0.006082 0.060246 -0.000837
v -0.004780 0.044165 -0.000352
v -0.006082 0.060246 0.000861
v -0.004780 0.044165 0.000375
v -0.006053 0.060246 -0.001080
v -0.004754 0.044165 -0.000594
v -0.006064 0.060246 0.001104
v -0.004766 0.044165 0.000618
v -0.005993 0.060246 -0.001319
v -0.004695 0.044165 -0.000837
v -0.006009 0.060246 0.001361
v -0.004717 0.044165 0.000860
v -0.005860 0.060246 -0.001808
v -0.004540 0.044165 -0.001409
v -0.004629 0.044165 -0.001080
v -0.006002 0.060246 0.001386
v -0.004551 0.044165 0.001472
v -0.005773 0.060246 -0.002060
v -0.004486 0.044165 -0.001565
v -0.005900 0.060246 0.001765
v -0.004515 0.044165 0.001594
v -0.005811 0.060246 0.002075
v -0.005881 0.060246 0.001832
v -0.005726 0.060246 -0.002167
v -0.004377 0.044165 -0.001776
v -0.004403 0.044165 0.001831
v -0.005751 0.060246 0.002234
v -0.005650 0.060246 -0.002278
v -0.004291 0.044165 -0.001898
v -0.004320 0.044165 0.001961
v -0.005668 0.060246 0.002355
v -0.005232 0.060246 -0.002865
v -0.004002 0.044165 -0.002306
v -0.003913 0.044165 0.002535
v -0.005465 0.060246 0.002643
v -0.005114 0.060246 -0.002998
v -0.003884 0.044165 -0.002467
v -0.003821 0.044165 0.002656
v -0.005337 0.060243 0.002819
v -0.005337 0.060246 0.002819
v -0.004990 0.060246 -0.003119
v -0.003771 0.044165 -0.002588
v -0.003702 0.044165 0.002755
v -0.005041 0.060246 0.003183
v -0.005177 0.060246 0.003030
v -0.004873 0.060246 -0.003209
v -0.003653 0.044165 -0.002691
v -0.003148 0.044165 0.003175
v -0.004904 0.060246 0.003289
v -0.004315 0.060246 -0.003629
v -0.003256 0.044165 -0.002990
v -0.003019 0.044165 0.003266
v -0.004369 0.060246 0.003692
v -0.004766 0.060246 0.003394
v -0.004212 0.060246 -0.003681
v -0.002977 0.044165 -0.003193
v -0.003094 0.044165 -0.003111
v -0.002812 0.044165 0.003379
v -0.004197 0.060246 0.003791
v -0.003960 0.060246 -0.003779
v -0.002784 0.044165 -0.003283
v -0.002695 0.044165 0.003417
v -0.003999 0.060246 0.003872
v -0.003625 0.060246 -0.003876
v -0.002555 0.044165 -0.003354
v -0.002077 0.044165 0.003594
v -0.003490 0.060246 0.004017
v -0.003312 0.060246 -0.003965
v -0.002077 0.044165 -0.003491
v -0.001886 0.044165 0.003640
v -0.003253 0.060246 0.004083
v -0.003253 0.060246 -0.003980
v -0.001843 0.044165 -0.003543
v -0.001770 0.044165 0.003658
v -0.003018 0.060246 0.004118
v -0.003018 0.060246 -0.004015
v -0.001607 0.044165 -0.003562
v -0.001607 0.044165 0.003665
v -0.002784 0.060246 0.004119
v -0.002784 0.060246 -0.004017
v 0.002864 0.044165 -0.003562
v 0.002864 0.044165 0.003665
v -0.002549 0.060246 0.004120
v 0.003806 0.060246 -0.004017
v 0.003100 0.044165 -0.003543
v 0.004041 0.060246 -0.004016
v 0.004276 0.060246 -0.004015
v 0.003025 0.044165 0.003658
v 0.004276 0.060246 0.004118
v 0.004041 0.060246 0.004119
v 0.003806 0.060246 0.004120
v 0.003334 0.044165 -0.003491
v 0.004512 0.060246 -0.003980
v 0.003142 0.044165 0.003640
v 0.004512 0.060246 0.004083
v 0.003569 0.044165 -0.003423
v 0.004569 0.060246 -0.003964
v 0.004768 0.060246 -0.003909
v 0.003334 0.044165 0.003594
v 0.004748 0.060246 0.004017
v 0.003811 0.044165 -0.003353
v 0.005218 0.060246 -0.003779
v 0.003950 0.044165 0.003417
v 0.005255 0.060246 0.003872
v 0.004041 0.044165 -0.003282
v 0.005469 0.060246 -0.003681
v 0.004069 0.044165 0.003379
v 0.005454 0.060246 0.003790
v 0.004234 0.044165 -0.003193
v 0.005669 0.060246 -0.003554
v 0.005559 0.060158 -0.003620
v 0.004276 0.044165 0.003265
v 0.005626 0.060246 0.003692
v 0.004351 0.044165 -0.003111
v 0.005852 0.060246 -0.003419
v 0.004405 0.044165 0.003174
v 0.005904 0.060246 0.003482
v 0.004684 0.044165 0.002964
v 0.004513 0.044165 -0.002990
v 0.006130 0.060246 -0.003209
v 0.006161 0.060246 0.003289
v 0.004801 0.044165 0.002875
v 0.004748 0.044165 -0.002812
v 0.006247 0.060246 -0.003118
v 0.004908 0.044165 -0.002691
v 0.006297 0.060246 0.003183
v 0.004958 0.044165 0.002754
v 0.006371 0.060246 -0.002998
v 0.005027 0.044165 -0.002588
v 0.006431 0.060246 0.003033
v 0.005077 0.044165 0.002655
v 0.006488 0.060246 -0.002865
v 0.005141 0.044165 -0.002466
v 0.006517 0.060246 0.002928
v 0.005169 0.044165 0.002534
v 0.006906 0.060246 -0.002278
v 0.005258 0.044165 -0.002305
v 0.006807 0.060246 0.002521
v 0.005490 0.044165 0.002082
v 0.007025 0.060246 -0.002067
v 0.006973 0.060166 -0.002148
v 0.005634 0.044165 -0.001776
v 0.005439 0.044165 -0.002050
v 0.006925 0.060246 0.002354
v 0.005576 0.044165 0.001960
v 0.007031 0.060246 -0.002054
v 0.005741 0.044165 -0.001565
v 0.007008 0.060246 0.002233
v 0.005660 0.044165 0.001831
v 0.007116 0.060246 -0.001808
v 0.005797 0.044165 -0.001407
v 0.007067 0.060246 0.002075
v 0.005772 0.044165 0.001592
v 0.007184 0.060246 -0.001560
v 0.005950 0.044165 -0.000837
v 0.007138 0.060246 0.001832
v 0.005807 0.044165 0.001470
v 0.007250 0.060246 -0.001316
v 0.006010 0.044165 -0.000594
v 0.007310 0.060246 -0.001080
v 0.007204 0.060246 0.001590
v 0.005841 0.044165 0.001346
v 0.006034 0.044165 -0.000352
v 0.007339 0.060246 -0.000837
v 0.007259 0.060246 0.001385
v 0.005907 0.044165 0.001104
v 0.006034 0.044165 0.000375
v 0.007341 0.060246 -0.000594
v 0.007268 0.060246 0.001351
v 0.005973 0.044165 0.000860
v 0.006020 0.044165 0.000618
v 0.007341 0.060246 0.000618
v 0.007339 0.060246 0.000861
v 0.007305 0.060246 0.001179
v 0.007321 0.060246 0.001104
vn -0.0000 1.0000 -0.0000
vn -0.0000 1.0000 -0.0001
vn -0.0000 1.0000 0.0003
vn -0.0000 1.0000 0.0001
vn -0.9967 -0.0811 0.0004
vn -0.9967 -0.0809 -0.0054
vn -0.9967 -0.0809 -0.0038
vn -0.9967 -0.0809 0.0031
vn -0.9967 -0.0810 0.0048
vn -0.9967 -0.0809 0.0054
vn -0.9904 -0.0835 -0.1103
vn -0.9895 -0.0835 -0.1181
vn -0.9899 -0.0835 -0.1145
vn -0.9908 -0.0834 -0.1070
vn -0.0000 -1.0000 -0.0000
vn -0.0000 -1.0000 0.0001
vn -0.9948 -0.0824 0.0591
vn -0.9937 -0.0825 0.0753
vn -0.9675 -0.0854 -0.2380
vn -0.9659 -0.0853 -0.2444
vn -0.9666 -0.0853 -0.2417
vn -0.9679 -0.0854 -0.2364
vn -0.9762 -0.0848 0.1997
vn -0.9769 -0.0848 0.1962
vn -0.9749 -0.0848 0.2058
vn -0.9743 -0.0848 0.2088
vn -0.9616 -0.0855 -0.2606
vn -0.9616 -0.0855 -0.2608
vn -0.9617 -0.0855 -0.2605
vn -0.9617 -0.0855 -0.2603
vn -0.9618 -0.0855 -0.2602
vn -0.9629 -0.0853 0.2561
vn -0.9625 -0.0853 0.2575
vn -0.9623 -0.0853 0.2584
vn -0.9611 -0.0854 0.2628
vn -0.9420 -0.0854 -0.3246
vn -0.9414 -0.0855 -0.3262
vn -0.9419 -0.0855 -0.3249
vn -0.9413 -0.0855 -0.3264
vn -0.9614 -0.0854 0.2615
vn -0.9533 -0.0856 0.2897
vn -0.9578 -0.0854 0.2746
vn -0.9607 -0.0854 0.2642
vn -0.9109 -0.0853 -0.4037
vn -0.9109 -0.0854 -0.4037
vn -0.8852 -0.0854 -0.4573
vn -0.9014 -0.0862 0.4242
vn -0.9315 -0.0857 0.3535
vn -0.8228 -0.0828 -0.5623
vn -0.8179 -0.0826 -0.5694
vn -0.8205 -0.0826 -0.5657
vn -0.8161 -0.0825 -0.5720
vn -0.8402 -0.0838 0.5358
vn -0.8226 -0.0827 0.5625
vn -0.8130 -0.0823 -0.5764
vn -0.8118 -0.0822 -0.5781
vn -0.8123 -0.0822 -0.5774
vn -0.8134 -0.0824 -0.5758
vn -0.8130 -0.0823 0.5764
vn -0.8103 -0.0820 0.5802
vn -0.8129 -0.0823 0.5766
vn -0.8132 -0.0823 0.5761
vn -0.7450 -0.0788 -0.6624
vn -0.8031 -0.0820 -0.5902
vn -0.7937 -0.0810 0.6029
vn -0.7924 -0.0809 0.6046
vn -0.7925 -0.0809 0.6045
vn -0.8092 -0.0820 0.5818
vn -0.8123 -0.0000 0.5833
vn -0.6957 -0.0763 -0.7143
vn -0.7289 -0.0783 -0.6801
vn -0.6392 -0.0737 0.7655
vn -0.7482 -0.0784 0.6588
vn -0.7920 -0.0809 0.6051
vn -0.7954 -0.0000 0.6061
vn -0.6117 -0.0718 -0.7878
vn -0.6023 -0.0715 -0.7951
vn -0.6083 -0.0717 -0.7904
vn -0.6541 -0.0744 -0.7528
vn -0.6060 -0.0716 0.7922
vn -0.6009 -0.0713 0.7961
vn -0.6028 -0.0714 0.7947
vn -0.6074 -0.0716 0.7912
vn -0.5994 -0.0711 -0.7973
vn -0.5967 -0.0711 -0.7993
vn -0.5990 -0.0712 -0.7976
vn -0.6008 -0.0713 -0.7962
vn -0.5783 -0.0701 0.8128
vn -0.5998 -0.0712 0.7970
vn -0.6003 -0.0712 0.7966
vn -0.4498 -0.0616 -0.8910
vn -0.5766 -0.0701 -0.8140
vn -0.5955 -0.0710 -0.8002
vn -0.4774 -0.0635 0.8764
vn -0.4967 -0.0646 0.8655
vn -0.3615 -0.0551 -0.9308
vn -0.4185 -0.0596 -0.9062
vn -0.3044 -0.0516 0.9511
vn -0.3772 -0.0562 0.9244
vn -0.2782 -0.0497 -0.9592
vn -0.2729 -0.0493 -0.9608
vn -0.2774 -0.0496 -0.9595
vn -0.2957 -0.0510 -0.9539
vn -0.2761 -0.0496 0.9598
vn -0.2713 -0.0491 0.9612
vn -0.2755 -0.0495 0.9600
vn -0.2739 -0.0492 0.9605
vn -0.2717 -0.0492 -0.9611
vn -0.2728 -0.0493 -0.9608
vn -0.2316 -0.0464 0.9717
vn -0.2687 -0.0489 0.9620
vn -0.2477 -0.0475 -0.9677
vn -0.2190 -0.0457 -0.9747
vn -0.1546 -0.0404 0.9872
vn -0.1466 -0.0397 0.9884
vn -0.1529 -0.0403 0.9874
vn -0.1440 -0.0394 0.9888
vn -0.1472 -0.0398 -0.9883
vn -0.0802 -0.0351 -0.9962
vn -0.0439 -0.0319 0.9985
vn -0.0068 -0.0287 0.9996
vn -0.0038 -0.0285 0.9996
vn -0.0062 -0.0287 0.9996
vn -0.0102 -0.0290 -0.9995
vn -0.0096 -0.0288 -0.9995
vn -0.0059 -0.0287 -0.9996
vn 0.0003 -0.0283 -0.9996
vn 0.0044 -0.0285 -0.9996
vn 0.0044 -0.0286 0.9996
vn 0.0003 -0.0283 0.9996
vn -0.0005 -0.0283 0.9996
vn 0.0062 -0.0287 -0.9996
vn 0.0068 -0.0287 -0.9996
vn 0.0802 -0.0351 -0.9962
vn 0.0441 -0.0320 0.9985
vn 0.0068 -0.0287 0.9996
vn 0.0062 -0.0287 0.9996
vn 0.1471 -0.0397 -0.9883
vn 0.2190 -0.0457 -0.9746
vn 0.1460 -0.0396 0.9885
vn 0.1546 -0.0404 0.9872
vn 0.1526 -0.0402 0.9875
vn 0.1440 -0.0394 0.9888
vn 0.2681 -0.0489 -0.9621
vn 0.2655 -0.0487 -0.9629
vn 0.2660 -0.0487 -0.9627
vn 0.2767 -0.0495 -0.9597
vn 0.2767 -0.0496 -0.9597
vn 0.2339 -0.0467 0.9711
vn 0.2690 -0.0490 0.9619
vn 0.2708 -0.0492 0.9614
vn 0.2754 -0.0496 0.9600
vn 0.2779 -0.0496 -0.9593
vn 0.2781 -0.0498 -0.9593
vn 0.2758 -0.0495 0.9599
vn 0.2758 -0.0496 0.9599
vn 0.2943 -0.0510 -0.9544
vn 0.3631 -0.0553 -0.9301
vn 0.3013 -0.0514 0.9521
vn 0.3783 -0.0562 0.9240
vn 0.4155 -0.0594 -0.9077
vn 0.5351 -0.0371 -0.8440
vn 0.5147 -0.0655 -0.8549
vn 0.4801 -0.0637 0.8749
vn 0.4934 -0.0645 0.8674
vn 0.5519 -0.0679 -0.8312
vn 0.5766 -0.0697 -0.8141
vn 0.5941 -0.0708 -0.8013
vn 0.5998 -0.0714 -0.7970
vn 0.5947 -0.0709 -0.8008
vn 0.5781 -0.0701 0.8129
vn 0.6000 -0.0712 0.7968
vn 0.5998 -0.0712 0.7969
vn 0.5999 -0.0705 0.7970
vn 0.6011 -0.0712 0.7960
vn 0.6010 -0.0714 -0.7961
vn 0.6013 -0.0713 -0.7958
vn 0.6035 -0.0714 0.7942
vn 0.6063 -0.0717 0.7920
vn 0.6011 -0.0713 -0.7960
vn 0.6118 -0.0718 -0.7878
vn 0.6088 -0.0717 -0.7901
vn 0.6078 -0.0717 0.7908
vn 0.6082 -0.0717 0.7905
vn 0.6956 -0.0763 -0.7144
vn 0.6540 -0.0744 -0.7528
vn 0.6392 -0.0737 0.7655
vn 0.7446 -0.0783 0.6629
vn 0.7467 -0.0789 -0.6605
vn 0.7272 -0.0782 -0.6820
vn 0.7737 -0.0799 0.6285
vn 0.7937 -0.0813 0.6029
vn 0.8078 -0.0821 -0.5837
vn 0.8128 -0.0823 -0.5767
vn 0.8122 -0.0822 -0.5775
vn 0.8059 -0.0821 -0.5863
vn 0.8113 -0.0822 0.5788
vn 0.8116 -0.0822 0.5784
vn 0.8118 -0.0822 0.5780
vn 0.8122 -0.0823 0.5775
vn 0.8678 -0.0809 -0.4904
vn 0.8680 -0.0807 -0.4900
vn 0.8660 -0.0832 -0.4931
vn 0.8650 -0.0840 -0.4947
vn 0.8135 -0.0824 -0.5757
vn 0.8132 -0.0823 -0.5761
vn 0.8125 -0.0823 0.5772
vn 0.8161 -0.0826 0.5720
vn 0.8204 -0.0828 0.5658
vn 0.8177 -0.0827 0.5697
vn 0.9288 -0.0851 -0.3607
vn 0.9288 -0.0854 -0.3607
vn 0.8874 -0.0850 -0.4530
vn 0.8226 -0.0828 0.5626
vn 0.8348 -0.0836 0.5442
vn 0.9407 -0.0854 -0.3284
vn 0.9410 -0.0854 -0.3276
vn 0.9407 -0.0854 -0.3282
vn 0.9404 -0.0854 -0.3291
vn 0.9025 -0.0863 0.4219
vn 0.9334 -0.0856 0.3485
vn 0.9607 -0.0854 -0.2641
vn 0.9620 -0.0854 -0.2594
vn 0.9611 -0.0854 -0.2625
vn 0.9620 -0.0855 -0.2592
vn 0.9564 -0.0854 0.2794
vn 0.9565 -0.0855 0.2789
vn 0.9565 -0.0855 0.2790
vn 0.9566 -0.0855 0.2785
vn 0.9620 -0.0855 -0.2593
vn 0.9657 -0.0854 -0.2452
vn 0.9651 -0.0854 -0.2475
vn 0.9673 -0.0855 -0.2389
vn 0.9679 -0.0855 -0.2364
vn 0.9616 -0.0857 0.2606
vn 0.9607 -0.0855 0.2641
vn 0.9615 -0.0856 0.2611
vn 0.9618 -0.0854 0.2600
vn 0.9618 -0.0854 0.2602
vn 0.9895 -0.0836 -0.1181
vn 0.9913 -0.0835 -0.1019
vn 0.9621 -0.0854 0.2590
vn 0.9967 -0.0810 -0.0031
vn 0.9967 -0.0810 -0.0054
vn 0.9967 -0.0809 -0.0011
vn 0.9967 -0.0809 0.0007
vn 0.9967 -0.0810 0.0038
vn 0.9621 -0.0854 0.2588
vn 0.9623 -0.0853 0.2583
vn 0.9967 -0.0810 0.0054
vn 0.9948 -0.0825 0.0592
vn 0.9741 -0.0848 0.2095
vn 0.9751 -0.0849 0.2050
vn 0.9751 -0.0849 0.2049
vn 0.9779 -0.0849 0.1910
vn 0.9754 -0.0849 0.2034
vn 0.9937 -0.0826 0.0752
s 1
f 1//1 2//1 5//1
f 1//1 5//1 9//1
f 1//1 9//1 13//1
f 1//1 13//1 18//1
f 1//1 18//1 22//1
f 1//1 22//1 25//1
f 1//1 25//1 24//1
f 1//1 24//1 29//1
f 1//1 29//1 33//1
f 1//1 33//1 37//1
f 1//1 37//1 42//1
f 1//1 42//1 47//1
f 1//1 47//1 46//1
f 1//1 46//1 51//1
f 1//1 51//1 56//1
f 1//1 56//1 55//1
f 1//1 55//1 61//1
f 1//1 61//1 65//1
f 1//1 65//1 69//1
f 1//1 69//1 73//1
f 1//1 73//1 77//1
f 1//1 77//1 81//1
f 1//1 81//1 85//1
f 1//1 85//1 93//1
f 1//1 93//1 92//1
f 1//1 92//1 91//2
f 1//1 91//2 97//1
f 1//1 97//1 102//1
f 1//1 102//1 106//1
f 1//1 106//1 110//1
f 1//1 110//1 115//1
f 1//1 115//1 119//1
f 1//1 119//1 123//1
f 1//1 123//1 128//1
f 1//1 128//1 132//1
f 1//1 132//1 136//1
f 1//1 136//1 140//1
f 1//1 140//1 146//1
f 1//1 146//1 150//1
f 1//1 150//1 154//1
f 1//1 154//1 158//1
f 1//1 158//1 163//1
f 1//1 163//1 167//1
f 1//1 167//1 171//1
f 1//1 171//1 176//1
f 1//1 176//1 177//1
f 1//1 177//1 175//1
f 1//1 175//1 174//1
f 1//1 174//1 170//1
f 1//1 170//1 166//1
f 1//1 166//1 162//1
f 1//1 162//1 160//1
f 1//1 160//1 156//1
f 1//1 156//1 152//1
f 1//1 152//1 148//3
f 1//1 148//3 142//4
f 1//1 142//4 138//1
f 1//1 138//1 134//1
f 1//1 134//1 130//1
f 1//1 130//1 126//1
f 1//1 126//1 122//1
f 1//1 122//1 117//1
f 1//1 117//1 112//1
f 1//1 112//1 108//1
f 1//1 108//1 104//1
f 1//1 104//1 100//1
f 1//1 100//1 99//1
f 1//1 99//1 95//2
f 1//1 95//2 89//4
f 1//1 89//4 88//1
f 1//1 88//1 86//1
f 1//1 86//1 82//1
f 1//1 82//1 78//1
f 1//1 78//1 74//1
f 1//1 74//1 70//1
f 1//1 70//1 66//1
f 1//1 66//1 62//1
f 1//1 62//1 57//1
f 1//1 57//1 52//1
f 1//1 52//1 48//1
f 1//1 48//1 43//1
f 1//1 43//1 38//1
f 1//1 38//1 34//1
f 1//1 34//1 30//1
f 1//1 30//1 26//1
f 1//1 26//1 20//4
f 1//1 20//4 15//1
f 1//1 15//1 11//1
f 1//1 11//1 7//1
f 1//1 7//1 3//1
f 1//5 3//6 4//7
f 1//5 4//7 6//8
f 1//5 6//8 2//9
f 2//9 6//8 5//10
f 3//11 7//12 8//13
f 3//11 8//13 4//14
f 4//15 8//15 12//15
f 4//15 12//15 17//16
f 4//15 17//16 16//15
f 4//15 16//15 21//15
f 4//15 21//15 27//15
f 4//15 27//15 31//15
f 4//15 31//15 35//15
f 4//15 35//15 39//15
f 4//15 39//15 44//15
f 4//15 44//15 49//15
f 4//15 49//15 53//15
f 4//15 53//15 59//15
f 4//15 59//15 58//15
f 4//15 58//15 63//15
f 4//15 63//15 67//15
f 4//15 67//15 71//15
f 4//15 71//15 75//15
f 4//15 75//15 79//15
f 4//15 79//15 83//15
f 4//15 83//15 87//15
f 4//15 87//15 94//15
f 4//15 94//15 98//15
f 4//15 98//15 103//15
f 4//15 103//15 107//15
f 4//15 107//15 111//15
f 4//15 111//15 116//15
f 4//15 116//15 121//15
f 4//15 121//15 125//15
f 4//15 125//15 127//15
f 4//15 127//15 131//15
f 4//15 131//15 135//15
f 4//15 135//15 139//15
f 4//15 139//15 145//15
f 4//15 145//15 144//15
f 4//15 144//15 149//15
f 4//15 149//15 153//15
f 4//15 153//15 157//15
f 4//15 157//15 161//15
f 4//15 161//15 165//15
f 4//15 165//15 169//15
f 4//15 169//15 173//15
f 4//15 173//15 172//15
f 4//15 172//15 168//15
f 4//15 168//15 164//15
f 4//15 164//15 159//15
f 4//15 159//15 155//15
f 4//15 155//15 151//15
f 4//15 151//15 147//15
f 4//15 147//15 141//15
f 4//15 141//15 137//15
f 4//15 137//15 133//15
f 4//15 133//15 129//15
f 4//15 129//15 124//15
f 4//15 124//15 120//15
f 4//15 120//15 118//15
f 4//15 118//15 114//15
f 4//15 114//15 109//15
f 4//15 109//15 105//15
f 4//15 105//15 101//15
f 4//15 101//15 96//15
f 4//15 96//15 90//15
f 4//15 90//15 84//15
f 4//15 84//15 80//15
f 4//15 80//15 76//15
f 4//15 76//15 72//15
f 4//15 72//15 68//15
f 4//15 68//15 64//15
f 4//15 64//15 60//15
f 4//15 60//15 54//15
f 4//15 54//15 50//15
f 4//15 50//15 45//15
f 4//15 45//15 40//15
f 4//15 40//15 36//15
f 4//15 36//15 32//15
f 4//15 32//15 28//15
f 4//15 28//15 23//15
f 4//15 23//15 19//15
f 4//15 19//15 14//15
f 4//15 14//15 10//15
f 4//15 10//15 6//15
f 5//17 6//17 10//17
f 5//18 10//18 9//18
f 7//19 11//20 12//21
f 7//19 12//21 8//22
f 9//23 10//24 14//25
f 9//23 14//25 13//26
f 11//27 15//28 16//29
f 11//27 16//29 17//30
f 11//27 17//30 12//31
f 13//32 14//33 18//34
f 14//33 19//35 18//34
f 15//36 20//37 16//38
f 16//38 20//37 21//39
f 18//34 19//35 22//40
f 19//41 23//41 24//41
f 19//42 24//42 25//42
f 19//35 25//43 22//40
f 20//44 26//45 21//45
f 21//46 26//46 27//46
f 23//47 28//47 29//47
f 23//48 29//48 24//48
f 26//49 30//50 27//51
f 27//51 30//50 31//52
f 28//53 32//53 29//53
f 29//54 32//54 33//54
f 30//55 34//56 35//57
f 30//55 35//57 31//58
f 32//59 36//60 37//61
f 32//59 37//61 33//62
f 34//63 38//63 39//63
f 34//64 39//64 35//64
f 36//65 40//66 41//67
f 36//60 41//68 37//61
f 37//69 41//69 42//69
f 38//70 43//70 44//70
f 38//71 44//71 39//71
f 40//72 45//72 46//72
f 40//73 46//73 47//73
f 40//66 47//74 41//67
f 41//75 47//75 42//75
f 43//76 48//77 49//78
f 43//79 49//79 44//79
f 45//80 50//81 51//82
f 45//80 51//82 46//83
f 48//84 52//85 53//86
f 48//77 53//87 49//78
f 50//88 54//88 55//88
f 50//81 55//89 56//90
f 50//81 56//90 51//82
f 52//91 57//91 58//91
f 52//92 58//92 59//92
f 52//85 59//93 53//86
f 54//94 60//94 61//94
f 54//95 61//95 55//95
f 57//96 62//96 63//96
f 57//97 63//97 58//97
f 60//98 64//98 65//98
f 60//99 65//99 61//99
f 62//100 66//101 67//102
f 62//103 67//103 63//103
f 64//104 68//105 65//106
f 65//106 68//105 69//107
f 66//101 70//108 71//109
f 66//101 71//109 67//102
f 68//110 72//110 73//110
f 68//105 73//111 69//107
f 70//112 74//112 71//112
f 71//113 74//113 75//113
f 72//114 76//115 73//116
f 73//116 76//115 77//117
f 74//118 78//118 75//118
f 75//119 78//119 79//119
f 76//120 80//120 77//120
f 77//121 80//122 81//123
f 78//124 82//125 79//126
f 79//126 82//125 86//127
f 79//126 86//127 83//128
f 80//122 84//129 93//130
f 80//122 93//130 85//131
f 80//122 85//131 81//123
f 83//128 86//127 88//132
f 83//128 88//132 89//133
f 83//134 89//134 87//134
f 84//135 90//135 91//135
f 84//129 91//136 92//137
f 84//129 92//137 93//130
f 87//138 89//138 95//138
f 87//139 95//139 94//139
f 90//140 96//141 97//142
f 90//140 97//142 91//143
f 94//144 95//145 99//146
f 94//144 99//146 100//147
f 94//144 100//147 98//148
f 96//149 101//149 97//149
f 97//150 101//151 102//152
f 98//148 100//147 104//153
f 98//148 104//153 103//154
f 101//151 105//155 102//152
f 102//152 105//155 106//156
f 103//157 104//157 107//157
f 104//158 108//158 107//158
f 105//159 109//159 106//159
f 106//160 109//160 110//160
f 107//161 108//161 111//161
f 108//162 112//162 113//162
f 108//163 113//163 111//163
f 109//164 114//164 110//164
f 110//165 114//165 115//165
f 111//166 113//166 112//166
f 111//167 112//167 116//167
f 112//168 117//169 116//170
f 114//171 118//171 115//171
f 115//172 118//173 120//174
f 115//172 120//174 119//175
f 116//170 117//169 121//176
f 117//169 122//177 121//176
f 119//175 120//174 123//178
f 120//174 124//179 123//178
f 121//176 122//177 125//180
f 122//177 126//181 127//182
f 122//177 127//182 125//180
f 123//178 124//179 129//183
f 123//178 129//183 128//184
f 126//185 130//185 131//185
f 126//186 131//186 127//186
f 128//187 129//187 133//187
f 128//188 133//188 132//188
f 130//189 134//189 135//189
f 130//190 135//190 131//190
f 132//191 133//191 136//191
f 133//192 137//192 136//192
f 134//193 138//194 139//195
f 134//193 139//195 135//196
f 136//197 137//198 140//199
f 137//198 141//200 140//199
f 138//201 142//202 143//203
f 138//201 143//203 144//204
f 138//194 144//205 145//206
f 138//194 145//206 139//195
f 140//199 141//200 146//207
f 141//208 147//209 146//210
f 142//211 148//212 149//212
f 142//213 149//213 144//213
f 142//202 144//204 143//203
f 146//210 147//209 150//214
f 147//215 151//215 150//215
f 148//216 152//217 153//218
f 148//216 153//218 149//219
f 150//220 151//220 155//220
f 150//221 155//221 154//221
f 152//222 156//223 153//224
f 153//224 156//223 157//225
f 154//226 155//227 158//228
f 155//227 159//229 158//228
f 156//223 160//230 157//225
f 157//231 160//232 162//233
f 157//231 162//233 161//234
f 158//235 159//236 164//237
f 158//235 164//237 168//238
f 158//235 168//238 163//239
f 161//240 162//240 166//240
f 161//241 166//241 165//241
f 163//239 168//238 167//242
f 165//243 166//244 170//245
f 165//243 170//245 174//246
f 165//243 174//246 169//247
f 167//242 168//238 172//248
f 167//242 172//248 171//249
f 169//247 174//246 175//250
f 169//251 175//251 173//251
f 171//252 172//253 176//254
f 172//255 173//255 177//255
f 172//253 177//256 176//254
f 173//257 175//257 177//257
